<svg xmlns="http://www.w3.org/2000/svg" xmlns:xlink="http://www.w3.org/1999/xlink" contentStyleType="text/css" data-diagram-type="ACTIVITY" height="1331px" preserveAspectRatio="none" style="width:241px;height:1331px;background:#FFFFFF;" version="1.1" viewBox="0 0 241 1331" width="241px" zoomAndPan="magnify"><defs/><g><ellipse cx="121.8281" cy="20" fill="#222222" rx="10" ry="10" style="stroke:#222222;stroke-width:1;"/><rect fill="#F1F1F1" height="33.9688" rx="12.5" ry="12.5" style="stroke:#181818;stroke-width:0.5;" width="71.6328" x="86.0117" y="98.4023"/><text fill="#000000" font-family="sans-serif" font-size="12" lengthAdjust="spacing" textLength="51.6328" x="96.0117" y="119.541">log error</text><ellipse cx="121.8281" cy="171.8867" fill="transparent" rx="11" ry="11" style="stroke:#222222;stroke-width:1;"/><ellipse cx="121.8281" cy="171.8867" fill="#222222" rx="6" ry="6" style="stroke:#222222;stroke-width:1;"/><polygon fill="#F1F1F1" points="52.584,50,191.0723,50,203.0723,62,191.0723,74,52.584,74,40.584,62,52.584,50" style="stroke:#181818;stroke-width:0.5;"/><text fill="#000000" font-family="sans-serif" font-size="11" lengthAdjust="spacing" textLength="19.0083" x="125.8281" y="84.2104">yes</text><text fill="#000000" font-family="sans-serif" font-size="11" lengthAdjust="spacing" textLength="138.4883" x="52.584" y="65.8081">watchDir is null or empty</text><rect fill="#F1F1F1" height="33.9688" rx="12.5" ry="12.5" style="stroke:#181818;stroke-width:0.5;" width="172.5254" x="35.5654" y="224.8867"/><text fill="#000000" font-family="sans-serif" font-size="12" lengthAdjust="spacing" textLength="152.5254" x="45.5654" y="246.0254">create File from watchDir</text><rect fill="#F1F1F1" height="33.9688" rx="12.5" ry="12.5" style="stroke:#181818;stroke-width:0.5;" width="71.6328" x="86.0117" y="327.2578"/><text fill="#000000" font-family="sans-serif" font-size="12" lengthAdjust="spacing" textLength="51.6328" x="96.0117" y="348.3965">log error</text><ellipse cx="121.8281" cy="400.7422" fill="transparent" rx="11" ry="11" style="stroke:#222222;stroke-width:1;"/><ellipse cx="121.8281" cy="400.7422" fill="#222222" rx="6" ry="6" style="stroke:#222222;stroke-width:1;"/><polygon fill="#F1F1F1" points="68.5442,278.8555,175.1121,278.8555,187.1121,290.8555,175.1121,302.8555,68.5442,302.8555,56.5442,290.8555,68.5442,278.8555" style="stroke:#181818;stroke-width:0.5;"/><text fill="#000000" font-family="sans-serif" font-size="11" lengthAdjust="spacing" textLength="19.0083" x="125.8281" y="313.0659">yes</text><text fill="#000000" font-family="sans-serif" font-size="11" lengthAdjust="spacing" textLength="106.5679" x="68.5442" y="294.6636">directory not exists</text><rect fill="#F1F1F1" height="33.9688" rx="12.5" ry="12.5" style="stroke:#181818;stroke-width:0.5;" width="71.6328" x="86.0117" y="502.1445"/><text fill="#000000" font-family="sans-serif" font-size="12" lengthAdjust="spacing" textLength="51.6328" x="96.0117" y="523.2832">log error</text><ellipse cx="121.8281" cy="575.6289" fill="transparent" rx="11" ry="11" style="stroke:#222222;stroke-width:1;"/><ellipse cx="121.8281" cy="575.6289" fill="#222222" rx="6" ry="6" style="stroke:#222222;stroke-width:1;"/><polygon fill="#F1F1F1" points="81.228,453.7422,162.4282,453.7422,174.4282,465.7422,162.4282,477.7422,81.228,477.7422,69.228,465.7422,81.228,453.7422" style="stroke:#181818;stroke-width:0.5;"/><text fill="#000000" font-family="sans-serif" font-size="11" lengthAdjust="spacing" textLength="19.0083" x="125.8281" y="487.9526">yes</text><text fill="#000000" font-family="sans-serif" font-size="11" lengthAdjust="spacing" textLength="81.2002" x="81.228" y="469.5503">not a directory</text><rect fill="#F1F1F1" height="33.9688" rx="12.5" ry="12.5" style="stroke:#181818;stroke-width:0.5;" width="71.6328" x="86.0117" y="677.0313"/><text fill="#000000" font-family="sans-serif" font-size="12" lengthAdjust="spacing" textLength="51.6328" x="96.0117" y="698.1699">log error</text><ellipse cx="121.8281" cy="750.5156" fill="transparent" rx="11" ry="11" style="stroke:#222222;stroke-width:1;"/><ellipse cx="121.8281" cy="750.5156" fill="#222222" rx="6" ry="6" style="stroke:#222222;stroke-width:1;"/><polygon fill="#F1F1F1" points="67.9561,628.6289,175.7002,628.6289,187.7002,640.6289,175.7002,652.6289,67.9561,652.6289,55.9561,640.6289,67.9561,628.6289" style="stroke:#181818;stroke-width:0.5;"/><text fill="#000000" font-family="sans-serif" font-size="11" lengthAdjust="spacing" textLength="19.0083" x="125.8281" y="662.8394">yes</text><text fill="#000000" font-family="sans-serif" font-size="11" lengthAdjust="spacing" textLength="107.7441" x="67.9561" y="644.437">saveInterval invalid</text><rect fill="#F1F1F1" height="33.9688" rx="12.5" ry="12.5" style="stroke:#181818;stroke-width:0.5;" width="145.7129" x="48.9717" y="803.5156"/><text fill="#000000" font-family="sans-serif" font-size="12" lengthAdjust="spacing" textLength="125.7129" x="58.9717" y="824.6543">initialize log enricher</text><rect fill="#F1F1F1" height="33.9688" rx="12.5" ry="12.5" style="stroke:#181818;stroke-width:0.5;" width="162.3242" x="40.666" y="857.4844"/><text fill="#000000" font-family="sans-serif" font-size="12" lengthAdjust="spacing" textLength="142.3242" x="50.666" y="878.623">setup position file tasks</text><rect fill="#F1F1F1" height="33.9688" rx="12.5" ry="12.5" style="stroke:#181818;stroke-width:0.5;" width="170.4805" x="36.5879" y="911.4531"/><text fill="#000000" font-family="sans-serif" font-size="12" lengthAdjust="spacing" textLength="150.4805" x="46.5879" y="932.5918">perform initial log import</text><rect fill="#F1F1F1" height="33.9688" rx="12.5" ry="12.5" style="stroke:#181818;stroke-width:0.5;" width="145.0449" x="49.3057" y="965.4219"/><text fill="#000000" font-family="sans-serif" font-size="12" lengthAdjust="spacing" textLength="125.0449" x="59.3057" y="986.5605">create watch service</text><rect fill="#F1F1F1" height="33.9688" rx="12.5" ry="12.5" style="stroke:#181818;stroke-width:0.5;" width="149.6563" x="47" y="1063.3906"/><text fill="#000000" font-family="sans-serif" font-size="12" lengthAdjust="spacing" textLength="129.6563" x="57" y="1084.5293">wait for watch events</text><rect fill="#F1F1F1" height="33.9688" rx="12.5" ry="12.5" style="stroke:#181818;stroke-width:0.5;" width="102.7871" x="70.4346" y="1165.7617"/><text fill="#000000" font-family="sans-serif" font-size="12" lengthAdjust="spacing" textLength="82.7871" x="80.4346" y="1186.9004">read JSON log</text><polygon fill="#F1F1F1" points="70.3193,1117.3594,173.3369,1117.3594,185.3369,1129.3594,173.3369,1141.3594,70.3193,1141.3594,58.3193,1129.3594,70.3193,1117.3594" style="stroke:#181818;stroke-width:0.5;"/><text fill="#000000" font-family="sans-serif" font-size="11" lengthAdjust="spacing" textLength="19.0083" x="125.8281" y="1151.5698">yes</text><text fill="#000000" font-family="sans-serif" font-size="11" lengthAdjust="spacing" textLength="103.0176" x="70.3193" y="1133.1675">file ends with .json</text><polygon fill="#F1F1F1" points="121.8281,1219.7305,133.8281,1231.7305,121.8281,1243.7305,109.8281,1231.7305,121.8281,1219.7305" style="stroke:#181818;stroke-width:0.5;"/><rect fill="#F1F1F1" height="33.9688" rx="12.5" ry="12.5" style="stroke:#181818;stroke-width:0.5;" width="115.7949" x="63.9307" y="1263.7305"/><text fill="#000000" font-family="sans-serif" font-size="12" lengthAdjust="spacing" textLength="95.7949" x="73.9307" y="1284.8691">reset watch key</text><polygon fill="#F1F1F1" points="66.5005,1019.3906,177.1558,1019.3906,189.1558,1031.3906,177.1558,1043.3906,66.5005,1043.3906,54.5005,1031.3906,66.5005,1019.3906" style="stroke:#181818;stroke-width:0.5;"/><text fill="#000000" font-family="sans-serif" font-size="11" lengthAdjust="spacing" textLength="110.6553" x="66.5005" y="1035.1987">watchService active</text><ellipse cx="24" cy="1074.3906" fill="transparent" rx="11" ry="11" style="stroke:#222222;stroke-width:1;"/><ellipse cx="24" cy="1074.3906" fill="#222222" rx="6" ry="6" style="stroke:#222222;stroke-width:1;"/><line style="stroke:#181818;stroke-width:1;" x1="121.8281" x2="121.8281" y1="132.3711" y2="160.8867"/><polygon fill="#181818" points="117.8281,150.8867,121.8281,160.8867,125.8281,150.8867,121.8281,154.8867" style="stroke:#181818;stroke-width:1;"/><line style="stroke:#181818;stroke-width:1;" x1="121.8281" x2="121.8281" y1="74" y2="98.4023"/><polygon fill="#181818" points="117.8281,88.4023,121.8281,98.4023,125.8281,88.4023,121.8281,92.4023" style="stroke:#181818;stroke-width:1;"/><line style="stroke:#181818;stroke-width:1;" x1="203.0723" x2="215.0723" y1="62" y2="62"/><polygon fill="#181818" points="211.0723,130.8867,215.0723,140.8867,219.0723,130.8867,215.0723,134.8867" style="stroke:#181818;stroke-width:1;"/><line style="stroke:#181818;stroke-width:1;" x1="215.0723" x2="215.0723" y1="62" y2="204.8867"/><line style="stroke:#181818;stroke-width:1;" x1="215.0723" x2="121.8281" y1="204.8867" y2="204.8867"/><line style="stroke:#181818;stroke-width:1;" x1="121.8281" x2="121.8281" y1="204.8867" y2="224.8867"/><polygon fill="#181818" points="117.8281,214.8867,121.8281,224.8867,125.8281,214.8867,121.8281,218.8867" style="stroke:#181818;stroke-width:1;"/><line style="stroke:#181818;stroke-width:1;" x1="121.8281" x2="121.8281" y1="30" y2="50"/><polygon fill="#181818" points="117.8281,40,121.8281,50,125.8281,40,121.8281,44" style="stroke:#181818;stroke-width:1;"/><line style="stroke:#181818;stroke-width:1;" x1="121.8281" x2="121.8281" y1="361.2266" y2="389.7422"/><polygon fill="#181818" points="117.8281,379.7422,121.8281,389.7422,125.8281,379.7422,121.8281,383.7422" style="stroke:#181818;stroke-width:1;"/><line style="stroke:#181818;stroke-width:1;" x1="121.8281" x2="121.8281" y1="302.8555" y2="327.2578"/><polygon fill="#181818" points="117.8281,317.2578,121.8281,327.2578,125.8281,317.2578,121.8281,321.2578" style="stroke:#181818;stroke-width:1;"/><line style="stroke:#181818;stroke-width:1;" x1="187.1121" x2="199.1121" y1="290.8555" y2="290.8555"/><polygon fill="#181818" points="195.1121,359.7422,199.1121,369.7422,203.1121,359.7422,199.1121,363.7422" style="stroke:#181818;stroke-width:1;"/><line style="stroke:#181818;stroke-width:1;" x1="199.1121" x2="199.1121" y1="290.8555" y2="433.7422"/><line style="stroke:#181818;stroke-width:1;" x1="199.1121" x2="121.8281" y1="433.7422" y2="433.7422"/><line style="stroke:#181818;stroke-width:1;" x1="121.8281" x2="121.8281" y1="433.7422" y2="453.7422"/><polygon fill="#181818" points="117.8281,443.7422,121.8281,453.7422,125.8281,443.7422,121.8281,447.7422" style="stroke:#181818;stroke-width:1;"/><line style="stroke:#181818;stroke-width:1;" x1="121.8281" x2="121.8281" y1="258.8555" y2="278.8555"/><polygon fill="#181818" points="117.8281,268.8555,121.8281,278.8555,125.8281,268.8555,121.8281,272.8555" style="stroke:#181818;stroke-width:1;"/><line style="stroke:#181818;stroke-width:1;" x1="121.8281" x2="121.8281" y1="536.1133" y2="564.6289"/><polygon fill="#181818" points="117.8281,554.6289,121.8281,564.6289,125.8281,554.6289,121.8281,558.6289" style="stroke:#181818;stroke-width:1;"/><line style="stroke:#181818;stroke-width:1;" x1="121.8281" x2="121.8281" y1="477.7422" y2="502.1445"/><polygon fill="#181818" points="117.8281,492.1445,121.8281,502.1445,125.8281,492.1445,121.8281,496.1445" style="stroke:#181818;stroke-width:1;"/><line style="stroke:#181818;stroke-width:1;" x1="174.4282" x2="186.4282" y1="465.7422" y2="465.7422"/><polygon fill="#181818" points="182.4282,534.6289,186.4282,544.6289,190.4282,534.6289,186.4282,538.6289" style="stroke:#181818;stroke-width:1;"/><line style="stroke:#181818;stroke-width:1;" x1="186.4282" x2="186.4282" y1="465.7422" y2="608.6289"/><line style="stroke:#181818;stroke-width:1;" x1="186.4282" x2="121.8281" y1="608.6289" y2="608.6289"/><line style="stroke:#181818;stroke-width:1;" x1="121.8281" x2="121.8281" y1="608.6289" y2="628.6289"/><polygon fill="#181818" points="117.8281,618.6289,121.8281,628.6289,125.8281,618.6289,121.8281,622.6289" style="stroke:#181818;stroke-width:1;"/><line style="stroke:#181818;stroke-width:1;" x1="121.8281" x2="121.8281" y1="711" y2="739.5156"/><polygon fill="#181818" points="117.8281,729.5156,121.8281,739.5156,125.8281,729.5156,121.8281,733.5156" style="stroke:#181818;stroke-width:1;"/><line style="stroke:#181818;stroke-width:1;" x1="121.8281" x2="121.8281" y1="652.6289" y2="677.0313"/><polygon fill="#181818" points="117.8281,667.0313,121.8281,677.0313,125.8281,667.0313,121.8281,671.0313" style="stroke:#181818;stroke-width:1;"/><line style="stroke:#181818;stroke-width:1;" x1="187.7002" x2="199.7002" y1="640.6289" y2="640.6289"/><polygon fill="#181818" points="195.7002,709.5156,199.7002,719.5156,203.7002,709.5156,199.7002,713.5156" style="stroke:#181818;stroke-width:1;"/><line style="stroke:#181818;stroke-width:1;" x1="199.7002" x2="199.7002" y1="640.6289" y2="783.5156"/><line style="stroke:#181818;stroke-width:1;" x1="199.7002" x2="121.8281" y1="783.5156" y2="783.5156"/><line style="stroke:#181818;stroke-width:1;" x1="121.8281" x2="121.8281" y1="783.5156" y2="803.5156"/><polygon fill="#181818" points="117.8281,793.5156,121.8281,803.5156,125.8281,793.5156,121.8281,797.5156" style="stroke:#181818;stroke-width:1;"/><line style="stroke:#181818;stroke-width:1;" x1="121.8281" x2="121.8281" y1="837.4844" y2="857.4844"/><polygon fill="#181818" points="117.8281,847.4844,121.8281,857.4844,125.8281,847.4844,121.8281,851.4844" style="stroke:#181818;stroke-width:1;"/><line style="stroke:#181818;stroke-width:1;" x1="121.8281" x2="121.8281" y1="891.4531" y2="911.4531"/><polygon fill="#181818" points="117.8281,901.4531,121.8281,911.4531,125.8281,901.4531,121.8281,905.4531" style="stroke:#181818;stroke-width:1;"/><line style="stroke:#181818;stroke-width:1;" x1="121.8281" x2="121.8281" y1="945.4219" y2="965.4219"/><polygon fill="#181818" points="117.8281,955.4219,121.8281,965.4219,125.8281,955.4219,121.8281,959.4219" style="stroke:#181818;stroke-width:1;"/><line style="stroke:#181818;stroke-width:1;" x1="121.8281" x2="121.8281" y1="1141.3594" y2="1165.7617"/><polygon fill="#181818" points="117.8281,1155.7617,121.8281,1165.7617,125.8281,1155.7617,121.8281,1159.7617" style="stroke:#181818;stroke-width:1;"/><line style="stroke:#181818;stroke-width:1;" x1="185.3369" x2="197.3369" y1="1129.3594" y2="1129.3594"/><polygon fill="#181818" points="193.3369,1172.7461,197.3369,1182.7461,201.3369,1172.7461,197.3369,1176.7461" style="stroke:#181818;stroke-width:1;"/><line style="stroke:#181818;stroke-width:1;" x1="197.3369" x2="197.3369" y1="1129.3594" y2="1231.7305"/><line style="stroke:#181818;stroke-width:1;" x1="197.3369" x2="133.8281" y1="1231.7305" y2="1231.7305"/><polygon fill="#181818" points="143.8281,1227.7305,133.8281,1231.7305,143.8281,1235.7305,139.8281,1231.7305" style="stroke:#181818;stroke-width:1;"/><line style="stroke:#181818;stroke-width:1;" x1="121.8281" x2="121.8281" y1="1199.7305" y2="1219.7305"/><polygon fill="#181818" points="117.8281,1209.7305,121.8281,1219.7305,125.8281,1209.7305,121.8281,1213.7305" style="stroke:#181818;stroke-width:1;"/><line style="stroke:#181818;stroke-width:1;" x1="121.8281" x2="121.8281" y1="1097.3594" y2="1117.3594"/><polygon fill="#181818" points="117.8281,1107.3594,121.8281,1117.3594,125.8281,1107.3594,121.8281,1111.3594" style="stroke:#181818;stroke-width:1;"/><line style="stroke:#181818;stroke-width:1;" x1="121.8281" x2="121.8281" y1="1243.7305" y2="1263.7305"/><polygon fill="#181818" points="117.8281,1253.7305,121.8281,1263.7305,125.8281,1253.7305,121.8281,1257.7305" style="stroke:#181818;stroke-width:1;"/><line style="stroke:#181818;stroke-width:1;" x1="121.8281" x2="121.8281" y1="1043.3906" y2="1063.3906"/><polygon fill="#181818" points="117.8281,1053.3906,121.8281,1063.3906,125.8281,1053.3906,121.8281,1057.3906" style="stroke:#181818;stroke-width:1;"/><line style="stroke:#181818;stroke-width:1;" x1="121.8281" x2="121.8281" y1="1297.6992" y2="1307.6992"/><line style="stroke:#181818;stroke-width:1;" x1="121.8281" x2="209.3369" y1="1307.6992" y2="1307.6992"/><polygon fill="#181818" points="205.3369,1180.7461,209.3369,1170.7461,213.3369,1180.7461,209.3369,1176.7461" style="stroke:#181818;stroke-width:1;"/><line style="stroke:#181818;stroke-width:1;" x1="209.3369" x2="209.3369" y1="1031.3906" y2="1307.6992"/><line style="stroke:#181818;stroke-width:1;" x1="209.3369" x2="189.1558" y1="1031.3906" y2="1031.3906"/><polygon fill="#181818" points="199.1558,1027.3906,189.1558,1031.3906,199.1558,1035.3906,195.1558,1031.3906" style="stroke:#181818;stroke-width:1;"/><line style="stroke:#181818;stroke-width:1;" x1="54.5005" x2="24" y1="1031.3906" y2="1031.3906"/><line style="stroke:#181818;stroke-width:1;" x1="24" x2="24" y1="1031.3906" y2="1063.3906"/><polygon fill="#181818" points="20,1053.3906,24,1063.3906,28,1053.3906,24,1057.3906" style="stroke:#181818;stroke-width:1;"/><line style="stroke:#181818;stroke-width:1;" x1="121.8281" x2="121.8281" y1="999.3906" y2="1019.3906"/><polygon fill="#181818" points="117.8281,1009.3906,121.8281,1019.3906,125.8281,1009.3906,121.8281,1013.3906" style="stroke:#181818;stroke-width:1;"/><!--SRC=[bL4nKiD03EpzYYsJXWV4BSCC553a1JTd6OlO9u-as9ZNSsSRCaCLcYkatTNkddbGhy0j3dFms3soWWtfslSG1GsZBqTuHmc7XUnOuTJBEqXLjAvWBcC5IWstUHELWXEUk2UqAWD-9EljGiDAqKKN977G9vlRlUA5NrW1loh_eLgOw3avwHHwSCelDtVduiJEcV55M459ENPKS2SZluuOnJ924jeItODTh2n7qbPqmCvVoJoCebxVsbexWcLd72dFvwveRBzntgO8qNcYOd8ExCYYEuqcIcvxlUlnxDamitTu-319VpBcamrUpc-lnKjzIwYKW-oQ5rgspUfaw-8R]--></g></svg>