<svg xmlns="http://www.w3.org/2000/svg" xmlns:xlink="http://www.w3.org/1999/xlink" contentStyleType="text/css" data-diagram-type="ACTIVITY" height="1201px" preserveAspectRatio="none" style="width:604px;height:1201px;background:#FFFFFF;" version="1.1" viewBox="0 0 604 1201" width="604px" zoomAndPan="magnify"><defs/><g><ellipse cx="220.7488" cy="20" fill="#222222" rx="10" ry="10" style="stroke:#222222;stroke-width:1;"/><rect fill="#F1F1F1" height="33.9688" rx="12.5" ry="12.5" style="stroke:#181818;stroke-width:0.5;" width="123.5703" x="158.9636" y="50"/><text fill="#000000" font-family="sans-serif" font-size="12" lengthAdjust="spacing" textLength="103.5703" x="168.9636" y="71.1387">read line as JSON</text><rect fill="#F1F1F1" height="33.9688" rx="12.5" ry="12.5" style="stroke:#181818;stroke-width:0.5;" width="124.0625" x="158.7175" y="103.9688"/><text fill="#000000" font-family="sans-serif" font-size="12" lengthAdjust="spacing" textLength="104.0625" x="168.7175" y="125.1074">get severity level</text><rect fill="#F1F1F1" height="33.9688" rx="12.5" ry="12.5" style="stroke:#181818;stroke-width:0.5;" width="57.166" x="192.1658" y="206.3398"/><text fill="#000000" font-family="sans-serif" font-size="12" lengthAdjust="spacing" textLength="37.166" x="202.1658" y="227.4785">return</text><polygon fill="#F1F1F1" points="157.8801,157.9375,283.6174,157.9375,295.6174,169.9375,283.6174,181.9375,157.8801,181.9375,145.8801,169.9375,157.8801,157.9375" style="stroke:#181818;stroke-width:0.5;"/><text fill="#000000" font-family="sans-serif" font-size="11" lengthAdjust="spacing" textLength="19.0083" x="224.7488" y="192.1479">yes</text><text fill="#000000" font-family="sans-serif" font-size="11" lengthAdjust="spacing" textLength="125.7373" x="157.8801" y="173.7456">severity is not enabled</text><polygon fill="#F1F1F1" points="220.7488,260.3086,232.7488,272.3086,220.7488,284.3086,208.7488,272.3086,220.7488,260.3086" style="stroke:#181818;stroke-width:0.5;"/><rect fill="#F1F1F1" height="33.9688" rx="12.5" ry="12.5" style="stroke:#181818;stroke-width:0.5;" width="141.0605" x="150.2185" y="304.3086"/><text fill="#000000" font-family="sans-serif" font-size="12" lengthAdjust="spacing" textLength="121.0605" x="160.2185" y="325.4473">get fields from JSON</text><rect fill="#F1F1F1" height="33.9688" rx="12.5" ry="12.5" style="stroke:#181818;stroke-width:0.5;" width="97.4492" x="172.0242" y="358.2773"/><text fill="#000000" font-family="sans-serif" font-size="12" lengthAdjust="spacing" textLength="77.4492" x="182.0242" y="379.416">get message</text><rect fill="#F1F1F1" height="33.9688" rx="12.5" ry="12.5" style="stroke:#181818;stroke-width:0.5;" width="57.166" x="192.1658" y="460.6484"/><text fill="#000000" font-family="sans-serif" font-size="12" lengthAdjust="spacing" textLength="37.166" x="202.1658" y="481.7871">return</text><polygon fill="#F1F1F1" points="99.4829,412.2461,342.0146,412.2461,354.0146,424.2461,342.0146,436.2461,99.4829,436.2461,87.4829,424.2461,99.4829,412.2461" style="stroke:#181818;stroke-width:0.5;"/><text fill="#000000" font-family="sans-serif" font-size="11" lengthAdjust="spacing" textLength="19.0083" x="224.7488" y="446.4565">yes</text><text fill="#000000" font-family="sans-serif" font-size="11" lengthAdjust="spacing" textLength="242.5317" x="99.4829" y="428.0542">message contains enricherApplicationName</text><polygon fill="#F1F1F1" points="220.7488,514.6172,232.7488,526.6172,220.7488,538.6172,208.7488,526.6172,220.7488,514.6172" style="stroke:#181818;stroke-width:0.5;"/><rect fill="#F1F1F1" height="33.9688" rx="12.5" ry="12.5" style="stroke:#181818;stroke-width:0.5;" width="144.6289" x="148.4343" y="558.6172"/><text fill="#000000" font-family="sans-serif" font-size="12" lengthAdjust="spacing" textLength="124.6289" x="158.4343" y="579.7559">create logging event</text><polygon fill="#F1F1F1" points="134.1721,612.5859,307.3254,612.5859,319.3254,624.5859,307.3254,636.5859,134.1721,636.5859,122.1721,624.5859,134.1721,612.5859" style="stroke:#181818;stroke-width:0.5;"/><text fill="#000000" font-family="sans-serif" font-size="11" lengthAdjust="spacing" textLength="173.1533" x="134.1721" y="628.394">message starts with DURATION</text><text fill="#000000" font-family="sans-serif" font-size="11" lengthAdjust="spacing" textLength="19.0083" x="103.1638" y="621.9917">yes</text><text fill="#000000" font-family="sans-serif" font-size="11" lengthAdjust="spacing" textLength="13.7017" x="319.3254" y="621.9917">no</text><rect fill="#F1F1F1" height="33.9688" rx="12.5" ry="12.5" style="stroke:#181818;stroke-width:0.5;" width="107.8496" x="11" y="646.5859"/><text fill="#000000" font-family="sans-serif" font-size="12" lengthAdjust="spacing" textLength="87.8496" x="21" y="667.7246">parse duration</text><rect fill="#F1F1F1" height="33.9688" rx="12.5" ry="12.5" style="stroke:#181818;stroke-width:0.5;" width="197.1113" x="278.0171" y="646.5859"/><text fill="#000000" font-family="sans-serif" font-size="12" lengthAdjust="spacing" textLength="177.1113" x="288.0171" y="667.7246">set message in logging event</text><polygon fill="#F1F1F1" points="150.8496,700.5547,339.418,700.5547,351.418,712.5547,339.418,724.5547,150.8496,724.5547,138.8496,712.5547,150.8496,700.5547" style="stroke:#181818;stroke-width:0.5;"/><text fill="#000000" font-family="sans-serif" font-size="11" lengthAdjust="spacing" textLength="19.0083" x="249.1338" y="734.7651">yes</text><text fill="#000000" font-family="sans-serif" font-size="11" lengthAdjust="spacing" textLength="188.5684" x="150.8496" y="716.3628">message starts with "statement: "</text><rect fill="#F1F1F1" height="33.9688" rx="12.5" ry="12.5" style="stroke:#181818;stroke-width:0.5;" width="170.5391" x="159.8643" y="756.2651"/><text fill="#000000" font-family="sans-serif" font-size="12" lengthAdjust="spacing" textLength="150.5391" x="169.8643" y="777.4038">add statement key-value</text><polygon fill="#F1F1F1" points="383.418,700.5547,552.2959,700.5547,564.2959,712.5547,552.2959,724.5547,383.418,724.5547,371.418,712.5547,383.418,700.5547" style="stroke:#181818;stroke-width:0.5;"/><text fill="#000000" font-family="sans-serif" font-size="11" lengthAdjust="spacing" textLength="19.0083" x="471.8569" y="734.7651">yes</text><text fill="#000000" font-family="sans-serif" font-size="11" lengthAdjust="spacing" textLength="168.8779" x="383.418" y="716.3628">message starts with "execute"</text><rect fill="#F1F1F1" height="33.9688" rx="12.5" ry="12.5" style="stroke:#181818;stroke-width:0.5;" width="156.916" x="389.3989" y="756.2651"/><text fill="#000000" font-family="sans-serif" font-size="12" lengthAdjust="spacing" textLength="136.916" x="399.3989" y="777.4038">add execute key-value</text><polygon fill="#F1F1F1" points="220.7488,816.2339,232.7488,828.2339,220.7488,840.2339,208.7488,828.2339,220.7488,816.2339" style="stroke:#181818;stroke-width:0.5;"/><rect fill="#F1F1F1" height="33.9688" rx="12.5" ry="12.5" style="stroke:#181818;stroke-width:0.5;" width="193.5137" x="123.9919" y="860.2339"/><text fill="#000000" font-family="sans-serif" font-size="12" lengthAdjust="spacing" textLength="173.5137" x="133.9919" y="881.3726">process log record attributes</text><rect fill="#F1F1F1" height="33.9688" rx="12.5" ry="12.5" style="stroke:#181818;stroke-width:0.5;" width="57.166" x="192.1658" y="962.605"/><text fill="#000000" font-family="sans-serif" font-size="12" lengthAdjust="spacing" textLength="37.166" x="202.1658" y="983.7437">return</text><polygon fill="#F1F1F1" points="144.1194,914.2026,297.3782,914.2026,309.3782,926.2026,297.3782,938.2026,144.1194,938.2026,132.1194,926.2026,144.1194,914.2026" style="stroke:#181818;stroke-width:0.5;"/><text fill="#000000" font-family="sans-serif" font-size="11" lengthAdjust="spacing" textLength="19.0083" x="224.7488" y="948.4131">yes</text><text fill="#000000" font-family="sans-serif" font-size="11" lengthAdjust="spacing" textLength="153.2588" x="144.1194" y="930.0107">logging event builder is null</text><polygon fill="#F1F1F1" points="220.7488,1016.5737,232.7488,1028.5737,220.7488,1040.5737,208.7488,1028.5737,220.7488,1016.5737" style="stroke:#181818;stroke-width:0.5;"/><rect fill="#F1F1F1" height="33.9688" rx="12.5" ry="12.5" style="stroke:#181818;stroke-width:0.5;" width="202.2148" x="119.6414" y="1060.5737"/><text fill="#000000" font-family="sans-serif" font-size="12" lengthAdjust="spacing" textLength="182.2148" x="129.6414" y="1081.7124">add fileName to logging event</text><rect fill="#F1F1F1" height="33.9688" rx="12.5" ry="12.5" style="stroke:#181818;stroke-width:0.5;" width="76.2852" x="182.6062" y="1114.5425"/><text fill="#000000" font-family="sans-serif" font-size="12" lengthAdjust="spacing" textLength="56.2852" x="192.6062" y="1135.6812">log event</text><ellipse cx="220.7488" cy="1179.5112" fill="transparent" rx="11" ry="11" style="stroke:#222222;stroke-width:1;"/><ellipse cx="220.7488" cy="1179.5112" fill="#222222" rx="6" ry="6" style="stroke:#222222;stroke-width:1;"/><line style="stroke:#181818;stroke-width:1;" x1="220.7488" x2="220.7488" y1="30" y2="50"/><polygon fill="#181818" points="216.7488,40,220.7488,50,224.7488,40,220.7488,44" style="stroke:#181818;stroke-width:1;"/><line style="stroke:#181818;stroke-width:1;" x1="220.7488" x2="220.7488" y1="83.9688" y2="103.9688"/><polygon fill="#181818" points="216.7488,93.9688,220.7488,103.9688,224.7488,93.9688,220.7488,97.9688" style="stroke:#181818;stroke-width:1;"/><line style="stroke:#181818;stroke-width:1;" x1="220.7488" x2="220.7488" y1="181.9375" y2="206.3398"/><polygon fill="#181818" points="216.7488,196.3398,220.7488,206.3398,224.7488,196.3398,220.7488,200.3398" style="stroke:#181818;stroke-width:1;"/><line style="stroke:#181818;stroke-width:1;" x1="295.6174" x2="307.6174" y1="169.9375" y2="169.9375"/><polygon fill="#181818" points="303.6174,213.3242,307.6174,223.3242,311.6174,213.3242,307.6174,217.3242" style="stroke:#181818;stroke-width:1;"/><line style="stroke:#181818;stroke-width:1;" x1="307.6174" x2="307.6174" y1="169.9375" y2="272.3086"/><line style="stroke:#181818;stroke-width:1;" x1="307.6174" x2="232.7488" y1="272.3086" y2="272.3086"/><polygon fill="#181818" points="242.7488,268.3086,232.7488,272.3086,242.7488,276.3086,238.7488,272.3086" style="stroke:#181818;stroke-width:1;"/><line style="stroke:#181818;stroke-width:1;" x1="220.7488" x2="220.7488" y1="240.3086" y2="260.3086"/><polygon fill="#181818" points="216.7488,250.3086,220.7488,260.3086,224.7488,250.3086,220.7488,254.3086" style="stroke:#181818;stroke-width:1;"/><line style="stroke:#181818;stroke-width:1;" x1="220.7488" x2="220.7488" y1="137.9375" y2="157.9375"/><polygon fill="#181818" points="216.7488,147.9375,220.7488,157.9375,224.7488,147.9375,220.7488,151.9375" style="stroke:#181818;stroke-width:1;"/><line style="stroke:#181818;stroke-width:1;" x1="220.7488" x2="220.7488" y1="284.3086" y2="304.3086"/><polygon fill="#181818" points="216.7488,294.3086,220.7488,304.3086,224.7488,294.3086,220.7488,298.3086" style="stroke:#181818;stroke-width:1;"/><line style="stroke:#181818;stroke-width:1;" x1="220.7488" x2="220.7488" y1="338.2773" y2="358.2773"/><polygon fill="#181818" points="216.7488,348.2773,220.7488,358.2773,224.7488,348.2773,220.7488,352.2773" style="stroke:#181818;stroke-width:1;"/><line style="stroke:#181818;stroke-width:1;" x1="220.7488" x2="220.7488" y1="436.2461" y2="460.6484"/><polygon fill="#181818" points="216.7488,450.6484,220.7488,460.6484,224.7488,450.6484,220.7488,454.6484" style="stroke:#181818;stroke-width:1;"/><line style="stroke:#181818;stroke-width:1;" x1="354.0146" x2="366.0146" y1="424.2461" y2="424.2461"/><polygon fill="#181818" points="362.0146,467.6328,366.0146,477.6328,370.0146,467.6328,366.0146,471.6328" style="stroke:#181818;stroke-width:1;"/><line style="stroke:#181818;stroke-width:1;" x1="366.0146" x2="366.0146" y1="424.2461" y2="526.6172"/><line style="stroke:#181818;stroke-width:1;" x1="366.0146" x2="232.7488" y1="526.6172" y2="526.6172"/><polygon fill="#181818" points="242.7488,522.6172,232.7488,526.6172,242.7488,530.6172,238.7488,526.6172" style="stroke:#181818;stroke-width:1;"/><line style="stroke:#181818;stroke-width:1;" x1="220.7488" x2="220.7488" y1="494.6172" y2="514.6172"/><polygon fill="#181818" points="216.7488,504.6172,220.7488,514.6172,224.7488,504.6172,220.7488,508.6172" style="stroke:#181818;stroke-width:1;"/><line style="stroke:#181818;stroke-width:1;" x1="220.7488" x2="220.7488" y1="392.2461" y2="412.2461"/><polygon fill="#181818" points="216.7488,402.2461,220.7488,412.2461,224.7488,402.2461,220.7488,406.2461" style="stroke:#181818;stroke-width:1;"/><line style="stroke:#181818;stroke-width:1;" x1="220.7488" x2="220.7488" y1="538.6172" y2="558.6172"/><polygon fill="#181818" points="216.7488,548.6172,220.7488,558.6172,224.7488,548.6172,220.7488,552.6172" style="stroke:#181818;stroke-width:1;"/><line style="stroke:#181818;stroke-width:1;" x1="245.1338" x2="245.1338" y1="724.5547" y2="756.2651"/><polygon fill="#181818" points="241.1338,746.2651,245.1338,756.2651,249.1338,746.2651,245.1338,750.2651" style="stroke:#181818;stroke-width:1;"/><line style="stroke:#181818;stroke-width:1;" x1="245.1338" x2="245.1338" y1="790.2339" y2="810.2339"/><polygon fill="#181818" points="241.1338,800.2339,245.1338,810.2339,249.1338,800.2339,245.1338,804.2339" style="stroke:#181818;stroke-width:1;"/><line style="stroke:#181818;stroke-width:1;" x1="467.8569" x2="467.8569" y1="724.5547" y2="756.2651"/><polygon fill="#181818" points="463.8569,746.2651,467.8569,756.2651,471.8569,746.2651,467.8569,750.2651" style="stroke:#181818;stroke-width:1;"/><line style="stroke:#181818;stroke-width:1;" x1="467.8569" x2="467.8569" y1="790.2339" y2="810.2339"/><polygon fill="#181818" points="463.8569,800.2339,467.8569,810.2339,471.8569,800.2339,467.8569,804.2339" style="stroke:#181818;stroke-width:1;"/><line style="stroke:#181818;stroke-width:1;" x1="351.418" x2="371.418" y1="712.5547" y2="712.5547"/><polygon fill="#181818" points="361.418,708.5547,371.418,712.5547,361.418,716.5547,365.418,712.5547" style="stroke:#181818;stroke-width:1;"/><line style="stroke:#181818;stroke-width:1;" x1="376.5728" x2="376.5728" y1="680.5547" y2="685.5547"/><line style="stroke:#181818;stroke-width:1;" x1="376.5728" x2="245.1338" y1="685.5547" y2="685.5547"/><line style="stroke:#181818;stroke-width:1;" x1="245.1338" x2="245.1338" y1="685.5547" y2="700.5547"/><polygon fill="#181818" points="241.1338,690.5547,245.1338,700.5547,249.1338,690.5547,245.1338,694.5547" style="stroke:#181818;stroke-width:1;"/><line style="stroke:#181818;stroke-width:1;" x1="564.2959" x2="578.2959" y1="712.5547" y2="712.5547"/><line style="stroke:#181818;stroke-width:1;" x1="578.2959" x2="578.2959" y1="712.5547" y2="810.2339"/><polygon fill="#181818" points="574.2959,800.2339,578.2959,810.2339,582.2959,800.2339,578.2959,804.2339" style="stroke:#181818;stroke-width:1;"/><line style="stroke:#181818;stroke-width:1;" x1="245.1338" x2="578.2959" y1="810.2339" y2="810.2339"/><line style="stroke:#181818;stroke-width:1;" x1="122.1721" x2="64.9248" y1="624.5859" y2="624.5859"/><line style="stroke:#181818;stroke-width:1;" x1="64.9248" x2="64.9248" y1="624.5859" y2="646.5859"/><polygon fill="#181818" points="60.9248,636.5859,64.9248,646.5859,68.9248,636.5859,64.9248,640.5859" style="stroke:#181818;stroke-width:1;"/><line style="stroke:#181818;stroke-width:1;" x1="319.3254" x2="376.5728" y1="624.5859" y2="624.5859"/><line style="stroke:#181818;stroke-width:1;" x1="376.5728" x2="376.5728" y1="624.5859" y2="646.5859"/><polygon fill="#181818" points="372.5728,636.5859,376.5728,646.5859,380.5728,636.5859,376.5728,640.5859" style="stroke:#181818;stroke-width:1;"/><line style="stroke:#181818;stroke-width:1;" x1="64.9248" x2="64.9248" y1="680.5547" y2="828.2339"/><line style="stroke:#181818;stroke-width:1;" x1="64.9248" x2="208.7488" y1="828.2339" y2="828.2339"/><polygon fill="#181818" points="198.7488,824.2339,208.7488,828.2339,198.7488,832.2339,202.7488,828.2339" style="stroke:#181818;stroke-width:1;"/><line style="stroke:#181818;stroke-width:1;" x1="376.5728" x2="376.5728" y1="810.2339" y2="828.2339"/><line style="stroke:#181818;stroke-width:1;" x1="376.5728" x2="232.7488" y1="828.2339" y2="828.2339"/><polygon fill="#181818" points="242.7488,824.2339,232.7488,828.2339,242.7488,832.2339,238.7488,828.2339" style="stroke:#181818;stroke-width:1;"/><line style="stroke:#181818;stroke-width:1;" x1="220.7488" x2="220.7488" y1="592.5859" y2="612.5859"/><polygon fill="#181818" points="216.7488,602.5859,220.7488,612.5859,224.7488,602.5859,220.7488,606.5859" style="stroke:#181818;stroke-width:1;"/><line style="stroke:#181818;stroke-width:1;" x1="220.7488" x2="220.7488" y1="840.2339" y2="860.2339"/><polygon fill="#181818" points="216.7488,850.2339,220.7488,860.2339,224.7488,850.2339,220.7488,854.2339" style="stroke:#181818;stroke-width:1;"/><line style="stroke:#181818;stroke-width:1;" x1="220.7488" x2="220.7488" y1="938.2026" y2="962.605"/><polygon fill="#181818" points="216.7488,952.605,220.7488,962.605,224.7488,952.605,220.7488,956.605" style="stroke:#181818;stroke-width:1;"/><line style="stroke:#181818;stroke-width:1;" x1="309.3782" x2="321.3782" y1="926.2026" y2="926.2026"/><polygon fill="#181818" points="317.3782,969.5894,321.3782,979.5894,325.3782,969.5894,321.3782,973.5894" style="stroke:#181818;stroke-width:1;"/><line style="stroke:#181818;stroke-width:1;" x1="321.3782" x2="321.3782" y1="926.2026" y2="1028.5737"/><line style="stroke:#181818;stroke-width:1;" x1="321.3782" x2="232.7488" y1="1028.5737" y2="1028.5737"/><polygon fill="#181818" points="242.7488,1024.5737,232.7488,1028.5737,242.7488,1032.5737,238.7488,1028.5737" style="stroke:#181818;stroke-width:1;"/><line style="stroke:#181818;stroke-width:1;" x1="220.7488" x2="220.7488" y1="996.5737" y2="1016.5737"/><polygon fill="#181818" points="216.7488,1006.5737,220.7488,1016.5737,224.7488,1006.5737,220.7488,1010.5737" style="stroke:#181818;stroke-width:1;"/><line style="stroke:#181818;stroke-width:1;" x1="220.7488" x2="220.7488" y1="894.2026" y2="914.2026"/><polygon fill="#181818" points="216.7488,904.2026,220.7488,914.2026,224.7488,904.2026,220.7488,908.2026" style="stroke:#181818;stroke-width:1;"/><line style="stroke:#181818;stroke-width:1;" x1="220.7488" x2="220.7488" y1="1040.5737" y2="1060.5737"/><polygon fill="#181818" points="216.7488,1050.5737,220.7488,1060.5737,224.7488,1050.5737,220.7488,1054.5737" style="stroke:#181818;stroke-width:1;"/><line style="stroke:#181818;stroke-width:1;" x1="220.7488" x2="220.7488" y1="1094.5425" y2="1114.5425"/><polygon fill="#181818" points="216.7488,1104.5425,220.7488,1114.5425,224.7488,1104.5425,220.7488,1108.5425" style="stroke:#181818;stroke-width:1;"/><line style="stroke:#181818;stroke-width:1;" x1="220.7488" x2="220.7488" y1="1148.5112" y2="1168.5112"/><polygon fill="#181818" points="216.7488,1158.5112,220.7488,1168.5112,224.7488,1158.5112,220.7488,1162.5112" style="stroke:#181818;stroke-width:1;"/><!--SRC=[ZPBDJiCm383lF8MrqtRW1SPf4XSuR18_3v0cRcVXEfNj3lRs9ACRsW2DMsqdtsSxDG_gDx1K30cO124OF3vlrdSbsQ63uGwLV0zSFhXagONvAKa6aXrGGiEO5k1R59ZlqHO7feygvGfAedRYjOIS35hD_PcdHxFGuIIO8eXPF91OGIZ5BUfg69XYSCgo3ZrUCyOoboDmxZgI3ahRuXSAgnimU2VVmlthq-hbORE-m0v13I6DUl1MF9TuBhaMxRjv8FctQbO2nxuSMiBimXTIWbCPtd1_kmiyuYJ-auWV64V7tsXJwPprjQFZgWRDiL3h0A0OioO8xafDkMVJ86V3GJCI9zJ3Jp0oNtkBsaTBZFNTmFEFJIsh-HYOv-4J]--></g></svg>