<svg xmlns="http://www.w3.org/2000/svg" xmlns:xlink="http://www.w3.org/1999/xlink" contentStyleType="text/css" height="206px" preserveAspectRatio="none" style="width:634px;height:206px;background:#FFFFFF;" version="1.1" viewBox="0 0 634 206" width="634px" zoomAndPan="magnify"><defs/><g><!--entity PostgreSQL 15+--><g id="elem_PostgreSQL 15+"><path d="M483,16.5 C483,6.5 550.374,6.5 550.374,6.5 C550.374,6.5 617.748,6.5 617.748,16.5 L617.748,41.7969 C617.748,51.7969 550.374,51.7969 550.374,51.7969 C550.374,51.7969 483,51.7969 483,41.7969 L483,16.5 " fill="#F1F1F1" style="stroke:#181818;stroke-width:0.5;"/><path d="M483,16.5 C483,26.5 550.374,26.5 550.374,26.5 C550.374,26.5 617.748,26.5 617.748,16.5 " fill="none" style="stroke:#181818;stroke-width:0.5;"/><text fill="#000000" font-family="sans-serif" font-size="14" lengthAdjust="spacing" textLength="114.748" x="493" y="43.4951">PostgreSQL 15+</text></g><!--entity postgres_log_parser--><g id="elem_postgres_log_parser"><polygon fill="#98FB98" points="32,16,42,6,213.0117,6,213.0117,42.2969,203.0117,52.2969,32,52.2969,32,16" style="stroke:#181818;stroke-width:0.5;"/><line style="stroke:#181818;stroke-width:0.5;" x1="203.0117" x2="213.0117" y1="16" y2="6"/><line style="stroke:#181818;stroke-width:0.5;" x1="32" x2="203.0117" y1="16" y2="16"/><line style="stroke:#181818;stroke-width:0.5;" x1="203.0117" x2="203.0117" y1="16" y2="52.2969"/><text fill="#000000" font-family="sans-serif" font-size="14" lengthAdjust="spacing" textLength="141.0117" x="47" y="38.9951">postgres_log_parser</text></g><!--entity OpenTelemetry collector--><g id="elem_OpenTelemetry collector"><polygon fill="#F1F1F1" points="16,153,26,143,229.4551,143,229.4551,179.2969,219.4551,189.2969,16,189.2969,16,153" style="stroke:#181818;stroke-width:0.5;"/><line style="stroke:#181818;stroke-width:0.5;" x1="219.4551" x2="229.4551" y1="153" y2="143"/><line style="stroke:#181818;stroke-width:0.5;" x1="16" x2="219.4551" y1="153" y2="153"/><line style="stroke:#181818;stroke-width:0.5;" x1="219.4551" x2="219.4551" y1="153" y2="189.2969"/><text fill="#000000" font-family="sans-serif" font-size="14" lengthAdjust="spacing" textLength="173.4551" x="31" y="175.9951">OpenTelemetry collector</text></g><!--link postgres_log_parser to PostgreSQL 15+--><g id="link_postgres_log_parser_PostgreSQL 15+"><path d="M213.01,29 C293.72,29 410.05,29 482.91,29 " fill="none" id="postgres_log_parser-PostgreSQL 15+" style="stroke:#181818;stroke-width:1.0;"/><text fill="#000000" font-family="sans-serif" font-size="13" lengthAdjust="spacing" textLength="233.7842" x="231.5" y="22.0669">watch changes and parse JSON logs</text></g><!--link postgres_log_parser to OpenTelemetry collector--><g id="link_postgres_log_parser_OpenTelemetry collector"><path d="M122.5,52.29 C122.5,77.31 122.5,117.65 122.5,142.67 " fill="none" id="postgres_log_parser-OpenTelemetry collector" style="stroke:#181818;stroke-width:1.0;"/><text fill="#000000" font-family="sans-serif" font-size="13" lengthAdjust="spacing" textLength="107.5547" x="130.5" y="102.0669">sending the logs</text><path d="M129.5711,90.4089 A10,10 0 0 0 115.4289 90.4089" fill="none" style="stroke:#181818;stroke-width:1.5;"/><ellipse cx="122.5" cy="97.48" fill="#FFFFFF" rx="6" ry="6" style="stroke:#181818;stroke-width:1.5;"/></g><!--SRC=[TOr12i8m54JtdcAe6q4Akd3J8uZOIjsNRpAaGan2Va2ylQMwqsw7zzvOAN8J9QekQd6P_UM4_M5RhH2Y9T9drS57DoJ9oenr4izfPFX2LPiOhlHyiEGNJFIUfiGyHVxvzSyP6Zobc15cbE2ea60nqpZsxHcJh0kjpQvU_c-W3FOU7Ch8kV86]--></g></svg>