<svg xmlns="http://www.w3.org/2000/svg" xmlns:xlink="http://www.w3.org/1999/xlink" contentStyleType="text/css" height="512px" preserveAspectRatio="none" style="width:745px;height:512px;background:#000000;" version="1.1" viewBox="0 0 745 512" width="745px" zoomAndPan="magnify"><defs/><g><rect fill="none" height="367.7188" style="stroke:#999999;stroke-width:1.0;" width="10" x="204.7461" y="83.9375"/><rect fill="none" height="139.9063" style="stroke:#999999;stroke-width:1.0;" width="10" x="435.5322" y="121.9063"/><rect fill="none" height="48.9688" style="stroke:#999999;stroke-width:1.0;" width="10" x="440.5322" y="167.875"/><rect fill="none" height="113.9063" style="stroke:#999999;stroke-width:1.0;" width="10" x="435.5322" y="299.7813"/><rect fill="none" height="37.9688" style="stroke:#999999;stroke-width:1.0;" width="10" x="678.915" y="337.75"/><line style="stroke:#999999;stroke-width:0.5;stroke-dasharray:5.0,5.0;" x1="209.3477" x2="209.3477" y1="43.9688" y2="469.6563"/><line style="stroke:#999999;stroke-width:0.5;stroke-dasharray:5.0,5.0;" x1="440.1445" x2="440.1445" y1="43.9688" y2="469.6563"/><line style="stroke:#999999;stroke-width:0.5;stroke-dasharray:5.0,5.0;" x1="683.4473" x2="683.4473" y1="43.9688" y2="469.6563"/><rect fill="#555555" height="37.9688" rx="4" ry="4" style="stroke:#555555;stroke-width:1.0;" width="168.7969" x="125.3477" y="5"/><text fill="#FFFFFF" font-family="Verdana" font-size="12" lengthAdjust="spacing" textLength="144.7969" x="137.3477" y="28.1387">TestCliArgumentParsing</text><rect fill="#555555" height="37.9688" rx="4" ry="4" style="stroke:#555555;stroke-width:1.0;" width="168.7969" x="125.3477" y="468.6563"/><text fill="#FFFFFF" font-family="Verdana" font-size="12" lengthAdjust="spacing" textLength="144.7969" x="137.3477" y="491.7949">TestCliArgumentParsing</text><rect fill="#555555" height="37.9688" rx="4" ry="4" style="stroke:#555555;stroke-width:1.0;" width="112.7754" x="384.1445" y="5"/><text fill="#FFFFFF" font-family="Verdana" font-size="12" lengthAdjust="spacing" textLength="88.7754" x="396.1445" y="28.1387">PostgreSqlJson</text><rect fill="#555555" height="37.9688" rx="4" ry="4" style="stroke:#555555;stroke-width:1.0;" width="112.7754" x="384.1445" y="468.6563"/><text fill="#FFFFFF" font-family="Verdana" font-size="12" lengthAdjust="spacing" textLength="88.7754" x="396.1445" y="491.7949">PostgreSqlJson</text><rect fill="#555555" height="37.9688" rx="4" ry="4" style="stroke:#555555;stroke-width:1.0;" width="110.9355" x="628.4473" y="5"/><text fill="#FFFFFF" font-family="Verdana" font-size="12" lengthAdjust="spacing" textLength="86.9355" x="640.4473" y="28.1387">EnrichmentOff</text><rect fill="#555555" height="37.9688" rx="4" ry="4" style="stroke:#555555;stroke-width:1.0;" width="110.9355" x="628.4473" y="468.6563"/><text fill="#FFFFFF" font-family="Verdana" font-size="12" lengthAdjust="spacing" textLength="86.9355" x="640.4473" y="491.7949">EnrichmentOff</text><rect fill="none" height="367.7188" style="stroke:#999999;stroke-width:1.0;" width="10" x="204.7461" y="83.9375"/><rect fill="none" height="139.9063" style="stroke:#999999;stroke-width:1.0;" width="10" x="435.5322" y="121.9063"/><rect fill="none" height="48.9688" style="stroke:#999999;stroke-width:1.0;" width="10" x="440.5322" y="167.875"/><rect fill="none" height="113.9063" style="stroke:#999999;stroke-width:1.0;" width="10" x="435.5322" y="299.7813"/><rect fill="none" height="37.9688" style="stroke:#999999;stroke-width:1.0;" width="10" x="678.915" y="337.75"/><polygon fill="#4362B1" points="192.7461,79.9375,202.7461,83.9375,192.7461,87.9375,196.7461,83.9375" style="stroke:#4362B1;stroke-width:1.0;"/><line style="stroke:#4362B1;stroke-width:3.0;" x1="0" x2="198.7461" y1="83.9375" y2="83.9375"/><text fill="#FFFFFF" font-family="Verdana" font-size="12" lengthAdjust="spacing" textLength="112.0078" x="12" y="74.1074">testNonExistingDir</text><text fill="#808080" font-family="Verdana" font-size="12" lengthAdjust="spacing" textLength="56.1094" x="131.6367" y="74.1074">0.892 ms</text><polygon fill="#4362B1" points="423.5322,117.9063,433.5322,121.9063,423.5322,125.9063,427.5322,121.9063" style="stroke:#4362B1;stroke-width:1.0;"/><line style="stroke:#4362B1;stroke-width:3.0;" x1="214.7461" x2="429.5322" y1="121.9063" y2="121.9063"/><text fill="#FFFFFF" font-family="Verdana" font-size="12" lengthAdjust="spacing" textLength="20.6191" x="226.7461" y="112.0762">call</text><text fill="#808080" font-family="Verdana" font-size="12" lengthAdjust="spacing" textLength="56.1094" x="254.9941" y="112.0762">0.075 ms</text><line style="stroke:#4362B1;stroke-width:3.0;" x1="445.5322" x2="492.5322" y1="154.875" y2="154.875"/><line style="stroke:#4362B1;stroke-width:3.0;" x1="492.5322" x2="492.5322" y1="154.875" y2="167.875"/><line style="stroke:#4362B1;stroke-width:3.0;" x1="451.5322" x2="492.5322" y1="167.875" y2="167.875"/><polygon fill="#4362B1" points="461.5322,163.875,451.5322,167.875,461.5322,171.875,457.5322,167.875" style="stroke:#4362B1;stroke-width:1.0;"/><text fill="#FFFFFF" font-family="Verdana" font-size="12" lengthAdjust="spacing" textLength="128.0098" x="462.5322" y="145.0449">watchPostgreSqlLogs</text><text fill="#808080" font-family="Verdana" font-size="12" lengthAdjust="spacing" textLength="63.7441" x="598.1709" y="145.0449">0.0288 ms</text><line style="stroke:#4362B1;stroke-width:3.0;stroke-dasharray:2.0,2.0;" x1="393.5322" x2="439.5322" y1="215.8438" y2="215.8438"/><line style="stroke:#4362B1;stroke-width:3.0;stroke-dasharray:2.0,2.0;" x1="393.5322" x2="393.5322" y1="215.8438" y2="228.8438"/><line style="stroke:#4362B1;stroke-width:3.0;stroke-dasharray:2.0,2.0;" x1="393.5322" x2="433.5322" y1="228.8438" y2="228.8438"/><polygon fill="#4362B1" points="423.5322,224.8438,433.5322,228.8438,423.5322,232.8438,427.5322,228.8438" style="stroke:#4362B1;stroke-width:1.0;"/><text fill="#FFFFFF" font-family="Verdana" font-size="12" lengthAdjust="spacing" textLength="101.8477" x="321.6846" y="206.0137">java.lang.Integer</text><polygon fill="#4362B1" points="225.7461,257.8125,215.7461,261.8125,225.7461,265.8125,221.7461,261.8125" style="stroke:#4362B1;stroke-width:1.0;"/><line style="stroke:#4362B1;stroke-width:3.0;stroke-dasharray:2.0,2.0;" x1="219.7461" x2="439.5322" y1="261.8125" y2="261.8125"/><text fill="#FFFFFF" font-family="Verdana" font-size="12" lengthAdjust="spacing" textLength="101.8477" x="236.7461" y="251.9824">java.lang.Integer</text><polygon fill="#4362B1" points="423.5322,295.7813,433.5322,299.7813,423.5322,303.7813,427.5322,299.7813" style="stroke:#4362B1;stroke-width:1.0;"/><line style="stroke:#4362B1;stroke-width:3.0;" x1="214.7461" x2="429.5322" y1="299.7813" y2="299.7813"/><text fill="#FFFFFF" font-family="Verdana" font-size="12" lengthAdjust="spacing" textLength="30.9082" x="226.7461" y="289.9512">close</text><text fill="#808080" font-family="Verdana" font-size="12" lengthAdjust="spacing" textLength="63.7441" x="265.2832" y="289.9512">0.0349 ms</text><polygon fill="#4362B1" points="666.915,333.75,676.915,337.75,666.915,341.75,670.915,337.75" style="stroke:#4362B1;stroke-width:1.0;"/><line style="stroke:#4362B1;stroke-width:3.0;" x1="445.5322" x2="672.915" y1="337.75" y2="337.75"/><text fill="#FFFFFF" font-family="Verdana" font-size="12" lengthAdjust="spacing" textLength="30.9082" x="457.5322" y="327.9199">close</text><text fill="#808080" font-family="Verdana" font-size="12" lengthAdjust="spacing" textLength="63.7441" x="496.0693" y="327.9199">0.0115 ms</text><polygon fill="#4362B1" points="456.5322,371.7188,446.5322,375.7188,456.5322,379.7188,452.5322,375.7188" style="stroke:#4362B1;stroke-width:1.0;"/><line style="stroke:#4362B1;stroke-width:3.0;stroke-dasharray:2.0,2.0;" x1="450.5322" x2="682.915" y1="375.7188" y2="375.7188"/><text fill="#FFFFFF" font-family="Verdana" font-size="12" lengthAdjust="spacing" textLength="25.3945" x="467.5322" y="365.8887">void</text><polygon fill="#4362B1" points="225.7461,409.6875,215.7461,413.6875,225.7461,417.6875,221.7461,413.6875" style="stroke:#4362B1;stroke-width:1.0;"/><line style="stroke:#4362B1;stroke-width:3.0;stroke-dasharray:2.0,2.0;" x1="219.7461" x2="439.5322" y1="413.6875" y2="413.6875"/><text fill="#FFFFFF" font-family="Verdana" font-size="12" lengthAdjust="spacing" textLength="25.3945" x="236.7461" y="403.8574">void</text><polygon fill="#4362B1" points="11,447.6563,1,451.6563,11,455.6563,7,451.6563" style="stroke:#4362B1;stroke-width:1.0;"/><line style="stroke:#4362B1;stroke-width:3.0;stroke-dasharray:2.0,2.0;" x1="5" x2="208.7461" y1="451.6563" y2="451.6563"/><text fill="#FFFFFF" font-family="Verdana" font-size="12" lengthAdjust="spacing" textLength="25.3945" x="22" y="441.8262">void</text><!--SRC=[fPDFJm8n4CNlV8hAVNS19SA6R6AKWyOeYTuuZQLqQxfjRMT1lxrr8Kht3q6zlfdtVkdCz4meAiiLAwqaEQ9nQP9OsCPSO5w-b8vPgXKoXJ7LHS8PWZ45cCH8K5WMCiAS5ImfGAXaLzefiV75dW6BWWhZUyapStWjnPNbPU7p5c2TK9o08_tsKZ-mBxH3RjdJcxnpMbMsK0hRvyeAcd-bFQxNLNUWz7k4BAEi7PmIzFg3LlDtuT0BDyAI6TLIsvHR-CZ889vCHwHmiwHICvy65CK6a7MyqtUGZbAKXGz92GKfwy31vJW47Y13VrKZDR49sGBI_4UyrzmrcAF9f0xz7NOMHNNkAsmWzjV3urj_M9pPlN75ZWMtZ-xa-B-4j-n5QiSQGpg_cFvlCy5bTb66m_6HLGGHNPkeSJPQh9gpRoQTFFhlm6FJNdfZrxVR1npOspi_0G00]--></g></svg>