<svg xmlns="http://www.w3.org/2000/svg" xmlns:xlink="http://www.w3.org/1999/xlink" contentStyleType="text/css" height="408px" preserveAspectRatio="none" style="width:699px;height:408px;background:#FFFFFF;" version="1.1" viewBox="0 0 699 408" width="699px" zoomAndPan="magnify"><defs/><g><rect fill="#FFFFFF" height="288.1953" style="stroke:#181818;stroke-width:1.0;" width="10" x="224.2451" y="67.4297"/><rect fill="#FFFFFF" height="113.3984" style="stroke:#181818;stroke-width:1.0;" width="10" x="380.4897" y="96.5625"/><rect fill="#FFFFFF" height="40.1328" style="stroke:#181818;stroke-width:1.0;" width="10" x="385.4897" y="133.6953"/><rect fill="#FFFFFF" height="87.3984" style="stroke:#181818;stroke-width:1.0;" width="10" x="380.4897" y="239.0938"/><rect fill="#FFFFFF" height="29.1328" style="stroke:#181818;stroke-width:1.0;" width="10" x="630.4878" y="268.2266"/><line style="stroke:#181818;stroke-width:0.5;stroke-dasharray:5.0,5.0;" x1="228.7861" x2="228.7861" y1="36.2969" y2="373.625"/><line style="stroke:#181818;stroke-width:0.5;stroke-dasharray:5.0,5.0;" x1="384.7041" x2="384.7041" y1="36.2969" y2="373.625"/><line style="stroke:#181818;stroke-width:0.5;stroke-dasharray:5.0,5.0;" x1="634.7754" x2="634.7754" y1="36.2969" y2="373.625"/><rect fill="#E2E2F0" height="30.2969" rx="2.5" ry="2.5" style="stroke:#181818;stroke-width:0.5;" width="174.918" x="141.7861" y="5"/><text fill="#000000" font-family="sans-serif" font-size="14" lengthAdjust="spacing" textLength="160.918" x="148.7861" y="24.9951">ValidateParameterTest</text><rect fill="#E2E2F0" height="30.2969" rx="2.5" ry="2.5" style="stroke:#181818;stroke-width:0.5;" width="174.918" x="141.7861" y="372.625"/><text fill="#000000" font-family="sans-serif" font-size="14" lengthAdjust="spacing" textLength="160.918" x="148.7861" y="392.6201">ValidateParameterTest</text><rect fill="#E2E2F0" height="30.2969" rx="2.5" ry="2.5" style="stroke:#181818;stroke-width:0.5;" width="117.5713" x="326.7041" y="5"/><text fill="#000000" font-family="sans-serif" font-size="14" lengthAdjust="spacing" textLength="103.5713" x="333.7041" y="24.9951">PostgreSqlJson</text><rect fill="#E2E2F0" height="30.2969" rx="2.5" ry="2.5" style="stroke:#181818;stroke-width:0.5;" width="117.5713" x="326.7041" y="372.625"/><text fill="#000000" font-family="sans-serif" font-size="14" lengthAdjust="spacing" textLength="103.5713" x="333.7041" y="392.6201">PostgreSqlJson</text><rect fill="#E2E2F0" height="30.2969" rx="2.5" ry="2.5" style="stroke:#181818;stroke-width:0.5;" width="115.4248" x="577.7754" y="5"/><text fill="#000000" font-family="sans-serif" font-size="14" lengthAdjust="spacing" textLength="101.4248" x="584.7754" y="24.9951">EnrichmentOff</text><rect fill="#E2E2F0" height="30.2969" rx="2.5" ry="2.5" style="stroke:#181818;stroke-width:0.5;" width="115.4248" x="577.7754" y="372.625"/><text fill="#000000" font-family="sans-serif" font-size="14" lengthAdjust="spacing" textLength="101.4248" x="584.7754" y="392.6201">EnrichmentOff</text><rect fill="#FFFFFF" height="288.1953" style="stroke:#181818;stroke-width:1.0;" width="10" x="224.2451" y="67.4297"/><rect fill="#FFFFFF" height="113.3984" style="stroke:#181818;stroke-width:1.0;" width="10" x="380.4897" y="96.5625"/><rect fill="#FFFFFF" height="40.1328" style="stroke:#181818;stroke-width:1.0;" width="10" x="385.4897" y="133.6953"/><rect fill="#FFFFFF" height="87.3984" style="stroke:#181818;stroke-width:1.0;" width="10" x="380.4897" y="239.0938"/><rect fill="#FFFFFF" height="29.1328" style="stroke:#181818;stroke-width:1.0;" width="10" x="630.4878" y="268.2266"/><polygon fill="#181818" points="212.2451,63.4297,222.2451,67.4297,212.2451,71.4297,216.2451,67.4297" style="stroke:#181818;stroke-width:1.0;"/><line style="stroke:#181818;stroke-width:1.0;" x1="0" x2="218.2451" y1="67.4297" y2="67.4297"/><text fill="#000000" font-family="sans-serif" font-size="13" lengthAdjust="spacing" textLength="136.1953" x="7" y="62.3638">nonExistingWatchDir</text><text fill="#808080" font-family="sans-serif" font-size="13" lengthAdjust="spacing" textLength="60.7852" x="151.46" y="62.3638">0.134 ms</text><polygon fill="#181818" points="368.4897,92.5625,378.4897,96.5625,368.4897,100.5625,372.4897,96.5625" style="stroke:#181818;stroke-width:1.0;"/><line style="stroke:#181818;stroke-width:1.0;" x1="234.2451" x2="374.4897" y1="96.5625" y2="96.5625"/><text fill="#000000" font-family="sans-serif" font-size="13" lengthAdjust="spacing" textLength="22.3374" x="241.2451" y="91.4966">call</text><text fill="#808080" font-family="sans-serif" font-size="13" lengthAdjust="spacing" textLength="69.0562" x="271.8472" y="91.4966">0.0565 ms</text><line style="stroke:#181818;stroke-width:1.0;" x1="390.4897" x2="437.4897" y1="120.6953" y2="120.6953"/><line style="stroke:#181818;stroke-width:1.0;" x1="437.4897" x2="437.4897" y1="120.6953" y2="133.6953"/><line style="stroke:#181818;stroke-width:1.0;" x1="396.4897" x2="437.4897" y1="133.6953" y2="133.6953"/><polygon fill="#181818" points="406.4897,129.6953,396.4897,133.6953,406.4897,137.6953,402.4897,133.6953" style="stroke:#181818;stroke-width:1.0;"/><text fill="#000000" font-family="sans-serif" font-size="13" lengthAdjust="spacing" textLength="138.6772" x="402.4897" y="115.6294">watchPostgreSqlLogs</text><text fill="#808080" font-family="sans-serif" font-size="13" lengthAdjust="spacing" textLength="69.0562" x="549.4316" y="115.6294">0.0303 ms</text><line style="stroke:#181818;stroke-width:1.0;stroke-dasharray:2.0,2.0;" x1="338.4897" x2="384.4897" y1="172.8281" y2="172.8281"/><line style="stroke:#181818;stroke-width:1.0;stroke-dasharray:2.0,2.0;" x1="338.4897" x2="338.4897" y1="172.8281" y2="185.8281"/><line style="stroke:#181818;stroke-width:1.0;stroke-dasharray:2.0,2.0;" x1="338.4897" x2="378.4897" y1="185.8281" y2="185.8281"/><polygon fill="#181818" points="368.4897,181.8281,378.4897,185.8281,368.4897,189.8281,372.4897,185.8281" style="stroke:#181818;stroke-width:1.0;"/><text fill="#000000" font-family="sans-serif" font-size="13" lengthAdjust="spacing" textLength="110.335" x="263.1548" y="167.7622">java.lang.Integer</text><polygon fill="#181818" points="245.2451,205.9609,235.2451,209.9609,245.2451,213.9609,241.2451,209.9609" style="stroke:#181818;stroke-width:1.0;"/><line style="stroke:#181818;stroke-width:1.0;stroke-dasharray:2.0,2.0;" x1="239.2451" x2="384.4897" y1="209.9609" y2="209.9609"/><text fill="#000000" font-family="sans-serif" font-size="13" lengthAdjust="spacing" textLength="110.335" x="251.2451" y="204.895">java.lang.Integer</text><polygon fill="#181818" points="368.4897,235.0938,378.4897,239.0938,368.4897,243.0938,372.4897,239.0938" style="stroke:#181818;stroke-width:1.0;"/><line style="stroke:#181818;stroke-width:1.0;" x1="234.2451" x2="374.4897" y1="239.0938" y2="239.0938"/><text fill="#000000" font-family="sans-serif" font-size="13" lengthAdjust="spacing" textLength="33.4839" x="241.2451" y="234.0278">close</text><text fill="#808080" font-family="sans-serif" font-size="13" lengthAdjust="spacing" textLength="69.0562" x="282.9937" y="234.0278">0.0343 ms</text><polygon fill="#181818" points="618.4878,264.2266,628.4878,268.2266,618.4878,272.2266,622.4878,268.2266" style="stroke:#181818;stroke-width:1.0;"/><line style="stroke:#181818;stroke-width:1.0;" x1="390.4897" x2="624.4878" y1="268.2266" y2="268.2266"/><text fill="#000000" font-family="sans-serif" font-size="13" lengthAdjust="spacing" textLength="33.4839" x="397.4897" y="263.1606">close</text><text fill="#808080" font-family="sans-serif" font-size="13" lengthAdjust="spacing" textLength="60.7852" x="439.2383" y="263.1606">0.011 ms</text><polygon fill="#181818" points="401.4897,293.3594,391.4897,297.3594,401.4897,301.3594,397.4897,297.3594" style="stroke:#181818;stroke-width:1.0;"/><line style="stroke:#181818;stroke-width:1.0;stroke-dasharray:2.0,2.0;" x1="395.4897" x2="634.4878" y1="297.3594" y2="297.3594"/><text fill="#000000" font-family="sans-serif" font-size="13" lengthAdjust="spacing" textLength="27.5107" x="407.4897" y="292.2935">void</text><polygon fill="#181818" points="245.2451,322.4922,235.2451,326.4922,245.2451,330.4922,241.2451,326.4922" style="stroke:#181818;stroke-width:1.0;"/><line style="stroke:#181818;stroke-width:1.0;stroke-dasharray:2.0,2.0;" x1="239.2451" x2="384.4897" y1="326.4922" y2="326.4922"/><text fill="#000000" font-family="sans-serif" font-size="13" lengthAdjust="spacing" textLength="27.5107" x="251.2451" y="321.4263">void</text><polygon fill="#181818" points="11,351.625,1,355.625,11,359.625,7,355.625" style="stroke:#181818;stroke-width:1.0;"/><line style="stroke:#181818;stroke-width:1.0;stroke-dasharray:2.0,2.0;" x1="5" x2="228.2451" y1="355.625" y2="355.625"/><text fill="#000000" font-family="sans-serif" font-size="13" lengthAdjust="spacing" textLength="27.5107" x="17" y="350.5591">void</text><!--SRC=[fPCnJyCm48Nt_efJzeH4QHcYA1CTG4XK0i7GwUIuhf5Z1ziAyEy9KGLnx4Gjh7VttgTxPxUeBIUyHMdX6GMlqT8TQcoefVg96Wje80fsebKx4k-KiKpJnpTnPvGSL6x97TzApScneT8-70x3j5E9LW3xk0fo2v1ARZ-uiLoo5xJaUCCrb4G9fGkcyRE2DCdoDJIcl1ggLU-6nFAkjmflsGz0k1DNxXe541HYYaitrnkNDoAw1aCF9aMVylwzs6_nNZ7ZGVCqdq8lmvPnFEM-OeU9GCcIMsafe_eahEcISJ2wizt_u1quYr26-X6jy__TnNcMSvGiMxY3up1tXWccKxpsW_UTpitznsyfwdqldFbn9_r87Hpy0W00]--></g></svg>