<svg xmlns="http://www.w3.org/2000/svg" xmlns:xlink="http://www.w3.org/1999/xlink" contentStyleType="text/css" height="868px" preserveAspectRatio="none" style="width:944px;height:868px;background:#000000;" version="1.1" viewBox="0 0 944 868" width="944px" zoomAndPan="magnify"><defs/><g><rect fill="none" height="723.4688" style="stroke:#999999;stroke-width:1.0;" width="10" x="190.625" y="83.9375"/><rect fill="none" height="647.5313" style="stroke:#999999;stroke-width:1.0;" width="10" x="421.373" y="121.9063"/><rect fill="none" height="48.9688" style="stroke:#999999;stroke-width:1.0;" width="10" x="426.373" y="167.875"/><rect fill="none" height="226.8438" style="stroke:#999999;stroke-width:1.0;" width="10" x="426.373" y="497.625"/><rect fill="none" height="124.9063" style="stroke:#999999;stroke-width:1.0;" width="10" x="431.373" y="548.5938"/><rect fill="none" height="37.9688" style="stroke:#999999;stroke-width:1.0;" width="10" x="658.4258" y="261.8125"/><rect fill="none" height="37.9688" style="stroke:#999999;stroke-width:1.0;" width="10" x="658.4258" y="337.75"/><rect fill="none" height="37.9688" style="stroke:#999999;stroke-width:1.0;" width="10" x="658.4258" y="413.6875"/><rect fill="none" height="37.9688" style="stroke:#999999;stroke-width:1.0;" width="10" x="877.6016" y="591.5625"/><line style="stroke:#999999;stroke-width:0.5;stroke-dasharray:5.0,5.0;" x1="195.5518" x2="195.5518" y1="43.9688" y2="825.4063"/><line style="stroke:#999999;stroke-width:0.5;stroke-dasharray:5.0,5.0;" x1="425.9854" x2="425.9854" y1="43.9688" y2="825.4063"/><line style="stroke:#999999;stroke-width:0.5;stroke-dasharray:5.0,5.0;" x1="662.7178" x2="662.7178" y1="43.9688" y2="825.4063"/><line style="stroke:#999999;stroke-width:0.5;stroke-dasharray:5.0,5.0;" x1="882.1338" x2="882.1338" y1="43.9688" y2="825.4063"/><rect fill="#555555" height="37.9688" rx="4" ry="4" style="stroke:#555555;stroke-width:1.0;" width="132.1465" x="129.5518" y="5"/><text fill="#FFFFFF" font-family="Verdana" font-size="12" lengthAdjust="spacing" textLength="108.1465" x="141.5518" y="28.1387">WatchServiceTest</text><rect fill="#555555" height="37.9688" rx="4" ry="4" style="stroke:#555555;stroke-width:1.0;" width="132.1465" x="129.5518" y="824.4063"/><text fill="#FFFFFF" font-family="Verdana" font-size="12" lengthAdjust="spacing" textLength="108.1465" x="141.5518" y="847.5449">WatchServiceTest</text><rect fill="#555555" height="37.9688" rx="4" ry="4" style="stroke:#555555;stroke-width:1.0;" width="112.7754" x="369.9854" y="5"/><text fill="#FFFFFF" font-family="Verdana" font-size="12" lengthAdjust="spacing" textLength="88.7754" x="381.9854" y="28.1387">PostgreSqlJson</text><rect fill="#555555" height="37.9688" rx="4" ry="4" style="stroke:#555555;stroke-width:1.0;" width="112.7754" x="369.9854" y="824.4063"/><text fill="#FFFFFF" font-family="Verdana" font-size="12" lengthAdjust="spacing" textLength="88.7754" x="381.9854" y="847.5449">PostgreSqlJson</text><rect fill="#555555" height="37.9688" rx="4" ry="4" style="stroke:#555555;stroke-width:1.0;" width="147.416" x="589.7178" y="5"/><text fill="#FFFFFF" font-family="Verdana" font-size="12" lengthAdjust="spacing" textLength="123.416" x="601.7178" y="28.1387">WatchServiceTest$1</text><rect fill="#555555" height="37.9688" rx="4" ry="4" style="stroke:#555555;stroke-width:1.0;" width="147.416" x="589.7178" y="824.4063"/><text fill="#FFFFFF" font-family="Verdana" font-size="12" lengthAdjust="spacing" textLength="123.416" x="601.7178" y="847.5449">WatchServiceTest$1</text><rect fill="#555555" height="37.9688" rx="4" ry="4" style="stroke:#555555;stroke-width:1.0;" width="110.9355" x="827.1338" y="5"/><text fill="#FFFFFF" font-family="Verdana" font-size="12" lengthAdjust="spacing" textLength="86.9355" x="839.1338" y="28.1387">EnrichmentOff</text><rect fill="#555555" height="37.9688" rx="4" ry="4" style="stroke:#555555;stroke-width:1.0;" width="110.9355" x="827.1338" y="824.4063"/><text fill="#FFFFFF" font-family="Verdana" font-size="12" lengthAdjust="spacing" textLength="86.9355" x="839.1338" y="847.5449">EnrichmentOff</text><rect fill="none" height="723.4688" style="stroke:#999999;stroke-width:1.0;" width="10" x="190.625" y="83.9375"/><rect fill="none" height="647.5313" style="stroke:#999999;stroke-width:1.0;" width="10" x="421.373" y="121.9063"/><rect fill="none" height="48.9688" style="stroke:#999999;stroke-width:1.0;" width="10" x="426.373" y="167.875"/><rect fill="none" height="226.8438" style="stroke:#999999;stroke-width:1.0;" width="10" x="426.373" y="497.625"/><rect fill="none" height="124.9063" style="stroke:#999999;stroke-width:1.0;" width="10" x="431.373" y="548.5938"/><rect fill="none" height="37.9688" style="stroke:#999999;stroke-width:1.0;" width="10" x="658.4258" y="261.8125"/><rect fill="none" height="37.9688" style="stroke:#999999;stroke-width:1.0;" width="10" x="658.4258" y="337.75"/><rect fill="none" height="37.9688" style="stroke:#999999;stroke-width:1.0;" width="10" x="658.4258" y="413.6875"/><rect fill="none" height="37.9688" style="stroke:#999999;stroke-width:1.0;" width="10" x="877.6016" y="591.5625"/><polygon fill="#4362B1" points="178.625,79.9375,188.625,83.9375,178.625,87.9375,182.625,83.9375" style="stroke:#4362B1;stroke-width:1.0;"/><line style="stroke:#4362B1;stroke-width:3.0;" x1="0" x2="184.625" y1="83.9375" y2="83.9375"/><text fill="#FFFFFF" font-family="Verdana" font-size="12" lengthAdjust="spacing" textLength="105.5215" x="12" y="74.1074">testWatchService</text><text fill="#808080" font-family="Verdana" font-size="12" lengthAdjust="spacing" textLength="48.4746" x="125.1504" y="74.1074">0.61 ms</text><polygon fill="#4362B1" points="409.373,117.9063,419.373,121.9063,409.373,125.9063,413.373,121.9063" style="stroke:#4362B1;stroke-width:1.0;"/><line style="stroke:#4362B1;stroke-width:3.0;" x1="200.625" x2="415.373" y1="121.9063" y2="121.9063"/><text fill="#FFFFFF" font-family="Verdana" font-size="12" lengthAdjust="spacing" textLength="128.0098" x="212.625" y="112.0762">watchPostgreSqlLogs</text><text fill="#808080" font-family="Verdana" font-size="12" lengthAdjust="spacing" textLength="56.1094" x="348.2637" y="112.0762">0.407 ms</text><line style="stroke:#4362B1;stroke-width:3.0;" x1="431.373" x2="478.373" y1="154.875" y2="154.875"/><line style="stroke:#4362B1;stroke-width:3.0;" x1="478.373" x2="478.373" y1="154.875" y2="167.875"/><line style="stroke:#4362B1;stroke-width:3.0;" x1="437.373" x2="478.373" y1="167.875" y2="167.875"/><polygon fill="#4362B1" points="447.373,163.875,437.373,167.875,447.373,171.875,443.373,167.875" style="stroke:#4362B1;stroke-width:1.0;"/><text fill="#FFFFFF" font-family="Verdana" font-size="12" lengthAdjust="spacing" textLength="90.5977" x="448.373" y="145.0449">initLogEnricher</text><text fill="#808080" font-family="Verdana" font-size="12" lengthAdjust="spacing" textLength="63.7441" x="546.5996" y="145.0449">0.0139 ms</text><line style="stroke:#4362B1;stroke-width:3.0;stroke-dasharray:2.0,2.0;" x1="379.373" x2="425.373" y1="215.8438" y2="215.8438"/><line style="stroke:#4362B1;stroke-width:3.0;stroke-dasharray:2.0,2.0;" x1="379.373" x2="379.373" y1="215.8438" y2="228.8438"/><line style="stroke:#4362B1;stroke-width:3.0;stroke-dasharray:2.0,2.0;" x1="379.373" x2="419.373" y1="228.8438" y2="228.8438"/><polygon fill="#4362B1" points="409.373,224.8438,419.373,228.8438,409.373,232.8438,413.373,228.8438" style="stroke:#4362B1;stroke-width:1.0;"/><text fill="#FFFFFF" font-family="Verdana" font-size="12" lengthAdjust="spacing" textLength="25.3945" x="383.373" y="206.0137">void</text><polygon fill="#4362B1" points="646.4258,257.8125,656.4258,261.8125,646.4258,265.8125,650.4258,261.8125" style="stroke:#4362B1;stroke-width:1.0;"/><line style="stroke:#4362B1;stroke-width:3.0;" x1="431.373" x2="652.4258" y1="261.8125" y2="261.8125"/><text fill="#FFFFFF" font-family="Verdana" font-size="12" lengthAdjust="spacing" textLength="102.6211" x="443.373" y="251.9824">positionFileTasks</text><text fill="#808080" font-family="Verdana" font-size="12" lengthAdjust="spacing" textLength="71.3789" x="553.623" y="251.9824">0.00943 ms</text><polygon fill="#4362B1" points="442.373,295.7813,432.373,299.7813,442.373,303.7813,438.373,299.7813" style="stroke:#4362B1;stroke-width:1.0;"/><line style="stroke:#4362B1;stroke-width:3.0;stroke-dasharray:2.0,2.0;" x1="436.373" x2="662.4258" y1="299.7813" y2="299.7813"/><text fill="#FFFFFF" font-family="Verdana" font-size="12" lengthAdjust="spacing" textLength="100.9043" x="453.373" y="289.9512">java.lang.Thread</text><polygon fill="#4362B1" points="646.4258,333.75,656.4258,337.75,646.4258,341.75,650.4258,337.75" style="stroke:#4362B1;stroke-width:1.0;"/><line style="stroke:#4362B1;stroke-width:3.0;" x1="431.373" x2="652.4258" y1="337.75" y2="337.75"/><text fill="#FFFFFF" font-family="Verdana" font-size="12" lengthAdjust="spacing" textLength="94.4707" x="443.373" y="327.9199">initialLogImport</text><text fill="#808080" font-family="Verdana" font-size="12" lengthAdjust="spacing" textLength="63.7441" x="545.4727" y="327.9199">0.0112 ms</text><polygon fill="#4362B1" points="442.373,371.7188,432.373,375.7188,442.373,379.7188,438.373,375.7188" style="stroke:#4362B1;stroke-width:1.0;"/><line style="stroke:#4362B1;stroke-width:3.0;stroke-dasharray:2.0,2.0;" x1="436.373" x2="662.4258" y1="375.7188" y2="375.7188"/><text fill="#FFFFFF" font-family="Verdana" font-size="12" lengthAdjust="spacing" textLength="25.3945" x="453.373" y="365.8887">void</text><polygon fill="#4362B1" points="646.4258,409.6875,656.4258,413.6875,646.4258,417.6875,650.4258,413.6875" style="stroke:#4362B1;stroke-width:1.0;"/><line style="stroke:#4362B1;stroke-width:3.0;" x1="431.373" x2="652.4258" y1="413.6875" y2="413.6875"/><text fill="#FFFFFF" font-family="Verdana" font-size="12" lengthAdjust="spacing" textLength="119.0449" x="443.373" y="403.8574">registerWatchEvent</text><text fill="#808080" font-family="Verdana" font-size="12" lengthAdjust="spacing" textLength="71.3789" x="570.0469" y="403.8574">0.00951 ms</text><polygon fill="#4362B1" points="442.373,447.6563,432.373,451.6563,442.373,455.6563,438.373,451.6563" style="stroke:#4362B1;stroke-width:1.0;"/><line style="stroke:#4362B1;stroke-width:3.0;stroke-dasharray:2.0,2.0;" x1="436.373" x2="662.4258" y1="451.6563" y2="451.6563"/><text fill="#FFFFFF" font-family="Verdana" font-size="12" lengthAdjust="spacing" textLength="25.3945" x="453.373" y="441.8262">void</text><line style="stroke:#4362B1;stroke-width:3.0;" x1="431.373" x2="478.373" y1="484.625" y2="484.625"/><line style="stroke:#4362B1;stroke-width:3.0;" x1="478.373" x2="478.373" y1="484.625" y2="497.625"/><line style="stroke:#4362B1;stroke-width:3.0;" x1="437.373" x2="478.373" y1="497.625" y2="497.625"/><polygon fill="#4362B1" points="447.373,493.625,437.373,497.625,447.373,501.625,443.373,497.625" style="stroke:#4362B1;stroke-width:1.0;"/><text fill="#FFFFFF" font-family="Verdana" font-size="12" lengthAdjust="spacing" textLength="73.6699" x="448.373" y="474.7949">readJsonLog</text><text fill="#808080" font-family="Verdana" font-size="12" lengthAdjust="spacing" textLength="56.1094" x="529.6719" y="474.7949">0.165 ms</text><line style="stroke:#4362B1;stroke-width:3.0;" x1="436.373" x2="483.373" y1="535.5938" y2="535.5938"/><line style="stroke:#4362B1;stroke-width:3.0;" x1="483.373" x2="483.373" y1="535.5938" y2="548.5938"/><line style="stroke:#4362B1;stroke-width:3.0;" x1="442.373" x2="483.373" y1="548.5938" y2="548.5938"/><polygon fill="#4362B1" points="452.373,544.5938,442.373,548.5938,452.373,552.5938,448.373,548.5938" style="stroke:#4362B1;stroke-width:1.0;"/><text fill="#FFFFFF" font-family="Verdana" font-size="12" lengthAdjust="spacing" textLength="80.1914" x="453.373" y="525.7637">parseLogLine</text><text fill="#808080" font-family="Verdana" font-size="12" lengthAdjust="spacing" textLength="63.7441" x="541.1934" y="525.7637">0.0872 ms</text><polygon fill="#4362B1" points="865.6016,587.5625,875.6016,591.5625,865.6016,595.5625,869.6016,591.5625" style="stroke:#4362B1;stroke-width:1.0;"/><line style="stroke:#4362B1;stroke-width:3.0;" x1="441.373" x2="871.6016" y1="591.5625" y2="591.5625"/><text fill="#FFFFFF" font-family="Verdana" font-size="12" lengthAdjust="spacing" textLength="152.2266" x="453.373" y="581.7324">enricherApplicationName</text><text fill="#808080" font-family="Verdana" font-size="12" lengthAdjust="spacing" textLength="63.7441" x="613.2285" y="581.7324">0.0175 ms</text><polygon fill="#4362B1" points="452.373,625.5313,442.373,629.5313,452.373,633.5313,448.373,629.5313" style="stroke:#4362B1;stroke-width:1.0;"/><line style="stroke:#4362B1;stroke-width:3.0;stroke-dasharray:2.0,2.0;" x1="446.373" x2="881.6016" y1="629.5313" y2="629.5313"/><text fill="#FFFFFF" font-family="Verdana" font-size="12" lengthAdjust="spacing" textLength="25.3945" x="463.373" y="619.7012">void</text><line style="stroke:#4362B1;stroke-width:3.0;stroke-dasharray:2.0,2.0;" x1="379.373" x2="430.373" y1="672.5" y2="672.5"/><line style="stroke:#4362B1;stroke-width:3.0;stroke-dasharray:2.0,2.0;" x1="379.373" x2="379.373" y1="672.5" y2="685.5"/><line style="stroke:#4362B1;stroke-width:3.0;stroke-dasharray:2.0,2.0;" x1="379.373" x2="419.373" y1="685.5" y2="685.5"/><polygon fill="#4362B1" points="409.373,681.5,419.373,685.5,409.373,689.5,413.373,685.5" style="stroke:#4362B1;stroke-width:1.0;"/><text fill="#FFFFFF" font-family="Verdana" font-size="12" lengthAdjust="spacing" textLength="25.3945" x="383.373" y="662.6699">void</text><line style="stroke:#4362B1;stroke-width:3.0;stroke-dasharray:2.0,2.0;" x1="379.373" x2="425.373" y1="723.4688" y2="723.4688"/><line style="stroke:#4362B1;stroke-width:3.0;stroke-dasharray:2.0,2.0;" x1="379.373" x2="379.373" y1="723.4688" y2="736.4688"/><line style="stroke:#4362B1;stroke-width:3.0;stroke-dasharray:2.0,2.0;" x1="379.373" x2="419.373" y1="736.4688" y2="736.4688"/><polygon fill="#4362B1" points="409.373,732.4688,419.373,736.4688,409.373,740.4688,413.373,736.4688" style="stroke:#4362B1;stroke-width:1.0;"/><text fill="#FFFFFF" font-family="Verdana" font-size="12" lengthAdjust="spacing" textLength="25.3945" x="383.373" y="713.6387">void</text><polygon fill="#4362B1" points="211.625,765.4375,201.625,769.4375,211.625,773.4375,207.625,769.4375" style="stroke:#4362B1;stroke-width:1.0;"/><line style="stroke:#4362B1;stroke-width:3.0;stroke-dasharray:2.0,2.0;" x1="205.625" x2="425.373" y1="769.4375" y2="769.4375"/><text fill="#FFFFFF" font-family="Verdana" font-size="12" lengthAdjust="spacing" textLength="101.8477" x="222.625" y="759.6074">java.lang.Integer</text><polygon fill="#4362B1" points="11,803.4063,1,807.4063,11,811.4063,7,807.4063" style="stroke:#4362B1;stroke-width:1.0;"/><line style="stroke:#4362B1;stroke-width:3.0;stroke-dasharray:2.0,2.0;" x1="5" x2="194.625" y1="807.4063" y2="807.4063"/><text fill="#FFFFFF" font-family="Verdana" font-size="12" lengthAdjust="spacing" textLength="25.3945" x="22" y="797.5762">void</text><!--SRC=[pLLDQzmm4Btlhr2NNFsLPBEDMHPwI20bj8Kiz913KRKJMuqjgTBOeV- -iZSqgu_ireH2ByRCQDwRvpSQl-E2DTqMEjsG6b6PCiiqVKehZdNtlJEWcHG80bCcswm2f4grL6MgeGAxjacmXXQobdAHxLAxIAfiSgQeHiwuicV9LugilWFTSmORC4Ye8NC_E7TAlaY3bOQxdyr78yLOu8Rc1nc-5L6Eay8jknAQixgr6Zy_F8mLJcG-8-G-MVie9K7xt8-I5PEDr6MbwQyroTEBWhHcbOt1jGMX37bF4O8-ROu4mMJjIYt9qt3Y9NWhA-DJdkTBbtEFrOKRSyGBXfnSSBH4kmy2skVBYxDBdt0QvIf9VCvUyktpsIrCQp-SW98eQJXoAQvv0njg7eEFbkUNvsS7L8IWhoc9qV-WFKtjPQdIJQs1HfJz9NvStM0GfyCmtBHAQWmTAax_cRQuKs_Iew7Y1a6FkQlUNi68NOlYVvNap_BW-F1c_V5r51UBgLVdE9_TQmOisIqNmJxAtoyZet2SCsHrzcD9u7axV52guOmEb-qJRKF-Ohc8yUzru02_se2rpkjWppNFkJZYb1qqTGkzPQFvSnR1UjadD_Q_N86U7OEzZupwdvuE3Fbl]--></g></svg>