<svg xmlns="http://www.w3.org/2000/svg" xmlns:xlink="http://www.w3.org/1999/xlink" contentStyleType="text/css" height="485px" preserveAspectRatio="none" style="width:739px;height:485px;background:#000000;" version="1.1" viewBox="0 0 739 485" width="739px" zoomAndPan="magnify"><defs/><g><rect fill="none" height="340.7188" style="stroke:#999999;stroke-width:1.0;" width="10" x="190.8418" y="83.9375"/><rect fill="none" height="215.8438" style="stroke:#999999;stroke-width:1.0;" width="10" x="421.6279" y="163.8438"/><rect fill="none" height="124.9063" style="stroke:#999999;stroke-width:1.0;" width="10" x="426.6279" y="209.8125"/><rect fill="none" height="37.9688" style="stroke:#999999;stroke-width:1.0;" width="10" x="623.4834" y="252.7813"/><rect fill="none" height="288.75" rx="4" ry="4" style="stroke:#4362B1;stroke-width:1.5;" width="672.5078" x="61.4434" y="98.9375"/><line style="stroke:#999999;stroke-width:0.5;stroke-dasharray:5.0,5.0;" x1="195.4434" x2="195.4434" y1="43.9688" y2="442.6563"/><line style="stroke:#999999;stroke-width:0.5;stroke-dasharray:5.0,5.0;" x1="426.2402" x2="426.2402" y1="43.9688" y2="442.6563"/><line style="stroke:#999999;stroke-width:0.5;stroke-dasharray:5.0,5.0;" x1="628.0156" x2="628.0156" y1="43.9688" y2="442.6563"/><rect fill="#555555" height="37.9688" rx="4" ry="4" style="stroke:#555555;stroke-width:1.0;" width="168.7969" x="111.4434" y="5"/><text fill="#FFFFFF" font-family="Verdana" font-size="12" lengthAdjust="spacing" textLength="144.7969" x="123.4434" y="28.1387">TestCliArgumentParsing</text><rect fill="#555555" height="37.9688" rx="4" ry="4" style="stroke:#555555;stroke-width:1.0;" width="168.7969" x="111.4434" y="441.6563"/><text fill="#FFFFFF" font-family="Verdana" font-size="12" lengthAdjust="spacing" textLength="144.7969" x="123.4434" y="464.7949">TestCliArgumentParsing</text><rect fill="#555555" height="37.9688" rx="4" ry="4" style="stroke:#555555;stroke-width:1.0;" width="112.7754" x="370.2402" y="5"/><text fill="#FFFFFF" font-family="Verdana" font-size="12" lengthAdjust="spacing" textLength="88.7754" x="382.2402" y="28.1387">PostgreSqlJson</text><rect fill="#555555" height="37.9688" rx="4" ry="4" style="stroke:#555555;stroke-width:1.0;" width="112.7754" x="370.2402" y="441.6563"/><text fill="#FFFFFF" font-family="Verdana" font-size="12" lengthAdjust="spacing" textLength="88.7754" x="382.2402" y="464.7949">PostgreSqlJson</text><rect fill="#555555" height="37.9688" rx="4" ry="4" style="stroke:#555555;stroke-width:1.0;" width="110.9355" x="573.0156" y="5"/><text fill="#FFFFFF" font-family="Verdana" font-size="12" lengthAdjust="spacing" textLength="86.9355" x="585.0156" y="28.1387">EnrichmentOff</text><rect fill="#555555" height="37.9688" rx="4" ry="4" style="stroke:#555555;stroke-width:1.0;" width="110.9355" x="573.0156" y="441.6563"/><text fill="#FFFFFF" font-family="Verdana" font-size="12" lengthAdjust="spacing" textLength="86.9355" x="585.0156" y="464.7949">EnrichmentOff</text><rect fill="none" height="340.7188" style="stroke:#999999;stroke-width:1.0;" width="10" x="190.8418" y="83.9375"/><rect fill="none" height="215.8438" style="stroke:#999999;stroke-width:1.0;" width="10" x="421.6279" y="163.8438"/><rect fill="none" height="124.9063" style="stroke:#999999;stroke-width:1.0;" width="10" x="426.6279" y="209.8125"/><rect fill="none" height="37.9688" style="stroke:#999999;stroke-width:1.0;" width="10" x="623.4834" y="252.7813"/><polygon fill="#4362B1" points="178.8418,79.9375,188.8418,83.9375,178.8418,87.9375,182.8418,83.9375" style="stroke:#4362B1;stroke-width:1.0;"/><line style="stroke:#4362B1;stroke-width:3.0;" x1="0" x2="184.8418" y1="83.9375" y2="83.9375"/><text fill="#FFFFFF" font-family="Verdana" font-size="12" lengthAdjust="spacing" textLength="113.373" x="12" y="74.1074">testHelpParameter</text><text fill="#808080" font-family="Verdana" font-size="12" lengthAdjust="spacing" textLength="40.8398" x="133.002" y="74.1074">2.4 ms</text><path d="M65.4434,98.9375 L145.6348,98.9375 L145.6348,114.9063 L135.6348,124.9063 L61.4434,124.9063 L61.4434,102.9375 A4,4 0 0 1 65.4434,98.9375 " fill="#4362B1" style="stroke:#4362B1;stroke-width:1.5;"/><rect fill="none" height="288.75" rx="4" ry="4" style="stroke:#4362B1;stroke-width:1.5;" width="672.5078" x="61.4434" y="98.9375"/><text fill="#FFFFFF" font-family="Verdana" font-size="12" font-weight="bold" lengthAdjust="spacing" textLength="29.1914" x="81.4434" y="116.0762">loop</text><text fill="#4362B1" font-family="Verdana" font-size="12" font-weight="bold" lengthAdjust="spacing" textLength="55.6465" x="165.6348" y="117.0762">[2 times</text><text fill="#808080" font-family="Verdana" font-size="12" font-weight="bold" lengthAdjust="spacing" textLength="53.4316" x="229.6367" y="117.0762">2.36 ms</text><text fill="#4362B1" font-family="Verdana" font-size="12" font-weight="bold" lengthAdjust="spacing" textLength="5.4844" x="283.0684" y="117.0762">]</text><polygon fill="#4362B1" points="409.6279,159.8438,419.6279,163.8438,409.6279,167.8438,413.6279,163.8438" style="stroke:#4362B1;stroke-width:1.0;"/><line style="stroke:#4362B1;stroke-width:3.0;" x1="200.8418" x2="415.6279" y1="163.8438" y2="163.8438"/><text fill="#FFFFFF" font-family="Verdana" font-size="12" lengthAdjust="spacing" text-decoration="underline" textLength="29.9824" x="212.8418" y="154.0137">main</text><text fill="#FFFFFF" font-family="Verdana" font-size="12" lengthAdjust="spacing" textLength="3.8145" x="242.8242" y="154.0137">&#160;</text><text fill="#808080" font-family="Verdana" font-size="12" lengthAdjust="spacing" textLength="48.4746" x="250.4531" y="154.0137">2.36 ms</text><line style="stroke:#4362B1;stroke-width:3.0;" x1="431.6279" x2="478.6279" y1="196.8125" y2="196.8125"/><line style="stroke:#4362B1;stroke-width:3.0;" x1="478.6279" x2="478.6279" y1="196.8125" y2="209.8125"/><line style="stroke:#4362B1;stroke-width:3.0;" x1="437.6279" x2="478.6279" y1="209.8125" y2="209.8125"/><polygon fill="#4362B1" points="447.6279,205.8125,437.6279,209.8125,447.6279,213.8125,443.6279,209.8125" style="stroke:#4362B1;stroke-width:1.0;"/><text fill="#FFFFFF" font-family="Verdana" font-size="12" lengthAdjust="spacing" textLength="30.9082" x="448.6279" y="186.9824">close</text><text fill="#808080" font-family="Verdana" font-size="12" lengthAdjust="spacing" textLength="48.4746" x="487.165" y="186.9824">0.14 ms</text><polygon fill="#4362B1" points="611.4834,248.7813,621.4834,252.7813,611.4834,256.7813,615.4834,252.7813" style="stroke:#4362B1;stroke-width:1.0;"/><line style="stroke:#4362B1;stroke-width:3.0;" x1="436.6279" x2="617.4834" y1="252.7813" y2="252.7813"/><text fill="#FFFFFF" font-family="Verdana" font-size="12" lengthAdjust="spacing" textLength="30.9082" x="448.6279" y="242.9512">close</text><text fill="#808080" font-family="Verdana" font-size="12" lengthAdjust="spacing" textLength="63.7441" x="487.165" y="242.9512">0.0421 ms</text><polygon fill="#4362B1" points="447.6279,286.75,437.6279,290.75,447.6279,294.75,443.6279,290.75" style="stroke:#4362B1;stroke-width:1.0;"/><line style="stroke:#4362B1;stroke-width:3.0;stroke-dasharray:2.0,2.0;" x1="441.6279" x2="627.4834" y1="290.75" y2="290.75"/><text fill="#FFFFFF" font-family="Verdana" font-size="12" lengthAdjust="spacing" textLength="25.3945" x="458.6279" y="280.9199">void</text><line style="stroke:#4362B1;stroke-width:3.0;stroke-dasharray:2.0,2.0;" x1="379.6279" x2="425.6279" y1="333.7188" y2="333.7188"/><line style="stroke:#4362B1;stroke-width:3.0;stroke-dasharray:2.0,2.0;" x1="379.6279" x2="379.6279" y1="333.7188" y2="346.7188"/><line style="stroke:#4362B1;stroke-width:3.0;stroke-dasharray:2.0,2.0;" x1="379.6279" x2="419.6279" y1="346.7188" y2="346.7188"/><polygon fill="#4362B1" points="409.6279,342.7188,419.6279,346.7188,409.6279,350.7188,413.6279,346.7188" style="stroke:#4362B1;stroke-width:1.0;"/><text fill="#FFFFFF" font-family="Verdana" font-size="12" lengthAdjust="spacing" textLength="25.3945" x="383.6279" y="323.8887">void</text><polygon fill="#4362B1" points="211.8418,375.6875,201.8418,379.6875,211.8418,383.6875,207.8418,379.6875" style="stroke:#4362B1;stroke-width:1.0;"/><line style="stroke:#4362B1;stroke-width:3.0;stroke-dasharray:2.0,2.0;" x1="205.8418" x2="425.6279" y1="379.6875" y2="379.6875"/><text fill="#FFFFFF" font-family="Verdana" font-size="12" lengthAdjust="spacing" textLength="25.3945" x="222.8418" y="369.8574">void</text><polygon fill="#4362B1" points="11,420.6563,1,424.6563,11,428.6563,7,424.6563" style="stroke:#4362B1;stroke-width:1.0;"/><line style="stroke:#4362B1;stroke-width:3.0;stroke-dasharray:2.0,2.0;" x1="5" x2="194.8418" y1="424.6563" y2="424.6563"/><text fill="#FFFFFF" font-family="Verdana" font-size="12" lengthAdjust="spacing" textLength="25.3945" x="22" y="414.8262">void</text><!--SRC=[ZPB9QiCm54Nt-OhNx6qbQUZ264CfWL8A3RIxh5H5iGMQAZsbzEyh9w5O7f9wUT_LEHfy9pIJOS-3az0WMbyGukXtNWjimcVmt36ZaMlCcL6avaYjLTGIAwd6e6I63LUSA2eqEO_EIMxZS6QfGy64ZLtuu1wVf7XqTL2HjwNE2rq3zJ0V7ysJvLlZiNRy_Kk-UADFoz8ehM-q4wnfQM-7mwcT9FCPm2whniK5OCoVkRGne8eZTr0o8uqhQaT_AbZbQr2-9AUiYYZAK1mfyeb3nWR0gp4MLe12ST_7tJ-alFORHsLLUke2ob2rjr-IKFq7-xVLb7EPGYyUwfWqdgUYHRvS3qMtLKDPyaOJhiLwjHopTNm9Pb9NPbdFTpHYtwdl-GtYWDU_h0JOmOrUoFY3NwTUPsvqszj5nDIFVa5rCEFDNm00]--></g></svg>