<svg xmlns="http://www.w3.org/2000/svg" xmlns:xlink="http://www.w3.org/1999/xlink" contentStyleType="text/css" height="640px" preserveAspectRatio="none" style="width:763px;height:640px;background:#FFFFFF;" version="1.1" viewBox="0 0 763 640" width="763px" zoomAndPan="magnify"><defs/><g><rect fill="#FFFFFF" height="520.125" style="stroke:#181818;stroke-width:1.0;" width="10" x="187.7334" y="67.4297"/><rect fill="#FFFFFF" height="287.0625" style="stroke:#181818;stroke-width:1.0;" width="10" x="411.9429" y="96.5625"/><rect fill="#FFFFFF" height="182.6641" style="stroke:#181818;stroke-width:1.0;" width="10" x="416.9429" y="157.8281"/><rect fill="#FFFFFF" height="98.3984" style="stroke:#181818;stroke-width:1.0;" width="10" x="421.9429" y="199.9609"/><rect fill="#FFFFFF" height="29.1328" style="stroke:#181818;stroke-width:1.0;" width="10" x="411.9429" y="412.7578"/><rect fill="#FFFFFF" height="87.3984" style="stroke:#181818;stroke-width:1.0;" width="10" x="411.9429" y="471.0234"/><rect fill="#FFFFFF" height="29.1328" style="stroke:#181818;stroke-width:1.0;" width="10" x="684.9048" y="234.0938"/><rect fill="#FFFFFF" height="29.1328" style="stroke:#181818;stroke-width:1.0;" width="10" x="684.9048" y="500.1563"/><rect fill="none" height="243.9297" style="stroke:#000000;stroke-width:1.5;" width="409.46" x="348.1572" y="111.5625"/><line style="stroke:#181818;stroke-width:0.5;stroke-dasharray:5.0,5.0;" x1="191.9736" x2="191.9736" y1="36.2969" y2="605.5547"/><line style="stroke:#181818;stroke-width:0.5;stroke-dasharray:5.0,5.0;" x1="416.1572" x2="416.1572" y1="36.2969" y2="605.5547"/><line style="stroke:#181818;stroke-width:0.5;stroke-dasharray:5.0,5.0;" x1="689.1924" x2="689.1924" y1="36.2969" y2="605.5547"/><rect fill="#E2E2F0" height="30.2969" rx="2.5" ry="2.5" style="stroke:#181818;stroke-width:0.5;" width="147.5195" x="118.9736" y="5"/><text fill="#000000" font-family="sans-serif" font-size="14" lengthAdjust="spacing" textLength="133.5195" x="125.9736" y="24.9951">PostgreSqlJsonTest</text><rect fill="#E2E2F0" height="30.2969" rx="2.5" ry="2.5" style="stroke:#181818;stroke-width:0.5;" width="147.5195" x="118.9736" y="604.5547"/><text fill="#000000" font-family="sans-serif" font-size="14" lengthAdjust="spacing" textLength="133.5195" x="125.9736" y="624.5498">PostgreSqlJsonTest</text><rect fill="#E2E2F0" height="30.2969" rx="2.5" ry="2.5" style="stroke:#181818;stroke-width:0.5;" width="117.5713" x="358.1572" y="5"/><text fill="#000000" font-family="sans-serif" font-size="14" lengthAdjust="spacing" textLength="103.5713" x="365.1572" y="24.9951">PostgreSqlJson</text><rect fill="#E2E2F0" height="30.2969" rx="2.5" ry="2.5" style="stroke:#181818;stroke-width:0.5;" width="117.5713" x="358.1572" y="604.5547"/><text fill="#000000" font-family="sans-serif" font-size="14" lengthAdjust="spacing" textLength="103.5713" x="365.1572" y="624.5498">PostgreSqlJson</text><rect fill="#E2E2F0" height="30.2969" rx="2.5" ry="2.5" style="stroke:#181818;stroke-width:0.5;" width="115.4248" x="632.1924" y="5"/><text fill="#000000" font-family="sans-serif" font-size="14" lengthAdjust="spacing" textLength="101.4248" x="639.1924" y="24.9951">EnrichmentOff</text><rect fill="#E2E2F0" height="30.2969" rx="2.5" ry="2.5" style="stroke:#181818;stroke-width:0.5;" width="115.4248" x="632.1924" y="604.5547"/><text fill="#000000" font-family="sans-serif" font-size="14" lengthAdjust="spacing" textLength="101.4248" x="639.1924" y="624.5498">EnrichmentOff</text><rect fill="#FFFFFF" height="520.125" style="stroke:#181818;stroke-width:1.0;" width="10" x="187.7334" y="67.4297"/><rect fill="#FFFFFF" height="287.0625" style="stroke:#181818;stroke-width:1.0;" width="10" x="411.9429" y="96.5625"/><rect fill="#FFFFFF" height="182.6641" style="stroke:#181818;stroke-width:1.0;" width="10" x="416.9429" y="157.8281"/><rect fill="#FFFFFF" height="98.3984" style="stroke:#181818;stroke-width:1.0;" width="10" x="421.9429" y="199.9609"/><rect fill="#FFFFFF" height="29.1328" style="stroke:#181818;stroke-width:1.0;" width="10" x="411.9429" y="412.7578"/><rect fill="#FFFFFF" height="87.3984" style="stroke:#181818;stroke-width:1.0;" width="10" x="411.9429" y="471.0234"/><rect fill="#FFFFFF" height="29.1328" style="stroke:#181818;stroke-width:1.0;" width="10" x="684.9048" y="234.0938"/><rect fill="#FFFFFF" height="29.1328" style="stroke:#181818;stroke-width:1.0;" width="10" x="684.9048" y="500.1563"/><polygon fill="#181818" points="175.7334,63.4297,185.7334,67.4297,175.7334,71.4297,179.7334,67.4297" style="stroke:#181818;stroke-width:1.0;"/><line style="stroke:#181818;stroke-width:1.0;" x1="0" x2="181.7334" y1="67.4297" y2="67.4297"/><text fill="#000000" font-family="sans-serif" font-size="13" lengthAdjust="spacing" textLength="107.9546" x="7" y="62.3638">testSavePosition</text><text fill="#808080" font-family="sans-serif" font-size="13" lengthAdjust="spacing" textLength="52.5142" x="123.2192" y="62.3638">10.3 ms</text><polygon fill="#181818" points="399.9429,92.5625,409.9429,96.5625,399.9429,100.5625,403.9429,96.5625" style="stroke:#181818;stroke-width:1.0;"/><line style="stroke:#181818;stroke-width:1.0;" x1="197.7334" x2="405.9429" y1="96.5625" y2="96.5625"/><text fill="#000000" font-family="sans-serif" font-size="13" lengthAdjust="spacing" textLength="102.3433" x="204.7334" y="91.4966">initialLogImport</text><text fill="#808080" font-family="sans-serif" font-size="13" lengthAdjust="spacing" textLength="52.5142" x="315.3413" y="91.4966">1.14 ms</text><path d="M348.1572,111.5625 L424.7813,111.5625 L424.7813,118.6953 L414.7813,128.6953 L348.1572,128.6953 L348.1572,111.5625 " fill="#EEEEEE" style="stroke:#000000;stroke-width:1.5;"/><rect fill="none" height="243.9297" style="stroke:#000000;stroke-width:1.5;" width="409.46" x="348.1572" y="111.5625"/><text fill="#000000" font-family="sans-serif" font-size="13" font-weight="bold" lengthAdjust="spacing" textLength="31.624" x="363.1572" y="124.6294">loop</text><text fill="#000000" font-family="sans-serif" font-size="11" font-weight="bold" lengthAdjust="spacing" textLength="51.0093" x="439.7813" y="123.7729">[3 times</text><text fill="#808080" font-family="sans-serif" font-size="11" font-weight="bold" lengthAdjust="spacing" textLength="48.979" x="498.4497" y="123.7729">1.05 ms</text><text fill="#000000" font-family="sans-serif" font-size="11" font-weight="bold" lengthAdjust="spacing" textLength="5.0273" x="547.4287" y="123.7729">]</text><line style="stroke:#181818;stroke-width:1.0;" x1="421.9429" x2="468.9429" y1="144.8281" y2="144.8281"/><line style="stroke:#181818;stroke-width:1.0;" x1="468.9429" x2="468.9429" y1="144.8281" y2="157.8281"/><line style="stroke:#181818;stroke-width:1.0;" x1="427.9429" x2="468.9429" y1="157.8281" y2="157.8281"/><polygon fill="#181818" points="437.9429,153.8281,427.9429,157.8281,437.9429,161.8281,433.9429,157.8281" style="stroke:#181818;stroke-width:1.0;"/><text fill="#000000" font-family="sans-serif" font-size="13" lengthAdjust="spacing" textLength="79.8091" x="433.9429" y="139.7622">readJsonLog</text><text fill="#808080" font-family="sans-serif" font-size="13" lengthAdjust="spacing" textLength="52.5142" x="522.0166" y="139.7622">1.05 ms</text><line style="stroke:#181818;stroke-width:1.0;" x1="426.9429" x2="473.9429" y1="186.9609" y2="186.9609"/><line style="stroke:#181818;stroke-width:1.0;" x1="473.9429" x2="473.9429" y1="186.9609" y2="199.9609"/><line style="stroke:#181818;stroke-width:1.0;" x1="432.9429" x2="473.9429" y1="199.9609" y2="199.9609"/><polygon fill="#181818" points="442.9429,195.9609,432.9429,199.9609,442.9429,203.9609,438.9429,199.9609" style="stroke:#181818;stroke-width:1.0;"/><text fill="#000000" font-family="sans-serif" font-size="13" lengthAdjust="spacing" textLength="86.874" x="438.9429" y="181.895">parseLogLine</text><text fill="#808080" font-family="sans-serif" font-size="13" lengthAdjust="spacing" textLength="60.7852" x="534.0815" y="181.895">0.743 ms</text><polygon fill="#181818" points="672.9048,230.0938,682.9048,234.0938,672.9048,238.0938,676.9048,234.0938" style="stroke:#181818;stroke-width:1.0;"/><line style="stroke:#181818;stroke-width:1.0;" x1="431.9429" x2="678.9048" y1="234.0938" y2="234.0938"/><text fill="#000000" font-family="sans-serif" font-size="13" lengthAdjust="spacing" textLength="164.9121" x="438.9429" y="229.0278">enricherApplicationName</text><text fill="#808080" font-family="sans-serif" font-size="13" lengthAdjust="spacing" textLength="60.7852" x="612.1196" y="229.0278">0.253 ms</text><polygon fill="#181818" points="442.9429,259.2266,432.9429,263.2266,442.9429,267.2266,438.9429,263.2266" style="stroke:#181818;stroke-width:1.0;"/><line style="stroke:#181818;stroke-width:1.0;stroke-dasharray:2.0,2.0;" x1="436.9429" x2="688.9048" y1="263.2266" y2="263.2266"/><text fill="#000000" font-family="sans-serif" font-size="13" lengthAdjust="spacing" textLength="27.5107" x="448.9429" y="258.1606">void</text><line style="stroke:#181818;stroke-width:1.0;stroke-dasharray:2.0,2.0;" x1="369.9429" x2="420.9429" y1="297.3594" y2="297.3594"/><line style="stroke:#181818;stroke-width:1.0;stroke-dasharray:2.0,2.0;" x1="369.9429" x2="369.9429" y1="297.3594" y2="310.3594"/><line style="stroke:#181818;stroke-width:1.0;stroke-dasharray:2.0,2.0;" x1="369.9429" x2="409.9429" y1="310.3594" y2="310.3594"/><polygon fill="#181818" points="399.9429,306.3594,409.9429,310.3594,399.9429,314.3594,403.9429,310.3594" style="stroke:#181818;stroke-width:1.0;"/><text fill="#000000" font-family="sans-serif" font-size="13" lengthAdjust="spacing" textLength="27.5107" x="368.9429" y="292.2935">void</text><line style="stroke:#181818;stroke-width:1.0;stroke-dasharray:2.0,2.0;" x1="369.9429" x2="415.9429" y1="339.4922" y2="339.4922"/><line style="stroke:#181818;stroke-width:1.0;stroke-dasharray:2.0,2.0;" x1="369.9429" x2="369.9429" y1="339.4922" y2="352.4922"/><line style="stroke:#181818;stroke-width:1.0;stroke-dasharray:2.0,2.0;" x1="369.9429" x2="409.9429" y1="352.4922" y2="352.4922"/><polygon fill="#181818" points="399.9429,348.4922,409.9429,352.4922,399.9429,356.4922,403.9429,352.4922" style="stroke:#181818;stroke-width:1.0;"/><text fill="#000000" font-family="sans-serif" font-size="13" lengthAdjust="spacing" textLength="27.5107" x="368.9429" y="334.4263">void</text><polygon fill="#181818" points="208.7334,379.625,198.7334,383.625,208.7334,387.625,204.7334,383.625" style="stroke:#181818;stroke-width:1.0;"/><line style="stroke:#181818;stroke-width:1.0;stroke-dasharray:2.0,2.0;" x1="202.7334" x2="415.9429" y1="383.625" y2="383.625"/><text fill="#000000" font-family="sans-serif" font-size="13" lengthAdjust="spacing" textLength="27.5107" x="214.7334" y="378.5591">void</text><polygon fill="#181818" points="399.9429,408.7578,409.9429,412.7578,399.9429,416.7578,403.9429,412.7578" style="stroke:#181818;stroke-width:1.0;"/><line style="stroke:#181818;stroke-width:1.0;" x1="197.7334" x2="405.9429" y1="412.7578" y2="412.7578"/><text fill="#000000" font-family="sans-serif" font-size="13" lengthAdjust="spacing" textLength="134.4307" x="204.7334" y="407.6919">saveLogFilesPosition</text><text fill="#808080" font-family="sans-serif" font-size="13" lengthAdjust="spacing" textLength="52.5142" x="347.4287" y="407.6919">4.28 ms</text><polygon fill="#181818" points="208.7334,437.8906,198.7334,441.8906,208.7334,445.8906,204.7334,441.8906" style="stroke:#181818;stroke-width:1.0;"/><line style="stroke:#181818;stroke-width:1.0;stroke-dasharray:2.0,2.0;" x1="202.7334" x2="415.9429" y1="441.8906" y2="441.8906"/><text fill="#000000" font-family="sans-serif" font-size="13" lengthAdjust="spacing" textLength="27.5107" x="214.7334" y="436.8247">void</text><polygon fill="#181818" points="399.9429,467.0234,409.9429,471.0234,399.9429,475.0234,403.9429,471.0234" style="stroke:#181818;stroke-width:1.0;"/><line style="stroke:#181818;stroke-width:1.0;" x1="197.7334" x2="405.9429" y1="471.0234" y2="471.0234"/><text fill="#000000" font-family="sans-serif" font-size="13" lengthAdjust="spacing" textLength="33.4839" x="204.7334" y="465.9575">close</text><text fill="#808080" font-family="sans-serif" font-size="13" lengthAdjust="spacing" textLength="69.0562" x="246.4819" y="465.9575">0.0792 ms</text><polygon fill="#181818" points="672.9048,496.1563,682.9048,500.1563,672.9048,504.1563,676.9048,500.1563" style="stroke:#181818;stroke-width:1.0;"/><line style="stroke:#181818;stroke-width:1.0;" x1="421.9429" x2="678.9048" y1="500.1563" y2="500.1563"/><text fill="#000000" font-family="sans-serif" font-size="13" lengthAdjust="spacing" textLength="33.4839" x="428.9429" y="495.0903">close</text><text fill="#808080" font-family="sans-serif" font-size="13" lengthAdjust="spacing" textLength="69.0562" x="470.6914" y="495.0903">0.0328 ms</text><polygon fill="#181818" points="432.9429,525.2891,422.9429,529.2891,432.9429,533.2891,428.9429,529.2891" style="stroke:#181818;stroke-width:1.0;"/><line style="stroke:#181818;stroke-width:1.0;stroke-dasharray:2.0,2.0;" x1="426.9429" x2="688.9048" y1="529.2891" y2="529.2891"/><text fill="#000000" font-family="sans-serif" font-size="13" lengthAdjust="spacing" textLength="27.5107" x="438.9429" y="524.2231">void</text><polygon fill="#181818" points="208.7334,554.4219,198.7334,558.4219,208.7334,562.4219,204.7334,558.4219" style="stroke:#181818;stroke-width:1.0;"/><line style="stroke:#181818;stroke-width:1.0;stroke-dasharray:2.0,2.0;" x1="202.7334" x2="415.9429" y1="558.4219" y2="558.4219"/><text fill="#000000" font-family="sans-serif" font-size="13" lengthAdjust="spacing" textLength="27.5107" x="214.7334" y="553.356">void</text><polygon fill="#181818" points="11,583.5547,1,587.5547,11,591.5547,7,587.5547" style="stroke:#181818;stroke-width:1.0;"/><line style="stroke:#181818;stroke-width:1.0;stroke-dasharray:2.0,2.0;" x1="5" x2="191.7334" y1="587.5547" y2="587.5547"/><text fill="#000000" font-family="sans-serif" font-size="13" lengthAdjust="spacing" textLength="27.5107" x="17" y="582.4888">void</text><!--SRC=[lLJBQiCm4BpdAvRSupgnGrfZ0Zsaq6BQGdhBITYRL61BgYGC_VlARW-Hv2U4NeozZvdHUbQ2I4rpAWZJyCwLlaWyVfKlYhCFL1g8WgKVNYv4Rrj7Yrr-O9BcdnKo_NO-jzLMPBa0EAtsFca2sZoFf4QJeveQgZJd9PV9HPBlFQp3889AfNTjS6zWIAvfJJHs7CnaeIFiyYP0cQ4YPSOlpvNWKZkSmJgsENjPsnn0nhc023IjKBbOuTR5ybNw2YMIedap4gS13WkSGcb-fqB3br66DcSOxEAeYtGAhKziEIC1R3zHFWfHqfmq7dWbbITXi-sHS2N2GXxGaAvMZeYQqy9gA70KrSDq9-g0Na7sJ6iUuXZUWHKz6p64F8mwPRkKsMRZeoTQekhUwZZOtC_PiFy-GLvovHamt3rivbqB8yRlPedyqOmuV8Qt1rrzkocVlCRVk_wlkRUrgVe1]--></g></svg>