<svg xmlns="http://www.w3.org/2000/svg" xmlns:xlink="http://www.w3.org/1999/xlink" contentStyleType="text/css" data-diagram-type="SEQUENCE" height="324px" preserveAspectRatio="none" style="width:656px;height:324px;background:#FFFFFF;" version="1.1" viewBox="0 0 656 324" width="656px" zoomAndPan="magnify"><defs/><g><g><title>WatchServiceTest</title><rect fill="#FFFFFF" height="203.9297" style="stroke:#181818;stroke-width:1;" width="10" x="237.3975" y="67.4297"/></g><g><title>PostgreSqlJson</title><rect fill="#FFFFFF" height="29.1328" style="stroke:#181818;stroke-width:1;" width="10" x="447.8706" y="96.5625"/></g><g><title>PostgreSqlJson</title><rect fill="#FFFFFF" height="87.3984" style="stroke:#181818;stroke-width:1;" width="10" x="447.8706" y="154.8281"/></g><g><title>EnrichmentOff</title><rect fill="#FFFFFF" height="29.1328" style="stroke:#181818;stroke-width:1;" width="10" x="587.6753" y="183.9609"/></g><g><title>WatchServiceTest</title><rect fill="transparent" height="253.0625" width="8" x="238.3975" y="36.2969"/><line style="stroke:#181818;stroke-width:0.5;stroke-dasharray:5.0,5.0;" x1="242.312" x2="242.312" y1="36.2969" y2="289.3594"/></g><g><title>PostgreSqlJson</title><rect fill="transparent" height="253.0625" width="8" x="448.8706" y="36.2969"/><line style="stroke:#181818;stroke-width:0.5;stroke-dasharray:5.0,5.0;" x1="452.085" x2="452.085" y1="36.2969" y2="289.3594"/></g><g><title>EnrichmentOff</title><rect fill="transparent" height="253.0625" width="8" x="588.6753" y="36.2969"/><line style="stroke:#181818;stroke-width:0.5;stroke-dasharray:5.0,5.0;" x1="591.9629" x2="591.9629" y1="36.2969" y2="289.3594"/></g><rect fill="#E2E2F0" height="30.2969" rx="2.5" ry="2.5" style="stroke:#181818;stroke-width:0.5;" width="140.1709" x="172.312" y="5"/><text fill="#000000" font-family="sans-serif" font-size="14" lengthAdjust="spacing" textLength="126.1709" x="179.312" y="24.9951">WatchServiceTest</text><rect fill="#E2E2F0" height="30.2969" rx="2.5" ry="2.5" style="stroke:#181818;stroke-width:0.5;" width="140.1709" x="172.312" y="288.3594"/><text fill="#000000" font-family="sans-serif" font-size="14" lengthAdjust="spacing" textLength="126.1709" x="179.312" y="308.3545">WatchServiceTest</text><rect fill="#E2E2F0" height="30.2969" rx="2.5" ry="2.5" style="stroke:#181818;stroke-width:0.5;" width="117.5713" x="394.085" y="5"/><text fill="#000000" font-family="sans-serif" font-size="14" lengthAdjust="spacing" textLength="103.5713" x="401.085" y="24.9951">PostgreSqlJson</text><rect fill="#E2E2F0" height="30.2969" rx="2.5" ry="2.5" style="stroke:#181818;stroke-width:0.5;" width="117.5713" x="394.085" y="288.3594"/><text fill="#000000" font-family="sans-serif" font-size="14" lengthAdjust="spacing" textLength="103.5713" x="401.085" y="308.3545">PostgreSqlJson</text><rect fill="#E2E2F0" height="30.2969" rx="2.5" ry="2.5" style="stroke:#181818;stroke-width:0.5;" width="115.4248" x="534.9629" y="5"/><text fill="#000000" font-family="sans-serif" font-size="14" lengthAdjust="spacing" textLength="101.4248" x="541.9629" y="24.9951">EnrichmentOff</text><rect fill="#E2E2F0" height="30.2969" rx="2.5" ry="2.5" style="stroke:#181818;stroke-width:0.5;" width="115.4248" x="534.9629" y="288.3594"/><text fill="#000000" font-family="sans-serif" font-size="14" lengthAdjust="spacing" textLength="101.4248" x="541.9629" y="308.3545">EnrichmentOff</text><g><title>WatchServiceTest</title><rect fill="#FFFFFF" height="203.9297" style="stroke:#181818;stroke-width:1;" width="10" x="237.3975" y="67.4297"/></g><g><title>PostgreSqlJson</title><rect fill="#FFFFFF" height="29.1328" style="stroke:#181818;stroke-width:1;" width="10" x="447.8706" y="96.5625"/></g><g><title>PostgreSqlJson</title><rect fill="#FFFFFF" height="87.3984" style="stroke:#181818;stroke-width:1;" width="10" x="447.8706" y="154.8281"/></g><g><title>EnrichmentOff</title><rect fill="#FFFFFF" height="29.1328" style="stroke:#181818;stroke-width:1;" width="10" x="587.6753" y="183.9609"/></g><polygon fill="#181818" points="225.3975,63.4297,235.3975,67.4297,225.3975,71.4297,229.3975,67.4297" style="stroke:#181818;stroke-width:1;"/><line style="stroke:#181818;stroke-width:1;" x1="0" x2="231.3975" y1="67.4297" y2="67.4297"/><text fill="#000000" font-family="sans-serif" font-size="13" lengthAdjust="spacing" textLength="157.6187" x="7" y="62.3638">testRegisterWatchEvent</text><text fill="#808080" font-family="sans-serif" font-size="13" lengthAdjust="spacing" textLength="52.5142" x="172.8833" y="62.3638">41.4 ms</text><polygon fill="#181818" points="435.8706,92.5625,445.8706,96.5625,435.8706,100.5625,439.8706,96.5625" style="stroke:#181818;stroke-width:1;"/><line style="stroke:#181818;stroke-width:1;" x1="247.3975" x2="441.8706" y1="96.5625" y2="96.5625"/><text fill="#000000" font-family="sans-serif" font-size="13" lengthAdjust="spacing" textLength="128.9653" x="254.3975" y="91.4966">registerWatchEvent</text><text fill="#808080" font-family="sans-serif" font-size="13" lengthAdjust="spacing" textLength="44.2432" x="391.6274" y="91.4966">7.9 ms</text><polygon fill="#181818" points="258.3975,121.6953,248.3975,125.6953,258.3975,129.6953,254.3975,125.6953" style="stroke:#181818;stroke-width:1;"/><line style="stroke:#181818;stroke-width:1;stroke-dasharray:2.0,2.0;" x1="252.3975" x2="451.8706" y1="125.6953" y2="125.6953"/><text fill="#000000" font-family="sans-serif" font-size="13" lengthAdjust="spacing" textLength="27.5107" x="264.3975" y="120.6294">void</text><polygon fill="#181818" points="435.8706,150.8281,445.8706,154.8281,435.8706,158.8281,439.8706,154.8281" style="stroke:#181818;stroke-width:1;"/><line style="stroke:#181818;stroke-width:1;" x1="247.3975" x2="441.8706" y1="154.8281" y2="154.8281"/><text fill="#000000" font-family="sans-serif" font-size="13" lengthAdjust="spacing" textLength="33.4839" x="254.3975" y="149.7622">close</text><text fill="#808080" font-family="sans-serif" font-size="13" lengthAdjust="spacing" textLength="69.0562" x="296.146" y="149.7622">0.0799 ms</text><polygon fill="#181818" points="575.6753,179.9609,585.6753,183.9609,575.6753,187.9609,579.6753,183.9609" style="stroke:#181818;stroke-width:1;"/><line style="stroke:#181818;stroke-width:1;" x1="457.8706" x2="581.6753" y1="183.9609" y2="183.9609"/><text fill="#000000" font-family="sans-serif" font-size="13" lengthAdjust="spacing" textLength="33.4839" x="464.8706" y="178.895">close</text><text fill="#808080" font-family="sans-serif" font-size="13" lengthAdjust="spacing" textLength="69.0562" x="506.6191" y="178.895">0.0275 ms</text><polygon fill="#181818" points="468.8706,209.0938,458.8706,213.0938,468.8706,217.0938,464.8706,213.0938" style="stroke:#181818;stroke-width:1;"/><line style="stroke:#181818;stroke-width:1;stroke-dasharray:2.0,2.0;" x1="462.8706" x2="591.6753" y1="213.0938" y2="213.0938"/><text fill="#000000" font-family="sans-serif" font-size="13" lengthAdjust="spacing" textLength="27.5107" x="474.8706" y="208.0278">void</text><polygon fill="#181818" points="258.3975,238.2266,248.3975,242.2266,258.3975,246.2266,254.3975,242.2266" style="stroke:#181818;stroke-width:1;"/><line style="stroke:#181818;stroke-width:1;stroke-dasharray:2.0,2.0;" x1="252.3975" x2="451.8706" y1="242.2266" y2="242.2266"/><text fill="#000000" font-family="sans-serif" font-size="13" lengthAdjust="spacing" textLength="27.5107" x="264.3975" y="237.1606">void</text><polygon fill="#181818" points="11,267.3594,1,271.3594,11,275.3594,7,271.3594" style="stroke:#181818;stroke-width:1;"/><line style="stroke:#181818;stroke-width:1;stroke-dasharray:2.0,2.0;" x1="5" x2="241.3975" y1="271.3594" y2="271.3594"/><text fill="#000000" font-family="sans-serif" font-size="13" lengthAdjust="spacing" textLength="27.5107" x="17" y="266.2935">void</text><!--SRC=[hP8nQyCm48Nt_8h3kzoqf9WOeorBbvIaa26JK2wsmB4SwJ3atrU84dnIIWbqqV3ktljE9utAaT5cL0F1GP7kzkWce_4BFO7oKAHYiHXdba_hgNMul_OVtWxHm2NUlXcSqTq51zgUpx6RASK2u2XaYgo1mhd3rdX25wkRAJYWqRQthcwTkabOlPOhkFZc9OeoH2bDPbA4sSL23J9HI3vv3UuFObMkEN26v5aFWOqGAN6ovXHxJ_XCKZwwxgr7FksoN5RhfmQ6H1IIlTPlbBVgFQNCE2pY8IRi9U7Sry8MaoVzruQFmPX_mX_hp9ZsV0C0]--></g></svg>