<svg xmlns="http://www.w3.org/2000/svg" xmlns:xlink="http://www.w3.org/1999/xlink" contentStyleType="text/css" height="355px" preserveAspectRatio="none" style="width:724px;height:355px;background:#FFFFFF;" version="1.1" viewBox="0 0 724 355" width="724px" zoomAndPan="magnify"><defs/><g><rect fill="#FFFFFF" height="235.0625" style="stroke:#181818;stroke-width:1.0;" width="10" x="189.2632" y="67.4297"/><rect fill="#FFFFFF" height="176.7969" style="stroke:#181818;stroke-width:1.0;" width="10" x="374.187" y="96.5625"/><rect fill="#FFFFFF" height="29.1328" style="stroke:#181818;stroke-width:1.0;" width="10" x="645.4199" y="149.8281"/><rect fill="#FFFFFF" height="29.1328" style="stroke:#181818;stroke-width:1.0;" width="10" x="645.4199" y="215.0938"/><rect fill="none" height="75.3984" style="stroke:#000000;stroke-width:1.5;" width="407.731" x="310.4014" y="111.5625"/><line style="stroke:#181818;stroke-width:0.5;stroke-dasharray:5.0,5.0;" x1="193.5034" x2="193.5034" y1="36.2969" y2="320.4922"/><line style="stroke:#181818;stroke-width:0.5;stroke-dasharray:5.0,5.0;" x1="378.4014" x2="378.4014" y1="36.2969" y2="320.4922"/><line style="stroke:#181818;stroke-width:0.5;stroke-dasharray:5.0,5.0;" x1="649.7075" x2="649.7075" y1="36.2969" y2="320.4922"/><rect fill="#E2E2F0" height="30.2969" rx="2.5" ry="2.5" style="stroke:#181818;stroke-width:0.5;" width="147.5195" x="120.5034" y="5"/><text fill="#000000" font-family="sans-serif" font-size="14" lengthAdjust="spacing" textLength="133.5195" x="127.5034" y="24.9951">PostgreSqlJsonTest</text><rect fill="#E2E2F0" height="30.2969" rx="2.5" ry="2.5" style="stroke:#181818;stroke-width:0.5;" width="147.5195" x="120.5034" y="319.4922"/><text fill="#000000" font-family="sans-serif" font-size="14" lengthAdjust="spacing" textLength="133.5195" x="127.5034" y="339.4873">PostgreSqlJsonTest</text><rect fill="#E2E2F0" height="30.2969" rx="2.5" ry="2.5" style="stroke:#181818;stroke-width:0.5;" width="117.5713" x="320.4014" y="5"/><text fill="#000000" font-family="sans-serif" font-size="14" lengthAdjust="spacing" textLength="103.5713" x="327.4014" y="24.9951">PostgreSqlJson</text><rect fill="#E2E2F0" height="30.2969" rx="2.5" ry="2.5" style="stroke:#181818;stroke-width:0.5;" width="117.5713" x="320.4014" y="319.4922"/><text fill="#000000" font-family="sans-serif" font-size="14" lengthAdjust="spacing" textLength="103.5713" x="327.4014" y="339.4873">PostgreSqlJson</text><rect fill="#E2E2F0" height="30.2969" rx="2.5" ry="2.5" style="stroke:#181818;stroke-width:0.5;" width="115.4248" x="592.7075" y="5"/><text fill="#000000" font-family="sans-serif" font-size="14" lengthAdjust="spacing" textLength="101.4248" x="599.7075" y="24.9951">EnrichmentOff</text><rect fill="#E2E2F0" height="30.2969" rx="2.5" ry="2.5" style="stroke:#181818;stroke-width:0.5;" width="115.4248" x="592.7075" y="319.4922"/><text fill="#000000" font-family="sans-serif" font-size="14" lengthAdjust="spacing" textLength="101.4248" x="599.7075" y="339.4873">EnrichmentOff</text><rect fill="#FFFFFF" height="235.0625" style="stroke:#181818;stroke-width:1.0;" width="10" x="189.2632" y="67.4297"/><rect fill="#FFFFFF" height="176.7969" style="stroke:#181818;stroke-width:1.0;" width="10" x="374.187" y="96.5625"/><rect fill="#FFFFFF" height="29.1328" style="stroke:#181818;stroke-width:1.0;" width="10" x="645.4199" y="149.8281"/><rect fill="#FFFFFF" height="29.1328" style="stroke:#181818;stroke-width:1.0;" width="10" x="645.4199" y="215.0938"/><polygon fill="#181818" points="177.2632,63.4297,187.2632,67.4297,177.2632,71.4297,181.2632,67.4297" style="stroke:#181818;stroke-width:1.0;"/><line style="stroke:#181818;stroke-width:1.0;" x1="0" x2="183.2632" y1="67.4297" y2="67.4297"/><text fill="#000000" font-family="sans-serif" font-size="13" lengthAdjust="spacing" textLength="101.2134" x="7" y="62.3638">logWithQueryId</text><text fill="#808080" font-family="sans-serif" font-size="13" lengthAdjust="spacing" textLength="60.7852" x="116.478" y="62.3638">0.252 ms</text><polygon fill="#181818" points="362.187,92.5625,372.187,96.5625,362.187,100.5625,366.187,96.5625" style="stroke:#181818;stroke-width:1.0;"/><line style="stroke:#181818;stroke-width:1.0;" x1="199.2632" x2="368.187" y1="96.5625" y2="96.5625"/><text fill="#000000" font-family="sans-serif" font-size="13" lengthAdjust="spacing" textLength="86.874" x="206.2632" y="91.4966">parseLogLine</text><text fill="#808080" font-family="sans-serif" font-size="13" lengthAdjust="spacing" textLength="60.7852" x="301.4019" y="91.4966">0.211 ms</text><path d="M310.4014,111.5625 L387.0254,111.5625 L387.0254,118.6953 L377.0254,128.6953 L310.4014,128.6953 L310.4014,111.5625 " fill="#EEEEEE" style="stroke:#000000;stroke-width:1.5;"/><rect fill="none" height="75.3984" style="stroke:#000000;stroke-width:1.5;" width="407.731" x="310.4014" y="111.5625"/><text fill="#000000" font-family="sans-serif" font-size="13" font-weight="bold" lengthAdjust="spacing" textLength="31.624" x="325.4014" y="124.6294">loop</text><text fill="#000000" font-family="sans-serif" font-size="11" font-weight="bold" lengthAdjust="spacing" textLength="51.0093" x="402.0254" y="123.7729">[2 times</text><text fill="#808080" font-family="sans-serif" font-size="11" font-weight="bold" lengthAdjust="spacing" textLength="64.2866" x="460.6938" y="123.7729">0.0474 ms</text><text fill="#000000" font-family="sans-serif" font-size="11" font-weight="bold" lengthAdjust="spacing" textLength="5.0273" x="524.9805" y="123.7729">]</text><polygon fill="#181818" points="633.4199,145.8281,643.4199,149.8281,633.4199,153.8281,637.4199,149.8281" style="stroke:#181818;stroke-width:1.0;"/><line style="stroke:#181818;stroke-width:1.0;" x1="384.187" x2="639.4199" y1="149.8281" y2="149.8281"/><text fill="#000000" font-family="sans-serif" font-size="13" lengthAdjust="spacing" textLength="164.9121" x="391.187" y="144.7622">enricherApplicationName</text><text fill="#808080" font-family="sans-serif" font-size="13" lengthAdjust="spacing" textLength="69.0562" x="564.3638" y="144.7622">0.0474 ms</text><polygon fill="#181818" points="395.187,174.9609,385.187,178.9609,395.187,182.9609,391.187,178.9609" style="stroke:#181818;stroke-width:1.0;"/><line style="stroke:#181818;stroke-width:1.0;stroke-dasharray:2.0,2.0;" x1="389.187" x2="649.4199" y1="178.9609" y2="178.9609"/><text fill="#000000" font-family="sans-serif" font-size="13" lengthAdjust="spacing" textLength="27.5107" x="401.187" y="173.895">void</text><polygon fill="#181818" points="633.4199,211.0938,643.4199,215.0938,633.4199,219.0938,637.4199,215.0938" style="stroke:#181818;stroke-width:1.0;"/><line style="stroke:#181818;stroke-width:1.0;" x1="384.187" x2="639.4199" y1="215.0938" y2="215.0938"/><text fill="#000000" font-family="sans-serif" font-size="13" lengthAdjust="spacing" textLength="89.7559" x="391.187" y="210.0278">getStatement</text><text fill="#808080" font-family="sans-serif" font-size="13" lengthAdjust="spacing" textLength="69.0562" x="489.2075" y="210.0278">0.0101 ms</text><polygon fill="#181818" points="395.187,240.2266,385.187,244.2266,395.187,248.2266,391.187,244.2266" style="stroke:#181818;stroke-width:1.0;"/><line style="stroke:#181818;stroke-width:1.0;stroke-dasharray:2.0,2.0;" x1="389.187" x2="649.4199" y1="244.2266" y2="244.2266"/><text fill="#000000" font-family="sans-serif" font-size="13" lengthAdjust="spacing" textLength="27.5107" x="401.187" y="239.1606">void</text><polygon fill="#181818" points="210.2632,269.3594,200.2632,273.3594,210.2632,277.3594,206.2632,273.3594" style="stroke:#181818;stroke-width:1.0;"/><line style="stroke:#181818;stroke-width:1.0;stroke-dasharray:2.0,2.0;" x1="204.2632" x2="378.187" y1="273.3594" y2="273.3594"/><text fill="#000000" font-family="sans-serif" font-size="13" lengthAdjust="spacing" textLength="27.5107" x="216.2632" y="268.2935">void</text><polygon fill="#181818" points="11,298.4922,1,302.4922,11,306.4922,7,302.4922" style="stroke:#181818;stroke-width:1.0;"/><line style="stroke:#181818;stroke-width:1.0;stroke-dasharray:2.0,2.0;" x1="5" x2="193.2632" y1="302.4922" y2="302.4922"/><text fill="#000000" font-family="sans-serif" font-size="13" lengthAdjust="spacing" textLength="27.5107" x="17" y="297.4263">void</text><!--SRC=[bP9FQuGm4CNl-oa6xxOgMmeYGWzxQ97-OGizx2d4sMn0apIPBkotRzQsKetQxT6NDxytJyOmIv9BmnJ1itOaB6xVcmUdrIiw0kOW2kLePMR79aQ6zesoaXzQLFIqttVkWHAj07Pn6ORcq6Zn9kdmye7sT5z3mNMZRIuiEvMGN6Kt6RIkkExKqbCO9tbaX1Ez_2jCoEFO7FpY3YijAgam24pJOU1iPFS6K6bj80EIBRenB5dVhiUqSCcu7Foh7B3xH7jdJ2Cv8wdL8slnKdg_xm0x4rx4yIZzg6NTcsjSf6tKZ_MFIW9fIvvo5e8UQPA6FHPp_z5XiK5uBPurFfSUzWiLdC8k6Fmwx-_XsT6pwnC0]--></g></svg>