<svg xmlns="http://www.w3.org/2000/svg" xmlns:xlink="http://www.w3.org/1999/xlink" contentStyleType="text/css" height="410px" preserveAspectRatio="none" style="width:731px;height:410px;background:#000000;" version="1.1" viewBox="0 0 731 410" width="731px" zoomAndPan="magnify"><defs/><g><rect fill="none" height="265.7813" style="stroke:#999999;stroke-width:1.0;" width="10" x="246.7227" y="83.9375"/><rect fill="none" height="37.9688" style="stroke:#999999;stroke-width:1.0;" width="10" x="463.2881" y="121.9063"/><rect fill="none" height="113.9063" style="stroke:#999999;stroke-width:1.0;" width="10" x="463.2881" y="197.8438"/><rect fill="none" height="37.9688" style="stroke:#999999;stroke-width:1.0;" width="10" x="665.1436" y="235.8125"/><line style="stroke:#999999;stroke-width:0.5;stroke-dasharray:5.0,5.0;" x1="251.5449" x2="251.5449" y1="43.9688" y2="367.7188"/><line style="stroke:#999999;stroke-width:0.5;stroke-dasharray:5.0,5.0;" x1="467.9004" x2="467.9004" y1="43.9688" y2="367.7188"/><line style="stroke:#999999;stroke-width:0.5;stroke-dasharray:5.0,5.0;" x1="669.6758" x2="669.6758" y1="43.9688" y2="367.7188"/><rect fill="#555555" height="37.9688" rx="4" ry="4" style="stroke:#555555;stroke-width:1.0;" width="140.3555" x="181.5449" y="5"/><text fill="#FFFFFF" font-family="Verdana" font-size="12" lengthAdjust="spacing" textLength="116.3555" x="193.5449" y="28.1387">LogEnrichmentTest</text><rect fill="#555555" height="37.9688" rx="4" ry="4" style="stroke:#555555;stroke-width:1.0;" width="140.3555" x="181.5449" y="366.7188"/><text fill="#FFFFFF" font-family="Verdana" font-size="12" lengthAdjust="spacing" textLength="116.3555" x="193.5449" y="389.8574">LogEnrichmentTest</text><rect fill="#555555" height="37.9688" rx="4" ry="4" style="stroke:#555555;stroke-width:1.0;" width="112.7754" x="411.9004" y="5"/><text fill="#FFFFFF" font-family="Verdana" font-size="12" lengthAdjust="spacing" textLength="88.7754" x="423.9004" y="28.1387">PostgreSqlJson</text><rect fill="#555555" height="37.9688" rx="4" ry="4" style="stroke:#555555;stroke-width:1.0;" width="112.7754" x="411.9004" y="366.7188"/><text fill="#FFFFFF" font-family="Verdana" font-size="12" lengthAdjust="spacing" textLength="88.7754" x="423.9004" y="389.8574">PostgreSqlJson</text><rect fill="#555555" height="37.9688" rx="4" ry="4" style="stroke:#555555;stroke-width:1.0;" width="110.9355" x="614.6758" y="5"/><text fill="#FFFFFF" font-family="Verdana" font-size="12" lengthAdjust="spacing" textLength="86.9355" x="626.6758" y="28.1387">EnrichmentOff</text><rect fill="#555555" height="37.9688" rx="4" ry="4" style="stroke:#555555;stroke-width:1.0;" width="110.9355" x="614.6758" y="366.7188"/><text fill="#FFFFFF" font-family="Verdana" font-size="12" lengthAdjust="spacing" textLength="86.9355" x="626.6758" y="389.8574">EnrichmentOff</text><rect fill="none" height="265.7813" style="stroke:#999999;stroke-width:1.0;" width="10" x="246.7227" y="83.9375"/><rect fill="none" height="37.9688" style="stroke:#999999;stroke-width:1.0;" width="10" x="463.2881" y="121.9063"/><rect fill="none" height="113.9063" style="stroke:#999999;stroke-width:1.0;" width="10" x="463.2881" y="197.8438"/><rect fill="none" height="37.9688" style="stroke:#999999;stroke-width:1.0;" width="10" x="665.1436" y="235.8125"/><polygon fill="#4362B1" points="234.7227,79.9375,244.7227,83.9375,234.7227,87.9375,238.7227,83.9375" style="stroke:#4362B1;stroke-width:1.0;"/><line style="stroke:#4362B1;stroke-width:3.0;" x1="0" x2="240.7227" y1="83.9375" y2="83.9375"/><text fill="#FFFFFF" font-family="Verdana" font-size="12" lengthAdjust="spacing" textLength="153.9844" x="12" y="74.1074">initLogEnricherWoDbHost</text><text fill="#808080" font-family="Verdana" font-size="12" lengthAdjust="spacing" textLength="56.1094" x="173.6133" y="74.1074">0.129 ms</text><polygon fill="#4362B1" points="451.2881,117.9063,461.2881,121.9063,451.2881,125.9063,455.2881,121.9063" style="stroke:#4362B1;stroke-width:1.0;"/><line style="stroke:#4362B1;stroke-width:3.0;" x1="256.7227" x2="457.2881" y1="121.9063" y2="121.9063"/><text fill="#FFFFFF" font-family="Verdana" font-size="12" lengthAdjust="spacing" textLength="90.5977" x="268.7227" y="112.0762">initLogEnricher</text><text fill="#808080" font-family="Verdana" font-size="12" lengthAdjust="spacing" textLength="63.7441" x="366.9492" y="112.0762">0.0202 ms</text><polygon fill="#4362B1" points="267.7227,155.875,257.7227,159.875,267.7227,163.875,263.7227,159.875" style="stroke:#4362B1;stroke-width:1.0;"/><line style="stroke:#4362B1;stroke-width:3.0;stroke-dasharray:2.0,2.0;" x1="261.7227" x2="467.2881" y1="159.875" y2="159.875"/><text fill="#FFFFFF" font-family="Verdana" font-size="12" lengthAdjust="spacing" textLength="25.3945" x="278.7227" y="150.0449">void</text><polygon fill="#4362B1" points="451.2881,193.8438,461.2881,197.8438,451.2881,201.8438,455.2881,197.8438" style="stroke:#4362B1;stroke-width:1.0;"/><line style="stroke:#4362B1;stroke-width:3.0;" x1="256.7227" x2="457.2881" y1="197.8438" y2="197.8438"/><text fill="#FFFFFF" font-family="Verdana" font-size="12" lengthAdjust="spacing" textLength="30.9082" x="268.7227" y="188.0137">close</text><text fill="#808080" font-family="Verdana" font-size="12" lengthAdjust="spacing" textLength="63.7441" x="307.2598" y="188.0137">0.0252 ms</text><polygon fill="#4362B1" points="653.1436,231.8125,663.1436,235.8125,653.1436,239.8125,657.1436,235.8125" style="stroke:#4362B1;stroke-width:1.0;"/><line style="stroke:#4362B1;stroke-width:3.0;" x1="473.2881" x2="659.1436" y1="235.8125" y2="235.8125"/><text fill="#FFFFFF" font-family="Verdana" font-size="12" lengthAdjust="spacing" textLength="30.9082" x="485.2881" y="225.9824">close</text><text fill="#808080" font-family="Verdana" font-size="12" lengthAdjust="spacing" textLength="71.3789" x="523.8252" y="225.9824">0.00834 ms</text><polygon fill="#4362B1" points="484.2881,269.7813,474.2881,273.7813,484.2881,277.7813,480.2881,273.7813" style="stroke:#4362B1;stroke-width:1.0;"/><line style="stroke:#4362B1;stroke-width:3.0;stroke-dasharray:2.0,2.0;" x1="478.2881" x2="669.1436" y1="273.7813" y2="273.7813"/><text fill="#FFFFFF" font-family="Verdana" font-size="12" lengthAdjust="spacing" textLength="25.3945" x="495.2881" y="263.9512">void</text><polygon fill="#4362B1" points="267.7227,307.75,257.7227,311.75,267.7227,315.75,263.7227,311.75" style="stroke:#4362B1;stroke-width:1.0;"/><line style="stroke:#4362B1;stroke-width:3.0;stroke-dasharray:2.0,2.0;" x1="261.7227" x2="467.2881" y1="311.75" y2="311.75"/><text fill="#FFFFFF" font-family="Verdana" font-size="12" lengthAdjust="spacing" textLength="25.3945" x="278.7227" y="301.9199">void</text><polygon fill="#4362B1" points="11,345.7188,1,349.7188,11,353.7188,7,349.7188" style="stroke:#4362B1;stroke-width:1.0;"/><line style="stroke:#4362B1;stroke-width:3.0;stroke-dasharray:2.0,2.0;" x1="5" x2="250.7227" y1="349.7188" y2="349.7188"/><text fill="#FFFFFF" font-family="Verdana" font-size="12" lengthAdjust="spacing" textLength="25.3945" x="22" y="339.8887">void</text><!--SRC=[hP9FIyGm4CNl-obYxsrgLT1IUb8G4HGKFEmfcywsWVmpcQxuxGrTMPjczx3WzSrxxpUPza9eBiSEHYV9W6XzJQbZNqKlS1WtemV7ZKRGM72ZQ0_8h5NCKYkPnb7970TGG1KJckv7UwMmORYopA7WmWOlUJRzWtQ23ogqlOD7mZp94ZMBGg_6O-_WxLC-UQEdH2p5zh-gb-rsSaTAjY9adRS9ioP22pp8u3xC_UOnS4Z3ZJIkxXtxRabPN5PtHFc6JceRsXX7iMC8wUl2aAHgtiRh9-GbiQpAAaREe77NSMAJvqlapeXkCdTmLbMwF9V6GxhopLahauMOjz57EqKfRw-kbvWPAEeuoWcNMO0EXubEapRzsv7N8NZaR_pDpfA9wGS0]--></g></svg>