<svg xmlns="http://www.w3.org/2000/svg" xmlns:xlink="http://www.w3.org/1999/xlink" contentStyleType="text/css" height="381px" preserveAspectRatio="none" style="width:578px;height:381px;background:#FFFFFF;" version="1.1" viewBox="0 0 578 381" width="578px" zoomAndPan="magnify"><defs/><g><rect fill="#FFFFFF" height="261.0625" style="stroke:#181818;stroke-width:1.0;" width="10" x="194.3286" y="67.4297"/><rect fill="#FFFFFF" height="171.6641" style="stroke:#181818;stroke-width:1.0;" width="10" x="354.5791" y="120.6953"/><rect fill="#FFFFFF" height="98.3984" style="stroke:#181818;stroke-width:1.0;" width="10" x="359.5791" y="157.8281"/><rect fill="#FFFFFF" height="29.1328" style="stroke:#181818;stroke-width:1.0;" width="10" x="499.3838" y="191.9609"/><rect fill="none" height="217.9297" style="stroke:#000000;stroke-width:1.5;" width="474.2324" x="97.8638" y="82.4297"/><line style="stroke:#181818;stroke-width:0.5;stroke-dasharray:5.0,5.0;" x1="198.8638" x2="198.8638" y1="36.2969" y2="346.4922"/><line style="stroke:#181818;stroke-width:0.5;stroke-dasharray:5.0,5.0;" x1="358.7935" x2="358.7935" y1="36.2969" y2="346.4922"/><line style="stroke:#181818;stroke-width:0.5;stroke-dasharray:5.0,5.0;" x1="503.6714" x2="503.6714" y1="36.2969" y2="346.4922"/><rect fill="#E2E2F0" height="30.2969" rx="2.5" ry="2.5" style="stroke:#181818;stroke-width:0.5;" width="182.9297" x="107.8638" y="5"/><text fill="#000000" font-family="sans-serif" font-size="14" lengthAdjust="spacing" textLength="168.9297" x="114.8638" y="24.9951">TestCliArgumentParsing</text><rect fill="#E2E2F0" height="30.2969" rx="2.5" ry="2.5" style="stroke:#181818;stroke-width:0.5;" width="182.9297" x="107.8638" y="345.4922"/><text fill="#000000" font-family="sans-serif" font-size="14" lengthAdjust="spacing" textLength="168.9297" x="114.8638" y="365.4873">TestCliArgumentParsing</text><rect fill="#E2E2F0" height="30.2969" rx="2.5" ry="2.5" style="stroke:#181818;stroke-width:0.5;" width="117.5713" x="300.7935" y="5"/><text fill="#000000" font-family="sans-serif" font-size="14" lengthAdjust="spacing" textLength="103.5713" x="307.7935" y="24.9951">PostgreSqlJson</text><rect fill="#E2E2F0" height="30.2969" rx="2.5" ry="2.5" style="stroke:#181818;stroke-width:0.5;" width="117.5713" x="300.7935" y="345.4922"/><text fill="#000000" font-family="sans-serif" font-size="14" lengthAdjust="spacing" textLength="103.5713" x="307.7935" y="365.4873">PostgreSqlJson</text><rect fill="#E2E2F0" height="30.2969" rx="2.5" ry="2.5" style="stroke:#181818;stroke-width:0.5;" width="115.4248" x="446.6714" y="5"/><text fill="#000000" font-family="sans-serif" font-size="14" lengthAdjust="spacing" textLength="101.4248" x="453.6714" y="24.9951">EnrichmentOff</text><rect fill="#E2E2F0" height="30.2969" rx="2.5" ry="2.5" style="stroke:#181818;stroke-width:0.5;" width="115.4248" x="446.6714" y="345.4922"/><text fill="#000000" font-family="sans-serif" font-size="14" lengthAdjust="spacing" textLength="101.4248" x="453.6714" y="365.4873">EnrichmentOff</text><rect fill="#FFFFFF" height="261.0625" style="stroke:#181818;stroke-width:1.0;" width="10" x="194.3286" y="67.4297"/><rect fill="#FFFFFF" height="171.6641" style="stroke:#181818;stroke-width:1.0;" width="10" x="354.5791" y="120.6953"/><rect fill="#FFFFFF" height="98.3984" style="stroke:#181818;stroke-width:1.0;" width="10" x="359.5791" y="157.8281"/><rect fill="#FFFFFF" height="29.1328" style="stroke:#181818;stroke-width:1.0;" width="10" x="499.3838" y="191.9609"/><polygon fill="#181818" points="182.3286,63.4297,192.3286,67.4297,182.3286,71.4297,186.3286,67.4297" style="stroke:#181818;stroke-width:1.0;"/><line style="stroke:#181818;stroke-width:1.0;" x1="0" x2="188.3286" y1="67.4297" y2="67.4297"/><text fill="#000000" font-family="sans-serif" font-size="13" lengthAdjust="spacing" textLength="122.8208" x="7" y="62.3638">testHelpParameter</text><text fill="#808080" font-family="sans-serif" font-size="13" lengthAdjust="spacing" textLength="44.2432" x="138.0854" y="62.3638">2.6 ms</text><path d="M97.8638,82.4297 L174.4878,82.4297 L174.4878,89.5625 L164.4878,99.5625 L97.8638,99.5625 L97.8638,82.4297 " fill="#EEEEEE" style="stroke:#000000;stroke-width:1.5;"/><rect fill="none" height="217.9297" style="stroke:#000000;stroke-width:1.5;" width="474.2324" x="97.8638" y="82.4297"/><text fill="#000000" font-family="sans-serif" font-size="13" font-weight="bold" lengthAdjust="spacing" textLength="31.624" x="112.8638" y="95.4966">loop</text><text fill="#000000" font-family="sans-serif" font-size="11" font-weight="bold" lengthAdjust="spacing" textLength="51.0093" x="189.4878" y="94.6401">[2 times</text><text fill="#808080" font-family="sans-serif" font-size="11" font-weight="bold" lengthAdjust="spacing" textLength="48.979" x="248.1563" y="94.6401">2.56 ms</text><text fill="#000000" font-family="sans-serif" font-size="11" font-weight="bold" lengthAdjust="spacing" textLength="5.0273" x="297.1353" y="94.6401">]</text><polygon fill="#181818" points="342.5791,116.6953,352.5791,120.6953,342.5791,124.6953,346.5791,120.6953" style="stroke:#181818;stroke-width:1.0;"/><line style="stroke:#181818;stroke-width:1.0;" x1="204.3286" x2="348.5791" y1="120.6953" y2="120.6953"/><text fill="#000000" font-family="sans-serif" font-size="13" lengthAdjust="spacing" text-decoration="underline" textLength="32.481" x="211.3286" y="115.6294">main</text><text fill="#000000" font-family="sans-serif" font-size="13" lengthAdjust="spacing" textLength="4.1323" x="243.8096" y="115.6294">&#160;</text><text fill="#808080" font-family="sans-serif" font-size="13" lengthAdjust="spacing" textLength="52.5142" x="252.0742" y="115.6294">2.56 ms</text><line style="stroke:#181818;stroke-width:1.0;" x1="364.5791" x2="411.5791" y1="144.8281" y2="144.8281"/><line style="stroke:#181818;stroke-width:1.0;" x1="411.5791" x2="411.5791" y1="144.8281" y2="157.8281"/><line style="stroke:#181818;stroke-width:1.0;" x1="370.5791" x2="411.5791" y1="157.8281" y2="157.8281"/><polygon fill="#181818" points="380.5791,153.8281,370.5791,157.8281,380.5791,161.8281,376.5791,157.8281" style="stroke:#181818;stroke-width:1.0;"/><text fill="#000000" font-family="sans-serif" font-size="13" lengthAdjust="spacing" textLength="33.4839" x="376.5791" y="139.7622">close</text><text fill="#808080" font-family="sans-serif" font-size="13" lengthAdjust="spacing" textLength="69.0562" x="418.3276" y="139.7622">0.0936 ms</text><polygon fill="#181818" points="487.3838,187.9609,497.3838,191.9609,487.3838,195.9609,491.3838,191.9609" style="stroke:#181818;stroke-width:1.0;"/><line style="stroke:#181818;stroke-width:1.0;" x1="369.5791" x2="493.3838" y1="191.9609" y2="191.9609"/><text fill="#000000" font-family="sans-serif" font-size="13" lengthAdjust="spacing" textLength="33.4839" x="376.5791" y="186.895">close</text><text fill="#808080" font-family="sans-serif" font-size="13" lengthAdjust="spacing" textLength="69.0562" x="418.3276" y="186.895">0.0252 ms</text><polygon fill="#181818" points="380.5791,217.0938,370.5791,221.0938,380.5791,225.0938,376.5791,221.0938" style="stroke:#181818;stroke-width:1.0;"/><line style="stroke:#181818;stroke-width:1.0;stroke-dasharray:2.0,2.0;" x1="374.5791" x2="503.3838" y1="221.0938" y2="221.0938"/><text fill="#000000" font-family="sans-serif" font-size="13" lengthAdjust="spacing" textLength="27.5107" x="386.5791" y="216.0278">void</text><line style="stroke:#181818;stroke-width:1.0;stroke-dasharray:2.0,2.0;" x1="312.5791" x2="358.5791" y1="255.2266" y2="255.2266"/><line style="stroke:#181818;stroke-width:1.0;stroke-dasharray:2.0,2.0;" x1="312.5791" x2="312.5791" y1="255.2266" y2="268.2266"/><line style="stroke:#181818;stroke-width:1.0;stroke-dasharray:2.0,2.0;" x1="312.5791" x2="352.5791" y1="268.2266" y2="268.2266"/><polygon fill="#181818" points="342.5791,264.2266,352.5791,268.2266,342.5791,272.2266,346.5791,268.2266" style="stroke:#181818;stroke-width:1.0;"/><text fill="#000000" font-family="sans-serif" font-size="13" lengthAdjust="spacing" textLength="27.5107" x="311.5791" y="250.1606">void</text><polygon fill="#181818" points="215.3286,288.3594,205.3286,292.3594,215.3286,296.3594,211.3286,292.3594" style="stroke:#181818;stroke-width:1.0;"/><line style="stroke:#181818;stroke-width:1.0;stroke-dasharray:2.0,2.0;" x1="209.3286" x2="358.5791" y1="292.3594" y2="292.3594"/><text fill="#000000" font-family="sans-serif" font-size="13" lengthAdjust="spacing" textLength="27.5107" x="221.3286" y="287.2935">void</text><polygon fill="#181818" points="11,324.4922,1,328.4922,11,332.4922,7,328.4922" style="stroke:#181818;stroke-width:1.0;"/><line style="stroke:#181818;stroke-width:1.0;stroke-dasharray:2.0,2.0;" x1="5" x2="198.3286" y1="328.4922" y2="328.4922"/><text fill="#000000" font-family="sans-serif" font-size="13" lengthAdjust="spacing" textLength="27.5107" x="17" y="323.4263">void</text><!--SRC=[ZP9RQyCW68Rl-oi-Sf-sP7Im8C8OXL46AsntlH9hKy5JrHJsxsT26MfCEozVNv_7ao7MSyeDKHw-cVDlWh_QhfTC-JsnZgiEY8EgF5KjJBHyhvtlBFkwY9tJQboMHcbzgoodvu7sUJgDxIIf5W276fV5BVYGlpDXGa0ayym2ebfestQM_61ebiyW7LgD6GueGZs_4izc3XaQ01zQ6sZ0SybSZjjal66KKJLEJzq2wh4aNA5LZ_-3_TjgohdDGXPFTLHenrBHUhb-UIge7ikckkILvcpDfYdP8b-2cTMXkivyLysFKVt87X0dlFow4c24Arv8-SdlK-ypjshe7G9YxglVK16ctFm5]--></g></svg>