<svg xmlns="http://www.w3.org/2000/svg" xmlns:xlink="http://www.w3.org/1999/xlink" contentStyleType="text/css" height="640px" preserveAspectRatio="none" style="width:759px;height:640px;background:#FFFFFF;" version="1.1" viewBox="0 0 759 640" width="759px" zoomAndPan="magnify"><defs/><g><rect fill="#FFFFFF" height="520.125" style="stroke:#181818;stroke-width:1.0;" width="10" x="167.0591" y="67.4297"/><rect fill="#FFFFFF" height="287.0625" style="stroke:#181818;stroke-width:1.0;" width="10" x="399.5396" y="96.5625"/><rect fill="#FFFFFF" height="182.6641" style="stroke:#181818;stroke-width:1.0;" width="10" x="404.5396" y="157.8281"/><rect fill="#FFFFFF" height="98.3984" style="stroke:#181818;stroke-width:1.0;" width="10" x="409.5396" y="199.9609"/><rect fill="#FFFFFF" height="29.1328" style="stroke:#181818;stroke-width:1.0;" width="10" x="399.5396" y="412.7578"/><rect fill="#FFFFFF" height="87.3984" style="stroke:#181818;stroke-width:1.0;" width="10" x="399.5396" y="471.0234"/><rect fill="#FFFFFF" height="29.1328" style="stroke:#181818;stroke-width:1.0;" width="10" x="680.7725" y="234.0938"/><rect fill="#FFFFFF" height="29.1328" style="stroke:#181818;stroke-width:1.0;" width="10" x="680.7725" y="500.1563"/><rect fill="none" height="243.9297" style="stroke:#000000;stroke-width:1.5;" width="417.731" x="335.7539" y="111.5625"/><line style="stroke:#181818;stroke-width:0.5;stroke-dasharray:5.0,5.0;" x1="171.2993" x2="171.2993" y1="36.2969" y2="605.5547"/><line style="stroke:#181818;stroke-width:0.5;stroke-dasharray:5.0,5.0;" x1="403.7539" x2="403.7539" y1="36.2969" y2="605.5547"/><line style="stroke:#181818;stroke-width:0.5;stroke-dasharray:5.0,5.0;" x1="685.0601" x2="685.0601" y1="36.2969" y2="605.5547"/><rect fill="#E2E2F0" height="30.2969" rx="2.5" ry="2.5" style="stroke:#181818;stroke-width:0.5;" width="147.5195" x="98.2993" y="5"/><text fill="#000000" font-family="sans-serif" font-size="14" lengthAdjust="spacing" textLength="133.5195" x="105.2993" y="24.9951">PostgreSqlJsonTest</text><rect fill="#E2E2F0" height="30.2969" rx="2.5" ry="2.5" style="stroke:#181818;stroke-width:0.5;" width="147.5195" x="98.2993" y="604.5547"/><text fill="#000000" font-family="sans-serif" font-size="14" lengthAdjust="spacing" textLength="133.5195" x="105.2993" y="624.5498">PostgreSqlJsonTest</text><rect fill="#E2E2F0" height="30.2969" rx="2.5" ry="2.5" style="stroke:#181818;stroke-width:0.5;" width="117.5713" x="345.7539" y="5"/><text fill="#000000" font-family="sans-serif" font-size="14" lengthAdjust="spacing" textLength="103.5713" x="352.7539" y="24.9951">PostgreSqlJson</text><rect fill="#E2E2F0" height="30.2969" rx="2.5" ry="2.5" style="stroke:#181818;stroke-width:0.5;" width="117.5713" x="345.7539" y="604.5547"/><text fill="#000000" font-family="sans-serif" font-size="14" lengthAdjust="spacing" textLength="103.5713" x="352.7539" y="624.5498">PostgreSqlJson</text><rect fill="#E2E2F0" height="30.2969" rx="2.5" ry="2.5" style="stroke:#181818;stroke-width:0.5;" width="115.4248" x="628.0601" y="5"/><text fill="#000000" font-family="sans-serif" font-size="14" lengthAdjust="spacing" textLength="101.4248" x="635.0601" y="24.9951">EnrichmentOff</text><rect fill="#E2E2F0" height="30.2969" rx="2.5" ry="2.5" style="stroke:#181818;stroke-width:0.5;" width="115.4248" x="628.0601" y="604.5547"/><text fill="#000000" font-family="sans-serif" font-size="14" lengthAdjust="spacing" textLength="101.4248" x="635.0601" y="624.5498">EnrichmentOff</text><rect fill="#FFFFFF" height="520.125" style="stroke:#181818;stroke-width:1.0;" width="10" x="167.0591" y="67.4297"/><rect fill="#FFFFFF" height="287.0625" style="stroke:#181818;stroke-width:1.0;" width="10" x="399.5396" y="96.5625"/><rect fill="#FFFFFF" height="182.6641" style="stroke:#181818;stroke-width:1.0;" width="10" x="404.5396" y="157.8281"/><rect fill="#FFFFFF" height="98.3984" style="stroke:#181818;stroke-width:1.0;" width="10" x="409.5396" y="199.9609"/><rect fill="#FFFFFF" height="29.1328" style="stroke:#181818;stroke-width:1.0;" width="10" x="399.5396" y="412.7578"/><rect fill="#FFFFFF" height="87.3984" style="stroke:#181818;stroke-width:1.0;" width="10" x="399.5396" y="471.0234"/><rect fill="#FFFFFF" height="29.1328" style="stroke:#181818;stroke-width:1.0;" width="10" x="680.7725" y="234.0938"/><rect fill="#FFFFFF" height="29.1328" style="stroke:#181818;stroke-width:1.0;" width="10" x="680.7725" y="500.1563"/><polygon fill="#181818" points="155.0591,63.4297,165.0591,67.4297,155.0591,71.4297,159.0591,67.4297" style="stroke:#181818;stroke-width:1.0;"/><line style="stroke:#181818;stroke-width:1.0;" x1="0" x2="161.0591" y1="67.4297" y2="67.4297"/><text fill="#000000" font-family="sans-serif" font-size="13" lengthAdjust="spacing" textLength="107.9546" x="7" y="62.3638">testSavePosition</text><text fill="#808080" font-family="sans-serif" font-size="13" lengthAdjust="spacing" textLength="31.8398" x="123.2192" y="62.3638">1 ms</text><polygon fill="#181818" points="387.5396,92.5625,397.5396,96.5625,387.5396,100.5625,391.5396,96.5625" style="stroke:#181818;stroke-width:1.0;"/><line style="stroke:#181818;stroke-width:1.0;" x1="177.0591" x2="393.5396" y1="96.5625" y2="96.5625"/><text fill="#000000" font-family="sans-serif" font-size="13" lengthAdjust="spacing" textLength="102.3433" x="184.0591" y="91.4966">initialLogImport</text><text fill="#808080" font-family="sans-serif" font-size="13" lengthAdjust="spacing" textLength="52.5142" x="294.667" y="91.4966">0.47 ms</text><path d="M335.7539,111.5625 L412.3779,111.5625 L412.3779,118.6953 L402.3779,128.6953 L335.7539,128.6953 L335.7539,111.5625 " fill="#EEEEEE" style="stroke:#000000;stroke-width:1.5;"/><rect fill="none" height="243.9297" style="stroke:#000000;stroke-width:1.5;" width="417.731" x="335.7539" y="111.5625"/><text fill="#000000" font-family="sans-serif" font-size="13" font-weight="bold" lengthAdjust="spacing" textLength="31.624" x="350.7539" y="124.6294">loop</text><text fill="#000000" font-family="sans-serif" font-size="11" font-weight="bold" lengthAdjust="spacing" textLength="51.0093" x="427.3779" y="123.7729">[3 times</text><text fill="#808080" font-family="sans-serif" font-size="11" font-weight="bold" lengthAdjust="spacing" textLength="56.6328" x="486.0464" y="123.7729">0.416 ms</text><text fill="#000000" font-family="sans-serif" font-size="11" font-weight="bold" lengthAdjust="spacing" textLength="5.0273" x="542.6792" y="123.7729">]</text><line style="stroke:#181818;stroke-width:1.0;" x1="409.5396" x2="456.5396" y1="144.8281" y2="144.8281"/><line style="stroke:#181818;stroke-width:1.0;" x1="456.5396" x2="456.5396" y1="144.8281" y2="157.8281"/><line style="stroke:#181818;stroke-width:1.0;" x1="415.5396" x2="456.5396" y1="157.8281" y2="157.8281"/><polygon fill="#181818" points="425.5396,153.8281,415.5396,157.8281,425.5396,161.8281,421.5396,157.8281" style="stroke:#181818;stroke-width:1.0;"/><text fill="#000000" font-family="sans-serif" font-size="13" lengthAdjust="spacing" textLength="79.8091" x="421.5396" y="139.7622">readJsonLog</text><text fill="#808080" font-family="sans-serif" font-size="13" lengthAdjust="spacing" textLength="60.7852" x="509.6133" y="139.7622">0.416 ms</text><line style="stroke:#181818;stroke-width:1.0;" x1="414.5396" x2="461.5396" y1="186.9609" y2="186.9609"/><line style="stroke:#181818;stroke-width:1.0;" x1="461.5396" x2="461.5396" y1="186.9609" y2="199.9609"/><line style="stroke:#181818;stroke-width:1.0;" x1="420.5396" x2="461.5396" y1="199.9609" y2="199.9609"/><polygon fill="#181818" points="430.5396,195.9609,420.5396,199.9609,430.5396,203.9609,426.5396,199.9609" style="stroke:#181818;stroke-width:1.0;"/><text fill="#000000" font-family="sans-serif" font-size="13" lengthAdjust="spacing" textLength="86.874" x="426.5396" y="181.895">parseLogLine</text><text fill="#808080" font-family="sans-serif" font-size="13" lengthAdjust="spacing" textLength="60.7852" x="521.6782" y="181.895">0.243 ms</text><polygon fill="#181818" points="668.7725,230.0938,678.7725,234.0938,668.7725,238.0938,672.7725,234.0938" style="stroke:#181818;stroke-width:1.0;"/><line style="stroke:#181818;stroke-width:1.0;" x1="419.5396" x2="674.7725" y1="234.0938" y2="234.0938"/><text fill="#000000" font-family="sans-serif" font-size="13" lengthAdjust="spacing" textLength="164.9121" x="426.5396" y="229.0278">enricherApplicationName</text><text fill="#808080" font-family="sans-serif" font-size="13" lengthAdjust="spacing" textLength="69.0562" x="599.7163" y="229.0278">0.0606 ms</text><polygon fill="#181818" points="430.5396,259.2266,420.5396,263.2266,430.5396,267.2266,426.5396,263.2266" style="stroke:#181818;stroke-width:1.0;"/><line style="stroke:#181818;stroke-width:1.0;stroke-dasharray:2.0,2.0;" x1="424.5396" x2="684.7725" y1="263.2266" y2="263.2266"/><text fill="#000000" font-family="sans-serif" font-size="13" lengthAdjust="spacing" textLength="27.5107" x="436.5396" y="258.1606">void</text><line style="stroke:#181818;stroke-width:1.0;stroke-dasharray:2.0,2.0;" x1="357.5396" x2="408.5396" y1="297.3594" y2="297.3594"/><line style="stroke:#181818;stroke-width:1.0;stroke-dasharray:2.0,2.0;" x1="357.5396" x2="357.5396" y1="297.3594" y2="310.3594"/><line style="stroke:#181818;stroke-width:1.0;stroke-dasharray:2.0,2.0;" x1="357.5396" x2="397.5396" y1="310.3594" y2="310.3594"/><polygon fill="#181818" points="387.5396,306.3594,397.5396,310.3594,387.5396,314.3594,391.5396,310.3594" style="stroke:#181818;stroke-width:1.0;"/><text fill="#000000" font-family="sans-serif" font-size="13" lengthAdjust="spacing" textLength="27.5107" x="356.5396" y="292.2935">void</text><line style="stroke:#181818;stroke-width:1.0;stroke-dasharray:2.0,2.0;" x1="357.5396" x2="403.5396" y1="339.4922" y2="339.4922"/><line style="stroke:#181818;stroke-width:1.0;stroke-dasharray:2.0,2.0;" x1="357.5396" x2="357.5396" y1="339.4922" y2="352.4922"/><line style="stroke:#181818;stroke-width:1.0;stroke-dasharray:2.0,2.0;" x1="357.5396" x2="397.5396" y1="352.4922" y2="352.4922"/><polygon fill="#181818" points="387.5396,348.4922,397.5396,352.4922,387.5396,356.4922,391.5396,352.4922" style="stroke:#181818;stroke-width:1.0;"/><text fill="#000000" font-family="sans-serif" font-size="13" lengthAdjust="spacing" textLength="27.5107" x="356.5396" y="334.4263">void</text><polygon fill="#181818" points="188.0591,379.625,178.0591,383.625,188.0591,387.625,184.0591,383.625" style="stroke:#181818;stroke-width:1.0;"/><line style="stroke:#181818;stroke-width:1.0;stroke-dasharray:2.0,2.0;" x1="182.0591" x2="403.5396" y1="383.625" y2="383.625"/><text fill="#000000" font-family="sans-serif" font-size="13" lengthAdjust="spacing" textLength="27.5107" x="194.0591" y="378.5591">void</text><polygon fill="#181818" points="387.5396,408.7578,397.5396,412.7578,387.5396,416.7578,391.5396,412.7578" style="stroke:#181818;stroke-width:1.0;"/><line style="stroke:#181818;stroke-width:1.0;" x1="177.0591" x2="393.5396" y1="412.7578" y2="412.7578"/><text fill="#000000" font-family="sans-serif" font-size="13" lengthAdjust="spacing" textLength="134.4307" x="184.0591" y="407.6919">saveLogFilesPosition</text><text fill="#808080" font-family="sans-serif" font-size="13" lengthAdjust="spacing" textLength="60.7852" x="326.7544" y="407.6919">0.117 ms</text><polygon fill="#181818" points="188.0591,437.8906,178.0591,441.8906,188.0591,445.8906,184.0591,441.8906" style="stroke:#181818;stroke-width:1.0;"/><line style="stroke:#181818;stroke-width:1.0;stroke-dasharray:2.0,2.0;" x1="182.0591" x2="403.5396" y1="441.8906" y2="441.8906"/><text fill="#000000" font-family="sans-serif" font-size="13" lengthAdjust="spacing" textLength="27.5107" x="194.0591" y="436.8247">void</text><polygon fill="#181818" points="387.5396,467.0234,397.5396,471.0234,387.5396,475.0234,391.5396,471.0234" style="stroke:#181818;stroke-width:1.0;"/><line style="stroke:#181818;stroke-width:1.0;" x1="177.0591" x2="393.5396" y1="471.0234" y2="471.0234"/><text fill="#000000" font-family="sans-serif" font-size="13" lengthAdjust="spacing" textLength="33.4839" x="184.0591" y="465.9575">close</text><text fill="#808080" font-family="sans-serif" font-size="13" lengthAdjust="spacing" textLength="69.0562" x="225.8076" y="465.9575">0.0387 ms</text><polygon fill="#181818" points="668.7725,496.1563,678.7725,500.1563,668.7725,504.1563,672.7725,500.1563" style="stroke:#181818;stroke-width:1.0;"/><line style="stroke:#181818;stroke-width:1.0;" x1="409.5396" x2="674.7725" y1="500.1563" y2="500.1563"/><text fill="#000000" font-family="sans-serif" font-size="13" lengthAdjust="spacing" textLength="33.4839" x="416.5396" y="495.0903">close</text><text fill="#808080" font-family="sans-serif" font-size="13" lengthAdjust="spacing" textLength="69.0562" x="458.2881" y="495.0903">0.0171 ms</text><polygon fill="#181818" points="420.5396,525.2891,410.5396,529.2891,420.5396,533.2891,416.5396,529.2891" style="stroke:#181818;stroke-width:1.0;"/><line style="stroke:#181818;stroke-width:1.0;stroke-dasharray:2.0,2.0;" x1="414.5396" x2="684.7725" y1="529.2891" y2="529.2891"/><text fill="#000000" font-family="sans-serif" font-size="13" lengthAdjust="spacing" textLength="27.5107" x="426.5396" y="524.2231">void</text><polygon fill="#181818" points="188.0591,554.4219,178.0591,558.4219,188.0591,562.4219,184.0591,558.4219" style="stroke:#181818;stroke-width:1.0;"/><line style="stroke:#181818;stroke-width:1.0;stroke-dasharray:2.0,2.0;" x1="182.0591" x2="403.5396" y1="558.4219" y2="558.4219"/><text fill="#000000" font-family="sans-serif" font-size="13" lengthAdjust="spacing" textLength="27.5107" x="194.0591" y="553.356">void</text><polygon fill="#181818" points="11,583.5547,1,587.5547,11,591.5547,7,587.5547" style="stroke:#181818;stroke-width:1.0;"/><line style="stroke:#181818;stroke-width:1.0;stroke-dasharray:2.0,2.0;" x1="5" x2="171.0591" y1="587.5547" y2="587.5547"/><text fill="#000000" font-family="sans-serif" font-size="13" lengthAdjust="spacing" textLength="27.5107" x="17" y="582.4888">void</text><!--SRC=[lPJ1QyCW5CRl_IiUlQUBIsb7A8KTEjWesw2xzIJ9QoOawbG2- -zdinrgD3Q1iaj8rFVzFittb5GPLZ19kO5teKsbyF1LlsZ1Fr0Re1hc_l1y9WVB0YNkyXrNhFXia9ktqwbRxOpCPm37PEj3Sp3sUQ0jsZbcc4Lj2b4BbLUAVc-1GACtTzt8rchGmh2M6Wpioiv2OBWFpO5now7rNbJFZHJAkC1qiLoxp45gDmUm5q921eOrg3qjikgB-JPzYmffUNwp7aSgnYsEOTg_gT42zunZ7tg_p4BGCLWVx0GZ1-m-KJrAMRE2dYFmIXlFGhfALs4F5ouSwOY9JPBqNBI2bKv1YLTLFSt-aVP4BoG7ZckQuZMz7Iy7cYAc75STqs3QThCDqXEhKOUxEbqGCgdB_diBHIsq7y7iOUBLS2NwOGfP4p_eqJ1E27SqrhSxvQDN-7lP_nKFbfvN_G00]--></g></svg>