<svg xmlns="http://www.w3.org/2000/svg" xmlns:xlink="http://www.w3.org/1999/xlink" contentStyleType="text/css" height="1082px" preserveAspectRatio="none" style="width:1575px;height:1082px;background:#FFFFFF;" version="1.1" viewBox="0 0 1575 1082" width="1575px" zoomAndPan="magnify"><defs/><g><rect fill="#FFFFFF" height="87.3984" style="stroke:#181818;stroke-width:1.0;" width="10" x="118.144" y="67.4297"/><rect fill="#FFFFFF" height="29.1328" style="stroke:#181818;stroke-width:1.0;" width="10" x="350.6245" y="96.5625"/><rect fill="#FFFFFF" height="122.5313" style="stroke:#181818;stroke-width:1.0;" width="10" x="350.6245" y="263.3594"/><rect fill="#FFFFFF" height="176.7969" style="stroke:#181818;stroke-width:1.0;" width="10" x="350.6245" y="706.3516"/><rect fill="#FFFFFF" height="87.3984" style="stroke:#181818;stroke-width:1.0;" width="10" x="350.6245" y="912.2813"/><rect fill="#FFFFFF" height="844.8516" style="stroke:#181818;stroke-width:1.0;" width="10" x="538.5508" y="183.9609"/><rect fill="#FFFFFF" height="29.1328" style="stroke:#181818;stroke-width:1.0;" width="10" x="818.0547" y="327.625"/><rect fill="#FFFFFF" height="29.1328" style="stroke:#181818;stroke-width:1.0;" width="10" x="818.0547" y="415.0234"/><rect fill="#FFFFFF" height="29.1328" style="stroke:#181818;stroke-width:1.0;" width="10" x="818.0547" y="497.4219"/><rect fill="#FFFFFF" height="29.1328" style="stroke:#181818;stroke-width:1.0;" width="10" x="818.0547" y="612.9531"/><rect fill="#FFFFFF" height="29.1328" style="stroke:#181818;stroke-width:1.0;" width="10" x="818.0547" y="759.6172"/><rect fill="#FFFFFF" height="29.1328" style="stroke:#181818;stroke-width:1.0;" width="10" x="818.0547" y="824.8828"/><rect fill="#FFFFFF" height="29.1328" style="stroke:#181818;stroke-width:1.0;" width="10" x="818.0547" y="941.4141"/><rect fill="none" height="75.3984" style="stroke:#000000;stroke-width:1.5;" width="460.5107" x="458.6768" y="459.1563"/><rect fill="none" height="75.3984" style="stroke:#000000;stroke-width:1.5;" width="632.3486" x="286.8389" y="721.3516"/><line style="stroke:#181818;stroke-width:0.5;stroke-dasharray:5.0,5.0;" x1="122.4512" x2="122.4512" y1="36.2969" y2="1046.8125"/><line style="stroke:#181818;stroke-width:0.5;stroke-dasharray:5.0,5.0;" x1="354.8389" x2="354.8389" y1="36.2969" y2="1046.8125"/><line style="stroke:#181818;stroke-width:0.5;stroke-dasharray:5.0,5.0;" x1="542.6768" x2="542.6768" y1="36.2969" y2="1046.8125"/><line style="stroke:#181818;stroke-width:0.5;stroke-dasharray:5.0,5.0;" x1="822.9219" x2="822.9219" y1="36.2969" y2="1046.8125"/><line style="stroke:#181818;stroke-width:0.5;stroke-dasharray:5.0,5.0;" x1="996.2056" x2="996.2056" y1="36.2969" y2="1046.8125"/><rect fill="#E2E2F0" height="30.2969" rx="2.5" ry="2.5" style="stroke:#181818;stroke-width:0.5;" width="135.3857" x="55.4512" y="5"/><text fill="#000000" font-family="sans-serif" font-size="14" lengthAdjust="spacing" textLength="121.3857" x="62.4512" y="24.9951">PostgreSqlJson$2</text><rect fill="#E2E2F0" height="30.2969" rx="2.5" ry="2.5" style="stroke:#181818;stroke-width:0.5;" width="135.3857" x="55.4512" y="1045.8125"/><text fill="#000000" font-family="sans-serif" font-size="14" lengthAdjust="spacing" textLength="121.3857" x="62.4512" y="1065.8076">PostgreSqlJson$2</text><rect fill="#E2E2F0" height="30.2969" rx="2.5" ry="2.5" style="stroke:#181818;stroke-width:0.5;" width="117.5713" x="296.8389" y="5"/><text fill="#000000" font-family="sans-serif" font-size="14" lengthAdjust="spacing" textLength="103.5713" x="303.8389" y="24.9951">PostgreSqlJson</text><rect fill="#E2E2F0" height="30.2969" rx="2.5" ry="2.5" style="stroke:#181818;stroke-width:0.5;" width="117.5713" x="296.8389" y="1045.8125"/><text fill="#000000" font-family="sans-serif" font-size="14" lengthAdjust="spacing" textLength="103.5713" x="303.8389" y="1065.8076">PostgreSqlJson</text><rect fill="#E2E2F0" height="30.2969" rx="2.5" ry="2.5" style="stroke:#181818;stroke-width:0.5;" width="149.748" x="468.6768" y="5"/><text fill="#000000" font-family="sans-serif" font-size="14" lengthAdjust="spacing" textLength="135.748" x="475.6768" y="24.9951">LogEnrichmentTest</text><rect fill="#E2E2F0" height="30.2969" rx="2.5" ry="2.5" style="stroke:#181818;stroke-width:0.5;" width="149.748" x="468.6768" y="1045.8125"/><text fill="#000000" font-family="sans-serif" font-size="14" lengthAdjust="spacing" textLength="135.748" x="475.6768" y="1065.8076">LogEnrichmentTest</text><rect fill="#E2E2F0" height="30.2969" rx="2.5" ry="2.5" style="stroke:#181818;stroke-width:0.5;" width="172.2656" x="736.9219" y="5"/><text fill="#000000" font-family="sans-serif" font-size="14" lengthAdjust="spacing" textLength="158.2656" x="743.9219" y="24.9951">LogEnricherPostgreSql</text><rect fill="#E2E2F0" height="30.2969" rx="2.5" ry="2.5" style="stroke:#181818;stroke-width:0.5;" width="172.2656" x="736.9219" y="1045.8125"/><text fill="#000000" font-family="sans-serif" font-size="14" lengthAdjust="spacing" textLength="158.2656" x="743.9219" y="1065.8076">LogEnricherPostgreSql</text><rect fill="#E2E2F0" height="30.2969" rx="2.5" ry="2.5" style="stroke:#181818;stroke-width:0.5;" width="80.8008" x="956.2056" y="5"/><text fill="#000000" font-family="sans-serif" font-size="14" lengthAdjust="spacing" textLength="66.8008" x="963.2056" y="24.9951">Database</text><rect fill="#E2E2F0" height="30.2969" rx="2.5" ry="2.5" style="stroke:#181818;stroke-width:0.5;" width="80.8008" x="956.2056" y="1045.8125"/><text fill="#000000" font-family="sans-serif" font-size="14" lengthAdjust="spacing" textLength="66.8008" x="963.2056" y="1065.8076">Database</text><rect fill="#FFFFFF" height="87.3984" style="stroke:#181818;stroke-width:1.0;" width="10" x="118.144" y="67.4297"/><rect fill="#FFFFFF" height="29.1328" style="stroke:#181818;stroke-width:1.0;" width="10" x="350.6245" y="96.5625"/><rect fill="#FFFFFF" height="122.5313" style="stroke:#181818;stroke-width:1.0;" width="10" x="350.6245" y="263.3594"/><rect fill="#FFFFFF" height="176.7969" style="stroke:#181818;stroke-width:1.0;" width="10" x="350.6245" y="706.3516"/><rect fill="#FFFFFF" height="87.3984" style="stroke:#181818;stroke-width:1.0;" width="10" x="350.6245" y="912.2813"/><rect fill="#FFFFFF" height="844.8516" style="stroke:#181818;stroke-width:1.0;" width="10" x="538.5508" y="183.9609"/><rect fill="#FFFFFF" height="29.1328" style="stroke:#181818;stroke-width:1.0;" width="10" x="818.0547" y="327.625"/><rect fill="#FFFFFF" height="29.1328" style="stroke:#181818;stroke-width:1.0;" width="10" x="818.0547" y="415.0234"/><rect fill="#FFFFFF" height="29.1328" style="stroke:#181818;stroke-width:1.0;" width="10" x="818.0547" y="497.4219"/><rect fill="#FFFFFF" height="29.1328" style="stroke:#181818;stroke-width:1.0;" width="10" x="818.0547" y="612.9531"/><rect fill="#FFFFFF" height="29.1328" style="stroke:#181818;stroke-width:1.0;" width="10" x="818.0547" y="759.6172"/><rect fill="#FFFFFF" height="29.1328" style="stroke:#181818;stroke-width:1.0;" width="10" x="818.0547" y="824.8828"/><rect fill="#FFFFFF" height="29.1328" style="stroke:#181818;stroke-width:1.0;" width="10" x="818.0547" y="941.4141"/><polygon fill="#181818" points="106.144,63.4297,116.144,67.4297,106.144,71.4297,110.144,67.4297" style="stroke:#181818;stroke-width:1.0;"/><line style="stroke:#181818;stroke-width:1.0;" x1="0" x2="112.144" y1="67.4297" y2="67.4297"/><text fill="#000000" font-family="sans-serif" font-size="13" lengthAdjust="spacing" textLength="21.8232" x="7" y="62.3638">run</text><text fill="#808080" font-family="sans-serif" font-size="13" lengthAdjust="spacing" textLength="69.0562" x="37.0879" y="62.3638">0.0879 ms</text><polygon fill="#181818" points="338.6245,92.5625,348.6245,96.5625,338.6245,100.5625,342.6245,96.5625" style="stroke:#181818;stroke-width:1.0;"/><line style="stroke:#181818;stroke-width:1.0;" x1="128.144" x2="344.6245" y1="96.5625" y2="96.5625"/><text fill="#000000" font-family="sans-serif" font-size="13" lengthAdjust="spacing" textLength="134.4307" x="135.144" y="91.4966">saveLogFilesPosition</text><text fill="#808080" font-family="sans-serif" font-size="13" lengthAdjust="spacing" textLength="60.7852" x="277.8394" y="91.4966">0.067 ms</text><polygon fill="#181818" points="139.144,121.6953,129.144,125.6953,139.144,129.6953,135.144,125.6953" style="stroke:#181818;stroke-width:1.0;"/><line style="stroke:#181818;stroke-width:1.0;stroke-dasharray:2.0,2.0;" x1="133.144" x2="354.6245" y1="125.6953" y2="125.6953"/><text fill="#000000" font-family="sans-serif" font-size="13" lengthAdjust="spacing" textLength="27.5107" x="145.144" y="120.6294">void</text><polygon fill="#181818" points="11,150.8281,1,154.8281,11,158.8281,7,154.8281" style="stroke:#181818;stroke-width:1.0;"/><line style="stroke:#181818;stroke-width:1.0;stroke-dasharray:2.0,2.0;" x1="5" x2="122.144" y1="154.8281" y2="154.8281"/><text fill="#000000" font-family="sans-serif" font-size="13" lengthAdjust="spacing" textLength="27.5107" x="17" y="149.7622">void</text><polygon fill="#181818" points="526.5508,179.9609,536.5508,183.9609,526.5508,187.9609,530.5508,183.9609" style="stroke:#181818;stroke-width:1.0;"/><line style="stroke:#181818;stroke-width:1.0;" x1="0" x2="532.5508" y1="183.9609" y2="183.9609"/><text fill="#000000" font-family="sans-serif" font-size="13" lengthAdjust="spacing" textLength="316.5259" x="7" y="178.895">initLogEnricherWithDbHostWithPgStatStatement</text><text fill="#808080" font-family="sans-serif" font-size="13" lengthAdjust="spacing" textLength="48.3818" x="331.7905" y="178.895">137 ms</text><polygon fill="#181818" points="984.606,219.6602,994.606,223.6602,984.606,227.6602,988.606,223.6602" style="stroke:#181818;stroke-width:1.0;"/><line style="stroke:#181818;stroke-width:1.0;" x1="548.5508" x2="990.606" y1="223.6602" y2="223.6602"/><text fill="#000000" font-family="sans-serif" font-size="13" lengthAdjust="spacing" textLength="349.4004" x="555.5508" y="218.5942">CREATE TABLE pg_stat_statements(queryid bigint, qu</text><text fill="#808080" font-family="sans-serif" font-size="13" lengthAdjust="spacing" textLength="60.7852" x="913.2158" y="218.5942">0.595 ms</text><path d="M1001,196.9609 L1001,236.9609 L1500,236.9609 L1500,206.9609 L1490,196.9609 L1001,196.9609 " fill="#FEFFDD" style="stroke:#181818;stroke-width:0.5;"/><path d="M1490,196.9609 L1490,206.9609 L1500,206.9609 L1490,196.9609 " fill="#FEFFDD" style="stroke:#181818;stroke-width:0.5;"/><text fill="#000000" font-family="sans-serif" font-size="13" lengthAdjust="spacing" textLength="478.2451" x="1007" y="214.0278">CREATE TABLE pg_stat_statements(queryid bigint, query text) /* emulate</text><text fill="#000000" font-family="sans-serif" font-size="13" lengthAdjust="spacing" textLength="143.1523" x="1007" y="229.1606">pg_stat_statements */</text><polygon fill="#181818" points="371.6245,259.3594,361.6245,263.3594,371.6245,267.3594,367.6245,263.3594" style="stroke:#181818;stroke-width:1.0;"/><line style="stroke:#181818;stroke-width:1.0;" x1="365.6245" x2="537.5508" y1="263.3594" y2="263.3594"/><text fill="#000000" font-family="sans-serif" font-size="13" lengthAdjust="spacing" textLength="98.1475" x="377.6245" y="258.2935">initLogEnricher</text><text fill="#808080" font-family="sans-serif" font-size="13" lengthAdjust="spacing" textLength="52.5142" x="484.0366" y="258.2935">20.6 ms</text><polygon fill="#181818" points="984.606,291.4922,994.606,295.4922,984.606,299.4922,988.606,295.4922" style="stroke:#181818;stroke-width:1.0;"/><line style="stroke:#181818;stroke-width:1.0;" x1="360.6245" x2="990.606" y1="295.4922" y2="295.4922"/><text fill="#000000" font-family="sans-serif" font-size="13" lengthAdjust="spacing" textLength="345.0967" x="367.6245" y="290.4263">select query from pg_stat_statements where queryid</text><text fill="#808080" font-family="sans-serif" font-size="13" lengthAdjust="spacing" textLength="52.5142" x="720.9858" y="290.4263">3.45 ms</text><path d="M1001,276.3594 L1001,301.3594 L1384,301.3594 L1384,286.3594 L1374,276.3594 L1001,276.3594 " fill="#FEFFDD" style="stroke:#181818;stroke-width:0.5;"/><path d="M1374,276.3594 L1374,286.3594 L1384,286.3594 L1374,276.3594 " fill="#FEFFDD" style="stroke:#181818;stroke-width:0.5;"/><text fill="#000000" font-family="sans-serif" font-size="13" lengthAdjust="spacing" textLength="362.8892" x="1007" y="293.4263">select query from pg_stat_statements where queryid=?</text><polygon fill="#181818" points="806.0547,323.625,816.0547,327.625,806.0547,331.625,810.0547,327.625" style="stroke:#181818;stroke-width:1.0;"/><line style="stroke:#181818;stroke-width:1.0;" x1="360.6245" x2="812.0547" y1="327.625" y2="327.625"/><text fill="#000000" font-family="sans-serif" font-size="13" lengthAdjust="spacing" textLength="89.7559" x="367.6245" y="322.5591">getStatement</text><text fill="#808080" font-family="sans-serif" font-size="13" lengthAdjust="spacing" textLength="52.5142" x="465.645" y="322.5591">1.99 ms</text><polygon fill="#181818" points="371.6245,352.7578,361.6245,356.7578,371.6245,360.7578,367.6245,356.7578" style="stroke:#181818;stroke-width:1.0;"/><line style="stroke:#181818;stroke-width:1.0;stroke-dasharray:2.0,2.0;" x1="365.6245" x2="822.0547" y1="356.7578" y2="356.7578"/><text fill="#000000" font-family="sans-serif" font-size="13" lengthAdjust="spacing" textLength="27.5107" x="377.6245" y="351.6919">void</text><polygon fill="#181818" points="526.5508,381.8906,536.5508,385.8906,526.5508,389.8906,530.5508,385.8906" style="stroke:#181818;stroke-width:1.0;"/><line style="stroke:#181818;stroke-width:1.0;stroke-dasharray:2.0,2.0;" x1="355.6245" x2="532.5508" y1="385.8906" y2="385.8906"/><text fill="#000000" font-family="sans-serif" font-size="13" lengthAdjust="spacing" textLength="27.5107" x="362.6245" y="380.8247">void</text><polygon fill="#181818" points="806.0547,411.0234,816.0547,415.0234,806.0547,419.0234,810.0547,415.0234" style="stroke:#181818;stroke-width:1.0;"/><line style="stroke:#181818;stroke-width:1.0;" x1="548.5508" x2="812.0547" y1="415.0234" y2="415.0234"/><text fill="#000000" font-family="sans-serif" font-size="13" lengthAdjust="spacing" textLength="164.9121" x="555.5508" y="409.9575">enricherApplicationName</text><text fill="#808080" font-family="sans-serif" font-size="13" lengthAdjust="spacing" textLength="77.3271" x="728.7275" y="409.9575">0.00845 ms</text><polygon fill="#181818" points="559.5508,440.1563,549.5508,444.1563,559.5508,448.1563,555.5508,444.1563" style="stroke:#181818;stroke-width:1.0;"/><line style="stroke:#181818;stroke-width:1.0;stroke-dasharray:2.0,2.0;" x1="553.5508" x2="822.0547" y1="444.1563" y2="444.1563"/><text fill="#000000" font-family="sans-serif" font-size="13" lengthAdjust="spacing" textLength="37.3179" x="565.5508" y="439.0903">string</text><path d="M458.6768,459.1563 L535.3008,459.1563 L535.3008,466.2891 L525.3008,476.2891 L458.6768,476.2891 L458.6768,459.1563 " fill="#EEEEEE" style="stroke:#000000;stroke-width:1.5;"/><rect fill="none" height="75.3984" style="stroke:#000000;stroke-width:1.5;" width="460.5107" x="458.6768" y="459.1563"/><text fill="#000000" font-family="sans-serif" font-size="13" font-weight="bold" lengthAdjust="spacing" textLength="31.624" x="473.6768" y="472.2231">loop</text><text fill="#000000" font-family="sans-serif" font-size="11" font-weight="bold" lengthAdjust="spacing" textLength="51.0093" x="550.3008" y="471.3667">[5 times</text><text fill="#808080" font-family="sans-serif" font-size="11" font-weight="bold" lengthAdjust="spacing" textLength="48.979" x="608.9692" y="471.3667">4.53 ms</text><text fill="#000000" font-family="sans-serif" font-size="11" font-weight="bold" lengthAdjust="spacing" textLength="5.0273" x="657.9482" y="471.3667">]</text><polygon fill="#181818" points="806.0547,493.4219,816.0547,497.4219,806.0547,501.4219,810.0547,497.4219" style="stroke:#181818;stroke-width:1.0;"/><line style="stroke:#181818;stroke-width:1.0;" x1="548.5508" x2="812.0547" y1="497.4219" y2="497.4219"/><text fill="#000000" font-family="sans-serif" font-size="13" lengthAdjust="spacing" textLength="89.7559" x="555.5508" y="492.356">getStatement</text><text fill="#808080" font-family="sans-serif" font-size="13" lengthAdjust="spacing" textLength="52.5142" x="653.5713" y="492.356">4.53 ms</text><polygon fill="#181818" points="559.5508,522.5547,549.5508,526.5547,559.5508,530.5547,555.5508,526.5547" style="stroke:#181818;stroke-width:1.0;"/><line style="stroke:#181818;stroke-width:1.0;stroke-dasharray:2.0,2.0;" x1="553.5508" x2="822.0547" y1="526.5547" y2="526.5547"/><text fill="#000000" font-family="sans-serif" font-size="13" lengthAdjust="spacing" textLength="27.5107" x="565.5508" y="521.4888">void</text><polygon fill="#181818" points="984.606,569.2539,994.606,573.2539,984.606,577.2539,988.606,573.2539" style="stroke:#181818;stroke-width:1.0;"/><line style="stroke:#181818;stroke-width:1.0;" x1="548.5508" x2="990.606" y1="573.2539" y2="573.2539"/><text fill="#000000" font-family="sans-serif" font-size="13" lengthAdjust="spacing" textLength="355.0054" x="555.5508" y="568.188">INSERT INTO pg_stat_statements(queryid,query) VALU</text><text fill="#808080" font-family="sans-serif" font-size="13" lengthAdjust="spacing" textLength="60.7852" x="918.8208" y="568.188">0.498 ms</text><path d="M1001,546.5547 L1001,586.5547 L1486,586.5547 L1486,556.5547 L1476,546.5547 L1001,546.5547 " fill="#FEFFDD" style="stroke:#181818;stroke-width:0.5;"/><path d="M1476,546.5547 L1476,556.5547 L1486,556.5547 L1476,546.5547 " fill="#FEFFDD" style="stroke:#181818;stroke-width:0.5;"/><text fill="#000000" font-family="sans-serif" font-size="13" lengthAdjust="spacing" textLength="464.2231" x="1007" y="563.6216">INSERT INTO pg_stat_statements(queryid,query) VALUES (1024, 'select</text><text fill="#000000" font-family="sans-serif" font-size="13" lengthAdjust="spacing" textLength="282.2739" x="1007" y="578.7544">version()')/* emulate pg_stat_statements */</text><polygon fill="#181818" points="806.0547,608.9531,816.0547,612.9531,806.0547,616.9531,810.0547,612.9531" style="stroke:#181818;stroke-width:1.0;"/><line style="stroke:#181818;stroke-width:1.0;" x1="548.5508" x2="812.0547" y1="612.9531" y2="612.9531"/><text fill="#000000" font-family="sans-serif" font-size="13" lengthAdjust="spacing" textLength="89.7559" x="555.5508" y="607.8872">getStatement</text><text fill="#808080" font-family="sans-serif" font-size="13" lengthAdjust="spacing" textLength="52.5142" x="653.5713" y="607.8872">4.54 ms</text><polygon fill="#181818" points="559.5508,638.0859,549.5508,642.0859,559.5508,646.0859,555.5508,642.0859" style="stroke:#181818;stroke-width:1.0;"/><line style="stroke:#181818;stroke-width:1.0;stroke-dasharray:2.0,2.0;" x1="553.5508" x2="822.0547" y1="642.0859" y2="642.0859"/><text fill="#000000" font-family="sans-serif" font-size="13" lengthAdjust="spacing" textLength="37.3179" x="565.5508" y="637.02">string</text><polygon fill="#181818" points="984.606,670.2188,994.606,674.2188,984.606,678.2188,988.606,674.2188" style="stroke:#181818;stroke-width:1.0;"/><line style="stroke:#181818;stroke-width:1.0;" x1="548.5508" x2="990.606" y1="674.2188" y2="674.2188"/><text fill="#000000" font-family="sans-serif" font-size="13" lengthAdjust="spacing" textLength="355.0054" x="555.5508" y="669.1528">INSERT INTO pg_stat_statements(queryid,query) VALU</text><text fill="#808080" font-family="sans-serif" font-size="13" lengthAdjust="spacing" textLength="60.7852" x="918.8208" y="669.1528">0.176 ms</text><path d="M1001,655.0859 L1001,680.0859 L1568,680.0859 L1568,665.0859 L1558,655.0859 L1001,655.0859 " fill="#FEFFDD" style="stroke:#181818;stroke-width:0.5;"/><path d="M1558,655.0859 L1558,665.0859 L1568,665.0859 L1558,655.0859 " fill="#FEFFDD" style="stroke:#181818;stroke-width:0.5;"/><text fill="#000000" font-family="sans-serif" font-size="13" lengthAdjust="spacing" textLength="546.6475" x="1007" y="672.1528">INSERT INTO pg_stat_statements(queryid,query) VALUES (-3416356442043621232,</text><polygon fill="#181818" points="371.6245,702.3516,361.6245,706.3516,371.6245,710.3516,367.6245,706.3516" style="stroke:#181818;stroke-width:1.0;"/><line style="stroke:#181818;stroke-width:1.0;" x1="365.6245" x2="537.5508" y1="706.3516" y2="706.3516"/><text fill="#000000" font-family="sans-serif" font-size="13" lengthAdjust="spacing" textLength="86.874" x="377.6245" y="701.2856">parseLogLine</text><text fill="#808080" font-family="sans-serif" font-size="13" lengthAdjust="spacing" textLength="52.5142" x="472.7632" y="701.2856">4.85 ms</text><path d="M286.8389,721.3516 L363.4629,721.3516 L363.4629,728.4844 L353.4629,738.4844 L286.8389,738.4844 L286.8389,721.3516 " fill="#EEEEEE" style="stroke:#000000;stroke-width:1.5;"/><rect fill="none" height="75.3984" style="stroke:#000000;stroke-width:1.5;" width="632.3486" x="286.8389" y="721.3516"/><text fill="#000000" font-family="sans-serif" font-size="13" font-weight="bold" lengthAdjust="spacing" textLength="31.624" x="301.8389" y="734.4185">loop</text><text fill="#000000" font-family="sans-serif" font-size="11" font-weight="bold" lengthAdjust="spacing" textLength="51.0093" x="378.4629" y="733.562">[3 times</text><text fill="#808080" font-family="sans-serif" font-size="11" font-weight="bold" lengthAdjust="spacing" textLength="64.2866" x="437.1313" y="733.562">0.0535 ms</text><text fill="#000000" font-family="sans-serif" font-size="11" font-weight="bold" lengthAdjust="spacing" textLength="5.0273" x="501.418" y="733.562">]</text><polygon fill="#181818" points="806.0547,755.6172,816.0547,759.6172,806.0547,763.6172,810.0547,759.6172" style="stroke:#181818;stroke-width:1.0;"/><line style="stroke:#181818;stroke-width:1.0;" x1="360.6245" x2="812.0547" y1="759.6172" y2="759.6172"/><text fill="#000000" font-family="sans-serif" font-size="13" lengthAdjust="spacing" textLength="164.9121" x="367.6245" y="754.5513">enricherApplicationName</text><text fill="#808080" font-family="sans-serif" font-size="13" lengthAdjust="spacing" textLength="69.0562" x="540.8013" y="754.5513">0.0535 ms</text><polygon fill="#181818" points="371.6245,784.75,361.6245,788.75,371.6245,792.75,367.6245,788.75" style="stroke:#181818;stroke-width:1.0;"/><line style="stroke:#181818;stroke-width:1.0;stroke-dasharray:2.0,2.0;" x1="365.6245" x2="822.0547" y1="788.75" y2="788.75"/><text fill="#000000" font-family="sans-serif" font-size="13" lengthAdjust="spacing" textLength="37.3179" x="377.6245" y="783.6841">string</text><polygon fill="#181818" points="806.0547,820.8828,816.0547,824.8828,806.0547,828.8828,810.0547,824.8828" style="stroke:#181818;stroke-width:1.0;"/><line style="stroke:#181818;stroke-width:1.0;" x1="360.6245" x2="812.0547" y1="824.8828" y2="824.8828"/><text fill="#000000" font-family="sans-serif" font-size="13" lengthAdjust="spacing" textLength="89.7559" x="367.6245" y="819.8169">getStatement</text><text fill="#808080" font-family="sans-serif" font-size="13" lengthAdjust="spacing" textLength="52.5142" x="465.645" y="819.8169">4.45 ms</text><polygon fill="#181818" points="371.6245,850.0156,361.6245,854.0156,371.6245,858.0156,367.6245,854.0156" style="stroke:#181818;stroke-width:1.0;"/><line style="stroke:#181818;stroke-width:1.0;stroke-dasharray:2.0,2.0;" x1="365.6245" x2="822.0547" y1="854.0156" y2="854.0156"/><text fill="#000000" font-family="sans-serif" font-size="13" lengthAdjust="spacing" textLength="37.3179" x="377.6245" y="848.9497">string</text><polygon fill="#181818" points="526.5508,879.1484,536.5508,883.1484,526.5508,887.1484,530.5508,883.1484" style="stroke:#181818;stroke-width:1.0;"/><line style="stroke:#181818;stroke-width:1.0;stroke-dasharray:2.0,2.0;" x1="355.6245" x2="532.5508" y1="883.1484" y2="883.1484"/><text fill="#000000" font-family="sans-serif" font-size="13" lengthAdjust="spacing" textLength="27.5107" x="362.6245" y="878.0825">void</text><polygon fill="#181818" points="371.6245,908.2813,361.6245,912.2813,371.6245,916.2813,367.6245,912.2813" style="stroke:#181818;stroke-width:1.0;"/><line style="stroke:#181818;stroke-width:1.0;" x1="365.6245" x2="537.5508" y1="912.2813" y2="912.2813"/><text fill="#000000" font-family="sans-serif" font-size="13" lengthAdjust="spacing" textLength="33.4839" x="377.6245" y="907.2153">close</text><text fill="#808080" font-family="sans-serif" font-size="13" lengthAdjust="spacing" textLength="60.7852" x="419.373" y="907.2153">0.181 ms</text><polygon fill="#181818" points="806.0547,937.4141,816.0547,941.4141,806.0547,945.4141,810.0547,941.4141" style="stroke:#181818;stroke-width:1.0;"/><line style="stroke:#181818;stroke-width:1.0;" x1="360.6245" x2="812.0547" y1="941.4141" y2="941.4141"/><text fill="#000000" font-family="sans-serif" font-size="13" lengthAdjust="spacing" textLength="33.4839" x="367.6245" y="936.3481">close</text><text fill="#808080" font-family="sans-serif" font-size="13" lengthAdjust="spacing" textLength="60.7852" x="409.373" y="936.3481">0.152 ms</text><polygon fill="#181818" points="371.6245,966.5469,361.6245,970.5469,371.6245,974.5469,367.6245,970.5469" style="stroke:#181818;stroke-width:1.0;"/><line style="stroke:#181818;stroke-width:1.0;stroke-dasharray:2.0,2.0;" x1="365.6245" x2="822.0547" y1="970.5469" y2="970.5469"/><text fill="#000000" font-family="sans-serif" font-size="13" lengthAdjust="spacing" textLength="27.5107" x="377.6245" y="965.481">void</text><polygon fill="#181818" points="526.5508,995.6797,536.5508,999.6797,526.5508,1003.6797,530.5508,999.6797" style="stroke:#181818;stroke-width:1.0;"/><line style="stroke:#181818;stroke-width:1.0;stroke-dasharray:2.0,2.0;" x1="355.6245" x2="532.5508" y1="999.6797" y2="999.6797"/><text fill="#000000" font-family="sans-serif" font-size="13" lengthAdjust="spacing" textLength="27.5107" x="362.6245" y="994.6138">void</text><polygon fill="#181818" points="11,1024.8125,1,1028.8125,11,1032.8125,7,1028.8125" style="stroke:#181818;stroke-width:1.0;"/><line style="stroke:#181818;stroke-width:1.0;stroke-dasharray:2.0,2.0;" x1="5" x2="542.5508" y1="1028.8125" y2="1028.8125"/><text fill="#000000" font-family="sans-serif" font-size="13" lengthAdjust="spacing" textLength="27.5107" x="17" y="1023.7466">void</text><!--SRC=[tLVRZjem47tFLupGIi2AMsxSHAdeRbPjXUXgeUq33oiJt60f9DdOqExVrwHGS1nl4qgbLHyWYUEPCtDcVEn4A6R49H4A6Do7b7andZxv7saOF1g0A9J4mIkZf4LAamm3SVeuz9mW9kvgZGCsmvGb5jAemWZ7Hz-YuUaRqVWMCRH052Vp3myb3M1U7wRpxKEy2M3WXduOzxqOFG-XrMXrEprOqq4p6HvoI-GoiaKCItpnTo0Dfc7wGD4MyyZlY8yfVqSO2MNKTaS4LS9cWWxgzJJgDYJBPEuIgptD9SCTAtjJfM6IEUTJgcCVI43OIPM-4hQwNRpdrhkxUs_A4DlzyCv2v40tEmhQ9PWaBMcqFZoKkmyt3yvevi1iz6xiGEGzKewP_2N0jFAqmV4pMSA2U2HWDNZQf0jYz-nqGIOX3oOcteffnVtpPs3u1wj2ynhmUkFpkPfi2TVD1Ci9bX1mF5MgwMgdU1UpCLgDTf7kIlVNARCK-zXb-uI-nU4w8ttupaF0S211YCLiM1An0hN50TwytNiHI9EJo5IFFdXOsPADNa-ELUxBKt-Ps7oLAS1_hr9XkQazIwrmxihFx2f5a7W_DeeYdxXefryJjCQIXhMwSctFp4aH2MKn2Joj05rX13OmiiPK3DTgsAPSs_oSgBicstEkhYd0HD76uMlZpxBvOJ9r7cRyCllqWghLaciLlep6dzCzOFMwByXcSV_E52fwox1gKFub3DeMnvGtOALQhXwL5CvNqdFgQxssBl-dDTKxxOlNj6vQUjkqsvPbj2opRUY6QTIqyjGPEpUpn8-FSLIvqYzLvhH8yZCZtPtAnYJ0wVfsxMAxPQ8oPfRAS56qpOpzBlVcb5Tw5IYvL2V_RdNIcBcRyoWz5zYHhSpJmqLtP277Lx0dfpsvVaYb-kjT_UyEU0eoii5iutyz5SrFOpf-rSWVHDAadm00]--></g></svg>