<svg xmlns="http://www.w3.org/2000/svg" xmlns:xlink="http://www.w3.org/1999/xlink" contentStyleType="text/css" height="459px" preserveAspectRatio="none" style="width:748px;height:459px;background:#000000;" version="1.1" viewBox="0 0 748 459" width="748px" zoomAndPan="magnify"><defs/><g><rect fill="none" height="314.7188" style="stroke:#999999;stroke-width:1.0;" width="10" x="153.7109" y="83.9375"/><rect fill="none" height="238.7813" style="stroke:#999999;stroke-width:1.0;" width="10" x="369.3213" y="121.9063"/><rect fill="none" height="37.9688" style="stroke:#999999;stroke-width:1.0;" width="10" x="631.9209" y="201.8125"/><rect fill="none" height="37.9688" style="stroke:#999999;stroke-width:1.0;" width="10" x="631.9209" y="284.75"/><rect fill="none" height="110.875" rx="4" ry="4" style="stroke:#4362B1;stroke-width:1.5;" width="474.4551" x="267.9336" y="136.9063"/><line style="stroke:#999999;stroke-width:0.5;stroke-dasharray:5.0,5.0;" x1="158.4883" x2="158.4883" y1="43.9688" y2="416.6563"/><line style="stroke:#999999;stroke-width:0.5;stroke-dasharray:5.0,5.0;" x1="373.9336" x2="373.9336" y1="43.9688" y2="416.6563"/><line style="stroke:#999999;stroke-width:0.5;stroke-dasharray:5.0,5.0;" x1="636.4531" x2="636.4531" y1="43.9688" y2="416.6563"/><rect fill="#555555" height="37.9688" rx="4" ry="4" style="stroke:#555555;stroke-width:1.0;" width="138.4453" x="89.4883" y="5"/><text fill="#FFFFFF" font-family="Verdana" font-size="12" lengthAdjust="spacing" textLength="114.4453" x="101.4883" y="28.1387">PostgreSqlJsonTest</text><rect fill="#555555" height="37.9688" rx="4" ry="4" style="stroke:#555555;stroke-width:1.0;" width="138.4453" x="89.4883" y="415.6563"/><text fill="#FFFFFF" font-family="Verdana" font-size="12" lengthAdjust="spacing" textLength="114.4453" x="101.4883" y="438.7949">PostgreSqlJsonTest</text><rect fill="#555555" height="37.9688" rx="4" ry="4" style="stroke:#555555;stroke-width:1.0;" width="112.7754" x="317.9336" y="5"/><text fill="#FFFFFF" font-family="Verdana" font-size="12" lengthAdjust="spacing" textLength="88.7754" x="329.9336" y="28.1387">PostgreSqlJson</text><rect fill="#555555" height="37.9688" rx="4" ry="4" style="stroke:#555555;stroke-width:1.0;" width="112.7754" x="317.9336" y="415.6563"/><text fill="#FFFFFF" font-family="Verdana" font-size="12" lengthAdjust="spacing" textLength="88.7754" x="329.9336" y="438.7949">PostgreSqlJson</text><rect fill="#555555" height="37.9688" rx="4" ry="4" style="stroke:#555555;stroke-width:1.0;" width="110.9355" x="581.4531" y="5"/><text fill="#FFFFFF" font-family="Verdana" font-size="12" lengthAdjust="spacing" textLength="86.9355" x="593.4531" y="28.1387">EnrichmentOff</text><rect fill="#555555" height="37.9688" rx="4" ry="4" style="stroke:#555555;stroke-width:1.0;" width="110.9355" x="581.4531" y="415.6563"/><text fill="#FFFFFF" font-family="Verdana" font-size="12" lengthAdjust="spacing" textLength="86.9355" x="593.4531" y="438.7949">EnrichmentOff</text><rect fill="none" height="314.7188" style="stroke:#999999;stroke-width:1.0;" width="10" x="153.7109" y="83.9375"/><rect fill="none" height="238.7813" style="stroke:#999999;stroke-width:1.0;" width="10" x="369.3213" y="121.9063"/><rect fill="none" height="37.9688" style="stroke:#999999;stroke-width:1.0;" width="10" x="631.9209" y="201.8125"/><rect fill="none" height="37.9688" style="stroke:#999999;stroke-width:1.0;" width="10" x="631.9209" y="284.75"/><polygon fill="#4362B1" points="141.7109,79.9375,151.7109,83.9375,141.7109,87.9375,145.7109,83.9375" style="stroke:#4362B1;stroke-width:1.0;"/><line style="stroke:#4362B1;stroke-width:3.0;" x1="0" x2="147.7109" y1="83.9375" y2="83.9375"/><text fill="#FFFFFF" font-family="Verdana" font-size="12" lengthAdjust="spacing" textLength="68.6074" x="12" y="74.1074">logWarning</text><text fill="#808080" font-family="Verdana" font-size="12" lengthAdjust="spacing" textLength="48.4746" x="88.2363" y="74.1074">0.15 ms</text><polygon fill="#4362B1" points="357.3213,117.9063,367.3213,121.9063,357.3213,125.9063,361.3213,121.9063" style="stroke:#4362B1;stroke-width:1.0;"/><line style="stroke:#4362B1;stroke-width:3.0;" x1="163.7109" x2="363.3213" y1="121.9063" y2="121.9063"/><text fill="#FFFFFF" font-family="Verdana" font-size="12" lengthAdjust="spacing" textLength="80.1914" x="175.7109" y="112.0762">parseLogLine</text><text fill="#808080" font-family="Verdana" font-size="12" lengthAdjust="spacing" textLength="48.4746" x="263.5313" y="112.0762">0.13 ms</text><path d="M271.9336,136.9063 L352.125,136.9063 L352.125,152.875 L342.125,162.875 L267.9336,162.875 L267.9336,140.9063 A4,4 0 0 1 271.9336,136.9063 " fill="#4362B1" style="stroke:#4362B1;stroke-width:1.5;"/><rect fill="none" height="110.875" rx="4" ry="4" style="stroke:#4362B1;stroke-width:1.5;" width="474.4551" x="267.9336" y="136.9063"/><text fill="#FFFFFF" font-family="Verdana" font-size="12" font-weight="bold" lengthAdjust="spacing" textLength="29.1914" x="287.9336" y="154.0449">loop</text><text fill="#4362B1" font-family="Verdana" font-size="12" font-weight="bold" lengthAdjust="spacing" textLength="55.6465" x="372.125" y="155.0449">[2 times</text><text fill="#808080" font-family="Verdana" font-size="12" font-weight="bold" lengthAdjust="spacing" textLength="70.1309" x="436.127" y="155.0449">0.0254 ms</text><text fill="#4362B1" font-family="Verdana" font-size="12" font-weight="bold" lengthAdjust="spacing" textLength="5.4844" x="506.2578" y="155.0449">]</text><polygon fill="#4362B1" points="619.9209,197.8125,629.9209,201.8125,619.9209,205.8125,623.9209,201.8125" style="stroke:#4362B1;stroke-width:1.0;"/><line style="stroke:#4362B1;stroke-width:3.0;" x1="379.3213" x2="625.9209" y1="201.8125" y2="201.8125"/><text fill="#FFFFFF" font-family="Verdana" font-size="12" lengthAdjust="spacing" textLength="152.2266" x="391.3213" y="191.9824">enricherApplicationName</text><text fill="#808080" font-family="Verdana" font-size="12" lengthAdjust="spacing" textLength="63.7441" x="551.1768" y="191.9824">0.0254 ms</text><polygon fill="#4362B1" points="390.3213,235.7813,380.3213,239.7813,390.3213,243.7813,386.3213,239.7813" style="stroke:#4362B1;stroke-width:1.0;"/><line style="stroke:#4362B1;stroke-width:3.0;stroke-dasharray:2.0,2.0;" x1="384.3213" x2="635.9209" y1="239.7813" y2="239.7813"/><text fill="#FFFFFF" font-family="Verdana" font-size="12" lengthAdjust="spacing" textLength="25.3945" x="401.3213" y="229.9512">void</text><polygon fill="#4362B1" points="619.9209,280.75,629.9209,284.75,619.9209,288.75,623.9209,284.75" style="stroke:#4362B1;stroke-width:1.0;"/><line style="stroke:#4362B1;stroke-width:3.0;" x1="379.3213" x2="625.9209" y1="284.75" y2="284.75"/><text fill="#FFFFFF" font-family="Verdana" font-size="12" lengthAdjust="spacing" textLength="82.8516" x="391.3213" y="274.9199">getStatement</text><text fill="#808080" font-family="Verdana" font-size="12" lengthAdjust="spacing" textLength="63.7441" x="481.8018" y="274.9199">0.0059 ms</text><polygon fill="#4362B1" points="390.3213,318.7188,380.3213,322.7188,390.3213,326.7188,386.3213,322.7188" style="stroke:#4362B1;stroke-width:1.0;"/><line style="stroke:#4362B1;stroke-width:3.0;stroke-dasharray:2.0,2.0;" x1="384.3213" x2="635.9209" y1="322.7188" y2="322.7188"/><text fill="#FFFFFF" font-family="Verdana" font-size="12" lengthAdjust="spacing" textLength="25.3945" x="401.3213" y="312.8887">void</text><polygon fill="#4362B1" points="174.7109,356.6875,164.7109,360.6875,174.7109,364.6875,170.7109,360.6875" style="stroke:#4362B1;stroke-width:1.0;"/><line style="stroke:#4362B1;stroke-width:3.0;stroke-dasharray:2.0,2.0;" x1="168.7109" x2="373.3213" y1="360.6875" y2="360.6875"/><text fill="#FFFFFF" font-family="Verdana" font-size="12" lengthAdjust="spacing" textLength="25.3945" x="185.7109" y="350.8574">void</text><polygon fill="#4362B1" points="11,394.6563,1,398.6563,11,402.6563,7,398.6563" style="stroke:#4362B1;stroke-width:1.0;"/><line style="stroke:#4362B1;stroke-width:3.0;stroke-dasharray:2.0,2.0;" x1="5" x2="157.7109" y1="398.6563" y2="398.6563"/><text fill="#FFFFFF" font-family="Verdana" font-size="12" lengthAdjust="spacing" textLength="25.3945" x="22" y="388.8262">void</text><!--SRC=[bLBBJiCm4BptAvRUavH23qHL90wze0gGYiIX9-Dk7Kj-OM-A-7lS52eIjoaSFJixisFDbJHSDHjil8AQo8MoA3pxo8Makdbh0dfk3Q6Xd5jT22Jcd6QkS8ePQhJAg4QDXMRI58VH0SbT78uSyoIvT94BppQGyBXwLm_1cXSC12p0E8N70sidLhhqXV6IrpeU_BJTjkmECXu1hBCgDIr1MV7Al956m9nRPNqfFFkiO99Vpq27UT62LHHWdEIE4Pw85ATm0kuxbX1l3hYqOYaD9dutNR-pZkqCO6cjWocGr1ZwMfFfxBQlbjwOLPrVAW7R9_fxvvJaZAGrZqpZNzMFztPapvZFiwpdlhDoSoHlS51jONwe5oB5xguegko19CTaTfVc6FJzHuR116bPebQ_BKUnNr995TR9ug7OtyjdL_UiBm00]--></g></svg>