<svg xmlns="http://www.w3.org/2000/svg" xmlns:xlink="http://www.w3.org/1999/xlink" contentStyleType="text/css" height="408px" preserveAspectRatio="none" style="width:673px;height:408px;background:#FFFFFF;" version="1.1" viewBox="0 0 673 408" width="673px" zoomAndPan="magnify"><defs/><g><rect fill="#FFFFFF" height="288.1953" style="stroke:#181818;stroke-width:1.0;" width="10" x="198.2451" y="67.4297"/><rect fill="#FFFFFF" height="113.3984" style="stroke:#181818;stroke-width:1.0;" width="10" x="354.4897" y="96.5625"/><rect fill="#FFFFFF" height="40.1328" style="stroke:#181818;stroke-width:1.0;" width="10" x="359.4897" y="133.6953"/><rect fill="#FFFFFF" height="87.3984" style="stroke:#181818;stroke-width:1.0;" width="10" x="354.4897" y="239.0938"/><rect fill="#FFFFFF" height="29.1328" style="stroke:#181818;stroke-width:1.0;" width="10" x="604.4878" y="268.2266"/><line style="stroke:#181818;stroke-width:0.5;stroke-dasharray:5.0,5.0;" x1="202.7861" x2="202.7861" y1="36.2969" y2="373.625"/><line style="stroke:#181818;stroke-width:0.5;stroke-dasharray:5.0,5.0;" x1="358.7041" x2="358.7041" y1="36.2969" y2="373.625"/><line style="stroke:#181818;stroke-width:0.5;stroke-dasharray:5.0,5.0;" x1="608.7754" x2="608.7754" y1="36.2969" y2="373.625"/><rect fill="#E2E2F0" height="30.2969" rx="2.5" ry="2.5" style="stroke:#181818;stroke-width:0.5;" width="174.918" x="115.7861" y="5"/><text fill="#000000" font-family="sans-serif" font-size="14" lengthAdjust="spacing" textLength="160.918" x="122.7861" y="24.9951">ValidateParameterTest</text><rect fill="#E2E2F0" height="30.2969" rx="2.5" ry="2.5" style="stroke:#181818;stroke-width:0.5;" width="174.918" x="115.7861" y="372.625"/><text fill="#000000" font-family="sans-serif" font-size="14" lengthAdjust="spacing" textLength="160.918" x="122.7861" y="392.6201">ValidateParameterTest</text><rect fill="#E2E2F0" height="30.2969" rx="2.5" ry="2.5" style="stroke:#181818;stroke-width:0.5;" width="117.5713" x="300.7041" y="5"/><text fill="#000000" font-family="sans-serif" font-size="14" lengthAdjust="spacing" textLength="103.5713" x="307.7041" y="24.9951">PostgreSqlJson</text><rect fill="#E2E2F0" height="30.2969" rx="2.5" ry="2.5" style="stroke:#181818;stroke-width:0.5;" width="117.5713" x="300.7041" y="372.625"/><text fill="#000000" font-family="sans-serif" font-size="14" lengthAdjust="spacing" textLength="103.5713" x="307.7041" y="392.6201">PostgreSqlJson</text><rect fill="#E2E2F0" height="30.2969" rx="2.5" ry="2.5" style="stroke:#181818;stroke-width:0.5;" width="115.4248" x="551.7754" y="5"/><text fill="#000000" font-family="sans-serif" font-size="14" lengthAdjust="spacing" textLength="101.4248" x="558.7754" y="24.9951">EnrichmentOff</text><rect fill="#E2E2F0" height="30.2969" rx="2.5" ry="2.5" style="stroke:#181818;stroke-width:0.5;" width="115.4248" x="551.7754" y="372.625"/><text fill="#000000" font-family="sans-serif" font-size="14" lengthAdjust="spacing" textLength="101.4248" x="558.7754" y="392.6201">EnrichmentOff</text><rect fill="#FFFFFF" height="288.1953" style="stroke:#181818;stroke-width:1.0;" width="10" x="198.2451" y="67.4297"/><rect fill="#FFFFFF" height="113.3984" style="stroke:#181818;stroke-width:1.0;" width="10" x="354.4897" y="96.5625"/><rect fill="#FFFFFF" height="40.1328" style="stroke:#181818;stroke-width:1.0;" width="10" x="359.4897" y="133.6953"/><rect fill="#FFFFFF" height="87.3984" style="stroke:#181818;stroke-width:1.0;" width="10" x="354.4897" y="239.0938"/><rect fill="#FFFFFF" height="29.1328" style="stroke:#181818;stroke-width:1.0;" width="10" x="604.4878" y="268.2266"/><polygon fill="#181818" points="186.2451,63.4297,196.2451,67.4297,186.2451,71.4297,190.2451,67.4297" style="stroke:#181818;stroke-width:1.0;"/><line style="stroke:#181818;stroke-width:1.0;" x1="0" x2="192.2451" y1="67.4297" y2="67.4297"/><text fill="#000000" font-family="sans-serif" font-size="13" lengthAdjust="spacing" textLength="110.1953" x="7" y="62.3638">missingWatchDir</text><text fill="#808080" font-family="sans-serif" font-size="13" lengthAdjust="spacing" textLength="60.7852" x="125.46" y="62.3638">0.116 ms</text><polygon fill="#181818" points="342.4897,92.5625,352.4897,96.5625,342.4897,100.5625,346.4897,96.5625" style="stroke:#181818;stroke-width:1.0;"/><line style="stroke:#181818;stroke-width:1.0;" x1="208.2451" x2="348.4897" y1="96.5625" y2="96.5625"/><text fill="#000000" font-family="sans-serif" font-size="13" lengthAdjust="spacing" textLength="22.3374" x="215.2451" y="91.4966">call</text><text fill="#808080" font-family="sans-serif" font-size="13" lengthAdjust="spacing" textLength="69.0562" x="245.8472" y="91.4966">0.0595 ms</text><line style="stroke:#181818;stroke-width:1.0;" x1="364.4897" x2="411.4897" y1="120.6953" y2="120.6953"/><line style="stroke:#181818;stroke-width:1.0;" x1="411.4897" x2="411.4897" y1="120.6953" y2="133.6953"/><line style="stroke:#181818;stroke-width:1.0;" x1="370.4897" x2="411.4897" y1="133.6953" y2="133.6953"/><polygon fill="#181818" points="380.4897,129.6953,370.4897,133.6953,380.4897,137.6953,376.4897,133.6953" style="stroke:#181818;stroke-width:1.0;"/><text fill="#000000" font-family="sans-serif" font-size="13" lengthAdjust="spacing" textLength="138.6772" x="376.4897" y="115.6294">watchPostgreSqlLogs</text><text fill="#808080" font-family="sans-serif" font-size="13" lengthAdjust="spacing" textLength="69.0562" x="523.4316" y="115.6294">0.0267 ms</text><line style="stroke:#181818;stroke-width:1.0;stroke-dasharray:2.0,2.0;" x1="312.4897" x2="358.4897" y1="172.8281" y2="172.8281"/><line style="stroke:#181818;stroke-width:1.0;stroke-dasharray:2.0,2.0;" x1="312.4897" x2="312.4897" y1="172.8281" y2="185.8281"/><line style="stroke:#181818;stroke-width:1.0;stroke-dasharray:2.0,2.0;" x1="312.4897" x2="352.4897" y1="185.8281" y2="185.8281"/><polygon fill="#181818" points="342.4897,181.8281,352.4897,185.8281,342.4897,189.8281,346.4897,185.8281" style="stroke:#181818;stroke-width:1.0;"/><text fill="#000000" font-family="sans-serif" font-size="13" lengthAdjust="spacing" textLength="110.335" x="237.1548" y="167.7622">java.lang.Integer</text><polygon fill="#181818" points="219.2451,205.9609,209.2451,209.9609,219.2451,213.9609,215.2451,209.9609" style="stroke:#181818;stroke-width:1.0;"/><line style="stroke:#181818;stroke-width:1.0;stroke-dasharray:2.0,2.0;" x1="213.2451" x2="358.4897" y1="209.9609" y2="209.9609"/><text fill="#000000" font-family="sans-serif" font-size="13" lengthAdjust="spacing" textLength="110.335" x="225.2451" y="204.895">java.lang.Integer</text><polygon fill="#181818" points="342.4897,235.0938,352.4897,239.0938,342.4897,243.0938,346.4897,239.0938" style="stroke:#181818;stroke-width:1.0;"/><line style="stroke:#181818;stroke-width:1.0;" x1="208.2451" x2="348.4897" y1="239.0938" y2="239.0938"/><text fill="#000000" font-family="sans-serif" font-size="13" lengthAdjust="spacing" textLength="33.4839" x="215.2451" y="234.0278">close</text><text fill="#808080" font-family="sans-serif" font-size="13" lengthAdjust="spacing" textLength="69.0562" x="256.9937" y="234.0278">0.0278 ms</text><polygon fill="#181818" points="592.4878,264.2266,602.4878,268.2266,592.4878,272.2266,596.4878,268.2266" style="stroke:#181818;stroke-width:1.0;"/><line style="stroke:#181818;stroke-width:1.0;" x1="364.4897" x2="598.4878" y1="268.2266" y2="268.2266"/><text fill="#000000" font-family="sans-serif" font-size="13" lengthAdjust="spacing" textLength="33.4839" x="371.4897" y="263.1606">close</text><text fill="#808080" font-family="sans-serif" font-size="13" lengthAdjust="spacing" textLength="77.3271" x="413.2383" y="263.1606">0.00896 ms</text><polygon fill="#181818" points="375.4897,293.3594,365.4897,297.3594,375.4897,301.3594,371.4897,297.3594" style="stroke:#181818;stroke-width:1.0;"/><line style="stroke:#181818;stroke-width:1.0;stroke-dasharray:2.0,2.0;" x1="369.4897" x2="608.4878" y1="297.3594" y2="297.3594"/><text fill="#000000" font-family="sans-serif" font-size="13" lengthAdjust="spacing" textLength="27.5107" x="381.4897" y="292.2935">void</text><polygon fill="#181818" points="219.2451,322.4922,209.2451,326.4922,219.2451,330.4922,215.2451,326.4922" style="stroke:#181818;stroke-width:1.0;"/><line style="stroke:#181818;stroke-width:1.0;stroke-dasharray:2.0,2.0;" x1="213.2451" x2="358.4897" y1="326.4922" y2="326.4922"/><text fill="#000000" font-family="sans-serif" font-size="13" lengthAdjust="spacing" textLength="27.5107" x="225.2451" y="321.4263">void</text><polygon fill="#181818" points="11,351.625,1,355.625,11,359.625,7,355.625" style="stroke:#181818;stroke-width:1.0;"/><line style="stroke:#181818;stroke-width:1.0;stroke-dasharray:2.0,2.0;" x1="5" x2="202.2451" y1="355.625" y2="355.625"/><text fill="#000000" font-family="sans-serif" font-size="13" lengthAdjust="spacing" textLength="27.5107" x="17" y="350.5591">void</text><!--SRC=[fPCnJyCm48Nt_efJzeGKgMaRHPbW025H2GH3fvFZkaQE7MmhY7zFY2g87ITgORsxzpxTExj1RJdX3KeBBoXuXPRkK6DDBTNFr5X00r6m4osQWNYdZ6MQFhsBUwDaht9BxlYjr9mSQohju-7GJpkLQ06mZyiWDuUQ6yCbUqLBZZTSGq6KK3fd6ZzBI9FbCeFQ55TzjUoSa5ZUTZRX3Ri127VYqbqX1u92-BXqjLsvl07HDUXxu1N7b8_lnNwB3ugP4VGwM_lGox157FlSDsmn4IXPSYSjPLIVX1MTCmv6TxRx7xm3Pn7Aq754wyt_xk8yoIbAkjbcCvTmFAOEuO5QnQjnz6EdSvF_yPiBUzy99_xRIJzG1mU_0000]--></g></svg>