<svg xmlns="http://www.w3.org/2000/svg" xmlns:xlink="http://www.w3.org/1999/xlink" contentStyleType="text/css" height="582px" preserveAspectRatio="none" style="width:734px;height:582px;background:#FFFFFF;" version="1.1" viewBox="0 0 734 582" width="734px" zoomAndPan="magnify"><defs/><g><rect fill="#FFFFFF" height="461.8594" style="stroke:#181818;stroke-width:1.0;" width="10" x="182.1221" y="67.4297"/><rect fill="#FFFFFF" height="287.0625" style="stroke:#181818;stroke-width:1.0;" width="10" x="374.2441" y="96.5625"/><rect fill="#FFFFFF" height="182.6641" style="stroke:#181818;stroke-width:1.0;" width="10" x="379.2441" y="157.8281"/><rect fill="#FFFFFF" height="98.3984" style="stroke:#181818;stroke-width:1.0;" width="10" x="384.2441" y="199.9609"/><rect fill="#FFFFFF" height="87.3984" style="stroke:#181818;stroke-width:1.0;" width="10" x="374.2441" y="412.7578"/><rect fill="#FFFFFF" height="29.1328" style="stroke:#181818;stroke-width:1.0;" width="10" x="655.4771" y="234.0938"/><rect fill="#FFFFFF" height="29.1328" style="stroke:#181818;stroke-width:1.0;" width="10" x="655.4771" y="441.8906"/><rect fill="none" height="243.9297" style="stroke:#000000;stroke-width:1.5;" width="417.731" x="310.4585" y="111.5625"/><line style="stroke:#181818;stroke-width:0.5;stroke-dasharray:5.0,5.0;" x1="186.3623" x2="186.3623" y1="36.2969" y2="547.2891"/><line style="stroke:#181818;stroke-width:0.5;stroke-dasharray:5.0,5.0;" x1="378.4585" x2="378.4585" y1="36.2969" y2="547.2891"/><line style="stroke:#181818;stroke-width:0.5;stroke-dasharray:5.0,5.0;" x1="659.7646" x2="659.7646" y1="36.2969" y2="547.2891"/><rect fill="#E2E2F0" height="30.2969" rx="2.5" ry="2.5" style="stroke:#181818;stroke-width:0.5;" width="147.5195" x="113.3623" y="5"/><text fill="#000000" font-family="sans-serif" font-size="14" lengthAdjust="spacing" textLength="133.5195" x="120.3623" y="24.9951">PostgreSqlJsonTest</text><rect fill="#E2E2F0" height="30.2969" rx="2.5" ry="2.5" style="stroke:#181818;stroke-width:0.5;" width="147.5195" x="113.3623" y="546.2891"/><text fill="#000000" font-family="sans-serif" font-size="14" lengthAdjust="spacing" textLength="133.5195" x="120.3623" y="566.2842">PostgreSqlJsonTest</text><rect fill="#E2E2F0" height="30.2969" rx="2.5" ry="2.5" style="stroke:#181818;stroke-width:0.5;" width="117.5713" x="320.4585" y="5"/><text fill="#000000" font-family="sans-serif" font-size="14" lengthAdjust="spacing" textLength="103.5713" x="327.4585" y="24.9951">PostgreSqlJson</text><rect fill="#E2E2F0" height="30.2969" rx="2.5" ry="2.5" style="stroke:#181818;stroke-width:0.5;" width="117.5713" x="320.4585" y="546.2891"/><text fill="#000000" font-family="sans-serif" font-size="14" lengthAdjust="spacing" textLength="103.5713" x="327.4585" y="566.2842">PostgreSqlJson</text><rect fill="#E2E2F0" height="30.2969" rx="2.5" ry="2.5" style="stroke:#181818;stroke-width:0.5;" width="115.4248" x="602.7646" y="5"/><text fill="#000000" font-family="sans-serif" font-size="14" lengthAdjust="spacing" textLength="101.4248" x="609.7646" y="24.9951">EnrichmentOff</text><rect fill="#E2E2F0" height="30.2969" rx="2.5" ry="2.5" style="stroke:#181818;stroke-width:0.5;" width="115.4248" x="602.7646" y="546.2891"/><text fill="#000000" font-family="sans-serif" font-size="14" lengthAdjust="spacing" textLength="101.4248" x="609.7646" y="566.2842">EnrichmentOff</text><rect fill="#FFFFFF" height="461.8594" style="stroke:#181818;stroke-width:1.0;" width="10" x="182.1221" y="67.4297"/><rect fill="#FFFFFF" height="287.0625" style="stroke:#181818;stroke-width:1.0;" width="10" x="374.2441" y="96.5625"/><rect fill="#FFFFFF" height="182.6641" style="stroke:#181818;stroke-width:1.0;" width="10" x="379.2441" y="157.8281"/><rect fill="#FFFFFF" height="98.3984" style="stroke:#181818;stroke-width:1.0;" width="10" x="384.2441" y="199.9609"/><rect fill="#FFFFFF" height="87.3984" style="stroke:#181818;stroke-width:1.0;" width="10" x="374.2441" y="412.7578"/><rect fill="#FFFFFF" height="29.1328" style="stroke:#181818;stroke-width:1.0;" width="10" x="655.4771" y="234.0938"/><rect fill="#FFFFFF" height="29.1328" style="stroke:#181818;stroke-width:1.0;" width="10" x="655.4771" y="441.8906"/><polygon fill="#181818" points="170.1221,63.4297,180.1221,67.4297,170.1221,71.4297,174.1221,67.4297" style="stroke:#181818;stroke-width:1.0;"/><line style="stroke:#181818;stroke-width:1.0;" x1="0" x2="176.1221" y1="67.4297" y2="67.4297"/><text fill="#000000" font-family="sans-serif" font-size="13" lengthAdjust="spacing" textLength="102.3433" x="7" y="62.3638">initialLogImport</text><text fill="#808080" font-family="sans-serif" font-size="13" lengthAdjust="spacing" textLength="52.5142" x="117.6079" y="62.3638">1.27 ms</text><polygon fill="#181818" points="362.2441,92.5625,372.2441,96.5625,362.2441,100.5625,366.2441,96.5625" style="stroke:#181818;stroke-width:1.0;"/><line style="stroke:#181818;stroke-width:1.0;" x1="192.1221" x2="368.2441" y1="96.5625" y2="96.5625"/><text fill="#000000" font-family="sans-serif" font-size="13" lengthAdjust="spacing" textLength="102.3433" x="199.1221" y="91.4966">initialLogImport</text><text fill="#808080" font-family="sans-serif" font-size="13" lengthAdjust="spacing" textLength="52.5142" x="309.73" y="91.4966">1.04 ms</text><path d="M310.4585,111.5625 L387.0825,111.5625 L387.0825,118.6953 L377.0825,128.6953 L310.4585,128.6953 L310.4585,111.5625 " fill="#EEEEEE" style="stroke:#000000;stroke-width:1.5;"/><rect fill="none" height="243.9297" style="stroke:#000000;stroke-width:1.5;" width="417.731" x="310.4585" y="111.5625"/><text fill="#000000" font-family="sans-serif" font-size="13" font-weight="bold" lengthAdjust="spacing" textLength="31.624" x="325.4585" y="124.6294">loop</text><text fill="#000000" font-family="sans-serif" font-size="11" font-weight="bold" lengthAdjust="spacing" textLength="51.0093" x="402.0825" y="123.7729">[2 times</text><text fill="#808080" font-family="sans-serif" font-size="11" font-weight="bold" lengthAdjust="spacing" textLength="56.6328" x="460.751" y="123.7729">0.839 ms</text><text fill="#000000" font-family="sans-serif" font-size="11" font-weight="bold" lengthAdjust="spacing" textLength="5.0273" x="517.3838" y="123.7729">]</text><line style="stroke:#181818;stroke-width:1.0;" x1="384.2441" x2="431.2441" y1="144.8281" y2="144.8281"/><line style="stroke:#181818;stroke-width:1.0;" x1="431.2441" x2="431.2441" y1="144.8281" y2="157.8281"/><line style="stroke:#181818;stroke-width:1.0;" x1="390.2441" x2="431.2441" y1="157.8281" y2="157.8281"/><polygon fill="#181818" points="400.2441,153.8281,390.2441,157.8281,400.2441,161.8281,396.2441,157.8281" style="stroke:#181818;stroke-width:1.0;"/><text fill="#000000" font-family="sans-serif" font-size="13" lengthAdjust="spacing" textLength="79.8091" x="396.2441" y="139.7622">readJsonLog</text><text fill="#808080" font-family="sans-serif" font-size="13" lengthAdjust="spacing" textLength="60.7852" x="484.3179" y="139.7622">0.839 ms</text><line style="stroke:#181818;stroke-width:1.0;" x1="389.2441" x2="436.2441" y1="186.9609" y2="186.9609"/><line style="stroke:#181818;stroke-width:1.0;" x1="436.2441" x2="436.2441" y1="186.9609" y2="199.9609"/><line style="stroke:#181818;stroke-width:1.0;" x1="395.2441" x2="436.2441" y1="199.9609" y2="199.9609"/><polygon fill="#181818" points="405.2441,195.9609,395.2441,199.9609,405.2441,203.9609,401.2441,199.9609" style="stroke:#181818;stroke-width:1.0;"/><text fill="#000000" font-family="sans-serif" font-size="13" lengthAdjust="spacing" textLength="86.874" x="401.2441" y="181.895">parseLogLine</text><text fill="#808080" font-family="sans-serif" font-size="13" lengthAdjust="spacing" textLength="52.5142" x="496.3828" y="181.895">0.57 ms</text><polygon fill="#181818" points="643.4771,230.0938,653.4771,234.0938,643.4771,238.0938,647.4771,234.0938" style="stroke:#181818;stroke-width:1.0;"/><line style="stroke:#181818;stroke-width:1.0;" x1="394.2441" x2="649.4771" y1="234.0938" y2="234.0938"/><text fill="#000000" font-family="sans-serif" font-size="13" lengthAdjust="spacing" textLength="164.9121" x="401.2441" y="229.0278">enricherApplicationName</text><text fill="#808080" font-family="sans-serif" font-size="13" lengthAdjust="spacing" textLength="69.0562" x="574.4209" y="229.0278">0.0902 ms</text><polygon fill="#181818" points="405.2441,259.2266,395.2441,263.2266,405.2441,267.2266,401.2441,263.2266" style="stroke:#181818;stroke-width:1.0;"/><line style="stroke:#181818;stroke-width:1.0;stroke-dasharray:2.0,2.0;" x1="399.2441" x2="659.4771" y1="263.2266" y2="263.2266"/><text fill="#000000" font-family="sans-serif" font-size="13" lengthAdjust="spacing" textLength="27.5107" x="411.2441" y="258.1606">void</text><line style="stroke:#181818;stroke-width:1.0;stroke-dasharray:2.0,2.0;" x1="332.2441" x2="383.2441" y1="297.3594" y2="297.3594"/><line style="stroke:#181818;stroke-width:1.0;stroke-dasharray:2.0,2.0;" x1="332.2441" x2="332.2441" y1="297.3594" y2="310.3594"/><line style="stroke:#181818;stroke-width:1.0;stroke-dasharray:2.0,2.0;" x1="332.2441" x2="372.2441" y1="310.3594" y2="310.3594"/><polygon fill="#181818" points="362.2441,306.3594,372.2441,310.3594,362.2441,314.3594,366.2441,310.3594" style="stroke:#181818;stroke-width:1.0;"/><text fill="#000000" font-family="sans-serif" font-size="13" lengthAdjust="spacing" textLength="27.5107" x="331.2441" y="292.2935">void</text><line style="stroke:#181818;stroke-width:1.0;stroke-dasharray:2.0,2.0;" x1="332.2441" x2="378.2441" y1="339.4922" y2="339.4922"/><line style="stroke:#181818;stroke-width:1.0;stroke-dasharray:2.0,2.0;" x1="332.2441" x2="332.2441" y1="339.4922" y2="352.4922"/><line style="stroke:#181818;stroke-width:1.0;stroke-dasharray:2.0,2.0;" x1="332.2441" x2="372.2441" y1="352.4922" y2="352.4922"/><polygon fill="#181818" points="362.2441,348.4922,372.2441,352.4922,362.2441,356.4922,366.2441,352.4922" style="stroke:#181818;stroke-width:1.0;"/><text fill="#000000" font-family="sans-serif" font-size="13" lengthAdjust="spacing" textLength="27.5107" x="331.2441" y="334.4263">void</text><polygon fill="#181818" points="203.1221,379.625,193.1221,383.625,203.1221,387.625,199.1221,383.625" style="stroke:#181818;stroke-width:1.0;"/><line style="stroke:#181818;stroke-width:1.0;stroke-dasharray:2.0,2.0;" x1="197.1221" x2="378.2441" y1="383.625" y2="383.625"/><text fill="#000000" font-family="sans-serif" font-size="13" lengthAdjust="spacing" textLength="27.5107" x="209.1221" y="378.5591">void</text><polygon fill="#181818" points="362.2441,408.7578,372.2441,412.7578,362.2441,416.7578,366.2441,412.7578" style="stroke:#181818;stroke-width:1.0;"/><line style="stroke:#181818;stroke-width:1.0;" x1="192.1221" x2="368.2441" y1="412.7578" y2="412.7578"/><text fill="#000000" font-family="sans-serif" font-size="13" lengthAdjust="spacing" textLength="33.4839" x="199.1221" y="407.6919">close</text><text fill="#808080" font-family="sans-serif" font-size="13" lengthAdjust="spacing" textLength="69.0562" x="240.8706" y="407.6919">0.0482 ms</text><polygon fill="#181818" points="643.4771,437.8906,653.4771,441.8906,643.4771,445.8906,647.4771,441.8906" style="stroke:#181818;stroke-width:1.0;"/><line style="stroke:#181818;stroke-width:1.0;" x1="384.2441" x2="649.4771" y1="441.8906" y2="441.8906"/><text fill="#000000" font-family="sans-serif" font-size="13" lengthAdjust="spacing" textLength="33.4839" x="391.2441" y="436.8247">close</text><text fill="#808080" font-family="sans-serif" font-size="13" lengthAdjust="spacing" textLength="69.0562" x="432.9927" y="436.8247">0.0193 ms</text><polygon fill="#181818" points="395.2441,467.0234,385.2441,471.0234,395.2441,475.0234,391.2441,471.0234" style="stroke:#181818;stroke-width:1.0;"/><line style="stroke:#181818;stroke-width:1.0;stroke-dasharray:2.0,2.0;" x1="389.2441" x2="659.4771" y1="471.0234" y2="471.0234"/><text fill="#000000" font-family="sans-serif" font-size="13" lengthAdjust="spacing" textLength="27.5107" x="401.2441" y="465.9575">void</text><polygon fill="#181818" points="203.1221,496.1563,193.1221,500.1563,203.1221,504.1563,199.1221,500.1563" style="stroke:#181818;stroke-width:1.0;"/><line style="stroke:#181818;stroke-width:1.0;stroke-dasharray:2.0,2.0;" x1="197.1221" x2="378.2441" y1="500.1563" y2="500.1563"/><text fill="#000000" font-family="sans-serif" font-size="13" lengthAdjust="spacing" textLength="27.5107" x="209.1221" y="495.0903">void</text><polygon fill="#181818" points="11,525.2891,1,529.2891,11,533.2891,7,529.2891" style="stroke:#181818;stroke-width:1.0;"/><line style="stroke:#181818;stroke-width:1.0;stroke-dasharray:2.0,2.0;" x1="5" x2="186.1221" y1="529.2891" y2="529.2891"/><text fill="#000000" font-family="sans-serif" font-size="13" lengthAdjust="spacing" textLength="27.5107" x="17" y="524.2231">void</text><!--SRC=[hPGzRuCm48Rt_8eJEoaXgH8GGkgGeHLgAxLR9iiur1BOhcr5whyleHtY3mn8sU1yzxmlTsS4affYAX3JyCwLRYJv-6vV56UVH6b02Y8t7At4Q9cdn4m_CadnLqUOVZkVXsmZ4gq0Jd7fYkP06TKKjHLldZl1fOO2yvRBl97efuJDEjr3fug78LZs68GrlI1DF1_Mdu8dREjEQoOxKtDKTJW3g3WNa8Ac7L4cAraVjfaDSssw5YL1zVMfzpYJ6BOuHxCVg2AzO4KPiKKVzpxDEQgkhh4QEP3XbSWd8LgAaQQSlQBESP1aIUhtSEF2G0TC575ikRXmMXi5DPcaEaoxenRq1ZdIhcN4ATwHrIDt8aGEK-VSBznovSvlTqYNNQk9lV6hRBAjkoN1IIxOZE1EtA_B9wVmxr_vNpnQUitw1G00]--></g></svg>