<svg xmlns="http://www.w3.org/2000/svg" xmlns:xlink="http://www.w3.org/1999/xlink" contentStyleType="text/css" height="382px" preserveAspectRatio="none" style="width:722px;height:382px;background:#FFFFFF;" version="1.1" viewBox="0 0 722 382" width="722px" zoomAndPan="magnify"><defs/><g><rect fill="#FFFFFF" height="87.3984" style="stroke:#181818;stroke-width:1.0;" width="10" x="101.6021" y="67.4297"/><rect fill="#FFFFFF" height="29.1328" style="stroke:#181818;stroke-width:1.0;" width="10" x="334.0825" y="96.5625"/><rect fill="#FFFFFF" height="87.3984" style="stroke:#181818;stroke-width:1.0;" width="10" x="334.0825" y="213.0938"/><rect fill="#FFFFFF" height="145.6641" style="stroke:#181818;stroke-width:1.0;" width="10" x="494.333" y="183.9609"/><rect fill="#FFFFFF" height="29.1328" style="stroke:#181818;stroke-width:1.0;" width="10" x="653.5103" y="242.2266"/><line style="stroke:#181818;stroke-width:0.5;stroke-dasharray:5.0,5.0;" x1="105.9092" x2="105.9092" y1="36.2969" y2="347.625"/><line style="stroke:#181818;stroke-width:0.5;stroke-dasharray:5.0,5.0;" x1="338.2969" x2="338.2969" y1="36.2969" y2="347.625"/><line style="stroke:#181818;stroke-width:0.5;stroke-dasharray:5.0,5.0;" x1="498.8682" x2="498.8682" y1="36.2969" y2="347.625"/><line style="stroke:#181818;stroke-width:0.5;stroke-dasharray:5.0,5.0;" x1="657.7979" x2="657.7979" y1="36.2969" y2="347.625"/><rect fill="#E2E2F0" height="30.2969" rx="2.5" ry="2.5" style="stroke:#181818;stroke-width:0.5;" width="135.3857" x="38.9092" y="5"/><text fill="#000000" font-family="sans-serif" font-size="14" lengthAdjust="spacing" textLength="121.3857" x="45.9092" y="24.9951">PostgreSqlJson$2</text><rect fill="#E2E2F0" height="30.2969" rx="2.5" ry="2.5" style="stroke:#181818;stroke-width:0.5;" width="135.3857" x="38.9092" y="346.625"/><text fill="#000000" font-family="sans-serif" font-size="14" lengthAdjust="spacing" textLength="121.3857" x="45.9092" y="366.6201">PostgreSqlJson$2</text><rect fill="#E2E2F0" height="30.2969" rx="2.5" ry="2.5" style="stroke:#181818;stroke-width:0.5;" width="117.5713" x="280.2969" y="5"/><text fill="#000000" font-family="sans-serif" font-size="14" lengthAdjust="spacing" textLength="103.5713" x="287.2969" y="24.9951">PostgreSqlJson</text><rect fill="#E2E2F0" height="30.2969" rx="2.5" ry="2.5" style="stroke:#181818;stroke-width:0.5;" width="117.5713" x="280.2969" y="346.625"/><text fill="#000000" font-family="sans-serif" font-size="14" lengthAdjust="spacing" textLength="103.5713" x="287.2969" y="366.6201">PostgreSqlJson</text><rect fill="#E2E2F0" height="30.2969" rx="2.5" ry="2.5" style="stroke:#181818;stroke-width:0.5;" width="182.9297" x="407.8682" y="5"/><text fill="#000000" font-family="sans-serif" font-size="14" lengthAdjust="spacing" textLength="168.9297" x="414.8682" y="24.9951">TestCliArgumentParsing</text><rect fill="#E2E2F0" height="30.2969" rx="2.5" ry="2.5" style="stroke:#181818;stroke-width:0.5;" width="182.9297" x="407.8682" y="346.625"/><text fill="#000000" font-family="sans-serif" font-size="14" lengthAdjust="spacing" textLength="168.9297" x="414.8682" y="366.6201">TestCliArgumentParsing</text><rect fill="#E2E2F0" height="30.2969" rx="2.5" ry="2.5" style="stroke:#181818;stroke-width:0.5;" width="115.4248" x="600.7979" y="5"/><text fill="#000000" font-family="sans-serif" font-size="14" lengthAdjust="spacing" textLength="101.4248" x="607.7979" y="24.9951">EnrichmentOff</text><rect fill="#E2E2F0" height="30.2969" rx="2.5" ry="2.5" style="stroke:#181818;stroke-width:0.5;" width="115.4248" x="600.7979" y="346.625"/><text fill="#000000" font-family="sans-serif" font-size="14" lengthAdjust="spacing" textLength="101.4248" x="607.7979" y="366.6201">EnrichmentOff</text><rect fill="#FFFFFF" height="87.3984" style="stroke:#181818;stroke-width:1.0;" width="10" x="101.6021" y="67.4297"/><rect fill="#FFFFFF" height="29.1328" style="stroke:#181818;stroke-width:1.0;" width="10" x="334.0825" y="96.5625"/><rect fill="#FFFFFF" height="87.3984" style="stroke:#181818;stroke-width:1.0;" width="10" x="334.0825" y="213.0938"/><rect fill="#FFFFFF" height="145.6641" style="stroke:#181818;stroke-width:1.0;" width="10" x="494.333" y="183.9609"/><rect fill="#FFFFFF" height="29.1328" style="stroke:#181818;stroke-width:1.0;" width="10" x="653.5103" y="242.2266"/><polygon fill="#181818" points="89.6021,63.4297,99.6021,67.4297,89.6021,71.4297,93.6021,67.4297" style="stroke:#181818;stroke-width:1.0;"/><line style="stroke:#181818;stroke-width:1.0;" x1="0" x2="95.6021" y1="67.4297" y2="67.4297"/><text fill="#000000" font-family="sans-serif" font-size="13" lengthAdjust="spacing" textLength="21.8232" x="7" y="62.3638">run</text><text fill="#808080" font-family="sans-serif" font-size="13" lengthAdjust="spacing" textLength="52.5142" x="37.0879" y="62.3638">0.14 ms</text><polygon fill="#181818" points="322.0825,92.5625,332.0825,96.5625,322.0825,100.5625,326.0825,96.5625" style="stroke:#181818;stroke-width:1.0;"/><line style="stroke:#181818;stroke-width:1.0;" x1="111.6021" x2="328.0825" y1="96.5625" y2="96.5625"/><text fill="#000000" font-family="sans-serif" font-size="13" lengthAdjust="spacing" textLength="134.4307" x="118.6021" y="91.4966">saveLogFilesPosition</text><text fill="#808080" font-family="sans-serif" font-size="13" lengthAdjust="spacing" textLength="60.7852" x="261.2974" y="91.4966">0.115 ms</text><polygon fill="#181818" points="122.6021,121.6953,112.6021,125.6953,122.6021,129.6953,118.6021,125.6953" style="stroke:#181818;stroke-width:1.0;"/><line style="stroke:#181818;stroke-width:1.0;stroke-dasharray:2.0,2.0;" x1="116.6021" x2="338.0825" y1="125.6953" y2="125.6953"/><text fill="#000000" font-family="sans-serif" font-size="13" lengthAdjust="spacing" textLength="27.5107" x="128.6021" y="120.6294">void</text><polygon fill="#181818" points="11,150.8281,1,154.8281,11,158.8281,7,154.8281" style="stroke:#181818;stroke-width:1.0;"/><line style="stroke:#181818;stroke-width:1.0;stroke-dasharray:2.0,2.0;" x1="5" x2="105.6021" y1="154.8281" y2="154.8281"/><text fill="#000000" font-family="sans-serif" font-size="13" lengthAdjust="spacing" textLength="27.5107" x="17" y="149.7622">void</text><polygon fill="#181818" points="482.333,179.9609,492.333,183.9609,482.333,187.9609,486.333,183.9609" style="stroke:#181818;stroke-width:1.0;"/><line style="stroke:#181818;stroke-width:1.0;" x1="0" x2="488.333" y1="183.9609" y2="183.9609"/><text fill="#000000" font-family="sans-serif" font-size="13" lengthAdjust="spacing" textLength="147.4561" x="7" y="178.895">testDefaultParameters</text><text fill="#808080" font-family="sans-serif" font-size="13" lengthAdjust="spacing" textLength="52.5142" x="162.7207" y="178.895">49.9 ms</text><polygon fill="#181818" points="355.0825,209.0938,345.0825,213.0938,355.0825,217.0938,351.0825,213.0938" style="stroke:#181818;stroke-width:1.0;"/><line style="stroke:#181818;stroke-width:1.0;" x1="349.0825" x2="493.333" y1="213.0938" y2="213.0938"/><text fill="#000000" font-family="sans-serif" font-size="13" lengthAdjust="spacing" textLength="33.4839" x="361.0825" y="208.0278">close</text><text fill="#808080" font-family="sans-serif" font-size="13" lengthAdjust="spacing" textLength="69.0562" x="402.8311" y="208.0278">0.0584 ms</text><polygon fill="#181818" points="641.5103,238.2266,651.5103,242.2266,641.5103,246.2266,645.5103,242.2266" style="stroke:#181818;stroke-width:1.0;"/><line style="stroke:#181818;stroke-width:1.0;" x1="344.0825" x2="647.5103" y1="242.2266" y2="242.2266"/><text fill="#000000" font-family="sans-serif" font-size="13" lengthAdjust="spacing" textLength="33.4839" x="351.0825" y="237.1606">close</text><text fill="#808080" font-family="sans-serif" font-size="13" lengthAdjust="spacing" textLength="69.0562" x="392.8311" y="237.1606">0.0137 ms</text><polygon fill="#181818" points="355.0825,267.3594,345.0825,271.3594,355.0825,275.3594,351.0825,271.3594" style="stroke:#181818;stroke-width:1.0;"/><line style="stroke:#181818;stroke-width:1.0;stroke-dasharray:2.0,2.0;" x1="349.0825" x2="657.5103" y1="271.3594" y2="271.3594"/><text fill="#000000" font-family="sans-serif" font-size="13" lengthAdjust="spacing" textLength="27.5107" x="361.0825" y="266.2935">void</text><polygon fill="#181818" points="482.333,296.4922,492.333,300.4922,482.333,304.4922,486.333,300.4922" style="stroke:#181818;stroke-width:1.0;"/><line style="stroke:#181818;stroke-width:1.0;stroke-dasharray:2.0,2.0;" x1="339.0825" x2="488.333" y1="300.4922" y2="300.4922"/><text fill="#000000" font-family="sans-serif" font-size="13" lengthAdjust="spacing" textLength="27.5107" x="346.0825" y="295.4263">void</text><polygon fill="#181818" points="11,325.625,1,329.625,11,333.625,7,329.625" style="stroke:#181818;stroke-width:1.0;"/><line style="stroke:#181818;stroke-width:1.0;stroke-dasharray:2.0,2.0;" x1="5" x2="498.333" y1="329.625" y2="329.625"/><text fill="#000000" font-family="sans-serif" font-size="13" lengthAdjust="spacing" textLength="27.5107" x="17" y="324.5591">void</text><!--SRC=[fP9DIyGm48Rl-ok6uhNhTksYMqf1_3Y8u8BUzY2XEws1DAb9Ml3VcmOHytLOlBupxppCEpCIgMbBHy8r78JIlSJNJ_Qa17_V0b6GkUB5DbkDIKl4uBQ_eT9tZDxAVXgGwmEHYlBUsk8br_x09Mq_bl9BrrcNesGhW6FU-6jK82SETIkOa5KloLS3ctLHmg3gIoisnaTQJMUYCGZ1r20GVKW5YipuBFf7ob2P6jLKXCnYvqAJs2YqpdEVEWjwihqdJ4yw1iObanzhqcWtDsd6xrA1DlezTcHYYqO6r2YLkt6vN-yJASUdsbNYfJ3nbWc5ViIRtKrvJiP-oddZV5IAKbnT-vG_76T456Ckud5-B-cS99mKJ-S_hv4wSFWWySvl]--></g></svg>