<svg xmlns="http://www.w3.org/2000/svg" xmlns:xlink="http://www.w3.org/1999/xlink" contentStyleType="text/css" height="408px" preserveAspectRatio="none" style="width:699px;height:408px;background:#FFFFFF;" version="1.1" viewBox="0 0 699 408" width="699px" zoomAndPan="magnify"><defs/><g><rect fill="#FFFFFF" height="288.1953" style="stroke:#181818;stroke-width:1.0;" width="10" x="232.9541" y="67.4297"/><rect fill="#FFFFFF" height="113.3984" style="stroke:#181818;stroke-width:1.0;" width="10" x="389.1987" y="96.5625"/><rect fill="#FFFFFF" height="40.1328" style="stroke:#181818;stroke-width:1.0;" width="10" x="394.1987" y="133.6953"/><rect fill="#FFFFFF" height="87.3984" style="stroke:#181818;stroke-width:1.0;" width="10" x="389.1987" y="239.0938"/><rect fill="#FFFFFF" height="29.1328" style="stroke:#181818;stroke-width:1.0;" width="10" x="630.9258" y="268.2266"/><line style="stroke:#181818;stroke-width:0.5;stroke-dasharray:5.0,5.0;" x1="237.4951" x2="237.4951" y1="36.2969" y2="373.625"/><line style="stroke:#181818;stroke-width:0.5;stroke-dasharray:5.0,5.0;" x1="393.4131" x2="393.4131" y1="36.2969" y2="373.625"/><line style="stroke:#181818;stroke-width:0.5;stroke-dasharray:5.0,5.0;" x1="635.2134" x2="635.2134" y1="36.2969" y2="373.625"/><rect fill="#E2E2F0" height="30.2969" rx="2.5" ry="2.5" style="stroke:#181818;stroke-width:0.5;" width="174.918" x="150.4951" y="5"/><text fill="#000000" font-family="sans-serif" font-size="14" lengthAdjust="spacing" textLength="160.918" x="157.4951" y="24.9951">ValidateParameterTest</text><rect fill="#E2E2F0" height="30.2969" rx="2.5" ry="2.5" style="stroke:#181818;stroke-width:0.5;" width="174.918" x="150.4951" y="372.625"/><text fill="#000000" font-family="sans-serif" font-size="14" lengthAdjust="spacing" textLength="160.918" x="157.4951" y="392.6201">ValidateParameterTest</text><rect fill="#E2E2F0" height="30.2969" rx="2.5" ry="2.5" style="stroke:#181818;stroke-width:0.5;" width="117.5713" x="335.4131" y="5"/><text fill="#000000" font-family="sans-serif" font-size="14" lengthAdjust="spacing" textLength="103.5713" x="342.4131" y="24.9951">PostgreSqlJson</text><rect fill="#E2E2F0" height="30.2969" rx="2.5" ry="2.5" style="stroke:#181818;stroke-width:0.5;" width="117.5713" x="335.4131" y="372.625"/><text fill="#000000" font-family="sans-serif" font-size="14" lengthAdjust="spacing" textLength="103.5713" x="342.4131" y="392.6201">PostgreSqlJson</text><rect fill="#E2E2F0" height="30.2969" rx="2.5" ry="2.5" style="stroke:#181818;stroke-width:0.5;" width="115.4248" x="578.2134" y="5"/><text fill="#000000" font-family="sans-serif" font-size="14" lengthAdjust="spacing" textLength="101.4248" x="585.2134" y="24.9951">EnrichmentOff</text><rect fill="#E2E2F0" height="30.2969" rx="2.5" ry="2.5" style="stroke:#181818;stroke-width:0.5;" width="115.4248" x="578.2134" y="372.625"/><text fill="#000000" font-family="sans-serif" font-size="14" lengthAdjust="spacing" textLength="101.4248" x="585.2134" y="392.6201">EnrichmentOff</text><rect fill="#FFFFFF" height="288.1953" style="stroke:#181818;stroke-width:1.0;" width="10" x="232.9541" y="67.4297"/><rect fill="#FFFFFF" height="113.3984" style="stroke:#181818;stroke-width:1.0;" width="10" x="389.1987" y="96.5625"/><rect fill="#FFFFFF" height="40.1328" style="stroke:#181818;stroke-width:1.0;" width="10" x="394.1987" y="133.6953"/><rect fill="#FFFFFF" height="87.3984" style="stroke:#181818;stroke-width:1.0;" width="10" x="389.1987" y="239.0938"/><rect fill="#FFFFFF" height="29.1328" style="stroke:#181818;stroke-width:1.0;" width="10" x="630.9258" y="268.2266"/><polygon fill="#181818" points="220.9541,63.4297,230.9541,67.4297,220.9541,71.4297,224.9541,67.4297" style="stroke:#181818;stroke-width:1.0;"/><line style="stroke:#181818;stroke-width:1.0;" x1="0" x2="226.9541" y1="67.4297" y2="67.4297"/><text fill="#000000" font-family="sans-serif" font-size="13" lengthAdjust="spacing" textLength="144.9043" x="7" y="62.3638">nonDirectoryWatchDir</text><text fill="#808080" font-family="sans-serif" font-size="13" lengthAdjust="spacing" textLength="60.7852" x="160.1689" y="62.3638">0.658 ms</text><polygon fill="#181818" points="377.1987,92.5625,387.1987,96.5625,377.1987,100.5625,381.1987,96.5625" style="stroke:#181818;stroke-width:1.0;"/><line style="stroke:#181818;stroke-width:1.0;" x1="242.9541" x2="383.1987" y1="96.5625" y2="96.5625"/><text fill="#000000" font-family="sans-serif" font-size="13" lengthAdjust="spacing" textLength="22.3374" x="249.9541" y="91.4966">call</text><text fill="#808080" font-family="sans-serif" font-size="13" lengthAdjust="spacing" textLength="60.7852" x="280.5562" y="91.4966">0.538 ms</text><line style="stroke:#181818;stroke-width:1.0;" x1="399.1987" x2="446.1987" y1="120.6953" y2="120.6953"/><line style="stroke:#181818;stroke-width:1.0;" x1="446.1987" x2="446.1987" y1="120.6953" y2="133.6953"/><line style="stroke:#181818;stroke-width:1.0;" x1="405.1987" x2="446.1987" y1="133.6953" y2="133.6953"/><polygon fill="#181818" points="415.1987,129.6953,405.1987,133.6953,415.1987,137.6953,411.1987,133.6953" style="stroke:#181818;stroke-width:1.0;"/><text fill="#000000" font-family="sans-serif" font-size="13" lengthAdjust="spacing" textLength="138.6772" x="411.1987" y="115.6294">watchPostgreSqlLogs</text><text fill="#808080" font-family="sans-serif" font-size="13" lengthAdjust="spacing" textLength="60.7852" x="558.1406" y="115.6294">0.414 ms</text><line style="stroke:#181818;stroke-width:1.0;stroke-dasharray:2.0,2.0;" x1="347.1987" x2="393.1987" y1="172.8281" y2="172.8281"/><line style="stroke:#181818;stroke-width:1.0;stroke-dasharray:2.0,2.0;" x1="347.1987" x2="347.1987" y1="172.8281" y2="185.8281"/><line style="stroke:#181818;stroke-width:1.0;stroke-dasharray:2.0,2.0;" x1="347.1987" x2="387.1987" y1="185.8281" y2="185.8281"/><polygon fill="#181818" points="377.1987,181.8281,387.1987,185.8281,377.1987,189.8281,381.1987,185.8281" style="stroke:#181818;stroke-width:1.0;"/><text fill="#000000" font-family="sans-serif" font-size="13" lengthAdjust="spacing" textLength="110.335" x="271.8638" y="167.7622">java.lang.Integer</text><polygon fill="#181818" points="253.9541,205.9609,243.9541,209.9609,253.9541,213.9609,249.9541,209.9609" style="stroke:#181818;stroke-width:1.0;"/><line style="stroke:#181818;stroke-width:1.0;stroke-dasharray:2.0,2.0;" x1="247.9541" x2="393.1987" y1="209.9609" y2="209.9609"/><text fill="#000000" font-family="sans-serif" font-size="13" lengthAdjust="spacing" textLength="110.335" x="259.9541" y="204.895">java.lang.Integer</text><polygon fill="#181818" points="377.1987,235.0938,387.1987,239.0938,377.1987,243.0938,381.1987,239.0938" style="stroke:#181818;stroke-width:1.0;"/><line style="stroke:#181818;stroke-width:1.0;" x1="242.9541" x2="383.1987" y1="239.0938" y2="239.0938"/><text fill="#000000" font-family="sans-serif" font-size="13" lengthAdjust="spacing" textLength="33.4839" x="249.9541" y="234.0278">close</text><text fill="#808080" font-family="sans-serif" font-size="13" lengthAdjust="spacing" textLength="60.7852" x="291.7026" y="234.0278">0.064 ms</text><polygon fill="#181818" points="618.9258,264.2266,628.9258,268.2266,618.9258,272.2266,622.9258,268.2266" style="stroke:#181818;stroke-width:1.0;"/><line style="stroke:#181818;stroke-width:1.0;" x1="399.1987" x2="624.9258" y1="268.2266" y2="268.2266"/><text fill="#000000" font-family="sans-serif" font-size="13" lengthAdjust="spacing" textLength="33.4839" x="406.1987" y="263.1606">close</text><text fill="#808080" font-family="sans-serif" font-size="13" lengthAdjust="spacing" textLength="77.3271" x="447.9473" y="263.1606">0.00904 ms</text><polygon fill="#181818" points="410.1987,293.3594,400.1987,297.3594,410.1987,301.3594,406.1987,297.3594" style="stroke:#181818;stroke-width:1.0;"/><line style="stroke:#181818;stroke-width:1.0;stroke-dasharray:2.0,2.0;" x1="404.1987" x2="634.9258" y1="297.3594" y2="297.3594"/><text fill="#000000" font-family="sans-serif" font-size="13" lengthAdjust="spacing" textLength="27.5107" x="416.1987" y="292.2935">void</text><polygon fill="#181818" points="253.9541,322.4922,243.9541,326.4922,253.9541,330.4922,249.9541,326.4922" style="stroke:#181818;stroke-width:1.0;"/><line style="stroke:#181818;stroke-width:1.0;stroke-dasharray:2.0,2.0;" x1="247.9541" x2="393.1987" y1="326.4922" y2="326.4922"/><text fill="#000000" font-family="sans-serif" font-size="13" lengthAdjust="spacing" textLength="27.5107" x="259.9541" y="321.4263">void</text><polygon fill="#181818" points="11,351.625,1,355.625,11,359.625,7,355.625" style="stroke:#181818;stroke-width:1.0;"/><line style="stroke:#181818;stroke-width:1.0;stroke-dasharray:2.0,2.0;" x1="5" x2="236.9541" y1="355.625" y2="355.625"/><text fill="#000000" font-family="sans-serif" font-size="13" lengthAdjust="spacing" textLength="27.5107" x="17" y="350.5591">void</text><!--SRC=[fPD1JyCm38Nl-nLMxor5T1DCLKzm024n2GI7dQmqwuBIf2HMqVuzfPgWITDgWsDjl_V9psc3XWGJ3Ig2LvIYHE8RD5XpukQ5MmAq40KxqQ8PY3VQKcNuyuTyi5hrAhVaZjyf8zY-vegUThj-sgb42u1jN0IvQr1QtGh36MbpU4DY- -uBSgQbDklAuA60D5ajhw6s-KLVBJexP2JQpYkyPZS0uKvSk7kiWQ6KFcvvvU46G5VVzy0hZY6Vttlz5XzrPNrcTfdvpFEeUHpxs7TiCP6egkHU4Q-uEGfBFcSS3Evazpzu1uuYjUL-Gkag-zzLd4Sv1Kblqhb3E1vJT_10hHRbEFcnqwd1__ZDPRtjX1D_t54_K0S7lm00]--></g></svg>