<svg xmlns="http://www.w3.org/2000/svg" xmlns:xlink="http://www.w3.org/1999/xlink" contentStyleType="text/css" height="410px" preserveAspectRatio="none" style="width:711px;height:410px;background:#000000;" version="1.1" viewBox="0 0 711 410" width="711px" zoomAndPan="magnify"><defs/><g><rect fill="none" height="265.7813" style="stroke:#999999;stroke-width:1.0;" width="10" x="230.5977" y="83.9375"/><rect fill="none" height="37.9688" style="stroke:#999999;stroke-width:1.0;" width="10" x="443.0586" y="121.9063"/><rect fill="none" height="113.9063" style="stroke:#999999;stroke-width:1.0;" width="10" x="443.0586" y="197.8438"/><rect fill="none" height="37.9688" style="stroke:#999999;stroke-width:1.0;" width="10" x="644.9141" y="235.8125"/><line style="stroke:#999999;stroke-width:0.5;stroke-dasharray:5.0,5.0;" x1="235.5244" x2="235.5244" y1="43.9688" y2="367.7188"/><line style="stroke:#999999;stroke-width:0.5;stroke-dasharray:5.0,5.0;" x1="447.6709" x2="447.6709" y1="43.9688" y2="367.7188"/><line style="stroke:#999999;stroke-width:0.5;stroke-dasharray:5.0,5.0;" x1="649.4463" x2="649.4463" y1="43.9688" y2="367.7188"/><rect fill="#555555" height="37.9688" rx="4" ry="4" style="stroke:#555555;stroke-width:1.0;" width="132.1465" x="169.5244" y="5"/><text fill="#FFFFFF" font-family="Verdana" font-size="12" lengthAdjust="spacing" textLength="108.1465" x="181.5244" y="28.1387">WatchServiceTest</text><rect fill="#555555" height="37.9688" rx="4" ry="4" style="stroke:#555555;stroke-width:1.0;" width="132.1465" x="169.5244" y="366.7188"/><text fill="#FFFFFF" font-family="Verdana" font-size="12" lengthAdjust="spacing" textLength="108.1465" x="181.5244" y="389.8574">WatchServiceTest</text><rect fill="#555555" height="37.9688" rx="4" ry="4" style="stroke:#555555;stroke-width:1.0;" width="112.7754" x="391.6709" y="5"/><text fill="#FFFFFF" font-family="Verdana" font-size="12" lengthAdjust="spacing" textLength="88.7754" x="403.6709" y="28.1387">PostgreSqlJson</text><rect fill="#555555" height="37.9688" rx="4" ry="4" style="stroke:#555555;stroke-width:1.0;" width="112.7754" x="391.6709" y="366.7188"/><text fill="#FFFFFF" font-family="Verdana" font-size="12" lengthAdjust="spacing" textLength="88.7754" x="403.6709" y="389.8574">PostgreSqlJson</text><rect fill="#555555" height="37.9688" rx="4" ry="4" style="stroke:#555555;stroke-width:1.0;" width="110.9355" x="594.4463" y="5"/><text fill="#FFFFFF" font-family="Verdana" font-size="12" lengthAdjust="spacing" textLength="86.9355" x="606.4463" y="28.1387">EnrichmentOff</text><rect fill="#555555" height="37.9688" rx="4" ry="4" style="stroke:#555555;stroke-width:1.0;" width="110.9355" x="594.4463" y="366.7188"/><text fill="#FFFFFF" font-family="Verdana" font-size="12" lengthAdjust="spacing" textLength="86.9355" x="606.4463" y="389.8574">EnrichmentOff</text><rect fill="none" height="265.7813" style="stroke:#999999;stroke-width:1.0;" width="10" x="230.5977" y="83.9375"/><rect fill="none" height="37.9688" style="stroke:#999999;stroke-width:1.0;" width="10" x="443.0586" y="121.9063"/><rect fill="none" height="113.9063" style="stroke:#999999;stroke-width:1.0;" width="10" x="443.0586" y="197.8438"/><rect fill="none" height="37.9688" style="stroke:#999999;stroke-width:1.0;" width="10" x="644.9141" y="235.8125"/><polygon fill="#4362B1" points="218.5977,79.9375,228.5977,83.9375,218.5977,87.9375,222.5977,83.9375" style="stroke:#4362B1;stroke-width:1.0;"/><line style="stroke:#4362B1;stroke-width:3.0;" x1="0" x2="224.5977" y1="83.9375" y2="83.9375"/><text fill="#FFFFFF" font-family="Verdana" font-size="12" lengthAdjust="spacing" textLength="145.4941" x="12" y="74.1074">testRegisterWatchEvent</text><text fill="#808080" font-family="Verdana" font-size="12" lengthAdjust="spacing" textLength="48.4746" x="165.123" y="74.1074">40.3 ms</text><polygon fill="#4362B1" points="431.0586,117.9063,441.0586,121.9063,431.0586,125.9063,435.0586,121.9063" style="stroke:#4362B1;stroke-width:1.0;"/><line style="stroke:#4362B1;stroke-width:3.0;" x1="240.5977" x2="437.0586" y1="121.9063" y2="121.9063"/><text fill="#FFFFFF" font-family="Verdana" font-size="12" lengthAdjust="spacing" textLength="119.0449" x="252.5977" y="112.0762">registerWatchEvent</text><text fill="#808080" font-family="Verdana" font-size="12" lengthAdjust="spacing" textLength="40.8398" x="379.2715" y="112.0762">7.5 ms</text><polygon fill="#4362B1" points="251.5977,155.875,241.5977,159.875,251.5977,163.875,247.5977,159.875" style="stroke:#4362B1;stroke-width:1.0;"/><line style="stroke:#4362B1;stroke-width:3.0;stroke-dasharray:2.0,2.0;" x1="245.5977" x2="447.0586" y1="159.875" y2="159.875"/><text fill="#FFFFFF" font-family="Verdana" font-size="12" lengthAdjust="spacing" textLength="25.3945" x="262.5977" y="150.0449">void</text><polygon fill="#4362B1" points="431.0586,193.8438,441.0586,197.8438,431.0586,201.8438,435.0586,197.8438" style="stroke:#4362B1;stroke-width:1.0;"/><line style="stroke:#4362B1;stroke-width:3.0;" x1="240.5977" x2="437.0586" y1="197.8438" y2="197.8438"/><text fill="#FFFFFF" font-family="Verdana" font-size="12" lengthAdjust="spacing" textLength="30.9082" x="252.5977" y="188.0137">close</text><text fill="#808080" font-family="Verdana" font-size="12" lengthAdjust="spacing" textLength="63.7441" x="291.1348" y="188.0137">0.0816 ms</text><polygon fill="#4362B1" points="632.9141,231.8125,642.9141,235.8125,632.9141,239.8125,636.9141,235.8125" style="stroke:#4362B1;stroke-width:1.0;"/><line style="stroke:#4362B1;stroke-width:3.0;" x1="453.0586" x2="638.9141" y1="235.8125" y2="235.8125"/><text fill="#FFFFFF" font-family="Verdana" font-size="12" lengthAdjust="spacing" textLength="30.9082" x="465.0586" y="225.9824">close</text><text fill="#808080" font-family="Verdana" font-size="12" lengthAdjust="spacing" textLength="63.7441" x="503.5957" y="225.9824">0.0302 ms</text><polygon fill="#4362B1" points="464.0586,269.7813,454.0586,273.7813,464.0586,277.7813,460.0586,273.7813" style="stroke:#4362B1;stroke-width:1.0;"/><line style="stroke:#4362B1;stroke-width:3.0;stroke-dasharray:2.0,2.0;" x1="458.0586" x2="648.9141" y1="273.7813" y2="273.7813"/><text fill="#FFFFFF" font-family="Verdana" font-size="12" lengthAdjust="spacing" textLength="25.3945" x="475.0586" y="263.9512">void</text><polygon fill="#4362B1" points="251.5977,307.75,241.5977,311.75,251.5977,315.75,247.5977,311.75" style="stroke:#4362B1;stroke-width:1.0;"/><line style="stroke:#4362B1;stroke-width:3.0;stroke-dasharray:2.0,2.0;" x1="245.5977" x2="447.0586" y1="311.75" y2="311.75"/><text fill="#FFFFFF" font-family="Verdana" font-size="12" lengthAdjust="spacing" textLength="25.3945" x="262.5977" y="301.9199">void</text><polygon fill="#4362B1" points="11,345.7188,1,349.7188,11,353.7188,7,349.7188" style="stroke:#4362B1;stroke-width:1.0;"/><line style="stroke:#4362B1;stroke-width:3.0;stroke-dasharray:2.0,2.0;" x1="5" x2="234.5977" y1="349.7188" y2="349.7188"/><text fill="#FFFFFF" font-family="Verdana" font-size="12" lengthAdjust="spacing" textLength="25.3945" x="22" y="339.8887">void</text><!--SRC=[hP9BJyCm48Jl_HLBxua3vQKeogqNBY2AnA4dusuJItvXRuBuzrWfGhLJX2fnoM5sPh_99XVI23NiSF0AUY8NQiOy_oWxIVtmDWJqmXf2GwMmcdL8t3dD7NEA6ngqAgX7ZKnpQTXXT51A5uSBnpr98LtqmYidqM_GZrBW2mO27c2PYyiaycG3THutx-eXM3C5KYcrhusNejUnxED-FxaJPRa0s1PjZgo1ulCPEna8_JHTZp41ZR3A-hhp_BE5wwfSWGuDcyGshkA2vCW9PoyMPp0JYpPjNeF_WtXNtgJ08sIwwoImAOgSE5gvcxmxF6VJlBfGDc3QjYgh-ylRSmf39XPjyhL-ewoggvnon4bMdCJ4ksISdxCaXvbl-gyBRsDm_XD-Hu-2kUSB]--></g></svg>