<svg xmlns="http://www.w3.org/2000/svg" xmlns:xlink="http://www.w3.org/1999/xlink" contentStyleType="text/css" height="410px" preserveAspectRatio="none" style="width:713px;height:410px;background:#000000;" version="1.1" viewBox="0 0 713 410" width="713px" zoomAndPan="magnify"><defs/><g><rect fill="none" height="265.7813" style="stroke:#999999;stroke-width:1.0;" width="10" x="230.5977" y="83.9375"/><rect fill="none" height="37.9688" style="stroke:#999999;stroke-width:1.0;" width="10" x="444.7461" y="121.9063"/><rect fill="none" height="113.9063" style="stroke:#999999;stroke-width:1.0;" width="10" x="444.7461" y="197.8438"/><rect fill="none" height="37.9688" style="stroke:#999999;stroke-width:1.0;" width="10" x="646.6016" y="235.8125"/><line style="stroke:#999999;stroke-width:0.5;stroke-dasharray:5.0,5.0;" x1="235.5244" x2="235.5244" y1="43.9688" y2="367.7188"/><line style="stroke:#999999;stroke-width:0.5;stroke-dasharray:5.0,5.0;" x1="449.3584" x2="449.3584" y1="43.9688" y2="367.7188"/><line style="stroke:#999999;stroke-width:0.5;stroke-dasharray:5.0,5.0;" x1="651.1338" x2="651.1338" y1="43.9688" y2="367.7188"/><rect fill="#555555" height="37.9688" rx="4" ry="4" style="stroke:#555555;stroke-width:1.0;" width="132.1465" x="169.5244" y="5"/><text fill="#FFFFFF" font-family="Verdana" font-size="12" lengthAdjust="spacing" textLength="108.1465" x="181.5244" y="28.1387">WatchServiceTest</text><rect fill="#555555" height="37.9688" rx="4" ry="4" style="stroke:#555555;stroke-width:1.0;" width="132.1465" x="169.5244" y="366.7188"/><text fill="#FFFFFF" font-family="Verdana" font-size="12" lengthAdjust="spacing" textLength="108.1465" x="181.5244" y="389.8574">WatchServiceTest</text><rect fill="#555555" height="37.9688" rx="4" ry="4" style="stroke:#555555;stroke-width:1.0;" width="112.7754" x="393.3584" y="5"/><text fill="#FFFFFF" font-family="Verdana" font-size="12" lengthAdjust="spacing" textLength="88.7754" x="405.3584" y="28.1387">PostgreSqlJson</text><rect fill="#555555" height="37.9688" rx="4" ry="4" style="stroke:#555555;stroke-width:1.0;" width="112.7754" x="393.3584" y="366.7188"/><text fill="#FFFFFF" font-family="Verdana" font-size="12" lengthAdjust="spacing" textLength="88.7754" x="405.3584" y="389.8574">PostgreSqlJson</text><rect fill="#555555" height="37.9688" rx="4" ry="4" style="stroke:#555555;stroke-width:1.0;" width="110.9355" x="596.1338" y="5"/><text fill="#FFFFFF" font-family="Verdana" font-size="12" lengthAdjust="spacing" textLength="86.9355" x="608.1338" y="28.1387">EnrichmentOff</text><rect fill="#555555" height="37.9688" rx="4" ry="4" style="stroke:#555555;stroke-width:1.0;" width="110.9355" x="596.1338" y="366.7188"/><text fill="#FFFFFF" font-family="Verdana" font-size="12" lengthAdjust="spacing" textLength="86.9355" x="608.1338" y="389.8574">EnrichmentOff</text><rect fill="none" height="265.7813" style="stroke:#999999;stroke-width:1.0;" width="10" x="230.5977" y="83.9375"/><rect fill="none" height="37.9688" style="stroke:#999999;stroke-width:1.0;" width="10" x="444.7461" y="121.9063"/><rect fill="none" height="113.9063" style="stroke:#999999;stroke-width:1.0;" width="10" x="444.7461" y="197.8438"/><rect fill="none" height="37.9688" style="stroke:#999999;stroke-width:1.0;" width="10" x="646.6016" y="235.8125"/><polygon fill="#4362B1" points="218.5977,79.9375,228.5977,83.9375,218.5977,87.9375,222.5977,83.9375" style="stroke:#4362B1;stroke-width:1.0;"/><line style="stroke:#4362B1;stroke-width:3.0;" x1="0" x2="224.5977" y1="83.9375" y2="83.9375"/><text fill="#FFFFFF" font-family="Verdana" font-size="12" lengthAdjust="spacing" textLength="145.4941" x="12" y="74.1074">testRegisterWatchEvent</text><text fill="#808080" font-family="Verdana" font-size="12" lengthAdjust="spacing" textLength="48.4746" x="165.123" y="74.1074">43.6 ms</text><polygon fill="#4362B1" points="432.7461,117.9063,442.7461,121.9063,432.7461,125.9063,436.7461,121.9063" style="stroke:#4362B1;stroke-width:1.0;"/><line style="stroke:#4362B1;stroke-width:3.0;" x1="240.5977" x2="438.7461" y1="121.9063" y2="121.9063"/><text fill="#FFFFFF" font-family="Verdana" font-size="12" lengthAdjust="spacing" textLength="119.0449" x="252.5977" y="112.0762">registerWatchEvent</text><text fill="#808080" font-family="Verdana" font-size="12" lengthAdjust="spacing" textLength="48.4746" x="379.2715" y="112.0762">8.36 ms</text><polygon fill="#4362B1" points="251.5977,155.875,241.5977,159.875,251.5977,163.875,247.5977,159.875" style="stroke:#4362B1;stroke-width:1.0;"/><line style="stroke:#4362B1;stroke-width:3.0;stroke-dasharray:2.0,2.0;" x1="245.5977" x2="448.7461" y1="159.875" y2="159.875"/><text fill="#FFFFFF" font-family="Verdana" font-size="12" lengthAdjust="spacing" textLength="25.3945" x="262.5977" y="150.0449">void</text><polygon fill="#4362B1" points="432.7461,193.8438,442.7461,197.8438,432.7461,201.8438,436.7461,197.8438" style="stroke:#4362B1;stroke-width:1.0;"/><line style="stroke:#4362B1;stroke-width:3.0;" x1="240.5977" x2="438.7461" y1="197.8438" y2="197.8438"/><text fill="#FFFFFF" font-family="Verdana" font-size="12" lengthAdjust="spacing" textLength="30.9082" x="252.5977" y="188.0137">close</text><text fill="#808080" font-family="Verdana" font-size="12" lengthAdjust="spacing" textLength="56.1094" x="291.1348" y="188.0137">0.092 ms</text><polygon fill="#4362B1" points="634.6016,231.8125,644.6016,235.8125,634.6016,239.8125,638.6016,235.8125" style="stroke:#4362B1;stroke-width:1.0;"/><line style="stroke:#4362B1;stroke-width:3.0;" x1="454.7461" x2="640.6016" y1="235.8125" y2="235.8125"/><text fill="#FFFFFF" font-family="Verdana" font-size="12" lengthAdjust="spacing" textLength="30.9082" x="466.7461" y="225.9824">close</text><text fill="#808080" font-family="Verdana" font-size="12" lengthAdjust="spacing" textLength="63.7441" x="505.2832" y="225.9824">0.0473 ms</text><polygon fill="#4362B1" points="465.7461,269.7813,455.7461,273.7813,465.7461,277.7813,461.7461,273.7813" style="stroke:#4362B1;stroke-width:1.0;"/><line style="stroke:#4362B1;stroke-width:3.0;stroke-dasharray:2.0,2.0;" x1="459.7461" x2="650.6016" y1="273.7813" y2="273.7813"/><text fill="#FFFFFF" font-family="Verdana" font-size="12" lengthAdjust="spacing" textLength="25.3945" x="476.7461" y="263.9512">void</text><polygon fill="#4362B1" points="251.5977,307.75,241.5977,311.75,251.5977,315.75,247.5977,311.75" style="stroke:#4362B1;stroke-width:1.0;"/><line style="stroke:#4362B1;stroke-width:3.0;stroke-dasharray:2.0,2.0;" x1="245.5977" x2="448.7461" y1="311.75" y2="311.75"/><text fill="#FFFFFF" font-family="Verdana" font-size="12" lengthAdjust="spacing" textLength="25.3945" x="262.5977" y="301.9199">void</text><polygon fill="#4362B1" points="11,345.7188,1,349.7188,11,353.7188,7,349.7188" style="stroke:#4362B1;stroke-width:1.0;"/><line style="stroke:#4362B1;stroke-width:3.0;stroke-dasharray:2.0,2.0;" x1="5" x2="234.5977" y1="349.7188" y2="349.7188"/><text fill="#FFFFFF" font-family="Verdana" font-size="12" lengthAdjust="spacing" textLength="25.3945" x="22" y="339.8887">void</text><!--SRC=[hP9BJyCm48Jl_HLBxuahKl68gjnwuGAYI1nwCkusiUGNzYQ8Vu-L8XGxHQWIbnncP_QRR78bZL3z0Nkle2DoeMRCyu-obTJrRtr0BwmXD5GAgrcBn9tJt36dkA5Ugu8wrCWqbuQTHYUbT76uSDoJ5D95Bxno4jqE_I05lc0Wu06MkRXC8aysKEjnzwuUWZLZ89LI-zPuAJeTopuUZwCxKPOBW7tHvCWQA3wViPM1q8_JxH0Ji15MML-tddysiAxA6z1XmqQnYQku83bmmjcBnHdCnA99czVW_o3UbLL6d33JPMU9cwB8aOELXz5xm4ispRiBPGEcTLVbwlxwahwGYKMJVAtV8ElRAgTCECcAivXubeppSvNaBlDD_tNWVGpEVyBlw2IOUxu0]--></g></svg>