<svg xmlns="http://www.w3.org/2000/svg" xmlns:xlink="http://www.w3.org/1999/xlink" contentStyleType="text/css" height="410px" preserveAspectRatio="none" style="width:736px;height:410px;background:#000000;" version="1.1" viewBox="0 0 736 410" width="736px" zoomAndPan="magnify"><defs/><g><rect fill="none" height="265.7813" style="stroke:#999999;stroke-width:1.0;" width="10" x="249.4355" y="83.9375"/><rect fill="none" height="37.9688" style="stroke:#999999;stroke-width:1.0;" width="10" x="468.6582" y="121.9063"/><rect fill="none" height="113.9063" style="stroke:#999999;stroke-width:1.0;" width="10" x="468.6582" y="197.8438"/><rect fill="none" height="37.9688" style="stroke:#999999;stroke-width:1.0;" width="10" x="670.5137" y="235.8125"/><line style="stroke:#999999;stroke-width:0.5;stroke-dasharray:5.0,5.0;" x1="253.6006" x2="253.6006" y1="43.9688" y2="367.7188"/><line style="stroke:#999999;stroke-width:0.5;stroke-dasharray:5.0,5.0;" x1="473.2705" x2="473.2705" y1="43.9688" y2="367.7188"/><line style="stroke:#999999;stroke-width:0.5;stroke-dasharray:5.0,5.0;" x1="675.0459" x2="675.0459" y1="43.9688" y2="367.7188"/><rect fill="#555555" height="37.9688" rx="4" ry="4" style="stroke:#555555;stroke-width:1.0;" width="145.6699" x="181.6006" y="5"/><text fill="#FFFFFF" font-family="Verdana" font-size="12" lengthAdjust="spacing" textLength="121.6699" x="193.6006" y="28.1387">LogFilesPositionTest</text><rect fill="#555555" height="37.9688" rx="4" ry="4" style="stroke:#555555;stroke-width:1.0;" width="145.6699" x="181.6006" y="366.7188"/><text fill="#FFFFFF" font-family="Verdana" font-size="12" lengthAdjust="spacing" textLength="121.6699" x="193.6006" y="389.8574">LogFilesPositionTest</text><rect fill="#555555" height="37.9688" rx="4" ry="4" style="stroke:#555555;stroke-width:1.0;" width="112.7754" x="417.2705" y="5"/><text fill="#FFFFFF" font-family="Verdana" font-size="12" lengthAdjust="spacing" textLength="88.7754" x="429.2705" y="28.1387">PostgreSqlJson</text><rect fill="#555555" height="37.9688" rx="4" ry="4" style="stroke:#555555;stroke-width:1.0;" width="112.7754" x="417.2705" y="366.7188"/><text fill="#FFFFFF" font-family="Verdana" font-size="12" lengthAdjust="spacing" textLength="88.7754" x="429.2705" y="389.8574">PostgreSqlJson</text><rect fill="#555555" height="37.9688" rx="4" ry="4" style="stroke:#555555;stroke-width:1.0;" width="110.9355" x="620.0459" y="5"/><text fill="#FFFFFF" font-family="Verdana" font-size="12" lengthAdjust="spacing" textLength="86.9355" x="632.0459" y="28.1387">EnrichmentOff</text><rect fill="#555555" height="37.9688" rx="4" ry="4" style="stroke:#555555;stroke-width:1.0;" width="110.9355" x="620.0459" y="366.7188"/><text fill="#FFFFFF" font-family="Verdana" font-size="12" lengthAdjust="spacing" textLength="86.9355" x="632.0459" y="389.8574">EnrichmentOff</text><rect fill="none" height="265.7813" style="stroke:#999999;stroke-width:1.0;" width="10" x="249.4355" y="83.9375"/><rect fill="none" height="37.9688" style="stroke:#999999;stroke-width:1.0;" width="10" x="468.6582" y="121.9063"/><rect fill="none" height="113.9063" style="stroke:#999999;stroke-width:1.0;" width="10" x="468.6582" y="197.8438"/><rect fill="none" height="37.9688" style="stroke:#999999;stroke-width:1.0;" width="10" x="670.5137" y="235.8125"/><polygon fill="#4362B1" points="237.4355,79.9375,247.4355,83.9375,237.4355,87.9375,241.4355,83.9375" style="stroke:#4362B1;stroke-width:1.0;"/><line style="stroke:#4362B1;stroke-width:3.0;" x1="0" x2="243.4355" y1="83.9375" y2="83.9375"/><text fill="#FFFFFF" font-family="Verdana" font-size="12" lengthAdjust="spacing" textLength="156.6973" x="12" y="74.1074">savePositionToInvalidPath</text><text fill="#808080" font-family="Verdana" font-size="12" lengthAdjust="spacing" textLength="56.1094" x="176.3262" y="74.1074">0.793 ms</text><polygon fill="#4362B1" points="456.6582,117.9063,466.6582,121.9063,456.6582,125.9063,460.6582,121.9063" style="stroke:#4362B1;stroke-width:1.0;"/><line style="stroke:#4362B1;stroke-width:3.0;" x1="259.4355" x2="462.6582" y1="121.9063" y2="121.9063"/><text fill="#FFFFFF" font-family="Verdana" font-size="12" lengthAdjust="spacing" textLength="124.0898" x="271.4355" y="112.0762">saveLogFilesPosition</text><text fill="#808080" font-family="Verdana" font-size="12" lengthAdjust="spacing" textLength="48.4746" x="403.1543" y="112.0762">0.11 ms</text><polygon fill="#4362B1" points="270.4355,155.875,260.4355,159.875,270.4355,163.875,266.4355,159.875" style="stroke:#4362B1;stroke-width:1.0;"/><line style="stroke:#4362B1;stroke-width:3.0;stroke-dasharray:2.0,2.0;" x1="264.4355" x2="472.6582" y1="159.875" y2="159.875"/><text fill="#FFFFFF" font-family="Verdana" font-size="12" lengthAdjust="spacing" textLength="25.3945" x="281.4355" y="150.0449">void</text><polygon fill="#4362B1" points="456.6582,193.8438,466.6582,197.8438,456.6582,201.8438,460.6582,197.8438" style="stroke:#4362B1;stroke-width:1.0;"/><line style="stroke:#4362B1;stroke-width:3.0;" x1="259.4355" x2="462.6582" y1="197.8438" y2="197.8438"/><text fill="#FFFFFF" font-family="Verdana" font-size="12" lengthAdjust="spacing" textLength="30.9082" x="271.4355" y="188.0137">close</text><text fill="#808080" font-family="Verdana" font-size="12" lengthAdjust="spacing" textLength="56.1094" x="309.9727" y="188.0137">0.043 ms</text><polygon fill="#4362B1" points="658.5137,231.8125,668.5137,235.8125,658.5137,239.8125,662.5137,235.8125" style="stroke:#4362B1;stroke-width:1.0;"/><line style="stroke:#4362B1;stroke-width:3.0;" x1="478.6582" x2="664.5137" y1="235.8125" y2="235.8125"/><text fill="#FFFFFF" font-family="Verdana" font-size="12" lengthAdjust="spacing" textLength="30.9082" x="490.6582" y="225.9824">close</text><text fill="#808080" font-family="Verdana" font-size="12" lengthAdjust="spacing" textLength="63.7441" x="529.1953" y="225.9824">0.0195 ms</text><polygon fill="#4362B1" points="489.6582,269.7813,479.6582,273.7813,489.6582,277.7813,485.6582,273.7813" style="stroke:#4362B1;stroke-width:1.0;"/><line style="stroke:#4362B1;stroke-width:3.0;stroke-dasharray:2.0,2.0;" x1="483.6582" x2="674.5137" y1="273.7813" y2="273.7813"/><text fill="#FFFFFF" font-family="Verdana" font-size="12" lengthAdjust="spacing" textLength="25.3945" x="500.6582" y="263.9512">void</text><polygon fill="#4362B1" points="270.4355,307.75,260.4355,311.75,270.4355,315.75,266.4355,311.75" style="stroke:#4362B1;stroke-width:1.0;"/><line style="stroke:#4362B1;stroke-width:3.0;stroke-dasharray:2.0,2.0;" x1="264.4355" x2="472.6582" y1="311.75" y2="311.75"/><text fill="#FFFFFF" font-family="Verdana" font-size="12" lengthAdjust="spacing" textLength="25.3945" x="281.4355" y="301.9199">void</text><polygon fill="#4362B1" points="11,345.7188,1,349.7188,11,353.7188,7,349.7188" style="stroke:#4362B1;stroke-width:1.0;"/><line style="stroke:#4362B1;stroke-width:3.0;stroke-dasharray:2.0,2.0;" x1="5" x2="253.4355" y1="349.7188" y2="349.7188"/><text fill="#FFFFFF" font-family="Verdana" font-size="12" lengthAdjust="spacing" textLength="25.3945" x="22" y="339.8887">void</text><!--SRC=[hP9FImCn4CNl_HInzzsqL96MiZS5HR2Wjvx6x7Gta7ycioj-UyDMIfEc1y7hUs_cDpF9ZJH23IqENh6Uo8KDvnw-wavIFtmC0RsmXj1GBQpc7H8ufy5nfy3Ge5L5FMha6gJXH-ker2wQCmUUf90kPjcBxHwbmh2pGPAqvXq3CGXiNZBcIMbqgFFuzgcUWpLJKIgbyGVZfUXr7FhrS9ZIYJAVCRQlcX9smmACU5Bianb1oNO7rBEjiChwJUVXks6B-dwzOZfi-QGsiIK8aYCG5XUDFYiQLPDkSfmWJ-RmvJ9bdz7JTbUvswhAmQELxPHlyQ_TBhSGoWRCnrxShluoDyl4gadUyHfakRxBAMUSf4KH4q-JSKwNIMvpsUa_3xsFXUKl-bj-LbpA_G00]--></g></svg>