<svg xmlns="http://www.w3.org/2000/svg" xmlns:xlink="http://www.w3.org/1999/xlink" contentStyleType="text/css" height="418px" preserveAspectRatio="none" style="width:1426px;height:418px;background:#FFFFFF;" version="1.1" viewBox="0 0 1426 418" width="1426px" zoomAndPan="magnify"><defs/><g><rect fill="#FFFFFF" height="180.7969" style="stroke:#181818;stroke-width:1.0;" width="10" x="387.3101" y="67.4297"/><rect fill="#FFFFFF" height="122.5313" style="stroke:#181818;stroke-width:1.0;" width="10" x="575.2363" y="96.5625"/><rect fill="#FFFFFF" height="87.3984" style="stroke:#181818;stroke-width:1.0;" width="10" x="575.2363" y="277.3594"/><rect fill="#FFFFFF" height="29.1328" style="stroke:#181818;stroke-width:1.0;" width="10" x="754.771" y="160.8281"/><rect fill="#FFFFFF" height="29.1328" style="stroke:#181818;stroke-width:1.0;" width="10" x="908.6162" y="306.4922"/><line style="stroke:#181818;stroke-width:0.5;stroke-dasharray:5.0,5.0;" x1="391.436" x2="391.436" y1="36.2969" y2="382.7578"/><line style="stroke:#181818;stroke-width:0.5;stroke-dasharray:5.0,5.0;" x1="579.4507" x2="579.4507" y1="36.2969" y2="382.7578"/><line style="stroke:#181818;stroke-width:0.5;stroke-dasharray:5.0,5.0;" x1="759.6382" x2="759.6382" y1="36.2969" y2="382.7578"/><line style="stroke:#181818;stroke-width:0.5;stroke-dasharray:5.0,5.0;" x1="912.9038" x2="912.9038" y1="36.2969" y2="382.7578"/><line style="stroke:#181818;stroke-width:0.5;stroke-dasharray:5.0,5.0;" x1="1031.2534" x2="1031.2534" y1="36.2969" y2="382.7578"/><rect fill="#E2E2F0" height="30.2969" rx="2.5" ry="2.5" style="stroke:#181818;stroke-width:0.5;" width="149.748" x="317.436" y="5"/><text fill="#000000" font-family="sans-serif" font-size="14" lengthAdjust="spacing" textLength="135.748" x="324.436" y="24.9951">LogEnrichmentTest</text><rect fill="#E2E2F0" height="30.2969" rx="2.5" ry="2.5" style="stroke:#181818;stroke-width:0.5;" width="149.748" x="317.436" y="381.7578"/><text fill="#000000" font-family="sans-serif" font-size="14" lengthAdjust="spacing" textLength="135.748" x="324.436" y="401.7529">LogEnrichmentTest</text><rect fill="#E2E2F0" height="30.2969" rx="2.5" ry="2.5" style="stroke:#181818;stroke-width:0.5;" width="117.5713" x="521.4507" y="5"/><text fill="#000000" font-family="sans-serif" font-size="14" lengthAdjust="spacing" textLength="103.5713" x="528.4507" y="24.9951">PostgreSqlJson</text><rect fill="#E2E2F0" height="30.2969" rx="2.5" ry="2.5" style="stroke:#181818;stroke-width:0.5;" width="117.5713" x="521.4507" y="381.7578"/><text fill="#000000" font-family="sans-serif" font-size="14" lengthAdjust="spacing" textLength="103.5713" x="528.4507" y="401.7529">PostgreSqlJson</text><rect fill="#E2E2F0" height="30.2969" rx="2.5" ry="2.5" style="stroke:#181818;stroke-width:0.5;" width="172.2656" x="673.6382" y="5"/><text fill="#000000" font-family="sans-serif" font-size="14" lengthAdjust="spacing" textLength="158.2656" x="680.6382" y="24.9951">LogEnricherPostgreSql</text><rect fill="#E2E2F0" height="30.2969" rx="2.5" ry="2.5" style="stroke:#181818;stroke-width:0.5;" width="172.2656" x="673.6382" y="381.7578"/><text fill="#000000" font-family="sans-serif" font-size="14" lengthAdjust="spacing" textLength="158.2656" x="680.6382" y="401.7529">LogEnricherPostgreSql</text><rect fill="#E2E2F0" height="30.2969" rx="2.5" ry="2.5" style="stroke:#181818;stroke-width:0.5;" width="115.4248" x="855.9038" y="5"/><text fill="#000000" font-family="sans-serif" font-size="14" lengthAdjust="spacing" textLength="101.4248" x="862.9038" y="24.9951">EnrichmentOff</text><rect fill="#E2E2F0" height="30.2969" rx="2.5" ry="2.5" style="stroke:#181818;stroke-width:0.5;" width="115.4248" x="855.9038" y="381.7578"/><text fill="#000000" font-family="sans-serif" font-size="14" lengthAdjust="spacing" textLength="101.4248" x="862.9038" y="401.7529">EnrichmentOff</text><rect fill="#E2E2F0" height="30.2969" rx="2.5" ry="2.5" style="stroke:#181818;stroke-width:0.5;" width="80.8008" x="991.2534" y="5"/><text fill="#000000" font-family="sans-serif" font-size="14" lengthAdjust="spacing" textLength="66.8008" x="998.2534" y="24.9951">Database</text><rect fill="#E2E2F0" height="30.2969" rx="2.5" ry="2.5" style="stroke:#181818;stroke-width:0.5;" width="80.8008" x="991.2534" y="381.7578"/><text fill="#000000" font-family="sans-serif" font-size="14" lengthAdjust="spacing" textLength="66.8008" x="998.2534" y="401.7529">Database</text><rect fill="#FFFFFF" height="180.7969" style="stroke:#181818;stroke-width:1.0;" width="10" x="387.3101" y="67.4297"/><rect fill="#FFFFFF" height="122.5313" style="stroke:#181818;stroke-width:1.0;" width="10" x="575.2363" y="96.5625"/><rect fill="#FFFFFF" height="87.3984" style="stroke:#181818;stroke-width:1.0;" width="10" x="575.2363" y="277.3594"/><rect fill="#FFFFFF" height="29.1328" style="stroke:#181818;stroke-width:1.0;" width="10" x="754.771" y="160.8281"/><rect fill="#FFFFFF" height="29.1328" style="stroke:#181818;stroke-width:1.0;" width="10" x="908.6162" y="306.4922"/><polygon fill="#181818" points="375.3101,63.4297,385.3101,67.4297,375.3101,71.4297,379.3101,67.4297" style="stroke:#181818;stroke-width:1.0;"/><line style="stroke:#181818;stroke-width:1.0;" x1="0" x2="381.3101" y1="67.4297" y2="67.4297"/><text fill="#000000" font-family="sans-serif" font-size="13" lengthAdjust="spacing" textLength="307.5313" x="7" y="62.3638">initLogEnricherWithDbHostWoPgStatStatement</text><text fill="#808080" font-family="sans-serif" font-size="13" lengthAdjust="spacing" textLength="52.5142" x="322.7959" y="62.3638">18.1 ms</text><polygon fill="#181818" points="563.2363,92.5625,573.2363,96.5625,563.2363,100.5625,567.2363,96.5625" style="stroke:#181818;stroke-width:1.0;"/><line style="stroke:#181818;stroke-width:1.0;" x1="397.3101" x2="569.2363" y1="96.5625" y2="96.5625"/><text fill="#000000" font-family="sans-serif" font-size="13" lengthAdjust="spacing" textLength="98.1475" x="404.3101" y="91.4966">initLogEnricher</text><text fill="#808080" font-family="sans-serif" font-size="13" lengthAdjust="spacing" textLength="52.5142" x="510.7222" y="91.4966">17.2 ms</text><polygon fill="#181818" points="1019.6538,124.6953,1029.6538,128.6953,1019.6538,132.6953,1023.6538,128.6953" style="stroke:#181818;stroke-width:1.0;"/><line style="stroke:#181818;stroke-width:1.0;" x1="585.2363" x2="1025.6538" y1="128.6953" y2="128.6953"/><text fill="#000000" font-family="sans-serif" font-size="13" lengthAdjust="spacing" textLength="345.0967" x="592.2363" y="123.6294">select query from pg_stat_statements where queryid</text><text fill="#808080" font-family="sans-serif" font-size="13" lengthAdjust="spacing" textLength="69.0562" x="945.5977" y="123.6294">0.0521 ms</text><path d="M1036,109.5625 L1036,134.5625 L1419,134.5625 L1419,119.5625 L1409,109.5625 L1036,109.5625 " fill="#FEFFDD" style="stroke:#181818;stroke-width:0.5;"/><path d="M1409,109.5625 L1409,119.5625 L1419,119.5625 L1409,109.5625 " fill="#FEFFDD" style="stroke:#181818;stroke-width:0.5;"/><text fill="#000000" font-family="sans-serif" font-size="13" lengthAdjust="spacing" textLength="362.8892" x="1042" y="126.6294">select query from pg_stat_statements where queryid=?</text><polygon fill="#181818" points="742.771,156.8281,752.771,160.8281,742.771,164.8281,746.771,160.8281" style="stroke:#181818;stroke-width:1.0;"/><line style="stroke:#181818;stroke-width:1.0;" x1="585.2363" x2="748.771" y1="160.8281" y2="160.8281"/><text fill="#000000" font-family="sans-serif" font-size="13" lengthAdjust="spacing" textLength="89.7559" x="592.2363" y="155.7622">getStatement</text><text fill="#808080" font-family="sans-serif" font-size="13" lengthAdjust="spacing" textLength="52.5142" x="690.2568" y="155.7622">7.73 ms</text><polygon fill="#181818" points="596.2363,185.9609,586.2363,189.9609,596.2363,193.9609,592.2363,189.9609" style="stroke:#181818;stroke-width:1.0;"/><line style="stroke:#181818;stroke-width:1.0;stroke-dasharray:2.0,2.0;" x1="590.2363" x2="758.771" y1="189.9609" y2="189.9609"/><text fill="#000000" font-family="sans-serif" font-size="13" font-style="italic" lengthAdjust="spacing" textLength="69.2021" x="602.2363" y="184.895">exception!</text><polygon fill="#181818" points="408.3101,215.0938,398.3101,219.0938,408.3101,223.0938,404.3101,219.0938" style="stroke:#181818;stroke-width:1.0;"/><line style="stroke:#181818;stroke-width:1.0;stroke-dasharray:2.0,2.0;" x1="402.3101" x2="579.2363" y1="219.0938" y2="219.0938"/><text fill="#000000" font-family="sans-serif" font-size="13" font-style="italic" lengthAdjust="spacing" textLength="69.2021" x="414.3101" y="214.0278">exception!</text><polygon fill="#181818" points="11,244.2266,1,248.2266,11,252.2266,7,248.2266" style="stroke:#181818;stroke-width:1.0;"/><line style="stroke:#181818;stroke-width:1.0;stroke-dasharray:2.0,2.0;" x1="5" x2="391.3101" y1="248.2266" y2="248.2266"/><text fill="#000000" font-family="sans-serif" font-size="13" lengthAdjust="spacing" textLength="27.5107" x="17" y="243.1606">void</text><polygon fill="#181818" points="563.2363,273.3594,573.2363,277.3594,563.2363,281.3594,567.2363,277.3594" style="stroke:#181818;stroke-width:1.0;"/><line style="stroke:#181818;stroke-width:1.0;" x1="0" x2="569.2363" y1="277.3594" y2="277.3594"/><text fill="#000000" font-family="sans-serif" font-size="13" lengthAdjust="spacing" textLength="33.4839" x="7" y="272.2935">close</text><text fill="#808080" font-family="sans-serif" font-size="13" lengthAdjust="spacing" textLength="60.7852" x="48.7485" y="272.2935">0.058 ms</text><polygon fill="#181818" points="896.6162,302.4922,906.6162,306.4922,896.6162,310.4922,900.6162,306.4922" style="stroke:#181818;stroke-width:1.0;"/><line style="stroke:#181818;stroke-width:1.0;" x1="585.2363" x2="902.6162" y1="306.4922" y2="306.4922"/><text fill="#000000" font-family="sans-serif" font-size="13" lengthAdjust="spacing" textLength="33.4839" x="592.2363" y="301.4263">close</text><text fill="#808080" font-family="sans-serif" font-size="13" lengthAdjust="spacing" textLength="69.0562" x="633.9849" y="301.4263">0.0215 ms</text><polygon fill="#181818" points="596.2363,331.625,586.2363,335.625,596.2363,339.625,592.2363,335.625" style="stroke:#181818;stroke-width:1.0;"/><line style="stroke:#181818;stroke-width:1.0;stroke-dasharray:2.0,2.0;" x1="590.2363" x2="912.6162" y1="335.625" y2="335.625"/><text fill="#000000" font-family="sans-serif" font-size="13" lengthAdjust="spacing" textLength="27.5107" x="602.2363" y="330.5591">void</text><polygon fill="#181818" points="11,360.7578,1,364.7578,11,368.7578,7,364.7578" style="stroke:#181818;stroke-width:1.0;"/><line style="stroke:#181818;stroke-width:1.0;stroke-dasharray:2.0,2.0;" x1="5" x2="579.2363" y1="364.7578" y2="364.7578"/><text fill="#000000" font-family="sans-serif" font-size="13" lengthAdjust="spacing" textLength="27.5107" x="17" y="359.6919">void</text><!--SRC=[bLDTJy8m57tVhxZoliam1BBC-GA9CKP9CE5X3wPqPJGPxMWhoh-tJ91-BT47bd1xUiwvzvwsI2YAQOkOWcTUpvcWUBiZJBqHgG1967ZLGTGQbnPSgbgGvRvvafnrD-oI3Vzb8-8AitNC4_lorSVhPjDTiYesU8OKMYD9Ejpbpo02AEF2woa3ogWoBAoesixMZzh8YY_gfKBgz2CdFEIODrnajK370j9fai9EvhTTiT3y22jwq5X_dleG_6fSs0Fpl3Y2asHa2ngIDbDt1aunBYx3o42IXc05-myYZh0HV0Tj_IvrezsdwrR2fxP0VZ2qihqCa-5ubBfk05wuzY9elLNH_oNk7yuiSrO1qqmzRGG3aq5D-bOrIIPtlbT_NIPVK3kFunxnd1Ra2vDMKSvkybjw4Qd87sIyP6WTDnfX0OFUIq1fkhtc_S1f5OMD6N4j_N3YXkj7vSLWslC80ebq5sazuZw1KJhkJRr540NtvMYSkxVwTrdAmFZzgTc8Rm00]--></g></svg>