<svg xmlns="http://www.w3.org/2000/svg" xmlns:xlink="http://www.w3.org/1999/xlink" contentStyleType="text/css" height="440px" preserveAspectRatio="none" style="width:692px;height:440px;background:#FFFFFF;" version="1.1" viewBox="0 0 692 440" width="692px" zoomAndPan="magnify"><defs/><g><rect fill="#FFFFFF" height="319.3281" style="stroke:#181818;stroke-width:1.0;" width="10" x="217.4785" y="67.4297"/><rect fill="#FFFFFF" height="113.3984" style="stroke:#181818;stroke-width:1.0;" width="10" x="373.7231" y="120.6953"/><rect fill="#FFFFFF" height="40.1328" style="stroke:#181818;stroke-width:1.0;" width="10" x="378.7231" y="157.8281"/><rect fill="#FFFFFF" height="87.3984" style="stroke:#181818;stroke-width:1.0;" width="10" x="373.7231" y="270.2266"/><rect fill="#FFFFFF" height="29.1328" style="stroke:#181818;stroke-width:1.0;" width="10" x="623.7212" y="299.3594"/><rect fill="none" height="159.6641" style="stroke:#000000;stroke-width:1.5;" width="508.7017" x="125.0195" y="82.4297"/><line style="stroke:#181818;stroke-width:0.5;stroke-dasharray:5.0,5.0;" x1="222.0195" x2="222.0195" y1="36.2969" y2="404.7578"/><line style="stroke:#181818;stroke-width:0.5;stroke-dasharray:5.0,5.0;" x1="377.9375" x2="377.9375" y1="36.2969" y2="404.7578"/><line style="stroke:#181818;stroke-width:0.5;stroke-dasharray:5.0,5.0;" x1="628.0088" x2="628.0088" y1="36.2969" y2="404.7578"/><rect fill="#E2E2F0" height="30.2969" rx="2.5" ry="2.5" style="stroke:#181818;stroke-width:0.5;" width="174.918" x="135.0195" y="5"/><text fill="#000000" font-family="sans-serif" font-size="14" lengthAdjust="spacing" textLength="160.918" x="142.0195" y="24.9951">ValidateParameterTest</text><rect fill="#E2E2F0" height="30.2969" rx="2.5" ry="2.5" style="stroke:#181818;stroke-width:0.5;" width="174.918" x="135.0195" y="403.7578"/><text fill="#000000" font-family="sans-serif" font-size="14" lengthAdjust="spacing" textLength="160.918" x="142.0195" y="423.7529">ValidateParameterTest</text><rect fill="#E2E2F0" height="30.2969" rx="2.5" ry="2.5" style="stroke:#181818;stroke-width:0.5;" width="117.5713" x="319.9375" y="5"/><text fill="#000000" font-family="sans-serif" font-size="14" lengthAdjust="spacing" textLength="103.5713" x="326.9375" y="24.9951">PostgreSqlJson</text><rect fill="#E2E2F0" height="30.2969" rx="2.5" ry="2.5" style="stroke:#181818;stroke-width:0.5;" width="117.5713" x="319.9375" y="403.7578"/><text fill="#000000" font-family="sans-serif" font-size="14" lengthAdjust="spacing" textLength="103.5713" x="326.9375" y="423.7529">PostgreSqlJson</text><rect fill="#E2E2F0" height="30.2969" rx="2.5" ry="2.5" style="stroke:#181818;stroke-width:0.5;" width="115.4248" x="571.0088" y="5"/><text fill="#000000" font-family="sans-serif" font-size="14" lengthAdjust="spacing" textLength="101.4248" x="578.0088" y="24.9951">EnrichmentOff</text><rect fill="#E2E2F0" height="30.2969" rx="2.5" ry="2.5" style="stroke:#181818;stroke-width:0.5;" width="115.4248" x="571.0088" y="403.7578"/><text fill="#000000" font-family="sans-serif" font-size="14" lengthAdjust="spacing" textLength="101.4248" x="578.0088" y="423.7529">EnrichmentOff</text><rect fill="#FFFFFF" height="319.3281" style="stroke:#181818;stroke-width:1.0;" width="10" x="217.4785" y="67.4297"/><rect fill="#FFFFFF" height="113.3984" style="stroke:#181818;stroke-width:1.0;" width="10" x="373.7231" y="120.6953"/><rect fill="#FFFFFF" height="40.1328" style="stroke:#181818;stroke-width:1.0;" width="10" x="378.7231" y="157.8281"/><rect fill="#FFFFFF" height="87.3984" style="stroke:#181818;stroke-width:1.0;" width="10" x="373.7231" y="270.2266"/><rect fill="#FFFFFF" height="29.1328" style="stroke:#181818;stroke-width:1.0;" width="10" x="623.7212" y="299.3594"/><polygon fill="#181818" points="205.4785,63.4297,215.4785,67.4297,205.4785,71.4297,209.4785,67.4297" style="stroke:#181818;stroke-width:1.0;"/><line style="stroke:#181818;stroke-width:1.0;" x1="0" x2="211.4785" y1="67.4297" y2="67.4297"/><text fill="#000000" font-family="sans-serif" font-size="13" lengthAdjust="spacing" textLength="129.4287" x="7" y="62.3638">intervalOutOfRange</text><text fill="#808080" font-family="sans-serif" font-size="13" lengthAdjust="spacing" textLength="60.7852" x="144.6934" y="62.3638">0.152 ms</text><path d="M125.0195,82.4297 L201.6436,82.4297 L201.6436,89.5625 L191.6436,99.5625 L125.0195,99.5625 L125.0195,82.4297 " fill="#EEEEEE" style="stroke:#000000;stroke-width:1.5;"/><rect fill="none" height="159.6641" style="stroke:#000000;stroke-width:1.5;" width="508.7017" x="125.0195" y="82.4297"/><text fill="#000000" font-family="sans-serif" font-size="13" font-weight="bold" lengthAdjust="spacing" textLength="31.624" x="140.0195" y="95.4966">loop</text><text fill="#000000" font-family="sans-serif" font-size="11" font-weight="bold" lengthAdjust="spacing" textLength="51.0093" x="216.6436" y="94.6401">[2 times</text><text fill="#808080" font-family="sans-serif" font-size="11" font-weight="bold" lengthAdjust="spacing" textLength="64.2866" x="275.312" y="94.6401">0.0899 ms</text><text fill="#000000" font-family="sans-serif" font-size="11" font-weight="bold" lengthAdjust="spacing" textLength="5.0273" x="339.5986" y="94.6401">]</text><polygon fill="#181818" points="361.7231,116.6953,371.7231,120.6953,361.7231,124.6953,365.7231,120.6953" style="stroke:#181818;stroke-width:1.0;"/><line style="stroke:#181818;stroke-width:1.0;" x1="227.4785" x2="367.7231" y1="120.6953" y2="120.6953"/><text fill="#000000" font-family="sans-serif" font-size="13" lengthAdjust="spacing" textLength="22.3374" x="234.4785" y="115.6294">call</text><text fill="#808080" font-family="sans-serif" font-size="13" lengthAdjust="spacing" textLength="69.0562" x="265.0806" y="115.6294">0.0899 ms</text><line style="stroke:#181818;stroke-width:1.0;" x1="383.7231" x2="430.7231" y1="144.8281" y2="144.8281"/><line style="stroke:#181818;stroke-width:1.0;" x1="430.7231" x2="430.7231" y1="144.8281" y2="157.8281"/><line style="stroke:#181818;stroke-width:1.0;" x1="389.7231" x2="430.7231" y1="157.8281" y2="157.8281"/><polygon fill="#181818" points="399.7231,153.8281,389.7231,157.8281,399.7231,161.8281,395.7231,157.8281" style="stroke:#181818;stroke-width:1.0;"/><text fill="#000000" font-family="sans-serif" font-size="13" lengthAdjust="spacing" textLength="138.6772" x="395.7231" y="139.7622">watchPostgreSqlLogs</text><text fill="#808080" font-family="sans-serif" font-size="13" lengthAdjust="spacing" textLength="69.0562" x="542.665" y="139.7622">0.0482 ms</text><line style="stroke:#181818;stroke-width:1.0;stroke-dasharray:2.0,2.0;" x1="331.7231" x2="377.7231" y1="196.9609" y2="196.9609"/><line style="stroke:#181818;stroke-width:1.0;stroke-dasharray:2.0,2.0;" x1="331.7231" x2="331.7231" y1="196.9609" y2="209.9609"/><line style="stroke:#181818;stroke-width:1.0;stroke-dasharray:2.0,2.0;" x1="331.7231" x2="371.7231" y1="209.9609" y2="209.9609"/><polygon fill="#181818" points="361.7231,205.9609,371.7231,209.9609,361.7231,213.9609,365.7231,209.9609" style="stroke:#181818;stroke-width:1.0;"/><text fill="#000000" font-family="sans-serif" font-size="13" lengthAdjust="spacing" textLength="110.335" x="256.3882" y="191.895">java.lang.Integer</text><polygon fill="#181818" points="238.4785,230.0938,228.4785,234.0938,238.4785,238.0938,234.4785,234.0938" style="stroke:#181818;stroke-width:1.0;"/><line style="stroke:#181818;stroke-width:1.0;stroke-dasharray:2.0,2.0;" x1="232.4785" x2="377.7231" y1="234.0938" y2="234.0938"/><text fill="#000000" font-family="sans-serif" font-size="13" lengthAdjust="spacing" textLength="110.335" x="244.4785" y="229.0278">java.lang.Integer</text><polygon fill="#181818" points="361.7231,266.2266,371.7231,270.2266,361.7231,274.2266,365.7231,270.2266" style="stroke:#181818;stroke-width:1.0;"/><line style="stroke:#181818;stroke-width:1.0;" x1="227.4785" x2="367.7231" y1="270.2266" y2="270.2266"/><text fill="#000000" font-family="sans-serif" font-size="13" lengthAdjust="spacing" textLength="33.4839" x="234.4785" y="265.1606">close</text><text fill="#808080" font-family="sans-serif" font-size="13" lengthAdjust="spacing" textLength="69.0562" x="276.2271" y="265.1606">0.0212 ms</text><polygon fill="#181818" points="611.7212,295.3594,621.7212,299.3594,611.7212,303.3594,615.7212,299.3594" style="stroke:#181818;stroke-width:1.0;"/><line style="stroke:#181818;stroke-width:1.0;" x1="383.7231" x2="617.7212" y1="299.3594" y2="299.3594"/><text fill="#000000" font-family="sans-serif" font-size="13" lengthAdjust="spacing" textLength="33.4839" x="390.7231" y="294.2935">close</text><text fill="#808080" font-family="sans-serif" font-size="13" lengthAdjust="spacing" textLength="77.3271" x="432.4717" y="294.2935">0.00662 ms</text><polygon fill="#181818" points="394.7231,324.4922,384.7231,328.4922,394.7231,332.4922,390.7231,328.4922" style="stroke:#181818;stroke-width:1.0;"/><line style="stroke:#181818;stroke-width:1.0;stroke-dasharray:2.0,2.0;" x1="388.7231" x2="627.7212" y1="328.4922" y2="328.4922"/><text fill="#000000" font-family="sans-serif" font-size="13" lengthAdjust="spacing" textLength="27.5107" x="400.7231" y="323.4263">void</text><polygon fill="#181818" points="238.4785,353.625,228.4785,357.625,238.4785,361.625,234.4785,357.625" style="stroke:#181818;stroke-width:1.0;"/><line style="stroke:#181818;stroke-width:1.0;stroke-dasharray:2.0,2.0;" x1="232.4785" x2="377.7231" y1="357.625" y2="357.625"/><text fill="#000000" font-family="sans-serif" font-size="13" lengthAdjust="spacing" textLength="27.5107" x="244.4785" y="352.5591">void</text><polygon fill="#181818" points="11,382.7578,1,386.7578,11,390.7578,7,386.7578" style="stroke:#181818;stroke-width:1.0;"/><line style="stroke:#181818;stroke-width:1.0;stroke-dasharray:2.0,2.0;" x1="5" x2="221.4785" y1="386.7578" y2="386.7578"/><text fill="#000000" font-family="sans-serif" font-size="13" lengthAdjust="spacing" textLength="27.5107" x="17" y="381.6919">void</text><!--SRC=[bPCnRuCm48LtViM97KfG6oKHOilGAbAYjkgIwMGSuiZOr7Qf-k_heeZ6651WGkTxt-FkcHgLOOJLA0ny86S56df0XHKrLBrJRG0rX8CdOL3VY0zIcrBHjq_-egLeLMx9RTyAnSYveiBiJwUsswc40S0noWTzDy24VMsGxxzixokAaa9699TgKohyoI695qyfL3fxQAkvXI4nhB6auI5j0y1EoXfICAoYkizBLkkr2_nx1bbHxiwz0OAStmVilj95N4-XL_QTlj6Gytzn9qj_aiTLwXlFjSwYgEzzmGPZRiE8dsqy9LMTjA3JyC4rpd2Ovcz54Sm9YqljNQSaNNXBcvwfdvHpkyTSakKodRWK3YCOYQLdr4XM-6loIVTcqF6cbdwqmf5Vzwg_KGys_W80]--></g></svg>