<svg xmlns="http://www.w3.org/2000/svg" xmlns:xlink="http://www.w3.org/1999/xlink" contentStyleType="text/css" height="588px" preserveAspectRatio="none" style="width:809px;height:588px;background:#000000;" version="1.1" viewBox="0 0 809 588" width="809px" zoomAndPan="magnify"><defs/><g><rect fill="none" height="443.6563" style="stroke:#999999;stroke-width:1.0;" width="10" x="264.8047" y="83.9375"/><rect fill="none" height="367.7188" style="stroke:#999999;stroke-width:1.0;" width="10" x="487.918" y="121.9063"/><rect fill="none" height="48.9688" style="stroke:#999999;stroke-width:1.0;" width="10" x="492.918" y="167.875"/><rect fill="none" height="37.9688" style="stroke:#999999;stroke-width:1.0;" width="10" x="724.9707" y="261.8125"/><rect fill="none" height="37.9688" style="stroke:#999999;stroke-width:1.0;" width="10" x="724.9707" y="337.75"/><rect fill="none" height="37.9688" style="stroke:#999999;stroke-width:1.0;" width="10" x="724.9707" y="413.6875"/><line style="stroke:#999999;stroke-width:0.5;stroke-dasharray:5.0,5.0;" x1="269.7314" x2="269.7314" y1="43.9688" y2="545.5938"/><line style="stroke:#999999;stroke-width:0.5;stroke-dasharray:5.0,5.0;" x1="492.5303" x2="492.5303" y1="43.9688" y2="545.5938"/><line style="stroke:#999999;stroke-width:0.5;stroke-dasharray:5.0,5.0;" x1="729.2627" x2="729.2627" y1="43.9688" y2="545.5938"/><rect fill="#555555" height="37.9688" rx="4" ry="4" style="stroke:#555555;stroke-width:1.0;" width="132.1465" x="203.7314" y="5"/><text fill="#FFFFFF" font-family="Verdana" font-size="12" lengthAdjust="spacing" textLength="108.1465" x="215.7314" y="28.1387">WatchServiceTest</text><rect fill="#555555" height="37.9688" rx="4" ry="4" style="stroke:#555555;stroke-width:1.0;" width="132.1465" x="203.7314" y="544.5938"/><text fill="#FFFFFF" font-family="Verdana" font-size="12" lengthAdjust="spacing" textLength="108.1465" x="215.7314" y="567.7324">WatchServiceTest</text><rect fill="#555555" height="37.9688" rx="4" ry="4" style="stroke:#555555;stroke-width:1.0;" width="112.7754" x="436.5303" y="5"/><text fill="#FFFFFF" font-family="Verdana" font-size="12" lengthAdjust="spacing" textLength="88.7754" x="448.5303" y="28.1387">PostgreSqlJson</text><rect fill="#555555" height="37.9688" rx="4" ry="4" style="stroke:#555555;stroke-width:1.0;" width="112.7754" x="436.5303" y="544.5938"/><text fill="#FFFFFF" font-family="Verdana" font-size="12" lengthAdjust="spacing" textLength="88.7754" x="448.5303" y="567.7324">PostgreSqlJson</text><rect fill="#555555" height="37.9688" rx="4" ry="4" style="stroke:#555555;stroke-width:1.0;" width="147.416" x="656.2627" y="5"/><text fill="#FFFFFF" font-family="Verdana" font-size="12" lengthAdjust="spacing" textLength="123.416" x="668.2627" y="28.1387">WatchServiceTest$1</text><rect fill="#555555" height="37.9688" rx="4" ry="4" style="stroke:#555555;stroke-width:1.0;" width="147.416" x="656.2627" y="544.5938"/><text fill="#FFFFFF" font-family="Verdana" font-size="12" lengthAdjust="spacing" textLength="123.416" x="668.2627" y="567.7324">WatchServiceTest$1</text><rect fill="none" height="443.6563" style="stroke:#999999;stroke-width:1.0;" width="10" x="264.8047" y="83.9375"/><rect fill="none" height="367.7188" style="stroke:#999999;stroke-width:1.0;" width="10" x="487.918" y="121.9063"/><rect fill="none" height="48.9688" style="stroke:#999999;stroke-width:1.0;" width="10" x="492.918" y="167.875"/><rect fill="none" height="37.9688" style="stroke:#999999;stroke-width:1.0;" width="10" x="724.9707" y="261.8125"/><rect fill="none" height="37.9688" style="stroke:#999999;stroke-width:1.0;" width="10" x="724.9707" y="337.75"/><rect fill="none" height="37.9688" style="stroke:#999999;stroke-width:1.0;" width="10" x="724.9707" y="413.6875"/><polygon fill="#4362B1" points="252.8047,79.9375,262.8047,83.9375,252.8047,87.9375,256.8047,83.9375" style="stroke:#4362B1;stroke-width:1.0;"/><line style="stroke:#4362B1;stroke-width:3.0;" x1="0" x2="258.8047" y1="83.9375" y2="83.9375"/><text fill="#FFFFFF" font-family="Verdana" font-size="12" lengthAdjust="spacing" textLength="179.7012" x="12" y="74.1074">testWatchServiceSkipNonJson</text><text fill="#808080" font-family="Verdana" font-size="12" lengthAdjust="spacing" textLength="48.4746" x="199.3301" y="74.1074">15.7 ms</text><polygon fill="#4362B1" points="475.918,117.9063,485.918,121.9063,475.918,125.9063,479.918,121.9063" style="stroke:#4362B1;stroke-width:1.0;"/><line style="stroke:#4362B1;stroke-width:3.0;" x1="274.8047" x2="481.918" y1="121.9063" y2="121.9063"/><text fill="#FFFFFF" font-family="Verdana" font-size="12" lengthAdjust="spacing" textLength="128.0098" x="286.8047" y="112.0762">watchPostgreSqlLogs</text><text fill="#808080" font-family="Verdana" font-size="12" lengthAdjust="spacing" textLength="48.4746" x="422.4434" y="112.0762">0.56 ms</text><line style="stroke:#4362B1;stroke-width:3.0;" x1="497.918" x2="544.918" y1="154.875" y2="154.875"/><line style="stroke:#4362B1;stroke-width:3.0;" x1="544.918" x2="544.918" y1="154.875" y2="167.875"/><line style="stroke:#4362B1;stroke-width:3.0;" x1="503.918" x2="544.918" y1="167.875" y2="167.875"/><polygon fill="#4362B1" points="513.918,163.875,503.918,167.875,513.918,171.875,509.918,167.875" style="stroke:#4362B1;stroke-width:1.0;"/><text fill="#FFFFFF" font-family="Verdana" font-size="12" lengthAdjust="spacing" textLength="90.5977" x="514.918" y="145.0449">initLogEnricher</text><text fill="#808080" font-family="Verdana" font-size="12" lengthAdjust="spacing" textLength="63.7441" x="613.1445" y="145.0449">0.0211 ms</text><line style="stroke:#4362B1;stroke-width:3.0;stroke-dasharray:2.0,2.0;" x1="445.918" x2="491.918" y1="215.8438" y2="215.8438"/><line style="stroke:#4362B1;stroke-width:3.0;stroke-dasharray:2.0,2.0;" x1="445.918" x2="445.918" y1="215.8438" y2="228.8438"/><line style="stroke:#4362B1;stroke-width:3.0;stroke-dasharray:2.0,2.0;" x1="445.918" x2="485.918" y1="228.8438" y2="228.8438"/><polygon fill="#4362B1" points="475.918,224.8438,485.918,228.8438,475.918,232.8438,479.918,228.8438" style="stroke:#4362B1;stroke-width:1.0;"/><text fill="#FFFFFF" font-family="Verdana" font-size="12" lengthAdjust="spacing" textLength="25.3945" x="449.918" y="206.0137">void</text><polygon fill="#4362B1" points="712.9707,257.8125,722.9707,261.8125,712.9707,265.8125,716.9707,261.8125" style="stroke:#4362B1;stroke-width:1.0;"/><line style="stroke:#4362B1;stroke-width:3.0;" x1="497.918" x2="718.9707" y1="261.8125" y2="261.8125"/><text fill="#FFFFFF" font-family="Verdana" font-size="12" lengthAdjust="spacing" textLength="102.6211" x="509.918" y="251.9824">positionFileTasks</text><text fill="#808080" font-family="Verdana" font-size="12" lengthAdjust="spacing" textLength="63.7441" x="620.168" y="251.9824">0.0159 ms</text><polygon fill="#4362B1" points="508.918,295.7813,498.918,299.7813,508.918,303.7813,504.918,299.7813" style="stroke:#4362B1;stroke-width:1.0;"/><line style="stroke:#4362B1;stroke-width:3.0;stroke-dasharray:2.0,2.0;" x1="502.918" x2="728.9707" y1="299.7813" y2="299.7813"/><text fill="#FFFFFF" font-family="Verdana" font-size="12" lengthAdjust="spacing" textLength="100.9043" x="519.918" y="289.9512">java.lang.Thread</text><polygon fill="#4362B1" points="712.9707,333.75,722.9707,337.75,712.9707,341.75,716.9707,337.75" style="stroke:#4362B1;stroke-width:1.0;"/><line style="stroke:#4362B1;stroke-width:3.0;" x1="497.918" x2="718.9707" y1="337.75" y2="337.75"/><text fill="#FFFFFF" font-family="Verdana" font-size="12" lengthAdjust="spacing" textLength="94.4707" x="509.918" y="327.9199">initialLogImport</text><text fill="#808080" font-family="Verdana" font-size="12" lengthAdjust="spacing" textLength="63.7441" x="612.0176" y="327.9199">0.0159 ms</text><polygon fill="#4362B1" points="508.918,371.7188,498.918,375.7188,508.918,379.7188,504.918,375.7188" style="stroke:#4362B1;stroke-width:1.0;"/><line style="stroke:#4362B1;stroke-width:3.0;stroke-dasharray:2.0,2.0;" x1="502.918" x2="728.9707" y1="375.7188" y2="375.7188"/><text fill="#FFFFFF" font-family="Verdana" font-size="12" lengthAdjust="spacing" textLength="25.3945" x="519.918" y="365.8887">void</text><polygon fill="#4362B1" points="712.9707,409.6875,722.9707,413.6875,712.9707,417.6875,716.9707,413.6875" style="stroke:#4362B1;stroke-width:1.0;"/><line style="stroke:#4362B1;stroke-width:3.0;" x1="497.918" x2="718.9707" y1="413.6875" y2="413.6875"/><text fill="#FFFFFF" font-family="Verdana" font-size="12" lengthAdjust="spacing" textLength="119.0449" x="509.918" y="403.8574">registerWatchEvent</text><text fill="#808080" font-family="Verdana" font-size="12" lengthAdjust="spacing" textLength="71.3789" x="636.5918" y="403.8574">0.00914 ms</text><polygon fill="#4362B1" points="508.918,447.6563,498.918,451.6563,508.918,455.6563,504.918,451.6563" style="stroke:#4362B1;stroke-width:1.0;"/><line style="stroke:#4362B1;stroke-width:3.0;stroke-dasharray:2.0,2.0;" x1="502.918" x2="728.9707" y1="451.6563" y2="451.6563"/><text fill="#FFFFFF" font-family="Verdana" font-size="12" lengthAdjust="spacing" textLength="25.3945" x="519.918" y="441.8262">void</text><polygon fill="#4362B1" points="285.8047,485.625,275.8047,489.625,285.8047,493.625,281.8047,489.625" style="stroke:#4362B1;stroke-width:1.0;"/><line style="stroke:#4362B1;stroke-width:3.0;stroke-dasharray:2.0,2.0;" x1="279.8047" x2="491.918" y1="489.625" y2="489.625"/><text fill="#FFFFFF" font-family="Verdana" font-size="12" lengthAdjust="spacing" textLength="101.8477" x="296.8047" y="479.7949">java.lang.Integer</text><polygon fill="#4362B1" points="11,523.5938,1,527.5938,11,531.5938,7,527.5938" style="stroke:#4362B1;stroke-width:1.0;"/><line style="stroke:#4362B1;stroke-width:3.0;stroke-dasharray:2.0,2.0;" x1="5" x2="268.8047" y1="527.5938" y2="527.5938"/><text fill="#FFFFFF" font-family="Verdana" font-size="12" lengthAdjust="spacing" textLength="25.3945" x="22" y="517.7637">void</text><!--SRC=[pPHDIyD048Rl_HLhy9ga4QiqbDmgL4I45Zpq8EjsICOck-lk9CL_xpOLstnOBO9uoU6TsNdctPdi6KgHboieJSuo8ctZC3Hy4wH8MVbSMZ12IG99WL15c09nhGkkGvrpIMMH-vH10M71KOQxq4u9j0iED3U40hNBPO-SH3O7Kw601LXYt3AlBNgD8m_AKcfW_fhVMYNh0qt9EqfuYdePvv4tO6pf9-r0pCXz3zNv6lMzaZLz8bIkJ9mQ_fQmQ1HSiy9EmbfCN3qk22jEqEd2nLX7z9EcaPXjjXbxyKwbjeaS1gEh9l80sgnMnrXBx29H8ZdEL1eK6PWsRdWHHMtWQSY9xxUPbSBLH-uAJck_EzwOQMMHKCaRp671xRfpPyDeD3vYeblpAoDzz1TUyS3z26cmo0pm7cC_hDzlRZiVvDjLc1LQ6VfJR_s3-fKV0obQ0bF7ffLxL3gEXkFeydzOQiizkxmV_ymzaIcOmNThlUpfxBEl8psz0m00]--></g></svg>