<svg xmlns="http://www.w3.org/2000/svg" xmlns:xlink="http://www.w3.org/1999/xlink" contentStyleType="text/css" height="588px" preserveAspectRatio="none" style="width:805px;height:588px;background:#000000;" version="1.1" viewBox="0 0 805 588" width="805px" zoomAndPan="magnify"><defs/><g><rect fill="none" height="443.6563" style="stroke:#999999;stroke-width:1.0;" width="10" x="253.3555" y="83.9375"/><rect fill="none" height="367.7188" style="stroke:#999999;stroke-width:1.0;" width="10" x="484.1035" y="121.9063"/><rect fill="none" height="48.9688" style="stroke:#999999;stroke-width:1.0;" width="10" x="489.1035" y="167.875"/><rect fill="none" height="37.9688" style="stroke:#999999;stroke-width:1.0;" width="10" x="721.1563" y="261.8125"/><rect fill="none" height="37.9688" style="stroke:#999999;stroke-width:1.0;" width="10" x="721.1563" y="337.75"/><rect fill="none" height="37.9688" style="stroke:#999999;stroke-width:1.0;" width="10" x="721.1563" y="413.6875"/><line style="stroke:#999999;stroke-width:0.5;stroke-dasharray:5.0,5.0;" x1="258.2822" x2="258.2822" y1="43.9688" y2="545.5938"/><line style="stroke:#999999;stroke-width:0.5;stroke-dasharray:5.0,5.0;" x1="488.7158" x2="488.7158" y1="43.9688" y2="545.5938"/><line style="stroke:#999999;stroke-width:0.5;stroke-dasharray:5.0,5.0;" x1="725.4482" x2="725.4482" y1="43.9688" y2="545.5938"/><rect fill="#555555" height="37.9688" rx="4" ry="4" style="stroke:#555555;stroke-width:1.0;" width="132.1465" x="192.2822" y="5"/><text fill="#FFFFFF" font-family="Verdana" font-size="12" lengthAdjust="spacing" textLength="108.1465" x="204.2822" y="28.1387">WatchServiceTest</text><rect fill="#555555" height="37.9688" rx="4" ry="4" style="stroke:#555555;stroke-width:1.0;" width="132.1465" x="192.2822" y="544.5938"/><text fill="#FFFFFF" font-family="Verdana" font-size="12" lengthAdjust="spacing" textLength="108.1465" x="204.2822" y="567.7324">WatchServiceTest</text><rect fill="#555555" height="37.9688" rx="4" ry="4" style="stroke:#555555;stroke-width:1.0;" width="112.7754" x="432.7158" y="5"/><text fill="#FFFFFF" font-family="Verdana" font-size="12" lengthAdjust="spacing" textLength="88.7754" x="444.7158" y="28.1387">PostgreSqlJson</text><rect fill="#555555" height="37.9688" rx="4" ry="4" style="stroke:#555555;stroke-width:1.0;" width="112.7754" x="432.7158" y="544.5938"/><text fill="#FFFFFF" font-family="Verdana" font-size="12" lengthAdjust="spacing" textLength="88.7754" x="444.7158" y="567.7324">PostgreSqlJson</text><rect fill="#555555" height="37.9688" rx="4" ry="4" style="stroke:#555555;stroke-width:1.0;" width="147.416" x="652.4482" y="5"/><text fill="#FFFFFF" font-family="Verdana" font-size="12" lengthAdjust="spacing" textLength="123.416" x="664.4482" y="28.1387">WatchServiceTest$1</text><rect fill="#555555" height="37.9688" rx="4" ry="4" style="stroke:#555555;stroke-width:1.0;" width="147.416" x="652.4482" y="544.5938"/><text fill="#FFFFFF" font-family="Verdana" font-size="12" lengthAdjust="spacing" textLength="123.416" x="664.4482" y="567.7324">WatchServiceTest$1</text><rect fill="none" height="443.6563" style="stroke:#999999;stroke-width:1.0;" width="10" x="253.3555" y="83.9375"/><rect fill="none" height="367.7188" style="stroke:#999999;stroke-width:1.0;" width="10" x="484.1035" y="121.9063"/><rect fill="none" height="48.9688" style="stroke:#999999;stroke-width:1.0;" width="10" x="489.1035" y="167.875"/><rect fill="none" height="37.9688" style="stroke:#999999;stroke-width:1.0;" width="10" x="721.1563" y="261.8125"/><rect fill="none" height="37.9688" style="stroke:#999999;stroke-width:1.0;" width="10" x="721.1563" y="337.75"/><rect fill="none" height="37.9688" style="stroke:#999999;stroke-width:1.0;" width="10" x="721.1563" y="413.6875"/><polygon fill="#4362B1" points="241.3555,79.9375,251.3555,83.9375,241.3555,87.9375,245.3555,83.9375" style="stroke:#4362B1;stroke-width:1.0;"/><line style="stroke:#4362B1;stroke-width:3.0;" x1="0" x2="247.3555" y1="83.9375" y2="83.9375"/><text fill="#FFFFFF" font-family="Verdana" font-size="12" lengthAdjust="spacing" textLength="179.7012" x="12" y="74.1074">testWatchServiceSkipNonJson</text><text fill="#808080" font-family="Verdana" font-size="12" lengthAdjust="spacing" textLength="37.0254" x="199.3301" y="74.1074">16 ms</text><polygon fill="#4362B1" points="472.1035,117.9063,482.1035,121.9063,472.1035,125.9063,476.1035,121.9063" style="stroke:#4362B1;stroke-width:1.0;"/><line style="stroke:#4362B1;stroke-width:3.0;" x1="263.3555" x2="478.1035" y1="121.9063" y2="121.9063"/><text fill="#FFFFFF" font-family="Verdana" font-size="12" lengthAdjust="spacing" textLength="128.0098" x="275.3555" y="112.0762">watchPostgreSqlLogs</text><text fill="#808080" font-family="Verdana" font-size="12" lengthAdjust="spacing" textLength="56.1094" x="410.9941" y="112.0762">0.573 ms</text><line style="stroke:#4362B1;stroke-width:3.0;" x1="494.1035" x2="541.1035" y1="154.875" y2="154.875"/><line style="stroke:#4362B1;stroke-width:3.0;" x1="541.1035" x2="541.1035" y1="154.875" y2="167.875"/><line style="stroke:#4362B1;stroke-width:3.0;" x1="500.1035" x2="541.1035" y1="167.875" y2="167.875"/><polygon fill="#4362B1" points="510.1035,163.875,500.1035,167.875,510.1035,171.875,506.1035,167.875" style="stroke:#4362B1;stroke-width:1.0;"/><text fill="#FFFFFF" font-family="Verdana" font-size="12" lengthAdjust="spacing" textLength="90.5977" x="511.1035" y="145.0449">initLogEnricher</text><text fill="#808080" font-family="Verdana" font-size="12" lengthAdjust="spacing" textLength="63.7441" x="609.3301" y="145.0449">0.0166 ms</text><line style="stroke:#4362B1;stroke-width:3.0;stroke-dasharray:2.0,2.0;" x1="442.1035" x2="488.1035" y1="215.8438" y2="215.8438"/><line style="stroke:#4362B1;stroke-width:3.0;stroke-dasharray:2.0,2.0;" x1="442.1035" x2="442.1035" y1="215.8438" y2="228.8438"/><line style="stroke:#4362B1;stroke-width:3.0;stroke-dasharray:2.0,2.0;" x1="442.1035" x2="482.1035" y1="228.8438" y2="228.8438"/><polygon fill="#4362B1" points="472.1035,224.8438,482.1035,228.8438,472.1035,232.8438,476.1035,228.8438" style="stroke:#4362B1;stroke-width:1.0;"/><text fill="#FFFFFF" font-family="Verdana" font-size="12" lengthAdjust="spacing" textLength="25.3945" x="446.1035" y="206.0137">void</text><polygon fill="#4362B1" points="709.1563,257.8125,719.1563,261.8125,709.1563,265.8125,713.1563,261.8125" style="stroke:#4362B1;stroke-width:1.0;"/><line style="stroke:#4362B1;stroke-width:3.0;" x1="494.1035" x2="715.1563" y1="261.8125" y2="261.8125"/><text fill="#FFFFFF" font-family="Verdana" font-size="12" lengthAdjust="spacing" textLength="102.6211" x="506.1035" y="251.9824">positionFileTasks</text><text fill="#808080" font-family="Verdana" font-size="12" lengthAdjust="spacing" textLength="63.7441" x="616.3535" y="251.9824">0.0144 ms</text><polygon fill="#4362B1" points="505.1035,295.7813,495.1035,299.7813,505.1035,303.7813,501.1035,299.7813" style="stroke:#4362B1;stroke-width:1.0;"/><line style="stroke:#4362B1;stroke-width:3.0;stroke-dasharray:2.0,2.0;" x1="499.1035" x2="725.1563" y1="299.7813" y2="299.7813"/><text fill="#FFFFFF" font-family="Verdana" font-size="12" lengthAdjust="spacing" textLength="100.9043" x="516.1035" y="289.9512">java.lang.Thread</text><polygon fill="#4362B1" points="709.1563,333.75,719.1563,337.75,709.1563,341.75,713.1563,337.75" style="stroke:#4362B1;stroke-width:1.0;"/><line style="stroke:#4362B1;stroke-width:3.0;" x1="494.1035" x2="715.1563" y1="337.75" y2="337.75"/><text fill="#FFFFFF" font-family="Verdana" font-size="12" lengthAdjust="spacing" textLength="94.4707" x="506.1035" y="327.9199">initialLogImport</text><text fill="#808080" font-family="Verdana" font-size="12" lengthAdjust="spacing" textLength="63.7441" x="608.2031" y="327.9199">0.0139 ms</text><polygon fill="#4362B1" points="505.1035,371.7188,495.1035,375.7188,505.1035,379.7188,501.1035,375.7188" style="stroke:#4362B1;stroke-width:1.0;"/><line style="stroke:#4362B1;stroke-width:3.0;stroke-dasharray:2.0,2.0;" x1="499.1035" x2="725.1563" y1="375.7188" y2="375.7188"/><text fill="#FFFFFF" font-family="Verdana" font-size="12" lengthAdjust="spacing" textLength="25.3945" x="516.1035" y="365.8887">void</text><polygon fill="#4362B1" points="709.1563,409.6875,719.1563,413.6875,709.1563,417.6875,713.1563,413.6875" style="stroke:#4362B1;stroke-width:1.0;"/><line style="stroke:#4362B1;stroke-width:3.0;" x1="494.1035" x2="715.1563" y1="413.6875" y2="413.6875"/><text fill="#FFFFFF" font-family="Verdana" font-size="12" lengthAdjust="spacing" textLength="119.0449" x="506.1035" y="403.8574">registerWatchEvent</text><text fill="#808080" font-family="Verdana" font-size="12" lengthAdjust="spacing" textLength="71.3789" x="632.7773" y="403.8574">0.00933 ms</text><polygon fill="#4362B1" points="505.1035,447.6563,495.1035,451.6563,505.1035,455.6563,501.1035,451.6563" style="stroke:#4362B1;stroke-width:1.0;"/><line style="stroke:#4362B1;stroke-width:3.0;stroke-dasharray:2.0,2.0;" x1="499.1035" x2="725.1563" y1="451.6563" y2="451.6563"/><text fill="#FFFFFF" font-family="Verdana" font-size="12" lengthAdjust="spacing" textLength="25.3945" x="516.1035" y="441.8262">void</text><polygon fill="#4362B1" points="274.3555,485.625,264.3555,489.625,274.3555,493.625,270.3555,489.625" style="stroke:#4362B1;stroke-width:1.0;"/><line style="stroke:#4362B1;stroke-width:3.0;stroke-dasharray:2.0,2.0;" x1="268.3555" x2="488.1035" y1="489.625" y2="489.625"/><text fill="#FFFFFF" font-family="Verdana" font-size="12" lengthAdjust="spacing" textLength="101.8477" x="285.3555" y="479.7949">java.lang.Integer</text><polygon fill="#4362B1" points="11,523.5938,1,527.5938,11,531.5938,7,527.5938" style="stroke:#4362B1;stroke-width:1.0;"/><line style="stroke:#4362B1;stroke-width:3.0;stroke-dasharray:2.0,2.0;" x1="5" x2="257.3555" y1="527.5938" y2="527.5938"/><text fill="#FFFFFF" font-family="Verdana" font-size="12" lengthAdjust="spacing" textLength="25.3945" x="22" y="517.7637">void</text><!--SRC=[pPHFIyD04CNl_HHhy9ga9RNIK7ghK14HMl3GWwpR8HcRxAwxanI_lTjKRFF7QX71ImxlpSvl7hFP2vGYAzPGc8obHDh6OMZuDaYGqkAvi624aWII0g7oC07YMkTSXphZaeeyyoc57CASemptrbu9j3DxcXj2WThLiaTE8bs0AL704YmnRfdN5BtQaGTbAJ6mUCrkhPBLWRhadIGy3JePbmElnzZAdpQDc97x7gkB3Ufx9IlwHAXCcJWn_6tA1YEMsqbOILFNZGl2aXEqPd0UQud-j1uZPjjTnK6yKucj0_l1rNLKPnvHw-qgZpN4DXCbaWFDf46HWcdo-eFHg0ay3pdn_IQpLBZ-g5t3UUEtjniphImIAdc36IovtTXsYE7mH8Xspw-2TD5VUCa3znyamJ8rm3k2_R1_TxZTVf3lxi8yryfGEriq_hDitOlwLHu32Le2KtcpqhqfhKJzSHJzZqXDkUCk7zO_Toza0gRttRLUTKpsETU9cTu1]--></g></svg>