<svg xmlns="http://www.w3.org/2000/svg" xmlns:xlink="http://www.w3.org/1999/xlink" contentStyleType="text/css" height="355px" preserveAspectRatio="none" style="width:697px;height:355px;background:#FFFFFF;" version="1.1" viewBox="0 0 697 355" width="697px" zoomAndPan="magnify"><defs/><g><rect fill="#FFFFFF" height="235.0625" style="stroke:#181818;stroke-width:1.0;" width="10" x="162.3745" y="67.4297"/><rect fill="#FFFFFF" height="176.7969" style="stroke:#181818;stroke-width:1.0;" width="10" x="347.2983" y="96.5625"/><rect fill="#FFFFFF" height="29.1328" style="stroke:#181818;stroke-width:1.0;" width="10" x="618.5313" y="149.8281"/><rect fill="#FFFFFF" height="29.1328" style="stroke:#181818;stroke-width:1.0;" width="10" x="618.5313" y="215.0938"/><rect fill="none" height="75.3984" style="stroke:#000000;stroke-width:1.5;" width="407.731" x="283.5127" y="111.5625"/><line style="stroke:#181818;stroke-width:0.5;stroke-dasharray:5.0,5.0;" x1="166.6147" x2="166.6147" y1="36.2969" y2="320.4922"/><line style="stroke:#181818;stroke-width:0.5;stroke-dasharray:5.0,5.0;" x1="351.5127" x2="351.5127" y1="36.2969" y2="320.4922"/><line style="stroke:#181818;stroke-width:0.5;stroke-dasharray:5.0,5.0;" x1="622.8188" x2="622.8188" y1="36.2969" y2="320.4922"/><rect fill="#E2E2F0" height="30.2969" rx="2.5" ry="2.5" style="stroke:#181818;stroke-width:0.5;" width="147.5195" x="93.6147" y="5"/><text fill="#000000" font-family="sans-serif" font-size="14" lengthAdjust="spacing" textLength="133.5195" x="100.6147" y="24.9951">PostgreSqlJsonTest</text><rect fill="#E2E2F0" height="30.2969" rx="2.5" ry="2.5" style="stroke:#181818;stroke-width:0.5;" width="147.5195" x="93.6147" y="319.4922"/><text fill="#000000" font-family="sans-serif" font-size="14" lengthAdjust="spacing" textLength="133.5195" x="100.6147" y="339.4873">PostgreSqlJsonTest</text><rect fill="#E2E2F0" height="30.2969" rx="2.5" ry="2.5" style="stroke:#181818;stroke-width:0.5;" width="117.5713" x="293.5127" y="5"/><text fill="#000000" font-family="sans-serif" font-size="14" lengthAdjust="spacing" textLength="103.5713" x="300.5127" y="24.9951">PostgreSqlJson</text><rect fill="#E2E2F0" height="30.2969" rx="2.5" ry="2.5" style="stroke:#181818;stroke-width:0.5;" width="117.5713" x="293.5127" y="319.4922"/><text fill="#000000" font-family="sans-serif" font-size="14" lengthAdjust="spacing" textLength="103.5713" x="300.5127" y="339.4873">PostgreSqlJson</text><rect fill="#E2E2F0" height="30.2969" rx="2.5" ry="2.5" style="stroke:#181818;stroke-width:0.5;" width="115.4248" x="565.8188" y="5"/><text fill="#000000" font-family="sans-serif" font-size="14" lengthAdjust="spacing" textLength="101.4248" x="572.8188" y="24.9951">EnrichmentOff</text><rect fill="#E2E2F0" height="30.2969" rx="2.5" ry="2.5" style="stroke:#181818;stroke-width:0.5;" width="115.4248" x="565.8188" y="319.4922"/><text fill="#000000" font-family="sans-serif" font-size="14" lengthAdjust="spacing" textLength="101.4248" x="572.8188" y="339.4873">EnrichmentOff</text><rect fill="#FFFFFF" height="235.0625" style="stroke:#181818;stroke-width:1.0;" width="10" x="162.3745" y="67.4297"/><rect fill="#FFFFFF" height="176.7969" style="stroke:#181818;stroke-width:1.0;" width="10" x="347.2983" y="96.5625"/><rect fill="#FFFFFF" height="29.1328" style="stroke:#181818;stroke-width:1.0;" width="10" x="618.5313" y="149.8281"/><rect fill="#FFFFFF" height="29.1328" style="stroke:#181818;stroke-width:1.0;" width="10" x="618.5313" y="215.0938"/><polygon fill="#181818" points="150.3745,63.4297,160.3745,67.4297,150.3745,71.4297,154.3745,67.4297" style="stroke:#181818;stroke-width:1.0;"/><line style="stroke:#181818;stroke-width:1.0;" x1="0" x2="156.3745" y1="67.4297" y2="67.4297"/><text fill="#000000" font-family="sans-serif" font-size="13" lengthAdjust="spacing" textLength="74.3247" x="7" y="62.3638">logWarning</text><text fill="#808080" font-family="sans-serif" font-size="13" lengthAdjust="spacing" textLength="60.7852" x="89.5894" y="62.3638">0.187 ms</text><polygon fill="#181818" points="335.2983,92.5625,345.2983,96.5625,335.2983,100.5625,339.2983,96.5625" style="stroke:#181818;stroke-width:1.0;"/><line style="stroke:#181818;stroke-width:1.0;" x1="172.3745" x2="341.2983" y1="96.5625" y2="96.5625"/><text fill="#000000" font-family="sans-serif" font-size="13" lengthAdjust="spacing" textLength="86.874" x="179.3745" y="91.4966">parseLogLine</text><text fill="#808080" font-family="sans-serif" font-size="13" lengthAdjust="spacing" textLength="60.7852" x="274.5132" y="91.4966">0.159 ms</text><path d="M283.5127,111.5625 L360.1367,111.5625 L360.1367,118.6953 L350.1367,128.6953 L283.5127,128.6953 L283.5127,111.5625 " fill="#EEEEEE" style="stroke:#000000;stroke-width:1.5;"/><rect fill="none" height="75.3984" style="stroke:#000000;stroke-width:1.5;" width="407.731" x="283.5127" y="111.5625"/><text fill="#000000" font-family="sans-serif" font-size="13" font-weight="bold" lengthAdjust="spacing" textLength="31.624" x="298.5127" y="124.6294">loop</text><text fill="#000000" font-family="sans-serif" font-size="11" font-weight="bold" lengthAdjust="spacing" textLength="51.0093" x="375.1367" y="123.7729">[2 times</text><text fill="#808080" font-family="sans-serif" font-size="11" font-weight="bold" lengthAdjust="spacing" textLength="64.2866" x="433.8052" y="123.7729">0.0311 ms</text><text fill="#000000" font-family="sans-serif" font-size="11" font-weight="bold" lengthAdjust="spacing" textLength="5.0273" x="498.0918" y="123.7729">]</text><polygon fill="#181818" points="606.5313,145.8281,616.5313,149.8281,606.5313,153.8281,610.5313,149.8281" style="stroke:#181818;stroke-width:1.0;"/><line style="stroke:#181818;stroke-width:1.0;" x1="357.2983" x2="612.5313" y1="149.8281" y2="149.8281"/><text fill="#000000" font-family="sans-serif" font-size="13" lengthAdjust="spacing" textLength="164.9121" x="364.2983" y="144.7622">enricherApplicationName</text><text fill="#808080" font-family="sans-serif" font-size="13" lengthAdjust="spacing" textLength="69.0562" x="537.4751" y="144.7622">0.0311 ms</text><polygon fill="#181818" points="368.2983,174.9609,358.2983,178.9609,368.2983,182.9609,364.2983,178.9609" style="stroke:#181818;stroke-width:1.0;"/><line style="stroke:#181818;stroke-width:1.0;stroke-dasharray:2.0,2.0;" x1="362.2983" x2="622.5313" y1="178.9609" y2="178.9609"/><text fill="#000000" font-family="sans-serif" font-size="13" lengthAdjust="spacing" textLength="27.5107" x="374.2983" y="173.895">void</text><polygon fill="#181818" points="606.5313,211.0938,616.5313,215.0938,606.5313,219.0938,610.5313,215.0938" style="stroke:#181818;stroke-width:1.0;"/><line style="stroke:#181818;stroke-width:1.0;" x1="357.2983" x2="612.5313" y1="215.0938" y2="215.0938"/><text fill="#000000" font-family="sans-serif" font-size="13" lengthAdjust="spacing" textLength="89.7559" x="364.2983" y="210.0278">getStatement</text><text fill="#808080" font-family="sans-serif" font-size="13" lengthAdjust="spacing" textLength="77.3271" x="462.3188" y="210.0278">0.00665 ms</text><polygon fill="#181818" points="368.2983,240.2266,358.2983,244.2266,368.2983,248.2266,364.2983,244.2266" style="stroke:#181818;stroke-width:1.0;"/><line style="stroke:#181818;stroke-width:1.0;stroke-dasharray:2.0,2.0;" x1="362.2983" x2="622.5313" y1="244.2266" y2="244.2266"/><text fill="#000000" font-family="sans-serif" font-size="13" lengthAdjust="spacing" textLength="27.5107" x="374.2983" y="239.1606">void</text><polygon fill="#181818" points="183.3745,269.3594,173.3745,273.3594,183.3745,277.3594,179.3745,273.3594" style="stroke:#181818;stroke-width:1.0;"/><line style="stroke:#181818;stroke-width:1.0;stroke-dasharray:2.0,2.0;" x1="177.3745" x2="351.2983" y1="273.3594" y2="273.3594"/><text fill="#000000" font-family="sans-serif" font-size="13" lengthAdjust="spacing" textLength="27.5107" x="189.3745" y="268.2935">void</text><polygon fill="#181818" points="11,298.4922,1,302.4922,11,306.4922,7,302.4922" style="stroke:#181818;stroke-width:1.0;"/><line style="stroke:#181818;stroke-width:1.0;stroke-dasharray:2.0,2.0;" x1="5" x2="166.3745" y1="302.4922" y2="302.4922"/><text fill="#000000" font-family="sans-serif" font-size="13" lengthAdjust="spacing" textLength="27.5107" x="17" y="297.4263">void</text><!--SRC=[bPB1JiCm44Jl_OfLxe6ag0MYA1A7Nb04I4NYq9FbResbn7RjLIN-7ZT0XECaXMF6iszseZNCakJIC4NmeXq9YzjZy-YqUaL7m1maiPmipEJOo4XetoWh-NkBYfuFXyuTACa2O9TMSMW1ZHPlp2gf19HSDzeMmhAF2hAh_EuMMbTUTshb2OoJF372aKx-5KRaOMG1Vcc7jHQrL1W5hkx3mCd8xWsWrjh04aYsw8Qmx2RFXxHuoRGA_bC1s7sYVJ2caPoHrEg9jVXNUhzlW9q8BzDqa7xISj-RzpXBswWVwuLA0cbBdd8MeXxPUhsAYym6_wF4R8NuN3nhU2yzx1SgkeLTDFXrsz_3awDdroS0]--></g></svg>