<svg xmlns="http://www.w3.org/2000/svg" xmlns:xlink="http://www.w3.org/1999/xlink" contentStyleType="text/css" height="868px" preserveAspectRatio="none" style="width:936px;height:868px;background:#000000;" version="1.1" viewBox="0 0 936 868" width="936px" zoomAndPan="magnify"><defs/><g><rect fill="none" height="723.4688" style="stroke:#999999;stroke-width:1.0;" width="10" x="190.625" y="83.9375"/><rect fill="none" height="647.5313" style="stroke:#999999;stroke-width:1.0;" width="10" x="421.373" y="121.9063"/><rect fill="none" height="48.9688" style="stroke:#999999;stroke-width:1.0;" width="10" x="426.373" y="167.875"/><rect fill="none" height="226.8438" style="stroke:#999999;stroke-width:1.0;" width="10" x="426.373" y="497.625"/><rect fill="none" height="124.9063" style="stroke:#999999;stroke-width:1.0;" width="10" x="431.373" y="548.5938"/><rect fill="none" height="37.9688" style="stroke:#999999;stroke-width:1.0;" width="10" x="650.791" y="261.8125"/><rect fill="none" height="37.9688" style="stroke:#999999;stroke-width:1.0;" width="10" x="650.791" y="337.75"/><rect fill="none" height="37.9688" style="stroke:#999999;stroke-width:1.0;" width="10" x="650.791" y="413.6875"/><rect fill="none" height="37.9688" style="stroke:#999999;stroke-width:1.0;" width="10" x="869.9668" y="591.5625"/><line style="stroke:#999999;stroke-width:0.5;stroke-dasharray:5.0,5.0;" x1="195.5518" x2="195.5518" y1="43.9688" y2="825.4063"/><line style="stroke:#999999;stroke-width:0.5;stroke-dasharray:5.0,5.0;" x1="425.9854" x2="425.9854" y1="43.9688" y2="825.4063"/><line style="stroke:#999999;stroke-width:0.5;stroke-dasharray:5.0,5.0;" x1="655.083" x2="655.083" y1="43.9688" y2="825.4063"/><line style="stroke:#999999;stroke-width:0.5;stroke-dasharray:5.0,5.0;" x1="874.499" x2="874.499" y1="43.9688" y2="825.4063"/><rect fill="#555555" height="37.9688" rx="4" ry="4" style="stroke:#555555;stroke-width:1.0;" width="132.1465" x="129.5518" y="5"/><text fill="#FFFFFF" font-family="Verdana" font-size="12" lengthAdjust="spacing" textLength="108.1465" x="141.5518" y="28.1387">WatchServiceTest</text><rect fill="#555555" height="37.9688" rx="4" ry="4" style="stroke:#555555;stroke-width:1.0;" width="132.1465" x="129.5518" y="824.4063"/><text fill="#FFFFFF" font-family="Verdana" font-size="12" lengthAdjust="spacing" textLength="108.1465" x="141.5518" y="847.5449">WatchServiceTest</text><rect fill="#555555" height="37.9688" rx="4" ry="4" style="stroke:#555555;stroke-width:1.0;" width="112.7754" x="369.9854" y="5"/><text fill="#FFFFFF" font-family="Verdana" font-size="12" lengthAdjust="spacing" textLength="88.7754" x="381.9854" y="28.1387">PostgreSqlJson</text><rect fill="#555555" height="37.9688" rx="4" ry="4" style="stroke:#555555;stroke-width:1.0;" width="112.7754" x="369.9854" y="824.4063"/><text fill="#FFFFFF" font-family="Verdana" font-size="12" lengthAdjust="spacing" textLength="88.7754" x="381.9854" y="847.5449">PostgreSqlJson</text><rect fill="#555555" height="37.9688" rx="4" ry="4" style="stroke:#555555;stroke-width:1.0;" width="147.416" x="582.083" y="5"/><text fill="#FFFFFF" font-family="Verdana" font-size="12" lengthAdjust="spacing" textLength="123.416" x="594.083" y="28.1387">WatchServiceTest$1</text><rect fill="#555555" height="37.9688" rx="4" ry="4" style="stroke:#555555;stroke-width:1.0;" width="147.416" x="582.083" y="824.4063"/><text fill="#FFFFFF" font-family="Verdana" font-size="12" lengthAdjust="spacing" textLength="123.416" x="594.083" y="847.5449">WatchServiceTest$1</text><rect fill="#555555" height="37.9688" rx="4" ry="4" style="stroke:#555555;stroke-width:1.0;" width="110.9355" x="819.499" y="5"/><text fill="#FFFFFF" font-family="Verdana" font-size="12" lengthAdjust="spacing" textLength="86.9355" x="831.499" y="28.1387">EnrichmentOff</text><rect fill="#555555" height="37.9688" rx="4" ry="4" style="stroke:#555555;stroke-width:1.0;" width="110.9355" x="819.499" y="824.4063"/><text fill="#FFFFFF" font-family="Verdana" font-size="12" lengthAdjust="spacing" textLength="86.9355" x="831.499" y="847.5449">EnrichmentOff</text><rect fill="none" height="723.4688" style="stroke:#999999;stroke-width:1.0;" width="10" x="190.625" y="83.9375"/><rect fill="none" height="647.5313" style="stroke:#999999;stroke-width:1.0;" width="10" x="421.373" y="121.9063"/><rect fill="none" height="48.9688" style="stroke:#999999;stroke-width:1.0;" width="10" x="426.373" y="167.875"/><rect fill="none" height="226.8438" style="stroke:#999999;stroke-width:1.0;" width="10" x="426.373" y="497.625"/><rect fill="none" height="124.9063" style="stroke:#999999;stroke-width:1.0;" width="10" x="431.373" y="548.5938"/><rect fill="none" height="37.9688" style="stroke:#999999;stroke-width:1.0;" width="10" x="650.791" y="261.8125"/><rect fill="none" height="37.9688" style="stroke:#999999;stroke-width:1.0;" width="10" x="650.791" y="337.75"/><rect fill="none" height="37.9688" style="stroke:#999999;stroke-width:1.0;" width="10" x="650.791" y="413.6875"/><rect fill="none" height="37.9688" style="stroke:#999999;stroke-width:1.0;" width="10" x="869.9668" y="591.5625"/><polygon fill="#4362B1" points="178.625,79.9375,188.625,83.9375,178.625,87.9375,182.625,83.9375" style="stroke:#4362B1;stroke-width:1.0;"/><line style="stroke:#4362B1;stroke-width:3.0;" x1="0" x2="184.625" y1="83.9375" y2="83.9375"/><text fill="#FFFFFF" font-family="Verdana" font-size="12" lengthAdjust="spacing" textLength="105.5215" x="12" y="74.1074">testWatchService</text><text fill="#808080" font-family="Verdana" font-size="12" lengthAdjust="spacing" textLength="48.4746" x="125.1504" y="74.1074">0.69 ms</text><polygon fill="#4362B1" points="409.373,117.9063,419.373,121.9063,409.373,125.9063,413.373,121.9063" style="stroke:#4362B1;stroke-width:1.0;"/><line style="stroke:#4362B1;stroke-width:3.0;" x1="200.625" x2="415.373" y1="121.9063" y2="121.9063"/><text fill="#FFFFFF" font-family="Verdana" font-size="12" lengthAdjust="spacing" textLength="128.0098" x="212.625" y="112.0762">watchPostgreSqlLogs</text><text fill="#808080" font-family="Verdana" font-size="12" lengthAdjust="spacing" textLength="56.1094" x="348.2637" y="112.0762">0.462 ms</text><line style="stroke:#4362B1;stroke-width:3.0;" x1="431.373" x2="478.373" y1="154.875" y2="154.875"/><line style="stroke:#4362B1;stroke-width:3.0;" x1="478.373" x2="478.373" y1="154.875" y2="167.875"/><line style="stroke:#4362B1;stroke-width:3.0;" x1="437.373" x2="478.373" y1="167.875" y2="167.875"/><polygon fill="#4362B1" points="447.373,163.875,437.373,167.875,447.373,171.875,443.373,167.875" style="stroke:#4362B1;stroke-width:1.0;"/><text fill="#FFFFFF" font-family="Verdana" font-size="12" lengthAdjust="spacing" textLength="90.5977" x="448.373" y="145.0449">initLogEnricher</text><text fill="#808080" font-family="Verdana" font-size="12" lengthAdjust="spacing" textLength="63.7441" x="546.5996" y="145.0449">0.0169 ms</text><line style="stroke:#4362B1;stroke-width:3.0;stroke-dasharray:2.0,2.0;" x1="379.373" x2="425.373" y1="215.8438" y2="215.8438"/><line style="stroke:#4362B1;stroke-width:3.0;stroke-dasharray:2.0,2.0;" x1="379.373" x2="379.373" y1="215.8438" y2="228.8438"/><line style="stroke:#4362B1;stroke-width:3.0;stroke-dasharray:2.0,2.0;" x1="379.373" x2="419.373" y1="228.8438" y2="228.8438"/><polygon fill="#4362B1" points="409.373,224.8438,419.373,228.8438,409.373,232.8438,413.373,228.8438" style="stroke:#4362B1;stroke-width:1.0;"/><text fill="#FFFFFF" font-family="Verdana" font-size="12" lengthAdjust="spacing" textLength="25.3945" x="383.373" y="206.0137">void</text><polygon fill="#4362B1" points="638.791,257.8125,648.791,261.8125,638.791,265.8125,642.791,261.8125" style="stroke:#4362B1;stroke-width:1.0;"/><line style="stroke:#4362B1;stroke-width:3.0;" x1="431.373" x2="644.791" y1="261.8125" y2="261.8125"/><text fill="#FFFFFF" font-family="Verdana" font-size="12" lengthAdjust="spacing" textLength="102.6211" x="443.373" y="251.9824">positionFileTasks</text><text fill="#808080" font-family="Verdana" font-size="12" lengthAdjust="spacing" textLength="71.3789" x="553.623" y="251.9824">0.00983 ms</text><polygon fill="#4362B1" points="442.373,295.7813,432.373,299.7813,442.373,303.7813,438.373,299.7813" style="stroke:#4362B1;stroke-width:1.0;"/><line style="stroke:#4362B1;stroke-width:3.0;stroke-dasharray:2.0,2.0;" x1="436.373" x2="654.791" y1="299.7813" y2="299.7813"/><text fill="#FFFFFF" font-family="Verdana" font-size="12" lengthAdjust="spacing" textLength="100.9043" x="453.373" y="289.9512">java.lang.Thread</text><polygon fill="#4362B1" points="638.791,333.75,648.791,337.75,638.791,341.75,642.791,337.75" style="stroke:#4362B1;stroke-width:1.0;"/><line style="stroke:#4362B1;stroke-width:3.0;" x1="431.373" x2="644.791" y1="337.75" y2="337.75"/><text fill="#FFFFFF" font-family="Verdana" font-size="12" lengthAdjust="spacing" textLength="94.4707" x="443.373" y="327.9199">initialLogImport</text><text fill="#808080" font-family="Verdana" font-size="12" lengthAdjust="spacing" textLength="63.7441" x="545.4727" y="327.9199">0.0199 ms</text><polygon fill="#4362B1" points="442.373,371.7188,432.373,375.7188,442.373,379.7188,438.373,375.7188" style="stroke:#4362B1;stroke-width:1.0;"/><line style="stroke:#4362B1;stroke-width:3.0;stroke-dasharray:2.0,2.0;" x1="436.373" x2="654.791" y1="375.7188" y2="375.7188"/><text fill="#FFFFFF" font-family="Verdana" font-size="12" lengthAdjust="spacing" textLength="25.3945" x="453.373" y="365.8887">void</text><polygon fill="#4362B1" points="638.791,409.6875,648.791,413.6875,638.791,417.6875,642.791,413.6875" style="stroke:#4362B1;stroke-width:1.0;"/><line style="stroke:#4362B1;stroke-width:3.0;" x1="431.373" x2="644.791" y1="413.6875" y2="413.6875"/><text fill="#FFFFFF" font-family="Verdana" font-size="12" lengthAdjust="spacing" textLength="119.0449" x="443.373" y="403.8574">registerWatchEvent</text><text fill="#808080" font-family="Verdana" font-size="12" lengthAdjust="spacing" textLength="63.7441" x="570.0469" y="403.8574">0.0101 ms</text><polygon fill="#4362B1" points="442.373,447.6563,432.373,451.6563,442.373,455.6563,438.373,451.6563" style="stroke:#4362B1;stroke-width:1.0;"/><line style="stroke:#4362B1;stroke-width:3.0;stroke-dasharray:2.0,2.0;" x1="436.373" x2="654.791" y1="451.6563" y2="451.6563"/><text fill="#FFFFFF" font-family="Verdana" font-size="12" lengthAdjust="spacing" textLength="25.3945" x="453.373" y="441.8262">void</text><line style="stroke:#4362B1;stroke-width:3.0;" x1="431.373" x2="478.373" y1="484.625" y2="484.625"/><line style="stroke:#4362B1;stroke-width:3.0;" x1="478.373" x2="478.373" y1="484.625" y2="497.625"/><line style="stroke:#4362B1;stroke-width:3.0;" x1="437.373" x2="478.373" y1="497.625" y2="497.625"/><polygon fill="#4362B1" points="447.373,493.625,437.373,497.625,447.373,501.625,443.373,497.625" style="stroke:#4362B1;stroke-width:1.0;"/><text fill="#FFFFFF" font-family="Verdana" font-size="12" lengthAdjust="spacing" textLength="73.6699" x="448.373" y="474.7949">readJsonLog</text><text fill="#808080" font-family="Verdana" font-size="12" lengthAdjust="spacing" textLength="56.1094" x="529.6719" y="474.7949">0.185 ms</text><line style="stroke:#4362B1;stroke-width:3.0;" x1="436.373" x2="483.373" y1="535.5938" y2="535.5938"/><line style="stroke:#4362B1;stroke-width:3.0;" x1="483.373" x2="483.373" y1="535.5938" y2="548.5938"/><line style="stroke:#4362B1;stroke-width:3.0;" x1="442.373" x2="483.373" y1="548.5938" y2="548.5938"/><polygon fill="#4362B1" points="452.373,544.5938,442.373,548.5938,452.373,552.5938,448.373,548.5938" style="stroke:#4362B1;stroke-width:1.0;"/><text fill="#FFFFFF" font-family="Verdana" font-size="12" lengthAdjust="spacing" textLength="80.1914" x="453.373" y="525.7637">parseLogLine</text><text fill="#808080" font-family="Verdana" font-size="12" lengthAdjust="spacing" textLength="56.1094" x="541.1934" y="525.7637">0.112 ms</text><polygon fill="#4362B1" points="857.9668,587.5625,867.9668,591.5625,857.9668,595.5625,861.9668,591.5625" style="stroke:#4362B1;stroke-width:1.0;"/><line style="stroke:#4362B1;stroke-width:3.0;" x1="441.373" x2="863.9668" y1="591.5625" y2="591.5625"/><text fill="#FFFFFF" font-family="Verdana" font-size="12" lengthAdjust="spacing" textLength="152.2266" x="453.373" y="581.7324">enricherApplicationName</text><text fill="#808080" font-family="Verdana" font-size="12" lengthAdjust="spacing" textLength="63.7441" x="613.2285" y="581.7324">0.0233 ms</text><polygon fill="#4362B1" points="452.373,625.5313,442.373,629.5313,452.373,633.5313,448.373,629.5313" style="stroke:#4362B1;stroke-width:1.0;"/><line style="stroke:#4362B1;stroke-width:3.0;stroke-dasharray:2.0,2.0;" x1="446.373" x2="873.9668" y1="629.5313" y2="629.5313"/><text fill="#FFFFFF" font-family="Verdana" font-size="12" lengthAdjust="spacing" textLength="25.3945" x="463.373" y="619.7012">void</text><line style="stroke:#4362B1;stroke-width:3.0;stroke-dasharray:2.0,2.0;" x1="379.373" x2="430.373" y1="672.5" y2="672.5"/><line style="stroke:#4362B1;stroke-width:3.0;stroke-dasharray:2.0,2.0;" x1="379.373" x2="379.373" y1="672.5" y2="685.5"/><line style="stroke:#4362B1;stroke-width:3.0;stroke-dasharray:2.0,2.0;" x1="379.373" x2="419.373" y1="685.5" y2="685.5"/><polygon fill="#4362B1" points="409.373,681.5,419.373,685.5,409.373,689.5,413.373,685.5" style="stroke:#4362B1;stroke-width:1.0;"/><text fill="#FFFFFF" font-family="Verdana" font-size="12" lengthAdjust="spacing" textLength="25.3945" x="383.373" y="662.6699">void</text><line style="stroke:#4362B1;stroke-width:3.0;stroke-dasharray:2.0,2.0;" x1="379.373" x2="425.373" y1="723.4688" y2="723.4688"/><line style="stroke:#4362B1;stroke-width:3.0;stroke-dasharray:2.0,2.0;" x1="379.373" x2="379.373" y1="723.4688" y2="736.4688"/><line style="stroke:#4362B1;stroke-width:3.0;stroke-dasharray:2.0,2.0;" x1="379.373" x2="419.373" y1="736.4688" y2="736.4688"/><polygon fill="#4362B1" points="409.373,732.4688,419.373,736.4688,409.373,740.4688,413.373,736.4688" style="stroke:#4362B1;stroke-width:1.0;"/><text fill="#FFFFFF" font-family="Verdana" font-size="12" lengthAdjust="spacing" textLength="25.3945" x="383.373" y="713.6387">void</text><polygon fill="#4362B1" points="211.625,765.4375,201.625,769.4375,211.625,773.4375,207.625,769.4375" style="stroke:#4362B1;stroke-width:1.0;"/><line style="stroke:#4362B1;stroke-width:3.0;stroke-dasharray:2.0,2.0;" x1="205.625" x2="425.373" y1="769.4375" y2="769.4375"/><text fill="#FFFFFF" font-family="Verdana" font-size="12" lengthAdjust="spacing" textLength="101.8477" x="222.625" y="759.6074">java.lang.Integer</text><polygon fill="#4362B1" points="11,803.4063,1,807.4063,11,811.4063,7,807.4063" style="stroke:#4362B1;stroke-width:1.0;"/><line style="stroke:#4362B1;stroke-width:3.0;stroke-dasharray:2.0,2.0;" x1="5" x2="194.625" y1="807.4063" y2="807.4063"/><text fill="#FFFFFF" font-family="Verdana" font-size="12" lengthAdjust="spacing" textLength="25.3945" x="22" y="797.5762">void</text><!--SRC=[pLLDQzmm4Btlhr2NNFsrsuQiMHPwI20Xj8Kiz913KRKJMwqjATBOeV- -iZSqgu_ireH2ByQyqRmtppCQl-E2DTqEEjsG6b6PCiiqVKehZdNtlJEWcHG80bCcswm2f4grL6MgeGAxjacmXXQobdAHxKDx95KsE5DK8sTSsRFaAqLMtu7kEOCj62JKaBaFpfsKBz9WfU7kiRanKem9BZG_gl2jY6gS5MxQfT2SrQtr-FdXOSnmaFcCaFjauxEK1Etp42Lh9XkfoqhJNnkIf-ShqffrDe8RIq8PyfuY17NQ60d0PEDQBSdJSE85l9MLyINVdozSpGDLbswC4GyCDRdWQ8Ns7mIqhvSNlicfakiayJLxoNVFPtSmhVnm0agYfE78fRZY3Mof-Hbyj3nVNIoFk0X9NtCIa_z1UvhQorAbsre3ZJZxI_wukw51d0x3SDqggJ7iq6hrpxp5E_KcFnegRX3q6BlixHKC7UN5_-h87-MXuSERROzlexZuCFNcdDQpQys05Rlb8bX7HR481KzBXgBETYm9FE-6ZqerdD7XgdsYRI2VBvRBcFv11GxngmNOpdaL73JDQroSSSe6chg3thBF_36BSBriaslxLwv0pqxHtaSc_KzDHsRyDm00]--></g></svg>