<svg xmlns="http://www.w3.org/2000/svg" xmlns:xlink="http://www.w3.org/1999/xlink" contentStyleType="text/css" height="408px" preserveAspectRatio="none" style="width:688px;height:408px;background:#FFFFFF;" version="1.1" viewBox="0 0 688 408" width="688px" zoomAndPan="magnify"><defs/><g><rect fill="#FFFFFF" height="288.1953" style="stroke:#181818;stroke-width:1.0;" width="10" x="209.3916" y="67.4297"/><rect fill="#FFFFFF" height="113.3984" style="stroke:#181818;stroke-width:1.0;" width="10" x="369.6421" y="96.5625"/><rect fill="#FFFFFF" height="40.1328" style="stroke:#181818;stroke-width:1.0;" width="10" x="374.6421" y="133.6953"/><rect fill="#FFFFFF" height="87.3984" style="stroke:#181818;stroke-width:1.0;" width="10" x="369.6421" y="239.0938"/><rect fill="#FFFFFF" height="29.1328" style="stroke:#181818;stroke-width:1.0;" width="10" x="619.6401" y="268.2266"/><line style="stroke:#181818;stroke-width:0.5;stroke-dasharray:5.0,5.0;" x1="213.9268" x2="213.9268" y1="36.2969" y2="373.625"/><line style="stroke:#181818;stroke-width:0.5;stroke-dasharray:5.0,5.0;" x1="373.8564" x2="373.8564" y1="36.2969" y2="373.625"/><line style="stroke:#181818;stroke-width:0.5;stroke-dasharray:5.0,5.0;" x1="623.9277" x2="623.9277" y1="36.2969" y2="373.625"/><rect fill="#E2E2F0" height="30.2969" rx="2.5" ry="2.5" style="stroke:#181818;stroke-width:0.5;" width="182.9297" x="122.9268" y="5"/><text fill="#000000" font-family="sans-serif" font-size="14" lengthAdjust="spacing" textLength="168.9297" x="129.9268" y="24.9951">TestCliArgumentParsing</text><rect fill="#E2E2F0" height="30.2969" rx="2.5" ry="2.5" style="stroke:#181818;stroke-width:0.5;" width="182.9297" x="122.9268" y="372.625"/><text fill="#000000" font-family="sans-serif" font-size="14" lengthAdjust="spacing" textLength="168.9297" x="129.9268" y="392.6201">TestCliArgumentParsing</text><rect fill="#E2E2F0" height="30.2969" rx="2.5" ry="2.5" style="stroke:#181818;stroke-width:0.5;" width="117.5713" x="315.8564" y="5"/><text fill="#000000" font-family="sans-serif" font-size="14" lengthAdjust="spacing" textLength="103.5713" x="322.8564" y="24.9951">PostgreSqlJson</text><rect fill="#E2E2F0" height="30.2969" rx="2.5" ry="2.5" style="stroke:#181818;stroke-width:0.5;" width="117.5713" x="315.8564" y="372.625"/><text fill="#000000" font-family="sans-serif" font-size="14" lengthAdjust="spacing" textLength="103.5713" x="322.8564" y="392.6201">PostgreSqlJson</text><rect fill="#E2E2F0" height="30.2969" rx="2.5" ry="2.5" style="stroke:#181818;stroke-width:0.5;" width="115.4248" x="566.9277" y="5"/><text fill="#000000" font-family="sans-serif" font-size="14" lengthAdjust="spacing" textLength="101.4248" x="573.9277" y="24.9951">EnrichmentOff</text><rect fill="#E2E2F0" height="30.2969" rx="2.5" ry="2.5" style="stroke:#181818;stroke-width:0.5;" width="115.4248" x="566.9277" y="372.625"/><text fill="#000000" font-family="sans-serif" font-size="14" lengthAdjust="spacing" textLength="101.4248" x="573.9277" y="392.6201">EnrichmentOff</text><rect fill="#FFFFFF" height="288.1953" style="stroke:#181818;stroke-width:1.0;" width="10" x="209.3916" y="67.4297"/><rect fill="#FFFFFF" height="113.3984" style="stroke:#181818;stroke-width:1.0;" width="10" x="369.6421" y="96.5625"/><rect fill="#FFFFFF" height="40.1328" style="stroke:#181818;stroke-width:1.0;" width="10" x="374.6421" y="133.6953"/><rect fill="#FFFFFF" height="87.3984" style="stroke:#181818;stroke-width:1.0;" width="10" x="369.6421" y="239.0938"/><rect fill="#FFFFFF" height="29.1328" style="stroke:#181818;stroke-width:1.0;" width="10" x="619.6401" y="268.2266"/><polygon fill="#181818" points="197.3916,63.4297,207.3916,67.4297,197.3916,71.4297,201.3916,67.4297" style="stroke:#181818;stroke-width:1.0;"/><line style="stroke:#181818;stroke-width:1.0;" x1="0" x2="203.3916" y1="67.4297" y2="67.4297"/><text fill="#000000" font-family="sans-serif" font-size="13" lengthAdjust="spacing" textLength="121.3418" x="7" y="62.3638">testNonExistingDir</text><text fill="#808080" font-family="sans-serif" font-size="13" lengthAdjust="spacing" textLength="60.7852" x="136.6064" y="62.3638">0.936 ms</text><polygon fill="#181818" points="357.6421,92.5625,367.6421,96.5625,357.6421,100.5625,361.6421,96.5625" style="stroke:#181818;stroke-width:1.0;"/><line style="stroke:#181818;stroke-width:1.0;" x1="219.3916" x2="363.6421" y1="96.5625" y2="96.5625"/><text fill="#000000" font-family="sans-serif" font-size="13" lengthAdjust="spacing" textLength="22.3374" x="226.3916" y="91.4966">call</text><text fill="#808080" font-family="sans-serif" font-size="13" lengthAdjust="spacing" textLength="69.0562" x="256.9937" y="91.4966">0.0629 ms</text><line style="stroke:#181818;stroke-width:1.0;" x1="379.6421" x2="426.6421" y1="120.6953" y2="120.6953"/><line style="stroke:#181818;stroke-width:1.0;" x1="426.6421" x2="426.6421" y1="120.6953" y2="133.6953"/><line style="stroke:#181818;stroke-width:1.0;" x1="385.6421" x2="426.6421" y1="133.6953" y2="133.6953"/><polygon fill="#181818" points="395.6421,129.6953,385.6421,133.6953,395.6421,137.6953,391.6421,133.6953" style="stroke:#181818;stroke-width:1.0;"/><text fill="#000000" font-family="sans-serif" font-size="13" lengthAdjust="spacing" textLength="138.6772" x="391.6421" y="115.6294">watchPostgreSqlLogs</text><text fill="#808080" font-family="sans-serif" font-size="13" lengthAdjust="spacing" textLength="69.0562" x="538.584" y="115.6294">0.0243 ms</text><line style="stroke:#181818;stroke-width:1.0;stroke-dasharray:2.0,2.0;" x1="327.6421" x2="373.6421" y1="172.8281" y2="172.8281"/><line style="stroke:#181818;stroke-width:1.0;stroke-dasharray:2.0,2.0;" x1="327.6421" x2="327.6421" y1="172.8281" y2="185.8281"/><line style="stroke:#181818;stroke-width:1.0;stroke-dasharray:2.0,2.0;" x1="327.6421" x2="367.6421" y1="185.8281" y2="185.8281"/><polygon fill="#181818" points="357.6421,181.8281,367.6421,185.8281,357.6421,189.8281,361.6421,185.8281" style="stroke:#181818;stroke-width:1.0;"/><text fill="#000000" font-family="sans-serif" font-size="13" lengthAdjust="spacing" textLength="110.335" x="252.3071" y="167.7622">java.lang.Integer</text><polygon fill="#181818" points="230.3916,205.9609,220.3916,209.9609,230.3916,213.9609,226.3916,209.9609" style="stroke:#181818;stroke-width:1.0;"/><line style="stroke:#181818;stroke-width:1.0;stroke-dasharray:2.0,2.0;" x1="224.3916" x2="373.6421" y1="209.9609" y2="209.9609"/><text fill="#000000" font-family="sans-serif" font-size="13" lengthAdjust="spacing" textLength="110.335" x="236.3916" y="204.895">java.lang.Integer</text><polygon fill="#181818" points="357.6421,235.0938,367.6421,239.0938,357.6421,243.0938,361.6421,239.0938" style="stroke:#181818;stroke-width:1.0;"/><line style="stroke:#181818;stroke-width:1.0;" x1="219.3916" x2="363.6421" y1="239.0938" y2="239.0938"/><text fill="#000000" font-family="sans-serif" font-size="13" lengthAdjust="spacing" textLength="33.4839" x="226.3916" y="234.0278">close</text><text fill="#808080" font-family="sans-serif" font-size="13" lengthAdjust="spacing" textLength="69.0562" x="268.1401" y="234.0278">0.0371 ms</text><polygon fill="#181818" points="607.6401,264.2266,617.6401,268.2266,607.6401,272.2266,611.6401,268.2266" style="stroke:#181818;stroke-width:1.0;"/><line style="stroke:#181818;stroke-width:1.0;" x1="379.6421" x2="613.6401" y1="268.2266" y2="268.2266"/><text fill="#000000" font-family="sans-serif" font-size="13" lengthAdjust="spacing" textLength="33.4839" x="386.6421" y="263.1606">close</text><text fill="#808080" font-family="sans-serif" font-size="13" lengthAdjust="spacing" textLength="69.0562" x="428.3906" y="263.1606">0.0108 ms</text><polygon fill="#181818" points="390.6421,293.3594,380.6421,297.3594,390.6421,301.3594,386.6421,297.3594" style="stroke:#181818;stroke-width:1.0;"/><line style="stroke:#181818;stroke-width:1.0;stroke-dasharray:2.0,2.0;" x1="384.6421" x2="623.6401" y1="297.3594" y2="297.3594"/><text fill="#000000" font-family="sans-serif" font-size="13" lengthAdjust="spacing" textLength="27.5107" x="396.6421" y="292.2935">void</text><polygon fill="#181818" points="230.3916,322.4922,220.3916,326.4922,230.3916,330.4922,226.3916,326.4922" style="stroke:#181818;stroke-width:1.0;"/><line style="stroke:#181818;stroke-width:1.0;stroke-dasharray:2.0,2.0;" x1="224.3916" x2="373.6421" y1="326.4922" y2="326.4922"/><text fill="#000000" font-family="sans-serif" font-size="13" lengthAdjust="spacing" textLength="27.5107" x="236.3916" y="321.4263">void</text><polygon fill="#181818" points="11,351.625,1,355.625,11,359.625,7,355.625" style="stroke:#181818;stroke-width:1.0;"/><line style="stroke:#181818;stroke-width:1.0;stroke-dasharray:2.0,2.0;" x1="5" x2="213.3916" y1="355.625" y2="355.625"/><text fill="#000000" font-family="sans-serif" font-size="13" lengthAdjust="spacing" textLength="27.5107" x="17" y="350.5591">void</text><!--SRC=[fPFDJiCm48JlVOfLxWbfWmgDeaW8UW0Xg0ItdbQkwngvTh2N06zFY2g8ywSMhhCxyycpIO6M99C5Qe9dxkXQoIihtlPSqmgjare0EWZwHy6aQDXNnf6m_EbLtJcZQvil-UjBRINRVQSzRhVrjgS44u1rcFU3Kw1AVp1w-I4TLSADj90neunDXSNF7E9eaSnXxxApMishD6GaIoG-yCvg0mP6OUu_90M6IhM1yNosy8aDfXzGpw0bTYdlI6ptAzuRuJhGsNdIXfw6pSAmpNt14YE5MaItchZWzc3SyB7W_kwEZlzBUCzXb76yKr9oCVtVPRnFSuWoZIz7Jk5535sYnIcDt7IxxoOTNVrFu5ZRwyeuzDyT0Xhs_iql]--></g></svg>