<svg xmlns="http://www.w3.org/2000/svg" xmlns:xlink="http://www.w3.org/1999/xlink" contentStyleType="text/css" height="383px" preserveAspectRatio="none" style="width:784px;height:383px;background:#000000;" version="1.1" viewBox="0 0 784 383" width="784px" zoomAndPan="magnify"><defs/><g><rect fill="none" height="238.7813" style="stroke:#999999;stroke-width:1.0;" width="10" x="189.4238" y="83.9375"/><rect fill="none" height="162.8438" style="stroke:#999999;stroke-width:1.0;" width="10" x="405.0342" y="121.9063"/><rect fill="none" height="37.9688" style="stroke:#999999;stroke-width:1.0;" width="10" x="667.6338" y="201.8125"/><rect fill="none" height="110.875" rx="4" ry="4" style="stroke:#4362B1;stroke-width:1.5;" width="474.4551" x="303.6465" y="136.9063"/><line style="stroke:#999999;stroke-width:0.5;stroke-dasharray:5.0,5.0;" x1="194.2012" x2="194.2012" y1="43.9688" y2="340.7188"/><line style="stroke:#999999;stroke-width:0.5;stroke-dasharray:5.0,5.0;" x1="409.6465" x2="409.6465" y1="43.9688" y2="340.7188"/><line style="stroke:#999999;stroke-width:0.5;stroke-dasharray:5.0,5.0;" x1="672.166" x2="672.166" y1="43.9688" y2="340.7188"/><rect fill="#555555" height="37.9688" rx="4" ry="4" style="stroke:#555555;stroke-width:1.0;" width="138.4453" x="125.2012" y="5"/><text fill="#FFFFFF" font-family="Verdana" font-size="12" lengthAdjust="spacing" textLength="114.4453" x="137.2012" y="28.1387">PostgreSqlJsonTest</text><rect fill="#555555" height="37.9688" rx="4" ry="4" style="stroke:#555555;stroke-width:1.0;" width="138.4453" x="125.2012" y="339.7188"/><text fill="#FFFFFF" font-family="Verdana" font-size="12" lengthAdjust="spacing" textLength="114.4453" x="137.2012" y="362.8574">PostgreSqlJsonTest</text><rect fill="#555555" height="37.9688" rx="4" ry="4" style="stroke:#555555;stroke-width:1.0;" width="112.7754" x="353.6465" y="5"/><text fill="#FFFFFF" font-family="Verdana" font-size="12" lengthAdjust="spacing" textLength="88.7754" x="365.6465" y="28.1387">PostgreSqlJson</text><rect fill="#555555" height="37.9688" rx="4" ry="4" style="stroke:#555555;stroke-width:1.0;" width="112.7754" x="353.6465" y="339.7188"/><text fill="#FFFFFF" font-family="Verdana" font-size="12" lengthAdjust="spacing" textLength="88.7754" x="365.6465" y="362.8574">PostgreSqlJson</text><rect fill="#555555" height="37.9688" rx="4" ry="4" style="stroke:#555555;stroke-width:1.0;" width="110.9355" x="617.166" y="5"/><text fill="#FFFFFF" font-family="Verdana" font-size="12" lengthAdjust="spacing" textLength="86.9355" x="629.166" y="28.1387">EnrichmentOff</text><rect fill="#555555" height="37.9688" rx="4" ry="4" style="stroke:#555555;stroke-width:1.0;" width="110.9355" x="617.166" y="339.7188"/><text fill="#FFFFFF" font-family="Verdana" font-size="12" lengthAdjust="spacing" textLength="86.9355" x="629.166" y="362.8574">EnrichmentOff</text><rect fill="none" height="238.7813" style="stroke:#999999;stroke-width:1.0;" width="10" x="189.4238" y="83.9375"/><rect fill="none" height="162.8438" style="stroke:#999999;stroke-width:1.0;" width="10" x="405.0342" y="121.9063"/><rect fill="none" height="37.9688" style="stroke:#999999;stroke-width:1.0;" width="10" x="667.6338" y="201.8125"/><polygon fill="#4362B1" points="177.4238,79.9375,187.4238,83.9375,177.4238,87.9375,181.4238,83.9375" style="stroke:#4362B1;stroke-width:1.0;"/><line style="stroke:#4362B1;stroke-width:3.0;" x1="0" x2="183.4238" y1="83.9375" y2="83.9375"/><text fill="#FFFFFF" font-family="Verdana" font-size="12" lengthAdjust="spacing" textLength="96.6855" x="12" y="74.1074">parseStatement</text><text fill="#808080" font-family="Verdana" font-size="12" lengthAdjust="spacing" textLength="56.1094" x="116.3145" y="74.1074">0.121 ms</text><polygon fill="#4362B1" points="393.0342,117.9063,403.0342,121.9063,393.0342,125.9063,397.0342,121.9063" style="stroke:#4362B1;stroke-width:1.0;"/><line style="stroke:#4362B1;stroke-width:3.0;" x1="199.4238" x2="399.0342" y1="121.9063" y2="121.9063"/><text fill="#FFFFFF" font-family="Verdana" font-size="12" lengthAdjust="spacing" textLength="80.1914" x="211.4238" y="112.0762">parseLogLine</text><text fill="#808080" font-family="Verdana" font-size="12" lengthAdjust="spacing" textLength="56.1094" x="299.2441" y="112.0762">0.102 ms</text><path d="M307.6465,136.9063 L387.8379,136.9063 L387.8379,152.875 L377.8379,162.875 L303.6465,162.875 L303.6465,140.9063 A4,4 0 0 1 307.6465,136.9063 " fill="#4362B1" style="stroke:#4362B1;stroke-width:1.5;"/><rect fill="none" height="110.875" rx="4" ry="4" style="stroke:#4362B1;stroke-width:1.5;" width="474.4551" x="303.6465" y="136.9063"/><text fill="#FFFFFF" font-family="Verdana" font-size="12" font-weight="bold" lengthAdjust="spacing" textLength="29.1914" x="323.6465" y="154.0449">loop</text><text fill="#4362B1" font-family="Verdana" font-size="12" font-weight="bold" lengthAdjust="spacing" textLength="55.6465" x="407.8379" y="155.0449">[2 times</text><text fill="#808080" font-family="Verdana" font-size="12" font-weight="bold" lengthAdjust="spacing" textLength="70.1309" x="471.8398" y="155.0449">0.0242 ms</text><text fill="#4362B1" font-family="Verdana" font-size="12" font-weight="bold" lengthAdjust="spacing" textLength="5.4844" x="541.9707" y="155.0449">]</text><polygon fill="#4362B1" points="655.6338,197.8125,665.6338,201.8125,655.6338,205.8125,659.6338,201.8125" style="stroke:#4362B1;stroke-width:1.0;"/><line style="stroke:#4362B1;stroke-width:3.0;" x1="415.0342" x2="661.6338" y1="201.8125" y2="201.8125"/><text fill="#FFFFFF" font-family="Verdana" font-size="12" lengthAdjust="spacing" textLength="152.2266" x="427.0342" y="191.9824">enricherApplicationName</text><text fill="#808080" font-family="Verdana" font-size="12" lengthAdjust="spacing" textLength="63.7441" x="586.8896" y="191.9824">0.0242 ms</text><polygon fill="#4362B1" points="426.0342,235.7813,416.0342,239.7813,426.0342,243.7813,422.0342,239.7813" style="stroke:#4362B1;stroke-width:1.0;"/><line style="stroke:#4362B1;stroke-width:3.0;stroke-dasharray:2.0,2.0;" x1="420.0342" x2="671.6338" y1="239.7813" y2="239.7813"/><text fill="#FFFFFF" font-family="Verdana" font-size="12" lengthAdjust="spacing" textLength="25.3945" x="437.0342" y="229.9512">void</text><polygon fill="#4362B1" points="210.4238,280.75,200.4238,284.75,210.4238,288.75,206.4238,284.75" style="stroke:#4362B1;stroke-width:1.0;"/><line style="stroke:#4362B1;stroke-width:3.0;stroke-dasharray:2.0,2.0;" x1="204.4238" x2="409.0342" y1="284.75" y2="284.75"/><text fill="#FFFFFF" font-family="Verdana" font-size="12" lengthAdjust="spacing" textLength="25.3945" x="221.4238" y="274.9199">void</text><polygon fill="#4362B1" points="11,318.7188,1,322.7188,11,326.7188,7,322.7188" style="stroke:#4362B1;stroke-width:1.0;"/><line style="stroke:#4362B1;stroke-width:3.0;stroke-dasharray:2.0,2.0;" x1="5" x2="193.4238" y1="322.7188" y2="322.7188"/><text fill="#FFFFFF" font-family="Verdana" font-size="12" lengthAdjust="spacing" textLength="25.3945" x="22" y="312.8887">void</text><!--SRC=[ZPBDRi8m48JlFCMMU-8GzHIXI3rmGQYjH6-SN6T9BFclzeQgRryJ46fYWdhCxCmtwrMUf16gRx3t2ZeY5oh6FF_EMqbT_za7zC8QGaEvi9grIDmvpHrpYXlgjSgeGurCSsdOPNHHSXU72ySzII5TzCAx3THwt7-fRR3c0mC13x1CvUM3s9t8sBunNefEnuNVZiV1FLAM2u13LgUb5KHAm3rnmhCNri8gwwlMyvyQYdnLha27DHlKEbAu87cAvZllYbEu8qzhhvKxs-wamQImACU5ivN3361dhOCII6eCKrXHFYUqTCci7jsg0Xm-qRyufwJW9ArvvHh_Ix_jEyBEbA-pRD9-ihAvcHjyIDkOPkRgaJiz-mty1vgSz904Bx_9DJmRFRj-0G00]--></g></svg>