<svg xmlns="http://www.w3.org/2000/svg" xmlns:xlink="http://www.w3.org/1999/xlink" contentStyleType="text/css" height="485px" preserveAspectRatio="none" style="width:747px;height:485px;background:#000000;" version="1.1" viewBox="0 0 747 485" width="747px" zoomAndPan="magnify"><defs/><g><rect fill="none" height="340.7188" style="stroke:#999999;stroke-width:1.0;" width="10" x="198.4766" y="83.9375"/><rect fill="none" height="215.8438" style="stroke:#999999;stroke-width:1.0;" width="10" x="429.2627" y="163.8438"/><rect fill="none" height="124.9063" style="stroke:#999999;stroke-width:1.0;" width="10" x="434.2627" y="209.8125"/><rect fill="none" height="37.9688" style="stroke:#999999;stroke-width:1.0;" width="10" x="631.1182" y="252.7813"/><rect fill="none" height="288.75" rx="4" ry="4" style="stroke:#4362B1;stroke-width:1.5;" width="672.5078" x="69.0781" y="98.9375"/><line style="stroke:#999999;stroke-width:0.5;stroke-dasharray:5.0,5.0;" x1="203.0781" x2="203.0781" y1="43.9688" y2="442.6563"/><line style="stroke:#999999;stroke-width:0.5;stroke-dasharray:5.0,5.0;" x1="433.875" x2="433.875" y1="43.9688" y2="442.6563"/><line style="stroke:#999999;stroke-width:0.5;stroke-dasharray:5.0,5.0;" x1="635.6504" x2="635.6504" y1="43.9688" y2="442.6563"/><rect fill="#555555" height="37.9688" rx="4" ry="4" style="stroke:#555555;stroke-width:1.0;" width="168.7969" x="119.0781" y="5"/><text fill="#FFFFFF" font-family="Verdana" font-size="12" lengthAdjust="spacing" textLength="144.7969" x="131.0781" y="28.1387">TestCliArgumentParsing</text><rect fill="#555555" height="37.9688" rx="4" ry="4" style="stroke:#555555;stroke-width:1.0;" width="168.7969" x="119.0781" y="441.6563"/><text fill="#FFFFFF" font-family="Verdana" font-size="12" lengthAdjust="spacing" textLength="144.7969" x="131.0781" y="464.7949">TestCliArgumentParsing</text><rect fill="#555555" height="37.9688" rx="4" ry="4" style="stroke:#555555;stroke-width:1.0;" width="112.7754" x="377.875" y="5"/><text fill="#FFFFFF" font-family="Verdana" font-size="12" lengthAdjust="spacing" textLength="88.7754" x="389.875" y="28.1387">PostgreSqlJson</text><rect fill="#555555" height="37.9688" rx="4" ry="4" style="stroke:#555555;stroke-width:1.0;" width="112.7754" x="377.875" y="441.6563"/><text fill="#FFFFFF" font-family="Verdana" font-size="12" lengthAdjust="spacing" textLength="88.7754" x="389.875" y="464.7949">PostgreSqlJson</text><rect fill="#555555" height="37.9688" rx="4" ry="4" style="stroke:#555555;stroke-width:1.0;" width="110.9355" x="580.6504" y="5"/><text fill="#FFFFFF" font-family="Verdana" font-size="12" lengthAdjust="spacing" textLength="86.9355" x="592.6504" y="28.1387">EnrichmentOff</text><rect fill="#555555" height="37.9688" rx="4" ry="4" style="stroke:#555555;stroke-width:1.0;" width="110.9355" x="580.6504" y="441.6563"/><text fill="#FFFFFF" font-family="Verdana" font-size="12" lengthAdjust="spacing" textLength="86.9355" x="592.6504" y="464.7949">EnrichmentOff</text><rect fill="none" height="340.7188" style="stroke:#999999;stroke-width:1.0;" width="10" x="198.4766" y="83.9375"/><rect fill="none" height="215.8438" style="stroke:#999999;stroke-width:1.0;" width="10" x="429.2627" y="163.8438"/><rect fill="none" height="124.9063" style="stroke:#999999;stroke-width:1.0;" width="10" x="434.2627" y="209.8125"/><rect fill="none" height="37.9688" style="stroke:#999999;stroke-width:1.0;" width="10" x="631.1182" y="252.7813"/><polygon fill="#4362B1" points="186.4766,79.9375,196.4766,83.9375,186.4766,87.9375,190.4766,83.9375" style="stroke:#4362B1;stroke-width:1.0;"/><line style="stroke:#4362B1;stroke-width:3.0;" x1="0" x2="192.4766" y1="83.9375" y2="83.9375"/><text fill="#FFFFFF" font-family="Verdana" font-size="12" lengthAdjust="spacing" textLength="113.373" x="12" y="74.1074">testHelpParameter</text><text fill="#808080" font-family="Verdana" font-size="12" lengthAdjust="spacing" textLength="48.4746" x="133.002" y="74.1074">2.07 ms</text><path d="M73.0781,98.9375 L153.2695,98.9375 L153.2695,114.9063 L143.2695,124.9063 L69.0781,124.9063 L69.0781,102.9375 A4,4 0 0 1 73.0781,98.9375 " fill="#4362B1" style="stroke:#4362B1;stroke-width:1.5;"/><rect fill="none" height="288.75" rx="4" ry="4" style="stroke:#4362B1;stroke-width:1.5;" width="672.5078" x="69.0781" y="98.9375"/><text fill="#FFFFFF" font-family="Verdana" font-size="12" font-weight="bold" lengthAdjust="spacing" textLength="29.1914" x="89.0781" y="116.0762">loop</text><text fill="#4362B1" font-family="Verdana" font-size="12" font-weight="bold" lengthAdjust="spacing" textLength="55.6465" x="173.2695" y="117.0762">[2 times</text><text fill="#808080" font-family="Verdana" font-size="12" font-weight="bold" lengthAdjust="spacing" textLength="53.4316" x="237.2715" y="117.0762">2.04 ms</text><text fill="#4362B1" font-family="Verdana" font-size="12" font-weight="bold" lengthAdjust="spacing" textLength="5.4844" x="290.7031" y="117.0762">]</text><polygon fill="#4362B1" points="417.2627,159.8438,427.2627,163.8438,417.2627,167.8438,421.2627,163.8438" style="stroke:#4362B1;stroke-width:1.0;"/><line style="stroke:#4362B1;stroke-width:3.0;" x1="208.4766" x2="423.2627" y1="163.8438" y2="163.8438"/><text fill="#FFFFFF" font-family="Verdana" font-size="12" lengthAdjust="spacing" text-decoration="underline" textLength="29.9824" x="220.4766" y="154.0137">main</text><text fill="#FFFFFF" font-family="Verdana" font-size="12" lengthAdjust="spacing" textLength="3.8145" x="250.459" y="154.0137">&#160;</text><text fill="#808080" font-family="Verdana" font-size="12" lengthAdjust="spacing" textLength="48.4746" x="258.0879" y="154.0137">2.04 ms</text><line style="stroke:#4362B1;stroke-width:3.0;" x1="439.2627" x2="486.2627" y1="196.8125" y2="196.8125"/><line style="stroke:#4362B1;stroke-width:3.0;" x1="486.2627" x2="486.2627" y1="196.8125" y2="209.8125"/><line style="stroke:#4362B1;stroke-width:3.0;" x1="445.2627" x2="486.2627" y1="209.8125" y2="209.8125"/><polygon fill="#4362B1" points="455.2627,205.8125,445.2627,209.8125,455.2627,213.8125,451.2627,209.8125" style="stroke:#4362B1;stroke-width:1.0;"/><text fill="#FFFFFF" font-family="Verdana" font-size="12" lengthAdjust="spacing" textLength="30.9082" x="456.2627" y="186.9824">close</text><text fill="#808080" font-family="Verdana" font-size="12" lengthAdjust="spacing" textLength="56.1094" x="494.7998" y="186.9824">0.113 ms</text><polygon fill="#4362B1" points="619.1182,248.7813,629.1182,252.7813,619.1182,256.7813,623.1182,252.7813" style="stroke:#4362B1;stroke-width:1.0;"/><line style="stroke:#4362B1;stroke-width:3.0;" x1="444.2627" x2="625.1182" y1="252.7813" y2="252.7813"/><text fill="#FFFFFF" font-family="Verdana" font-size="12" lengthAdjust="spacing" textLength="30.9082" x="456.2627" y="242.9512">close</text><text fill="#808080" font-family="Verdana" font-size="12" lengthAdjust="spacing" textLength="63.7441" x="494.7998" y="242.9512">0.0343 ms</text><polygon fill="#4362B1" points="455.2627,286.75,445.2627,290.75,455.2627,294.75,451.2627,290.75" style="stroke:#4362B1;stroke-width:1.0;"/><line style="stroke:#4362B1;stroke-width:3.0;stroke-dasharray:2.0,2.0;" x1="449.2627" x2="635.1182" y1="290.75" y2="290.75"/><text fill="#FFFFFF" font-family="Verdana" font-size="12" lengthAdjust="spacing" textLength="25.3945" x="466.2627" y="280.9199">void</text><line style="stroke:#4362B1;stroke-width:3.0;stroke-dasharray:2.0,2.0;" x1="387.2627" x2="433.2627" y1="333.7188" y2="333.7188"/><line style="stroke:#4362B1;stroke-width:3.0;stroke-dasharray:2.0,2.0;" x1="387.2627" x2="387.2627" y1="333.7188" y2="346.7188"/><line style="stroke:#4362B1;stroke-width:3.0;stroke-dasharray:2.0,2.0;" x1="387.2627" x2="427.2627" y1="346.7188" y2="346.7188"/><polygon fill="#4362B1" points="417.2627,342.7188,427.2627,346.7188,417.2627,350.7188,421.2627,346.7188" style="stroke:#4362B1;stroke-width:1.0;"/><text fill="#FFFFFF" font-family="Verdana" font-size="12" lengthAdjust="spacing" textLength="25.3945" x="391.2627" y="323.8887">void</text><polygon fill="#4362B1" points="219.4766,375.6875,209.4766,379.6875,219.4766,383.6875,215.4766,379.6875" style="stroke:#4362B1;stroke-width:1.0;"/><line style="stroke:#4362B1;stroke-width:3.0;stroke-dasharray:2.0,2.0;" x1="213.4766" x2="433.2627" y1="379.6875" y2="379.6875"/><text fill="#FFFFFF" font-family="Verdana" font-size="12" lengthAdjust="spacing" textLength="25.3945" x="230.4766" y="369.8574">void</text><polygon fill="#4362B1" points="11,420.6563,1,424.6563,11,428.6563,7,424.6563" style="stroke:#4362B1;stroke-width:1.0;"/><line style="stroke:#4362B1;stroke-width:3.0;stroke-dasharray:2.0,2.0;" x1="5" x2="202.4766" y1="424.6563" y2="424.6563"/><text fill="#FFFFFF" font-family="Verdana" font-size="12" lengthAdjust="spacing" textLength="25.3945" x="22" y="414.8262">void</text><!--SRC=[ZPB9QiCm54Nt-OhNx6rbWe8nXb82fHGQQ7TPgOfY2pHLUahftrTEGh5YEucNzrsTey4FGZCPTZmu2GsYzGKXZlxajS0cV0NF7JCQkSQS6KLgZjHQHIsnaceCIcROSCM9eaAJq-YKv3OE9vOw54pOs8LFxl5PYYTN1nLv6-gyq3LG3zFXqJHPlZ4UQyS_lkMhD_guB8tI-bexmPgMzhxV7zj9Cfq0RBDgM5m0nlo5Ini3gZXo1oKpqhYYTlItWaK-UmJbIt8CgyYY3CM18XyvPMm0l1bZOG4e5FSztYhbjTymAglIOnTGXggz_fA4wXxi_rPJpdaA5t5VnwJnF1NDylbysJVTTlLjoIkDo6RBrQ2juqimexeooovy1oDsdVgEto3sU9UtbG0xkC4B6NxnwzJhpBLkUzk86FlLpwWEPhZv1m00]--></g></svg>