<svg xmlns="http://www.w3.org/2000/svg" xmlns:xlink="http://www.w3.org/1999/xlink" contentStyleType="text/css" data-diagram-type="SEQUENCE" height="408px" preserveAspectRatio="none" style="width:683px;height:408px;background:#FFFFFF;" version="1.1" viewBox="0 0 683 408" width="683px" zoomAndPan="magnify"><defs/><g><g><title>ValidateParameterTest</title><rect fill="#FFFFFF" height="288.1953" style="stroke:#181818;stroke-width:1;" width="10" x="224.6831" y="67.4297"/></g><g><title>PostgreSqlJson</title><rect fill="#FFFFFF" height="113.3984" style="stroke:#181818;stroke-width:1;" width="10" x="380.9277" y="96.5625"/></g><g><title>PostgreSqlJson</title><rect fill="#FFFFFF" height="40.1328" style="stroke:#181818;stroke-width:1;" width="10" x="385.9277" y="133.6953"/></g><g><title>PostgreSqlJson</title><rect fill="#FFFFFF" height="87.3984" style="stroke:#181818;stroke-width:1;" width="10" x="380.9277" y="239.0938"/></g><g><title>EnrichmentOff</title><rect fill="#FFFFFF" height="29.1328" style="stroke:#181818;stroke-width:1;" width="10" x="614.3838" y="268.2266"/></g><g><title>ValidateParameterTest</title><rect fill="transparent" height="337.3281" width="8" x="225.6831" y="36.2969"/><line style="stroke:#181818;stroke-width:0.5;stroke-dasharray:5.0,5.0;" x1="229.2241" x2="229.2241" y1="36.2969" y2="373.625"/></g><g><title>PostgreSqlJson</title><rect fill="transparent" height="337.3281" width="8" x="381.9277" y="36.2969"/><line style="stroke:#181818;stroke-width:0.5;stroke-dasharray:5.0,5.0;" x1="385.1421" x2="385.1421" y1="36.2969" y2="373.625"/></g><g><title>EnrichmentOff</title><rect fill="transparent" height="337.3281" width="8" x="615.3838" y="36.2969"/><line style="stroke:#181818;stroke-width:0.5;stroke-dasharray:5.0,5.0;" x1="618.6714" x2="618.6714" y1="36.2969" y2="373.625"/></g><rect fill="#E2E2F0" height="30.2969" rx="2.5" ry="2.5" style="stroke:#181818;stroke-width:0.5;" width="174.918" x="142.2241" y="5"/><text fill="#000000" font-family="sans-serif" font-size="14" lengthAdjust="spacing" textLength="160.918" x="149.2241" y="24.9951">ValidateParameterTest</text><rect fill="#E2E2F0" height="30.2969" rx="2.5" ry="2.5" style="stroke:#181818;stroke-width:0.5;" width="174.918" x="142.2241" y="372.625"/><text fill="#000000" font-family="sans-serif" font-size="14" lengthAdjust="spacing" textLength="160.918" x="149.2241" y="392.6201">ValidateParameterTest</text><rect fill="#E2E2F0" height="30.2969" rx="2.5" ry="2.5" style="stroke:#181818;stroke-width:0.5;" width="117.5713" x="327.1421" y="5"/><text fill="#000000" font-family="sans-serif" font-size="14" lengthAdjust="spacing" textLength="103.5713" x="334.1421" y="24.9951">PostgreSqlJson</text><rect fill="#E2E2F0" height="30.2969" rx="2.5" ry="2.5" style="stroke:#181818;stroke-width:0.5;" width="117.5713" x="327.1421" y="372.625"/><text fill="#000000" font-family="sans-serif" font-size="14" lengthAdjust="spacing" textLength="103.5713" x="334.1421" y="392.6201">PostgreSqlJson</text><rect fill="#E2E2F0" height="30.2969" rx="2.5" ry="2.5" style="stroke:#181818;stroke-width:0.5;" width="115.4248" x="561.6714" y="5"/><text fill="#000000" font-family="sans-serif" font-size="14" lengthAdjust="spacing" textLength="101.4248" x="568.6714" y="24.9951">EnrichmentOff</text><rect fill="#E2E2F0" height="30.2969" rx="2.5" ry="2.5" style="stroke:#181818;stroke-width:0.5;" width="115.4248" x="561.6714" y="372.625"/><text fill="#000000" font-family="sans-serif" font-size="14" lengthAdjust="spacing" textLength="101.4248" x="568.6714" y="392.6201">EnrichmentOff</text><g><title>ValidateParameterTest</title><rect fill="#FFFFFF" height="288.1953" style="stroke:#181818;stroke-width:1;" width="10" x="224.6831" y="67.4297"/></g><g><title>PostgreSqlJson</title><rect fill="#FFFFFF" height="113.3984" style="stroke:#181818;stroke-width:1;" width="10" x="380.9277" y="96.5625"/></g><g><title>PostgreSqlJson</title><rect fill="#FFFFFF" height="40.1328" style="stroke:#181818;stroke-width:1;" width="10" x="385.9277" y="133.6953"/></g><g><title>PostgreSqlJson</title><rect fill="#FFFFFF" height="87.3984" style="stroke:#181818;stroke-width:1;" width="10" x="380.9277" y="239.0938"/></g><g><title>EnrichmentOff</title><rect fill="#FFFFFF" height="29.1328" style="stroke:#181818;stroke-width:1;" width="10" x="614.3838" y="268.2266"/></g><polygon fill="#181818" points="212.6831,63.4297,222.6831,67.4297,212.6831,71.4297,216.6831,67.4297" style="stroke:#181818;stroke-width:1;"/><line style="stroke:#181818;stroke-width:1;" x1="0" x2="218.6831" y1="67.4297" y2="67.4297"/><text fill="#000000" font-family="sans-serif" font-size="13" lengthAdjust="spacing" textLength="144.9043" x="7" y="62.3638">nonDirectoryWatchDir</text><text fill="#808080" font-family="sans-serif" font-size="13" lengthAdjust="spacing" textLength="52.5142" x="160.1689" y="62.3638">52.7 ms</text><polygon fill="#181818" points="368.9277,92.5625,378.9277,96.5625,368.9277,100.5625,372.9277,96.5625" style="stroke:#181818;stroke-width:1;"/><line style="stroke:#181818;stroke-width:1;" x1="234.6831" x2="374.9277" y1="96.5625" y2="96.5625"/><text fill="#000000" font-family="sans-serif" font-size="13" lengthAdjust="spacing" textLength="22.3374" x="241.6831" y="91.4966">call</text><text fill="#808080" font-family="sans-serif" font-size="13" lengthAdjust="spacing" textLength="52.5142" x="272.2852" y="91.4966">8.38 ms</text><line style="stroke:#181818;stroke-width:1;" x1="390.9277" x2="437.9277" y1="120.6953" y2="120.6953"/><line style="stroke:#181818;stroke-width:1;" x1="437.9277" x2="437.9277" y1="120.6953" y2="133.6953"/><line style="stroke:#181818;stroke-width:1;" x1="396.9277" x2="437.9277" y1="133.6953" y2="133.6953"/><polygon fill="#181818" points="406.9277,129.6953,396.9277,133.6953,406.9277,137.6953,402.9277,133.6953" style="stroke:#181818;stroke-width:1;"/><text fill="#000000" font-family="sans-serif" font-size="13" lengthAdjust="spacing" textLength="138.6772" x="402.9277" y="115.6294">watchPostgreSqlLogs</text><text fill="#808080" font-family="sans-serif" font-size="13" lengthAdjust="spacing" textLength="52.5142" x="549.8696" y="115.6294">1.02 ms</text><line style="stroke:#181818;stroke-width:1;stroke-dasharray:2.0,2.0;" x1="338.9277" x2="384.9277" y1="172.8281" y2="172.8281"/><line style="stroke:#181818;stroke-width:1;stroke-dasharray:2.0,2.0;" x1="338.9277" x2="338.9277" y1="172.8281" y2="185.8281"/><line style="stroke:#181818;stroke-width:1;stroke-dasharray:2.0,2.0;" x1="338.9277" x2="378.9277" y1="185.8281" y2="185.8281"/><polygon fill="#181818" points="368.9277,181.8281,378.9277,185.8281,368.9277,189.8281,372.9277,185.8281" style="stroke:#181818;stroke-width:1;"/><text fill="#000000" font-family="sans-serif" font-size="13" lengthAdjust="spacing" textLength="110.335" x="263.5928" y="167.7622">java.lang.Integer</text><polygon fill="#181818" points="245.6831,205.9609,235.6831,209.9609,245.6831,213.9609,241.6831,209.9609" style="stroke:#181818;stroke-width:1;"/><line style="stroke:#181818;stroke-width:1;stroke-dasharray:2.0,2.0;" x1="239.6831" x2="384.9277" y1="209.9609" y2="209.9609"/><text fill="#000000" font-family="sans-serif" font-size="13" lengthAdjust="spacing" textLength="110.335" x="251.6831" y="204.895">java.lang.Integer</text><polygon fill="#181818" points="368.9277,235.0938,378.9277,239.0938,368.9277,243.0938,372.9277,239.0938" style="stroke:#181818;stroke-width:1;"/><line style="stroke:#181818;stroke-width:1;" x1="234.6831" x2="374.9277" y1="239.0938" y2="239.0938"/><text fill="#000000" font-family="sans-serif" font-size="13" lengthAdjust="spacing" textLength="33.4839" x="241.6831" y="234.0278">close</text><text fill="#808080" font-family="sans-serif" font-size="13" lengthAdjust="spacing" textLength="69.0562" x="283.4316" y="234.0278">0.0725 ms</text><polygon fill="#181818" points="602.3838,264.2266,612.3838,268.2266,602.3838,272.2266,606.3838,268.2266" style="stroke:#181818;stroke-width:1;"/><line style="stroke:#181818;stroke-width:1;" x1="390.9277" x2="608.3838" y1="268.2266" y2="268.2266"/><text fill="#000000" font-family="sans-serif" font-size="13" lengthAdjust="spacing" textLength="33.4839" x="397.9277" y="263.1606">close</text><text fill="#808080" font-family="sans-serif" font-size="13" lengthAdjust="spacing" textLength="69.0562" x="439.6763" y="263.1606">0.0256 ms</text><polygon fill="#181818" points="401.9277,293.3594,391.9277,297.3594,401.9277,301.3594,397.9277,297.3594" style="stroke:#181818;stroke-width:1;"/><line style="stroke:#181818;stroke-width:1;stroke-dasharray:2.0,2.0;" x1="395.9277" x2="618.3838" y1="297.3594" y2="297.3594"/><text fill="#000000" font-family="sans-serif" font-size="13" lengthAdjust="spacing" textLength="27.5107" x="407.9277" y="292.2935">void</text><polygon fill="#181818" points="245.6831,322.4922,235.6831,326.4922,245.6831,330.4922,241.6831,326.4922" style="stroke:#181818;stroke-width:1;"/><line style="stroke:#181818;stroke-width:1;stroke-dasharray:2.0,2.0;" x1="239.6831" x2="384.9277" y1="326.4922" y2="326.4922"/><text fill="#000000" font-family="sans-serif" font-size="13" lengthAdjust="spacing" textLength="27.5107" x="251.6831" y="321.4263">void</text><polygon fill="#181818" points="11,351.625,1,355.625,11,359.625,7,355.625" style="stroke:#181818;stroke-width:1;"/><line style="stroke:#181818;stroke-width:1;stroke-dasharray:2.0,2.0;" x1="5" x2="228.6831" y1="355.625" y2="355.625"/><text fill="#000000" font-family="sans-serif" font-size="13" lengthAdjust="spacing" textLength="27.5107" x="17" y="350.5591">void</text><!--SRC=[fPD1JuGm48Nl-oictAc8mTqGmaaF6XCtqUXXJvFIxTQK5ji6i_zU91kbKCYgHsRclI_pfZHedA2YGUNW1QMeqB4j6goPO-QPMGTe8GfsebKp46-rTTomftTvRxNgLNx97xzLHj13pPHxtE_xQQyIhG1sSHdavg2qkX66KQVDyHKTFNHVK50jjScvmMC9MKhMKDlYeY-MdHjI9zhEAhnbDm3XJbpwQ-H0KKgVjY5N6vysuFdolWUZufJnyRNLJ_51S-iZBqcIZf6_WnPnFAQ-OOj4ekBaJZd6cJa9AxPa78pjRFS_U0TE8hLbVa09ITPfzh-hU4zoZf9crmk7y2pcxZ3Yj5fKq-IdJkS6_-stbFMk4yxyRYVzG1qS_0G0]--></g></svg>