<svg xmlns="http://www.w3.org/2000/svg" xmlns:xlink="http://www.w3.org/1999/xlink" contentStyleType="text/css" height="1243px" preserveAspectRatio="none" style="width:1599px;height:1243px;background:#000000;" version="1.1" viewBox="0 0 1599 1243" width="1599px" zoomAndPan="magnify"><defs/><g><rect fill="none" height="1099.0313" style="stroke:#999999;stroke-width:1.0;" width="10" x="373.4668" y="83.9375"/><rect fill="none" height="157.875" style="stroke:#999999;stroke-width:1.0;" width="10" x="590.0322" y="179.8438"/><rect fill="none" height="238.7813" style="stroke:#999999;stroke-width:1.0;" width="10" x="590.0322" y="754.3438"/><rect fill="none" height="113.9063" style="stroke:#999999;stroke-width:1.0;" width="10" x="590.0322" y="1031.0938"/><rect fill="none" height="37.9688" style="stroke:#999999;stroke-width:1.0;" width="10" x="837.3623" y="261.7813"/><rect fill="none" height="37.9688" style="stroke:#999999;stroke-width:1.0;" width="10" x="837.3623" y="375.6875"/><rect fill="none" height="37.9688" style="stroke:#999999;stroke-width:1.0;" width="10" x="837.3623" y="493.5625"/><rect fill="none" height="37.9688" style="stroke:#999999;stroke-width:1.0;" width="10" x="837.3623" y="634.4375"/><rect fill="none" height="37.9688" style="stroke:#999999;stroke-width:1.0;" width="10" x="837.3623" y="834.25"/><rect fill="none" height="37.9688" style="stroke:#999999;stroke-width:1.0;" width="10" x="837.3623" y="917.1875"/><rect fill="none" height="37.9688" style="stroke:#999999;stroke-width:1.0;" width="10" x="837.3623" y="1069.0625"/><rect fill="none" height="110.875" rx="4" ry="4" style="stroke:#4362B1;stroke-width:1.5;" width="713.9014" x="258.2891" y="428.6563"/><rect fill="none" height="110.875" rx="4" ry="4" style="stroke:#4362B1;stroke-width:1.5;" width="483.5459" x="488.6445" y="769.3438"/><line style="stroke:#999999;stroke-width:0.5;stroke-dasharray:5.0,5.0;" x1="378.2891" x2="378.2891" y1="43.9688" y2="1200.9688"/><line style="stroke:#999999;stroke-width:0.5;stroke-dasharray:5.0,5.0;" x1="594.6445" x2="594.6445" y1="43.9688" y2="1200.9688"/><line style="stroke:#999999;stroke-width:0.5;stroke-dasharray:5.0,5.0;" x1="841.5342" x2="841.5342" y1="43.9688" y2="1200.9688"/><line style="stroke:#999999;stroke-width:0.5;stroke-dasharray:5.0,5.0;" x1="1052.1904" x2="1052.1904" y1="43.9688" y2="1200.9688"/><rect fill="#555555" height="37.9688" rx="4" ry="4" style="stroke:#555555;stroke-width:1.0;" width="140.3555" x="308.2891" y="5"/><text fill="#FFFFFF" font-family="Verdana" font-size="12" lengthAdjust="spacing" textLength="116.3555" x="320.2891" y="28.1387">LogEnrichmentTest</text><rect fill="#555555" height="37.9688" rx="4" ry="4" style="stroke:#555555;stroke-width:1.0;" width="140.3555" x="308.2891" y="1199.9688"/><text fill="#FFFFFF" font-family="Verdana" font-size="12" lengthAdjust="spacing" textLength="116.3555" x="320.2891" y="1223.1074">LogEnrichmentTest</text><rect fill="#555555" height="37.9688" rx="4" ry="4" style="stroke:#555555;stroke-width:1.0;" width="112.7754" x="538.6445" y="5"/><text fill="#FFFFFF" font-family="Verdana" font-size="12" lengthAdjust="spacing" textLength="88.7754" x="550.6445" y="28.1387">PostgreSqlJson</text><rect fill="#555555" height="37.9688" rx="4" ry="4" style="stroke:#555555;stroke-width:1.0;" width="112.7754" x="538.6445" y="1199.9688"/><text fill="#FFFFFF" font-family="Verdana" font-size="12" lengthAdjust="spacing" textLength="88.7754" x="550.6445" y="1223.1074">PostgreSqlJson</text><rect fill="#555555" height="37.9688" rx="4" ry="4" style="stroke:#555555;stroke-width:1.0;" width="159.6563" x="762.5342" y="5"/><text fill="#FFFFFF" font-family="Verdana" font-size="12" lengthAdjust="spacing" textLength="135.6563" x="774.5342" y="28.1387">LogEnricherPostgreSql</text><rect fill="#555555" height="37.9688" rx="4" ry="4" style="stroke:#555555;stroke-width:1.0;" width="159.6563" x="762.5342" y="1199.9688"/><text fill="#FFFFFF" font-family="Verdana" font-size="12" lengthAdjust="spacing" textLength="135.6563" x="774.5342" y="1223.1074">LogEnricherPostgreSql</text><rect fill="#555555" height="37.9688" rx="4" ry="4" style="stroke:#555555;stroke-width:1.0;" width="81.2578" x="1012.1904" y="5"/><text fill="#FFFFFF" font-family="Verdana" font-size="12" lengthAdjust="spacing" textLength="57.2578" x="1024.1904" y="28.1387">Database</text><rect fill="#555555" height="37.9688" rx="4" ry="4" style="stroke:#555555;stroke-width:1.0;" width="81.2578" x="1012.1904" y="1199.9688"/><text fill="#FFFFFF" font-family="Verdana" font-size="12" lengthAdjust="spacing" textLength="57.2578" x="1024.1904" y="1223.1074">Database</text><rect fill="none" height="1099.0313" style="stroke:#999999;stroke-width:1.0;" width="10" x="373.4668" y="83.9375"/><rect fill="none" height="157.875" style="stroke:#999999;stroke-width:1.0;" width="10" x="590.0322" y="179.8438"/><rect fill="none" height="238.7813" style="stroke:#999999;stroke-width:1.0;" width="10" x="590.0322" y="754.3438"/><rect fill="none" height="113.9063" style="stroke:#999999;stroke-width:1.0;" width="10" x="590.0322" y="1031.0938"/><rect fill="none" height="37.9688" style="stroke:#999999;stroke-width:1.0;" width="10" x="837.3623" y="261.7813"/><rect fill="none" height="37.9688" style="stroke:#999999;stroke-width:1.0;" width="10" x="837.3623" y="375.6875"/><rect fill="none" height="37.9688" style="stroke:#999999;stroke-width:1.0;" width="10" x="837.3623" y="493.5625"/><rect fill="none" height="37.9688" style="stroke:#999999;stroke-width:1.0;" width="10" x="837.3623" y="634.4375"/><rect fill="none" height="37.9688" style="stroke:#999999;stroke-width:1.0;" width="10" x="837.3623" y="834.25"/><rect fill="none" height="37.9688" style="stroke:#999999;stroke-width:1.0;" width="10" x="837.3623" y="917.1875"/><rect fill="none" height="37.9688" style="stroke:#999999;stroke-width:1.0;" width="10" x="837.3623" y="1069.0625"/><polygon fill="#4362B1" points="361.4668,79.9375,371.4668,83.9375,361.4668,87.9375,365.4668,83.9375" style="stroke:#4362B1;stroke-width:1.0;"/><line style="stroke:#4362B1;stroke-width:3.0;" x1="0" x2="367.4668" y1="83.9375" y2="83.9375"/><text fill="#FFFFFF" font-family="Verdana" font-size="12" lengthAdjust="spacing" textLength="292.1777" x="12" y="74.1074">initLogEnricherWithDbHostWithPgStatStatement</text><text fill="#808080" font-family="Verdana" font-size="12" lengthAdjust="spacing" textLength="44.6602" x="311.8066" y="74.1074">140 ms</text><polygon fill="#4362B1" points="1040.8193,127.8906,1050.8193,131.8906,1040.8193,135.8906,1044.8193,131.8906" style="stroke:#4362B1;stroke-width:1.0;"/><line style="stroke:#4362B1;stroke-width:3.0;" x1="383.4668" x2="1046.8193" y1="131.8906" y2="131.8906"/><text fill="#FFFFFF" font-family="Verdana" font-size="12" lengthAdjust="spacing" textLength="322.5234" x="395.4668" y="122.0605">CREATE TABLE pg_stat_statements(queryid bigint, qu</text><text fill="#808080" font-family="Verdana" font-size="12" lengthAdjust="spacing" textLength="56.1094" x="725.6191" y="122.0605">0.757 ms</text><path d="M1057,100.9375 L1057,139.9375 A4,4 0 0 0 1061,143.9375 L1525,143.9375 A4,4 0 0 0 1529,139.9375 L1529,106.9375 L1519,96.9375 L1061,96.9375 A4,4 0 0 0 1057,100.9375 " fill="#4362B1" style="stroke:#000000;stroke-width:1.0;"/><path d="M1519,96.9375 L1519,104.9375 A2,2 0 0 0 1521,106.9375 L1529,106.9375 L1519,96.9375 " fill="#4362B1" style="stroke:#000000;stroke-width:1.0;"/><text fill="#FFFFFF" font-family="Verdana" font-size="12" lengthAdjust="spacing" textLength="441.457" x="1068" y="118.0762">CREATE TABLE pg_stat_statements(queryid bigint, query text) /* emulate</text><text fill="#FFFFFF" font-family="Verdana" font-size="12" lengthAdjust="spacing" textLength="132.1406" x="1068" y="132.0449">pg_stat_statements */</text><polygon fill="#4362B1" points="578.0322,175.8438,588.0322,179.8438,578.0322,183.8438,582.0322,179.8438" style="stroke:#4362B1;stroke-width:1.0;"/><line style="stroke:#4362B1;stroke-width:3.0;" x1="383.4668" x2="584.0322" y1="179.8438" y2="179.8438"/><text fill="#FFFFFF" font-family="Verdana" font-size="12" lengthAdjust="spacing" textLength="90.5977" x="395.4668" y="170.0137">initLogEnricher</text><text fill="#808080" font-family="Verdana" font-size="12" lengthAdjust="spacing" textLength="48.4746" x="493.6934" y="170.0137">22.7 ms</text><polygon fill="#4362B1" points="1040.8193,216.8125,1050.8193,220.8125,1040.8193,224.8125,1044.8193,220.8125" style="stroke:#4362B1;stroke-width:1.0;"/><line style="stroke:#4362B1;stroke-width:3.0;" x1="600.0322" x2="1046.8193" y1="220.8125" y2="220.8125"/><text fill="#FFFFFF" font-family="Verdana" font-size="12" lengthAdjust="spacing" textLength="318.5508" x="612.0322" y="210.9824">select query from pg_stat_statements where queryid</text><text fill="#808080" font-family="Verdana" font-size="12" lengthAdjust="spacing" textLength="40.8398" x="938.2119" y="210.9824">4.6 ms</text><path d="M1057,196.8438 L1057,221.8438 A4,4 0 0 0 1061,225.8438 L1418,225.8438 A4,4 0 0 0 1422,221.8438 L1422,202.8438 L1412,192.8438 L1061,192.8438 A4,4 0 0 0 1057,196.8438 " fill="#4362B1" style="stroke:#000000;stroke-width:1.0;"/><path d="M1412,192.8438 L1412,200.8438 A2,2 0 0 0 1414,202.8438 L1422,202.8438 L1412,192.8438 " fill="#4362B1" style="stroke:#000000;stroke-width:1.0;"/><text fill="#FFFFFF" font-family="Verdana" font-size="12" lengthAdjust="spacing" textLength="334.9746" x="1068" y="213.9824">select query from pg_stat_statements where queryid=?</text><polygon fill="#4362B1" points="825.3623,257.7813,835.3623,261.7813,825.3623,265.7813,829.3623,261.7813" style="stroke:#4362B1;stroke-width:1.0;"/><line style="stroke:#4362B1;stroke-width:3.0;" x1="600.0322" x2="831.3623" y1="261.7813" y2="261.7813"/><text fill="#FFFFFF" font-family="Verdana" font-size="12" lengthAdjust="spacing" textLength="82.8516" x="612.0322" y="251.9512">getStatement</text><text fill="#808080" font-family="Verdana" font-size="12" lengthAdjust="spacing" textLength="48.4746" x="702.5127" y="251.9512">2.65 ms</text><polygon fill="#4362B1" points="611.0322,295.75,601.0322,299.75,611.0322,303.75,607.0322,299.75" style="stroke:#4362B1;stroke-width:1.0;"/><line style="stroke:#4362B1;stroke-width:3.0;stroke-dasharray:2.0,2.0;" x1="605.0322" x2="841.3623" y1="299.75" y2="299.75"/><text fill="#FFFFFF" font-family="Verdana" font-size="12" lengthAdjust="spacing" textLength="25.3945" x="622.0322" y="289.9199">void</text><polygon fill="#4362B1" points="394.4668,333.7188,384.4668,337.7188,394.4668,341.7188,390.4668,337.7188" style="stroke:#4362B1;stroke-width:1.0;"/><line style="stroke:#4362B1;stroke-width:3.0;stroke-dasharray:2.0,2.0;" x1="388.4668" x2="594.0322" y1="337.7188" y2="337.7188"/><text fill="#FFFFFF" font-family="Verdana" font-size="12" lengthAdjust="spacing" textLength="25.3945" x="405.4668" y="327.8887">void</text><polygon fill="#4362B1" points="825.3623,371.6875,835.3623,375.6875,825.3623,379.6875,829.3623,375.6875" style="stroke:#4362B1;stroke-width:1.0;"/><line style="stroke:#4362B1;stroke-width:3.0;" x1="383.4668" x2="831.3623" y1="375.6875" y2="375.6875"/><text fill="#FFFFFF" font-family="Verdana" font-size="12" lengthAdjust="spacing" textLength="152.2266" x="395.4668" y="365.8574">enricherApplicationName</text><text fill="#808080" font-family="Verdana" font-size="12" lengthAdjust="spacing" textLength="63.7441" x="555.3223" y="365.8574">0.0064 ms</text><polygon fill="#4362B1" points="394.4668,409.6563,384.4668,413.6563,394.4668,417.6563,390.4668,413.6563" style="stroke:#4362B1;stroke-width:1.0;"/><line style="stroke:#4362B1;stroke-width:3.0;stroke-dasharray:2.0,2.0;" x1="388.4668" x2="841.3623" y1="413.6563" y2="413.6563"/><text fill="#FFFFFF" font-family="Verdana" font-size="12" lengthAdjust="spacing" textLength="34.4473" x="405.4668" y="403.8262">string</text><path d="M262.2891,428.6563 L342.4805,428.6563 L342.4805,444.625 L332.4805,454.625 L258.2891,454.625 L258.2891,432.6563 A4,4 0 0 1 262.2891,428.6563 " fill="#4362B1" style="stroke:#4362B1;stroke-width:1.5;"/><rect fill="none" height="110.875" rx="4" ry="4" style="stroke:#4362B1;stroke-width:1.5;" width="713.9014" x="258.2891" y="428.6563"/><text fill="#FFFFFF" font-family="Verdana" font-size="12" font-weight="bold" lengthAdjust="spacing" textLength="29.1914" x="278.2891" y="445.7949">loop</text><text fill="#4362B1" font-family="Verdana" font-size="12" font-weight="bold" lengthAdjust="spacing" textLength="55.6465" x="362.4805" y="446.7949">[5 times</text><text fill="#808080" font-family="Verdana" font-size="12" font-weight="bold" lengthAdjust="spacing" textLength="45.082" x="426.4824" y="446.7949">4.4 ms</text><text fill="#4362B1" font-family="Verdana" font-size="12" font-weight="bold" lengthAdjust="spacing" textLength="5.4844" x="471.5645" y="446.7949">]</text><polygon fill="#4362B1" points="825.3623,489.5625,835.3623,493.5625,825.3623,497.5625,829.3623,493.5625" style="stroke:#4362B1;stroke-width:1.0;"/><line style="stroke:#4362B1;stroke-width:3.0;" x1="383.4668" x2="831.3623" y1="493.5625" y2="493.5625"/><text fill="#FFFFFF" font-family="Verdana" font-size="12" lengthAdjust="spacing" textLength="82.8516" x="395.4668" y="483.7324">getStatement</text><text fill="#808080" font-family="Verdana" font-size="12" lengthAdjust="spacing" textLength="40.8398" x="485.9473" y="483.7324">4.4 ms</text><polygon fill="#4362B1" points="394.4668,527.5313,384.4668,531.5313,394.4668,535.5313,390.4668,531.5313" style="stroke:#4362B1;stroke-width:1.0;"/><line style="stroke:#4362B1;stroke-width:3.0;stroke-dasharray:2.0,2.0;" x1="388.4668" x2="841.3623" y1="531.5313" y2="531.5313"/><text fill="#FFFFFF" font-family="Verdana" font-size="12" lengthAdjust="spacing" textLength="25.3945" x="405.4668" y="521.7012">void</text><polygon fill="#4362B1" points="1040.8193,582.4844,1050.8193,586.4844,1040.8193,590.4844,1044.8193,586.4844" style="stroke:#4362B1;stroke-width:1.0;"/><line style="stroke:#4362B1;stroke-width:3.0;" x1="383.4668" x2="1046.8193" y1="586.4844" y2="586.4844"/><text fill="#FFFFFF" font-family="Verdana" font-size="12" lengthAdjust="spacing" textLength="327.6973" x="395.4668" y="576.6543">INSERT INTO pg_stat_statements(queryid,query) VALU</text><text fill="#808080" font-family="Verdana" font-size="12" lengthAdjust="spacing" textLength="56.1094" x="730.793" y="576.6543">0.484 ms</text><path d="M1057,555.5313 L1057,594.5313 A4,4 0 0 0 1061,598.5313 L1512,598.5313 A4,4 0 0 0 1516,594.5313 L1516,561.5313 L1506,551.5313 L1061,551.5313 A4,4 0 0 0 1057,555.5313 " fill="#4362B1" style="stroke:#000000;stroke-width:1.0;"/><path d="M1506,551.5313 L1506,559.5313 A2,2 0 0 0 1508,561.5313 L1516,561.5313 L1506,551.5313 " fill="#4362B1" style="stroke:#000000;stroke-width:1.0;"/><text fill="#FFFFFF" font-family="Verdana" font-size="12" lengthAdjust="spacing" textLength="428.5137" x="1068" y="572.6699">INSERT INTO pg_stat_statements(queryid,query) VALUES (1024, 'select</text><text fill="#FFFFFF" font-family="Verdana" font-size="12" lengthAdjust="spacing" textLength="260.5605" x="1068" y="586.6387">version()')/* emulate pg_stat_statements */</text><polygon fill="#4362B1" points="825.3623,630.4375,835.3623,634.4375,825.3623,638.4375,829.3623,634.4375" style="stroke:#4362B1;stroke-width:1.0;"/><line style="stroke:#4362B1;stroke-width:3.0;" x1="383.4668" x2="831.3623" y1="634.4375" y2="634.4375"/><text fill="#FFFFFF" font-family="Verdana" font-size="12" lengthAdjust="spacing" textLength="82.8516" x="395.4668" y="624.6074">getStatement</text><text fill="#808080" font-family="Verdana" font-size="12" lengthAdjust="spacing" textLength="40.8398" x="485.9473" y="624.6074">4.5 ms</text><polygon fill="#4362B1" points="394.4668,668.4063,384.4668,672.4063,394.4668,676.4063,390.4668,672.4063" style="stroke:#4362B1;stroke-width:1.0;"/><line style="stroke:#4362B1;stroke-width:3.0;stroke-dasharray:2.0,2.0;" x1="388.4668" x2="841.3623" y1="672.4063" y2="672.4063"/><text fill="#FFFFFF" font-family="Verdana" font-size="12" lengthAdjust="spacing" textLength="34.4473" x="405.4668" y="662.5762">string</text><polygon fill="#4362B1" points="1040.8193,709.375,1050.8193,713.375,1040.8193,717.375,1044.8193,713.375" style="stroke:#4362B1;stroke-width:1.0;"/><line style="stroke:#4362B1;stroke-width:3.0;" x1="383.4668" x2="1046.8193" y1="713.375" y2="713.375"/><text fill="#FFFFFF" font-family="Verdana" font-size="12" lengthAdjust="spacing" textLength="327.6973" x="395.4668" y="703.5449">INSERT INTO pg_stat_statements(queryid,query) VALU</text><text fill="#808080" font-family="Verdana" font-size="12" lengthAdjust="spacing" textLength="56.1094" x="730.793" y="703.5449">0.168 ms</text><path d="M1057,689.4063 L1057,714.4063 A4,4 0 0 0 1061,718.4063 L1588,718.4063 A4,4 0 0 0 1592,714.4063 L1592,695.4063 L1582,685.4063 L1061,685.4063 A4,4 0 0 0 1057,689.4063 " fill="#4362B1" style="stroke:#000000;stroke-width:1.0;"/><path d="M1582,685.4063 L1582,693.4063 A2,2 0 0 0 1584,695.4063 L1592,695.4063 L1582,685.4063 " fill="#4362B1" style="stroke:#000000;stroke-width:1.0;"/><text fill="#FFFFFF" font-family="Verdana" font-size="12" lengthAdjust="spacing" textLength="504.5977" x="1068" y="706.5449">INSERT INTO pg_stat_statements(queryid,query) VALUES (-3416356442043621232,</text><polygon fill="#4362B1" points="578.0322,750.3438,588.0322,754.3438,578.0322,758.3438,582.0322,754.3438" style="stroke:#4362B1;stroke-width:1.0;"/><line style="stroke:#4362B1;stroke-width:3.0;" x1="383.4668" x2="584.0322" y1="754.3438" y2="754.3438"/><text fill="#FFFFFF" font-family="Verdana" font-size="12" lengthAdjust="spacing" textLength="80.1914" x="395.4668" y="744.5137">parseLogLine</text><text fill="#808080" font-family="Verdana" font-size="12" lengthAdjust="spacing" textLength="48.4746" x="483.2871" y="744.5137">4.42 ms</text><path d="M492.6445,769.3438 L572.8359,769.3438 L572.8359,785.3125 L562.8359,795.3125 L488.6445,795.3125 L488.6445,773.3438 A4,4 0 0 1 492.6445,769.3438 " fill="#4362B1" style="stroke:#4362B1;stroke-width:1.5;"/><rect fill="none" height="110.875" rx="4" ry="4" style="stroke:#4362B1;stroke-width:1.5;" width="483.5459" x="488.6445" y="769.3438"/><text fill="#FFFFFF" font-family="Verdana" font-size="12" font-weight="bold" lengthAdjust="spacing" textLength="29.1914" x="508.6445" y="786.4824">loop</text><text fill="#4362B1" font-family="Verdana" font-size="12" font-weight="bold" lengthAdjust="spacing" textLength="55.6465" x="592.8359" y="787.4824">[3 times</text><text fill="#808080" font-family="Verdana" font-size="12" font-weight="bold" lengthAdjust="spacing" textLength="53.4316" x="656.8379" y="787.4824">0.05 ms</text><text fill="#4362B1" font-family="Verdana" font-size="12" font-weight="bold" lengthAdjust="spacing" textLength="5.4844" x="710.2695" y="787.4824">]</text><polygon fill="#4362B1" points="825.3623,830.25,835.3623,834.25,825.3623,838.25,829.3623,834.25" style="stroke:#4362B1;stroke-width:1.0;"/><line style="stroke:#4362B1;stroke-width:3.0;" x1="600.0322" x2="831.3623" y1="834.25" y2="834.25"/><text fill="#FFFFFF" font-family="Verdana" font-size="12" lengthAdjust="spacing" textLength="152.2266" x="612.0322" y="824.4199">enricherApplicationName</text><text fill="#808080" font-family="Verdana" font-size="12" lengthAdjust="spacing" textLength="48.4746" x="771.8877" y="824.4199">0.05 ms</text><polygon fill="#4362B1" points="611.0322,868.2188,601.0322,872.2188,611.0322,876.2188,607.0322,872.2188" style="stroke:#4362B1;stroke-width:1.0;"/><line style="stroke:#4362B1;stroke-width:3.0;stroke-dasharray:2.0,2.0;" x1="605.0322" x2="841.3623" y1="872.2188" y2="872.2188"/><text fill="#FFFFFF" font-family="Verdana" font-size="12" lengthAdjust="spacing" textLength="34.4473" x="622.0322" y="862.3887">string</text><polygon fill="#4362B1" points="825.3623,913.1875,835.3623,917.1875,825.3623,921.1875,829.3623,917.1875" style="stroke:#4362B1;stroke-width:1.0;"/><line style="stroke:#4362B1;stroke-width:3.0;" x1="600.0322" x2="831.3623" y1="917.1875" y2="917.1875"/><text fill="#FFFFFF" font-family="Verdana" font-size="12" lengthAdjust="spacing" textLength="82.8516" x="612.0322" y="907.3574">getStatement</text><text fill="#808080" font-family="Verdana" font-size="12" lengthAdjust="spacing" textLength="48.4746" x="702.5127" y="907.3574">4.23 ms</text><polygon fill="#4362B1" points="611.0322,951.1563,601.0322,955.1563,611.0322,959.1563,607.0322,955.1563" style="stroke:#4362B1;stroke-width:1.0;"/><line style="stroke:#4362B1;stroke-width:3.0;stroke-dasharray:2.0,2.0;" x1="605.0322" x2="841.3623" y1="955.1563" y2="955.1563"/><text fill="#FFFFFF" font-family="Verdana" font-size="12" lengthAdjust="spacing" textLength="34.4473" x="622.0322" y="945.3262">string</text><polygon fill="#4362B1" points="394.4668,989.125,384.4668,993.125,394.4668,997.125,390.4668,993.125" style="stroke:#4362B1;stroke-width:1.0;"/><line style="stroke:#4362B1;stroke-width:3.0;stroke-dasharray:2.0,2.0;" x1="388.4668" x2="594.0322" y1="993.125" y2="993.125"/><text fill="#FFFFFF" font-family="Verdana" font-size="12" lengthAdjust="spacing" textLength="25.3945" x="405.4668" y="983.2949">void</text><polygon fill="#4362B1" points="578.0322,1027.0938,588.0322,1031.0938,578.0322,1035.0938,582.0322,1031.0938" style="stroke:#4362B1;stroke-width:1.0;"/><line style="stroke:#4362B1;stroke-width:3.0;" x1="383.4668" x2="584.0322" y1="1031.0938" y2="1031.0938"/><text fill="#FFFFFF" font-family="Verdana" font-size="12" lengthAdjust="spacing" textLength="30.9082" x="395.4668" y="1021.2637">close</text><text fill="#808080" font-family="Verdana" font-size="12" lengthAdjust="spacing" textLength="63.7441" x="434.0039" y="1021.2637">0.0404 ms</text><polygon fill="#4362B1" points="825.3623,1065.0625,835.3623,1069.0625,825.3623,1073.0625,829.3623,1069.0625" style="stroke:#4362B1;stroke-width:1.0;"/><line style="stroke:#4362B1;stroke-width:3.0;" x1="600.0322" x2="831.3623" y1="1069.0625" y2="1069.0625"/><text fill="#FFFFFF" font-family="Verdana" font-size="12" lengthAdjust="spacing" textLength="30.9082" x="612.0322" y="1059.2324">close</text><text fill="#808080" font-family="Verdana" font-size="12" lengthAdjust="spacing" textLength="63.7441" x="650.5693" y="1059.2324">0.0209 ms</text><polygon fill="#4362B1" points="611.0322,1103.0313,601.0322,1107.0313,611.0322,1111.0313,607.0322,1107.0313" style="stroke:#4362B1;stroke-width:1.0;"/><line style="stroke:#4362B1;stroke-width:3.0;stroke-dasharray:2.0,2.0;" x1="605.0322" x2="841.3623" y1="1107.0313" y2="1107.0313"/><text fill="#FFFFFF" font-family="Verdana" font-size="12" lengthAdjust="spacing" textLength="25.3945" x="622.0322" y="1097.2012">void</text><polygon fill="#4362B1" points="394.4668,1141,384.4668,1145,394.4668,1149,390.4668,1145" style="stroke:#4362B1;stroke-width:1.0;"/><line style="stroke:#4362B1;stroke-width:3.0;stroke-dasharray:2.0,2.0;" x1="388.4668" x2="594.0322" y1="1145" y2="1145"/><text fill="#FFFFFF" font-family="Verdana" font-size="12" lengthAdjust="spacing" textLength="25.3945" x="405.4668" y="1135.1699">void</text><polygon fill="#4362B1" points="11,1178.9688,1,1182.9688,11,1186.9688,7,1182.9688" style="stroke:#4362B1;stroke-width:1.0;"/><line style="stroke:#4362B1;stroke-width:3.0;stroke-dasharray:2.0,2.0;" x1="5" x2="377.4668" y1="1182.9688" y2="1182.9688"/><text fill="#FFFFFF" font-family="Verdana" font-size="12" lengthAdjust="spacing" textLength="25.3945" x="22" y="1173.1387">void</text><!--SRC=[tLVVRzem47xdhxYXIOKAaX1Csg6EYRMHjWbrLM7RGnyc4xnWAN5Isw7hVpytXPB4IPTqhLJj0KBik-z-VRupRoZpWcH54Xx0MifOZ4sJunl3ftATB1D1k1SnIPWql2WqVI9n78SuDkC0Cvc4GL-kIKZC45Dctc_ThnYnscp5c4lgqLZ9mYpoNSQfjmuLse882LX0MrjjvvGk8Y5zJkRNmHSHiLGZlzGkjq7uNYnl9xkJLpx34Y-n8AdyxgNT0hZgJpGtnq0PbHdK7ofXPyjF2llkruK_brZUVSYT1fnuKH3niS_nxGG6o89Gd9ZfsaGPm9wa6oMgvqXjWhxQd-pS6yFffJjTkB2OVfov4Fi_XRAPVgM6HUSw8VoMhc19VSfa3wwJl3EMSJGwohi3S1ufPpZrrxBL75-zWoI_PHVCGo1X4YZPbgu9XsPgosKhOCfULQZvUcjvpqTZsuOMp4DsyqZf7XGMivaL922Ut0RqYqTXIVXmermWi4j2pXTaE4LNSfbjZl_-mnObbpCzXbAoZq6TtWf6seOpqdtLQPd5AxLzqkzN6Dz4TBLLMP4Qo1eJ57IH2W-O6SII8fUGgi99ibsRnd50FInfnCvnI8ednh8SLCcoPY5LE28afynlDSXM5CC890s9AB8GwPMjdv5gpfG2rw9CWpmqPOqw67zlcP_Fv-xbGZqMNn_fQBtqsONlqzct8W7GCNgaPJR7T-VG6LWswi71VLTeRGWNYdsTxa5ttqNXwLtq2UKTlJQAlsX91yxnivUqFqG3PpXo4B8jD7JiWJsqUws3kJjpJnSfJa18t7axUAug5nkakju8ekHcb17jzDhD1cNQOePbBKOrn9BfKNiirMswfJPgDPpwKof3ojh4t7UTPvZ4oB27Bpo9Sp6-WbbSHFA2IEZLHnRwjujTHJRAhTdMk__rFdILzMd_TsQhM-RBJkWF]--></g></svg>