<svg xmlns="http://www.w3.org/2000/svg" xmlns:xlink="http://www.w3.org/1999/xlink" contentStyleType="text/css" height="297px" preserveAspectRatio="none" style="width:674px;height:297px;background:#FFFFFF;" version="1.1" viewBox="0 0 674 297" width="674px" zoomAndPan="magnify"><defs/><g><rect fill="#FFFFFF" height="176.7969" style="stroke:#181818;stroke-width:1.0;" width="10" x="140.0688" y="67.4297"/><rect fill="#FFFFFF" height="118.5313" style="stroke:#181818;stroke-width:1.0;" width="10" x="324.9927" y="96.5625"/><rect fill="#FFFFFF" height="29.1328" style="stroke:#181818;stroke-width:1.0;" width="10" x="596.2256" y="149.8281"/><rect fill="none" height="75.3984" style="stroke:#000000;stroke-width:1.5;" width="407.731" x="261.207" y="111.5625"/><line style="stroke:#181818;stroke-width:0.5;stroke-dasharray:5.0,5.0;" x1="144.3091" x2="144.3091" y1="36.2969" y2="262.2266"/><line style="stroke:#181818;stroke-width:0.5;stroke-dasharray:5.0,5.0;" x1="329.207" x2="329.207" y1="36.2969" y2="262.2266"/><line style="stroke:#181818;stroke-width:0.5;stroke-dasharray:5.0,5.0;" x1="600.5132" x2="600.5132" y1="36.2969" y2="262.2266"/><rect fill="#E2E2F0" height="30.2969" rx="2.5" ry="2.5" style="stroke:#181818;stroke-width:0.5;" width="147.5195" x="71.3091" y="5"/><text fill="#000000" font-family="sans-serif" font-size="14" lengthAdjust="spacing" textLength="133.5195" x="78.3091" y="24.9951">PostgreSqlJsonTest</text><rect fill="#E2E2F0" height="30.2969" rx="2.5" ry="2.5" style="stroke:#181818;stroke-width:0.5;" width="147.5195" x="71.3091" y="261.2266"/><text fill="#000000" font-family="sans-serif" font-size="14" lengthAdjust="spacing" textLength="133.5195" x="78.3091" y="281.2217">PostgreSqlJsonTest</text><rect fill="#E2E2F0" height="30.2969" rx="2.5" ry="2.5" style="stroke:#181818;stroke-width:0.5;" width="117.5713" x="271.207" y="5"/><text fill="#000000" font-family="sans-serif" font-size="14" lengthAdjust="spacing" textLength="103.5713" x="278.207" y="24.9951">PostgreSqlJson</text><rect fill="#E2E2F0" height="30.2969" rx="2.5" ry="2.5" style="stroke:#181818;stroke-width:0.5;" width="117.5713" x="271.207" y="261.2266"/><text fill="#000000" font-family="sans-serif" font-size="14" lengthAdjust="spacing" textLength="103.5713" x="278.207" y="281.2217">PostgreSqlJson</text><rect fill="#E2E2F0" height="30.2969" rx="2.5" ry="2.5" style="stroke:#181818;stroke-width:0.5;" width="115.4248" x="543.5132" y="5"/><text fill="#000000" font-family="sans-serif" font-size="14" lengthAdjust="spacing" textLength="101.4248" x="550.5132" y="24.9951">EnrichmentOff</text><rect fill="#E2E2F0" height="30.2969" rx="2.5" ry="2.5" style="stroke:#181818;stroke-width:0.5;" width="115.4248" x="543.5132" y="261.2266"/><text fill="#000000" font-family="sans-serif" font-size="14" lengthAdjust="spacing" textLength="101.4248" x="550.5132" y="281.2217">EnrichmentOff</text><rect fill="#FFFFFF" height="176.7969" style="stroke:#181818;stroke-width:1.0;" width="10" x="140.0688" y="67.4297"/><rect fill="#FFFFFF" height="118.5313" style="stroke:#181818;stroke-width:1.0;" width="10" x="324.9927" y="96.5625"/><rect fill="#FFFFFF" height="29.1328" style="stroke:#181818;stroke-width:1.0;" width="10" x="596.2256" y="149.8281"/><polygon fill="#181818" points="128.0688,63.4297,138.0688,67.4297,128.0688,71.4297,132.0688,67.4297" style="stroke:#181818;stroke-width:1.0;"/><line style="stroke:#181818;stroke-width:1.0;" x1="0" x2="134.0688" y1="67.4297" y2="67.4297"/><text fill="#000000" font-family="sans-serif" font-size="13" lengthAdjust="spacing" textLength="52.019" x="7" y="62.3638">logError</text><text fill="#808080" font-family="sans-serif" font-size="13" lengthAdjust="spacing" textLength="60.7852" x="67.2837" y="62.3638">0.161 ms</text><polygon fill="#181818" points="312.9927,92.5625,322.9927,96.5625,312.9927,100.5625,316.9927,96.5625" style="stroke:#181818;stroke-width:1.0;"/><line style="stroke:#181818;stroke-width:1.0;" x1="150.0688" x2="318.9927" y1="96.5625" y2="96.5625"/><text fill="#000000" font-family="sans-serif" font-size="13" lengthAdjust="spacing" textLength="86.874" x="157.0688" y="91.4966">parseLogLine</text><text fill="#808080" font-family="sans-serif" font-size="13" lengthAdjust="spacing" textLength="60.7852" x="252.2075" y="91.4966">0.138 ms</text><path d="M261.207,111.5625 L337.8311,111.5625 L337.8311,118.6953 L327.8311,128.6953 L261.207,128.6953 L261.207,111.5625 " fill="#EEEEEE" style="stroke:#000000;stroke-width:1.5;"/><rect fill="none" height="75.3984" style="stroke:#000000;stroke-width:1.5;" width="407.731" x="261.207" y="111.5625"/><text fill="#000000" font-family="sans-serif" font-size="13" font-weight="bold" lengthAdjust="spacing" textLength="31.624" x="276.207" y="124.6294">loop</text><text fill="#000000" font-family="sans-serif" font-size="11" font-weight="bold" lengthAdjust="spacing" textLength="51.0093" x="352.8311" y="123.7729">[2 times</text><text fill="#808080" font-family="sans-serif" font-size="11" font-weight="bold" lengthAdjust="spacing" textLength="64.2866" x="411.4995" y="123.7729">0.0319 ms</text><text fill="#000000" font-family="sans-serif" font-size="11" font-weight="bold" lengthAdjust="spacing" textLength="5.0273" x="475.7861" y="123.7729">]</text><polygon fill="#181818" points="584.2256,145.8281,594.2256,149.8281,584.2256,153.8281,588.2256,149.8281" style="stroke:#181818;stroke-width:1.0;"/><line style="stroke:#181818;stroke-width:1.0;" x1="334.9927" x2="590.2256" y1="149.8281" y2="149.8281"/><text fill="#000000" font-family="sans-serif" font-size="13" lengthAdjust="spacing" textLength="164.9121" x="341.9927" y="144.7622">enricherApplicationName</text><text fill="#808080" font-family="sans-serif" font-size="13" lengthAdjust="spacing" textLength="69.0562" x="515.1694" y="144.7622">0.0319 ms</text><polygon fill="#181818" points="345.9927,174.9609,335.9927,178.9609,345.9927,182.9609,341.9927,178.9609" style="stroke:#181818;stroke-width:1.0;"/><line style="stroke:#181818;stroke-width:1.0;stroke-dasharray:2.0,2.0;" x1="339.9927" x2="600.2256" y1="178.9609" y2="178.9609"/><text fill="#000000" font-family="sans-serif" font-size="13" lengthAdjust="spacing" textLength="27.5107" x="351.9927" y="173.895">void</text><polygon fill="#181818" points="161.0688,211.0938,151.0688,215.0938,161.0688,219.0938,157.0688,215.0938" style="stroke:#181818;stroke-width:1.0;"/><line style="stroke:#181818;stroke-width:1.0;stroke-dasharray:2.0,2.0;" x1="155.0688" x2="328.9927" y1="215.0938" y2="215.0938"/><text fill="#000000" font-family="sans-serif" font-size="13" lengthAdjust="spacing" textLength="27.5107" x="167.0688" y="210.0278">void</text><polygon fill="#181818" points="11,240.2266,1,244.2266,11,248.2266,7,244.2266" style="stroke:#181818;stroke-width:1.0;"/><line style="stroke:#181818;stroke-width:1.0;stroke-dasharray:2.0,2.0;" x1="5" x2="144.0688" y1="244.2266" y2="244.2266"/><text fill="#000000" font-family="sans-serif" font-size="13" lengthAdjust="spacing" textLength="27.5107" x="17" y="239.1606">void</text><!--SRC=[ZPB1QiCm44Jl-Oh5TxTn0wKrnf23By4qXVQMav0tZi3MgYiHwD_7TOkf9AlqgD7CczKY8zWfgOpG3bx9kfxnxMCuMDBlQ1q82raiPnkJZAr4V7kZMSdBYDeTp-VPxIdP1k2Krt5f2GFr3JCnL986uh9dyLd3zgvuB62qrVsirbDUIAUkmk7AYwPRM973mXAcaIssrBTAOrIuU_8BavNp7K1BPE01d1hHXh3jhdWEQV6GUUrjgGISZyXxOmObXLEaNyI8_wKlythOH7cLvq7xbLItc3lyazReBh7rYHkkVG7_WaOhFKN1xm_o4qv6lrmt]--></g></svg>