<svg xmlns="http://www.w3.org/2000/svg" xmlns:xlink="http://www.w3.org/1999/xlink" contentStyleType="text/css" height="334px" preserveAspectRatio="none" style="width:738px;height:334px;background:#000000;" version="1.1" viewBox="0 0 738 334" width="738px" zoomAndPan="magnify"><defs/><g><rect fill="none" height="189.8438" style="stroke:#999999;stroke-width:1.0;" width="10" x="208.6895" y="83.9375"/><rect fill="none" height="113.9063" style="stroke:#999999;stroke-width:1.0;" width="10" x="424.2998" y="121.9063"/><rect fill="none" height="37.9688" style="stroke:#999999;stroke-width:1.0;" width="10" x="671.6299" y="159.875"/><line style="stroke:#999999;stroke-width:0.5;stroke-dasharray:5.0,5.0;" x1="213.4668" x2="213.4668" y1="43.9688" y2="291.7813"/><line style="stroke:#999999;stroke-width:0.5;stroke-dasharray:5.0,5.0;" x1="428.9121" x2="428.9121" y1="43.9688" y2="291.7813"/><line style="stroke:#999999;stroke-width:0.5;stroke-dasharray:5.0,5.0;" x1="676.1621" x2="676.1621" y1="43.9688" y2="291.7813"/><rect fill="#555555" height="37.9688" rx="4" ry="4" style="stroke:#555555;stroke-width:1.0;" width="138.4453" x="144.4668" y="5"/><text fill="#FFFFFF" font-family="Verdana" font-size="12" lengthAdjust="spacing" textLength="114.4453" x="156.4668" y="28.1387">PostgreSqlJsonTest</text><rect fill="#555555" height="37.9688" rx="4" ry="4" style="stroke:#555555;stroke-width:1.0;" width="138.4453" x="144.4668" y="290.7813"/><text fill="#FFFFFF" font-family="Verdana" font-size="12" lengthAdjust="spacing" textLength="114.4453" x="156.4668" y="313.9199">PostgreSqlJsonTest</text><rect fill="#555555" height="37.9688" rx="4" ry="4" style="stroke:#555555;stroke-width:1.0;" width="112.7754" x="372.9121" y="5"/><text fill="#FFFFFF" font-family="Verdana" font-size="12" lengthAdjust="spacing" textLength="88.7754" x="384.9121" y="28.1387">PostgreSqlJson</text><rect fill="#555555" height="37.9688" rx="4" ry="4" style="stroke:#555555;stroke-width:1.0;" width="112.7754" x="372.9121" y="290.7813"/><text fill="#FFFFFF" font-family="Verdana" font-size="12" lengthAdjust="spacing" textLength="88.7754" x="384.9121" y="313.9199">PostgreSqlJson</text><rect fill="#555555" height="37.9688" rx="4" ry="4" style="stroke:#555555;stroke-width:1.0;" width="110.9355" x="621.1621" y="5"/><text fill="#FFFFFF" font-family="Verdana" font-size="12" lengthAdjust="spacing" textLength="86.9355" x="633.1621" y="28.1387">EnrichmentOff</text><rect fill="#555555" height="37.9688" rx="4" ry="4" style="stroke:#555555;stroke-width:1.0;" width="110.9355" x="621.1621" y="290.7813"/><text fill="#FFFFFF" font-family="Verdana" font-size="12" lengthAdjust="spacing" textLength="86.9355" x="633.1621" y="313.9199">EnrichmentOff</text><rect fill="none" height="189.8438" style="stroke:#999999;stroke-width:1.0;" width="10" x="208.6895" y="83.9375"/><rect fill="none" height="113.9063" style="stroke:#999999;stroke-width:1.0;" width="10" x="424.2998" y="121.9063"/><rect fill="none" height="37.9688" style="stroke:#999999;stroke-width:1.0;" width="10" x="671.6299" y="159.875"/><polygon fill="#4362B1" points="196.6895,79.9375,206.6895,83.9375,196.6895,87.9375,200.6895,83.9375" style="stroke:#4362B1;stroke-width:1.0;"/><line style="stroke:#4362B1;stroke-width:3.0;" x1="0" x2="202.6895" y1="83.9375" y2="83.9375"/><text fill="#FFFFFF" font-family="Verdana" font-size="12" lengthAdjust="spacing" textLength="115.9512" x="12" y="74.1074">logUnknowSeverity</text><text fill="#808080" font-family="Verdana" font-size="12" lengthAdjust="spacing" textLength="56.1094" x="135.5801" y="74.1074">0.103 ms</text><polygon fill="#4362B1" points="412.2998,117.9063,422.2998,121.9063,412.2998,125.9063,416.2998,121.9063" style="stroke:#4362B1;stroke-width:1.0;"/><line style="stroke:#4362B1;stroke-width:3.0;" x1="218.6895" x2="418.2998" y1="121.9063" y2="121.9063"/><text fill="#FFFFFF" font-family="Verdana" font-size="12" lengthAdjust="spacing" textLength="80.1914" x="230.6895" y="112.0762">parseLogLine</text><text fill="#808080" font-family="Verdana" font-size="12" lengthAdjust="spacing" textLength="63.7441" x="318.5098" y="112.0762">0.0825 ms</text><polygon fill="#4362B1" points="659.6299,155.875,669.6299,159.875,659.6299,163.875,663.6299,159.875" style="stroke:#4362B1;stroke-width:1.0;"/><line style="stroke:#4362B1;stroke-width:3.0;" x1="434.2998" x2="665.6299" y1="159.875" y2="159.875"/><text fill="#FFFFFF" font-family="Verdana" font-size="12" lengthAdjust="spacing" textLength="152.2266" x="446.2998" y="150.0449">enricherApplicationName</text><text fill="#808080" font-family="Verdana" font-size="12" lengthAdjust="spacing" textLength="48.4746" x="606.1553" y="150.0449">0.02 ms</text><polygon fill="#4362B1" points="445.2998,193.8438,435.2998,197.8438,445.2998,201.8438,441.2998,197.8438" style="stroke:#4362B1;stroke-width:1.0;"/><line style="stroke:#4362B1;stroke-width:3.0;stroke-dasharray:2.0,2.0;" x1="439.2998" x2="675.6299" y1="197.8438" y2="197.8438"/><text fill="#FFFFFF" font-family="Verdana" font-size="12" lengthAdjust="spacing" textLength="25.3945" x="456.2998" y="188.0137">void</text><polygon fill="#4362B1" points="229.6895,231.8125,219.6895,235.8125,229.6895,239.8125,225.6895,235.8125" style="stroke:#4362B1;stroke-width:1.0;"/><line style="stroke:#4362B1;stroke-width:3.0;stroke-dasharray:2.0,2.0;" x1="223.6895" x2="428.2998" y1="235.8125" y2="235.8125"/><text fill="#FFFFFF" font-family="Verdana" font-size="12" lengthAdjust="spacing" textLength="25.3945" x="240.6895" y="225.9824">void</text><polygon fill="#4362B1" points="11,269.7813,1,273.7813,11,277.7813,7,273.7813" style="stroke:#4362B1;stroke-width:1.0;"/><line style="stroke:#4362B1;stroke-width:3.0;stroke-dasharray:2.0,2.0;" x1="5" x2="212.6895" y1="273.7813" y2="273.7813"/><text fill="#FFFFFF" font-family="Verdana" font-size="12" lengthAdjust="spacing" textLength="25.3945" x="22" y="263.9512">void</text><!--SRC=[VP5BJyCm48Jl_HLBxeb34HAAgaWzS44L81LEFHbtwrZuXRrfrN-FIIlKFDgZPsVcizTtoWhTRh4D6XeY7ol60ZyKKb7JVhKHWt2Mq58Xd64IYNjlk6TUSqkjqJarQ90PhYmxZKvAuTDmvdaW9PHFNdXtaMJ0zOz-YSv-O2JW4RAndDs8JKJwzcSRb6XCkl3RRjUvUqes0zZazHXQWNRoqtvRTrZZ7eEY8oo4qovKCl1Z3MLnNpw0YGlMgNKgueBKdXDEF2rDOK8UaYj8Tu-uSdAbB0w1vTFyiK-yokncGs9UzzvU0NP734lljHASbBElt8ovyo7rWjkhdCGkydp0tJkrFLktUADflB3KDTpOVzb5rMWPcr7mzCddyDNed-iN]--></g></svg>