<svg xmlns="http://www.w3.org/2000/svg" xmlns:xlink="http://www.w3.org/1999/xlink" contentStyleType="text/css" height="355px" preserveAspectRatio="none" style="width:699px;height:355px;background:#FFFFFF;" version="1.1" viewBox="0 0 699 355" width="699px" zoomAndPan="magnify"><defs/><g><rect fill="#FFFFFF" height="235.0625" style="stroke:#181818;stroke-width:1.0;" width="10" x="180.9922" y="67.4297"/><rect fill="#FFFFFF" height="176.7969" style="stroke:#181818;stroke-width:1.0;" width="10" x="357.645" y="96.5625"/><rect fill="#FFFFFF" height="29.1328" style="stroke:#181818;stroke-width:1.0;" width="10" x="620.6069" y="149.8281"/><rect fill="#FFFFFF" height="29.1328" style="stroke:#181818;stroke-width:1.0;" width="10" x="620.6069" y="215.0938"/><rect fill="none" height="75.3984" style="stroke:#000000;stroke-width:1.5;" width="399.46" x="293.8594" y="111.5625"/><line style="stroke:#181818;stroke-width:0.5;stroke-dasharray:5.0,5.0;" x1="185.2324" x2="185.2324" y1="36.2969" y2="320.4922"/><line style="stroke:#181818;stroke-width:0.5;stroke-dasharray:5.0,5.0;" x1="361.8594" x2="361.8594" y1="36.2969" y2="320.4922"/><line style="stroke:#181818;stroke-width:0.5;stroke-dasharray:5.0,5.0;" x1="624.8945" x2="624.8945" y1="36.2969" y2="320.4922"/><rect fill="#E2E2F0" height="30.2969" rx="2.5" ry="2.5" style="stroke:#181818;stroke-width:0.5;" width="147.5195" x="112.2324" y="5"/><text fill="#000000" font-family="sans-serif" font-size="14" lengthAdjust="spacing" textLength="133.5195" x="119.2324" y="24.9951">PostgreSqlJsonTest</text><rect fill="#E2E2F0" height="30.2969" rx="2.5" ry="2.5" style="stroke:#181818;stroke-width:0.5;" width="147.5195" x="112.2324" y="319.4922"/><text fill="#000000" font-family="sans-serif" font-size="14" lengthAdjust="spacing" textLength="133.5195" x="119.2324" y="339.4873">PostgreSqlJsonTest</text><rect fill="#E2E2F0" height="30.2969" rx="2.5" ry="2.5" style="stroke:#181818;stroke-width:0.5;" width="117.5713" x="303.8594" y="5"/><text fill="#000000" font-family="sans-serif" font-size="14" lengthAdjust="spacing" textLength="103.5713" x="310.8594" y="24.9951">PostgreSqlJson</text><rect fill="#E2E2F0" height="30.2969" rx="2.5" ry="2.5" style="stroke:#181818;stroke-width:0.5;" width="117.5713" x="303.8594" y="319.4922"/><text fill="#000000" font-family="sans-serif" font-size="14" lengthAdjust="spacing" textLength="103.5713" x="310.8594" y="339.4873">PostgreSqlJson</text><rect fill="#E2E2F0" height="30.2969" rx="2.5" ry="2.5" style="stroke:#181818;stroke-width:0.5;" width="115.4248" x="567.8945" y="5"/><text fill="#000000" font-family="sans-serif" font-size="14" lengthAdjust="spacing" textLength="101.4248" x="574.8945" y="24.9951">EnrichmentOff</text><rect fill="#E2E2F0" height="30.2969" rx="2.5" ry="2.5" style="stroke:#181818;stroke-width:0.5;" width="115.4248" x="567.8945" y="319.4922"/><text fill="#000000" font-family="sans-serif" font-size="14" lengthAdjust="spacing" textLength="101.4248" x="574.8945" y="339.4873">EnrichmentOff</text><rect fill="#FFFFFF" height="235.0625" style="stroke:#181818;stroke-width:1.0;" width="10" x="180.9922" y="67.4297"/><rect fill="#FFFFFF" height="176.7969" style="stroke:#181818;stroke-width:1.0;" width="10" x="357.645" y="96.5625"/><rect fill="#FFFFFF" height="29.1328" style="stroke:#181818;stroke-width:1.0;" width="10" x="620.6069" y="149.8281"/><rect fill="#FFFFFF" height="29.1328" style="stroke:#181818;stroke-width:1.0;" width="10" x="620.6069" y="215.0938"/><polygon fill="#181818" points="168.9922,63.4297,178.9922,67.4297,168.9922,71.4297,172.9922,67.4297" style="stroke:#181818;stroke-width:1.0;"/><line style="stroke:#181818;stroke-width:1.0;" x1="0" x2="174.9922" y1="67.4297" y2="67.4297"/><text fill="#000000" font-family="sans-serif" font-size="13" lengthAdjust="spacing" textLength="101.2134" x="7" y="62.3638">logWithQueryId</text><text fill="#808080" font-family="sans-serif" font-size="13" lengthAdjust="spacing" textLength="52.5142" x="116.478" y="62.3638">2.08 ms</text><polygon fill="#181818" points="345.645,92.5625,355.645,96.5625,345.645,100.5625,349.645,96.5625" style="stroke:#181818;stroke-width:1.0;"/><line style="stroke:#181818;stroke-width:1.0;" x1="190.9922" x2="351.645" y1="96.5625" y2="96.5625"/><text fill="#000000" font-family="sans-serif" font-size="13" lengthAdjust="spacing" textLength="86.874" x="197.9922" y="91.4966">parseLogLine</text><text fill="#808080" font-family="sans-serif" font-size="13" lengthAdjust="spacing" textLength="52.5142" x="293.1309" y="91.4966">1.94 ms</text><path d="M293.8594,111.5625 L370.4834,111.5625 L370.4834,118.6953 L360.4834,128.6953 L293.8594,128.6953 L293.8594,111.5625 " fill="#EEEEEE" style="stroke:#000000;stroke-width:1.5;"/><rect fill="none" height="75.3984" style="stroke:#000000;stroke-width:1.5;" width="399.46" x="293.8594" y="111.5625"/><text fill="#000000" font-family="sans-serif" font-size="13" font-weight="bold" lengthAdjust="spacing" textLength="31.624" x="308.8594" y="124.6294">loop</text><text fill="#000000" font-family="sans-serif" font-size="11" font-weight="bold" lengthAdjust="spacing" textLength="51.0093" x="385.4834" y="123.7729">[2 times</text><text fill="#808080" font-family="sans-serif" font-size="11" font-weight="bold" lengthAdjust="spacing" textLength="56.6328" x="444.1519" y="123.7729">0.049 ms</text><text fill="#000000" font-family="sans-serif" font-size="11" font-weight="bold" lengthAdjust="spacing" textLength="5.0273" x="500.7847" y="123.7729">]</text><polygon fill="#181818" points="608.6069,145.8281,618.6069,149.8281,608.6069,153.8281,612.6069,149.8281" style="stroke:#181818;stroke-width:1.0;"/><line style="stroke:#181818;stroke-width:1.0;" x1="367.645" x2="614.6069" y1="149.8281" y2="149.8281"/><text fill="#000000" font-family="sans-serif" font-size="13" lengthAdjust="spacing" textLength="164.9121" x="374.645" y="144.7622">enricherApplicationName</text><text fill="#808080" font-family="sans-serif" font-size="13" lengthAdjust="spacing" textLength="60.7852" x="547.8218" y="144.7622">0.049 ms</text><polygon fill="#181818" points="378.645,174.9609,368.645,178.9609,378.645,182.9609,374.645,178.9609" style="stroke:#181818;stroke-width:1.0;"/><line style="stroke:#181818;stroke-width:1.0;stroke-dasharray:2.0,2.0;" x1="372.645" x2="624.6069" y1="178.9609" y2="178.9609"/><text fill="#000000" font-family="sans-serif" font-size="13" lengthAdjust="spacing" textLength="27.5107" x="384.645" y="173.895">void</text><polygon fill="#181818" points="608.6069,211.0938,618.6069,215.0938,608.6069,219.0938,612.6069,215.0938" style="stroke:#181818;stroke-width:1.0;"/><line style="stroke:#181818;stroke-width:1.0;" x1="367.645" x2="614.6069" y1="215.0938" y2="215.0938"/><text fill="#000000" font-family="sans-serif" font-size="13" lengthAdjust="spacing" textLength="89.7559" x="374.645" y="210.0278">getStatement</text><text fill="#808080" font-family="sans-serif" font-size="13" lengthAdjust="spacing" textLength="69.0562" x="472.6655" y="210.0278">0.0076 ms</text><polygon fill="#181818" points="378.645,240.2266,368.645,244.2266,378.645,248.2266,374.645,244.2266" style="stroke:#181818;stroke-width:1.0;"/><line style="stroke:#181818;stroke-width:1.0;stroke-dasharray:2.0,2.0;" x1="372.645" x2="624.6069" y1="244.2266" y2="244.2266"/><text fill="#000000" font-family="sans-serif" font-size="13" lengthAdjust="spacing" textLength="27.5107" x="384.645" y="239.1606">void</text><polygon fill="#181818" points="201.9922,269.3594,191.9922,273.3594,201.9922,277.3594,197.9922,273.3594" style="stroke:#181818;stroke-width:1.0;"/><line style="stroke:#181818;stroke-width:1.0;stroke-dasharray:2.0,2.0;" x1="195.9922" x2="361.645" y1="273.3594" y2="273.3594"/><text fill="#000000" font-family="sans-serif" font-size="13" lengthAdjust="spacing" textLength="27.5107" x="207.9922" y="268.2935">void</text><polygon fill="#181818" points="11,298.4922,1,302.4922,11,306.4922,7,302.4922" style="stroke:#181818;stroke-width:1.0;"/><line style="stroke:#181818;stroke-width:1.0;stroke-dasharray:2.0,2.0;" x1="5" x2="184.9922" y1="302.4922" y2="302.4922"/><text fill="#000000" font-family="sans-serif" font-size="13" lengthAdjust="spacing" textLength="27.5107" x="17" y="297.4263">void</text><!--SRC=[bPBDJiCm48JlVOfLxWcXge16KIGEFO0YVbGa3ZrPoTQrbDZ6NYhrxN43H3XE0Xmpdlrc9rhD38bAQ2O9dfGbRd3xrjnR9L_G4Z0BKIX72pqvDZBYspVIYEhGegJ7_RvpUqgq0DZ5HHYQGQFugw33ypkQqrqDUQKQPJ9ksAc0PPBUG6lpYqui78HL98wCSAIMUuKHUPYQWTlROgbuAIJwUPV9UkNdJIPsRm2bKXgMGA95wxFI95sjXx1mnRZmVbG6s7sYkTMw4HKZeUG3Q_6Fy7vRZpgHdSVn8FoeHDsRQvobRUItzPT676bBZd8MWXhfzLNOOpRt7nrc6uIdubZ3M-bXFr318Uo2mS_J_XgU73sxFW00]--></g></svg>