<svg xmlns="http://www.w3.org/2000/svg" xmlns:xlink="http://www.w3.org/1999/xlink" contentStyleType="text/css" height="588px" preserveAspectRatio="none" style="width:798px;height:588px;background:#000000;" version="1.1" viewBox="0 0 798 588" width="798px" zoomAndPan="magnify"><defs/><g><rect fill="none" height="443.6563" style="stroke:#999999;stroke-width:1.0;" width="10" x="253.3555" y="83.9375"/><rect fill="none" height="367.7188" style="stroke:#999999;stroke-width:1.0;" width="10" x="476.4688" y="121.9063"/><rect fill="none" height="48.9688" style="stroke:#999999;stroke-width:1.0;" width="10" x="481.4688" y="167.875"/><rect fill="none" height="37.9688" style="stroke:#999999;stroke-width:1.0;" width="10" x="713.5215" y="261.8125"/><rect fill="none" height="37.9688" style="stroke:#999999;stroke-width:1.0;" width="10" x="713.5215" y="337.75"/><rect fill="none" height="37.9688" style="stroke:#999999;stroke-width:1.0;" width="10" x="713.5215" y="413.6875"/><line style="stroke:#999999;stroke-width:0.5;stroke-dasharray:5.0,5.0;" x1="258.2822" x2="258.2822" y1="43.9688" y2="545.5938"/><line style="stroke:#999999;stroke-width:0.5;stroke-dasharray:5.0,5.0;" x1="481.0811" x2="481.0811" y1="43.9688" y2="545.5938"/><line style="stroke:#999999;stroke-width:0.5;stroke-dasharray:5.0,5.0;" x1="717.8135" x2="717.8135" y1="43.9688" y2="545.5938"/><rect fill="#555555" height="37.9688" rx="4" ry="4" style="stroke:#555555;stroke-width:1.0;" width="132.1465" x="192.2822" y="5"/><text fill="#FFFFFF" font-family="Verdana" font-size="12" lengthAdjust="spacing" textLength="108.1465" x="204.2822" y="28.1387">WatchServiceTest</text><rect fill="#555555" height="37.9688" rx="4" ry="4" style="stroke:#555555;stroke-width:1.0;" width="132.1465" x="192.2822" y="544.5938"/><text fill="#FFFFFF" font-family="Verdana" font-size="12" lengthAdjust="spacing" textLength="108.1465" x="204.2822" y="567.7324">WatchServiceTest</text><rect fill="#555555" height="37.9688" rx="4" ry="4" style="stroke:#555555;stroke-width:1.0;" width="112.7754" x="425.0811" y="5"/><text fill="#FFFFFF" font-family="Verdana" font-size="12" lengthAdjust="spacing" textLength="88.7754" x="437.0811" y="28.1387">PostgreSqlJson</text><rect fill="#555555" height="37.9688" rx="4" ry="4" style="stroke:#555555;stroke-width:1.0;" width="112.7754" x="425.0811" y="544.5938"/><text fill="#FFFFFF" font-family="Verdana" font-size="12" lengthAdjust="spacing" textLength="88.7754" x="437.0811" y="567.7324">PostgreSqlJson</text><rect fill="#555555" height="37.9688" rx="4" ry="4" style="stroke:#555555;stroke-width:1.0;" width="147.416" x="644.8135" y="5"/><text fill="#FFFFFF" font-family="Verdana" font-size="12" lengthAdjust="spacing" textLength="123.416" x="656.8135" y="28.1387">WatchServiceTest$1</text><rect fill="#555555" height="37.9688" rx="4" ry="4" style="stroke:#555555;stroke-width:1.0;" width="147.416" x="644.8135" y="544.5938"/><text fill="#FFFFFF" font-family="Verdana" font-size="12" lengthAdjust="spacing" textLength="123.416" x="656.8135" y="567.7324">WatchServiceTest$1</text><rect fill="none" height="443.6563" style="stroke:#999999;stroke-width:1.0;" width="10" x="253.3555" y="83.9375"/><rect fill="none" height="367.7188" style="stroke:#999999;stroke-width:1.0;" width="10" x="476.4688" y="121.9063"/><rect fill="none" height="48.9688" style="stroke:#999999;stroke-width:1.0;" width="10" x="481.4688" y="167.875"/><rect fill="none" height="37.9688" style="stroke:#999999;stroke-width:1.0;" width="10" x="713.5215" y="261.8125"/><rect fill="none" height="37.9688" style="stroke:#999999;stroke-width:1.0;" width="10" x="713.5215" y="337.75"/><rect fill="none" height="37.9688" style="stroke:#999999;stroke-width:1.0;" width="10" x="713.5215" y="413.6875"/><polygon fill="#4362B1" points="241.3555,79.9375,251.3555,83.9375,241.3555,87.9375,245.3555,83.9375" style="stroke:#4362B1;stroke-width:1.0;"/><line style="stroke:#4362B1;stroke-width:3.0;" x1="0" x2="247.3555" y1="83.9375" y2="83.9375"/><text fill="#FFFFFF" font-family="Verdana" font-size="12" lengthAdjust="spacing" textLength="179.7012" x="12" y="74.1074">testWatchServiceSkipNonJson</text><text fill="#808080" font-family="Verdana" font-size="12" lengthAdjust="spacing" textLength="37.0254" x="199.3301" y="74.1074">17 ms</text><polygon fill="#4362B1" points="464.4688,117.9063,474.4688,121.9063,464.4688,125.9063,468.4688,121.9063" style="stroke:#4362B1;stroke-width:1.0;"/><line style="stroke:#4362B1;stroke-width:3.0;" x1="263.3555" x2="470.4688" y1="121.9063" y2="121.9063"/><text fill="#FFFFFF" font-family="Verdana" font-size="12" lengthAdjust="spacing" textLength="128.0098" x="275.3555" y="112.0762">watchPostgreSqlLogs</text><text fill="#808080" font-family="Verdana" font-size="12" lengthAdjust="spacing" textLength="48.4746" x="410.9941" y="112.0762">0.66 ms</text><line style="stroke:#4362B1;stroke-width:3.0;" x1="486.4688" x2="533.4688" y1="154.875" y2="154.875"/><line style="stroke:#4362B1;stroke-width:3.0;" x1="533.4688" x2="533.4688" y1="154.875" y2="167.875"/><line style="stroke:#4362B1;stroke-width:3.0;" x1="492.4688" x2="533.4688" y1="167.875" y2="167.875"/><polygon fill="#4362B1" points="502.4688,163.875,492.4688,167.875,502.4688,171.875,498.4688,167.875" style="stroke:#4362B1;stroke-width:1.0;"/><text fill="#FFFFFF" font-family="Verdana" font-size="12" lengthAdjust="spacing" textLength="90.5977" x="503.4688" y="145.0449">initLogEnricher</text><text fill="#808080" font-family="Verdana" font-size="12" lengthAdjust="spacing" textLength="56.1094" x="601.6953" y="145.0449">0.019 ms</text><line style="stroke:#4362B1;stroke-width:3.0;stroke-dasharray:2.0,2.0;" x1="434.4688" x2="480.4688" y1="215.8438" y2="215.8438"/><line style="stroke:#4362B1;stroke-width:3.0;stroke-dasharray:2.0,2.0;" x1="434.4688" x2="434.4688" y1="215.8438" y2="228.8438"/><line style="stroke:#4362B1;stroke-width:3.0;stroke-dasharray:2.0,2.0;" x1="434.4688" x2="474.4688" y1="228.8438" y2="228.8438"/><polygon fill="#4362B1" points="464.4688,224.8438,474.4688,228.8438,464.4688,232.8438,468.4688,228.8438" style="stroke:#4362B1;stroke-width:1.0;"/><text fill="#FFFFFF" font-family="Verdana" font-size="12" lengthAdjust="spacing" textLength="25.3945" x="438.4688" y="206.0137">void</text><polygon fill="#4362B1" points="701.5215,257.8125,711.5215,261.8125,701.5215,265.8125,705.5215,261.8125" style="stroke:#4362B1;stroke-width:1.0;"/><line style="stroke:#4362B1;stroke-width:3.0;" x1="486.4688" x2="707.5215" y1="261.8125" y2="261.8125"/><text fill="#FFFFFF" font-family="Verdana" font-size="12" lengthAdjust="spacing" textLength="102.6211" x="498.4688" y="251.9824">positionFileTasks</text><text fill="#808080" font-family="Verdana" font-size="12" lengthAdjust="spacing" textLength="63.7441" x="608.7188" y="251.9824">0.0139 ms</text><polygon fill="#4362B1" points="497.4688,295.7813,487.4688,299.7813,497.4688,303.7813,493.4688,299.7813" style="stroke:#4362B1;stroke-width:1.0;"/><line style="stroke:#4362B1;stroke-width:3.0;stroke-dasharray:2.0,2.0;" x1="491.4688" x2="717.5215" y1="299.7813" y2="299.7813"/><text fill="#FFFFFF" font-family="Verdana" font-size="12" lengthAdjust="spacing" textLength="100.9043" x="508.4688" y="289.9512">java.lang.Thread</text><polygon fill="#4362B1" points="701.5215,333.75,711.5215,337.75,701.5215,341.75,705.5215,337.75" style="stroke:#4362B1;stroke-width:1.0;"/><line style="stroke:#4362B1;stroke-width:3.0;" x1="486.4688" x2="707.5215" y1="337.75" y2="337.75"/><text fill="#FFFFFF" font-family="Verdana" font-size="12" lengthAdjust="spacing" textLength="94.4707" x="498.4688" y="327.9199">initialLogImport</text><text fill="#808080" font-family="Verdana" font-size="12" lengthAdjust="spacing" textLength="63.7441" x="600.5684" y="327.9199">0.0161 ms</text><polygon fill="#4362B1" points="497.4688,371.7188,487.4688,375.7188,497.4688,379.7188,493.4688,375.7188" style="stroke:#4362B1;stroke-width:1.0;"/><line style="stroke:#4362B1;stroke-width:3.0;stroke-dasharray:2.0,2.0;" x1="491.4688" x2="717.5215" y1="375.7188" y2="375.7188"/><text fill="#FFFFFF" font-family="Verdana" font-size="12" lengthAdjust="spacing" textLength="25.3945" x="508.4688" y="365.8887">void</text><polygon fill="#4362B1" points="701.5215,409.6875,711.5215,413.6875,701.5215,417.6875,705.5215,413.6875" style="stroke:#4362B1;stroke-width:1.0;"/><line style="stroke:#4362B1;stroke-width:3.0;" x1="486.4688" x2="707.5215" y1="413.6875" y2="413.6875"/><text fill="#FFFFFF" font-family="Verdana" font-size="12" lengthAdjust="spacing" textLength="119.0449" x="498.4688" y="403.8574">registerWatchEvent</text><text fill="#808080" font-family="Verdana" font-size="12" lengthAdjust="spacing" textLength="71.3789" x="625.1426" y="403.8574">0.00894 ms</text><polygon fill="#4362B1" points="497.4688,447.6563,487.4688,451.6563,497.4688,455.6563,493.4688,451.6563" style="stroke:#4362B1;stroke-width:1.0;"/><line style="stroke:#4362B1;stroke-width:3.0;stroke-dasharray:2.0,2.0;" x1="491.4688" x2="717.5215" y1="451.6563" y2="451.6563"/><text fill="#FFFFFF" font-family="Verdana" font-size="12" lengthAdjust="spacing" textLength="25.3945" x="508.4688" y="441.8262">void</text><polygon fill="#4362B1" points="274.3555,485.625,264.3555,489.625,274.3555,493.625,270.3555,489.625" style="stroke:#4362B1;stroke-width:1.0;"/><line style="stroke:#4362B1;stroke-width:3.0;stroke-dasharray:2.0,2.0;" x1="268.3555" x2="480.4688" y1="489.625" y2="489.625"/><text fill="#FFFFFF" font-family="Verdana" font-size="12" lengthAdjust="spacing" textLength="101.8477" x="285.3555" y="479.7949">java.lang.Integer</text><polygon fill="#4362B1" points="11,523.5938,1,527.5938,11,531.5938,7,527.5938" style="stroke:#4362B1;stroke-width:1.0;"/><line style="stroke:#4362B1;stroke-width:3.0;stroke-dasharray:2.0,2.0;" x1="5" x2="257.3555" y1="527.5938" y2="527.5938"/><text fill="#FFFFFF" font-family="Verdana" font-size="12" lengthAdjust="spacing" textLength="25.3945" x="22" y="517.7637">void</text><!--SRC=[pPHFIyD04CNl_HHhy9gaGQasbDmgL4I45Zpq8EjsICOck-lk9CLlxpOLs_onMaJmaiDxi_ERnsps3AN8onMK9cSPaRPn61g-2LAah7mkBHYX986aGAWYJ86urWNNeSwvfBB8VSgWWB3WACETjLC2xSo1vePGe7Qrx96JoEPWAXIm04kCM-QrHQznv45PIWtCN_DRgsHze2bvHmbFKI_ZFF86Z2tzf6t4ZDptK9slKTyhMTCdGkNAnAdXRmcBhbXX9s4j9QuR5uGL9-ZCu3pM4Vsa6IDccst5NhnJgMq2Xy5er4GUG9lTQe-rn2uI9PBZJAL1aO5fuuRHkCqxZJZn_JQoKhZwg5t1QTDtTniphImIAdc3EIouNTjkXejZ8RezlmhIHt_X5G_SNv06Yym0xmdsm_xzuRRhGRwz2RD2AqFTRAFepxBrB-fNUGoaQ0bCxKqhzw9q4WslnvV_8r9RxhdB-_NFtFkOWXbyTwsNFPDzpdLafdS0]--></g></svg>