<svg xmlns="http://www.w3.org/2000/svg" xmlns:xlink="http://www.w3.org/1999/xlink" contentStyleType="text/css" height="410px" preserveAspectRatio="none" style="width:721px;height:410px;background:#000000;" version="1.1" viewBox="0 0 721 410" width="721px" zoomAndPan="magnify"><defs/><g><rect fill="none" height="265.7813" style="stroke:#999999;stroke-width:1.0;" width="10" x="234.166" y="83.9375"/><rect fill="none" height="37.9688" style="stroke:#999999;stroke-width:1.0;" width="10" x="453.3887" y="121.9063"/><rect fill="none" height="113.9063" style="stroke:#999999;stroke-width:1.0;" width="10" x="453.3887" y="197.8438"/><rect fill="none" height="37.9688" style="stroke:#999999;stroke-width:1.0;" width="10" x="655.2441" y="235.8125"/><line style="stroke:#999999;stroke-width:0.5;stroke-dasharray:5.0,5.0;" x1="238.3311" x2="238.3311" y1="43.9688" y2="367.7188"/><line style="stroke:#999999;stroke-width:0.5;stroke-dasharray:5.0,5.0;" x1="458.001" x2="458.001" y1="43.9688" y2="367.7188"/><line style="stroke:#999999;stroke-width:0.5;stroke-dasharray:5.0,5.0;" x1="659.7764" x2="659.7764" y1="43.9688" y2="367.7188"/><rect fill="#555555" height="37.9688" rx="4" ry="4" style="stroke:#555555;stroke-width:1.0;" width="145.6699" x="166.3311" y="5"/><text fill="#FFFFFF" font-family="Verdana" font-size="12" lengthAdjust="spacing" textLength="121.6699" x="178.3311" y="28.1387">LogFilesPositionTest</text><rect fill="#555555" height="37.9688" rx="4" ry="4" style="stroke:#555555;stroke-width:1.0;" width="145.6699" x="166.3311" y="366.7188"/><text fill="#FFFFFF" font-family="Verdana" font-size="12" lengthAdjust="spacing" textLength="121.6699" x="178.3311" y="389.8574">LogFilesPositionTest</text><rect fill="#555555" height="37.9688" rx="4" ry="4" style="stroke:#555555;stroke-width:1.0;" width="112.7754" x="402.001" y="5"/><text fill="#FFFFFF" font-family="Verdana" font-size="12" lengthAdjust="spacing" textLength="88.7754" x="414.001" y="28.1387">PostgreSqlJson</text><rect fill="#555555" height="37.9688" rx="4" ry="4" style="stroke:#555555;stroke-width:1.0;" width="112.7754" x="402.001" y="366.7188"/><text fill="#FFFFFF" font-family="Verdana" font-size="12" lengthAdjust="spacing" textLength="88.7754" x="414.001" y="389.8574">PostgreSqlJson</text><rect fill="#555555" height="37.9688" rx="4" ry="4" style="stroke:#555555;stroke-width:1.0;" width="110.9355" x="604.7764" y="5"/><text fill="#FFFFFF" font-family="Verdana" font-size="12" lengthAdjust="spacing" textLength="86.9355" x="616.7764" y="28.1387">EnrichmentOff</text><rect fill="#555555" height="37.9688" rx="4" ry="4" style="stroke:#555555;stroke-width:1.0;" width="110.9355" x="604.7764" y="366.7188"/><text fill="#FFFFFF" font-family="Verdana" font-size="12" lengthAdjust="spacing" textLength="86.9355" x="616.7764" y="389.8574">EnrichmentOff</text><rect fill="none" height="265.7813" style="stroke:#999999;stroke-width:1.0;" width="10" x="234.166" y="83.9375"/><rect fill="none" height="37.9688" style="stroke:#999999;stroke-width:1.0;" width="10" x="453.3887" y="121.9063"/><rect fill="none" height="113.9063" style="stroke:#999999;stroke-width:1.0;" width="10" x="453.3887" y="197.8438"/><rect fill="none" height="37.9688" style="stroke:#999999;stroke-width:1.0;" width="10" x="655.2441" y="235.8125"/><polygon fill="#4362B1" points="222.166,79.9375,232.166,83.9375,222.166,87.9375,226.166,83.9375" style="stroke:#4362B1;stroke-width:1.0;"/><line style="stroke:#4362B1;stroke-width:3.0;" x1="0" x2="228.166" y1="83.9375" y2="83.9375"/><text fill="#FFFFFF" font-family="Verdana" font-size="12" lengthAdjust="spacing" textLength="156.6973" x="12" y="74.1074">savePositionToInvalidPath</text><text fill="#808080" font-family="Verdana" font-size="12" lengthAdjust="spacing" textLength="40.8398" x="176.3262" y="74.1074">1.1 ms</text><polygon fill="#4362B1" points="441.3887,117.9063,451.3887,121.9063,441.3887,125.9063,445.3887,121.9063" style="stroke:#4362B1;stroke-width:1.0;"/><line style="stroke:#4362B1;stroke-width:3.0;" x1="244.166" x2="447.3887" y1="121.9063" y2="121.9063"/><text fill="#FFFFFF" font-family="Verdana" font-size="12" lengthAdjust="spacing" textLength="124.0898" x="256.166" y="112.0762">saveLogFilesPosition</text><text fill="#808080" font-family="Verdana" font-size="12" lengthAdjust="spacing" textLength="48.4746" x="387.8848" y="112.0762">0.22 ms</text><polygon fill="#4362B1" points="255.166,155.875,245.166,159.875,255.166,163.875,251.166,159.875" style="stroke:#4362B1;stroke-width:1.0;"/><line style="stroke:#4362B1;stroke-width:3.0;stroke-dasharray:2.0,2.0;" x1="249.166" x2="457.3887" y1="159.875" y2="159.875"/><text fill="#FFFFFF" font-family="Verdana" font-size="12" lengthAdjust="spacing" textLength="25.3945" x="266.166" y="150.0449">void</text><polygon fill="#4362B1" points="441.3887,193.8438,451.3887,197.8438,441.3887,201.8438,445.3887,197.8438" style="stroke:#4362B1;stroke-width:1.0;"/><line style="stroke:#4362B1;stroke-width:3.0;" x1="244.166" x2="447.3887" y1="197.8438" y2="197.8438"/><text fill="#FFFFFF" font-family="Verdana" font-size="12" lengthAdjust="spacing" textLength="30.9082" x="256.166" y="188.0137">close</text><text fill="#808080" font-family="Verdana" font-size="12" lengthAdjust="spacing" textLength="63.7441" x="294.7031" y="188.0137">0.0338 ms</text><polygon fill="#4362B1" points="643.2441,231.8125,653.2441,235.8125,643.2441,239.8125,647.2441,235.8125" style="stroke:#4362B1;stroke-width:1.0;"/><line style="stroke:#4362B1;stroke-width:3.0;" x1="463.3887" x2="649.2441" y1="235.8125" y2="235.8125"/><text fill="#FFFFFF" font-family="Verdana" font-size="12" lengthAdjust="spacing" textLength="30.9082" x="475.3887" y="225.9824">close</text><text fill="#808080" font-family="Verdana" font-size="12" lengthAdjust="spacing" textLength="63.7441" x="513.9258" y="225.9824">0.0144 ms</text><polygon fill="#4362B1" points="474.3887,269.7813,464.3887,273.7813,474.3887,277.7813,470.3887,273.7813" style="stroke:#4362B1;stroke-width:1.0;"/><line style="stroke:#4362B1;stroke-width:3.0;stroke-dasharray:2.0,2.0;" x1="468.3887" x2="659.2441" y1="273.7813" y2="273.7813"/><text fill="#FFFFFF" font-family="Verdana" font-size="12" lengthAdjust="spacing" textLength="25.3945" x="485.3887" y="263.9512">void</text><polygon fill="#4362B1" points="255.166,307.75,245.166,311.75,255.166,315.75,251.166,311.75" style="stroke:#4362B1;stroke-width:1.0;"/><line style="stroke:#4362B1;stroke-width:3.0;stroke-dasharray:2.0,2.0;" x1="249.166" x2="457.3887" y1="311.75" y2="311.75"/><text fill="#FFFFFF" font-family="Verdana" font-size="12" lengthAdjust="spacing" textLength="25.3945" x="266.166" y="301.9199">void</text><polygon fill="#4362B1" points="11,345.7188,1,349.7188,11,353.7188,7,349.7188" style="stroke:#4362B1;stroke-width:1.0;"/><line style="stroke:#4362B1;stroke-width:3.0;stroke-dasharray:2.0,2.0;" x1="5" x2="238.166" y1="349.7188" y2="349.7188"/><text fill="#FFFFFF" font-family="Verdana" font-size="12" lengthAdjust="spacing" textLength="25.3945" x="22" y="339.8887">void</text><!--SRC=[hPBBQiCm44Nt-GerUrjvBKe8tgNGKcYWtMKrbIUsGAzAOvV-VOLJWkKeYq2tzzwPCpFIWpH2TJLsNh6Mo8Kjvnw-oqPIstrs0RsmXj1GAQpc3H8ufy5nfy1GfrL1BMha6gJXP-kib2wQCmUUf90kPjchRPwamd2mGPAqvWC3CGXidZFcIMbqgF7u_gLUWZL3KIgbyRtnKhGw3lrsEWtfH9dF63iMLGwxPG5wl2ZssVIWP7q0QjbEM6Nzjl7mKx5bkMGwxFYWLR4X298z46RNZ3xB6aMLxd7cJvCfUb6kLYbxH4_RtUJkYc8AxgsiXtoDztQxta8e6t0wzcAzVhndS3OHYofvnbkKvMOpfOmuIOii9jvcmhcS9ZdETQV_lFGn5kP_w5_vg3YN-mK0]--></g></svg>