<svg xmlns="http://www.w3.org/2000/svg" xmlns:xlink="http://www.w3.org/1999/xlink" contentStyleType="text/css" height="512px" preserveAspectRatio="none" style="width:748px;height:512px;background:#000000;" version="1.1" viewBox="0 0 748 512" width="748px" zoomAndPan="magnify"><defs/><g><rect fill="none" height="367.7188" style="stroke:#999999;stroke-width:1.0;" width="10" x="218.8613" y="83.9375"/><rect fill="none" height="139.9063" style="stroke:#999999;stroke-width:1.0;" width="10" x="446.2139" y="121.9063"/><rect fill="none" height="48.9688" style="stroke:#999999;stroke-width:1.0;" width="10" x="451.2139" y="167.875"/><rect fill="none" height="113.9063" style="stroke:#999999;stroke-width:1.0;" width="10" x="446.2139" y="299.7813"/><rect fill="none" height="37.9688" style="stroke:#999999;stroke-width:1.0;" width="10" x="681.9619" y="337.75"/><line style="stroke:#999999;stroke-width:0.5;stroke-dasharray:5.0,5.0;" x1="222.8965" x2="222.8965" y1="43.9688" y2="469.6563"/><line style="stroke:#999999;stroke-width:0.5;stroke-dasharray:5.0,5.0;" x1="450.8262" x2="450.8262" y1="43.9688" y2="469.6563"/><line style="stroke:#999999;stroke-width:0.5;stroke-dasharray:5.0,5.0;" x1="686.4941" x2="686.4941" y1="43.9688" y2="469.6563"/><rect fill="#555555" height="37.9688" rx="4" ry="4" style="stroke:#555555;stroke-width:1.0;" width="161.9297" x="142.8965" y="5"/><text fill="#FFFFFF" font-family="Verdana" font-size="12" lengthAdjust="spacing" textLength="137.9297" x="154.8965" y="28.1387">ValidateParameterTest</text><rect fill="#555555" height="37.9688" rx="4" ry="4" style="stroke:#555555;stroke-width:1.0;" width="161.9297" x="142.8965" y="468.6563"/><text fill="#FFFFFF" font-family="Verdana" font-size="12" lengthAdjust="spacing" textLength="137.9297" x="154.8965" y="491.7949">ValidateParameterTest</text><rect fill="#555555" height="37.9688" rx="4" ry="4" style="stroke:#555555;stroke-width:1.0;" width="112.7754" x="394.8262" y="5"/><text fill="#FFFFFF" font-family="Verdana" font-size="12" lengthAdjust="spacing" textLength="88.7754" x="406.8262" y="28.1387">PostgreSqlJson</text><rect fill="#555555" height="37.9688" rx="4" ry="4" style="stroke:#555555;stroke-width:1.0;" width="112.7754" x="394.8262" y="468.6563"/><text fill="#FFFFFF" font-family="Verdana" font-size="12" lengthAdjust="spacing" textLength="88.7754" x="406.8262" y="491.7949">PostgreSqlJson</text><rect fill="#555555" height="37.9688" rx="4" ry="4" style="stroke:#555555;stroke-width:1.0;" width="110.9355" x="631.4941" y="5"/><text fill="#FFFFFF" font-family="Verdana" font-size="12" lengthAdjust="spacing" textLength="86.9355" x="643.4941" y="28.1387">EnrichmentOff</text><rect fill="#555555" height="37.9688" rx="4" ry="4" style="stroke:#555555;stroke-width:1.0;" width="110.9355" x="631.4941" y="468.6563"/><text fill="#FFFFFF" font-family="Verdana" font-size="12" lengthAdjust="spacing" textLength="86.9355" x="643.4941" y="491.7949">EnrichmentOff</text><rect fill="none" height="367.7188" style="stroke:#999999;stroke-width:1.0;" width="10" x="218.8613" y="83.9375"/><rect fill="none" height="139.9063" style="stroke:#999999;stroke-width:1.0;" width="10" x="446.2139" y="121.9063"/><rect fill="none" height="48.9688" style="stroke:#999999;stroke-width:1.0;" width="10" x="451.2139" y="167.875"/><rect fill="none" height="113.9063" style="stroke:#999999;stroke-width:1.0;" width="10" x="446.2139" y="299.7813"/><rect fill="none" height="37.9688" style="stroke:#999999;stroke-width:1.0;" width="10" x="681.9619" y="337.75"/><polygon fill="#4362B1" points="206.8613,79.9375,216.8613,83.9375,206.8613,87.9375,210.8613,83.9375" style="stroke:#4362B1;stroke-width:1.0;"/><line style="stroke:#4362B1;stroke-width:3.0;" x1="0" x2="212.8613" y1="83.9375" y2="83.9375"/><text fill="#FFFFFF" font-family="Verdana" font-size="12" lengthAdjust="spacing" textLength="133.7578" x="12" y="74.1074">nonDirectoryWatchDir</text><text fill="#808080" font-family="Verdana" font-size="12" lengthAdjust="spacing" textLength="48.4746" x="153.3867" y="74.1074">1.41 ms</text><polygon fill="#4362B1" points="434.2139,117.9063,444.2139,121.9063,434.2139,125.9063,438.2139,121.9063" style="stroke:#4362B1;stroke-width:1.0;"/><line style="stroke:#4362B1;stroke-width:3.0;" x1="228.8613" x2="440.2139" y1="121.9063" y2="121.9063"/><text fill="#FFFFFF" font-family="Verdana" font-size="12" lengthAdjust="spacing" textLength="20.6191" x="240.8613" y="112.0762">call</text><text fill="#808080" font-family="Verdana" font-size="12" lengthAdjust="spacing" textLength="56.1094" x="269.1094" y="112.0762">0.575 ms</text><line style="stroke:#4362B1;stroke-width:3.0;" x1="456.2139" x2="503.2139" y1="154.875" y2="154.875"/><line style="stroke:#4362B1;stroke-width:3.0;" x1="503.2139" x2="503.2139" y1="154.875" y2="167.875"/><line style="stroke:#4362B1;stroke-width:3.0;" x1="462.2139" x2="503.2139" y1="167.875" y2="167.875"/><polygon fill="#4362B1" points="472.2139,163.875,462.2139,167.875,472.2139,171.875,468.2139,167.875" style="stroke:#4362B1;stroke-width:1.0;"/><text fill="#FFFFFF" font-family="Verdana" font-size="12" lengthAdjust="spacing" textLength="128.0098" x="473.2139" y="145.0449">watchPostgreSqlLogs</text><text fill="#808080" font-family="Verdana" font-size="12" lengthAdjust="spacing" textLength="56.1094" x="608.8525" y="145.0449">0.369 ms</text><line style="stroke:#4362B1;stroke-width:3.0;stroke-dasharray:2.0,2.0;" x1="404.2139" x2="450.2139" y1="215.8438" y2="215.8438"/><line style="stroke:#4362B1;stroke-width:3.0;stroke-dasharray:2.0,2.0;" x1="404.2139" x2="404.2139" y1="215.8438" y2="228.8438"/><line style="stroke:#4362B1;stroke-width:3.0;stroke-dasharray:2.0,2.0;" x1="404.2139" x2="444.2139" y1="228.8438" y2="228.8438"/><polygon fill="#4362B1" points="434.2139,224.8438,444.2139,228.8438,434.2139,232.8438,438.2139,228.8438" style="stroke:#4362B1;stroke-width:1.0;"/><text fill="#FFFFFF" font-family="Verdana" font-size="12" lengthAdjust="spacing" textLength="101.8477" x="332.3662" y="206.0137">java.lang.Integer</text><polygon fill="#4362B1" points="239.8613,257.8125,229.8613,261.8125,239.8613,265.8125,235.8613,261.8125" style="stroke:#4362B1;stroke-width:1.0;"/><line style="stroke:#4362B1;stroke-width:3.0;stroke-dasharray:2.0,2.0;" x1="233.8613" x2="450.2139" y1="261.8125" y2="261.8125"/><text fill="#FFFFFF" font-family="Verdana" font-size="12" lengthAdjust="spacing" textLength="101.8477" x="250.8613" y="251.9824">java.lang.Integer</text><polygon fill="#4362B1" points="434.2139,295.7813,444.2139,299.7813,434.2139,303.7813,438.2139,299.7813" style="stroke:#4362B1;stroke-width:1.0;"/><line style="stroke:#4362B1;stroke-width:3.0;" x1="228.8613" x2="440.2139" y1="299.7813" y2="299.7813"/><text fill="#FFFFFF" font-family="Verdana" font-size="12" lengthAdjust="spacing" textLength="30.9082" x="240.8613" y="289.9512">close</text><text fill="#808080" font-family="Verdana" font-size="12" lengthAdjust="spacing" textLength="63.7441" x="279.3984" y="289.9512">0.0569 ms</text><polygon fill="#4362B1" points="669.9619,333.75,679.9619,337.75,669.9619,341.75,673.9619,337.75" style="stroke:#4362B1;stroke-width:1.0;"/><line style="stroke:#4362B1;stroke-width:3.0;" x1="456.2139" x2="675.9619" y1="337.75" y2="337.75"/><text fill="#FFFFFF" font-family="Verdana" font-size="12" lengthAdjust="spacing" textLength="30.9082" x="468.2139" y="327.9199">close</text><text fill="#808080" font-family="Verdana" font-size="12" lengthAdjust="spacing" textLength="63.7441" x="506.751" y="327.9199">0.0292 ms</text><polygon fill="#4362B1" points="467.2139,371.7188,457.2139,375.7188,467.2139,379.7188,463.2139,375.7188" style="stroke:#4362B1;stroke-width:1.0;"/><line style="stroke:#4362B1;stroke-width:3.0;stroke-dasharray:2.0,2.0;" x1="461.2139" x2="685.9619" y1="375.7188" y2="375.7188"/><text fill="#FFFFFF" font-family="Verdana" font-size="12" lengthAdjust="spacing" textLength="25.3945" x="478.2139" y="365.8887">void</text><polygon fill="#4362B1" points="239.8613,409.6875,229.8613,413.6875,239.8613,417.6875,235.8613,413.6875" style="stroke:#4362B1;stroke-width:1.0;"/><line style="stroke:#4362B1;stroke-width:3.0;stroke-dasharray:2.0,2.0;" x1="233.8613" x2="450.2139" y1="413.6875" y2="413.6875"/><text fill="#FFFFFF" font-family="Verdana" font-size="12" lengthAdjust="spacing" textLength="25.3945" x="250.8613" y="403.8574">void</text><polygon fill="#4362B1" points="11,447.6563,1,451.6563,11,455.6563,7,451.6563" style="stroke:#4362B1;stroke-width:1.0;"/><line style="stroke:#4362B1;stroke-width:3.0;stroke-dasharray:2.0,2.0;" x1="5" x2="222.8613" y1="451.6563" y2="451.6563"/><text fill="#FFFFFF" font-family="Verdana" font-size="12" lengthAdjust="spacing" textLength="25.3945" x="22" y="441.8262">void</text><!--SRC=[dLDDJy904BtpArRkxGAAXeRqf0UDYIGQFN0QjqkxPh_SdKBuzww5gDiM0XxxPjvxEs-c5q8pMHUyTf9KYDPdb3hOfAN0gdwlFNVCQEGQKsOKBJc2jGeijH8qraecM775gGAXwQwqGr8RYWCB3WKJDlIILv2Y0EGBSA0uSlV2FHBmPDXR6KRaXV5OElxyAH-yqGqhXkBsE-q4grHuzjDgrNH7o710o3B9Utqpees-5OupD6xx1iYgy4Ncp4ZZijB1DYVZz6fCb9_J1io36Z0Kwo3LFsLe8FsL98_7o0W3AMEtKJgzcSPsVmnZVbCZBR1hilaUwnTyDALlUrvUpzgUvxdEawHj-m5hICFXbEbzkAcIkpsnuCU4UuCxMVqVsZrBaSRpTaAZQJUYyzOI7UKXbybiScGHaSIXFRHyraOKtUIxIgS6_wDtBEjb81xuuVRyF-pUnYy0]--></g></svg>