<svg xmlns="http://www.w3.org/2000/svg" xmlns:xlink="http://www.w3.org/1999/xlink" contentStyleType="text/css" height="383px" preserveAspectRatio="none" style="width:767px;height:383px;background:#000000;" version="1.1" viewBox="0 0 767 383" width="767px" zoomAndPan="magnify"><defs/><g><rect fill="none" height="238.7813" style="stroke:#999999;stroke-width:1.0;" width="10" x="172.9297" y="83.9375"/><rect fill="none" height="162.8438" style="stroke:#999999;stroke-width:1.0;" width="10" x="388.54" y="121.9063"/><rect fill="none" height="37.9688" style="stroke:#999999;stroke-width:1.0;" width="10" x="651.1396" y="201.8125"/><rect fill="none" height="110.875" rx="4" ry="4" style="stroke:#4362B1;stroke-width:1.5;" width="474.4551" x="287.1523" y="136.9063"/><line style="stroke:#999999;stroke-width:0.5;stroke-dasharray:5.0,5.0;" x1="177.707" x2="177.707" y1="43.9688" y2="340.7188"/><line style="stroke:#999999;stroke-width:0.5;stroke-dasharray:5.0,5.0;" x1="393.1523" x2="393.1523" y1="43.9688" y2="340.7188"/><line style="stroke:#999999;stroke-width:0.5;stroke-dasharray:5.0,5.0;" x1="655.6719" x2="655.6719" y1="43.9688" y2="340.7188"/><rect fill="#555555" height="37.9688" rx="4" ry="4" style="stroke:#555555;stroke-width:1.0;" width="138.4453" x="108.707" y="5"/><text fill="#FFFFFF" font-family="Verdana" font-size="12" lengthAdjust="spacing" textLength="114.4453" x="120.707" y="28.1387">PostgreSqlJsonTest</text><rect fill="#555555" height="37.9688" rx="4" ry="4" style="stroke:#555555;stroke-width:1.0;" width="138.4453" x="108.707" y="339.7188"/><text fill="#FFFFFF" font-family="Verdana" font-size="12" lengthAdjust="spacing" textLength="114.4453" x="120.707" y="362.8574">PostgreSqlJsonTest</text><rect fill="#555555" height="37.9688" rx="4" ry="4" style="stroke:#555555;stroke-width:1.0;" width="112.7754" x="337.1523" y="5"/><text fill="#FFFFFF" font-family="Verdana" font-size="12" lengthAdjust="spacing" textLength="88.7754" x="349.1523" y="28.1387">PostgreSqlJson</text><rect fill="#555555" height="37.9688" rx="4" ry="4" style="stroke:#555555;stroke-width:1.0;" width="112.7754" x="337.1523" y="339.7188"/><text fill="#FFFFFF" font-family="Verdana" font-size="12" lengthAdjust="spacing" textLength="88.7754" x="349.1523" y="362.8574">PostgreSqlJson</text><rect fill="#555555" height="37.9688" rx="4" ry="4" style="stroke:#555555;stroke-width:1.0;" width="110.9355" x="600.6719" y="5"/><text fill="#FFFFFF" font-family="Verdana" font-size="12" lengthAdjust="spacing" textLength="86.9355" x="612.6719" y="28.1387">EnrichmentOff</text><rect fill="#555555" height="37.9688" rx="4" ry="4" style="stroke:#555555;stroke-width:1.0;" width="110.9355" x="600.6719" y="339.7188"/><text fill="#FFFFFF" font-family="Verdana" font-size="12" lengthAdjust="spacing" textLength="86.9355" x="612.6719" y="362.8574">EnrichmentOff</text><rect fill="none" height="238.7813" style="stroke:#999999;stroke-width:1.0;" width="10" x="172.9297" y="83.9375"/><rect fill="none" height="162.8438" style="stroke:#999999;stroke-width:1.0;" width="10" x="388.54" y="121.9063"/><rect fill="none" height="37.9688" style="stroke:#999999;stroke-width:1.0;" width="10" x="651.1396" y="201.8125"/><polygon fill="#4362B1" points="160.9297,79.9375,170.9297,83.9375,160.9297,87.9375,164.9297,83.9375" style="stroke:#4362B1;stroke-width:1.0;"/><line style="stroke:#4362B1;stroke-width:3.0;" x1="0" x2="166.9297" y1="83.9375" y2="83.9375"/><text fill="#FFFFFF" font-family="Verdana" font-size="12" lengthAdjust="spacing" textLength="80.1914" x="12" y="74.1074">parseLogLine</text><text fill="#808080" font-family="Verdana" font-size="12" lengthAdjust="spacing" textLength="56.1094" x="99.8203" y="74.1074">0.144 ms</text><polygon fill="#4362B1" points="376.54,117.9063,386.54,121.9063,376.54,125.9063,380.54,121.9063" style="stroke:#4362B1;stroke-width:1.0;"/><line style="stroke:#4362B1;stroke-width:3.0;" x1="182.9297" x2="382.54" y1="121.9063" y2="121.9063"/><text fill="#FFFFFF" font-family="Verdana" font-size="12" lengthAdjust="spacing" textLength="80.1914" x="194.9297" y="112.0762">parseLogLine</text><text fill="#808080" font-family="Verdana" font-size="12" lengthAdjust="spacing" textLength="48.4746" x="282.75" y="112.0762">0.12 ms</text><path d="M291.1523,136.9063 L371.3438,136.9063 L371.3438,152.875 L361.3438,162.875 L287.1523,162.875 L287.1523,140.9063 A4,4 0 0 1 291.1523,136.9063 " fill="#4362B1" style="stroke:#4362B1;stroke-width:1.5;"/><rect fill="none" height="110.875" rx="4" ry="4" style="stroke:#4362B1;stroke-width:1.5;" width="474.4551" x="287.1523" y="136.9063"/><text fill="#FFFFFF" font-family="Verdana" font-size="12" font-weight="bold" lengthAdjust="spacing" textLength="29.1914" x="307.1523" y="154.0449">loop</text><text fill="#4362B1" font-family="Verdana" font-size="12" font-weight="bold" lengthAdjust="spacing" textLength="55.6465" x="391.3438" y="155.0449">[2 times</text><text fill="#808080" font-family="Verdana" font-size="12" font-weight="bold" lengthAdjust="spacing" textLength="70.1309" x="455.3457" y="155.0449">0.0307 ms</text><text fill="#4362B1" font-family="Verdana" font-size="12" font-weight="bold" lengthAdjust="spacing" textLength="5.4844" x="525.4766" y="155.0449">]</text><polygon fill="#4362B1" points="639.1396,197.8125,649.1396,201.8125,639.1396,205.8125,643.1396,201.8125" style="stroke:#4362B1;stroke-width:1.0;"/><line style="stroke:#4362B1;stroke-width:3.0;" x1="398.54" x2="645.1396" y1="201.8125" y2="201.8125"/><text fill="#FFFFFF" font-family="Verdana" font-size="12" lengthAdjust="spacing" textLength="152.2266" x="410.54" y="191.9824">enricherApplicationName</text><text fill="#808080" font-family="Verdana" font-size="12" lengthAdjust="spacing" textLength="63.7441" x="570.3955" y="191.9824">0.0307 ms</text><polygon fill="#4362B1" points="409.54,235.7813,399.54,239.7813,409.54,243.7813,405.54,239.7813" style="stroke:#4362B1;stroke-width:1.0;"/><line style="stroke:#4362B1;stroke-width:3.0;stroke-dasharray:2.0,2.0;" x1="403.54" x2="655.1396" y1="239.7813" y2="239.7813"/><text fill="#FFFFFF" font-family="Verdana" font-size="12" lengthAdjust="spacing" textLength="25.3945" x="420.54" y="229.9512">void</text><polygon fill="#4362B1" points="193.9297,280.75,183.9297,284.75,193.9297,288.75,189.9297,284.75" style="stroke:#4362B1;stroke-width:1.0;"/><line style="stroke:#4362B1;stroke-width:3.0;stroke-dasharray:2.0,2.0;" x1="187.9297" x2="392.54" y1="284.75" y2="284.75"/><text fill="#FFFFFF" font-family="Verdana" font-size="12" lengthAdjust="spacing" textLength="25.3945" x="204.9297" y="274.9199">void</text><polygon fill="#4362B1" points="11,318.7188,1,322.7188,11,326.7188,7,322.7188" style="stroke:#4362B1;stroke-width:1.0;"/><line style="stroke:#4362B1;stroke-width:3.0;stroke-dasharray:2.0,2.0;" x1="5" x2="176.9297" y1="322.7188" y2="322.7188"/><text fill="#FFFFFF" font-family="Verdana" font-size="12" lengthAdjust="spacing" textLength="25.3945" x="22" y="312.8887">void</text><!--SRC=[ZP9BJyCm48Jl_HLBxubBgOGKLP4uz88YG89RJyRP9fRymjuKyUyn2Oh8g_IOsPblrglSI2DKKsBZ5TH4BcICUVwPLfBgvhq9w8KrX8PIOJMhaBXpcZlc53VKQ9LGZHgPvjAmRjGfgOl3bUEUf90kUk751geyldwens3D6mO27c0zbTSNOZEHeVrWl1IrZWi_dqwjUw2iLm3799-MPX0f0GjR5T8Wx8LLrcULvryvRDBRtGvqsBDMpIE32v9dJZZpgZY56NbS-a_XTjYtsDZE00fh7Mo1fCOmPctkDlTZsdJ791ySAWDiFz4_EAUau2IjUU8QhwNt-mwm2-Nx91crdwqiUtE95sa7KouSFNB7L-_1Vw2JanudmUuV-GqlHdzStm00]--></g></svg>