<svg xmlns="http://www.w3.org/2000/svg" xmlns:xlink="http://www.w3.org/1999/xlink" contentStyleType="text/css" height="815px" preserveAspectRatio="none" style="width:808px;height:815px;background:#000000;" version="1.1" viewBox="0 0 808 815" width="808px" zoomAndPan="magnify"><defs/><g><rect fill="none" height="670.4688" style="stroke:#999999;stroke-width:1.0;" width="10" x="192.3887" y="83.9375"/><rect fill="none" height="366.7188" style="stroke:#999999;stroke-width:1.0;" width="10" x="419.2168" y="121.9063"/><rect fill="none" height="226.8438" style="stroke:#999999;stroke-width:1.0;" width="10" x="424.2168" y="209.8125"/><rect fill="none" height="124.9063" style="stroke:#999999;stroke-width:1.0;" width="10" x="429.2168" y="260.7813"/><rect fill="none" height="37.9688" style="stroke:#999999;stroke-width:1.0;" width="10" x="419.2168" y="526.5938"/><rect fill="none" height="113.9063" style="stroke:#999999;stroke-width:1.0;" width="10" x="419.2168" y="602.5313"/><rect fill="none" height="37.9688" style="stroke:#999999;stroke-width:1.0;" width="10" x="691.8164" y="303.75"/><rect fill="none" height="37.9688" style="stroke:#999999;stroke-width:1.0;" width="10" x="691.8164" y="640.5"/><rect fill="none" height="314.75" rx="4" ry="4" style="stroke:#4362B1;stroke-width:1.5;" width="484.4551" x="317.8291" y="136.9063"/><line style="stroke:#999999;stroke-width:0.5;stroke-dasharray:5.0,5.0;" x1="197.166" x2="197.166" y1="43.9688" y2="772.4063"/><line style="stroke:#999999;stroke-width:0.5;stroke-dasharray:5.0,5.0;" x1="423.8291" x2="423.8291" y1="43.9688" y2="772.4063"/><line style="stroke:#999999;stroke-width:0.5;stroke-dasharray:5.0,5.0;" x1="696.3486" x2="696.3486" y1="43.9688" y2="772.4063"/><rect fill="#555555" height="37.9688" rx="4" ry="4" style="stroke:#555555;stroke-width:1.0;" width="138.4453" x="128.166" y="5"/><text fill="#FFFFFF" font-family="Verdana" font-size="12" lengthAdjust="spacing" textLength="114.4453" x="140.166" y="28.1387">PostgreSqlJsonTest</text><rect fill="#555555" height="37.9688" rx="4" ry="4" style="stroke:#555555;stroke-width:1.0;" width="138.4453" x="128.166" y="771.4063"/><text fill="#FFFFFF" font-family="Verdana" font-size="12" lengthAdjust="spacing" textLength="114.4453" x="140.166" y="794.5449">PostgreSqlJsonTest</text><rect fill="#555555" height="37.9688" rx="4" ry="4" style="stroke:#555555;stroke-width:1.0;" width="112.7754" x="367.8291" y="5"/><text fill="#FFFFFF" font-family="Verdana" font-size="12" lengthAdjust="spacing" textLength="88.7754" x="379.8291" y="28.1387">PostgreSqlJson</text><rect fill="#555555" height="37.9688" rx="4" ry="4" style="stroke:#555555;stroke-width:1.0;" width="112.7754" x="367.8291" y="771.4063"/><text fill="#FFFFFF" font-family="Verdana" font-size="12" lengthAdjust="spacing" textLength="88.7754" x="379.8291" y="794.5449">PostgreSqlJson</text><rect fill="#555555" height="37.9688" rx="4" ry="4" style="stroke:#555555;stroke-width:1.0;" width="110.9355" x="641.3486" y="5"/><text fill="#FFFFFF" font-family="Verdana" font-size="12" lengthAdjust="spacing" textLength="86.9355" x="653.3486" y="28.1387">EnrichmentOff</text><rect fill="#555555" height="37.9688" rx="4" ry="4" style="stroke:#555555;stroke-width:1.0;" width="110.9355" x="641.3486" y="771.4063"/><text fill="#FFFFFF" font-family="Verdana" font-size="12" lengthAdjust="spacing" textLength="86.9355" x="653.3486" y="794.5449">EnrichmentOff</text><rect fill="none" height="670.4688" style="stroke:#999999;stroke-width:1.0;" width="10" x="192.3887" y="83.9375"/><rect fill="none" height="366.7188" style="stroke:#999999;stroke-width:1.0;" width="10" x="419.2168" y="121.9063"/><rect fill="none" height="226.8438" style="stroke:#999999;stroke-width:1.0;" width="10" x="424.2168" y="209.8125"/><rect fill="none" height="124.9063" style="stroke:#999999;stroke-width:1.0;" width="10" x="429.2168" y="260.7813"/><rect fill="none" height="37.9688" style="stroke:#999999;stroke-width:1.0;" width="10" x="419.2168" y="526.5938"/><rect fill="none" height="113.9063" style="stroke:#999999;stroke-width:1.0;" width="10" x="419.2168" y="602.5313"/><rect fill="none" height="37.9688" style="stroke:#999999;stroke-width:1.0;" width="10" x="691.8164" y="303.75"/><rect fill="none" height="37.9688" style="stroke:#999999;stroke-width:1.0;" width="10" x="691.8164" y="640.5"/><polygon fill="#4362B1" points="180.3887,79.9375,190.3887,83.9375,180.3887,87.9375,184.3887,83.9375" style="stroke:#4362B1;stroke-width:1.0;"/><line style="stroke:#4362B1;stroke-width:3.0;" x1="0" x2="186.3887" y1="83.9375" y2="83.9375"/><text fill="#FFFFFF" font-family="Verdana" font-size="12" lengthAdjust="spacing" textLength="99.6504" x="12" y="74.1074">testSavePosition</text><text fill="#808080" font-family="Verdana" font-size="12" lengthAdjust="spacing" textLength="56.1094" x="119.2793" y="74.1074">0.925 ms</text><polygon fill="#4362B1" points="407.2168,117.9063,417.2168,121.9063,407.2168,125.9063,411.2168,121.9063" style="stroke:#4362B1;stroke-width:1.0;"/><line style="stroke:#4362B1;stroke-width:3.0;" x1="202.3887" x2="413.2168" y1="121.9063" y2="121.9063"/><text fill="#FFFFFF" font-family="Verdana" font-size="12" lengthAdjust="spacing" textLength="94.4707" x="214.3887" y="112.0762">initialLogImport</text><text fill="#808080" font-family="Verdana" font-size="12" lengthAdjust="spacing" textLength="56.1094" x="316.4883" y="112.0762">0.455 ms</text><path d="M321.8291,136.9063 L402.0205,136.9063 L402.0205,152.875 L392.0205,162.875 L317.8291,162.875 L317.8291,140.9063 A4,4 0 0 1 321.8291,136.9063 " fill="#4362B1" style="stroke:#4362B1;stroke-width:1.5;"/><rect fill="none" height="314.75" rx="4" ry="4" style="stroke:#4362B1;stroke-width:1.5;" width="484.4551" x="317.8291" y="136.9063"/><text fill="#FFFFFF" font-family="Verdana" font-size="12" font-weight="bold" lengthAdjust="spacing" textLength="29.1914" x="337.8291" y="154.0449">loop</text><text fill="#4362B1" font-family="Verdana" font-size="12" font-weight="bold" lengthAdjust="spacing" textLength="55.6465" x="422.0205" y="155.0449">[3 times</text><text fill="#808080" font-family="Verdana" font-size="12" font-weight="bold" lengthAdjust="spacing" textLength="61.7813" x="486.0225" y="155.0449">0.405 ms</text><text fill="#4362B1" font-family="Verdana" font-size="12" font-weight="bold" lengthAdjust="spacing" textLength="5.4844" x="547.8037" y="155.0449">]</text><line style="stroke:#4362B1;stroke-width:3.0;" x1="429.2168" x2="476.2168" y1="196.8125" y2="196.8125"/><line style="stroke:#4362B1;stroke-width:3.0;" x1="476.2168" x2="476.2168" y1="196.8125" y2="209.8125"/><line style="stroke:#4362B1;stroke-width:3.0;" x1="435.2168" x2="476.2168" y1="209.8125" y2="209.8125"/><polygon fill="#4362B1" points="445.2168,205.8125,435.2168,209.8125,445.2168,213.8125,441.2168,209.8125" style="stroke:#4362B1;stroke-width:1.0;"/><text fill="#FFFFFF" font-family="Verdana" font-size="12" lengthAdjust="spacing" textLength="73.6699" x="446.2168" y="186.9824">readJsonLog</text><text fill="#808080" font-family="Verdana" font-size="12" lengthAdjust="spacing" textLength="56.1094" x="527.5156" y="186.9824">0.405 ms</text><line style="stroke:#4362B1;stroke-width:3.0;" x1="434.2168" x2="481.2168" y1="247.7813" y2="247.7813"/><line style="stroke:#4362B1;stroke-width:3.0;" x1="481.2168" x2="481.2168" y1="247.7813" y2="260.7813"/><line style="stroke:#4362B1;stroke-width:3.0;" x1="440.2168" x2="481.2168" y1="260.7813" y2="260.7813"/><polygon fill="#4362B1" points="450.2168,256.7813,440.2168,260.7813,450.2168,264.7813,446.2168,260.7813" style="stroke:#4362B1;stroke-width:1.0;"/><text fill="#FFFFFF" font-family="Verdana" font-size="12" lengthAdjust="spacing" textLength="80.1914" x="451.2168" y="237.9512">parseLogLine</text><text fill="#808080" font-family="Verdana" font-size="12" lengthAdjust="spacing" textLength="56.1094" x="539.0371" y="237.9512">0.231 ms</text><polygon fill="#4362B1" points="679.8164,299.75,689.8164,303.75,679.8164,307.75,683.8164,303.75" style="stroke:#4362B1;stroke-width:1.0;"/><line style="stroke:#4362B1;stroke-width:3.0;" x1="439.2168" x2="685.8164" y1="303.75" y2="303.75"/><text fill="#FFFFFF" font-family="Verdana" font-size="12" lengthAdjust="spacing" textLength="152.2266" x="451.2168" y="293.9199">enricherApplicationName</text><text fill="#808080" font-family="Verdana" font-size="12" lengthAdjust="spacing" textLength="63.7441" x="611.0723" y="293.9199">0.0597 ms</text><polygon fill="#4362B1" points="450.2168,337.7188,440.2168,341.7188,450.2168,345.7188,446.2168,341.7188" style="stroke:#4362B1;stroke-width:1.0;"/><line style="stroke:#4362B1;stroke-width:3.0;stroke-dasharray:2.0,2.0;" x1="444.2168" x2="695.8164" y1="341.7188" y2="341.7188"/><text fill="#FFFFFF" font-family="Verdana" font-size="12" lengthAdjust="spacing" textLength="25.3945" x="461.2168" y="331.8887">void</text><line style="stroke:#4362B1;stroke-width:3.0;stroke-dasharray:2.0,2.0;" x1="377.2168" x2="428.2168" y1="384.6875" y2="384.6875"/><line style="stroke:#4362B1;stroke-width:3.0;stroke-dasharray:2.0,2.0;" x1="377.2168" x2="377.2168" y1="384.6875" y2="397.6875"/><line style="stroke:#4362B1;stroke-width:3.0;stroke-dasharray:2.0,2.0;" x1="377.2168" x2="417.2168" y1="397.6875" y2="397.6875"/><polygon fill="#4362B1" points="407.2168,393.6875,417.2168,397.6875,407.2168,401.6875,411.2168,397.6875" style="stroke:#4362B1;stroke-width:1.0;"/><text fill="#FFFFFF" font-family="Verdana" font-size="12" lengthAdjust="spacing" textLength="25.3945" x="381.2168" y="374.8574">void</text><line style="stroke:#4362B1;stroke-width:3.0;stroke-dasharray:2.0,2.0;" x1="377.2168" x2="423.2168" y1="435.6563" y2="435.6563"/><line style="stroke:#4362B1;stroke-width:3.0;stroke-dasharray:2.0,2.0;" x1="377.2168" x2="377.2168" y1="435.6563" y2="448.6563"/><line style="stroke:#4362B1;stroke-width:3.0;stroke-dasharray:2.0,2.0;" x1="377.2168" x2="417.2168" y1="448.6563" y2="448.6563"/><polygon fill="#4362B1" points="407.2168,444.6563,417.2168,448.6563,407.2168,452.6563,411.2168,448.6563" style="stroke:#4362B1;stroke-width:1.0;"/><text fill="#FFFFFF" font-family="Verdana" font-size="12" lengthAdjust="spacing" textLength="25.3945" x="381.2168" y="425.8262">void</text><polygon fill="#4362B1" points="213.3887,484.625,203.3887,488.625,213.3887,492.625,209.3887,488.625" style="stroke:#4362B1;stroke-width:1.0;"/><line style="stroke:#4362B1;stroke-width:3.0;stroke-dasharray:2.0,2.0;" x1="207.3887" x2="423.2168" y1="488.625" y2="488.625"/><text fill="#FFFFFF" font-family="Verdana" font-size="12" lengthAdjust="spacing" textLength="25.3945" x="224.3887" y="478.7949">void</text><polygon fill="#4362B1" points="407.2168,522.5938,417.2168,526.5938,407.2168,530.5938,411.2168,526.5938" style="stroke:#4362B1;stroke-width:1.0;"/><line style="stroke:#4362B1;stroke-width:3.0;" x1="202.3887" x2="413.2168" y1="526.5938" y2="526.5938"/><text fill="#FFFFFF" font-family="Verdana" font-size="12" lengthAdjust="spacing" textLength="124.0898" x="214.3887" y="516.7637">saveLogFilesPosition</text><text fill="#808080" font-family="Verdana" font-size="12" lengthAdjust="spacing" textLength="56.1094" x="346.1074" y="516.7637">0.119 ms</text><polygon fill="#4362B1" points="213.3887,560.5625,203.3887,564.5625,213.3887,568.5625,209.3887,564.5625" style="stroke:#4362B1;stroke-width:1.0;"/><line style="stroke:#4362B1;stroke-width:3.0;stroke-dasharray:2.0,2.0;" x1="207.3887" x2="423.2168" y1="564.5625" y2="564.5625"/><text fill="#FFFFFF" font-family="Verdana" font-size="12" lengthAdjust="spacing" textLength="25.3945" x="224.3887" y="554.7324">void</text><polygon fill="#4362B1" points="407.2168,598.5313,417.2168,602.5313,407.2168,606.5313,411.2168,602.5313" style="stroke:#4362B1;stroke-width:1.0;"/><line style="stroke:#4362B1;stroke-width:3.0;" x1="202.3887" x2="413.2168" y1="602.5313" y2="602.5313"/><text fill="#FFFFFF" font-family="Verdana" font-size="12" lengthAdjust="spacing" textLength="30.9082" x="214.3887" y="592.7012">close</text><text fill="#808080" font-family="Verdana" font-size="12" lengthAdjust="spacing" textLength="63.7441" x="252.9258" y="592.7012">0.0269 ms</text><polygon fill="#4362B1" points="679.8164,636.5,689.8164,640.5,679.8164,644.5,683.8164,640.5" style="stroke:#4362B1;stroke-width:1.0;"/><line style="stroke:#4362B1;stroke-width:3.0;" x1="429.2168" x2="685.8164" y1="640.5" y2="640.5"/><text fill="#FFFFFF" font-family="Verdana" font-size="12" lengthAdjust="spacing" textLength="30.9082" x="441.2168" y="630.6699">close</text><text fill="#808080" font-family="Verdana" font-size="12" lengthAdjust="spacing" textLength="63.7441" x="479.7539" y="630.6699">0.0116 ms</text><polygon fill="#4362B1" points="440.2168,674.4688,430.2168,678.4688,440.2168,682.4688,436.2168,678.4688" style="stroke:#4362B1;stroke-width:1.0;"/><line style="stroke:#4362B1;stroke-width:3.0;stroke-dasharray:2.0,2.0;" x1="434.2168" x2="695.8164" y1="678.4688" y2="678.4688"/><text fill="#FFFFFF" font-family="Verdana" font-size="12" lengthAdjust="spacing" textLength="25.3945" x="451.2168" y="668.6387">void</text><polygon fill="#4362B1" points="213.3887,712.4375,203.3887,716.4375,213.3887,720.4375,209.3887,716.4375" style="stroke:#4362B1;stroke-width:1.0;"/><line style="stroke:#4362B1;stroke-width:3.0;stroke-dasharray:2.0,2.0;" x1="207.3887" x2="423.2168" y1="716.4375" y2="716.4375"/><text fill="#FFFFFF" font-family="Verdana" font-size="12" lengthAdjust="spacing" textLength="25.3945" x="224.3887" y="706.6074">void</text><polygon fill="#4362B1" points="11,750.4063,1,754.4063,11,758.4063,7,754.4063" style="stroke:#4362B1;stroke-width:1.0;"/><line style="stroke:#4362B1;stroke-width:3.0;stroke-dasharray:2.0,2.0;" x1="5" x2="196.3887" y1="754.4063" y2="754.4063"/><text fill="#FFFFFF" font-family="Verdana" font-size="12" lengthAdjust="spacing" textLength="25.3945" x="22" y="744.5762">void</text><!--SRC=[lLHDJy904BtxArRkK0g2QKD8F62Y8Mg2DqxhTYYRx9UxKup_tWKyq6vRsiHuQThvUE_jzCtUSiL4aK5X1TaZ6fT6aQLVevpZllWe75Yc5OB24TCooW6fCPAQo0Ygi91YY7kG44dALNHEdICZuvCtXbhaZ1jVIzwqmzp2vbCyEwtUmI6XZWp2yA2bhQQbNBvIbhEzz89VTxjJTIaok25aEro6f2b1_zpG0_WSH-wf5amBRTFSqkyb6O-IoOn8juXEqQN7eGpvWIBKdCndIKsuIfmIhZmN5MkTFqcZBLP9xsOLqaRQKuwGjTQ6J0bo2Iu06mTWeSvGemMQ7T-yo8w8xHAxSFfVwi0Jhhc2Akba6jUHTg4DYKlkI0cSFi4-62CueqSVl50PI1ZFaljw3HSgIj0j8XR3OKN5GVEir931LTG0iphI2kW5PCEu-Y5Umrkfh64hsf3RKRjicFChxOtqo0MufjMEuwJFbltt4PZGBhJWP9xqkngkMB-U9OxdeT5RpTZ3tAss_hifRuF6yut_szpOUgpw0G00]--></g></svg>