<svg xmlns="http://www.w3.org/2000/svg" xmlns:xlink="http://www.w3.org/1999/xlink" contentStyleType="text/css" height="459px" preserveAspectRatio="none" style="width:740px;height:459px;background:#000000;" version="1.1" viewBox="0 0 740 459" width="740px" zoomAndPan="magnify"><defs/><g><rect fill="none" height="314.7188" style="stroke:#999999;stroke-width:1.0;" width="10" x="146.0762" y="83.9375"/><rect fill="none" height="238.7813" style="stroke:#999999;stroke-width:1.0;" width="10" x="361.6865" y="121.9063"/><rect fill="none" height="37.9688" style="stroke:#999999;stroke-width:1.0;" width="10" x="624.2861" y="201.8125"/><rect fill="none" height="37.9688" style="stroke:#999999;stroke-width:1.0;" width="10" x="624.2861" y="284.75"/><rect fill="none" height="110.875" rx="4" ry="4" style="stroke:#4362B1;stroke-width:1.5;" width="474.4551" x="260.2988" y="136.9063"/><line style="stroke:#999999;stroke-width:0.5;stroke-dasharray:5.0,5.0;" x1="150.8535" x2="150.8535" y1="43.9688" y2="416.6563"/><line style="stroke:#999999;stroke-width:0.5;stroke-dasharray:5.0,5.0;" x1="366.2988" x2="366.2988" y1="43.9688" y2="416.6563"/><line style="stroke:#999999;stroke-width:0.5;stroke-dasharray:5.0,5.0;" x1="628.8184" x2="628.8184" y1="43.9688" y2="416.6563"/><rect fill="#555555" height="37.9688" rx="4" ry="4" style="stroke:#555555;stroke-width:1.0;" width="138.4453" x="81.8535" y="5"/><text fill="#FFFFFF" font-family="Verdana" font-size="12" lengthAdjust="spacing" textLength="114.4453" x="93.8535" y="28.1387">PostgreSqlJsonTest</text><rect fill="#555555" height="37.9688" rx="4" ry="4" style="stroke:#555555;stroke-width:1.0;" width="138.4453" x="81.8535" y="415.6563"/><text fill="#FFFFFF" font-family="Verdana" font-size="12" lengthAdjust="spacing" textLength="114.4453" x="93.8535" y="438.7949">PostgreSqlJsonTest</text><rect fill="#555555" height="37.9688" rx="4" ry="4" style="stroke:#555555;stroke-width:1.0;" width="112.7754" x="310.2988" y="5"/><text fill="#FFFFFF" font-family="Verdana" font-size="12" lengthAdjust="spacing" textLength="88.7754" x="322.2988" y="28.1387">PostgreSqlJson</text><rect fill="#555555" height="37.9688" rx="4" ry="4" style="stroke:#555555;stroke-width:1.0;" width="112.7754" x="310.2988" y="415.6563"/><text fill="#FFFFFF" font-family="Verdana" font-size="12" lengthAdjust="spacing" textLength="88.7754" x="322.2988" y="438.7949">PostgreSqlJson</text><rect fill="#555555" height="37.9688" rx="4" ry="4" style="stroke:#555555;stroke-width:1.0;" width="110.9355" x="573.8184" y="5"/><text fill="#FFFFFF" font-family="Verdana" font-size="12" lengthAdjust="spacing" textLength="86.9355" x="585.8184" y="28.1387">EnrichmentOff</text><rect fill="#555555" height="37.9688" rx="4" ry="4" style="stroke:#555555;stroke-width:1.0;" width="110.9355" x="573.8184" y="415.6563"/><text fill="#FFFFFF" font-family="Verdana" font-size="12" lengthAdjust="spacing" textLength="86.9355" x="585.8184" y="438.7949">EnrichmentOff</text><rect fill="none" height="314.7188" style="stroke:#999999;stroke-width:1.0;" width="10" x="146.0762" y="83.9375"/><rect fill="none" height="238.7813" style="stroke:#999999;stroke-width:1.0;" width="10" x="361.6865" y="121.9063"/><rect fill="none" height="37.9688" style="stroke:#999999;stroke-width:1.0;" width="10" x="624.2861" y="201.8125"/><rect fill="none" height="37.9688" style="stroke:#999999;stroke-width:1.0;" width="10" x="624.2861" y="284.75"/><polygon fill="#4362B1" points="134.0762,79.9375,144.0762,83.9375,134.0762,87.9375,138.0762,83.9375" style="stroke:#4362B1;stroke-width:1.0;"/><line style="stroke:#4362B1;stroke-width:3.0;" x1="0" x2="140.0762" y1="83.9375" y2="83.9375"/><text fill="#FFFFFF" font-family="Verdana" font-size="12" lengthAdjust="spacing" textLength="68.6074" x="12" y="74.1074">logWarning</text><text fill="#808080" font-family="Verdana" font-size="12" lengthAdjust="spacing" textLength="40.8398" x="88.2363" y="74.1074">0.2 ms</text><polygon fill="#4362B1" points="349.6865,117.9063,359.6865,121.9063,349.6865,125.9063,353.6865,121.9063" style="stroke:#4362B1;stroke-width:1.0;"/><line style="stroke:#4362B1;stroke-width:3.0;" x1="156.0762" x2="355.6865" y1="121.9063" y2="121.9063"/><text fill="#FFFFFF" font-family="Verdana" font-size="12" lengthAdjust="spacing" textLength="80.1914" x="168.0762" y="112.0762">parseLogLine</text><text fill="#808080" font-family="Verdana" font-size="12" lengthAdjust="spacing" textLength="56.1094" x="255.8965" y="112.0762">0.167 ms</text><path d="M264.2988,136.9063 L344.4902,136.9063 L344.4902,152.875 L334.4902,162.875 L260.2988,162.875 L260.2988,140.9063 A4,4 0 0 1 264.2988,136.9063 " fill="#4362B1" style="stroke:#4362B1;stroke-width:1.5;"/><rect fill="none" height="110.875" rx="4" ry="4" style="stroke:#4362B1;stroke-width:1.5;" width="474.4551" x="260.2988" y="136.9063"/><text fill="#FFFFFF" font-family="Verdana" font-size="12" font-weight="bold" lengthAdjust="spacing" textLength="29.1914" x="280.2988" y="154.0449">loop</text><text fill="#4362B1" font-family="Verdana" font-size="12" font-weight="bold" lengthAdjust="spacing" textLength="55.6465" x="364.4902" y="155.0449">[2 times</text><text fill="#808080" font-family="Verdana" font-size="12" font-weight="bold" lengthAdjust="spacing" textLength="70.1309" x="428.4922" y="155.0449">0.0305 ms</text><text fill="#4362B1" font-family="Verdana" font-size="12" font-weight="bold" lengthAdjust="spacing" textLength="5.4844" x="498.623" y="155.0449">]</text><polygon fill="#4362B1" points="612.2861,197.8125,622.2861,201.8125,612.2861,205.8125,616.2861,201.8125" style="stroke:#4362B1;stroke-width:1.0;"/><line style="stroke:#4362B1;stroke-width:3.0;" x1="371.6865" x2="618.2861" y1="201.8125" y2="201.8125"/><text fill="#FFFFFF" font-family="Verdana" font-size="12" lengthAdjust="spacing" textLength="152.2266" x="383.6865" y="191.9824">enricherApplicationName</text><text fill="#808080" font-family="Verdana" font-size="12" lengthAdjust="spacing" textLength="63.7441" x="543.542" y="191.9824">0.0305 ms</text><polygon fill="#4362B1" points="382.6865,235.7813,372.6865,239.7813,382.6865,243.7813,378.6865,239.7813" style="stroke:#4362B1;stroke-width:1.0;"/><line style="stroke:#4362B1;stroke-width:3.0;stroke-dasharray:2.0,2.0;" x1="376.6865" x2="628.2861" y1="239.7813" y2="239.7813"/><text fill="#FFFFFF" font-family="Verdana" font-size="12" lengthAdjust="spacing" textLength="25.3945" x="393.6865" y="229.9512">void</text><polygon fill="#4362B1" points="612.2861,280.75,622.2861,284.75,612.2861,288.75,616.2861,284.75" style="stroke:#4362B1;stroke-width:1.0;"/><line style="stroke:#4362B1;stroke-width:3.0;" x1="371.6865" x2="618.2861" y1="284.75" y2="284.75"/><text fill="#FFFFFF" font-family="Verdana" font-size="12" lengthAdjust="spacing" textLength="82.8516" x="383.6865" y="274.9199">getStatement</text><text fill="#808080" font-family="Verdana" font-size="12" lengthAdjust="spacing" textLength="71.3789" x="474.167" y="274.9199">0.00751 ms</text><polygon fill="#4362B1" points="382.6865,318.7188,372.6865,322.7188,382.6865,326.7188,378.6865,322.7188" style="stroke:#4362B1;stroke-width:1.0;"/><line style="stroke:#4362B1;stroke-width:3.0;stroke-dasharray:2.0,2.0;" x1="376.6865" x2="628.2861" y1="322.7188" y2="322.7188"/><text fill="#FFFFFF" font-family="Verdana" font-size="12" lengthAdjust="spacing" textLength="25.3945" x="393.6865" y="312.8887">void</text><polygon fill="#4362B1" points="167.0762,356.6875,157.0762,360.6875,167.0762,364.6875,163.0762,360.6875" style="stroke:#4362B1;stroke-width:1.0;"/><line style="stroke:#4362B1;stroke-width:3.0;stroke-dasharray:2.0,2.0;" x1="161.0762" x2="365.6865" y1="360.6875" y2="360.6875"/><text fill="#FFFFFF" font-family="Verdana" font-size="12" lengthAdjust="spacing" textLength="25.3945" x="178.0762" y="350.8574">void</text><polygon fill="#4362B1" points="11,394.6563,1,398.6563,11,402.6563,7,398.6563" style="stroke:#4362B1;stroke-width:1.0;"/><line style="stroke:#4362B1;stroke-width:3.0;stroke-dasharray:2.0,2.0;" x1="5" x2="150.0762" y1="398.6563" y2="398.6563"/><text fill="#FFFFFF" font-family="Verdana" font-size="12" lengthAdjust="spacing" textLength="25.3945" x="22" y="388.8262">void</text><!--SRC=[bL9BJm8n4BxpAqRk-m2391koYGSkXgW99XuurJBiDkdBTXRZlxSiIjmjB7hiDzzZlcPkXEQosMBZ9DH4rXTPvjX7MWcgcxV6e-D64sfAkL5PXSIiLSncLZ9DZP89rQWmKqpex3Ww8gaDmv5bZWGNDd3XsNYg7AxVvOCt-WKz0VCmZk7nWEoCf4jVQYTuhSB2JxjTo-uWun709YdZq0AagLwPqq9NiE166bTKZdsMaATJK7wHjLWPz8oJs3F2Cut25Cx0_S02mieULwPQ2OtzkCdTl1juCRAT0QoCiJ054Wfztoo_pMTzjtZ9fEpyKW7OFj7TMoi5PoICVcGA_-f-shTZUo5yaIIzzBqHsnDvYuDkI_r3lL8ftEwQWii1Y7hayzaaBZ8O_8yIWnNYSmbU_NivcVsoYcvX4mcFb_qjlYWziBu0]--></g></svg>