<svg xmlns="http://www.w3.org/2000/svg" xmlns:xlink="http://www.w3.org/1999/xlink" contentStyleType="text/css" data-diagram-type="SEQUENCE" height="693px" preserveAspectRatio="none" style="width:881px;height:693px;background:#FFFFFF;" version="1.1" viewBox="0 0 881 693" width="881px" zoomAndPan="magnify"><defs/><g><g><title>WatchServiceTest</title><rect fill="#FFFFFF" height="573.2578" style="stroke:#181818;stroke-width:1;" width="10" x="194.0938" y="67.4297"/></g><g><title>PostgreSqlJson</title><rect fill="#FFFFFF" height="514.9922" style="stroke:#181818;stroke-width:1;" width="10" x="422.5498" y="96.5625"/></g><g><title>PostgreSqlJson</title><rect fill="#FFFFFF" height="40.1328" style="stroke:#181818;stroke-width:1;" width="10" x="427.5498" y="133.6953"/></g><g><title>PostgreSqlJson</title><rect fill="#FFFFFF" height="182.6641" style="stroke:#181818;stroke-width:1;" width="10" x="427.5498" y="392.7578"/></g><g><title>PostgreSqlJson</title><rect fill="#FFFFFF" height="98.3984" style="stroke:#181818;stroke-width:1;" width="10" x="432.5498" y="434.8906"/></g><g><title>WatchServiceTest$1</title><rect fill="#FFFFFF" height="29.1328" style="stroke:#181818;stroke-width:1;" width="10" x="666.1069" y="209.9609"/></g><g><title>WatchServiceTest$1</title><rect fill="#FFFFFF" height="29.1328" style="stroke:#181818;stroke-width:1;" width="10" x="666.1069" y="268.2266"/></g><g><title>WatchServiceTest$1</title><rect fill="#FFFFFF" height="29.1328" style="stroke:#181818;stroke-width:1;" width="10" x="666.1069" y="326.4922"/></g><g><title>EnrichmentOff</title><rect fill="#FFFFFF" height="29.1328" style="stroke:#181818;stroke-width:1;" width="10" x="812.812" y="469.0234"/></g><g><title>WatchServiceTest</title><rect fill="transparent" height="622.3906" width="8" x="195.0938" y="36.2969"/><line style="stroke:#181818;stroke-width:0.5;stroke-dasharray:5.0,5.0;" x1="199.0083" x2="199.0083" y1="36.2969" y2="658.6875"/></g><g><title>PostgreSqlJson</title><rect fill="transparent" height="622.3906" width="8" x="423.5498" y="36.2969"/><line style="stroke:#181818;stroke-width:0.5;stroke-dasharray:5.0,5.0;" x1="426.7642" x2="426.7642" y1="36.2969" y2="658.6875"/></g><g><title>WatchServiceTest$1</title><rect fill="transparent" height="622.3906" width="8" x="667.1069" y="36.2969"/><line style="stroke:#181818;stroke-width:0.5;stroke-dasharray:5.0,5.0;" x1="670.1143" x2="670.1143" y1="36.2969" y2="658.6875"/></g><g><title>EnrichmentOff</title><rect fill="transparent" height="622.3906" width="8" x="813.812" y="36.2969"/><line style="stroke:#181818;stroke-width:0.5;stroke-dasharray:5.0,5.0;" x1="817.0996" x2="817.0996" y1="36.2969" y2="658.6875"/></g><rect fill="#E2E2F0" height="30.2969" rx="2.5" ry="2.5" style="stroke:#181818;stroke-width:0.5;" width="140.1709" x="129.0083" y="5"/><text fill="#000000" font-family="sans-serif" font-size="14" lengthAdjust="spacing" textLength="126.1709" x="136.0083" y="24.9951">WatchServiceTest</text><rect fill="#E2E2F0" height="30.2969" rx="2.5" ry="2.5" style="stroke:#181818;stroke-width:0.5;" width="140.1709" x="129.0083" y="657.6875"/><text fill="#000000" font-family="sans-serif" font-size="14" lengthAdjust="spacing" textLength="126.1709" x="136.0083" y="677.6826">WatchServiceTest</text><rect fill="#E2E2F0" height="30.2969" rx="2.5" ry="2.5" style="stroke:#181818;stroke-width:0.5;" width="117.5713" x="368.7642" y="5"/><text fill="#000000" font-family="sans-serif" font-size="14" lengthAdjust="spacing" textLength="103.5713" x="375.7642" y="24.9951">PostgreSqlJson</text><rect fill="#E2E2F0" height="30.2969" rx="2.5" ry="2.5" style="stroke:#181818;stroke-width:0.5;" width="117.5713" x="368.7642" y="657.6875"/><text fill="#000000" font-family="sans-serif" font-size="14" lengthAdjust="spacing" textLength="103.5713" x="375.7642" y="677.6826">PostgreSqlJson</text><rect fill="#E2E2F0" height="30.2969" rx="2.5" ry="2.5" style="stroke:#181818;stroke-width:0.5;" width="157.9854" x="592.1143" y="5"/><text fill="#000000" font-family="sans-serif" font-size="14" lengthAdjust="spacing" textLength="143.9854" x="599.1143" y="24.9951">WatchServiceTest$1</text><rect fill="#E2E2F0" height="30.2969" rx="2.5" ry="2.5" style="stroke:#181818;stroke-width:0.5;" width="157.9854" x="592.1143" y="657.6875"/><text fill="#000000" font-family="sans-serif" font-size="14" lengthAdjust="spacing" textLength="143.9854" x="599.1143" y="677.6826">WatchServiceTest$1</text><rect fill="#E2E2F0" height="30.2969" rx="2.5" ry="2.5" style="stroke:#181818;stroke-width:0.5;" width="115.4248" x="760.0996" y="5"/><text fill="#000000" font-family="sans-serif" font-size="14" lengthAdjust="spacing" textLength="101.4248" x="767.0996" y="24.9951">EnrichmentOff</text><rect fill="#E2E2F0" height="30.2969" rx="2.5" ry="2.5" style="stroke:#181818;stroke-width:0.5;" width="115.4248" x="760.0996" y="657.6875"/><text fill="#000000" font-family="sans-serif" font-size="14" lengthAdjust="spacing" textLength="101.4248" x="767.0996" y="677.6826">EnrichmentOff</text><g><title>WatchServiceTest</title><rect fill="#FFFFFF" height="573.2578" style="stroke:#181818;stroke-width:1;" width="10" x="194.0938" y="67.4297"/></g><g><title>PostgreSqlJson</title><rect fill="#FFFFFF" height="514.9922" style="stroke:#181818;stroke-width:1;" width="10" x="422.5498" y="96.5625"/></g><g><title>PostgreSqlJson</title><rect fill="#FFFFFF" height="40.1328" style="stroke:#181818;stroke-width:1;" width="10" x="427.5498" y="133.6953"/></g><g><title>PostgreSqlJson</title><rect fill="#FFFFFF" height="182.6641" style="stroke:#181818;stroke-width:1;" width="10" x="427.5498" y="392.7578"/></g><g><title>PostgreSqlJson</title><rect fill="#FFFFFF" height="98.3984" style="stroke:#181818;stroke-width:1;" width="10" x="432.5498" y="434.8906"/></g><g><title>WatchServiceTest$1</title><rect fill="#FFFFFF" height="29.1328" style="stroke:#181818;stroke-width:1;" width="10" x="666.1069" y="209.9609"/></g><g><title>WatchServiceTest$1</title><rect fill="#FFFFFF" height="29.1328" style="stroke:#181818;stroke-width:1;" width="10" x="666.1069" y="268.2266"/></g><g><title>WatchServiceTest$1</title><rect fill="#FFFFFF" height="29.1328" style="stroke:#181818;stroke-width:1;" width="10" x="666.1069" y="326.4922"/></g><g><title>EnrichmentOff</title><rect fill="#FFFFFF" height="29.1328" style="stroke:#181818;stroke-width:1;" width="10" x="812.812" y="469.0234"/></g><polygon fill="#181818" points="182.0938,63.4297,192.0938,67.4297,182.0938,71.4297,186.0938,67.4297" style="stroke:#181818;stroke-width:1;"/><line style="stroke:#181818;stroke-width:1;" x1="0" x2="188.0938" y1="67.4297" y2="67.4297"/><text fill="#000000" font-family="sans-serif" font-size="13" lengthAdjust="spacing" textLength="114.3149" x="7" y="62.3638">testWatchService</text><text fill="#808080" font-family="sans-serif" font-size="13" lengthAdjust="spacing" textLength="52.5142" x="129.5796" y="62.3638">9.36 ms</text><polygon fill="#181818" points="410.5498,92.5625,420.5498,96.5625,410.5498,100.5625,414.5498,96.5625" style="stroke:#181818;stroke-width:1;"/><line style="stroke:#181818;stroke-width:1;" x1="204.0938" x2="416.5498" y1="96.5625" y2="96.5625"/><text fill="#000000" font-family="sans-serif" font-size="13" lengthAdjust="spacing" textLength="138.6772" x="211.0938" y="91.4966">watchPostgreSqlLogs</text><text fill="#808080" font-family="sans-serif" font-size="13" lengthAdjust="spacing" textLength="52.5142" x="358.0356" y="91.4966">8.92 ms</text><line style="stroke:#181818;stroke-width:1;" x1="432.5498" x2="479.5498" y1="120.6953" y2="120.6953"/><line style="stroke:#181818;stroke-width:1;" x1="479.5498" x2="479.5498" y1="120.6953" y2="133.6953"/><line style="stroke:#181818;stroke-width:1;" x1="438.5498" x2="479.5498" y1="133.6953" y2="133.6953"/><polygon fill="#181818" points="448.5498,129.6953,438.5498,133.6953,448.5498,137.6953,444.5498,133.6953" style="stroke:#181818;stroke-width:1;"/><text fill="#000000" font-family="sans-serif" font-size="13" lengthAdjust="spacing" textLength="98.1475" x="444.5498" y="115.6294">initLogEnricher</text><text fill="#808080" font-family="sans-serif" font-size="13" lengthAdjust="spacing" textLength="69.0562" x="550.9619" y="115.6294">0.0145 ms</text><line style="stroke:#181818;stroke-width:1;stroke-dasharray:2.0,2.0;" x1="380.5498" x2="426.5498" y1="172.8281" y2="172.8281"/><line style="stroke:#181818;stroke-width:1;stroke-dasharray:2.0,2.0;" x1="380.5498" x2="380.5498" y1="172.8281" y2="185.8281"/><line style="stroke:#181818;stroke-width:1;stroke-dasharray:2.0,2.0;" x1="380.5498" x2="420.5498" y1="185.8281" y2="185.8281"/><polygon fill="#181818" points="410.5498,181.8281,420.5498,185.8281,410.5498,189.8281,414.5498,185.8281" style="stroke:#181818;stroke-width:1;"/><text fill="#000000" font-family="sans-serif" font-size="13" lengthAdjust="spacing" textLength="27.5107" x="379.5498" y="167.7622">void</text><polygon fill="#181818" points="654.1069,205.9609,664.1069,209.9609,654.1069,213.9609,658.1069,209.9609" style="stroke:#181818;stroke-width:1;"/><line style="stroke:#181818;stroke-width:1;" x1="432.5498" x2="660.1069" y1="209.9609" y2="209.9609"/><text fill="#000000" font-family="sans-serif" font-size="13" lengthAdjust="spacing" textLength="111.1729" x="439.5498" y="204.895">positionFileTasks</text><text fill="#808080" font-family="sans-serif" font-size="13" lengthAdjust="spacing" textLength="69.0562" x="558.9873" y="204.895">0.0117 ms</text><polygon fill="#181818" points="443.5498,235.0938,433.5498,239.0938,443.5498,243.0938,439.5498,239.0938" style="stroke:#181818;stroke-width:1;"/><line style="stroke:#181818;stroke-width:1;stroke-dasharray:2.0,2.0;" x1="437.5498" x2="670.1069" y1="239.0938" y2="239.0938"/><text fill="#000000" font-family="sans-serif" font-size="13" lengthAdjust="spacing" textLength="109.313" x="449.5498" y="234.0278">java.lang.Thread</text><polygon fill="#181818" points="654.1069,264.2266,664.1069,268.2266,654.1069,272.2266,658.1069,268.2266" style="stroke:#181818;stroke-width:1;"/><line style="stroke:#181818;stroke-width:1;" x1="432.5498" x2="660.1069" y1="268.2266" y2="268.2266"/><text fill="#000000" font-family="sans-serif" font-size="13" lengthAdjust="spacing" textLength="102.3433" x="439.5498" y="263.1606">initialLogImport</text><text fill="#808080" font-family="sans-serif" font-size="13" lengthAdjust="spacing" textLength="69.0562" x="550.1577" y="263.1606">0.0134 ms</text><polygon fill="#181818" points="443.5498,293.3594,433.5498,297.3594,443.5498,301.3594,439.5498,297.3594" style="stroke:#181818;stroke-width:1;"/><line style="stroke:#181818;stroke-width:1;stroke-dasharray:2.0,2.0;" x1="437.5498" x2="670.1069" y1="297.3594" y2="297.3594"/><text fill="#000000" font-family="sans-serif" font-size="13" lengthAdjust="spacing" textLength="27.5107" x="449.5498" y="292.2935">void</text><polygon fill="#181818" points="654.1069,322.4922,664.1069,326.4922,654.1069,330.4922,658.1069,326.4922" style="stroke:#181818;stroke-width:1;"/><line style="stroke:#181818;stroke-width:1;" x1="432.5498" x2="660.1069" y1="326.4922" y2="326.4922"/><text fill="#000000" font-family="sans-serif" font-size="13" lengthAdjust="spacing" textLength="128.9653" x="439.5498" y="321.4263">registerWatchEvent</text><text fill="#808080" font-family="sans-serif" font-size="13" lengthAdjust="spacing" textLength="77.3271" x="576.7798" y="321.4263">0.00735 ms</text><polygon fill="#181818" points="443.5498,351.625,433.5498,355.625,443.5498,359.625,439.5498,355.625" style="stroke:#181818;stroke-width:1;"/><line style="stroke:#181818;stroke-width:1;stroke-dasharray:2.0,2.0;" x1="437.5498" x2="670.1069" y1="355.625" y2="355.625"/><text fill="#000000" font-family="sans-serif" font-size="13" lengthAdjust="spacing" textLength="27.5107" x="449.5498" y="350.5591">void</text><line style="stroke:#181818;stroke-width:1;" x1="432.5498" x2="479.5498" y1="379.7578" y2="379.7578"/><line style="stroke:#181818;stroke-width:1;" x1="479.5498" x2="479.5498" y1="379.7578" y2="392.7578"/><line style="stroke:#181818;stroke-width:1;" x1="438.5498" x2="479.5498" y1="392.7578" y2="392.7578"/><polygon fill="#181818" points="448.5498,388.7578,438.5498,392.7578,448.5498,396.7578,444.5498,392.7578" style="stroke:#181818;stroke-width:1;"/><text fill="#000000" font-family="sans-serif" font-size="13" lengthAdjust="spacing" textLength="79.8091" x="444.5498" y="374.6919">readJsonLog</text><text fill="#808080" font-family="sans-serif" font-size="13" lengthAdjust="spacing" textLength="52.5142" x="532.6235" y="374.6919">8.65 ms</text><line style="stroke:#181818;stroke-width:1;" x1="437.5498" x2="484.5498" y1="421.8906" y2="421.8906"/><line style="stroke:#181818;stroke-width:1;" x1="484.5498" x2="484.5498" y1="421.8906" y2="434.8906"/><line style="stroke:#181818;stroke-width:1;" x1="443.5498" x2="484.5498" y1="434.8906" y2="434.8906"/><polygon fill="#181818" points="453.5498,430.8906,443.5498,434.8906,453.5498,438.8906,449.5498,434.8906" style="stroke:#181818;stroke-width:1;"/><text fill="#000000" font-family="sans-serif" font-size="13" lengthAdjust="spacing" textLength="86.874" x="449.5498" y="416.8247">parseLogLine</text><text fill="#808080" font-family="sans-serif" font-size="13" lengthAdjust="spacing" textLength="44.2432" x="544.6885" y="416.8247">8.5 ms</text><polygon fill="#181818" points="800.812,465.0234,810.812,469.0234,800.812,473.0234,804.812,469.0234" style="stroke:#181818;stroke-width:1;"/><line style="stroke:#181818;stroke-width:1;" x1="442.5498" x2="806.812" y1="469.0234" y2="469.0234"/><text fill="#000000" font-family="sans-serif" font-size="13" lengthAdjust="spacing" textLength="164.9121" x="449.5498" y="463.9575">enricherApplicationName</text><text fill="#808080" font-family="sans-serif" font-size="13" lengthAdjust="spacing" textLength="69.0562" x="622.7266" y="463.9575">0.0453 ms</text><polygon fill="#181818" points="453.5498,494.1563,443.5498,498.1563,453.5498,502.1563,449.5498,498.1563" style="stroke:#181818;stroke-width:1;"/><line style="stroke:#181818;stroke-width:1;stroke-dasharray:2.0,2.0;" x1="447.5498" x2="816.812" y1="498.1563" y2="498.1563"/><text fill="#000000" font-family="sans-serif" font-size="13" lengthAdjust="spacing" textLength="27.5107" x="459.5498" y="493.0903">void</text><line style="stroke:#181818;stroke-width:1;stroke-dasharray:2.0,2.0;" x1="380.5498" x2="431.5498" y1="532.2891" y2="532.2891"/><line style="stroke:#181818;stroke-width:1;stroke-dasharray:2.0,2.0;" x1="380.5498" x2="380.5498" y1="532.2891" y2="545.2891"/><line style="stroke:#181818;stroke-width:1;stroke-dasharray:2.0,2.0;" x1="380.5498" x2="420.5498" y1="545.2891" y2="545.2891"/><polygon fill="#181818" points="410.5498,541.2891,420.5498,545.2891,410.5498,549.2891,414.5498,545.2891" style="stroke:#181818;stroke-width:1;"/><text fill="#000000" font-family="sans-serif" font-size="13" lengthAdjust="spacing" textLength="27.5107" x="379.5498" y="527.2231">void</text><line style="stroke:#181818;stroke-width:1;stroke-dasharray:2.0,2.0;" x1="380.5498" x2="426.5498" y1="574.4219" y2="574.4219"/><line style="stroke:#181818;stroke-width:1;stroke-dasharray:2.0,2.0;" x1="380.5498" x2="380.5498" y1="574.4219" y2="587.4219"/><line style="stroke:#181818;stroke-width:1;stroke-dasharray:2.0,2.0;" x1="380.5498" x2="420.5498" y1="587.4219" y2="587.4219"/><polygon fill="#181818" points="410.5498,583.4219,420.5498,587.4219,410.5498,591.4219,414.5498,587.4219" style="stroke:#181818;stroke-width:1;"/><text fill="#000000" font-family="sans-serif" font-size="13" lengthAdjust="spacing" textLength="27.5107" x="379.5498" y="569.356">void</text><polygon fill="#181818" points="215.0938,607.5547,205.0938,611.5547,215.0938,615.5547,211.0938,611.5547" style="stroke:#181818;stroke-width:1;"/><line style="stroke:#181818;stroke-width:1;stroke-dasharray:2.0,2.0;" x1="209.0938" x2="426.5498" y1="611.5547" y2="611.5547"/><text fill="#000000" font-family="sans-serif" font-size="13" lengthAdjust="spacing" textLength="110.335" x="221.0938" y="606.4888">java.lang.Integer</text><polygon fill="#181818" points="11,636.6875,1,640.6875,11,644.6875,7,640.6875" style="stroke:#181818;stroke-width:1;"/><line style="stroke:#181818;stroke-width:1;stroke-dasharray:2.0,2.0;" x1="5" x2="198.0938" y1="640.6875" y2="640.6875"/><text fill="#000000" font-family="sans-serif" font-size="13" lengthAdjust="spacing" textLength="27.5107" x="17" y="635.6216">void</text><!--SRC=[pPHDQy9048Rl_ef5Uarg6Zzga40F5YpI5XGyU2XB7EEsoMwwkwJqttUJIir-g0rIw4LaTkTzvitCJe6v90afC9LeXMMoMm0lIG9B419XWRfciDif6YdFJCYKm-8zUn2CrWbwIBzkYhq4JiPLeATDAIV9BWSgdxRREaEBT3i8hRtOL8cGLB_DA9eaB6CyIZd-ZD7O3uSe5vFhEXWh4Pn8Kc89Lftg35b1BzQjHkYZkd48pbagTEIjFxxHaGsehbQV8IDe8mabKd6-lmTm7TVpUq5_O0BR8IUUPp9BHZRxknjeLxuz014gc22IC7fFCbXYyIPi4y7eX0bRyvWH5_qLbzZFC4tzvOu3TXZxfRxRNDKVWgjHcEK5uzBs5lR_p9kxKHVvuP0I8O7NPzDIFK3BKMyK3lwh9NEKguvN_rH_p9SwRFrmpkFKKXEWM7D2mUGvSEU1DbBRZ162_MAuAugC9BXwPuyu1wjf_K7euZSgq8IF5g3QPbJGw9ZHDRTYc_NJTW5TiipC6NDe7NR9Z4f8WNVEoQuTO_vJqua1_m80]--></g></svg>