<svg xmlns="http://www.w3.org/2000/svg" xmlns:xlink="http://www.w3.org/1999/xlink" contentStyleType="text/css" height="266px" preserveAspectRatio="none" style="width:738px;height:266px;background:#FFFFFF;" version="1.1" viewBox="0 0 738 266" width="738px" zoomAndPan="magnify"><defs/><g><rect fill="#FFFFFF" height="145.6641" style="stroke:#181818;stroke-width:1.0;" width="10" x="213.6636" y="67.4297"/><rect fill="#FFFFFF" height="87.3984" style="stroke:#181818;stroke-width:1.0;" width="10" x="398.5874" y="96.5625"/><rect fill="#FFFFFF" height="29.1328" style="stroke:#181818;stroke-width:1.0;" width="10" x="669.8203" y="125.6953"/><line style="stroke:#181818;stroke-width:0.5;stroke-dasharray:5.0,5.0;" x1="217.9038" x2="217.9038" y1="36.2969" y2="231.0938"/><line style="stroke:#181818;stroke-width:0.5;stroke-dasharray:5.0,5.0;" x1="402.8018" x2="402.8018" y1="36.2969" y2="231.0938"/><line style="stroke:#181818;stroke-width:0.5;stroke-dasharray:5.0,5.0;" x1="674.1079" x2="674.1079" y1="36.2969" y2="231.0938"/><rect fill="#E2E2F0" height="30.2969" rx="2.5" ry="2.5" style="stroke:#181818;stroke-width:0.5;" width="147.5195" x="144.9038" y="5"/><text fill="#000000" font-family="sans-serif" font-size="14" lengthAdjust="spacing" textLength="133.5195" x="151.9038" y="24.9951">PostgreSqlJsonTest</text><rect fill="#E2E2F0" height="30.2969" rx="2.5" ry="2.5" style="stroke:#181818;stroke-width:0.5;" width="147.5195" x="144.9038" y="230.0938"/><text fill="#000000" font-family="sans-serif" font-size="14" lengthAdjust="spacing" textLength="133.5195" x="151.9038" y="250.0889">PostgreSqlJsonTest</text><rect fill="#E2E2F0" height="30.2969" rx="2.5" ry="2.5" style="stroke:#181818;stroke-width:0.5;" width="117.5713" x="344.8018" y="5"/><text fill="#000000" font-family="sans-serif" font-size="14" lengthAdjust="spacing" textLength="103.5713" x="351.8018" y="24.9951">PostgreSqlJson</text><rect fill="#E2E2F0" height="30.2969" rx="2.5" ry="2.5" style="stroke:#181818;stroke-width:0.5;" width="117.5713" x="344.8018" y="230.0938"/><text fill="#000000" font-family="sans-serif" font-size="14" lengthAdjust="spacing" textLength="103.5713" x="351.8018" y="250.0889">PostgreSqlJson</text><rect fill="#E2E2F0" height="30.2969" rx="2.5" ry="2.5" style="stroke:#181818;stroke-width:0.5;" width="115.4248" x="617.1079" y="5"/><text fill="#000000" font-family="sans-serif" font-size="14" lengthAdjust="spacing" textLength="101.4248" x="624.1079" y="24.9951">EnrichmentOff</text><rect fill="#E2E2F0" height="30.2969" rx="2.5" ry="2.5" style="stroke:#181818;stroke-width:0.5;" width="115.4248" x="617.1079" y="230.0938"/><text fill="#000000" font-family="sans-serif" font-size="14" lengthAdjust="spacing" textLength="101.4248" x="624.1079" y="250.0889">EnrichmentOff</text><rect fill="#FFFFFF" height="145.6641" style="stroke:#181818;stroke-width:1.0;" width="10" x="213.6636" y="67.4297"/><rect fill="#FFFFFF" height="87.3984" style="stroke:#181818;stroke-width:1.0;" width="10" x="398.5874" y="96.5625"/><rect fill="#FFFFFF" height="29.1328" style="stroke:#181818;stroke-width:1.0;" width="10" x="669.8203" y="125.6953"/><polygon fill="#181818" points="201.6636,63.4297,211.6636,67.4297,201.6636,71.4297,205.6636,67.4297" style="stroke:#181818;stroke-width:1.0;"/><line style="stroke:#181818;stroke-width:1.0;" x1="0" x2="207.6636" y1="67.4297" y2="67.4297"/><text fill="#000000" font-family="sans-serif" font-size="13" lengthAdjust="spacing" textLength="125.6138" x="7" y="62.3638">logUnknowSeverity</text><text fill="#808080" font-family="sans-serif" font-size="13" lengthAdjust="spacing" textLength="60.7852" x="140.8784" y="62.3638">0.148 ms</text><polygon fill="#181818" points="386.5874,92.5625,396.5874,96.5625,386.5874,100.5625,390.5874,96.5625" style="stroke:#181818;stroke-width:1.0;"/><line style="stroke:#181818;stroke-width:1.0;" x1="223.6636" x2="392.5874" y1="96.5625" y2="96.5625"/><text fill="#000000" font-family="sans-serif" font-size="13" lengthAdjust="spacing" textLength="86.874" x="230.6636" y="91.4966">parseLogLine</text><text fill="#808080" font-family="sans-serif" font-size="13" lengthAdjust="spacing" textLength="60.7852" x="325.8022" y="91.4966">0.119 ms</text><polygon fill="#181818" points="657.8203,121.6953,667.8203,125.6953,657.8203,129.6953,661.8203,125.6953" style="stroke:#181818;stroke-width:1.0;"/><line style="stroke:#181818;stroke-width:1.0;" x1="408.5874" x2="663.8203" y1="125.6953" y2="125.6953"/><text fill="#000000" font-family="sans-serif" font-size="13" lengthAdjust="spacing" textLength="164.9121" x="415.5874" y="120.6294">enricherApplicationName</text><text fill="#808080" font-family="sans-serif" font-size="13" lengthAdjust="spacing" textLength="69.0562" x="588.7642" y="120.6294">0.0323 ms</text><polygon fill="#181818" points="419.5874,150.8281,409.5874,154.8281,419.5874,158.8281,415.5874,154.8281" style="stroke:#181818;stroke-width:1.0;"/><line style="stroke:#181818;stroke-width:1.0;stroke-dasharray:2.0,2.0;" x1="413.5874" x2="673.8203" y1="154.8281" y2="154.8281"/><text fill="#000000" font-family="sans-serif" font-size="13" lengthAdjust="spacing" textLength="27.5107" x="425.5874" y="149.7622">void</text><polygon fill="#181818" points="234.6636,179.9609,224.6636,183.9609,234.6636,187.9609,230.6636,183.9609" style="stroke:#181818;stroke-width:1.0;"/><line style="stroke:#181818;stroke-width:1.0;stroke-dasharray:2.0,2.0;" x1="228.6636" x2="402.5874" y1="183.9609" y2="183.9609"/><text fill="#000000" font-family="sans-serif" font-size="13" lengthAdjust="spacing" textLength="27.5107" x="240.6636" y="178.895">void</text><polygon fill="#181818" points="11,209.0938,1,213.0938,11,217.0938,7,213.0938" style="stroke:#181818;stroke-width:1.0;"/><line style="stroke:#181818;stroke-width:1.0;stroke-dasharray:2.0,2.0;" x1="5" x2="217.6636" y1="213.0938" y2="213.0938"/><text fill="#000000" font-family="sans-serif" font-size="13" lengthAdjust="spacing" textLength="27.5107" x="17" y="208.0278">void</text><!--SRC=[VP4nJyCm48Nt_efJza1B6I2A8dLWGHLKAaoTBFUQdfhuZ7rArNzF21MgxOJHp- -zptUsoWbfiie8RDXBxN3xrRnwDX_e1PI7B9MpcPsCZKH2-ujnf8yj6da_70Pte6GpW5rUfT026gu_pSdmUOiTEf8Bb9eRTaNjrAM2-TtYyGbQNzuFQjKNAItKAS6HqVfR695ZSW7zspskkLwJmGIuU0w1ayZXBWRcLJ1w0JWSqQsiRKWh8JPlgasmy-N3CkRUa8FIKN2Pvn6vOzfVhNlyfodTMDyLh-olxAOgMSSk2Vx-yZKy6VrnVGC0]--></g></svg>