<svg xmlns="http://www.w3.org/2000/svg" xmlns:xlink="http://www.w3.org/1999/xlink" contentStyleType="text/css" height="381px" preserveAspectRatio="none" style="width:586px;height:381px;background:#FFFFFF;" version="1.1" viewBox="0 0 586 381" width="586px" zoomAndPan="magnify"><defs/><g><rect fill="#FFFFFF" height="261.0625" style="stroke:#181818;stroke-width:1.0;" width="10" x="202.5996" y="67.4297"/><rect fill="#FFFFFF" height="171.6641" style="stroke:#181818;stroke-width:1.0;" width="10" x="362.8501" y="120.6953"/><rect fill="#FFFFFF" height="98.3984" style="stroke:#181818;stroke-width:1.0;" width="10" x="367.8501" y="157.8281"/><rect fill="#FFFFFF" height="29.1328" style="stroke:#181818;stroke-width:1.0;" width="10" x="507.6548" y="191.9609"/><rect fill="none" height="217.9297" style="stroke:#000000;stroke-width:1.5;" width="474.2324" x="106.1348" y="82.4297"/><line style="stroke:#181818;stroke-width:0.5;stroke-dasharray:5.0,5.0;" x1="207.1348" x2="207.1348" y1="36.2969" y2="346.4922"/><line style="stroke:#181818;stroke-width:0.5;stroke-dasharray:5.0,5.0;" x1="367.0645" x2="367.0645" y1="36.2969" y2="346.4922"/><line style="stroke:#181818;stroke-width:0.5;stroke-dasharray:5.0,5.0;" x1="511.9424" x2="511.9424" y1="36.2969" y2="346.4922"/><rect fill="#E2E2F0" height="30.2969" rx="2.5" ry="2.5" style="stroke:#181818;stroke-width:0.5;" width="182.9297" x="116.1348" y="5"/><text fill="#000000" font-family="sans-serif" font-size="14" lengthAdjust="spacing" textLength="168.9297" x="123.1348" y="24.9951">TestCliArgumentParsing</text><rect fill="#E2E2F0" height="30.2969" rx="2.5" ry="2.5" style="stroke:#181818;stroke-width:0.5;" width="182.9297" x="116.1348" y="345.4922"/><text fill="#000000" font-family="sans-serif" font-size="14" lengthAdjust="spacing" textLength="168.9297" x="123.1348" y="365.4873">TestCliArgumentParsing</text><rect fill="#E2E2F0" height="30.2969" rx="2.5" ry="2.5" style="stroke:#181818;stroke-width:0.5;" width="117.5713" x="309.0645" y="5"/><text fill="#000000" font-family="sans-serif" font-size="14" lengthAdjust="spacing" textLength="103.5713" x="316.0645" y="24.9951">PostgreSqlJson</text><rect fill="#E2E2F0" height="30.2969" rx="2.5" ry="2.5" style="stroke:#181818;stroke-width:0.5;" width="117.5713" x="309.0645" y="345.4922"/><text fill="#000000" font-family="sans-serif" font-size="14" lengthAdjust="spacing" textLength="103.5713" x="316.0645" y="365.4873">PostgreSqlJson</text><rect fill="#E2E2F0" height="30.2969" rx="2.5" ry="2.5" style="stroke:#181818;stroke-width:0.5;" width="115.4248" x="454.9424" y="5"/><text fill="#000000" font-family="sans-serif" font-size="14" lengthAdjust="spacing" textLength="101.4248" x="461.9424" y="24.9951">EnrichmentOff</text><rect fill="#E2E2F0" height="30.2969" rx="2.5" ry="2.5" style="stroke:#181818;stroke-width:0.5;" width="115.4248" x="454.9424" y="345.4922"/><text fill="#000000" font-family="sans-serif" font-size="14" lengthAdjust="spacing" textLength="101.4248" x="461.9424" y="365.4873">EnrichmentOff</text><rect fill="#FFFFFF" height="261.0625" style="stroke:#181818;stroke-width:1.0;" width="10" x="202.5996" y="67.4297"/><rect fill="#FFFFFF" height="171.6641" style="stroke:#181818;stroke-width:1.0;" width="10" x="362.8501" y="120.6953"/><rect fill="#FFFFFF" height="98.3984" style="stroke:#181818;stroke-width:1.0;" width="10" x="367.8501" y="157.8281"/><rect fill="#FFFFFF" height="29.1328" style="stroke:#181818;stroke-width:1.0;" width="10" x="507.6548" y="191.9609"/><polygon fill="#181818" points="190.5996,63.4297,200.5996,67.4297,190.5996,71.4297,194.5996,67.4297" style="stroke:#181818;stroke-width:1.0;"/><line style="stroke:#181818;stroke-width:1.0;" x1="0" x2="196.5996" y1="67.4297" y2="67.4297"/><text fill="#000000" font-family="sans-serif" font-size="13" lengthAdjust="spacing" textLength="122.8208" x="7" y="62.3638">testHelpParameter</text><text fill="#808080" font-family="sans-serif" font-size="13" lengthAdjust="spacing" textLength="52.5142" x="138.0854" y="62.3638">2.71 ms</text><path d="M106.1348,82.4297 L182.7588,82.4297 L182.7588,89.5625 L172.7588,99.5625 L106.1348,99.5625 L106.1348,82.4297 " fill="#EEEEEE" style="stroke:#000000;stroke-width:1.5;"/><rect fill="none" height="217.9297" style="stroke:#000000;stroke-width:1.5;" width="474.2324" x="106.1348" y="82.4297"/><text fill="#000000" font-family="sans-serif" font-size="13" font-weight="bold" lengthAdjust="spacing" textLength="31.624" x="121.1348" y="95.4966">loop</text><text fill="#000000" font-family="sans-serif" font-size="11" font-weight="bold" lengthAdjust="spacing" textLength="51.0093" x="197.7588" y="94.6401">[2 times</text><text fill="#808080" font-family="sans-serif" font-size="11" font-weight="bold" lengthAdjust="spacing" textLength="48.979" x="256.4272" y="94.6401">2.67 ms</text><text fill="#000000" font-family="sans-serif" font-size="11" font-weight="bold" lengthAdjust="spacing" textLength="5.0273" x="305.4063" y="94.6401">]</text><polygon fill="#181818" points="350.8501,116.6953,360.8501,120.6953,350.8501,124.6953,354.8501,120.6953" style="stroke:#181818;stroke-width:1.0;"/><line style="stroke:#181818;stroke-width:1.0;" x1="212.5996" x2="356.8501" y1="120.6953" y2="120.6953"/><text fill="#000000" font-family="sans-serif" font-size="13" lengthAdjust="spacing" text-decoration="underline" textLength="32.481" x="219.5996" y="115.6294">main</text><text fill="#000000" font-family="sans-serif" font-size="13" lengthAdjust="spacing" textLength="4.1323" x="252.0806" y="115.6294">&#160;</text><text fill="#808080" font-family="sans-serif" font-size="13" lengthAdjust="spacing" textLength="52.5142" x="260.3452" y="115.6294">2.67 ms</text><line style="stroke:#181818;stroke-width:1.0;" x1="372.8501" x2="419.8501" y1="144.8281" y2="144.8281"/><line style="stroke:#181818;stroke-width:1.0;" x1="419.8501" x2="419.8501" y1="144.8281" y2="157.8281"/><line style="stroke:#181818;stroke-width:1.0;" x1="378.8501" x2="419.8501" y1="157.8281" y2="157.8281"/><polygon fill="#181818" points="388.8501,153.8281,378.8501,157.8281,388.8501,161.8281,384.8501,157.8281" style="stroke:#181818;stroke-width:1.0;"/><text fill="#000000" font-family="sans-serif" font-size="13" lengthAdjust="spacing" textLength="33.4839" x="384.8501" y="139.7622">close</text><text fill="#808080" font-family="sans-serif" font-size="13" lengthAdjust="spacing" textLength="60.7852" x="426.5986" y="139.7622">0.133 ms</text><polygon fill="#181818" points="495.6548,187.9609,505.6548,191.9609,495.6548,195.9609,499.6548,191.9609" style="stroke:#181818;stroke-width:1.0;"/><line style="stroke:#181818;stroke-width:1.0;" x1="377.8501" x2="501.6548" y1="191.9609" y2="191.9609"/><text fill="#000000" font-family="sans-serif" font-size="13" lengthAdjust="spacing" textLength="33.4839" x="384.8501" y="186.895">close</text><text fill="#808080" font-family="sans-serif" font-size="13" lengthAdjust="spacing" textLength="69.0562" x="426.5986" y="186.895">0.0368 ms</text><polygon fill="#181818" points="388.8501,217.0938,378.8501,221.0938,388.8501,225.0938,384.8501,221.0938" style="stroke:#181818;stroke-width:1.0;"/><line style="stroke:#181818;stroke-width:1.0;stroke-dasharray:2.0,2.0;" x1="382.8501" x2="511.6548" y1="221.0938" y2="221.0938"/><text fill="#000000" font-family="sans-serif" font-size="13" lengthAdjust="spacing" textLength="27.5107" x="394.8501" y="216.0278">void</text><line style="stroke:#181818;stroke-width:1.0;stroke-dasharray:2.0,2.0;" x1="320.8501" x2="366.8501" y1="255.2266" y2="255.2266"/><line style="stroke:#181818;stroke-width:1.0;stroke-dasharray:2.0,2.0;" x1="320.8501" x2="320.8501" y1="255.2266" y2="268.2266"/><line style="stroke:#181818;stroke-width:1.0;stroke-dasharray:2.0,2.0;" x1="320.8501" x2="360.8501" y1="268.2266" y2="268.2266"/><polygon fill="#181818" points="350.8501,264.2266,360.8501,268.2266,350.8501,272.2266,354.8501,268.2266" style="stroke:#181818;stroke-width:1.0;"/><text fill="#000000" font-family="sans-serif" font-size="13" lengthAdjust="spacing" textLength="27.5107" x="319.8501" y="250.1606">void</text><polygon fill="#181818" points="223.5996,288.3594,213.5996,292.3594,223.5996,296.3594,219.5996,292.3594" style="stroke:#181818;stroke-width:1.0;"/><line style="stroke:#181818;stroke-width:1.0;stroke-dasharray:2.0,2.0;" x1="217.5996" x2="366.8501" y1="292.3594" y2="292.3594"/><text fill="#000000" font-family="sans-serif" font-size="13" lengthAdjust="spacing" textLength="27.5107" x="229.5996" y="287.2935">void</text><polygon fill="#181818" points="11,324.4922,1,328.4922,11,332.4922,7,328.4922" style="stroke:#181818;stroke-width:1.0;"/><line style="stroke:#181818;stroke-width:1.0;stroke-dasharray:2.0,2.0;" x1="5" x2="206.5996" y1="328.4922" y2="328.4922"/><text fill="#000000" font-family="sans-serif" font-size="13" lengthAdjust="spacing" textLength="27.5107" x="17" y="323.4263">void</text><!--SRC=[ZP9RQyCW68Rl-oi-Sf-U0kq88enHA6EmmdRNAx4s5JnLJM7_VYQKeObfv-Nhw_DuCiHwJhaXoiCtS_vDy5VRj98fVo3MSTK0SL3afugPYPOVjFEDPLzNyUwqwfUbKLhVASlffQDzdizzEqcA6S2nn7bn3JxaUoPC28Xadbb0L0jjwyQI7mph-NO5qg557-B08jJp6_5iufIX0V2XjO4rU2wP6_8ssvJNZJognEcnQq0jbeGhj6ZnVx1_MqqvzraOn6CT5TgnLBIShwfgR7hk6jkILvgGBQlDIyuM-HBCf0wLvS1tq_mKrK_i2N746zvM0enmsGl9l_XZwcFcJdMzOq1CVVKxAiBacxy0]--></g></svg>