<svg xmlns="http://www.w3.org/2000/svg" xmlns:xlink="http://www.w3.org/1999/xlink" contentStyleType="text/css" height="383px" preserveAspectRatio="none" style="width:727px;height:383px;background:#000000;" version="1.1" viewBox="0 0 727 383" width="727px" zoomAndPan="magnify"><defs/><g><rect fill="none" height="238.7813" style="stroke:#999999;stroke-width:1.0;" width="10" x="133.1211" y="83.9375"/><rect fill="none" height="162.8438" style="stroke:#999999;stroke-width:1.0;" width="10" x="348.7314" y="121.9063"/><rect fill="none" height="37.9688" style="stroke:#999999;stroke-width:1.0;" width="10" x="611.3311" y="201.8125"/><rect fill="none" height="110.875" rx="4" ry="4" style="stroke:#4362B1;stroke-width:1.5;" width="474.4551" x="247.3438" y="136.9063"/><line style="stroke:#999999;stroke-width:0.5;stroke-dasharray:5.0,5.0;" x1="137.8984" x2="137.8984" y1="43.9688" y2="340.7188"/><line style="stroke:#999999;stroke-width:0.5;stroke-dasharray:5.0,5.0;" x1="353.3438" x2="353.3438" y1="43.9688" y2="340.7188"/><line style="stroke:#999999;stroke-width:0.5;stroke-dasharray:5.0,5.0;" x1="615.8633" x2="615.8633" y1="43.9688" y2="340.7188"/><rect fill="#555555" height="37.9688" rx="4" ry="4" style="stroke:#555555;stroke-width:1.0;" width="138.4453" x="68.8984" y="5"/><text fill="#FFFFFF" font-family="Verdana" font-size="12" lengthAdjust="spacing" textLength="114.4453" x="80.8984" y="28.1387">PostgreSqlJsonTest</text><rect fill="#555555" height="37.9688" rx="4" ry="4" style="stroke:#555555;stroke-width:1.0;" width="138.4453" x="68.8984" y="339.7188"/><text fill="#FFFFFF" font-family="Verdana" font-size="12" lengthAdjust="spacing" textLength="114.4453" x="80.8984" y="362.8574">PostgreSqlJsonTest</text><rect fill="#555555" height="37.9688" rx="4" ry="4" style="stroke:#555555;stroke-width:1.0;" width="112.7754" x="297.3438" y="5"/><text fill="#FFFFFF" font-family="Verdana" font-size="12" lengthAdjust="spacing" textLength="88.7754" x="309.3438" y="28.1387">PostgreSqlJson</text><rect fill="#555555" height="37.9688" rx="4" ry="4" style="stroke:#555555;stroke-width:1.0;" width="112.7754" x="297.3438" y="339.7188"/><text fill="#FFFFFF" font-family="Verdana" font-size="12" lengthAdjust="spacing" textLength="88.7754" x="309.3438" y="362.8574">PostgreSqlJson</text><rect fill="#555555" height="37.9688" rx="4" ry="4" style="stroke:#555555;stroke-width:1.0;" width="110.9355" x="560.8633" y="5"/><text fill="#FFFFFF" font-family="Verdana" font-size="12" lengthAdjust="spacing" textLength="86.9355" x="572.8633" y="28.1387">EnrichmentOff</text><rect fill="#555555" height="37.9688" rx="4" ry="4" style="stroke:#555555;stroke-width:1.0;" width="110.9355" x="560.8633" y="339.7188"/><text fill="#FFFFFF" font-family="Verdana" font-size="12" lengthAdjust="spacing" textLength="86.9355" x="572.8633" y="362.8574">EnrichmentOff</text><rect fill="none" height="238.7813" style="stroke:#999999;stroke-width:1.0;" width="10" x="133.1211" y="83.9375"/><rect fill="none" height="162.8438" style="stroke:#999999;stroke-width:1.0;" width="10" x="348.7314" y="121.9063"/><rect fill="none" height="37.9688" style="stroke:#999999;stroke-width:1.0;" width="10" x="611.3311" y="201.8125"/><polygon fill="#4362B1" points="121.1211,79.9375,131.1211,83.9375,121.1211,87.9375,125.1211,83.9375" style="stroke:#4362B1;stroke-width:1.0;"/><line style="stroke:#4362B1;stroke-width:3.0;" x1="0" x2="127.1211" y1="83.9375" y2="83.9375"/><text fill="#FFFFFF" font-family="Verdana" font-size="12" lengthAdjust="spacing" textLength="48.0176" x="12" y="74.1074">logError</text><text fill="#808080" font-family="Verdana" font-size="12" lengthAdjust="spacing" textLength="48.4746" x="67.6465" y="74.1074">0.12 ms</text><polygon fill="#4362B1" points="336.7314,117.9063,346.7314,121.9063,336.7314,125.9063,340.7314,121.9063" style="stroke:#4362B1;stroke-width:1.0;"/><line style="stroke:#4362B1;stroke-width:3.0;" x1="143.1211" x2="342.7314" y1="121.9063" y2="121.9063"/><text fill="#FFFFFF" font-family="Verdana" font-size="12" lengthAdjust="spacing" textLength="80.1914" x="155.1211" y="112.0762">parseLogLine</text><text fill="#808080" font-family="Verdana" font-size="12" lengthAdjust="spacing" textLength="56.1094" x="242.9414" y="112.0762">0.102 ms</text><path d="M251.3438,136.9063 L331.5352,136.9063 L331.5352,152.875 L321.5352,162.875 L247.3438,162.875 L247.3438,140.9063 A4,4 0 0 1 251.3438,136.9063 " fill="#4362B1" style="stroke:#4362B1;stroke-width:1.5;"/><rect fill="none" height="110.875" rx="4" ry="4" style="stroke:#4362B1;stroke-width:1.5;" width="474.4551" x="247.3438" y="136.9063"/><text fill="#FFFFFF" font-family="Verdana" font-size="12" font-weight="bold" lengthAdjust="spacing" textLength="29.1914" x="267.3438" y="154.0449">loop</text><text fill="#4362B1" font-family="Verdana" font-size="12" font-weight="bold" lengthAdjust="spacing" textLength="55.6465" x="351.5352" y="155.0449">[2 times</text><text fill="#808080" font-family="Verdana" font-size="12" font-weight="bold" lengthAdjust="spacing" textLength="70.1309" x="415.5371" y="155.0449">0.0226 ms</text><text fill="#4362B1" font-family="Verdana" font-size="12" font-weight="bold" lengthAdjust="spacing" textLength="5.4844" x="485.668" y="155.0449">]</text><polygon fill="#4362B1" points="599.3311,197.8125,609.3311,201.8125,599.3311,205.8125,603.3311,201.8125" style="stroke:#4362B1;stroke-width:1.0;"/><line style="stroke:#4362B1;stroke-width:3.0;" x1="358.7314" x2="605.3311" y1="201.8125" y2="201.8125"/><text fill="#FFFFFF" font-family="Verdana" font-size="12" lengthAdjust="spacing" textLength="152.2266" x="370.7314" y="191.9824">enricherApplicationName</text><text fill="#808080" font-family="Verdana" font-size="12" lengthAdjust="spacing" textLength="63.7441" x="530.5869" y="191.9824">0.0226 ms</text><polygon fill="#4362B1" points="369.7314,235.7813,359.7314,239.7813,369.7314,243.7813,365.7314,239.7813" style="stroke:#4362B1;stroke-width:1.0;"/><line style="stroke:#4362B1;stroke-width:3.0;stroke-dasharray:2.0,2.0;" x1="363.7314" x2="615.3311" y1="239.7813" y2="239.7813"/><text fill="#FFFFFF" font-family="Verdana" font-size="12" lengthAdjust="spacing" textLength="25.3945" x="380.7314" y="229.9512">void</text><polygon fill="#4362B1" points="154.1211,280.75,144.1211,284.75,154.1211,288.75,150.1211,284.75" style="stroke:#4362B1;stroke-width:1.0;"/><line style="stroke:#4362B1;stroke-width:3.0;stroke-dasharray:2.0,2.0;" x1="148.1211" x2="352.7314" y1="284.75" y2="284.75"/><text fill="#FFFFFF" font-family="Verdana" font-size="12" lengthAdjust="spacing" textLength="25.3945" x="165.1211" y="274.9199">void</text><polygon fill="#4362B1" points="11,318.7188,1,322.7188,11,326.7188,7,322.7188" style="stroke:#4362B1;stroke-width:1.0;"/><line style="stroke:#4362B1;stroke-width:3.0;stroke-dasharray:2.0,2.0;" x1="5" x2="137.1211" y1="322.7188" y2="322.7188"/><text fill="#FFFFFF" font-family="Verdana" font-size="12" lengthAdjust="spacing" textLength="25.3945" x="22" y="312.8887">void</text><!--SRC=[ZL8zJyCm4DtxAuxkYKi6XgYAn92bgW09jax6kIQMR9-nBqNyUqoAAf8q5MFUlIy_vKuxPVe6-s2WO_Qn52B8pxpLtFNlVSIWo34wpXLPqI9BxwtqmXlfkBScumuj2Ykr4-VJ6SbzEgwy3AoLzeaBBnIv3VZwONQHt1j61XbXFOVNDsHN96DwxO9MdKs5du_7WJr2rYk0GrRDGqimrDOXK82j8aEXR8Fygc2JtnTWurOCO9NaKh4-ISOh3qfNk09Fyqf8ZIFkgTrhXxEypIHmCNAu0Uo9F1J0scASccsAuc7gDY-PLQEHIi3X4yEZzqOhoPhSaxJuN_TBtv7jGlWsooRf9zBDXTpWJRVQDGkh9z_fx1VZFwQpIGypuVd_-1KlIdzOtm00]--></g></svg>