<svg xmlns="http://www.w3.org/2000/svg" xmlns:xlink="http://www.w3.org/1999/xlink" contentStyleType="text/css" height="739px" preserveAspectRatio="none" style="width:784px;height:739px;background:#000000;" version="1.1" viewBox="0 0 784 739" width="784px" zoomAndPan="magnify"><defs/><g><rect fill="none" height="594.5313" style="stroke:#999999;stroke-width:1.0;" width="10" x="179.5742" y="83.9375"/><rect fill="none" height="366.7188" style="stroke:#999999;stroke-width:1.0;" width="10" x="395.1846" y="121.9063"/><rect fill="none" height="226.8438" style="stroke:#999999;stroke-width:1.0;" width="10" x="400.1846" y="209.8125"/><rect fill="none" height="124.9063" style="stroke:#999999;stroke-width:1.0;" width="10" x="405.1846" y="260.7813"/><rect fill="none" height="113.9063" style="stroke:#999999;stroke-width:1.0;" width="10" x="395.1846" y="526.5938"/><rect fill="none" height="37.9688" style="stroke:#999999;stroke-width:1.0;" width="10" x="667.7842" y="303.75"/><rect fill="none" height="37.9688" style="stroke:#999999;stroke-width:1.0;" width="10" x="667.7842" y="564.5625"/><rect fill="none" height="314.75" rx="4" ry="4" style="stroke:#4362B1;stroke-width:1.5;" width="484.4551" x="293.7969" y="136.9063"/><line style="stroke:#999999;stroke-width:0.5;stroke-dasharray:5.0,5.0;" x1="184.3516" x2="184.3516" y1="43.9688" y2="696.4688"/><line style="stroke:#999999;stroke-width:0.5;stroke-dasharray:5.0,5.0;" x1="399.7969" x2="399.7969" y1="43.9688" y2="696.4688"/><line style="stroke:#999999;stroke-width:0.5;stroke-dasharray:5.0,5.0;" x1="672.3164" x2="672.3164" y1="43.9688" y2="696.4688"/><rect fill="#555555" height="37.9688" rx="4" ry="4" style="stroke:#555555;stroke-width:1.0;" width="138.4453" x="115.3516" y="5"/><text fill="#FFFFFF" font-family="Verdana" font-size="12" lengthAdjust="spacing" textLength="114.4453" x="127.3516" y="28.1387">PostgreSqlJsonTest</text><rect fill="#555555" height="37.9688" rx="4" ry="4" style="stroke:#555555;stroke-width:1.0;" width="138.4453" x="115.3516" y="695.4688"/><text fill="#FFFFFF" font-family="Verdana" font-size="12" lengthAdjust="spacing" textLength="114.4453" x="127.3516" y="718.6074">PostgreSqlJsonTest</text><rect fill="#555555" height="37.9688" rx="4" ry="4" style="stroke:#555555;stroke-width:1.0;" width="112.7754" x="343.7969" y="5"/><text fill="#FFFFFF" font-family="Verdana" font-size="12" lengthAdjust="spacing" textLength="88.7754" x="355.7969" y="28.1387">PostgreSqlJson</text><rect fill="#555555" height="37.9688" rx="4" ry="4" style="stroke:#555555;stroke-width:1.0;" width="112.7754" x="343.7969" y="695.4688"/><text fill="#FFFFFF" font-family="Verdana" font-size="12" lengthAdjust="spacing" textLength="88.7754" x="355.7969" y="718.6074">PostgreSqlJson</text><rect fill="#555555" height="37.9688" rx="4" ry="4" style="stroke:#555555;stroke-width:1.0;" width="110.9355" x="617.3164" y="5"/><text fill="#FFFFFF" font-family="Verdana" font-size="12" lengthAdjust="spacing" textLength="86.9355" x="629.3164" y="28.1387">EnrichmentOff</text><rect fill="#555555" height="37.9688" rx="4" ry="4" style="stroke:#555555;stroke-width:1.0;" width="110.9355" x="617.3164" y="695.4688"/><text fill="#FFFFFF" font-family="Verdana" font-size="12" lengthAdjust="spacing" textLength="86.9355" x="629.3164" y="718.6074">EnrichmentOff</text><rect fill="none" height="594.5313" style="stroke:#999999;stroke-width:1.0;" width="10" x="179.5742" y="83.9375"/><rect fill="none" height="366.7188" style="stroke:#999999;stroke-width:1.0;" width="10" x="395.1846" y="121.9063"/><rect fill="none" height="226.8438" style="stroke:#999999;stroke-width:1.0;" width="10" x="400.1846" y="209.8125"/><rect fill="none" height="124.9063" style="stroke:#999999;stroke-width:1.0;" width="10" x="405.1846" y="260.7813"/><rect fill="none" height="113.9063" style="stroke:#999999;stroke-width:1.0;" width="10" x="395.1846" y="526.5938"/><rect fill="none" height="37.9688" style="stroke:#999999;stroke-width:1.0;" width="10" x="667.7842" y="303.75"/><rect fill="none" height="37.9688" style="stroke:#999999;stroke-width:1.0;" width="10" x="667.7842" y="564.5625"/><polygon fill="#4362B1" points="167.5742,79.9375,177.5742,83.9375,167.5742,87.9375,171.5742,83.9375" style="stroke:#4362B1;stroke-width:1.0;"/><line style="stroke:#4362B1;stroke-width:3.0;" x1="0" x2="173.5742" y1="83.9375" y2="83.9375"/><text fill="#FFFFFF" font-family="Verdana" font-size="12" lengthAdjust="spacing" textLength="94.4707" x="12" y="74.1074">initialLogImport</text><text fill="#808080" font-family="Verdana" font-size="12" lengthAdjust="spacing" textLength="48.4746" x="114.0996" y="74.1074">0.91 ms</text><polygon fill="#4362B1" points="383.1846,117.9063,393.1846,121.9063,383.1846,125.9063,387.1846,121.9063" style="stroke:#4362B1;stroke-width:1.0;"/><line style="stroke:#4362B1;stroke-width:3.0;" x1="189.5742" x2="389.1846" y1="121.9063" y2="121.9063"/><text fill="#FFFFFF" font-family="Verdana" font-size="12" lengthAdjust="spacing" textLength="94.4707" x="201.5742" y="112.0762">initialLogImport</text><text fill="#808080" font-family="Verdana" font-size="12" lengthAdjust="spacing" textLength="56.1094" x="303.6738" y="112.0762">0.818 ms</text><path d="M297.7969,136.9063 L377.9883,136.9063 L377.9883,152.875 L367.9883,162.875 L293.7969,162.875 L293.7969,140.9063 A4,4 0 0 1 297.7969,136.9063 " fill="#4362B1" style="stroke:#4362B1;stroke-width:1.5;"/><rect fill="none" height="314.75" rx="4" ry="4" style="stroke:#4362B1;stroke-width:1.5;" width="484.4551" x="293.7969" y="136.9063"/><text fill="#FFFFFF" font-family="Verdana" font-size="12" font-weight="bold" lengthAdjust="spacing" textLength="29.1914" x="313.7969" y="154.0449">loop</text><text fill="#4362B1" font-family="Verdana" font-size="12" font-weight="bold" lengthAdjust="spacing" textLength="55.6465" x="397.9883" y="155.0449">[2 times</text><text fill="#808080" font-family="Verdana" font-size="12" font-weight="bold" lengthAdjust="spacing" textLength="61.7813" x="461.9902" y="155.0449">0.329 ms</text><text fill="#4362B1" font-family="Verdana" font-size="12" font-weight="bold" lengthAdjust="spacing" textLength="5.4844" x="523.7715" y="155.0449">]</text><line style="stroke:#4362B1;stroke-width:3.0;" x1="405.1846" x2="452.1846" y1="196.8125" y2="196.8125"/><line style="stroke:#4362B1;stroke-width:3.0;" x1="452.1846" x2="452.1846" y1="196.8125" y2="209.8125"/><line style="stroke:#4362B1;stroke-width:3.0;" x1="411.1846" x2="452.1846" y1="209.8125" y2="209.8125"/><polygon fill="#4362B1" points="421.1846,205.8125,411.1846,209.8125,421.1846,213.8125,417.1846,209.8125" style="stroke:#4362B1;stroke-width:1.0;"/><text fill="#FFFFFF" font-family="Verdana" font-size="12" lengthAdjust="spacing" textLength="73.6699" x="422.1846" y="186.9824">readJsonLog</text><text fill="#808080" font-family="Verdana" font-size="12" lengthAdjust="spacing" textLength="56.1094" x="503.4834" y="186.9824">0.329 ms</text><line style="stroke:#4362B1;stroke-width:3.0;" x1="410.1846" x2="457.1846" y1="247.7813" y2="247.7813"/><line style="stroke:#4362B1;stroke-width:3.0;" x1="457.1846" x2="457.1846" y1="247.7813" y2="260.7813"/><line style="stroke:#4362B1;stroke-width:3.0;" x1="416.1846" x2="457.1846" y1="260.7813" y2="260.7813"/><polygon fill="#4362B1" points="426.1846,256.7813,416.1846,260.7813,426.1846,264.7813,422.1846,260.7813" style="stroke:#4362B1;stroke-width:1.0;"/><text fill="#FFFFFF" font-family="Verdana" font-size="12" lengthAdjust="spacing" textLength="80.1914" x="427.1846" y="237.9512">parseLogLine</text><text fill="#808080" font-family="Verdana" font-size="12" lengthAdjust="spacing" textLength="56.1094" x="515.0049" y="237.9512">0.142 ms</text><polygon fill="#4362B1" points="655.7842,299.75,665.7842,303.75,655.7842,307.75,659.7842,303.75" style="stroke:#4362B1;stroke-width:1.0;"/><line style="stroke:#4362B1;stroke-width:3.0;" x1="415.1846" x2="661.7842" y1="303.75" y2="303.75"/><text fill="#FFFFFF" font-family="Verdana" font-size="12" lengthAdjust="spacing" textLength="152.2266" x="427.1846" y="293.9199">enricherApplicationName</text><text fill="#808080" font-family="Verdana" font-size="12" lengthAdjust="spacing" textLength="63.7441" x="587.04" y="293.9199">0.0336 ms</text><polygon fill="#4362B1" points="426.1846,337.7188,416.1846,341.7188,426.1846,345.7188,422.1846,341.7188" style="stroke:#4362B1;stroke-width:1.0;"/><line style="stroke:#4362B1;stroke-width:3.0;stroke-dasharray:2.0,2.0;" x1="420.1846" x2="671.7842" y1="341.7188" y2="341.7188"/><text fill="#FFFFFF" font-family="Verdana" font-size="12" lengthAdjust="spacing" textLength="25.3945" x="437.1846" y="331.8887">void</text><line style="stroke:#4362B1;stroke-width:3.0;stroke-dasharray:2.0,2.0;" x1="353.1846" x2="404.1846" y1="384.6875" y2="384.6875"/><line style="stroke:#4362B1;stroke-width:3.0;stroke-dasharray:2.0,2.0;" x1="353.1846" x2="353.1846" y1="384.6875" y2="397.6875"/><line style="stroke:#4362B1;stroke-width:3.0;stroke-dasharray:2.0,2.0;" x1="353.1846" x2="393.1846" y1="397.6875" y2="397.6875"/><polygon fill="#4362B1" points="383.1846,393.6875,393.1846,397.6875,383.1846,401.6875,387.1846,397.6875" style="stroke:#4362B1;stroke-width:1.0;"/><text fill="#FFFFFF" font-family="Verdana" font-size="12" lengthAdjust="spacing" textLength="25.3945" x="357.1846" y="374.8574">void</text><line style="stroke:#4362B1;stroke-width:3.0;stroke-dasharray:2.0,2.0;" x1="353.1846" x2="399.1846" y1="435.6563" y2="435.6563"/><line style="stroke:#4362B1;stroke-width:3.0;stroke-dasharray:2.0,2.0;" x1="353.1846" x2="353.1846" y1="435.6563" y2="448.6563"/><line style="stroke:#4362B1;stroke-width:3.0;stroke-dasharray:2.0,2.0;" x1="353.1846" x2="393.1846" y1="448.6563" y2="448.6563"/><polygon fill="#4362B1" points="383.1846,444.6563,393.1846,448.6563,383.1846,452.6563,387.1846,448.6563" style="stroke:#4362B1;stroke-width:1.0;"/><text fill="#FFFFFF" font-family="Verdana" font-size="12" lengthAdjust="spacing" textLength="25.3945" x="357.1846" y="425.8262">void</text><polygon fill="#4362B1" points="200.5742,484.625,190.5742,488.625,200.5742,492.625,196.5742,488.625" style="stroke:#4362B1;stroke-width:1.0;"/><line style="stroke:#4362B1;stroke-width:3.0;stroke-dasharray:2.0,2.0;" x1="194.5742" x2="399.1846" y1="488.625" y2="488.625"/><text fill="#FFFFFF" font-family="Verdana" font-size="12" lengthAdjust="spacing" textLength="25.3945" x="211.5742" y="478.7949">void</text><polygon fill="#4362B1" points="383.1846,522.5938,393.1846,526.5938,383.1846,530.5938,387.1846,526.5938" style="stroke:#4362B1;stroke-width:1.0;"/><line style="stroke:#4362B1;stroke-width:3.0;" x1="189.5742" x2="389.1846" y1="526.5938" y2="526.5938"/><text fill="#FFFFFF" font-family="Verdana" font-size="12" lengthAdjust="spacing" textLength="30.9082" x="201.5742" y="516.7637">close</text><text fill="#808080" font-family="Verdana" font-size="12" lengthAdjust="spacing" textLength="63.7441" x="240.1113" y="516.7637">0.0287 ms</text><polygon fill="#4362B1" points="655.7842,560.5625,665.7842,564.5625,655.7842,568.5625,659.7842,564.5625" style="stroke:#4362B1;stroke-width:1.0;"/><line style="stroke:#4362B1;stroke-width:3.0;" x1="405.1846" x2="661.7842" y1="564.5625" y2="564.5625"/><text fill="#FFFFFF" font-family="Verdana" font-size="12" lengthAdjust="spacing" textLength="30.9082" x="417.1846" y="554.7324">close</text><text fill="#808080" font-family="Verdana" font-size="12" lengthAdjust="spacing" textLength="71.3789" x="455.7217" y="554.7324">0.00969 ms</text><polygon fill="#4362B1" points="416.1846,598.5313,406.1846,602.5313,416.1846,606.5313,412.1846,602.5313" style="stroke:#4362B1;stroke-width:1.0;"/><line style="stroke:#4362B1;stroke-width:3.0;stroke-dasharray:2.0,2.0;" x1="410.1846" x2="671.7842" y1="602.5313" y2="602.5313"/><text fill="#FFFFFF" font-family="Verdana" font-size="12" lengthAdjust="spacing" textLength="25.3945" x="427.1846" y="592.7012">void</text><polygon fill="#4362B1" points="200.5742,636.5,190.5742,640.5,200.5742,644.5,196.5742,640.5" style="stroke:#4362B1;stroke-width:1.0;"/><line style="stroke:#4362B1;stroke-width:3.0;stroke-dasharray:2.0,2.0;" x1="194.5742" x2="399.1846" y1="640.5" y2="640.5"/><text fill="#FFFFFF" font-family="Verdana" font-size="12" lengthAdjust="spacing" textLength="25.3945" x="211.5742" y="630.6699">void</text><polygon fill="#4362B1" points="11,674.4688,1,678.4688,11,682.4688,7,678.4688" style="stroke:#4362B1;stroke-width:1.0;"/><line style="stroke:#4362B1;stroke-width:3.0;stroke-dasharray:2.0,2.0;" x1="5" x2="183.5742" y1="678.4688" y2="678.4688"/><text fill="#FFFFFF" font-family="Verdana" font-size="12" lengthAdjust="spacing" textLength="25.3945" x="22" y="668.6387">void</text><!--SRC=[hPJBRi8m44NtVCMKVH885OK88NN1eXLgAxKxLgvZ4aj-rPvGzUyRGXSapWkfksGUvzxOCxdZYeeYPOKLa2CQbqIH9TzXnZ4lFWl7BDKAcSAGQXbb38anafZ82AAma2B0d4aMIS9LT4bT8g4fanD3B7BAJLaBRzfXPjdxbtXsMdqmXq0SJFtmjAUjfQLUlbEMqroMXb-Fnwgw5fbE00x1rXTDW2kEd8YzpfwaqHPXGxNGDiai-Td2B5pFGRfDL0Mt9OPGv2U2hEN3oYoqX9kwmvgh-QeksYbRvG3sMXk80RbahWbRnEicpFVfUxICfEUdqkH8Oh_5CPhbZJfM2kwvOatH-NtS9Zf6rXUk3KS2h7fbzj4OmIb1hjKBaPw5sMAnRFTmvQA6xZ6n2OA6YvFcQQqXPODKZzayqWRq2jbnNBSHXtWxbNPiHH-vdpfcmwZGph-_UFLmsruDp4sxocozRDcFtgkyOJHwX-B_ZldWDLv-bt_DdQtdgby0]--></g></svg>