<svg xmlns="http://www.w3.org/2000/svg" xmlns:xlink="http://www.w3.org/1999/xlink" contentStyleType="text/css" height="459px" preserveAspectRatio="none" style="width:748px;height:459px;background:#000000;" version="1.1" viewBox="0 0 748 459" width="748px" zoomAndPan="magnify"><defs/><g><rect fill="none" height="314.7188" style="stroke:#999999;stroke-width:1.0;" width="10" x="161.3457" y="83.9375"/><rect fill="none" height="238.7813" style="stroke:#999999;stroke-width:1.0;" width="10" x="376.9561" y="121.9063"/><rect fill="none" height="37.9688" style="stroke:#999999;stroke-width:1.0;" width="10" x="631.9209" y="201.8125"/><rect fill="none" height="37.9688" style="stroke:#999999;stroke-width:1.0;" width="10" x="631.9209" y="284.75"/><rect fill="none" height="110.875" rx="4" ry="4" style="stroke:#4362B1;stroke-width:1.5;" width="466.8203" x="275.5684" y="136.9063"/><line style="stroke:#999999;stroke-width:0.5;stroke-dasharray:5.0,5.0;" x1="166.123" x2="166.123" y1="43.9688" y2="416.6563"/><line style="stroke:#999999;stroke-width:0.5;stroke-dasharray:5.0,5.0;" x1="381.5684" x2="381.5684" y1="43.9688" y2="416.6563"/><line style="stroke:#999999;stroke-width:0.5;stroke-dasharray:5.0,5.0;" x1="636.4531" x2="636.4531" y1="43.9688" y2="416.6563"/><rect fill="#555555" height="37.9688" rx="4" ry="4" style="stroke:#555555;stroke-width:1.0;" width="138.4453" x="97.123" y="5"/><text fill="#FFFFFF" font-family="Verdana" font-size="12" lengthAdjust="spacing" textLength="114.4453" x="109.123" y="28.1387">PostgreSqlJsonTest</text><rect fill="#555555" height="37.9688" rx="4" ry="4" style="stroke:#555555;stroke-width:1.0;" width="138.4453" x="97.123" y="415.6563"/><text fill="#FFFFFF" font-family="Verdana" font-size="12" lengthAdjust="spacing" textLength="114.4453" x="109.123" y="438.7949">PostgreSqlJsonTest</text><rect fill="#555555" height="37.9688" rx="4" ry="4" style="stroke:#555555;stroke-width:1.0;" width="112.7754" x="325.5684" y="5"/><text fill="#FFFFFF" font-family="Verdana" font-size="12" lengthAdjust="spacing" textLength="88.7754" x="337.5684" y="28.1387">PostgreSqlJson</text><rect fill="#555555" height="37.9688" rx="4" ry="4" style="stroke:#555555;stroke-width:1.0;" width="112.7754" x="325.5684" y="415.6563"/><text fill="#FFFFFF" font-family="Verdana" font-size="12" lengthAdjust="spacing" textLength="88.7754" x="337.5684" y="438.7949">PostgreSqlJson</text><rect fill="#555555" height="37.9688" rx="4" ry="4" style="stroke:#555555;stroke-width:1.0;" width="110.9355" x="581.4531" y="5"/><text fill="#FFFFFF" font-family="Verdana" font-size="12" lengthAdjust="spacing" textLength="86.9355" x="593.4531" y="28.1387">EnrichmentOff</text><rect fill="#555555" height="37.9688" rx="4" ry="4" style="stroke:#555555;stroke-width:1.0;" width="110.9355" x="581.4531" y="415.6563"/><text fill="#FFFFFF" font-family="Verdana" font-size="12" lengthAdjust="spacing" textLength="86.9355" x="593.4531" y="438.7949">EnrichmentOff</text><rect fill="none" height="314.7188" style="stroke:#999999;stroke-width:1.0;" width="10" x="161.3457" y="83.9375"/><rect fill="none" height="238.7813" style="stroke:#999999;stroke-width:1.0;" width="10" x="376.9561" y="121.9063"/><rect fill="none" height="37.9688" style="stroke:#999999;stroke-width:1.0;" width="10" x="631.9209" y="201.8125"/><rect fill="none" height="37.9688" style="stroke:#999999;stroke-width:1.0;" width="10" x="631.9209" y="284.75"/><polygon fill="#4362B1" points="149.3457,79.9375,159.3457,83.9375,149.3457,87.9375,153.3457,83.9375" style="stroke:#4362B1;stroke-width:1.0;"/><line style="stroke:#4362B1;stroke-width:3.0;" x1="0" x2="155.3457" y1="83.9375" y2="83.9375"/><text fill="#FFFFFF" font-family="Verdana" font-size="12" lengthAdjust="spacing" textLength="68.6074" x="12" y="74.1074">logWarning</text><text fill="#808080" font-family="Verdana" font-size="12" lengthAdjust="spacing" textLength="56.1094" x="88.2363" y="74.1074">0.177 ms</text><polygon fill="#4362B1" points="364.9561,117.9063,374.9561,121.9063,364.9561,125.9063,368.9561,121.9063" style="stroke:#4362B1;stroke-width:1.0;"/><line style="stroke:#4362B1;stroke-width:3.0;" x1="171.3457" x2="370.9561" y1="121.9063" y2="121.9063"/><text fill="#FFFFFF" font-family="Verdana" font-size="12" lengthAdjust="spacing" textLength="80.1914" x="183.3457" y="112.0762">parseLogLine</text><text fill="#808080" font-family="Verdana" font-size="12" lengthAdjust="spacing" textLength="56.1094" x="271.166" y="112.0762">0.151 ms</text><path d="M279.5684,136.9063 L359.7598,136.9063 L359.7598,152.875 L349.7598,162.875 L275.5684,162.875 L275.5684,140.9063 A4,4 0 0 1 279.5684,136.9063 " fill="#4362B1" style="stroke:#4362B1;stroke-width:1.5;"/><rect fill="none" height="110.875" rx="4" ry="4" style="stroke:#4362B1;stroke-width:1.5;" width="466.8203" x="275.5684" y="136.9063"/><text fill="#FFFFFF" font-family="Verdana" font-size="12" font-weight="bold" lengthAdjust="spacing" textLength="29.1914" x="295.5684" y="154.0449">loop</text><text fill="#4362B1" font-family="Verdana" font-size="12" font-weight="bold" lengthAdjust="spacing" textLength="55.6465" x="379.7598" y="155.0449">[2 times</text><text fill="#808080" font-family="Verdana" font-size="12" font-weight="bold" lengthAdjust="spacing" textLength="61.7813" x="443.7617" y="155.0449">0.032 ms</text><text fill="#4362B1" font-family="Verdana" font-size="12" font-weight="bold" lengthAdjust="spacing" textLength="5.4844" x="505.543" y="155.0449">]</text><polygon fill="#4362B1" points="619.9209,197.8125,629.9209,201.8125,619.9209,205.8125,623.9209,201.8125" style="stroke:#4362B1;stroke-width:1.0;"/><line style="stroke:#4362B1;stroke-width:3.0;" x1="386.9561" x2="625.9209" y1="201.8125" y2="201.8125"/><text fill="#FFFFFF" font-family="Verdana" font-size="12" lengthAdjust="spacing" textLength="152.2266" x="398.9561" y="191.9824">enricherApplicationName</text><text fill="#808080" font-family="Verdana" font-size="12" lengthAdjust="spacing" textLength="56.1094" x="558.8115" y="191.9824">0.032 ms</text><polygon fill="#4362B1" points="397.9561,235.7813,387.9561,239.7813,397.9561,243.7813,393.9561,239.7813" style="stroke:#4362B1;stroke-width:1.0;"/><line style="stroke:#4362B1;stroke-width:3.0;stroke-dasharray:2.0,2.0;" x1="391.9561" x2="635.9209" y1="239.7813" y2="239.7813"/><text fill="#FFFFFF" font-family="Verdana" font-size="12" lengthAdjust="spacing" textLength="25.3945" x="408.9561" y="229.9512">void</text><polygon fill="#4362B1" points="619.9209,280.75,629.9209,284.75,619.9209,288.75,623.9209,284.75" style="stroke:#4362B1;stroke-width:1.0;"/><line style="stroke:#4362B1;stroke-width:3.0;" x1="386.9561" x2="625.9209" y1="284.75" y2="284.75"/><text fill="#FFFFFF" font-family="Verdana" font-size="12" lengthAdjust="spacing" textLength="82.8516" x="398.9561" y="274.9199">getStatement</text><text fill="#808080" font-family="Verdana" font-size="12" lengthAdjust="spacing" textLength="63.7441" x="489.4365" y="274.9199">0.0071 ms</text><polygon fill="#4362B1" points="397.9561,318.7188,387.9561,322.7188,397.9561,326.7188,393.9561,322.7188" style="stroke:#4362B1;stroke-width:1.0;"/><line style="stroke:#4362B1;stroke-width:3.0;stroke-dasharray:2.0,2.0;" x1="391.9561" x2="635.9209" y1="322.7188" y2="322.7188"/><text fill="#FFFFFF" font-family="Verdana" font-size="12" lengthAdjust="spacing" textLength="25.3945" x="408.9561" y="312.8887">void</text><polygon fill="#4362B1" points="182.3457,356.6875,172.3457,360.6875,182.3457,364.6875,178.3457,360.6875" style="stroke:#4362B1;stroke-width:1.0;"/><line style="stroke:#4362B1;stroke-width:3.0;stroke-dasharray:2.0,2.0;" x1="176.3457" x2="380.9561" y1="360.6875" y2="360.6875"/><text fill="#FFFFFF" font-family="Verdana" font-size="12" lengthAdjust="spacing" textLength="25.3945" x="193.3457" y="350.8574">void</text><polygon fill="#4362B1" points="11,394.6563,1,398.6563,11,402.6563,7,398.6563" style="stroke:#4362B1;stroke-width:1.0;"/><line style="stroke:#4362B1;stroke-width:3.0;stroke-dasharray:2.0,2.0;" x1="5" x2="165.3457" y1="398.6563" y2="398.6563"/><text fill="#FFFFFF" font-family="Verdana" font-size="12" lengthAdjust="spacing" textLength="25.3945" x="22" y="388.8262">void</text><!--SRC=[bLBBJiCm4BptAvRU4xT5g59KHUBG2we0gKWSUZBkDh7a5_QcYB_7JQ4YSPl2qREpCplMt4WZLBF5nYkeYLme6FFy8wyarSrR4z0BQmWDvS9gLY5nvpHtp2bkgD4generCisbOSVH4SbT78uSzoI5T94BppPGvN7zhXw2DIyO27Y0SGgF1zREh7JfI-Ebg7Ky-6ctQzaTP3m2s6HbQbg0ijKhzqQQ2XR2AkkBolFF4YRvT3u77HQiHSkem0N9FISyaobEuGpSjomW7XrmPQkLD9WOtasxXXSjsnd0obe7Co2fCVJ59hUplbXwOrPslga0R9_exvrJKd2IrZnoZNyKFrtRKRtWlSYodldUoks9lCL1jQNveLv95BkxfgXo098Oa_aqpJ7e-uyCWmdIhaIjVbbEOh-aaY9iaiLZiR-NBwuUM5y0]--></g></svg>