<svg xmlns="http://www.w3.org/2000/svg" xmlns:xlink="http://www.w3.org/1999/xlink" contentStyleType="text/css" height="815px" preserveAspectRatio="none" style="width:793px;height:815px;background:#000000;" version="1.1" viewBox="0 0 793 815" width="793px" zoomAndPan="magnify"><defs/><g><rect fill="none" height="670.4688" style="stroke:#999999;stroke-width:1.0;" width="10" x="184.7539" y="83.9375"/><rect fill="none" height="366.7188" style="stroke:#999999;stroke-width:1.0;" width="10" x="403.9473" y="121.9063"/><rect fill="none" height="226.8438" style="stroke:#999999;stroke-width:1.0;" width="10" x="408.9473" y="209.8125"/><rect fill="none" height="124.9063" style="stroke:#999999;stroke-width:1.0;" width="10" x="413.9473" y="260.7813"/><rect fill="none" height="37.9688" style="stroke:#999999;stroke-width:1.0;" width="10" x="403.9473" y="526.5938"/><rect fill="none" height="113.9063" style="stroke:#999999;stroke-width:1.0;" width="10" x="403.9473" y="602.5313"/><rect fill="none" height="37.9688" style="stroke:#999999;stroke-width:1.0;" width="10" x="676.5469" y="303.75"/><rect fill="none" height="37.9688" style="stroke:#999999;stroke-width:1.0;" width="10" x="676.5469" y="640.5"/><rect fill="none" height="314.75" rx="4" ry="4" style="stroke:#4362B1;stroke-width:1.5;" width="484.4551" x="302.5596" y="136.9063"/><line style="stroke:#999999;stroke-width:0.5;stroke-dasharray:5.0,5.0;" x1="189.5313" x2="189.5313" y1="43.9688" y2="772.4063"/><line style="stroke:#999999;stroke-width:0.5;stroke-dasharray:5.0,5.0;" x1="408.5596" x2="408.5596" y1="43.9688" y2="772.4063"/><line style="stroke:#999999;stroke-width:0.5;stroke-dasharray:5.0,5.0;" x1="681.0791" x2="681.0791" y1="43.9688" y2="772.4063"/><rect fill="#555555" height="37.9688" rx="4" ry="4" style="stroke:#555555;stroke-width:1.0;" width="138.4453" x="120.5313" y="5"/><text fill="#FFFFFF" font-family="Verdana" font-size="12" lengthAdjust="spacing" textLength="114.4453" x="132.5313" y="28.1387">PostgreSqlJsonTest</text><rect fill="#555555" height="37.9688" rx="4" ry="4" style="stroke:#555555;stroke-width:1.0;" width="138.4453" x="120.5313" y="771.4063"/><text fill="#FFFFFF" font-family="Verdana" font-size="12" lengthAdjust="spacing" textLength="114.4453" x="132.5313" y="794.5449">PostgreSqlJsonTest</text><rect fill="#555555" height="37.9688" rx="4" ry="4" style="stroke:#555555;stroke-width:1.0;" width="112.7754" x="352.5596" y="5"/><text fill="#FFFFFF" font-family="Verdana" font-size="12" lengthAdjust="spacing" textLength="88.7754" x="364.5596" y="28.1387">PostgreSqlJson</text><rect fill="#555555" height="37.9688" rx="4" ry="4" style="stroke:#555555;stroke-width:1.0;" width="112.7754" x="352.5596" y="771.4063"/><text fill="#FFFFFF" font-family="Verdana" font-size="12" lengthAdjust="spacing" textLength="88.7754" x="364.5596" y="794.5449">PostgreSqlJson</text><rect fill="#555555" height="37.9688" rx="4" ry="4" style="stroke:#555555;stroke-width:1.0;" width="110.9355" x="626.0791" y="5"/><text fill="#FFFFFF" font-family="Verdana" font-size="12" lengthAdjust="spacing" textLength="86.9355" x="638.0791" y="28.1387">EnrichmentOff</text><rect fill="#555555" height="37.9688" rx="4" ry="4" style="stroke:#555555;stroke-width:1.0;" width="110.9355" x="626.0791" y="771.4063"/><text fill="#FFFFFF" font-family="Verdana" font-size="12" lengthAdjust="spacing" textLength="86.9355" x="638.0791" y="794.5449">EnrichmentOff</text><rect fill="none" height="670.4688" style="stroke:#999999;stroke-width:1.0;" width="10" x="184.7539" y="83.9375"/><rect fill="none" height="366.7188" style="stroke:#999999;stroke-width:1.0;" width="10" x="403.9473" y="121.9063"/><rect fill="none" height="226.8438" style="stroke:#999999;stroke-width:1.0;" width="10" x="408.9473" y="209.8125"/><rect fill="none" height="124.9063" style="stroke:#999999;stroke-width:1.0;" width="10" x="413.9473" y="260.7813"/><rect fill="none" height="37.9688" style="stroke:#999999;stroke-width:1.0;" width="10" x="403.9473" y="526.5938"/><rect fill="none" height="113.9063" style="stroke:#999999;stroke-width:1.0;" width="10" x="403.9473" y="602.5313"/><rect fill="none" height="37.9688" style="stroke:#999999;stroke-width:1.0;" width="10" x="676.5469" y="303.75"/><rect fill="none" height="37.9688" style="stroke:#999999;stroke-width:1.0;" width="10" x="676.5469" y="640.5"/><polygon fill="#4362B1" points="172.7539,79.9375,182.7539,83.9375,172.7539,87.9375,176.7539,83.9375" style="stroke:#4362B1;stroke-width:1.0;"/><line style="stroke:#4362B1;stroke-width:3.0;" x1="0" x2="178.7539" y1="83.9375" y2="83.9375"/><text fill="#FFFFFF" font-family="Verdana" font-size="12" lengthAdjust="spacing" textLength="99.6504" x="12" y="74.1074">testSavePosition</text><text fill="#808080" font-family="Verdana" font-size="12" lengthAdjust="spacing" textLength="48.4746" x="119.2793" y="74.1074">5.53 ms</text><polygon fill="#4362B1" points="391.9473,117.9063,401.9473,121.9063,391.9473,125.9063,395.9473,121.9063" style="stroke:#4362B1;stroke-width:1.0;"/><line style="stroke:#4362B1;stroke-width:3.0;" x1="194.7539" x2="397.9473" y1="121.9063" y2="121.9063"/><text fill="#FFFFFF" font-family="Verdana" font-size="12" lengthAdjust="spacing" textLength="94.4707" x="206.7539" y="112.0762">initialLogImport</text><text fill="#808080" font-family="Verdana" font-size="12" lengthAdjust="spacing" textLength="56.1094" x="308.8535" y="112.0762">0.564 ms</text><path d="M306.5596,136.9063 L386.751,136.9063 L386.751,152.875 L376.751,162.875 L302.5596,162.875 L302.5596,140.9063 A4,4 0 0 1 306.5596,136.9063 " fill="#4362B1" style="stroke:#4362B1;stroke-width:1.5;"/><rect fill="none" height="314.75" rx="4" ry="4" style="stroke:#4362B1;stroke-width:1.5;" width="484.4551" x="302.5596" y="136.9063"/><text fill="#FFFFFF" font-family="Verdana" font-size="12" font-weight="bold" lengthAdjust="spacing" textLength="29.1914" x="322.5596" y="154.0449">loop</text><text fill="#4362B1" font-family="Verdana" font-size="12" font-weight="bold" lengthAdjust="spacing" textLength="55.6465" x="406.751" y="155.0449">[3 times</text><text fill="#808080" font-family="Verdana" font-size="12" font-weight="bold" lengthAdjust="spacing" textLength="53.4316" x="470.7529" y="155.0449">0.51 ms</text><text fill="#4362B1" font-family="Verdana" font-size="12" font-weight="bold" lengthAdjust="spacing" textLength="5.4844" x="524.1846" y="155.0449">]</text><line style="stroke:#4362B1;stroke-width:3.0;" x1="413.9473" x2="460.9473" y1="196.8125" y2="196.8125"/><line style="stroke:#4362B1;stroke-width:3.0;" x1="460.9473" x2="460.9473" y1="196.8125" y2="209.8125"/><line style="stroke:#4362B1;stroke-width:3.0;" x1="419.9473" x2="460.9473" y1="209.8125" y2="209.8125"/><polygon fill="#4362B1" points="429.9473,205.8125,419.9473,209.8125,429.9473,213.8125,425.9473,209.8125" style="stroke:#4362B1;stroke-width:1.0;"/><text fill="#FFFFFF" font-family="Verdana" font-size="12" lengthAdjust="spacing" textLength="73.6699" x="430.9473" y="186.9824">readJsonLog</text><text fill="#808080" font-family="Verdana" font-size="12" lengthAdjust="spacing" textLength="48.4746" x="512.2461" y="186.9824">0.51 ms</text><line style="stroke:#4362B1;stroke-width:3.0;" x1="418.9473" x2="465.9473" y1="247.7813" y2="247.7813"/><line style="stroke:#4362B1;stroke-width:3.0;" x1="465.9473" x2="465.9473" y1="247.7813" y2="260.7813"/><line style="stroke:#4362B1;stroke-width:3.0;" x1="424.9473" x2="465.9473" y1="260.7813" y2="260.7813"/><polygon fill="#4362B1" points="434.9473,256.7813,424.9473,260.7813,434.9473,264.7813,430.9473,260.7813" style="stroke:#4362B1;stroke-width:1.0;"/><text fill="#FFFFFF" font-family="Verdana" font-size="12" lengthAdjust="spacing" textLength="80.1914" x="435.9473" y="237.9512">parseLogLine</text><text fill="#808080" font-family="Verdana" font-size="12" lengthAdjust="spacing" textLength="56.1094" x="523.7676" y="237.9512">0.338 ms</text><polygon fill="#4362B1" points="664.5469,299.75,674.5469,303.75,664.5469,307.75,668.5469,303.75" style="stroke:#4362B1;stroke-width:1.0;"/><line style="stroke:#4362B1;stroke-width:3.0;" x1="423.9473" x2="670.5469" y1="303.75" y2="303.75"/><text fill="#FFFFFF" font-family="Verdana" font-size="12" lengthAdjust="spacing" textLength="152.2266" x="435.9473" y="293.9199">enricherApplicationName</text><text fill="#808080" font-family="Verdana" font-size="12" lengthAdjust="spacing" textLength="63.7441" x="595.8027" y="293.9199">0.0731 ms</text><polygon fill="#4362B1" points="434.9473,337.7188,424.9473,341.7188,434.9473,345.7188,430.9473,341.7188" style="stroke:#4362B1;stroke-width:1.0;"/><line style="stroke:#4362B1;stroke-width:3.0;stroke-dasharray:2.0,2.0;" x1="428.9473" x2="680.5469" y1="341.7188" y2="341.7188"/><text fill="#FFFFFF" font-family="Verdana" font-size="12" lengthAdjust="spacing" textLength="25.3945" x="445.9473" y="331.8887">void</text><line style="stroke:#4362B1;stroke-width:3.0;stroke-dasharray:2.0,2.0;" x1="361.9473" x2="412.9473" y1="384.6875" y2="384.6875"/><line style="stroke:#4362B1;stroke-width:3.0;stroke-dasharray:2.0,2.0;" x1="361.9473" x2="361.9473" y1="384.6875" y2="397.6875"/><line style="stroke:#4362B1;stroke-width:3.0;stroke-dasharray:2.0,2.0;" x1="361.9473" x2="401.9473" y1="397.6875" y2="397.6875"/><polygon fill="#4362B1" points="391.9473,393.6875,401.9473,397.6875,391.9473,401.6875,395.9473,397.6875" style="stroke:#4362B1;stroke-width:1.0;"/><text fill="#FFFFFF" font-family="Verdana" font-size="12" lengthAdjust="spacing" textLength="25.3945" x="365.9473" y="374.8574">void</text><line style="stroke:#4362B1;stroke-width:3.0;stroke-dasharray:2.0,2.0;" x1="361.9473" x2="407.9473" y1="435.6563" y2="435.6563"/><line style="stroke:#4362B1;stroke-width:3.0;stroke-dasharray:2.0,2.0;" x1="361.9473" x2="361.9473" y1="435.6563" y2="448.6563"/><line style="stroke:#4362B1;stroke-width:3.0;stroke-dasharray:2.0,2.0;" x1="361.9473" x2="401.9473" y1="448.6563" y2="448.6563"/><polygon fill="#4362B1" points="391.9473,444.6563,401.9473,448.6563,391.9473,452.6563,395.9473,448.6563" style="stroke:#4362B1;stroke-width:1.0;"/><text fill="#FFFFFF" font-family="Verdana" font-size="12" lengthAdjust="spacing" textLength="25.3945" x="365.9473" y="425.8262">void</text><polygon fill="#4362B1" points="205.7539,484.625,195.7539,488.625,205.7539,492.625,201.7539,488.625" style="stroke:#4362B1;stroke-width:1.0;"/><line style="stroke:#4362B1;stroke-width:3.0;stroke-dasharray:2.0,2.0;" x1="199.7539" x2="407.9473" y1="488.625" y2="488.625"/><text fill="#FFFFFF" font-family="Verdana" font-size="12" lengthAdjust="spacing" textLength="25.3945" x="216.7539" y="478.7949">void</text><polygon fill="#4362B1" points="391.9473,522.5938,401.9473,526.5938,391.9473,530.5938,395.9473,526.5938" style="stroke:#4362B1;stroke-width:1.0;"/><line style="stroke:#4362B1;stroke-width:3.0;" x1="194.7539" x2="397.9473" y1="526.5938" y2="526.5938"/><text fill="#FFFFFF" font-family="Verdana" font-size="12" lengthAdjust="spacing" textLength="124.0898" x="206.7539" y="516.7637">saveLogFilesPosition</text><text fill="#808080" font-family="Verdana" font-size="12" lengthAdjust="spacing" textLength="48.4746" x="338.4727" y="516.7637">2.01 ms</text><polygon fill="#4362B1" points="205.7539,560.5625,195.7539,564.5625,205.7539,568.5625,201.7539,564.5625" style="stroke:#4362B1;stroke-width:1.0;"/><line style="stroke:#4362B1;stroke-width:3.0;stroke-dasharray:2.0,2.0;" x1="199.7539" x2="407.9473" y1="564.5625" y2="564.5625"/><text fill="#FFFFFF" font-family="Verdana" font-size="12" lengthAdjust="spacing" textLength="25.3945" x="216.7539" y="554.7324">void</text><polygon fill="#4362B1" points="391.9473,598.5313,401.9473,602.5313,391.9473,606.5313,395.9473,602.5313" style="stroke:#4362B1;stroke-width:1.0;"/><line style="stroke:#4362B1;stroke-width:3.0;" x1="194.7539" x2="397.9473" y1="602.5313" y2="602.5313"/><text fill="#FFFFFF" font-family="Verdana" font-size="12" lengthAdjust="spacing" textLength="30.9082" x="206.7539" y="592.7012">close</text><text fill="#808080" font-family="Verdana" font-size="12" lengthAdjust="spacing" textLength="63.7441" x="245.291" y="592.7012">0.0335 ms</text><polygon fill="#4362B1" points="664.5469,636.5,674.5469,640.5,664.5469,644.5,668.5469,640.5" style="stroke:#4362B1;stroke-width:1.0;"/><line style="stroke:#4362B1;stroke-width:3.0;" x1="413.9473" x2="670.5469" y1="640.5" y2="640.5"/><text fill="#FFFFFF" font-family="Verdana" font-size="12" lengthAdjust="spacing" textLength="30.9082" x="425.9473" y="630.6699">close</text><text fill="#808080" font-family="Verdana" font-size="12" lengthAdjust="spacing" textLength="63.7441" x="464.4844" y="630.6699">0.0117 ms</text><polygon fill="#4362B1" points="424.9473,674.4688,414.9473,678.4688,424.9473,682.4688,420.9473,678.4688" style="stroke:#4362B1;stroke-width:1.0;"/><line style="stroke:#4362B1;stroke-width:3.0;stroke-dasharray:2.0,2.0;" x1="418.9473" x2="680.5469" y1="678.4688" y2="678.4688"/><text fill="#FFFFFF" font-family="Verdana" font-size="12" lengthAdjust="spacing" textLength="25.3945" x="435.9473" y="668.6387">void</text><polygon fill="#4362B1" points="205.7539,712.4375,195.7539,716.4375,205.7539,720.4375,201.7539,716.4375" style="stroke:#4362B1;stroke-width:1.0;"/><line style="stroke:#4362B1;stroke-width:3.0;stroke-dasharray:2.0,2.0;" x1="199.7539" x2="407.9473" y1="716.4375" y2="716.4375"/><text fill="#FFFFFF" font-family="Verdana" font-size="12" lengthAdjust="spacing" textLength="25.3945" x="216.7539" y="706.6074">void</text><polygon fill="#4362B1" points="11,750.4063,1,754.4063,11,758.4063,7,754.4063" style="stroke:#4362B1;stroke-width:1.0;"/><line style="stroke:#4362B1;stroke-width:3.0;stroke-dasharray:2.0,2.0;" x1="5" x2="188.7539" y1="754.4063" y2="754.4063"/><text fill="#FFFFFF" font-family="Verdana" font-size="12" lengthAdjust="spacing" textLength="25.3945" x="22" y="744.5762">void</text><!--SRC=[lLJBJiCm4BptAqplIHf2AOggIXoA1Ae0gTmu6MURMl8BUrF4t-Es79euILC9SOcIVSoCDxE-ueg9ge3A2h95D2vF4ak_ufBZjlge75Yc5OB2c6cPb83K64bDOWHLM4aHuHOa999obHnJnqXiV79ag4NEkF6rv5KxB2siFyMJq-eD71Bgo3WCZtlQMbhgvKjbETjAB_XbipbKroBZ4I7lqI8apGdwvvhkmESuSayrPrfecvUMVY_8D9vcHBfvSWWkF0nbo7SKeULWFajQmatUd73bgQXOwV9H6csnpZc9fxStTT9EsaEEa9NMXcG4kGGNWALDh51cAD42BVPlNkCmm7w1GoZz_tJW-LPSGPCpo-xQI8VGXiGrQ-G43fzWxuqHdD6z2Pwf32HCPbdQhk54HGswHyGyYXegTfeNjOO2pg86cCsHDa1F83l6THdYERobAZfseW-v7tN8VZc_pzv83ro0Qz_hwtYINh9Y_tq29hGB7PXbqylkXJFERsT9qrdeyrulNk3jNbV_tPJVWyRZRV_RtDcwh_e1]--></g></svg>