<svg xmlns="http://www.w3.org/2000/svg" xmlns:xlink="http://www.w3.org/1999/xlink" contentStyleType="text/css" height="562px" preserveAspectRatio="none" style="width:889px;height:562px;background:#000000;" version="1.1" viewBox="0 0 889 562" width="889px" zoomAndPan="magnify"><defs/><g><rect fill="none" height="265.7813" style="stroke:#999999;stroke-width:1.0;" width="10" x="183.9102" y="83.9375"/><rect fill="none" height="37.9688" style="stroke:#999999;stroke-width:1.0;" width="10" x="403.1328" y="121.9063"/><rect fill="none" height="113.9063" style="stroke:#999999;stroke-width:1.0;" width="10" x="403.1328" y="197.8438"/><rect fill="none" height="37.9688" style="stroke:#999999;stroke-width:1.0;" width="10" x="403.1328" y="425.6563"/><rect fill="none" height="37.9688" style="stroke:#999999;stroke-width:1.0;" width="10" x="604.9883" y="235.8125"/><rect fill="none" height="113.9063" style="stroke:#999999;stroke-width:1.0;" width="10" x="814.4785" y="387.6875"/><line style="stroke:#999999;stroke-width:0.5;stroke-dasharray:5.0,5.0;" x1="188.0752" x2="188.0752" y1="43.9688" y2="519.5938"/><line style="stroke:#999999;stroke-width:0.5;stroke-dasharray:5.0,5.0;" x1="407.7451" x2="407.7451" y1="43.9688" y2="519.5938"/><line style="stroke:#999999;stroke-width:0.5;stroke-dasharray:5.0,5.0;" x1="609.5205" x2="609.5205" y1="43.9688" y2="519.5938"/><line style="stroke:#999999;stroke-width:0.5;stroke-dasharray:5.0,5.0;" x1="819.4561" x2="819.4561" y1="43.9688" y2="519.5938"/><rect fill="#555555" height="37.9688" rx="4" ry="4" style="stroke:#555555;stroke-width:1.0;" width="145.6699" x="116.0752" y="5"/><text fill="#FFFFFF" font-family="Verdana" font-size="12" lengthAdjust="spacing" textLength="121.6699" x="128.0752" y="28.1387">LogFilesPositionTest</text><rect fill="#555555" height="37.9688" rx="4" ry="4" style="stroke:#555555;stroke-width:1.0;" width="145.6699" x="116.0752" y="518.5938"/><text fill="#FFFFFF" font-family="Verdana" font-size="12" lengthAdjust="spacing" textLength="121.6699" x="128.0752" y="541.7324">LogFilesPositionTest</text><rect fill="#555555" height="37.9688" rx="4" ry="4" style="stroke:#555555;stroke-width:1.0;" width="112.7754" x="351.7451" y="5"/><text fill="#FFFFFF" font-family="Verdana" font-size="12" lengthAdjust="spacing" textLength="88.7754" x="363.7451" y="28.1387">PostgreSqlJson</text><rect fill="#555555" height="37.9688" rx="4" ry="4" style="stroke:#555555;stroke-width:1.0;" width="112.7754" x="351.7451" y="518.5938"/><text fill="#FFFFFF" font-family="Verdana" font-size="12" lengthAdjust="spacing" textLength="88.7754" x="363.7451" y="541.7324">PostgreSqlJson</text><rect fill="#555555" height="37.9688" rx="4" ry="4" style="stroke:#555555;stroke-width:1.0;" width="110.9355" x="554.5205" y="5"/><text fill="#FFFFFF" font-family="Verdana" font-size="12" lengthAdjust="spacing" textLength="86.9355" x="566.5205" y="28.1387">EnrichmentOff</text><rect fill="#555555" height="37.9688" rx="4" ry="4" style="stroke:#555555;stroke-width:1.0;" width="110.9355" x="554.5205" y="518.5938"/><text fill="#FFFFFF" font-family="Verdana" font-size="12" lengthAdjust="spacing" textLength="86.9355" x="566.5205" y="541.7324">EnrichmentOff</text><rect fill="#555555" height="37.9688" rx="4" ry="4" style="stroke:#555555;stroke-width:1.0;" width="128.0449" x="755.4561" y="5"/><text fill="#FFFFFF" font-family="Verdana" font-size="12" lengthAdjust="spacing" textLength="104.0449" x="767.4561" y="28.1387">PostgreSqlJson$2</text><rect fill="#555555" height="37.9688" rx="4" ry="4" style="stroke:#555555;stroke-width:1.0;" width="128.0449" x="755.4561" y="518.5938"/><text fill="#FFFFFF" font-family="Verdana" font-size="12" lengthAdjust="spacing" textLength="104.0449" x="767.4561" y="541.7324">PostgreSqlJson$2</text><rect fill="none" height="265.7813" style="stroke:#999999;stroke-width:1.0;" width="10" x="183.9102" y="83.9375"/><rect fill="none" height="37.9688" style="stroke:#999999;stroke-width:1.0;" width="10" x="403.1328" y="121.9063"/><rect fill="none" height="113.9063" style="stroke:#999999;stroke-width:1.0;" width="10" x="403.1328" y="197.8438"/><rect fill="none" height="37.9688" style="stroke:#999999;stroke-width:1.0;" width="10" x="403.1328" y="425.6563"/><rect fill="none" height="37.9688" style="stroke:#999999;stroke-width:1.0;" width="10" x="604.9883" y="235.8125"/><rect fill="none" height="113.9063" style="stroke:#999999;stroke-width:1.0;" width="10" x="814.4785" y="387.6875"/><polygon fill="#4362B1" points="171.9102,79.9375,181.9102,83.9375,171.9102,87.9375,175.9102,83.9375" style="stroke:#4362B1;stroke-width:1.0;"/><line style="stroke:#4362B1;stroke-width:3.0;" x1="0" x2="177.9102" y1="83.9375" y2="83.9375"/><text fill="#FFFFFF" font-family="Verdana" font-size="12" lengthAdjust="spacing" textLength="102.6211" x="12" y="74.1074">positionFileTasks</text><text fill="#808080" font-family="Verdana" font-size="12" lengthAdjust="spacing" textLength="44.6602" x="122.25" y="74.1074">111 ms</text><polygon fill="#4362B1" points="391.1328,117.9063,401.1328,121.9063,391.1328,125.9063,395.1328,121.9063" style="stroke:#4362B1;stroke-width:1.0;"/><line style="stroke:#4362B1;stroke-width:3.0;" x1="193.9102" x2="397.1328" y1="121.9063" y2="121.9063"/><text fill="#FFFFFF" font-family="Verdana" font-size="12" lengthAdjust="spacing" textLength="102.6211" x="205.9102" y="112.0762">positionFileTasks</text><text fill="#808080" font-family="Verdana" font-size="12" lengthAdjust="spacing" textLength="48.4746" x="316.1602" y="112.0762">0.51 ms</text><polygon fill="#4362B1" points="204.9102,155.875,194.9102,159.875,204.9102,163.875,200.9102,159.875" style="stroke:#4362B1;stroke-width:1.0;"/><line style="stroke:#4362B1;stroke-width:3.0;stroke-dasharray:2.0,2.0;" x1="198.9102" x2="407.1328" y1="159.875" y2="159.875"/><text fill="#FFFFFF" font-family="Verdana" font-size="12" lengthAdjust="spacing" textLength="100.9043" x="215.9102" y="150.0449">java.lang.Thread</text><polygon fill="#4362B1" points="391.1328,193.8438,401.1328,197.8438,391.1328,201.8438,395.1328,197.8438" style="stroke:#4362B1;stroke-width:1.0;"/><line style="stroke:#4362B1;stroke-width:3.0;" x1="193.9102" x2="397.1328" y1="197.8438" y2="197.8438"/><text fill="#FFFFFF" font-family="Verdana" font-size="12" lengthAdjust="spacing" textLength="30.9082" x="205.9102" y="188.0137">close</text><text fill="#808080" font-family="Verdana" font-size="12" lengthAdjust="spacing" textLength="63.7441" x="244.4473" y="188.0137">0.0732 ms</text><polygon fill="#4362B1" points="592.9883,231.8125,602.9883,235.8125,592.9883,239.8125,596.9883,235.8125" style="stroke:#4362B1;stroke-width:1.0;"/><line style="stroke:#4362B1;stroke-width:3.0;" x1="413.1328" x2="598.9883" y1="235.8125" y2="235.8125"/><text fill="#FFFFFF" font-family="Verdana" font-size="12" lengthAdjust="spacing" textLength="30.9082" x="425.1328" y="225.9824">close</text><text fill="#808080" font-family="Verdana" font-size="12" lengthAdjust="spacing" textLength="63.7441" x="463.6699" y="225.9824">0.0169 ms</text><polygon fill="#4362B1" points="424.1328,269.7813,414.1328,273.7813,424.1328,277.7813,420.1328,273.7813" style="stroke:#4362B1;stroke-width:1.0;"/><line style="stroke:#4362B1;stroke-width:3.0;stroke-dasharray:2.0,2.0;" x1="418.1328" x2="608.9883" y1="273.7813" y2="273.7813"/><text fill="#FFFFFF" font-family="Verdana" font-size="12" lengthAdjust="spacing" textLength="25.3945" x="435.1328" y="263.9512">void</text><polygon fill="#4362B1" points="204.9102,307.75,194.9102,311.75,204.9102,315.75,200.9102,311.75" style="stroke:#4362B1;stroke-width:1.0;"/><line style="stroke:#4362B1;stroke-width:3.0;stroke-dasharray:2.0,2.0;" x1="198.9102" x2="407.1328" y1="311.75" y2="311.75"/><text fill="#FFFFFF" font-family="Verdana" font-size="12" lengthAdjust="spacing" textLength="25.3945" x="215.9102" y="301.9199">void</text><polygon fill="#4362B1" points="11,345.7188,1,349.7188,11,353.7188,7,349.7188" style="stroke:#4362B1;stroke-width:1.0;"/><line style="stroke:#4362B1;stroke-width:3.0;stroke-dasharray:2.0,2.0;" x1="5" x2="187.9102" y1="349.7188" y2="349.7188"/><text fill="#FFFFFF" font-family="Verdana" font-size="12" lengthAdjust="spacing" textLength="25.3945" x="22" y="339.8887">void</text><polygon fill="#4362B1" points="802.4785,383.6875,812.4785,387.6875,802.4785,391.6875,806.4785,387.6875" style="stroke:#4362B1;stroke-width:1.0;"/><line style="stroke:#4362B1;stroke-width:3.0;" x1="0" x2="808.4785" y1="387.6875" y2="387.6875"/><text fill="#FFFFFF" font-family="Verdana" font-size="12" lengthAdjust="spacing" textLength="20.1445" x="12" y="377.8574">run</text><text fill="#808080" font-family="Verdana" font-size="12" lengthAdjust="spacing" textLength="56.1094" x="39.7734" y="377.8574">0.369 ms</text><polygon fill="#4362B1" points="424.1328,421.6563,414.1328,425.6563,424.1328,429.6563,420.1328,425.6563" style="stroke:#4362B1;stroke-width:1.0;"/><line style="stroke:#4362B1;stroke-width:3.0;" x1="418.1328" x2="813.4785" y1="425.6563" y2="425.6563"/><text fill="#FFFFFF" font-family="Verdana" font-size="12" lengthAdjust="spacing" textLength="124.0898" x="435.1328" y="415.8262">saveLogFilesPosition</text><text fill="#808080" font-family="Verdana" font-size="12" lengthAdjust="spacing" textLength="48.4746" x="566.8516" y="415.8262">0.34 ms</text><polygon fill="#4362B1" points="802.4785,459.625,812.4785,463.625,802.4785,467.625,806.4785,463.625" style="stroke:#4362B1;stroke-width:1.0;"/><line style="stroke:#4362B1;stroke-width:3.0;stroke-dasharray:2.0,2.0;" x1="408.1328" x2="808.4785" y1="463.625" y2="463.625"/><text fill="#FFFFFF" font-family="Verdana" font-size="12" lengthAdjust="spacing" textLength="25.3945" x="420.1328" y="453.7949">void</text><polygon fill="#4362B1" points="11,497.5938,1,501.5938,11,505.5938,7,501.5938" style="stroke:#4362B1;stroke-width:1.0;"/><line style="stroke:#4362B1;stroke-width:3.0;stroke-dasharray:2.0,2.0;" x1="5" x2="818.4785" y1="501.5938" y2="501.5938"/><text fill="#FFFFFF" font-family="Verdana" font-size="12" lengthAdjust="spacing" textLength="25.3945" x="22" y="491.7637">void</text><!--SRC=[fL9DJuGm4BtlhwWRhy32-X79XfiUZ8acxcqFP2nTg9QsjWNZlxUo6qCBh1AFdJVllPatFQCSiwOWZMAeCaRgD8eKV8GbDLNpqcYYiE26S1DYKKSbCI1b3JAI3BXfQXQOYjGage7ow00TAg6qu4A2CXHJQNlHWoZlA2FwIMXggE1ReWq2ZPPZmDAXMiIKYZo_itijU4ToIsxxBLSKLxKT-d6_xxgToYdjF1bHFq-M2uHsGJOsQOhayVKDRK6_QRJ1WWcLbWe-CnJ7CQhr9kfgcHK2R6WBXemcOd4q2WIPEzIllglmqZFkMRjQawQR8F1TNw65q1w_3BUL8b1qt8BCLHwkWvdGn5zXTRrEvYo1l6AGEQUVSeclRdoNdeyZCMfZS_9yMa6BOsildA7I7rF_aJkLzCuInx_eaTuZJ_ozdN-NF4cHQhYVsDeFR6AgF5aCqygJuVKrjCIVQM1wCUSh-9x_INMOoJ1Hl-SB]--></g></svg>