<svg xmlns="http://www.w3.org/2000/svg" xmlns:xlink="http://www.w3.org/1999/xlink" contentStyleType="text/css" height="459px" preserveAspectRatio="none" style="width:712px;height:459px;background:#000000;" version="1.1" viewBox="0 0 712 459" width="712px" zoomAndPan="magnify"><defs/><g><rect fill="none" height="314.7188" style="stroke:#999999;stroke-width:1.0;" width="10" x="133.0449" y="83.9375"/><rect fill="none" height="238.7813" style="stroke:#999999;stroke-width:1.0;" width="10" x="348.6553" y="121.9063"/><rect fill="none" height="37.9688" style="stroke:#999999;stroke-width:1.0;" width="10" x="595.9854" y="201.8125"/><rect fill="none" height="37.9688" style="stroke:#999999;stroke-width:1.0;" width="10" x="595.9854" y="284.75"/><rect fill="none" height="110.875" rx="4" ry="4" style="stroke:#4362B1;stroke-width:1.5;" width="459.1855" x="247.2676" y="136.9063"/><line style="stroke:#999999;stroke-width:0.5;stroke-dasharray:5.0,5.0;" x1="137.8223" x2="137.8223" y1="43.9688" y2="416.6563"/><line style="stroke:#999999;stroke-width:0.5;stroke-dasharray:5.0,5.0;" x1="353.2676" x2="353.2676" y1="43.9688" y2="416.6563"/><line style="stroke:#999999;stroke-width:0.5;stroke-dasharray:5.0,5.0;" x1="600.5176" x2="600.5176" y1="43.9688" y2="416.6563"/><rect fill="#555555" height="37.9688" rx="4" ry="4" style="stroke:#555555;stroke-width:1.0;" width="138.4453" x="68.8223" y="5"/><text fill="#FFFFFF" font-family="Verdana" font-size="12" lengthAdjust="spacing" textLength="114.4453" x="80.8223" y="28.1387">PostgreSqlJsonTest</text><rect fill="#555555" height="37.9688" rx="4" ry="4" style="stroke:#555555;stroke-width:1.0;" width="138.4453" x="68.8223" y="415.6563"/><text fill="#FFFFFF" font-family="Verdana" font-size="12" lengthAdjust="spacing" textLength="114.4453" x="80.8223" y="438.7949">PostgreSqlJsonTest</text><rect fill="#555555" height="37.9688" rx="4" ry="4" style="stroke:#555555;stroke-width:1.0;" width="112.7754" x="297.2676" y="5"/><text fill="#FFFFFF" font-family="Verdana" font-size="12" lengthAdjust="spacing" textLength="88.7754" x="309.2676" y="28.1387">PostgreSqlJson</text><rect fill="#555555" height="37.9688" rx="4" ry="4" style="stroke:#555555;stroke-width:1.0;" width="112.7754" x="297.2676" y="415.6563"/><text fill="#FFFFFF" font-family="Verdana" font-size="12" lengthAdjust="spacing" textLength="88.7754" x="309.2676" y="438.7949">PostgreSqlJson</text><rect fill="#555555" height="37.9688" rx="4" ry="4" style="stroke:#555555;stroke-width:1.0;" width="110.9355" x="545.5176" y="5"/><text fill="#FFFFFF" font-family="Verdana" font-size="12" lengthAdjust="spacing" textLength="86.9355" x="557.5176" y="28.1387">EnrichmentOff</text><rect fill="#555555" height="37.9688" rx="4" ry="4" style="stroke:#555555;stroke-width:1.0;" width="110.9355" x="545.5176" y="415.6563"/><text fill="#FFFFFF" font-family="Verdana" font-size="12" lengthAdjust="spacing" textLength="86.9355" x="557.5176" y="438.7949">EnrichmentOff</text><rect fill="none" height="314.7188" style="stroke:#999999;stroke-width:1.0;" width="10" x="133.0449" y="83.9375"/><rect fill="none" height="238.7813" style="stroke:#999999;stroke-width:1.0;" width="10" x="348.6553" y="121.9063"/><rect fill="none" height="37.9688" style="stroke:#999999;stroke-width:1.0;" width="10" x="595.9854" y="201.8125"/><rect fill="none" height="37.9688" style="stroke:#999999;stroke-width:1.0;" width="10" x="595.9854" y="284.75"/><polygon fill="#4362B1" points="121.0449,79.9375,131.0449,83.9375,121.0449,87.9375,125.0449,83.9375" style="stroke:#4362B1;stroke-width:1.0;"/><line style="stroke:#4362B1;stroke-width:3.0;" x1="0" x2="127.0449" y1="83.9375" y2="83.9375"/><text fill="#FFFFFF" font-family="Verdana" font-size="12" lengthAdjust="spacing" textLength="47.9414" x="12" y="74.1074">logFatal</text><text fill="#808080" font-family="Verdana" font-size="12" lengthAdjust="spacing" textLength="48.4746" x="67.5703" y="74.1074">0.13 ms</text><polygon fill="#4362B1" points="336.6553,117.9063,346.6553,121.9063,336.6553,125.9063,340.6553,121.9063" style="stroke:#4362B1;stroke-width:1.0;"/><line style="stroke:#4362B1;stroke-width:3.0;" x1="143.0449" x2="342.6553" y1="121.9063" y2="121.9063"/><text fill="#FFFFFF" font-family="Verdana" font-size="12" lengthAdjust="spacing" textLength="80.1914" x="155.0449" y="112.0762">parseLogLine</text><text fill="#808080" font-family="Verdana" font-size="12" lengthAdjust="spacing" textLength="56.1094" x="242.8652" y="112.0762">0.113 ms</text><path d="M251.2676,136.9063 L331.459,136.9063 L331.459,152.875 L321.459,162.875 L247.2676,162.875 L247.2676,140.9063 A4,4 0 0 1 251.2676,136.9063 " fill="#4362B1" style="stroke:#4362B1;stroke-width:1.5;"/><rect fill="none" height="110.875" rx="4" ry="4" style="stroke:#4362B1;stroke-width:1.5;" width="459.1855" x="247.2676" y="136.9063"/><text fill="#FFFFFF" font-family="Verdana" font-size="12" font-weight="bold" lengthAdjust="spacing" textLength="29.1914" x="267.2676" y="154.0449">loop</text><text fill="#4362B1" font-family="Verdana" font-size="12" font-weight="bold" lengthAdjust="spacing" textLength="55.6465" x="351.459" y="155.0449">[2 times</text><text fill="#808080" font-family="Verdana" font-size="12" font-weight="bold" lengthAdjust="spacing" textLength="53.4316" x="415.4609" y="155.0449">0.02 ms</text><text fill="#4362B1" font-family="Verdana" font-size="12" font-weight="bold" lengthAdjust="spacing" textLength="5.4844" x="468.8926" y="155.0449">]</text><polygon fill="#4362B1" points="583.9854,197.8125,593.9854,201.8125,583.9854,205.8125,587.9854,201.8125" style="stroke:#4362B1;stroke-width:1.0;"/><line style="stroke:#4362B1;stroke-width:3.0;" x1="358.6553" x2="589.9854" y1="201.8125" y2="201.8125"/><text fill="#FFFFFF" font-family="Verdana" font-size="12" lengthAdjust="spacing" textLength="152.2266" x="370.6553" y="191.9824">enricherApplicationName</text><text fill="#808080" font-family="Verdana" font-size="12" lengthAdjust="spacing" textLength="48.4746" x="530.5107" y="191.9824">0.02 ms</text><polygon fill="#4362B1" points="369.6553,235.7813,359.6553,239.7813,369.6553,243.7813,365.6553,239.7813" style="stroke:#4362B1;stroke-width:1.0;"/><line style="stroke:#4362B1;stroke-width:3.0;stroke-dasharray:2.0,2.0;" x1="363.6553" x2="599.9854" y1="239.7813" y2="239.7813"/><text fill="#FFFFFF" font-family="Verdana" font-size="12" lengthAdjust="spacing" textLength="25.3945" x="380.6553" y="229.9512">void</text><polygon fill="#4362B1" points="583.9854,280.75,593.9854,284.75,583.9854,288.75,587.9854,284.75" style="stroke:#4362B1;stroke-width:1.0;"/><line style="stroke:#4362B1;stroke-width:3.0;" x1="358.6553" x2="589.9854" y1="284.75" y2="284.75"/><text fill="#FFFFFF" font-family="Verdana" font-size="12" lengthAdjust="spacing" textLength="82.8516" x="370.6553" y="274.9199">getStatement</text><text fill="#808080" font-family="Verdana" font-size="12" lengthAdjust="spacing" textLength="71.3789" x="461.1357" y="274.9199">0.00618 ms</text><polygon fill="#4362B1" points="369.6553,318.7188,359.6553,322.7188,369.6553,326.7188,365.6553,322.7188" style="stroke:#4362B1;stroke-width:1.0;"/><line style="stroke:#4362B1;stroke-width:3.0;stroke-dasharray:2.0,2.0;" x1="363.6553" x2="599.9854" y1="322.7188" y2="322.7188"/><text fill="#FFFFFF" font-family="Verdana" font-size="12" lengthAdjust="spacing" textLength="25.3945" x="380.6553" y="312.8887">void</text><polygon fill="#4362B1" points="154.0449,356.6875,144.0449,360.6875,154.0449,364.6875,150.0449,360.6875" style="stroke:#4362B1;stroke-width:1.0;"/><line style="stroke:#4362B1;stroke-width:3.0;stroke-dasharray:2.0,2.0;" x1="148.0449" x2="352.6553" y1="360.6875" y2="360.6875"/><text fill="#FFFFFF" font-family="Verdana" font-size="12" lengthAdjust="spacing" textLength="25.3945" x="165.0449" y="350.8574">void</text><polygon fill="#4362B1" points="11,394.6563,1,398.6563,11,402.6563,7,398.6563" style="stroke:#4362B1;stroke-width:1.0;"/><line style="stroke:#4362B1;stroke-width:3.0;stroke-dasharray:2.0,2.0;" x1="5" x2="137.0449" y1="398.6563" y2="398.6563"/><text fill="#FFFFFF" font-family="Verdana" font-size="12" lengthAdjust="spacing" textLength="25.3945" x="22" y="388.8262">void</text><!--SRC=[bLBBJiCm4BptAvRU4wT5GYYg8d4e1rG1KhdrPDnjOialx4qHVu-RGaNYDi3Hi_FOiVPA6g7QBRPUGKFaGicOv-zvBQbfNzk0NbX3Q2WNLhCQYJkdkMDESKEjLXarg95fBWqxZev8xk9muhWdAQIBN7YsWMgFwpVr4AnvmK300qnJU3eYEoFfqvV6Iz7ekF3JRjUnUyXq0h39gZIq16NhUqvSmK9OPNrPU_vHGP7Fha671Ul0Aigv8BddX6SAnIcSWOTv9SID0wvilP86axnXuCN8RWQmijR174Xg34EpOZxqIbVCgjuNbO3T4_sTSqeAJjAQHwxnRzwdNNkc5w8NMJR8tbkvFP6tEEgsDD_KNmh5irrJT3a0IOlYPdQR5XaD_aU9qGhfgKIluQsSp7vO9NUmIOJ7e_uINvGUM9y0]--></g></svg>