<svg xmlns="http://www.w3.org/2000/svg" xmlns:xlink="http://www.w3.org/1999/xlink" contentStyleType="text/css" height="334px" preserveAspectRatio="none" style="width:706px;height:334px;background:#000000;" version="1.1" viewBox="0 0 706 334" width="706px" zoomAndPan="magnify"><defs/><g><rect fill="none" height="189.8438" style="stroke:#999999;stroke-width:1.0;" width="10" x="221.8965" y="83.9375"/><rect fill="none" height="113.9063" style="stroke:#999999;stroke-width:1.0;" width="10" x="438.4619" y="121.9063"/><rect fill="none" height="37.9688" style="stroke:#999999;stroke-width:1.0;" width="10" x="640.3174" y="159.875"/><line style="stroke:#999999;stroke-width:0.5;stroke-dasharray:5.0,5.0;" x1="226.7188" x2="226.7188" y1="43.9688" y2="291.7813"/><line style="stroke:#999999;stroke-width:0.5;stroke-dasharray:5.0,5.0;" x1="443.0742" x2="443.0742" y1="43.9688" y2="291.7813"/><line style="stroke:#999999;stroke-width:0.5;stroke-dasharray:5.0,5.0;" x1="644.8496" x2="644.8496" y1="43.9688" y2="291.7813"/><rect fill="#555555" height="37.9688" rx="4" ry="4" style="stroke:#555555;stroke-width:1.0;" width="140.3555" x="156.7188" y="5"/><text fill="#FFFFFF" font-family="Verdana" font-size="12" lengthAdjust="spacing" textLength="116.3555" x="168.7188" y="28.1387">LogEnrichmentTest</text><rect fill="#555555" height="37.9688" rx="4" ry="4" style="stroke:#555555;stroke-width:1.0;" width="140.3555" x="156.7188" y="290.7813"/><text fill="#FFFFFF" font-family="Verdana" font-size="12" lengthAdjust="spacing" textLength="116.3555" x="168.7188" y="313.9199">LogEnrichmentTest</text><rect fill="#555555" height="37.9688" rx="4" ry="4" style="stroke:#555555;stroke-width:1.0;" width="112.7754" x="387.0742" y="5"/><text fill="#FFFFFF" font-family="Verdana" font-size="12" lengthAdjust="spacing" textLength="88.7754" x="399.0742" y="28.1387">PostgreSqlJson</text><rect fill="#555555" height="37.9688" rx="4" ry="4" style="stroke:#555555;stroke-width:1.0;" width="112.7754" x="387.0742" y="290.7813"/><text fill="#FFFFFF" font-family="Verdana" font-size="12" lengthAdjust="spacing" textLength="88.7754" x="399.0742" y="313.9199">PostgreSqlJson</text><rect fill="#555555" height="37.9688" rx="4" ry="4" style="stroke:#555555;stroke-width:1.0;" width="110.9355" x="589.8496" y="5"/><text fill="#FFFFFF" font-family="Verdana" font-size="12" lengthAdjust="spacing" textLength="86.9355" x="601.8496" y="28.1387">EnrichmentOff</text><rect fill="#555555" height="37.9688" rx="4" ry="4" style="stroke:#555555;stroke-width:1.0;" width="110.9355" x="589.8496" y="290.7813"/><text fill="#FFFFFF" font-family="Verdana" font-size="12" lengthAdjust="spacing" textLength="86.9355" x="601.8496" y="313.9199">EnrichmentOff</text><rect fill="none" height="189.8438" style="stroke:#999999;stroke-width:1.0;" width="10" x="221.8965" y="83.9375"/><rect fill="none" height="113.9063" style="stroke:#999999;stroke-width:1.0;" width="10" x="438.4619" y="121.9063"/><rect fill="none" height="37.9688" style="stroke:#999999;stroke-width:1.0;" width="10" x="640.3174" y="159.875"/><polygon fill="#4362B1" points="209.8965,79.9375,219.8965,83.9375,209.8965,87.9375,213.8965,83.9375" style="stroke:#4362B1;stroke-width:1.0;"/><line style="stroke:#4362B1;stroke-width:3.0;" x1="0" x2="215.8965" y1="83.9375" y2="83.9375"/><text fill="#FFFFFF" font-family="Verdana" font-size="12" lengthAdjust="spacing" textLength="129.1582" x="12" y="74.1074">defaultEnrichmentOff</text><text fill="#808080" font-family="Verdana" font-size="12" lengthAdjust="spacing" textLength="56.1094" x="148.7871" y="74.1074">0.067 ms</text><polygon fill="#4362B1" points="426.4619,117.9063,436.4619,121.9063,426.4619,125.9063,430.4619,121.9063" style="stroke:#4362B1;stroke-width:1.0;"/><line style="stroke:#4362B1;stroke-width:3.0;" x1="231.8965" x2="432.4619" y1="121.9063" y2="121.9063"/><text fill="#FFFFFF" font-family="Verdana" font-size="12" lengthAdjust="spacing" textLength="30.9082" x="243.8965" y="112.0762">close</text><text fill="#808080" font-family="Verdana" font-size="12" lengthAdjust="spacing" textLength="63.7441" x="282.4336" y="112.0762">0.0559 ms</text><polygon fill="#4362B1" points="628.3174,155.875,638.3174,159.875,628.3174,163.875,632.3174,159.875" style="stroke:#4362B1;stroke-width:1.0;"/><line style="stroke:#4362B1;stroke-width:3.0;" x1="448.4619" x2="634.3174" y1="159.875" y2="159.875"/><text fill="#FFFFFF" font-family="Verdana" font-size="12" lengthAdjust="spacing" textLength="30.9082" x="460.4619" y="150.0449">close</text><text fill="#808080" font-family="Verdana" font-size="12" lengthAdjust="spacing" textLength="63.7441" x="498.999" y="150.0449">0.0116 ms</text><polygon fill="#4362B1" points="459.4619,193.8438,449.4619,197.8438,459.4619,201.8438,455.4619,197.8438" style="stroke:#4362B1;stroke-width:1.0;"/><line style="stroke:#4362B1;stroke-width:3.0;stroke-dasharray:2.0,2.0;" x1="453.4619" x2="644.3174" y1="197.8438" y2="197.8438"/><text fill="#FFFFFF" font-family="Verdana" font-size="12" lengthAdjust="spacing" textLength="25.3945" x="470.4619" y="188.0137">void</text><polygon fill="#4362B1" points="242.8965,231.8125,232.8965,235.8125,242.8965,239.8125,238.8965,235.8125" style="stroke:#4362B1;stroke-width:1.0;"/><line style="stroke:#4362B1;stroke-width:3.0;stroke-dasharray:2.0,2.0;" x1="236.8965" x2="442.4619" y1="235.8125" y2="235.8125"/><text fill="#FFFFFF" font-family="Verdana" font-size="12" lengthAdjust="spacing" textLength="25.3945" x="253.8965" y="225.9824">void</text><polygon fill="#4362B1" points="11,269.7813,1,273.7813,11,277.7813,7,273.7813" style="stroke:#4362B1;stroke-width:1.0;"/><line style="stroke:#4362B1;stroke-width:3.0;stroke-dasharray:2.0,2.0;" x1="5" x2="225.8965" y1="273.7813" y2="273.7813"/><text fill="#FFFFFF" font-family="Verdana" font-size="12" lengthAdjust="spacing" textLength="25.3945" x="22" y="263.9512">void</text><!--SRC=[VP7DJiCm48JlVGgJk-Fsq2AYABTU4198SEl9E9l4al-mrqMyFLPQGHmNhhCpttZNTz885Nk8Nf49qOM6CSy_wr7Y5DzZ02-iGJ1O2wlP2CYTqzmnfxZ1g1N52JGmpQLXbz55gLqQRXptA8LqoKkUx7WqNef99zeR12GyaAfGgopqOWEE7bu_r6EmPaxaKcx_HJqFm-pEb6f3o8bsHMT3UXXuL9ZdMs6LzSte-LT7jlNsS4zqQDciTWd51SepHoXNIqDIghJBtzuGeMo0ecU_VyYB5bKvOPwHbKYxR8s_MdQxmxfbqPCXRjQqbAvwpbRsLsiF_v2AmoJK-Z8_h0MfsFsKWZS-yvfT90lJDm00]--></g></svg>