<svg xmlns="http://www.w3.org/2000/svg" xmlns:xlink="http://www.w3.org/1999/xlink" contentStyleType="text/css" height="410px" preserveAspectRatio="none" style="width:688px;height:410px;background:#000000;" version="1.1" viewBox="0 0 688 410" width="688px" zoomAndPan="magnify"><defs/><g><rect fill="none" height="265.7813" style="stroke:#999999;stroke-width:1.0;" width="10" x="144.1895" y="83.9375"/><rect fill="none" height="189.8438" style="stroke:#999999;stroke-width:1.0;" width="10" x="359.7998" y="121.9063"/><rect fill="none" height="37.9688" style="stroke:#999999;stroke-width:1.0;" width="10" x="622.3994" y="159.875"/><rect fill="none" height="37.9688" style="stroke:#999999;stroke-width:1.0;" width="10" x="622.3994" y="235.8125"/><line style="stroke:#999999;stroke-width:0.5;stroke-dasharray:5.0,5.0;" x1="148.9668" x2="148.9668" y1="43.9688" y2="367.7188"/><line style="stroke:#999999;stroke-width:0.5;stroke-dasharray:5.0,5.0;" x1="364.4121" x2="364.4121" y1="43.9688" y2="367.7188"/><line style="stroke:#999999;stroke-width:0.5;stroke-dasharray:5.0,5.0;" x1="626.9316" x2="626.9316" y1="43.9688" y2="367.7188"/><rect fill="#555555" height="37.9688" rx="4" ry="4" style="stroke:#555555;stroke-width:1.0;" width="138.4453" x="79.9668" y="5"/><text fill="#FFFFFF" font-family="Verdana" font-size="12" lengthAdjust="spacing" textLength="114.4453" x="91.9668" y="28.1387">PostgreSqlJsonTest</text><rect fill="#555555" height="37.9688" rx="4" ry="4" style="stroke:#555555;stroke-width:1.0;" width="138.4453" x="79.9668" y="366.7188"/><text fill="#FFFFFF" font-family="Verdana" font-size="12" lengthAdjust="spacing" textLength="114.4453" x="91.9668" y="389.8574">PostgreSqlJsonTest</text><rect fill="#555555" height="37.9688" rx="4" ry="4" style="stroke:#555555;stroke-width:1.0;" width="112.7754" x="308.4121" y="5"/><text fill="#FFFFFF" font-family="Verdana" font-size="12" lengthAdjust="spacing" textLength="88.7754" x="320.4121" y="28.1387">PostgreSqlJson</text><rect fill="#555555" height="37.9688" rx="4" ry="4" style="stroke:#555555;stroke-width:1.0;" width="112.7754" x="308.4121" y="366.7188"/><text fill="#FFFFFF" font-family="Verdana" font-size="12" lengthAdjust="spacing" textLength="88.7754" x="320.4121" y="389.8574">PostgreSqlJson</text><rect fill="#555555" height="37.9688" rx="4" ry="4" style="stroke:#555555;stroke-width:1.0;" width="110.9355" x="571.9316" y="5"/><text fill="#FFFFFF" font-family="Verdana" font-size="12" lengthAdjust="spacing" textLength="86.9355" x="583.9316" y="28.1387">EnrichmentOff</text><rect fill="#555555" height="37.9688" rx="4" ry="4" style="stroke:#555555;stroke-width:1.0;" width="110.9355" x="571.9316" y="366.7188"/><text fill="#FFFFFF" font-family="Verdana" font-size="12" lengthAdjust="spacing" textLength="86.9355" x="583.9316" y="389.8574">EnrichmentOff</text><rect fill="none" height="265.7813" style="stroke:#999999;stroke-width:1.0;" width="10" x="144.1895" y="83.9375"/><rect fill="none" height="189.8438" style="stroke:#999999;stroke-width:1.0;" width="10" x="359.7998" y="121.9063"/><rect fill="none" height="37.9688" style="stroke:#999999;stroke-width:1.0;" width="10" x="622.3994" y="159.875"/><rect fill="none" height="37.9688" style="stroke:#999999;stroke-width:1.0;" width="10" x="622.3994" y="235.8125"/><polygon fill="#4362B1" points="132.1895,79.9375,142.1895,83.9375,132.1895,87.9375,136.1895,83.9375" style="stroke:#4362B1;stroke-width:1.0;"/><line style="stroke:#4362B1;stroke-width:3.0;" x1="0" x2="138.1895" y1="83.9375" y2="83.9375"/><text fill="#FFFFFF" font-family="Verdana" font-size="12" lengthAdjust="spacing" textLength="51.4512" x="12" y="74.1074">logParse</text><text fill="#808080" font-family="Verdana" font-size="12" lengthAdjust="spacing" textLength="56.1094" x="71.0801" y="74.1074">0.132 ms</text><polygon fill="#4362B1" points="347.7998,117.9063,357.7998,121.9063,347.7998,125.9063,351.7998,121.9063" style="stroke:#4362B1;stroke-width:1.0;"/><line style="stroke:#4362B1;stroke-width:3.0;" x1="154.1895" x2="353.7998" y1="121.9063" y2="121.9063"/><text fill="#FFFFFF" font-family="Verdana" font-size="12" lengthAdjust="spacing" textLength="80.1914" x="166.1895" y="112.0762">parseLogLine</text><text fill="#808080" font-family="Verdana" font-size="12" lengthAdjust="spacing" textLength="48.4746" x="254.0098" y="112.0762">0.11 ms</text><polygon fill="#4362B1" points="610.3994,155.875,620.3994,159.875,610.3994,163.875,614.3994,159.875" style="stroke:#4362B1;stroke-width:1.0;"/><line style="stroke:#4362B1;stroke-width:3.0;" x1="369.7998" x2="616.3994" y1="159.875" y2="159.875"/><text fill="#FFFFFF" font-family="Verdana" font-size="12" lengthAdjust="spacing" textLength="152.2266" x="381.7998" y="150.0449">enricherApplicationName</text><text fill="#808080" font-family="Verdana" font-size="12" lengthAdjust="spacing" textLength="63.7441" x="541.6553" y="150.0449">0.0147 ms</text><polygon fill="#4362B1" points="380.7998,193.8438,370.7998,197.8438,380.7998,201.8438,376.7998,197.8438" style="stroke:#4362B1;stroke-width:1.0;"/><line style="stroke:#4362B1;stroke-width:3.0;stroke-dasharray:2.0,2.0;" x1="374.7998" x2="626.3994" y1="197.8438" y2="197.8438"/><text fill="#FFFFFF" font-family="Verdana" font-size="12" lengthAdjust="spacing" textLength="25.3945" x="391.7998" y="188.0137">void</text><polygon fill="#4362B1" points="610.3994,231.8125,620.3994,235.8125,610.3994,239.8125,614.3994,235.8125" style="stroke:#4362B1;stroke-width:1.0;"/><line style="stroke:#4362B1;stroke-width:3.0;" x1="369.7998" x2="616.3994" y1="235.8125" y2="235.8125"/><text fill="#FFFFFF" font-family="Verdana" font-size="12" lengthAdjust="spacing" textLength="82.8516" x="381.7998" y="225.9824">getStatement</text><text fill="#808080" font-family="Verdana" font-size="12" lengthAdjust="spacing" textLength="71.3789" x="472.2803" y="225.9824">0.00702 ms</text><polygon fill="#4362B1" points="380.7998,269.7813,370.7998,273.7813,380.7998,277.7813,376.7998,273.7813" style="stroke:#4362B1;stroke-width:1.0;"/><line style="stroke:#4362B1;stroke-width:3.0;stroke-dasharray:2.0,2.0;" x1="374.7998" x2="626.3994" y1="273.7813" y2="273.7813"/><text fill="#FFFFFF" font-family="Verdana" font-size="12" lengthAdjust="spacing" textLength="25.3945" x="391.7998" y="263.9512">void</text><polygon fill="#4362B1" points="165.1895,307.75,155.1895,311.75,165.1895,315.75,161.1895,311.75" style="stroke:#4362B1;stroke-width:1.0;"/><line style="stroke:#4362B1;stroke-width:3.0;stroke-dasharray:2.0,2.0;" x1="159.1895" x2="363.7998" y1="311.75" y2="311.75"/><text fill="#FFFFFF" font-family="Verdana" font-size="12" lengthAdjust="spacing" textLength="25.3945" x="176.1895" y="301.9199">void</text><polygon fill="#4362B1" points="11,345.7188,1,349.7188,11,353.7188,7,349.7188" style="stroke:#4362B1;stroke-width:1.0;"/><line style="stroke:#4362B1;stroke-width:3.0;stroke-dasharray:2.0,2.0;" x1="5" x2="148.1895" y1="349.7188" y2="349.7188"/><text fill="#FFFFFF" font-family="Verdana" font-size="12" lengthAdjust="spacing" textLength="25.3945" x="22" y="339.8887">void</text><!--SRC=[nP9FQyCm3CNl_HHQxedJRb089R33BgDiXUxMa-UgYS7_PYiT-_PpqpAQE1tijAEVtjDFGhwJHgXkZvrNq1AvK37c-MVHI6gxzowW5zOG6Yg4rQn1uivfxfXJt52dLKujQcIQIyFEfRDIk5YSEUv92kcY5pOsKEDn-w6UWpLl60XuW2oLirzY4v6X_SbuALeT1tuz77htGCbc0BkyJg4LADjik0y8As6LzLNZ-LSDPJ6_Nu0EAzQhTSnpGVB82ISsYbMOaCV02jo9jBRDMfeKE1_oRXBxsfYNruE5Ay3-YVxHEIK59sdD2zS9jPm_BCVSA_AWwIHubUSZyj7A_SMwnpzqIbQ8tsvBCNiIahdBPRdufy7JIyTUurF_DBjgbTnnbmJFd_8IlXazkRu1]--></g></svg>