<svg xmlns="http://www.w3.org/2000/svg" xmlns:xlink="http://www.w3.org/1999/xlink" contentStyleType="text/css" height="534px" preserveAspectRatio="none" style="width:1562px;height:534px;background:#FFFFFF;" version="1.1" viewBox="0 0 1562 534" width="1562px" zoomAndPan="magnify"><defs/><g><rect fill="#FFFFFF" height="180.7969" style="stroke:#181818;stroke-width:1.0;" width="10" x="387.3101" y="67.4297"/><rect fill="#FFFFFF" height="122.5313" style="stroke:#181818;stroke-width:1.0;" width="10" x="575.2363" y="96.5625"/><rect fill="#FFFFFF" height="29.1328" style="stroke:#181818;stroke-width:1.0;" width="10" x="575.2363" y="306.4922"/><rect fill="#FFFFFF" height="87.3984" style="stroke:#181818;stroke-width:1.0;" width="10" x="575.2363" y="393.8906"/><rect fill="#FFFFFF" height="29.1328" style="stroke:#181818;stroke-width:1.0;" width="10" x="754.771" y="160.8281"/><rect fill="#FFFFFF" height="87.3984" style="stroke:#181818;stroke-width:1.0;" width="10" x="918.5967" y="277.3594"/><rect fill="#FFFFFF" height="29.1328" style="stroke:#181818;stroke-width:1.0;" width="10" x="1054.002" y="423.0234"/><line style="stroke:#181818;stroke-width:0.5;stroke-dasharray:5.0,5.0;" x1="391.436" x2="391.436" y1="36.2969" y2="499.2891"/><line style="stroke:#181818;stroke-width:0.5;stroke-dasharray:5.0,5.0;" x1="579.4507" x2="579.4507" y1="36.2969" y2="499.2891"/><line style="stroke:#181818;stroke-width:0.5;stroke-dasharray:5.0,5.0;" x1="759.6382" x2="759.6382" y1="36.2969" y2="499.2891"/><line style="stroke:#181818;stroke-width:0.5;stroke-dasharray:5.0,5.0;" x1="922.9038" x2="922.9038" y1="36.2969" y2="499.2891"/><line style="stroke:#181818;stroke-width:0.5;stroke-dasharray:5.0,5.0;" x1="1058.2896" x2="1058.2896" y1="36.2969" y2="499.2891"/><line style="stroke:#181818;stroke-width:0.5;stroke-dasharray:5.0,5.0;" x1="1166.7144" x2="1166.7144" y1="36.2969" y2="499.2891"/><rect fill="#E2E2F0" height="30.2969" rx="2.5" ry="2.5" style="stroke:#181818;stroke-width:0.5;" width="149.748" x="317.436" y="5"/><text fill="#000000" font-family="sans-serif" font-size="14" lengthAdjust="spacing" textLength="135.748" x="324.436" y="24.9951">LogEnrichmentTest</text><rect fill="#E2E2F0" height="30.2969" rx="2.5" ry="2.5" style="stroke:#181818;stroke-width:0.5;" width="149.748" x="317.436" y="498.2891"/><text fill="#000000" font-family="sans-serif" font-size="14" lengthAdjust="spacing" textLength="135.748" x="324.436" y="518.2842">LogEnrichmentTest</text><rect fill="#E2E2F0" height="30.2969" rx="2.5" ry="2.5" style="stroke:#181818;stroke-width:0.5;" width="117.5713" x="521.4507" y="5"/><text fill="#000000" font-family="sans-serif" font-size="14" lengthAdjust="spacing" textLength="103.5713" x="528.4507" y="24.9951">PostgreSqlJson</text><rect fill="#E2E2F0" height="30.2969" rx="2.5" ry="2.5" style="stroke:#181818;stroke-width:0.5;" width="117.5713" x="521.4507" y="498.2891"/><text fill="#000000" font-family="sans-serif" font-size="14" lengthAdjust="spacing" textLength="103.5713" x="528.4507" y="518.2842">PostgreSqlJson</text><rect fill="#E2E2F0" height="30.2969" rx="2.5" ry="2.5" style="stroke:#181818;stroke-width:0.5;" width="172.2656" x="673.6382" y="5"/><text fill="#000000" font-family="sans-serif" font-size="14" lengthAdjust="spacing" textLength="158.2656" x="680.6382" y="24.9951">LogEnricherPostgreSql</text><rect fill="#E2E2F0" height="30.2969" rx="2.5" ry="2.5" style="stroke:#181818;stroke-width:0.5;" width="172.2656" x="673.6382" y="498.2891"/><text fill="#000000" font-family="sans-serif" font-size="14" lengthAdjust="spacing" textLength="158.2656" x="680.6382" y="518.2842">LogEnricherPostgreSql</text><rect fill="#E2E2F0" height="30.2969" rx="2.5" ry="2.5" style="stroke:#181818;stroke-width:0.5;" width="135.3857" x="855.9038" y="5"/><text fill="#000000" font-family="sans-serif" font-size="14" lengthAdjust="spacing" textLength="121.3857" x="862.9038" y="24.9951">PostgreSqlJson$2</text><rect fill="#E2E2F0" height="30.2969" rx="2.5" ry="2.5" style="stroke:#181818;stroke-width:0.5;" width="135.3857" x="855.9038" y="498.2891"/><text fill="#000000" font-family="sans-serif" font-size="14" lengthAdjust="spacing" textLength="121.3857" x="862.9038" y="518.2842">PostgreSqlJson$2</text><rect fill="#E2E2F0" height="30.2969" rx="2.5" ry="2.5" style="stroke:#181818;stroke-width:0.5;" width="115.4248" x="1001.2896" y="5"/><text fill="#000000" font-family="sans-serif" font-size="14" lengthAdjust="spacing" textLength="101.4248" x="1008.2896" y="24.9951">EnrichmentOff</text><rect fill="#E2E2F0" height="30.2969" rx="2.5" ry="2.5" style="stroke:#181818;stroke-width:0.5;" width="115.4248" x="1001.2896" y="498.2891"/><text fill="#000000" font-family="sans-serif" font-size="14" lengthAdjust="spacing" textLength="101.4248" x="1008.2896" y="518.2842">EnrichmentOff</text><rect fill="#E2E2F0" height="30.2969" rx="2.5" ry="2.5" style="stroke:#181818;stroke-width:0.5;" width="80.8008" x="1126.7144" y="5"/><text fill="#000000" font-family="sans-serif" font-size="14" lengthAdjust="spacing" textLength="66.8008" x="1133.7144" y="24.9951">Database</text><rect fill="#E2E2F0" height="30.2969" rx="2.5" ry="2.5" style="stroke:#181818;stroke-width:0.5;" width="80.8008" x="1126.7144" y="498.2891"/><text fill="#000000" font-family="sans-serif" font-size="14" lengthAdjust="spacing" textLength="66.8008" x="1133.7144" y="518.2842">Database</text><rect fill="#FFFFFF" height="180.7969" style="stroke:#181818;stroke-width:1.0;" width="10" x="387.3101" y="67.4297"/><rect fill="#FFFFFF" height="122.5313" style="stroke:#181818;stroke-width:1.0;" width="10" x="575.2363" y="96.5625"/><rect fill="#FFFFFF" height="29.1328" style="stroke:#181818;stroke-width:1.0;" width="10" x="575.2363" y="306.4922"/><rect fill="#FFFFFF" height="87.3984" style="stroke:#181818;stroke-width:1.0;" width="10" x="575.2363" y="393.8906"/><rect fill="#FFFFFF" height="29.1328" style="stroke:#181818;stroke-width:1.0;" width="10" x="754.771" y="160.8281"/><rect fill="#FFFFFF" height="87.3984" style="stroke:#181818;stroke-width:1.0;" width="10" x="918.5967" y="277.3594"/><rect fill="#FFFFFF" height="29.1328" style="stroke:#181818;stroke-width:1.0;" width="10" x="1054.002" y="423.0234"/><polygon fill="#181818" points="375.3101,63.4297,385.3101,67.4297,375.3101,71.4297,379.3101,67.4297" style="stroke:#181818;stroke-width:1.0;"/><line style="stroke:#181818;stroke-width:1.0;" x1="0" x2="381.3101" y1="67.4297" y2="67.4297"/><text fill="#000000" font-family="sans-serif" font-size="13" lengthAdjust="spacing" textLength="307.5313" x="7" y="62.3638">initLogEnricherWithDbHostWoPgStatStatement</text><text fill="#808080" font-family="sans-serif" font-size="13" lengthAdjust="spacing" textLength="52.5142" x="322.7959" y="62.3638">16.7 ms</text><polygon fill="#181818" points="563.2363,92.5625,573.2363,96.5625,563.2363,100.5625,567.2363,96.5625" style="stroke:#181818;stroke-width:1.0;"/><line style="stroke:#181818;stroke-width:1.0;" x1="397.3101" x2="569.2363" y1="96.5625" y2="96.5625"/><text fill="#000000" font-family="sans-serif" font-size="13" lengthAdjust="spacing" textLength="98.1475" x="404.3101" y="91.4966">initLogEnricher</text><text fill="#808080" font-family="sans-serif" font-size="13" lengthAdjust="spacing" textLength="52.5142" x="510.7222" y="91.4966">14.6 ms</text><polygon fill="#181818" points="1155.1147,124.6953,1165.1147,128.6953,1155.1147,132.6953,1159.1147,128.6953" style="stroke:#181818;stroke-width:1.0;"/><line style="stroke:#181818;stroke-width:1.0;" x1="585.2363" x2="1161.1147" y1="128.6953" y2="128.6953"/><text fill="#000000" font-family="sans-serif" font-size="13" lengthAdjust="spacing" textLength="345.0967" x="592.2363" y="123.6294">select query from pg_stat_statements where queryid</text><text fill="#808080" font-family="sans-serif" font-size="13" lengthAdjust="spacing" textLength="69.0562" x="945.5977" y="123.6294">0.0345 ms</text><path d="M1172,109.5625 L1172,134.5625 L1555,134.5625 L1555,119.5625 L1545,109.5625 L1172,109.5625 " fill="#FEFFDD" style="stroke:#181818;stroke-width:0.5;"/><path d="M1545,109.5625 L1545,119.5625 L1555,119.5625 L1545,109.5625 " fill="#FEFFDD" style="stroke:#181818;stroke-width:0.5;"/><text fill="#000000" font-family="sans-serif" font-size="13" lengthAdjust="spacing" textLength="362.8892" x="1178" y="126.6294">select query from pg_stat_statements where queryid=?</text><polygon fill="#181818" points="742.771,156.8281,752.771,160.8281,742.771,164.8281,746.771,160.8281" style="stroke:#181818;stroke-width:1.0;"/><line style="stroke:#181818;stroke-width:1.0;" x1="585.2363" x2="748.771" y1="160.8281" y2="160.8281"/><text fill="#000000" font-family="sans-serif" font-size="13" lengthAdjust="spacing" textLength="89.7559" x="592.2363" y="155.7622">getStatement</text><text fill="#808080" font-family="sans-serif" font-size="13" lengthAdjust="spacing" textLength="52.5142" x="690.2568" y="155.7622">5.67 ms</text><polygon fill="#181818" points="596.2363,185.9609,586.2363,189.9609,596.2363,193.9609,592.2363,189.9609" style="stroke:#181818;stroke-width:1.0;"/><line style="stroke:#181818;stroke-width:1.0;stroke-dasharray:2.0,2.0;" x1="590.2363" x2="758.771" y1="189.9609" y2="189.9609"/><text fill="#000000" font-family="sans-serif" font-size="13" font-style="italic" lengthAdjust="spacing" textLength="69.2021" x="602.2363" y="184.895">exception!</text><polygon fill="#181818" points="408.3101,215.0938,398.3101,219.0938,408.3101,223.0938,404.3101,219.0938" style="stroke:#181818;stroke-width:1.0;"/><line style="stroke:#181818;stroke-width:1.0;stroke-dasharray:2.0,2.0;" x1="402.3101" x2="579.2363" y1="219.0938" y2="219.0938"/><text fill="#000000" font-family="sans-serif" font-size="13" font-style="italic" lengthAdjust="spacing" textLength="69.2021" x="414.3101" y="214.0278">exception!</text><polygon fill="#181818" points="11,244.2266,1,248.2266,11,252.2266,7,248.2266" style="stroke:#181818;stroke-width:1.0;"/><line style="stroke:#181818;stroke-width:1.0;stroke-dasharray:2.0,2.0;" x1="5" x2="391.3101" y1="248.2266" y2="248.2266"/><text fill="#000000" font-family="sans-serif" font-size="13" lengthAdjust="spacing" textLength="27.5107" x="17" y="243.1606">void</text><polygon fill="#181818" points="906.5967,273.3594,916.5967,277.3594,906.5967,281.3594,910.5967,277.3594" style="stroke:#181818;stroke-width:1.0;"/><line style="stroke:#181818;stroke-width:1.0;" x1="0" x2="912.5967" y1="277.3594" y2="277.3594"/><text fill="#000000" font-family="sans-serif" font-size="13" lengthAdjust="spacing" textLength="21.8232" x="7" y="272.2935">run</text><text fill="#808080" font-family="sans-serif" font-size="13" lengthAdjust="spacing" textLength="69.0562" x="37.0879" y="272.2935">0.0738 ms</text><polygon fill="#181818" points="596.2363,302.4922,586.2363,306.4922,596.2363,310.4922,592.2363,306.4922" style="stroke:#181818;stroke-width:1.0;"/><line style="stroke:#181818;stroke-width:1.0;" x1="590.2363" x2="917.5967" y1="306.4922" y2="306.4922"/><text fill="#000000" font-family="sans-serif" font-size="13" lengthAdjust="spacing" textLength="134.4307" x="602.2363" y="301.4263">saveLogFilesPosition</text><text fill="#808080" font-family="sans-serif" font-size="13" lengthAdjust="spacing" textLength="69.0562" x="744.9316" y="301.4263">0.0566 ms</text><polygon fill="#181818" points="906.5967,331.625,916.5967,335.625,906.5967,339.625,910.5967,335.625" style="stroke:#181818;stroke-width:1.0;"/><line style="stroke:#181818;stroke-width:1.0;stroke-dasharray:2.0,2.0;" x1="580.2363" x2="912.5967" y1="335.625" y2="335.625"/><text fill="#000000" font-family="sans-serif" font-size="13" lengthAdjust="spacing" textLength="27.5107" x="587.2363" y="330.5591">void</text><polygon fill="#181818" points="11,360.7578,1,364.7578,11,368.7578,7,364.7578" style="stroke:#181818;stroke-width:1.0;"/><line style="stroke:#181818;stroke-width:1.0;stroke-dasharray:2.0,2.0;" x1="5" x2="922.5967" y1="364.7578" y2="364.7578"/><text fill="#000000" font-family="sans-serif" font-size="13" lengthAdjust="spacing" textLength="27.5107" x="17" y="359.6919">void</text><polygon fill="#181818" points="563.2363,389.8906,573.2363,393.8906,563.2363,397.8906,567.2363,393.8906" style="stroke:#181818;stroke-width:1.0;"/><line style="stroke:#181818;stroke-width:1.0;" x1="0" x2="569.2363" y1="393.8906" y2="393.8906"/><text fill="#000000" font-family="sans-serif" font-size="13" lengthAdjust="spacing" textLength="33.4839" x="7" y="388.8247">close</text><text fill="#808080" font-family="sans-serif" font-size="13" lengthAdjust="spacing" textLength="69.0562" x="48.7485" y="388.8247">0.0355 ms</text><polygon fill="#181818" points="1042.002,419.0234,1052.002,423.0234,1042.002,427.0234,1046.002,423.0234" style="stroke:#181818;stroke-width:1.0;"/><line style="stroke:#181818;stroke-width:1.0;" x1="585.2363" x2="1048.002" y1="423.0234" y2="423.0234"/><text fill="#000000" font-family="sans-serif" font-size="13" lengthAdjust="spacing" textLength="33.4839" x="592.2363" y="417.9575">close</text><text fill="#808080" font-family="sans-serif" font-size="13" lengthAdjust="spacing" textLength="60.7852" x="633.9849" y="417.9575">0.016 ms</text><polygon fill="#181818" points="596.2363,448.1563,586.2363,452.1563,596.2363,456.1563,592.2363,452.1563" style="stroke:#181818;stroke-width:1.0;"/><line style="stroke:#181818;stroke-width:1.0;stroke-dasharray:2.0,2.0;" x1="590.2363" x2="1058.002" y1="452.1563" y2="452.1563"/><text fill="#000000" font-family="sans-serif" font-size="13" lengthAdjust="spacing" textLength="27.5107" x="602.2363" y="447.0903">void</text><polygon fill="#181818" points="11,477.2891,1,481.2891,11,485.2891,7,481.2891" style="stroke:#181818;stroke-width:1.0;"/><line style="stroke:#181818;stroke-width:1.0;stroke-dasharray:2.0,2.0;" x1="5" x2="579.2363" y1="481.2891" y2="481.2891"/><text fill="#000000" font-family="sans-serif" font-size="13" lengthAdjust="spacing" textLength="27.5107" x="17" y="476.2231">void</text><!--SRC=[bLHDJyCm3BttLvY9QyS-w8QgKYw044A0D2GEFKoXoxf8NT8bOS2_9oiRQ-8KjaChrNdsUtwnMn6fMSugmZKyYEA6IvOlbfJh5weq40KT5Eq4LIFfMIXTI3fPbVTAy3h33jdmtsfKxc4sJ_FaBwxfmCDsEh1JzjAVvlCQRqLiy3NHv8qeMkDs7vq080jJP4CCZ3FTKFtAzEBwxSx8UHNFnKGJlNde1Wz9BaeXuqAIhnJwe-uObYevguEfgKzopTO6Yw_070AEXgdTDTBY49vtHpPXWzAkL9-14mpJdHanA5hINCFgdSelc4knXAgOAjDe_QgxLV1X9D0V39lPMdhTtl0ySjK0F0gZHR9YeOFZAIwljbLk-0ougTJIXdV6OYXesrL5tT4OQyNNrQpdvKx2i8KyOIdzp6cbcU0doHdRaSpe0JHeCWoFEnf-WaPvD05PK-r-tjU2pGA_iCQuPkvmJWSno7UEnc0yl6ZP0ZS_m7vE1tW755bJe-YMbLIPCxPf6B56ewDMmMNr-BkrvNzBiItOKK_h6UuqBuNvIw6zYgA330rygs7z5jiO-ktUMVc1Tm4S2fzlRfMitUzMqxu1]--></g></svg>