<svg xmlns="http://www.w3.org/2000/svg" xmlns:xlink="http://www.w3.org/1999/xlink" contentStyleType="text/css" height="410px" preserveAspectRatio="none" style="width:681px;height:410px;background:#000000;" version="1.1" viewBox="0 0 681 410" width="681px" zoomAndPan="magnify"><defs/><g><rect fill="none" height="265.7813" style="stroke:#999999;stroke-width:1.0;" width="10" x="136.5547" y="83.9375"/><rect fill="none" height="189.8438" style="stroke:#999999;stroke-width:1.0;" width="10" x="352.165" y="121.9063"/><rect fill="none" height="37.9688" style="stroke:#999999;stroke-width:1.0;" width="10" x="614.7646" y="159.875"/><rect fill="none" height="37.9688" style="stroke:#999999;stroke-width:1.0;" width="10" x="614.7646" y="235.8125"/><line style="stroke:#999999;stroke-width:0.5;stroke-dasharray:5.0,5.0;" x1="141.332" x2="141.332" y1="43.9688" y2="367.7188"/><line style="stroke:#999999;stroke-width:0.5;stroke-dasharray:5.0,5.0;" x1="356.7773" x2="356.7773" y1="43.9688" y2="367.7188"/><line style="stroke:#999999;stroke-width:0.5;stroke-dasharray:5.0,5.0;" x1="619.2969" x2="619.2969" y1="43.9688" y2="367.7188"/><rect fill="#555555" height="37.9688" rx="4" ry="4" style="stroke:#555555;stroke-width:1.0;" width="138.4453" x="72.332" y="5"/><text fill="#FFFFFF" font-family="Verdana" font-size="12" lengthAdjust="spacing" textLength="114.4453" x="84.332" y="28.1387">PostgreSqlJsonTest</text><rect fill="#555555" height="37.9688" rx="4" ry="4" style="stroke:#555555;stroke-width:1.0;" width="138.4453" x="72.332" y="366.7188"/><text fill="#FFFFFF" font-family="Verdana" font-size="12" lengthAdjust="spacing" textLength="114.4453" x="84.332" y="389.8574">PostgreSqlJsonTest</text><rect fill="#555555" height="37.9688" rx="4" ry="4" style="stroke:#555555;stroke-width:1.0;" width="112.7754" x="300.7773" y="5"/><text fill="#FFFFFF" font-family="Verdana" font-size="12" lengthAdjust="spacing" textLength="88.7754" x="312.7773" y="28.1387">PostgreSqlJson</text><rect fill="#555555" height="37.9688" rx="4" ry="4" style="stroke:#555555;stroke-width:1.0;" width="112.7754" x="300.7773" y="366.7188"/><text fill="#FFFFFF" font-family="Verdana" font-size="12" lengthAdjust="spacing" textLength="88.7754" x="312.7773" y="389.8574">PostgreSqlJson</text><rect fill="#555555" height="37.9688" rx="4" ry="4" style="stroke:#555555;stroke-width:1.0;" width="110.9355" x="564.2969" y="5"/><text fill="#FFFFFF" font-family="Verdana" font-size="12" lengthAdjust="spacing" textLength="86.9355" x="576.2969" y="28.1387">EnrichmentOff</text><rect fill="#555555" height="37.9688" rx="4" ry="4" style="stroke:#555555;stroke-width:1.0;" width="110.9355" x="564.2969" y="366.7188"/><text fill="#FFFFFF" font-family="Verdana" font-size="12" lengthAdjust="spacing" textLength="86.9355" x="576.2969" y="389.8574">EnrichmentOff</text><rect fill="none" height="265.7813" style="stroke:#999999;stroke-width:1.0;" width="10" x="136.5547" y="83.9375"/><rect fill="none" height="189.8438" style="stroke:#999999;stroke-width:1.0;" width="10" x="352.165" y="121.9063"/><rect fill="none" height="37.9688" style="stroke:#999999;stroke-width:1.0;" width="10" x="614.7646" y="159.875"/><rect fill="none" height="37.9688" style="stroke:#999999;stroke-width:1.0;" width="10" x="614.7646" y="235.8125"/><polygon fill="#4362B1" points="124.5547,79.9375,134.5547,83.9375,124.5547,87.9375,128.5547,83.9375" style="stroke:#4362B1;stroke-width:1.0;"/><line style="stroke:#4362B1;stroke-width:3.0;" x1="0" x2="130.5547" y1="83.9375" y2="83.9375"/><text fill="#FFFFFF" font-family="Verdana" font-size="12" lengthAdjust="spacing" textLength="51.4512" x="12" y="74.1074">logParse</text><text fill="#808080" font-family="Verdana" font-size="12" lengthAdjust="spacing" textLength="48.4746" x="71.0801" y="74.1074">0.12 ms</text><polygon fill="#4362B1" points="340.165,117.9063,350.165,121.9063,340.165,125.9063,344.165,121.9063" style="stroke:#4362B1;stroke-width:1.0;"/><line style="stroke:#4362B1;stroke-width:3.0;" x1="146.5547" x2="346.165" y1="121.9063" y2="121.9063"/><text fill="#FFFFFF" font-family="Verdana" font-size="12" lengthAdjust="spacing" textLength="80.1914" x="158.5547" y="112.0762">parseLogLine</text><text fill="#808080" font-family="Verdana" font-size="12" lengthAdjust="spacing" textLength="56.1094" x="246.375" y="112.0762">0.103 ms</text><polygon fill="#4362B1" points="602.7646,155.875,612.7646,159.875,602.7646,163.875,606.7646,159.875" style="stroke:#4362B1;stroke-width:1.0;"/><line style="stroke:#4362B1;stroke-width:3.0;" x1="362.165" x2="608.7646" y1="159.875" y2="159.875"/><text fill="#FFFFFF" font-family="Verdana" font-size="12" lengthAdjust="spacing" textLength="152.2266" x="374.165" y="150.0449">enricherApplicationName</text><text fill="#808080" font-family="Verdana" font-size="12" lengthAdjust="spacing" textLength="63.7441" x="534.0205" y="150.0449">0.0145 ms</text><polygon fill="#4362B1" points="373.165,193.8438,363.165,197.8438,373.165,201.8438,369.165,197.8438" style="stroke:#4362B1;stroke-width:1.0;"/><line style="stroke:#4362B1;stroke-width:3.0;stroke-dasharray:2.0,2.0;" x1="367.165" x2="618.7646" y1="197.8438" y2="197.8438"/><text fill="#FFFFFF" font-family="Verdana" font-size="12" lengthAdjust="spacing" textLength="25.3945" x="384.165" y="188.0137">void</text><polygon fill="#4362B1" points="602.7646,231.8125,612.7646,235.8125,602.7646,239.8125,606.7646,235.8125" style="stroke:#4362B1;stroke-width:1.0;"/><line style="stroke:#4362B1;stroke-width:3.0;" x1="362.165" x2="608.7646" y1="235.8125" y2="235.8125"/><text fill="#FFFFFF" font-family="Verdana" font-size="12" lengthAdjust="spacing" textLength="82.8516" x="374.165" y="225.9824">getStatement</text><text fill="#808080" font-family="Verdana" font-size="12" lengthAdjust="spacing" textLength="71.3789" x="464.6455" y="225.9824">0.00561 ms</text><polygon fill="#4362B1" points="373.165,269.7813,363.165,273.7813,373.165,277.7813,369.165,273.7813" style="stroke:#4362B1;stroke-width:1.0;"/><line style="stroke:#4362B1;stroke-width:3.0;stroke-dasharray:2.0,2.0;" x1="367.165" x2="618.7646" y1="273.7813" y2="273.7813"/><text fill="#FFFFFF" font-family="Verdana" font-size="12" lengthAdjust="spacing" textLength="25.3945" x="384.165" y="263.9512">void</text><polygon fill="#4362B1" points="157.5547,307.75,147.5547,311.75,157.5547,315.75,153.5547,311.75" style="stroke:#4362B1;stroke-width:1.0;"/><line style="stroke:#4362B1;stroke-width:3.0;stroke-dasharray:2.0,2.0;" x1="151.5547" x2="356.165" y1="311.75" y2="311.75"/><text fill="#FFFFFF" font-family="Verdana" font-size="12" lengthAdjust="spacing" textLength="25.3945" x="168.5547" y="301.9199">void</text><polygon fill="#4362B1" points="11,345.7188,1,349.7188,11,353.7188,7,349.7188" style="stroke:#4362B1;stroke-width:1.0;"/><line style="stroke:#4362B1;stroke-width:3.0;stroke-dasharray:2.0,2.0;" x1="5" x2="140.5547" y1="349.7188" y2="349.7188"/><text fill="#FFFFFF" font-family="Verdana" font-size="12" lengthAdjust="spacing" textLength="25.3945" x="22" y="339.8887">void</text><!--SRC=[nP8_JyCm4CNtVegZU-8KA4CKHM9WGHLKAbiduruJI_w7VIdYs-Ec5MhY58c9qU_Ukz-TpZVI2DNjiFCAMY8NIiOy_ymRIMtttWNqmXf2GxcmcZL8t3dD7NEA6-gqogX5ZKnpQTYfT59o5uipnpr98Ltqmje6QZnkFjHpiEOD0m4FC4_b-I-nYSZG_cIy5AsE0x_kzxrxeCnd0DkiJg4bADkikGy8bR3A-hBn_Ak68b_SWWuLwyKwnhaWUU244ml5Aap8Oru9xWXQsMObJSehxeR0gyY-DWPczM3X4h1_edzqJad1ILhpmdM2BHRtop7tWZneEWckicn4FbYvErjt-8TEoGhnssqePez2CdUnV5Zyq-3fgMElyQr_cbsqIkwuJOAdJtaENuqUNTy0]--></g></svg>