<svg xmlns="http://www.w3.org/2000/svg" xmlns:xlink="http://www.w3.org/1999/xlink" contentStyleType="text/css" height="410px" preserveAspectRatio="none" style="width:736px;height:410px;background:#000000;" version="1.1" viewBox="0 0 736 410" width="736px" zoomAndPan="magnify"><defs/><g><rect fill="none" height="265.7813" style="stroke:#999999;stroke-width:1.0;" width="10" x="241.8008" y="83.9375"/><rect fill="none" height="37.9688" style="stroke:#999999;stroke-width:1.0;" width="10" x="468.6289" y="121.9063"/><rect fill="none" height="113.9063" style="stroke:#999999;stroke-width:1.0;" width="10" x="468.6289" y="197.8438"/><rect fill="none" height="37.9688" style="stroke:#999999;stroke-width:1.0;" width="10" x="670.4844" y="235.8125"/><line style="stroke:#999999;stroke-width:0.5;stroke-dasharray:5.0,5.0;" x1="245.9658" x2="245.9658" y1="43.9688" y2="367.7188"/><line style="stroke:#999999;stroke-width:0.5;stroke-dasharray:5.0,5.0;" x1="473.2412" x2="473.2412" y1="43.9688" y2="367.7188"/><line style="stroke:#999999;stroke-width:0.5;stroke-dasharray:5.0,5.0;" x1="675.0166" x2="675.0166" y1="43.9688" y2="367.7188"/><rect fill="#555555" height="37.9688" rx="4" ry="4" style="stroke:#555555;stroke-width:1.0;" width="145.6699" x="173.9658" y="5"/><text fill="#FFFFFF" font-family="Verdana" font-size="12" lengthAdjust="spacing" textLength="121.6699" x="185.9658" y="28.1387">LogFilesPositionTest</text><rect fill="#555555" height="37.9688" rx="4" ry="4" style="stroke:#555555;stroke-width:1.0;" width="145.6699" x="173.9658" y="366.7188"/><text fill="#FFFFFF" font-family="Verdana" font-size="12" lengthAdjust="spacing" textLength="121.6699" x="185.9658" y="389.8574">LogFilesPositionTest</text><rect fill="#555555" height="37.9688" rx="4" ry="4" style="stroke:#555555;stroke-width:1.0;" width="112.7754" x="417.2412" y="5"/><text fill="#FFFFFF" font-family="Verdana" font-size="12" lengthAdjust="spacing" textLength="88.7754" x="429.2412" y="28.1387">PostgreSqlJson</text><rect fill="#555555" height="37.9688" rx="4" ry="4" style="stroke:#555555;stroke-width:1.0;" width="112.7754" x="417.2412" y="366.7188"/><text fill="#FFFFFF" font-family="Verdana" font-size="12" lengthAdjust="spacing" textLength="88.7754" x="429.2412" y="389.8574">PostgreSqlJson</text><rect fill="#555555" height="37.9688" rx="4" ry="4" style="stroke:#555555;stroke-width:1.0;" width="110.9355" x="620.0166" y="5"/><text fill="#FFFFFF" font-family="Verdana" font-size="12" lengthAdjust="spacing" textLength="86.9355" x="632.0166" y="28.1387">EnrichmentOff</text><rect fill="#555555" height="37.9688" rx="4" ry="4" style="stroke:#555555;stroke-width:1.0;" width="110.9355" x="620.0166" y="366.7188"/><text fill="#FFFFFF" font-family="Verdana" font-size="12" lengthAdjust="spacing" textLength="86.9355" x="632.0166" y="389.8574">EnrichmentOff</text><rect fill="none" height="265.7813" style="stroke:#999999;stroke-width:1.0;" width="10" x="241.8008" y="83.9375"/><rect fill="none" height="37.9688" style="stroke:#999999;stroke-width:1.0;" width="10" x="468.6289" y="121.9063"/><rect fill="none" height="113.9063" style="stroke:#999999;stroke-width:1.0;" width="10" x="468.6289" y="197.8438"/><rect fill="none" height="37.9688" style="stroke:#999999;stroke-width:1.0;" width="10" x="670.4844" y="235.8125"/><polygon fill="#4362B1" points="229.8008,79.9375,239.8008,83.9375,229.8008,87.9375,233.8008,83.9375" style="stroke:#4362B1;stroke-width:1.0;"/><line style="stroke:#4362B1;stroke-width:3.0;" x1="0" x2="235.8008" y1="83.9375" y2="83.9375"/><text fill="#FFFFFF" font-family="Verdana" font-size="12" lengthAdjust="spacing" textLength="156.6973" x="12" y="74.1074">savePositionToInvalidPath</text><text fill="#808080" font-family="Verdana" font-size="12" lengthAdjust="spacing" textLength="48.4746" x="176.3262" y="74.1074">0.93 ms</text><polygon fill="#4362B1" points="456.6289,117.9063,466.6289,121.9063,456.6289,125.9063,460.6289,121.9063" style="stroke:#4362B1;stroke-width:1.0;"/><line style="stroke:#4362B1;stroke-width:3.0;" x1="251.8008" x2="462.6289" y1="121.9063" y2="121.9063"/><text fill="#FFFFFF" font-family="Verdana" font-size="12" lengthAdjust="spacing" textLength="124.0898" x="263.8008" y="112.0762">saveLogFilesPosition</text><text fill="#808080" font-family="Verdana" font-size="12" lengthAdjust="spacing" textLength="56.1094" x="395.5195" y="112.0762">0.132 ms</text><polygon fill="#4362B1" points="262.8008,155.875,252.8008,159.875,262.8008,163.875,258.8008,159.875" style="stroke:#4362B1;stroke-width:1.0;"/><line style="stroke:#4362B1;stroke-width:3.0;stroke-dasharray:2.0,2.0;" x1="256.8008" x2="472.6289" y1="159.875" y2="159.875"/><text fill="#FFFFFF" font-family="Verdana" font-size="12" lengthAdjust="spacing" textLength="25.3945" x="273.8008" y="150.0449">void</text><polygon fill="#4362B1" points="456.6289,193.8438,466.6289,197.8438,456.6289,201.8438,460.6289,197.8438" style="stroke:#4362B1;stroke-width:1.0;"/><line style="stroke:#4362B1;stroke-width:3.0;" x1="251.8008" x2="462.6289" y1="197.8438" y2="197.8438"/><text fill="#FFFFFF" font-family="Verdana" font-size="12" lengthAdjust="spacing" textLength="30.9082" x="263.8008" y="188.0137">close</text><text fill="#808080" font-family="Verdana" font-size="12" lengthAdjust="spacing" textLength="63.7441" x="302.3379" y="188.0137">0.0569 ms</text><polygon fill="#4362B1" points="658.4844,231.8125,668.4844,235.8125,658.4844,239.8125,662.4844,235.8125" style="stroke:#4362B1;stroke-width:1.0;"/><line style="stroke:#4362B1;stroke-width:3.0;" x1="478.6289" x2="664.4844" y1="235.8125" y2="235.8125"/><text fill="#FFFFFF" font-family="Verdana" font-size="12" lengthAdjust="spacing" textLength="30.9082" x="490.6289" y="225.9824">close</text><text fill="#808080" font-family="Verdana" font-size="12" lengthAdjust="spacing" textLength="63.7441" x="529.166" y="225.9824">0.0215 ms</text><polygon fill="#4362B1" points="489.6289,269.7813,479.6289,273.7813,489.6289,277.7813,485.6289,273.7813" style="stroke:#4362B1;stroke-width:1.0;"/><line style="stroke:#4362B1;stroke-width:3.0;stroke-dasharray:2.0,2.0;" x1="483.6289" x2="674.4844" y1="273.7813" y2="273.7813"/><text fill="#FFFFFF" font-family="Verdana" font-size="12" lengthAdjust="spacing" textLength="25.3945" x="500.6289" y="263.9512">void</text><polygon fill="#4362B1" points="262.8008,307.75,252.8008,311.75,262.8008,315.75,258.8008,311.75" style="stroke:#4362B1;stroke-width:1.0;"/><line style="stroke:#4362B1;stroke-width:3.0;stroke-dasharray:2.0,2.0;" x1="256.8008" x2="472.6289" y1="311.75" y2="311.75"/><text fill="#FFFFFF" font-family="Verdana" font-size="12" lengthAdjust="spacing" textLength="25.3945" x="273.8008" y="301.9199">void</text><polygon fill="#4362B1" points="11,345.7188,1,349.7188,11,353.7188,7,349.7188" style="stroke:#4362B1;stroke-width:1.0;"/><line style="stroke:#4362B1;stroke-width:3.0;stroke-dasharray:2.0,2.0;" x1="5" x2="245.8008" y1="349.7188" y2="349.7188"/><text fill="#FFFFFF" font-family="Verdana" font-size="12" lengthAdjust="spacing" textLength="25.3945" x="22" y="339.8887">void</text><!--SRC=[hPBBQiCm44Nt-GerUrjva492y2w5ba83xIuhLPxO0hqgZLtwznLs2PQYB0BTtdjdpin83q9psTNGEKbQHEjtb3hsNJO2s-wpy-2uqGWQIsuKRG2PjOfPQYNJs2bPO0iAg692qz4QbT86SsQPGy653LdoQfed8S4VZHSeZFu0ZuHvCiyPywWqEDWuUF-IBzxeeIYMulX1Ey5R5OP-Ev-7TAJCPuISYYg7tH7FUhWevbdtJ8hwoB0bUswaSRl6iP-ABChjcYY_fuDOXOwCe-WPGdRFu9EiKLJn8kC0QJ9bBzUh63x1n_rkWlT5aP9x8-eXNyEztQxNuD9uIETUR1wtzmnE4h6eeeUyHLajDobbmebQP37XDWddSfheEDUT_lFIfr2O_wD_vPFYNEuN]--></g></svg>