<svg xmlns="http://www.w3.org/2000/svg" xmlns:xlink="http://www.w3.org/1999/xlink" contentStyleType="text/css" height="441px" preserveAspectRatio="none" style="width:749px;height:441px;background:#FFFFFF;" version="1.1" viewBox="0 0 749 441" width="749px" zoomAndPan="magnify"><defs/><g><rect fill="#FFFFFF" height="203.9297" style="stroke:#181818;stroke-width:1.0;" width="10" x="186.8193" y="67.4297"/><rect fill="#FFFFFF" height="29.1328" style="stroke:#181818;stroke-width:1.0;" width="10" x="396.042" y="96.5625"/><rect fill="#FFFFFF" height="87.3984" style="stroke:#181818;stroke-width:1.0;" width="10" x="396.042" y="154.8281"/><rect fill="#FFFFFF" height="29.1328" style="stroke:#181818;stroke-width:1.0;" width="10" x="396.042" y="329.625"/><rect fill="#FFFFFF" height="29.1328" style="stroke:#181818;stroke-width:1.0;" width="10" x="535.8467" y="183.9609"/><rect fill="#FFFFFF" height="87.3984" style="stroke:#181818;stroke-width:1.0;" width="10" x="671.252" y="300.4922"/><line style="stroke:#181818;stroke-width:0.5;stroke-dasharray:5.0,5.0;" x1="190.8452" x2="190.8452" y1="36.2969" y2="405.8906"/><line style="stroke:#181818;stroke-width:0.5;stroke-dasharray:5.0,5.0;" x1="400.2563" x2="400.2563" y1="36.2969" y2="405.8906"/><line style="stroke:#181818;stroke-width:0.5;stroke-dasharray:5.0,5.0;" x1="540.1343" x2="540.1343" y1="36.2969" y2="405.8906"/><line style="stroke:#181818;stroke-width:0.5;stroke-dasharray:5.0,5.0;" x1="675.5591" x2="675.5591" y1="36.2969" y2="405.8906"/><rect fill="#E2E2F0" height="30.2969" rx="2.5" ry="2.5" style="stroke:#181818;stroke-width:0.5;" width="155.9482" x="113.8452" y="5"/><text fill="#000000" font-family="sans-serif" font-size="14" lengthAdjust="spacing" textLength="141.9482" x="120.8452" y="24.9951">LogFilesPositionTest</text><rect fill="#E2E2F0" height="30.2969" rx="2.5" ry="2.5" style="stroke:#181818;stroke-width:0.5;" width="155.9482" x="113.8452" y="404.8906"/><text fill="#000000" font-family="sans-serif" font-size="14" lengthAdjust="spacing" textLength="141.9482" x="120.8452" y="424.8857">LogFilesPositionTest</text><rect fill="#E2E2F0" height="30.2969" rx="2.5" ry="2.5" style="stroke:#181818;stroke-width:0.5;" width="117.5713" x="342.2563" y="5"/><text fill="#000000" font-family="sans-serif" font-size="14" lengthAdjust="spacing" textLength="103.5713" x="349.2563" y="24.9951">PostgreSqlJson</text><rect fill="#E2E2F0" height="30.2969" rx="2.5" ry="2.5" style="stroke:#181818;stroke-width:0.5;" width="117.5713" x="342.2563" y="404.8906"/><text fill="#000000" font-family="sans-serif" font-size="14" lengthAdjust="spacing" textLength="103.5713" x="349.2563" y="424.8857">PostgreSqlJson</text><rect fill="#E2E2F0" height="30.2969" rx="2.5" ry="2.5" style="stroke:#181818;stroke-width:0.5;" width="115.4248" x="483.1343" y="5"/><text fill="#000000" font-family="sans-serif" font-size="14" lengthAdjust="spacing" textLength="101.4248" x="490.1343" y="24.9951">EnrichmentOff</text><rect fill="#E2E2F0" height="30.2969" rx="2.5" ry="2.5" style="stroke:#181818;stroke-width:0.5;" width="115.4248" x="483.1343" y="404.8906"/><text fill="#000000" font-family="sans-serif" font-size="14" lengthAdjust="spacing" textLength="101.4248" x="490.1343" y="424.8857">EnrichmentOff</text><rect fill="#E2E2F0" height="30.2969" rx="2.5" ry="2.5" style="stroke:#181818;stroke-width:0.5;" width="135.3857" x="608.5591" y="5"/><text fill="#000000" font-family="sans-serif" font-size="14" lengthAdjust="spacing" textLength="121.3857" x="615.5591" y="24.9951">PostgreSqlJson$2</text><rect fill="#E2E2F0" height="30.2969" rx="2.5" ry="2.5" style="stroke:#181818;stroke-width:0.5;" width="135.3857" x="608.5591" y="404.8906"/><text fill="#000000" font-family="sans-serif" font-size="14" lengthAdjust="spacing" textLength="121.3857" x="615.5591" y="424.8857">PostgreSqlJson$2</text><rect fill="#FFFFFF" height="203.9297" style="stroke:#181818;stroke-width:1.0;" width="10" x="186.8193" y="67.4297"/><rect fill="#FFFFFF" height="29.1328" style="stroke:#181818;stroke-width:1.0;" width="10" x="396.042" y="96.5625"/><rect fill="#FFFFFF" height="87.3984" style="stroke:#181818;stroke-width:1.0;" width="10" x="396.042" y="154.8281"/><rect fill="#FFFFFF" height="29.1328" style="stroke:#181818;stroke-width:1.0;" width="10" x="396.042" y="329.625"/><rect fill="#FFFFFF" height="29.1328" style="stroke:#181818;stroke-width:1.0;" width="10" x="535.8467" y="183.9609"/><rect fill="#FFFFFF" height="87.3984" style="stroke:#181818;stroke-width:1.0;" width="10" x="671.252" y="300.4922"/><polygon fill="#181818" points="174.8193,63.4297,184.8193,67.4297,174.8193,71.4297,178.8193,67.4297" style="stroke:#181818;stroke-width:1.0;"/><line style="stroke:#181818;stroke-width:1.0;" x1="0" x2="180.8193" y1="67.4297" y2="67.4297"/><text fill="#000000" font-family="sans-serif" font-size="13" lengthAdjust="spacing" textLength="111.1729" x="7" y="62.3638">positionFileTasks</text><text fill="#808080" font-family="sans-serif" font-size="13" lengthAdjust="spacing" textLength="48.3818" x="126.4375" y="62.3638">111 ms</text><polygon fill="#181818" points="384.042,92.5625,394.042,96.5625,384.042,100.5625,388.042,96.5625" style="stroke:#181818;stroke-width:1.0;"/><line style="stroke:#181818;stroke-width:1.0;" x1="196.8193" x2="390.042" y1="96.5625" y2="96.5625"/><text fill="#000000" font-family="sans-serif" font-size="13" lengthAdjust="spacing" textLength="111.1729" x="203.8193" y="91.4966">positionFileTasks</text><text fill="#808080" font-family="sans-serif" font-size="13" lengthAdjust="spacing" textLength="60.7852" x="323.2568" y="91.4966">0.509 ms</text><polygon fill="#181818" points="207.8193,121.6953,197.8193,125.6953,207.8193,129.6953,203.8193,125.6953" style="stroke:#181818;stroke-width:1.0;"/><line style="stroke:#181818;stroke-width:1.0;stroke-dasharray:2.0,2.0;" x1="201.8193" x2="400.042" y1="125.6953" y2="125.6953"/><text fill="#000000" font-family="sans-serif" font-size="13" lengthAdjust="spacing" textLength="109.313" x="213.8193" y="120.6294">java.lang.Thread</text><polygon fill="#181818" points="384.042,150.8281,394.042,154.8281,384.042,158.8281,388.042,154.8281" style="stroke:#181818;stroke-width:1.0;"/><line style="stroke:#181818;stroke-width:1.0;" x1="196.8193" x2="390.042" y1="154.8281" y2="154.8281"/><text fill="#000000" font-family="sans-serif" font-size="13" lengthAdjust="spacing" textLength="33.4839" x="203.8193" y="149.7622">close</text><text fill="#808080" font-family="sans-serif" font-size="13" lengthAdjust="spacing" textLength="69.0562" x="245.5679" y="149.7622">0.0955 ms</text><polygon fill="#181818" points="523.8467,179.9609,533.8467,183.9609,523.8467,187.9609,527.8467,183.9609" style="stroke:#181818;stroke-width:1.0;"/><line style="stroke:#181818;stroke-width:1.0;" x1="406.042" x2="529.8467" y1="183.9609" y2="183.9609"/><text fill="#000000" font-family="sans-serif" font-size="13" lengthAdjust="spacing" textLength="33.4839" x="413.042" y="178.895">close</text><text fill="#808080" font-family="sans-serif" font-size="13" lengthAdjust="spacing" textLength="69.0562" x="454.7905" y="178.895">0.0236 ms</text><polygon fill="#181818" points="417.042,209.0938,407.042,213.0938,417.042,217.0938,413.042,213.0938" style="stroke:#181818;stroke-width:1.0;"/><line style="stroke:#181818;stroke-width:1.0;stroke-dasharray:2.0,2.0;" x1="411.042" x2="539.8467" y1="213.0938" y2="213.0938"/><text fill="#000000" font-family="sans-serif" font-size="13" lengthAdjust="spacing" textLength="27.5107" x="423.042" y="208.0278">void</text><polygon fill="#181818" points="207.8193,238.2266,197.8193,242.2266,207.8193,246.2266,203.8193,242.2266" style="stroke:#181818;stroke-width:1.0;"/><line style="stroke:#181818;stroke-width:1.0;stroke-dasharray:2.0,2.0;" x1="201.8193" x2="400.042" y1="242.2266" y2="242.2266"/><text fill="#000000" font-family="sans-serif" font-size="13" lengthAdjust="spacing" textLength="27.5107" x="213.8193" y="237.1606">void</text><polygon fill="#181818" points="11,267.3594,1,271.3594,11,275.3594,7,271.3594" style="stroke:#181818;stroke-width:1.0;"/><line style="stroke:#181818;stroke-width:1.0;stroke-dasharray:2.0,2.0;" x1="5" x2="190.8193" y1="271.3594" y2="271.3594"/><text fill="#000000" font-family="sans-serif" font-size="13" lengthAdjust="spacing" textLength="27.5107" x="17" y="266.2935">void</text><polygon fill="#181818" points="659.252,296.4922,669.252,300.4922,659.252,304.4922,663.252,300.4922" style="stroke:#181818;stroke-width:1.0;"/><line style="stroke:#181818;stroke-width:1.0;" x1="0" x2="665.252" y1="300.4922" y2="300.4922"/><text fill="#000000" font-family="sans-serif" font-size="13" lengthAdjust="spacing" textLength="21.8232" x="7" y="295.4263">run</text><text fill="#808080" font-family="sans-serif" font-size="13" lengthAdjust="spacing" textLength="60.7852" x="37.0879" y="295.4263">0.295 ms</text><polygon fill="#181818" points="417.042,325.625,407.042,329.625,417.042,333.625,413.042,329.625" style="stroke:#181818;stroke-width:1.0;"/><line style="stroke:#181818;stroke-width:1.0;" x1="411.042" x2="670.252" y1="329.625" y2="329.625"/><text fill="#000000" font-family="sans-serif" font-size="13" lengthAdjust="spacing" textLength="134.4307" x="423.042" y="324.5591">saveLogFilesPosition</text><text fill="#808080" font-family="sans-serif" font-size="13" lengthAdjust="spacing" textLength="52.5142" x="565.7373" y="324.5591">0.25 ms</text><polygon fill="#181818" points="659.252,354.7578,669.252,358.7578,659.252,362.7578,663.252,358.7578" style="stroke:#181818;stroke-width:1.0;"/><line style="stroke:#181818;stroke-width:1.0;stroke-dasharray:2.0,2.0;" x1="401.042" x2="665.252" y1="358.7578" y2="358.7578"/><text fill="#000000" font-family="sans-serif" font-size="13" lengthAdjust="spacing" textLength="27.5107" x="408.042" y="353.6919">void</text><polygon fill="#181818" points="11,383.8906,1,387.8906,11,391.8906,7,387.8906" style="stroke:#181818;stroke-width:1.0;"/><line style="stroke:#181818;stroke-width:1.0;stroke-dasharray:2.0,2.0;" x1="5" x2="675.252" y1="387.8906" y2="387.8906"/><text fill="#000000" font-family="sans-serif" font-size="13" lengthAdjust="spacing" textLength="27.5107" x="17" y="382.8247">void</text><!--SRC=[fP9FJuGm4CNl-oacn2i864mWX9iUZ8acSkD09j1bgsoBRINnsuk46Fg7LUAnC_FUhtsT0OMY3HsGANZatJtjYNpcaYhAMKca0fJWkHhUOLX9fuxg17bvxnyaPxD8B-dZTqpGvdGcJ3qTZ_EqLhdaNSSEzwlOEm1KVk6wQGR3SlfkbIZV9EGDxxd8Ee6V1KHH16UPNy-rOZB2Hj4H5N4cClN1sV0B_LA_SiCW2LETl6BhPflKtFTDx2kE6FJ8kg0y2OBjh6t9NcVxFKtF9J7V4AP9ikSHO1JzGllxBKfySsjILXpDmecPSZ8u8wVjCheAntRwO-e_TfUIhYQXUqSN-KgyiNoL-Izrd87uO6PYSPfiRBKfFzXfrR7z-n97Ojx9WkvQ1PFvdrJjJEn4pPal]--></g></svg>