<svg xmlns="http://www.w3.org/2000/svg" xmlns:xlink="http://www.w3.org/1999/xlink" contentStyleType="text/css" data-diagram-type="SEQUENCE" height="324px" preserveAspectRatio="none" style="width:684px;height:324px;background:#FFFFFF;" version="1.1" viewBox="0 0 684 324" width="684px" zoomAndPan="magnify"><defs/><g><g><title>LogEnrichmentTest</title><rect fill="#FFFFFF" height="203.9297" style="stroke:#181818;stroke-width:1;" width="10" x="263.1372" y="67.4297"/></g><g><title>PostgreSqlJson</title><rect fill="#FFFFFF" height="29.1328" style="stroke:#181818;stroke-width:1;" width="10" x="467.6055" y="96.5625"/></g><g><title>PostgreSqlJson</title><rect fill="#FFFFFF" height="87.3984" style="stroke:#181818;stroke-width:1;" width="10" x="467.6055" y="154.8281"/></g><g><title>EnrichmentOff</title><rect fill="#FFFFFF" height="29.1328" style="stroke:#181818;stroke-width:1;" width="10" x="615.6812" y="183.9609"/></g><g><title>LogEnrichmentTest</title><rect fill="transparent" height="253.0625" width="8" x="264.1372" y="36.2969"/><line style="stroke:#181818;stroke-width:0.5;stroke-dasharray:5.0,5.0;" x1="267.2632" x2="267.2632" y1="36.2969" y2="289.3594"/></g><g><title>PostgreSqlJson</title><rect fill="transparent" height="253.0625" width="8" x="468.6055" y="36.2969"/><line style="stroke:#181818;stroke-width:0.5;stroke-dasharray:5.0,5.0;" x1="471.8198" x2="471.8198" y1="36.2969" y2="289.3594"/></g><g><title>EnrichmentOff</title><rect fill="transparent" height="253.0625" width="8" x="616.6812" y="36.2969"/><line style="stroke:#181818;stroke-width:0.5;stroke-dasharray:5.0,5.0;" x1="619.9688" x2="619.9688" y1="36.2969" y2="289.3594"/></g><rect fill="#E2E2F0" height="30.2969" rx="2.5" ry="2.5" style="stroke:#181818;stroke-width:0.5;" width="149.748" x="193.2632" y="5"/><text fill="#000000" font-family="sans-serif" font-size="14" lengthAdjust="spacing" textLength="135.748" x="200.2632" y="24.9951">LogEnrichmentTest</text><rect fill="#E2E2F0" height="30.2969" rx="2.5" ry="2.5" style="stroke:#181818;stroke-width:0.5;" width="149.748" x="193.2632" y="288.3594"/><text fill="#000000" font-family="sans-serif" font-size="14" lengthAdjust="spacing" textLength="135.748" x="200.2632" y="308.3545">LogEnrichmentTest</text><rect fill="#E2E2F0" height="30.2969" rx="2.5" ry="2.5" style="stroke:#181818;stroke-width:0.5;" width="117.5713" x="413.8198" y="5"/><text fill="#000000" font-family="sans-serif" font-size="14" lengthAdjust="spacing" textLength="103.5713" x="420.8198" y="24.9951">PostgreSqlJson</text><rect fill="#E2E2F0" height="30.2969" rx="2.5" ry="2.5" style="stroke:#181818;stroke-width:0.5;" width="117.5713" x="413.8198" y="288.3594"/><text fill="#000000" font-family="sans-serif" font-size="14" lengthAdjust="spacing" textLength="103.5713" x="420.8198" y="308.3545">PostgreSqlJson</text><rect fill="#E2E2F0" height="30.2969" rx="2.5" ry="2.5" style="stroke:#181818;stroke-width:0.5;" width="115.4248" x="562.9688" y="5"/><text fill="#000000" font-family="sans-serif" font-size="14" lengthAdjust="spacing" textLength="101.4248" x="569.9688" y="24.9951">EnrichmentOff</text><rect fill="#E2E2F0" height="30.2969" rx="2.5" ry="2.5" style="stroke:#181818;stroke-width:0.5;" width="115.4248" x="562.9688" y="288.3594"/><text fill="#000000" font-family="sans-serif" font-size="14" lengthAdjust="spacing" textLength="101.4248" x="569.9688" y="308.3545">EnrichmentOff</text><g><title>LogEnrichmentTest</title><rect fill="#FFFFFF" height="203.9297" style="stroke:#181818;stroke-width:1;" width="10" x="263.1372" y="67.4297"/></g><g><title>PostgreSqlJson</title><rect fill="#FFFFFF" height="29.1328" style="stroke:#181818;stroke-width:1;" width="10" x="467.6055" y="96.5625"/></g><g><title>PostgreSqlJson</title><rect fill="#FFFFFF" height="87.3984" style="stroke:#181818;stroke-width:1;" width="10" x="467.6055" y="154.8281"/></g><g><title>EnrichmentOff</title><rect fill="#FFFFFF" height="29.1328" style="stroke:#181818;stroke-width:1;" width="10" x="615.6812" y="183.9609"/></g><polygon fill="#181818" points="251.1372,63.4297,261.1372,67.4297,251.1372,71.4297,255.1372,67.4297" style="stroke:#181818;stroke-width:1;"/><line style="stroke:#181818;stroke-width:1;" x1="0" x2="257.1372" y1="67.4297" y2="67.4297"/><text fill="#000000" font-family="sans-serif" font-size="13" lengthAdjust="spacing" textLength="166.8164" x="7" y="62.3638">initLogEnricherWoDbHost</text><text fill="#808080" font-family="sans-serif" font-size="13" lengthAdjust="spacing" textLength="69.0562" x="182.0811" y="62.3638">0.0614 ms</text><polygon fill="#181818" points="455.6055,92.5625,465.6055,96.5625,455.6055,100.5625,459.6055,96.5625" style="stroke:#181818;stroke-width:1;"/><line style="stroke:#181818;stroke-width:1;" x1="273.1372" x2="461.6055" y1="96.5625" y2="96.5625"/><text fill="#000000" font-family="sans-serif" font-size="13" lengthAdjust="spacing" textLength="98.1475" x="280.1372" y="91.4966">initLogEnricher</text><text fill="#808080" font-family="sans-serif" font-size="13" lengthAdjust="spacing" textLength="69.0562" x="386.5493" y="91.4966">0.0162 ms</text><polygon fill="#181818" points="284.1372,121.6953,274.1372,125.6953,284.1372,129.6953,280.1372,125.6953" style="stroke:#181818;stroke-width:1;"/><line style="stroke:#181818;stroke-width:1;stroke-dasharray:2.0,2.0;" x1="278.1372" x2="471.6055" y1="125.6953" y2="125.6953"/><text fill="#000000" font-family="sans-serif" font-size="13" lengthAdjust="spacing" textLength="27.5107" x="290.1372" y="120.6294">void</text><polygon fill="#181818" points="455.6055,150.8281,465.6055,154.8281,455.6055,158.8281,459.6055,154.8281" style="stroke:#181818;stroke-width:1;"/><line style="stroke:#181818;stroke-width:1;" x1="273.1372" x2="461.6055" y1="154.8281" y2="154.8281"/><text fill="#000000" font-family="sans-serif" font-size="13" lengthAdjust="spacing" textLength="33.4839" x="280.1372" y="149.7622">close</text><text fill="#808080" font-family="sans-serif" font-size="13" lengthAdjust="spacing" textLength="69.0562" x="321.8857" y="149.7622">0.0194 ms</text><polygon fill="#181818" points="603.6812,179.9609,613.6812,183.9609,603.6812,187.9609,607.6812,183.9609" style="stroke:#181818;stroke-width:1;"/><line style="stroke:#181818;stroke-width:1;" x1="477.6055" x2="609.6812" y1="183.9609" y2="183.9609"/><text fill="#000000" font-family="sans-serif" font-size="13" lengthAdjust="spacing" textLength="33.4839" x="484.6055" y="178.895">close</text><text fill="#808080" font-family="sans-serif" font-size="13" lengthAdjust="spacing" textLength="77.3271" x="526.354" y="178.895">0.00652 ms</text><polygon fill="#181818" points="488.6055,209.0938,478.6055,213.0938,488.6055,217.0938,484.6055,213.0938" style="stroke:#181818;stroke-width:1;"/><line style="stroke:#181818;stroke-width:1;stroke-dasharray:2.0,2.0;" x1="482.6055" x2="619.6812" y1="213.0938" y2="213.0938"/><text fill="#000000" font-family="sans-serif" font-size="13" lengthAdjust="spacing" textLength="27.5107" x="494.6055" y="208.0278">void</text><polygon fill="#181818" points="284.1372,238.2266,274.1372,242.2266,284.1372,246.2266,280.1372,242.2266" style="stroke:#181818;stroke-width:1;"/><line style="stroke:#181818;stroke-width:1;stroke-dasharray:2.0,2.0;" x1="278.1372" x2="471.6055" y1="242.2266" y2="242.2266"/><text fill="#000000" font-family="sans-serif" font-size="13" lengthAdjust="spacing" textLength="27.5107" x="290.1372" y="237.1606">void</text><polygon fill="#181818" points="11,267.3594,1,271.3594,11,275.3594,7,271.3594" style="stroke:#181818;stroke-width:1;"/><line style="stroke:#181818;stroke-width:1;stroke-dasharray:2.0,2.0;" x1="5" x2="267.1372" y1="271.3594" y2="271.3594"/><text fill="#000000" font-family="sans-serif" font-size="13" lengthAdjust="spacing" textLength="27.5107" x="17" y="266.2935">void</text><!--SRC=[hP91Yy8m48Nl_egXzsWLBIWb9mKHGS453vwoCQs1cjGa2FvxGn6tqwa7OQylyzutUKajND1Iry84sDfoPPoMbwiouKVv0C93GjHaKBTCU-j3wTJXLcsyDOq3ItZyBsfN5CqqKf81m8bnmbo0DZgyPUMETlcxZXp8fQsiMvHEF3YampGRJ-7gyr4ZynWdPD1t4HIzNZm4gZAEzoTeWXnd4uniGN5MFp5dh8kyMtrkXi_ggoYwlAoiLtJb-VIRbQ4ZCevUxHCbpMQacHO8PVHoOZCTqBiOL0rD-hUIJz7OynrVtfQJ33q1]--></g></svg>