<svg xmlns="http://www.w3.org/2000/svg" xmlns:xlink="http://www.w3.org/1999/xlink" contentStyleType="text/css" height="562px" preserveAspectRatio="none" style="width:831px;height:562px;background:#000000;" version="1.1" viewBox="0 0 831 562" width="831px" zoomAndPan="magnify"><defs/><g><rect fill="none" height="113.9063" style="stroke:#999999;stroke-width:1.0;" width="10" x="112.8828" y="83.9375"/><rect fill="none" height="37.9688" style="stroke:#999999;stroke-width:1.0;" width="10" x="339.7109" y="121.9063"/><rect fill="none" height="37.9688" style="stroke:#999999;stroke-width:1.0;" width="10" x="339.7109" y="273.7813"/><rect fill="none" height="113.9063" style="stroke:#999999;stroke-width:1.0;" width="10" x="339.7109" y="349.7188"/><rect fill="none" height="265.7813" style="stroke:#999999;stroke-width:1.0;" width="10" x="553.8594" y="235.8125"/><rect fill="none" height="37.9688" style="stroke:#999999;stroke-width:1.0;" width="10" x="765.4004" y="387.6875"/><line style="stroke:#999999;stroke-width:0.5;stroke-dasharray:5.0,5.0;" x1="117.8604" x2="117.8604" y1="43.9688" y2="519.5938"/><line style="stroke:#999999;stroke-width:0.5;stroke-dasharray:5.0,5.0;" x1="344.3232" x2="344.3232" y1="43.9688" y2="519.5938"/><line style="stroke:#999999;stroke-width:0.5;stroke-dasharray:5.0,5.0;" x1="558.7861" x2="558.7861" y1="43.9688" y2="519.5938"/><line style="stroke:#999999;stroke-width:0.5;stroke-dasharray:5.0,5.0;" x1="769.9326" x2="769.9326" y1="43.9688" y2="519.5938"/><rect fill="#555555" height="37.9688" rx="4" ry="4" style="stroke:#555555;stroke-width:1.0;" width="128.0449" x="53.8604" y="5"/><text fill="#FFFFFF" font-family="Verdana" font-size="12" lengthAdjust="spacing" textLength="104.0449" x="65.8604" y="28.1387">PostgreSqlJson$2</text><rect fill="#555555" height="37.9688" rx="4" ry="4" style="stroke:#555555;stroke-width:1.0;" width="128.0449" x="53.8604" y="518.5938"/><text fill="#FFFFFF" font-family="Verdana" font-size="12" lengthAdjust="spacing" textLength="104.0449" x="65.8604" y="541.7324">PostgreSqlJson$2</text><rect fill="#555555" height="37.9688" rx="4" ry="4" style="stroke:#555555;stroke-width:1.0;" width="112.7754" x="288.3232" y="5"/><text fill="#FFFFFF" font-family="Verdana" font-size="12" lengthAdjust="spacing" textLength="88.7754" x="300.3232" y="28.1387">PostgreSqlJson</text><rect fill="#555555" height="37.9688" rx="4" ry="4" style="stroke:#555555;stroke-width:1.0;" width="112.7754" x="288.3232" y="518.5938"/><text fill="#FFFFFF" font-family="Verdana" font-size="12" lengthAdjust="spacing" textLength="88.7754" x="300.3232" y="541.7324">PostgreSqlJson</text><rect fill="#555555" height="37.9688" rx="4" ry="4" style="stroke:#555555;stroke-width:1.0;" width="132.1465" x="492.7861" y="5"/><text fill="#FFFFFF" font-family="Verdana" font-size="12" lengthAdjust="spacing" textLength="108.1465" x="504.7861" y="28.1387">WatchServiceTest</text><rect fill="#555555" height="37.9688" rx="4" ry="4" style="stroke:#555555;stroke-width:1.0;" width="132.1465" x="492.7861" y="518.5938"/><text fill="#FFFFFF" font-family="Verdana" font-size="12" lengthAdjust="spacing" textLength="108.1465" x="504.7861" y="541.7324">WatchServiceTest</text><rect fill="#555555" height="37.9688" rx="4" ry="4" style="stroke:#555555;stroke-width:1.0;" width="110.9355" x="714.9326" y="5"/><text fill="#FFFFFF" font-family="Verdana" font-size="12" lengthAdjust="spacing" textLength="86.9355" x="726.9326" y="28.1387">EnrichmentOff</text><rect fill="#555555" height="37.9688" rx="4" ry="4" style="stroke:#555555;stroke-width:1.0;" width="110.9355" x="714.9326" y="518.5938"/><text fill="#FFFFFF" font-family="Verdana" font-size="12" lengthAdjust="spacing" textLength="86.9355" x="726.9326" y="541.7324">EnrichmentOff</text><rect fill="none" height="113.9063" style="stroke:#999999;stroke-width:1.0;" width="10" x="112.8828" y="83.9375"/><rect fill="none" height="37.9688" style="stroke:#999999;stroke-width:1.0;" width="10" x="339.7109" y="121.9063"/><rect fill="none" height="37.9688" style="stroke:#999999;stroke-width:1.0;" width="10" x="339.7109" y="273.7813"/><rect fill="none" height="113.9063" style="stroke:#999999;stroke-width:1.0;" width="10" x="339.7109" y="349.7188"/><rect fill="none" height="265.7813" style="stroke:#999999;stroke-width:1.0;" width="10" x="553.8594" y="235.8125"/><rect fill="none" height="37.9688" style="stroke:#999999;stroke-width:1.0;" width="10" x="765.4004" y="387.6875"/><polygon fill="#4362B1" points="100.8828,79.9375,110.8828,83.9375,100.8828,87.9375,104.8828,83.9375" style="stroke:#4362B1;stroke-width:1.0;"/><line style="stroke:#4362B1;stroke-width:3.0;" x1="0" x2="106.8828" y1="83.9375" y2="83.9375"/><text fill="#FFFFFF" font-family="Verdana" font-size="12" lengthAdjust="spacing" textLength="20.1445" x="12" y="74.1074">run</text><text fill="#808080" font-family="Verdana" font-size="12" lengthAdjust="spacing" textLength="56.1094" x="39.7734" y="74.1074">0.178 ms</text><polygon fill="#4362B1" points="327.7109,117.9063,337.7109,121.9063,327.7109,125.9063,331.7109,121.9063" style="stroke:#4362B1;stroke-width:1.0;"/><line style="stroke:#4362B1;stroke-width:3.0;" x1="122.8828" x2="333.7109" y1="121.9063" y2="121.9063"/><text fill="#FFFFFF" font-family="Verdana" font-size="12" lengthAdjust="spacing" textLength="124.0898" x="134.8828" y="112.0762">saveLogFilesPosition</text><text fill="#808080" font-family="Verdana" font-size="12" lengthAdjust="spacing" textLength="56.1094" x="266.6016" y="112.0762">0.142 ms</text><polygon fill="#4362B1" points="133.8828,155.875,123.8828,159.875,133.8828,163.875,129.8828,159.875" style="stroke:#4362B1;stroke-width:1.0;"/><line style="stroke:#4362B1;stroke-width:3.0;stroke-dasharray:2.0,2.0;" x1="127.8828" x2="343.7109" y1="159.875" y2="159.875"/><text fill="#FFFFFF" font-family="Verdana" font-size="12" lengthAdjust="spacing" textLength="25.3945" x="144.8828" y="150.0449">void</text><polygon fill="#4362B1" points="11,193.8438,1,197.8438,11,201.8438,7,197.8438" style="stroke:#4362B1;stroke-width:1.0;"/><line style="stroke:#4362B1;stroke-width:3.0;stroke-dasharray:2.0,2.0;" x1="5" x2="116.8828" y1="197.8438" y2="197.8438"/><text fill="#FFFFFF" font-family="Verdana" font-size="12" lengthAdjust="spacing" textLength="25.3945" x="22" y="188.0137">void</text><polygon fill="#4362B1" points="541.8594,231.8125,551.8594,235.8125,541.8594,239.8125,545.8594,235.8125" style="stroke:#4362B1;stroke-width:1.0;"/><line style="stroke:#4362B1;stroke-width:3.0;" x1="0" x2="547.8594" y1="235.8125" y2="235.8125"/><text fill="#FFFFFF" font-family="Verdana" font-size="12" lengthAdjust="spacing" textLength="145.4941" x="12" y="225.9824">testRegisterWatchEvent</text><text fill="#808080" font-family="Verdana" font-size="12" lengthAdjust="spacing" textLength="48.4746" x="165.123" y="225.9824">39.6 ms</text><polygon fill="#4362B1" points="360.7109,269.7813,350.7109,273.7813,360.7109,277.7813,356.7109,273.7813" style="stroke:#4362B1;stroke-width:1.0;"/><line style="stroke:#4362B1;stroke-width:3.0;" x1="354.7109" x2="552.8594" y1="273.7813" y2="273.7813"/><text fill="#FFFFFF" font-family="Verdana" font-size="12" lengthAdjust="spacing" textLength="119.0449" x="371.7109" y="263.9512">registerWatchEvent</text><text fill="#808080" font-family="Verdana" font-size="12" lengthAdjust="spacing" textLength="48.4746" x="498.3848" y="263.9512">8.14 ms</text><polygon fill="#4362B1" points="541.8594,307.75,551.8594,311.75,541.8594,315.75,545.8594,311.75" style="stroke:#4362B1;stroke-width:1.0;"/><line style="stroke:#4362B1;stroke-width:3.0;stroke-dasharray:2.0,2.0;" x1="344.7109" x2="547.8594" y1="311.75" y2="311.75"/><text fill="#FFFFFF" font-family="Verdana" font-size="12" lengthAdjust="spacing" textLength="25.3945" x="356.7109" y="301.9199">void</text><polygon fill="#4362B1" points="360.7109,345.7188,350.7109,349.7188,360.7109,353.7188,356.7109,349.7188" style="stroke:#4362B1;stroke-width:1.0;"/><line style="stroke:#4362B1;stroke-width:3.0;" x1="354.7109" x2="552.8594" y1="349.7188" y2="349.7188"/><text fill="#FFFFFF" font-family="Verdana" font-size="12" lengthAdjust="spacing" textLength="30.9082" x="371.7109" y="339.8887">close</text><text fill="#808080" font-family="Verdana" font-size="12" lengthAdjust="spacing" textLength="56.1094" x="410.248" y="339.8887">0.067 ms</text><polygon fill="#4362B1" points="753.4004,383.6875,763.4004,387.6875,753.4004,391.6875,757.4004,387.6875" style="stroke:#4362B1;stroke-width:1.0;"/><line style="stroke:#4362B1;stroke-width:3.0;" x1="349.7109" x2="759.4004" y1="387.6875" y2="387.6875"/><text fill="#FFFFFF" font-family="Verdana" font-size="12" lengthAdjust="spacing" textLength="30.9082" x="361.7109" y="377.8574">close</text><text fill="#808080" font-family="Verdana" font-size="12" lengthAdjust="spacing" textLength="56.1094" x="400.248" y="377.8574">0.023 ms</text><polygon fill="#4362B1" points="360.7109,421.6563,350.7109,425.6563,360.7109,429.6563,356.7109,425.6563" style="stroke:#4362B1;stroke-width:1.0;"/><line style="stroke:#4362B1;stroke-width:3.0;stroke-dasharray:2.0,2.0;" x1="354.7109" x2="769.4004" y1="425.6563" y2="425.6563"/><text fill="#FFFFFF" font-family="Verdana" font-size="12" lengthAdjust="spacing" textLength="25.3945" x="371.7109" y="415.8262">void</text><polygon fill="#4362B1" points="541.8594,459.625,551.8594,463.625,541.8594,467.625,545.8594,463.625" style="stroke:#4362B1;stroke-width:1.0;"/><line style="stroke:#4362B1;stroke-width:3.0;stroke-dasharray:2.0,2.0;" x1="344.7109" x2="547.8594" y1="463.625" y2="463.625"/><text fill="#FFFFFF" font-family="Verdana" font-size="12" lengthAdjust="spacing" textLength="25.3945" x="356.7109" y="453.7949">void</text><polygon fill="#4362B1" points="11,497.5938,1,501.5938,11,505.5938,7,501.5938" style="stroke:#4362B1;stroke-width:1.0;"/><line style="stroke:#4362B1;stroke-width:3.0;stroke-dasharray:2.0,2.0;" x1="5" x2="557.8594" y1="501.5938" y2="501.5938"/><text fill="#FFFFFF" font-family="Verdana" font-size="12" lengthAdjust="spacing" textLength="25.3945" x="22" y="491.7637">void</text><!--SRC=[hLAnJiCm4Dtx5QPYJL9IL4fKPIi3GW9H98OEoBZNn99Z6_iInD_ZfWXXkm6AM3oyktVlxlcTSCb4ku7M258ZQbjacQ6lQSMnRfzR2uOfYI0nPQh9Aa2gTKDrfWMLs3OYmHeQo1hAPROlxP5Kk-98KuESSUrwoPsoM1bOlOXhg-HJJgWbOnyypSVVK0uG_FP7YgnUWUauWmUms1D2qASifU6iRjnzjzjjt-yXun4XwwGCLo-8QILPC2MKAIf3tqeoISykvgInYwn7IqUa37b74QBBNOr4OAXI44ixk57L5HTWNOqZLx7eUUwB3ieU55qaIQZQARxfUpSmF6aT4NUcV507YVtbpixmImg2xhs7Ybi4qrUNdVi0_zZfPJeRC3WSsEyVWh71vWV5kRFt67T3nR-w-vlTcL0MmZHCPXV7x1lc8Iczy0-9vDDGv8kCD-6WYdCbaFaqnRCbdlHV_kxI6sSmJc_Oymu0]--></g></svg>