<svg xmlns="http://www.w3.org/2000/svg" xmlns:xlink="http://www.w3.org/1999/xlink" contentStyleType="text/css" height="467px" preserveAspectRatio="none" style="width:836px;height:467px;background:#FFFFFF;" version="1.1" viewBox="0 0 836 467" width="836px" zoomAndPan="magnify"><defs/><g><rect fill="#FFFFFF" height="346.4609" style="stroke:#181818;stroke-width:1.0;" width="10" x="274.4551" y="67.4297"/><rect fill="#FFFFFF" height="288.1953" style="stroke:#181818;stroke-width:1.0;" width="10" x="502.9111" y="96.5625"/><rect fill="#FFFFFF" height="40.1328" style="stroke:#181818;stroke-width:1.0;" width="10" x="507.9111" y="133.6953"/><rect fill="#FFFFFF" height="29.1328" style="stroke:#181818;stroke-width:1.0;" width="10" x="746.4683" y="209.9609"/><rect fill="#FFFFFF" height="29.1328" style="stroke:#181818;stroke-width:1.0;" width="10" x="746.4683" y="268.2266"/><rect fill="#FFFFFF" height="29.1328" style="stroke:#181818;stroke-width:1.0;" width="10" x="746.4683" y="326.4922"/><line style="stroke:#181818;stroke-width:0.5;stroke-dasharray:5.0,5.0;" x1="279.3696" x2="279.3696" y1="36.2969" y2="431.8906"/><line style="stroke:#181818;stroke-width:0.5;stroke-dasharray:5.0,5.0;" x1="507.1255" x2="507.1255" y1="36.2969" y2="431.8906"/><line style="stroke:#181818;stroke-width:0.5;stroke-dasharray:5.0,5.0;" x1="750.4756" x2="750.4756" y1="36.2969" y2="431.8906"/><rect fill="#E2E2F0" height="30.2969" rx="2.5" ry="2.5" style="stroke:#181818;stroke-width:0.5;" width="140.1709" x="209.3696" y="5"/><text fill="#000000" font-family="sans-serif" font-size="14" lengthAdjust="spacing" textLength="126.1709" x="216.3696" y="24.9951">WatchServiceTest</text><rect fill="#E2E2F0" height="30.2969" rx="2.5" ry="2.5" style="stroke:#181818;stroke-width:0.5;" width="140.1709" x="209.3696" y="430.8906"/><text fill="#000000" font-family="sans-serif" font-size="14" lengthAdjust="spacing" textLength="126.1709" x="216.3696" y="450.8857">WatchServiceTest</text><rect fill="#E2E2F0" height="30.2969" rx="2.5" ry="2.5" style="stroke:#181818;stroke-width:0.5;" width="117.5713" x="449.1255" y="5"/><text fill="#000000" font-family="sans-serif" font-size="14" lengthAdjust="spacing" textLength="103.5713" x="456.1255" y="24.9951">PostgreSqlJson</text><rect fill="#E2E2F0" height="30.2969" rx="2.5" ry="2.5" style="stroke:#181818;stroke-width:0.5;" width="117.5713" x="449.1255" y="430.8906"/><text fill="#000000" font-family="sans-serif" font-size="14" lengthAdjust="spacing" textLength="103.5713" x="456.1255" y="450.8857">PostgreSqlJson</text><rect fill="#E2E2F0" height="30.2969" rx="2.5" ry="2.5" style="stroke:#181818;stroke-width:0.5;" width="157.9854" x="672.4756" y="5"/><text fill="#000000" font-family="sans-serif" font-size="14" lengthAdjust="spacing" textLength="143.9854" x="679.4756" y="24.9951">WatchServiceTest$1</text><rect fill="#E2E2F0" height="30.2969" rx="2.5" ry="2.5" style="stroke:#181818;stroke-width:0.5;" width="157.9854" x="672.4756" y="430.8906"/><text fill="#000000" font-family="sans-serif" font-size="14" lengthAdjust="spacing" textLength="143.9854" x="679.4756" y="450.8857">WatchServiceTest$1</text><rect fill="#FFFFFF" height="346.4609" style="stroke:#181818;stroke-width:1.0;" width="10" x="274.4551" y="67.4297"/><rect fill="#FFFFFF" height="288.1953" style="stroke:#181818;stroke-width:1.0;" width="10" x="502.9111" y="96.5625"/><rect fill="#FFFFFF" height="40.1328" style="stroke:#181818;stroke-width:1.0;" width="10" x="507.9111" y="133.6953"/><rect fill="#FFFFFF" height="29.1328" style="stroke:#181818;stroke-width:1.0;" width="10" x="746.4683" y="209.9609"/><rect fill="#FFFFFF" height="29.1328" style="stroke:#181818;stroke-width:1.0;" width="10" x="746.4683" y="268.2266"/><rect fill="#FFFFFF" height="29.1328" style="stroke:#181818;stroke-width:1.0;" width="10" x="746.4683" y="326.4922"/><polygon fill="#181818" points="262.4551,63.4297,272.4551,67.4297,262.4551,71.4297,266.4551,67.4297" style="stroke:#181818;stroke-width:1.0;"/><line style="stroke:#181818;stroke-width:1.0;" x1="0" x2="268.4551" y1="67.4297" y2="67.4297"/><text fill="#000000" font-family="sans-serif" font-size="13" lengthAdjust="spacing" textLength="194.6763" x="7" y="62.3638">testWatchServiceSkipNonJson</text><text fill="#808080" font-family="sans-serif" font-size="13" lengthAdjust="spacing" textLength="52.5142" x="209.9409" y="62.3638">16.9 ms</text><polygon fill="#181818" points="490.9111,92.5625,500.9111,96.5625,490.9111,100.5625,494.9111,96.5625" style="stroke:#181818;stroke-width:1.0;"/><line style="stroke:#181818;stroke-width:1.0;" x1="284.4551" x2="496.9111" y1="96.5625" y2="96.5625"/><text fill="#000000" font-family="sans-serif" font-size="13" lengthAdjust="spacing" textLength="138.6772" x="291.4551" y="91.4966">watchPostgreSqlLogs</text><text fill="#808080" font-family="sans-serif" font-size="13" lengthAdjust="spacing" textLength="52.5142" x="438.397" y="91.4966">0.56 ms</text><line style="stroke:#181818;stroke-width:1.0;" x1="512.9111" x2="559.9111" y1="120.6953" y2="120.6953"/><line style="stroke:#181818;stroke-width:1.0;" x1="559.9111" x2="559.9111" y1="120.6953" y2="133.6953"/><line style="stroke:#181818;stroke-width:1.0;" x1="518.9111" x2="559.9111" y1="133.6953" y2="133.6953"/><polygon fill="#181818" points="528.9111,129.6953,518.9111,133.6953,528.9111,137.6953,524.9111,133.6953" style="stroke:#181818;stroke-width:1.0;"/><text fill="#000000" font-family="sans-serif" font-size="13" lengthAdjust="spacing" textLength="98.1475" x="524.9111" y="115.6294">initLogEnricher</text><text fill="#808080" font-family="sans-serif" font-size="13" lengthAdjust="spacing" textLength="69.0562" x="631.3232" y="115.6294">0.0172 ms</text><line style="stroke:#181818;stroke-width:1.0;stroke-dasharray:2.0,2.0;" x1="460.9111" x2="506.9111" y1="172.8281" y2="172.8281"/><line style="stroke:#181818;stroke-width:1.0;stroke-dasharray:2.0,2.0;" x1="460.9111" x2="460.9111" y1="172.8281" y2="185.8281"/><line style="stroke:#181818;stroke-width:1.0;stroke-dasharray:2.0,2.0;" x1="460.9111" x2="500.9111" y1="185.8281" y2="185.8281"/><polygon fill="#181818" points="490.9111,181.8281,500.9111,185.8281,490.9111,189.8281,494.9111,185.8281" style="stroke:#181818;stroke-width:1.0;"/><text fill="#000000" font-family="sans-serif" font-size="13" lengthAdjust="spacing" textLength="27.5107" x="459.9111" y="167.7622">void</text><polygon fill="#181818" points="734.4683,205.9609,744.4683,209.9609,734.4683,213.9609,738.4683,209.9609" style="stroke:#181818;stroke-width:1.0;"/><line style="stroke:#181818;stroke-width:1.0;" x1="512.9111" x2="740.4683" y1="209.9609" y2="209.9609"/><text fill="#000000" font-family="sans-serif" font-size="13" lengthAdjust="spacing" textLength="111.1729" x="519.9111" y="204.895">positionFileTasks</text><text fill="#808080" font-family="sans-serif" font-size="13" lengthAdjust="spacing" textLength="69.0562" x="639.3486" y="204.895">0.0146 ms</text><polygon fill="#181818" points="523.9111,235.0938,513.9111,239.0938,523.9111,243.0938,519.9111,239.0938" style="stroke:#181818;stroke-width:1.0;"/><line style="stroke:#181818;stroke-width:1.0;stroke-dasharray:2.0,2.0;" x1="517.9111" x2="750.4683" y1="239.0938" y2="239.0938"/><text fill="#000000" font-family="sans-serif" font-size="13" lengthAdjust="spacing" textLength="109.313" x="529.9111" y="234.0278">java.lang.Thread</text><polygon fill="#181818" points="734.4683,264.2266,744.4683,268.2266,734.4683,272.2266,738.4683,268.2266" style="stroke:#181818;stroke-width:1.0;"/><line style="stroke:#181818;stroke-width:1.0;" x1="512.9111" x2="740.4683" y1="268.2266" y2="268.2266"/><text fill="#000000" font-family="sans-serif" font-size="13" lengthAdjust="spacing" textLength="102.3433" x="519.9111" y="263.1606">initialLogImport</text><text fill="#808080" font-family="sans-serif" font-size="13" lengthAdjust="spacing" textLength="69.0562" x="630.519" y="263.1606">0.0161 ms</text><polygon fill="#181818" points="523.9111,293.3594,513.9111,297.3594,523.9111,301.3594,519.9111,297.3594" style="stroke:#181818;stroke-width:1.0;"/><line style="stroke:#181818;stroke-width:1.0;stroke-dasharray:2.0,2.0;" x1="517.9111" x2="750.4683" y1="297.3594" y2="297.3594"/><text fill="#000000" font-family="sans-serif" font-size="13" lengthAdjust="spacing" textLength="27.5107" x="529.9111" y="292.2935">void</text><polygon fill="#181818" points="734.4683,322.4922,744.4683,326.4922,734.4683,330.4922,738.4683,326.4922" style="stroke:#181818;stroke-width:1.0;"/><line style="stroke:#181818;stroke-width:1.0;" x1="512.9111" x2="740.4683" y1="326.4922" y2="326.4922"/><text fill="#000000" font-family="sans-serif" font-size="13" lengthAdjust="spacing" textLength="128.9653" x="519.9111" y="321.4263">registerWatchEvent</text><text fill="#808080" font-family="sans-serif" font-size="13" lengthAdjust="spacing" textLength="77.3271" x="657.1411" y="321.4263">0.00929 ms</text><polygon fill="#181818" points="523.9111,351.625,513.9111,355.625,523.9111,359.625,519.9111,355.625" style="stroke:#181818;stroke-width:1.0;"/><line style="stroke:#181818;stroke-width:1.0;stroke-dasharray:2.0,2.0;" x1="517.9111" x2="750.4683" y1="355.625" y2="355.625"/><text fill="#000000" font-family="sans-serif" font-size="13" lengthAdjust="spacing" textLength="27.5107" x="529.9111" y="350.5591">void</text><polygon fill="#181818" points="295.4551,380.7578,285.4551,384.7578,295.4551,388.7578,291.4551,384.7578" style="stroke:#181818;stroke-width:1.0;"/><line style="stroke:#181818;stroke-width:1.0;stroke-dasharray:2.0,2.0;" x1="289.4551" x2="506.9111" y1="384.7578" y2="384.7578"/><text fill="#000000" font-family="sans-serif" font-size="13" lengthAdjust="spacing" textLength="110.335" x="301.4551" y="379.6919">java.lang.Integer</text><polygon fill="#181818" points="11,409.8906,1,413.8906,11,417.8906,7,413.8906" style="stroke:#181818;stroke-width:1.0;"/><line style="stroke:#181818;stroke-width:1.0;stroke-dasharray:2.0,2.0;" x1="5" x2="278.4551" y1="413.8906" y2="413.8906"/><text fill="#000000" font-family="sans-serif" font-size="13" lengthAdjust="spacing" textLength="27.5107" x="17" y="408.8247">void</text><!--SRC=[pP91IyD048Nl-HLByPgO58qqbDmgL4I41Zpq84Cwf6FJtRWxHFptfa5iixkj5X6yxE7Dx7plCTE0PYgf0SdY2RXSBr2tL6A1XWKOCRB5KT0SV7bKXYkDYzVwpYZPVnXAmtPxs7FYPLmaeq28PPZRXKnmznwgYmqr3qhsz6cfQgMpIiDxBf8qceYjcLxsOjxDWvAf1KR7HLSJZXZcmo2PUDjrxCLxLPaXCewkqo7o03gSrjU49Rf8aiGTPoOrbMlKDYvERiOsy3paD0njPgjezTcxmlFik-lDHACCCIbvIpKMO3R63N6LdWZXpZmMn4T_WHQY6cGL5MkDu0dsm_d-SBlz4EnEORvjb6OtMvhyMJR_edwLHsD5Xb7tjLcBqaqKJyQJ_n79bZstl5__N39Mg8FlpdhfSVRbwuId3m00]--></g></svg>