<svg xmlns="http://www.w3.org/2000/svg" xmlns:xlink="http://www.w3.org/1999/xlink" contentStyleType="text/css" height="512px" preserveAspectRatio="none" style="width:731px;height:512px;background:#000000;" version="1.1" viewBox="0 0 731 512" width="731px" zoomAndPan="magnify"><defs/><g><rect fill="none" height="367.7188" style="stroke:#999999;stroke-width:1.0;" width="10" x="194.457" y="83.9375"/><rect fill="none" height="139.9063" style="stroke:#999999;stroke-width:1.0;" width="10" x="421.8096" y="121.9063"/><rect fill="none" height="48.9688" style="stroke:#999999;stroke-width:1.0;" width="10" x="426.8096" y="167.875"/><rect fill="none" height="113.9063" style="stroke:#999999;stroke-width:1.0;" width="10" x="421.8096" y="299.7813"/><rect fill="none" height="37.9688" style="stroke:#999999;stroke-width:1.0;" width="10" x="665.1924" y="337.75"/><line style="stroke:#999999;stroke-width:0.5;stroke-dasharray:5.0,5.0;" x1="198.4922" x2="198.4922" y1="43.9688" y2="469.6563"/><line style="stroke:#999999;stroke-width:0.5;stroke-dasharray:5.0,5.0;" x1="426.4219" x2="426.4219" y1="43.9688" y2="469.6563"/><line style="stroke:#999999;stroke-width:0.5;stroke-dasharray:5.0,5.0;" x1="669.7246" x2="669.7246" y1="43.9688" y2="469.6563"/><rect fill="#555555" height="37.9688" rx="4" ry="4" style="stroke:#555555;stroke-width:1.0;" width="161.9297" x="118.4922" y="5"/><text fill="#FFFFFF" font-family="Verdana" font-size="12" lengthAdjust="spacing" textLength="137.9297" x="130.4922" y="28.1387">ValidateParameterTest</text><rect fill="#555555" height="37.9688" rx="4" ry="4" style="stroke:#555555;stroke-width:1.0;" width="161.9297" x="118.4922" y="468.6563"/><text fill="#FFFFFF" font-family="Verdana" font-size="12" lengthAdjust="spacing" textLength="137.9297" x="130.4922" y="491.7949">ValidateParameterTest</text><rect fill="#555555" height="37.9688" rx="4" ry="4" style="stroke:#555555;stroke-width:1.0;" width="112.7754" x="370.4219" y="5"/><text fill="#FFFFFF" font-family="Verdana" font-size="12" lengthAdjust="spacing" textLength="88.7754" x="382.4219" y="28.1387">PostgreSqlJson</text><rect fill="#555555" height="37.9688" rx="4" ry="4" style="stroke:#555555;stroke-width:1.0;" width="112.7754" x="370.4219" y="468.6563"/><text fill="#FFFFFF" font-family="Verdana" font-size="12" lengthAdjust="spacing" textLength="88.7754" x="382.4219" y="491.7949">PostgreSqlJson</text><rect fill="#555555" height="37.9688" rx="4" ry="4" style="stroke:#555555;stroke-width:1.0;" width="110.9355" x="614.7246" y="5"/><text fill="#FFFFFF" font-family="Verdana" font-size="12" lengthAdjust="spacing" textLength="86.9355" x="626.7246" y="28.1387">EnrichmentOff</text><rect fill="#555555" height="37.9688" rx="4" ry="4" style="stroke:#555555;stroke-width:1.0;" width="110.9355" x="614.7246" y="468.6563"/><text fill="#FFFFFF" font-family="Verdana" font-size="12" lengthAdjust="spacing" textLength="86.9355" x="626.7246" y="491.7949">EnrichmentOff</text><rect fill="none" height="367.7188" style="stroke:#999999;stroke-width:1.0;" width="10" x="194.457" y="83.9375"/><rect fill="none" height="139.9063" style="stroke:#999999;stroke-width:1.0;" width="10" x="421.8096" y="121.9063"/><rect fill="none" height="48.9688" style="stroke:#999999;stroke-width:1.0;" width="10" x="426.8096" y="167.875"/><rect fill="none" height="113.9063" style="stroke:#999999;stroke-width:1.0;" width="10" x="421.8096" y="299.7813"/><rect fill="none" height="37.9688" style="stroke:#999999;stroke-width:1.0;" width="10" x="665.1924" y="337.75"/><polygon fill="#4362B1" points="182.457,79.9375,192.457,83.9375,182.457,87.9375,186.457,83.9375" style="stroke:#4362B1;stroke-width:1.0;"/><line style="stroke:#4362B1;stroke-width:3.0;" x1="0" x2="188.457" y1="83.9375" y2="83.9375"/><text fill="#FFFFFF" font-family="Verdana" font-size="12" lengthAdjust="spacing" textLength="101.7188" x="12" y="74.1074">missingWatchDir</text><text fill="#808080" font-family="Verdana" font-size="12" lengthAdjust="spacing" textLength="56.1094" x="121.3477" y="74.1074">0.163 ms</text><polygon fill="#4362B1" points="409.8096,117.9063,419.8096,121.9063,409.8096,125.9063,413.8096,121.9063" style="stroke:#4362B1;stroke-width:1.0;"/><line style="stroke:#4362B1;stroke-width:3.0;" x1="204.457" x2="415.8096" y1="121.9063" y2="121.9063"/><text fill="#FFFFFF" font-family="Verdana" font-size="12" lengthAdjust="spacing" textLength="20.6191" x="216.457" y="112.0762">call</text><text fill="#808080" font-family="Verdana" font-size="12" lengthAdjust="spacing" textLength="63.7441" x="244.7051" y="112.0762">0.0872 ms</text><line style="stroke:#4362B1;stroke-width:3.0;" x1="431.8096" x2="478.8096" y1="154.875" y2="154.875"/><line style="stroke:#4362B1;stroke-width:3.0;" x1="478.8096" x2="478.8096" y1="154.875" y2="167.875"/><line style="stroke:#4362B1;stroke-width:3.0;" x1="437.8096" x2="478.8096" y1="167.875" y2="167.875"/><polygon fill="#4362B1" points="447.8096,163.875,437.8096,167.875,447.8096,171.875,443.8096,167.875" style="stroke:#4362B1;stroke-width:1.0;"/><text fill="#FFFFFF" font-family="Verdana" font-size="12" lengthAdjust="spacing" textLength="128.0098" x="448.8096" y="145.0449">watchPostgreSqlLogs</text><text fill="#808080" font-family="Verdana" font-size="12" lengthAdjust="spacing" textLength="63.7441" x="584.4482" y="145.0449">0.0408 ms</text><line style="stroke:#4362B1;stroke-width:3.0;stroke-dasharray:2.0,2.0;" x1="379.8096" x2="425.8096" y1="215.8438" y2="215.8438"/><line style="stroke:#4362B1;stroke-width:3.0;stroke-dasharray:2.0,2.0;" x1="379.8096" x2="379.8096" y1="215.8438" y2="228.8438"/><line style="stroke:#4362B1;stroke-width:3.0;stroke-dasharray:2.0,2.0;" x1="379.8096" x2="419.8096" y1="228.8438" y2="228.8438"/><polygon fill="#4362B1" points="409.8096,224.8438,419.8096,228.8438,409.8096,232.8438,413.8096,228.8438" style="stroke:#4362B1;stroke-width:1.0;"/><text fill="#FFFFFF" font-family="Verdana" font-size="12" lengthAdjust="spacing" textLength="101.8477" x="307.9619" y="206.0137">java.lang.Integer</text><polygon fill="#4362B1" points="215.457,257.8125,205.457,261.8125,215.457,265.8125,211.457,261.8125" style="stroke:#4362B1;stroke-width:1.0;"/><line style="stroke:#4362B1;stroke-width:3.0;stroke-dasharray:2.0,2.0;" x1="209.457" x2="425.8096" y1="261.8125" y2="261.8125"/><text fill="#FFFFFF" font-family="Verdana" font-size="12" lengthAdjust="spacing" textLength="101.8477" x="226.457" y="251.9824">java.lang.Integer</text><polygon fill="#4362B1" points="409.8096,295.7813,419.8096,299.7813,409.8096,303.7813,413.8096,299.7813" style="stroke:#4362B1;stroke-width:1.0;"/><line style="stroke:#4362B1;stroke-width:3.0;" x1="204.457" x2="415.8096" y1="299.7813" y2="299.7813"/><text fill="#FFFFFF" font-family="Verdana" font-size="12" lengthAdjust="spacing" textLength="30.9082" x="216.457" y="289.9512">close</text><text fill="#808080" font-family="Verdana" font-size="12" lengthAdjust="spacing" textLength="63.7441" x="254.9941" y="289.9512">0.0372 ms</text><polygon fill="#4362B1" points="653.1924,333.75,663.1924,337.75,653.1924,341.75,657.1924,337.75" style="stroke:#4362B1;stroke-width:1.0;"/><line style="stroke:#4362B1;stroke-width:3.0;" x1="431.8096" x2="659.1924" y1="337.75" y2="337.75"/><text fill="#FFFFFF" font-family="Verdana" font-size="12" lengthAdjust="spacing" textLength="30.9082" x="443.8096" y="327.9199">close</text><text fill="#808080" font-family="Verdana" font-size="12" lengthAdjust="spacing" textLength="56.1094" x="482.3467" y="327.9199">0.012 ms</text><polygon fill="#4362B1" points="442.8096,371.7188,432.8096,375.7188,442.8096,379.7188,438.8096,375.7188" style="stroke:#4362B1;stroke-width:1.0;"/><line style="stroke:#4362B1;stroke-width:3.0;stroke-dasharray:2.0,2.0;" x1="436.8096" x2="669.1924" y1="375.7188" y2="375.7188"/><text fill="#FFFFFF" font-family="Verdana" font-size="12" lengthAdjust="spacing" textLength="25.3945" x="453.8096" y="365.8887">void</text><polygon fill="#4362B1" points="215.457,409.6875,205.457,413.6875,215.457,417.6875,211.457,413.6875" style="stroke:#4362B1;stroke-width:1.0;"/><line style="stroke:#4362B1;stroke-width:3.0;stroke-dasharray:2.0,2.0;" x1="209.457" x2="425.8096" y1="413.6875" y2="413.6875"/><text fill="#FFFFFF" font-family="Verdana" font-size="12" lengthAdjust="spacing" textLength="25.3945" x="226.457" y="403.8574">void</text><polygon fill="#4362B1" points="11,447.6563,1,451.6563,11,455.6563,7,451.6563" style="stroke:#4362B1;stroke-width:1.0;"/><line style="stroke:#4362B1;stroke-width:3.0;stroke-dasharray:2.0,2.0;" x1="5" x2="198.457" y1="451.6563" y2="451.6563"/><text fill="#FFFFFF" font-family="Verdana" font-size="12" lengthAdjust="spacing" textLength="25.3945" x="22" y="441.8262">void</text><!--SRC=[fPFBJiCm44Nt_GhJVP8-45HHbHKiG4XK0i6YgwdZEaP-OKzQyVUOj88wIQi2spjpxydCE1T2KrcNh7QIL8ZMvrdcO9joWLMzgZrpr6Xa6bDgLCOPWhKAR6ObQAoLJB1YYcKAXCvsfPsIsb0SM70egB2Xbxo052KWMu03nP2vP-QHW2V3tiemCY-CH-xOqxkyzqOthbYAss-r4xHIuRCVr-kcErA60qAMIT7BpOaItWlDNm5fTICScLCZZSkvWu-2ZDBnrPGeFyyQjGX9G55iGap_XA61z5UI8XuX9nIaRED6i-j9p3iWnW5DZRJ4BcNxDTYF-62uxq0lHxCsz7VOUPAqkM-mWJGy6vxUXHV5cTiRItOgk7TrPwV_8RldBD9urbdHzBztYPxaCSfuSk8EKSAnCxGm6oFAxkAxIUVk_JllrAgNmNZaRzlx3zozZPy0]--></g></svg>