<svg xmlns="http://www.w3.org/2000/svg" xmlns:xlink="http://www.w3.org/1999/xlink" contentStyleType="text/css" height="334px" preserveAspectRatio="none" style="width:761px;height:334px;background:#000000;" version="1.1" viewBox="0 0 761 334" width="761px" zoomAndPan="magnify"><defs/><g><rect fill="none" height="189.8438" style="stroke:#999999;stroke-width:1.0;" width="10" x="216.3242" y="83.9375"/><rect fill="none" height="113.9063" style="stroke:#999999;stroke-width:1.0;" width="10" x="431.9346" y="121.9063"/><rect fill="none" height="37.9688" style="stroke:#999999;stroke-width:1.0;" width="10" x="694.5342" y="159.875"/><line style="stroke:#999999;stroke-width:0.5;stroke-dasharray:5.0,5.0;" x1="221.1016" x2="221.1016" y1="43.9688" y2="291.7813"/><line style="stroke:#999999;stroke-width:0.5;stroke-dasharray:5.0,5.0;" x1="436.5469" x2="436.5469" y1="43.9688" y2="291.7813"/><line style="stroke:#999999;stroke-width:0.5;stroke-dasharray:5.0,5.0;" x1="699.0664" x2="699.0664" y1="43.9688" y2="291.7813"/><rect fill="#555555" height="37.9688" rx="4" ry="4" style="stroke:#555555;stroke-width:1.0;" width="138.4453" x="152.1016" y="5"/><text fill="#FFFFFF" font-family="Verdana" font-size="12" lengthAdjust="spacing" textLength="114.4453" x="164.1016" y="28.1387">PostgreSqlJsonTest</text><rect fill="#555555" height="37.9688" rx="4" ry="4" style="stroke:#555555;stroke-width:1.0;" width="138.4453" x="152.1016" y="290.7813"/><text fill="#FFFFFF" font-family="Verdana" font-size="12" lengthAdjust="spacing" textLength="114.4453" x="164.1016" y="313.9199">PostgreSqlJsonTest</text><rect fill="#555555" height="37.9688" rx="4" ry="4" style="stroke:#555555;stroke-width:1.0;" width="112.7754" x="380.5469" y="5"/><text fill="#FFFFFF" font-family="Verdana" font-size="12" lengthAdjust="spacing" textLength="88.7754" x="392.5469" y="28.1387">PostgreSqlJson</text><rect fill="#555555" height="37.9688" rx="4" ry="4" style="stroke:#555555;stroke-width:1.0;" width="112.7754" x="380.5469" y="290.7813"/><text fill="#FFFFFF" font-family="Verdana" font-size="12" lengthAdjust="spacing" textLength="88.7754" x="392.5469" y="313.9199">PostgreSqlJson</text><rect fill="#555555" height="37.9688" rx="4" ry="4" style="stroke:#555555;stroke-width:1.0;" width="110.9355" x="644.0664" y="5"/><text fill="#FFFFFF" font-family="Verdana" font-size="12" lengthAdjust="spacing" textLength="86.9355" x="656.0664" y="28.1387">EnrichmentOff</text><rect fill="#555555" height="37.9688" rx="4" ry="4" style="stroke:#555555;stroke-width:1.0;" width="110.9355" x="644.0664" y="290.7813"/><text fill="#FFFFFF" font-family="Verdana" font-size="12" lengthAdjust="spacing" textLength="86.9355" x="656.0664" y="313.9199">EnrichmentOff</text><rect fill="none" height="189.8438" style="stroke:#999999;stroke-width:1.0;" width="10" x="216.3242" y="83.9375"/><rect fill="none" height="113.9063" style="stroke:#999999;stroke-width:1.0;" width="10" x="431.9346" y="121.9063"/><rect fill="none" height="37.9688" style="stroke:#999999;stroke-width:1.0;" width="10" x="694.5342" y="159.875"/><polygon fill="#4362B1" points="204.3242,79.9375,214.3242,83.9375,204.3242,87.9375,208.3242,83.9375" style="stroke:#4362B1;stroke-width:1.0;"/><line style="stroke:#4362B1;stroke-width:3.0;" x1="0" x2="210.3242" y1="83.9375" y2="83.9375"/><text fill="#FFFFFF" font-family="Verdana" font-size="12" lengthAdjust="spacing" textLength="115.9512" x="12" y="74.1074">logUnknowSeverity</text><text fill="#808080" font-family="Verdana" font-size="12" lengthAdjust="spacing" textLength="63.7441" x="135.5801" y="74.1074">0.0896 ms</text><polygon fill="#4362B1" points="419.9346,117.9063,429.9346,121.9063,419.9346,125.9063,423.9346,121.9063" style="stroke:#4362B1;stroke-width:1.0;"/><line style="stroke:#4362B1;stroke-width:3.0;" x1="226.3242" x2="425.9346" y1="121.9063" y2="121.9063"/><text fill="#FFFFFF" font-family="Verdana" font-size="12" lengthAdjust="spacing" textLength="80.1914" x="238.3242" y="112.0762">parseLogLine</text><text fill="#808080" font-family="Verdana" font-size="12" lengthAdjust="spacing" textLength="63.7441" x="326.1445" y="112.0762">0.0715 ms</text><polygon fill="#4362B1" points="682.5342,155.875,692.5342,159.875,682.5342,163.875,686.5342,159.875" style="stroke:#4362B1;stroke-width:1.0;"/><line style="stroke:#4362B1;stroke-width:3.0;" x1="441.9346" x2="688.5342" y1="159.875" y2="159.875"/><text fill="#FFFFFF" font-family="Verdana" font-size="12" lengthAdjust="spacing" textLength="152.2266" x="453.9346" y="150.0449">enricherApplicationName</text><text fill="#808080" font-family="Verdana" font-size="12" lengthAdjust="spacing" textLength="63.7441" x="613.79" y="150.0449">0.0161 ms</text><polygon fill="#4362B1" points="452.9346,193.8438,442.9346,197.8438,452.9346,201.8438,448.9346,197.8438" style="stroke:#4362B1;stroke-width:1.0;"/><line style="stroke:#4362B1;stroke-width:3.0;stroke-dasharray:2.0,2.0;" x1="446.9346" x2="698.5342" y1="197.8438" y2="197.8438"/><text fill="#FFFFFF" font-family="Verdana" font-size="12" lengthAdjust="spacing" textLength="25.3945" x="463.9346" y="188.0137">void</text><polygon fill="#4362B1" points="237.3242,231.8125,227.3242,235.8125,237.3242,239.8125,233.3242,235.8125" style="stroke:#4362B1;stroke-width:1.0;"/><line style="stroke:#4362B1;stroke-width:3.0;stroke-dasharray:2.0,2.0;" x1="231.3242" x2="435.9346" y1="235.8125" y2="235.8125"/><text fill="#FFFFFF" font-family="Verdana" font-size="12" lengthAdjust="spacing" textLength="25.3945" x="248.3242" y="225.9824">void</text><polygon fill="#4362B1" points="11,269.7813,1,273.7813,11,277.7813,7,273.7813" style="stroke:#4362B1;stroke-width:1.0;"/><line style="stroke:#4362B1;stroke-width:3.0;stroke-dasharray:2.0,2.0;" x1="5" x2="220.3242" y1="273.7813" y2="273.7813"/><text fill="#FFFFFF" font-family="Verdana" font-size="12" lengthAdjust="spacing" textLength="25.3945" x="22" y="263.9512">void</text><!--SRC=[VP7DRi8m48JlFCMMUs9oA6qZ58b3BnLgAz6UEBbcIQpwh_O6nDlN3QWYSU3esPdvxFMTD4ArMsozWeR8XP8npmzvBQbflzg0NbX3Q2WNLhCQYJkdkMDESKEjLXarg95fBWqxZKvAxk9muhWdAQIBNdYtWMgFwn_r4gpvm4300qnJUNeZDXBfsv-DbwBHyS9lkrtdxYdJ2S0cgr9e2ShMd-RRsCCQz-Wb7M4XhBA-h3q_LZ3BPuzFSz1XmJgvYarSaDnpmf6tnIcCo4Dq2V7o0LUsNac32V6XkEyJhpAxsP2OLRt7bu3T4VtIEIK59sdDAzSfjvWNG-u5kLSw2bvasO2yjt9xjcxnHbEwijWrtDb_sKLLievD4ZpzypbyDVhd-WK0]--></g></svg>