<svg xmlns="http://www.w3.org/2000/svg" xmlns:xlink="http://www.w3.org/1999/xlink" contentStyleType="text/css" height="582px" preserveAspectRatio="none" style="width:750px;height:582px;background:#FFFFFF;" version="1.1" viewBox="0 0 750 582" width="750px" zoomAndPan="magnify"><defs/><g><rect fill="#FFFFFF" height="461.8594" style="stroke:#181818;stroke-width:1.0;" width="10" x="190.3931" y="67.4297"/><rect fill="#FFFFFF" height="287.0625" style="stroke:#181818;stroke-width:1.0;" width="10" x="390.7861" y="96.5625"/><rect fill="#FFFFFF" height="182.6641" style="stroke:#181818;stroke-width:1.0;" width="10" x="395.7861" y="157.8281"/><rect fill="#FFFFFF" height="98.3984" style="stroke:#181818;stroke-width:1.0;" width="10" x="400.7861" y="199.9609"/><rect fill="#FFFFFF" height="87.3984" style="stroke:#181818;stroke-width:1.0;" width="10" x="390.7861" y="412.7578"/><rect fill="#FFFFFF" height="29.1328" style="stroke:#181818;stroke-width:1.0;" width="10" x="672.019" y="234.0938"/><rect fill="#FFFFFF" height="29.1328" style="stroke:#181818;stroke-width:1.0;" width="10" x="672.019" y="441.8906"/><rect fill="none" height="243.9297" style="stroke:#000000;stroke-width:1.5;" width="417.731" x="327.0005" y="111.5625"/><line style="stroke:#181818;stroke-width:0.5;stroke-dasharray:5.0,5.0;" x1="194.6333" x2="194.6333" y1="36.2969" y2="547.2891"/><line style="stroke:#181818;stroke-width:0.5;stroke-dasharray:5.0,5.0;" x1="395.0005" x2="395.0005" y1="36.2969" y2="547.2891"/><line style="stroke:#181818;stroke-width:0.5;stroke-dasharray:5.0,5.0;" x1="676.3066" x2="676.3066" y1="36.2969" y2="547.2891"/><rect fill="#E2E2F0" height="30.2969" rx="2.5" ry="2.5" style="stroke:#181818;stroke-width:0.5;" width="147.5195" x="121.6333" y="5"/><text fill="#000000" font-family="sans-serif" font-size="14" lengthAdjust="spacing" textLength="133.5195" x="128.6333" y="24.9951">PostgreSqlJsonTest</text><rect fill="#E2E2F0" height="30.2969" rx="2.5" ry="2.5" style="stroke:#181818;stroke-width:0.5;" width="147.5195" x="121.6333" y="546.2891"/><text fill="#000000" font-family="sans-serif" font-size="14" lengthAdjust="spacing" textLength="133.5195" x="128.6333" y="566.2842">PostgreSqlJsonTest</text><rect fill="#E2E2F0" height="30.2969" rx="2.5" ry="2.5" style="stroke:#181818;stroke-width:0.5;" width="117.5713" x="337.0005" y="5"/><text fill="#000000" font-family="sans-serif" font-size="14" lengthAdjust="spacing" textLength="103.5713" x="344.0005" y="24.9951">PostgreSqlJson</text><rect fill="#E2E2F0" height="30.2969" rx="2.5" ry="2.5" style="stroke:#181818;stroke-width:0.5;" width="117.5713" x="337.0005" y="546.2891"/><text fill="#000000" font-family="sans-serif" font-size="14" lengthAdjust="spacing" textLength="103.5713" x="344.0005" y="566.2842">PostgreSqlJson</text><rect fill="#E2E2F0" height="30.2969" rx="2.5" ry="2.5" style="stroke:#181818;stroke-width:0.5;" width="115.4248" x="619.3066" y="5"/><text fill="#000000" font-family="sans-serif" font-size="14" lengthAdjust="spacing" textLength="101.4248" x="626.3066" y="24.9951">EnrichmentOff</text><rect fill="#E2E2F0" height="30.2969" rx="2.5" ry="2.5" style="stroke:#181818;stroke-width:0.5;" width="115.4248" x="619.3066" y="546.2891"/><text fill="#000000" font-family="sans-serif" font-size="14" lengthAdjust="spacing" textLength="101.4248" x="626.3066" y="566.2842">EnrichmentOff</text><rect fill="#FFFFFF" height="461.8594" style="stroke:#181818;stroke-width:1.0;" width="10" x="190.3931" y="67.4297"/><rect fill="#FFFFFF" height="287.0625" style="stroke:#181818;stroke-width:1.0;" width="10" x="390.7861" y="96.5625"/><rect fill="#FFFFFF" height="182.6641" style="stroke:#181818;stroke-width:1.0;" width="10" x="395.7861" y="157.8281"/><rect fill="#FFFFFF" height="98.3984" style="stroke:#181818;stroke-width:1.0;" width="10" x="400.7861" y="199.9609"/><rect fill="#FFFFFF" height="87.3984" style="stroke:#181818;stroke-width:1.0;" width="10" x="390.7861" y="412.7578"/><rect fill="#FFFFFF" height="29.1328" style="stroke:#181818;stroke-width:1.0;" width="10" x="672.019" y="234.0938"/><rect fill="#FFFFFF" height="29.1328" style="stroke:#181818;stroke-width:1.0;" width="10" x="672.019" y="441.8906"/><polygon fill="#181818" points="178.3931,63.4297,188.3931,67.4297,178.3931,71.4297,182.3931,67.4297" style="stroke:#181818;stroke-width:1.0;"/><line style="stroke:#181818;stroke-width:1.0;" x1="0" x2="184.3931" y1="67.4297" y2="67.4297"/><text fill="#000000" font-family="sans-serif" font-size="13" lengthAdjust="spacing" textLength="102.3433" x="7" y="62.3638">initialLogImport</text><text fill="#808080" font-family="sans-serif" font-size="13" lengthAdjust="spacing" textLength="60.7852" x="117.6079" y="62.3638">0.653 ms</text><polygon fill="#181818" points="378.7861,92.5625,388.7861,96.5625,378.7861,100.5625,382.7861,96.5625" style="stroke:#181818;stroke-width:1.0;"/><line style="stroke:#181818;stroke-width:1.0;" x1="200.3931" x2="384.7861" y1="96.5625" y2="96.5625"/><text fill="#000000" font-family="sans-serif" font-size="13" lengthAdjust="spacing" textLength="102.3433" x="207.3931" y="91.4966">initialLogImport</text><text fill="#808080" font-family="sans-serif" font-size="13" lengthAdjust="spacing" textLength="60.7852" x="318.001" y="91.4966">0.559 ms</text><path d="M327.0005,111.5625 L403.6245,111.5625 L403.6245,118.6953 L393.6245,128.6953 L327.0005,128.6953 L327.0005,111.5625 " fill="#EEEEEE" style="stroke:#000000;stroke-width:1.5;"/><rect fill="none" height="243.9297" style="stroke:#000000;stroke-width:1.5;" width="417.731" x="327.0005" y="111.5625"/><text fill="#000000" font-family="sans-serif" font-size="13" font-weight="bold" lengthAdjust="spacing" textLength="31.624" x="342.0005" y="124.6294">loop</text><text fill="#000000" font-family="sans-serif" font-size="11" font-weight="bold" lengthAdjust="spacing" textLength="51.0093" x="418.6245" y="123.7729">[2 times</text><text fill="#808080" font-family="sans-serif" font-size="11" font-weight="bold" lengthAdjust="spacing" textLength="56.6328" x="477.293" y="123.7729">0.411 ms</text><text fill="#000000" font-family="sans-serif" font-size="11" font-weight="bold" lengthAdjust="spacing" textLength="5.0273" x="533.9258" y="123.7729">]</text><line style="stroke:#181818;stroke-width:1.0;" x1="400.7861" x2="447.7861" y1="144.8281" y2="144.8281"/><line style="stroke:#181818;stroke-width:1.0;" x1="447.7861" x2="447.7861" y1="144.8281" y2="157.8281"/><line style="stroke:#181818;stroke-width:1.0;" x1="406.7861" x2="447.7861" y1="157.8281" y2="157.8281"/><polygon fill="#181818" points="416.7861,153.8281,406.7861,157.8281,416.7861,161.8281,412.7861,157.8281" style="stroke:#181818;stroke-width:1.0;"/><text fill="#000000" font-family="sans-serif" font-size="13" lengthAdjust="spacing" textLength="79.8091" x="412.7861" y="139.7622">readJsonLog</text><text fill="#808080" font-family="sans-serif" font-size="13" lengthAdjust="spacing" textLength="60.7852" x="500.8599" y="139.7622">0.411 ms</text><line style="stroke:#181818;stroke-width:1.0;" x1="405.7861" x2="452.7861" y1="186.9609" y2="186.9609"/><line style="stroke:#181818;stroke-width:1.0;" x1="452.7861" x2="452.7861" y1="186.9609" y2="199.9609"/><line style="stroke:#181818;stroke-width:1.0;" x1="411.7861" x2="452.7861" y1="199.9609" y2="199.9609"/><polygon fill="#181818" points="421.7861,195.9609,411.7861,199.9609,421.7861,203.9609,417.7861,199.9609" style="stroke:#181818;stroke-width:1.0;"/><text fill="#000000" font-family="sans-serif" font-size="13" lengthAdjust="spacing" textLength="86.874" x="417.7861" y="181.895">parseLogLine</text><text fill="#808080" font-family="sans-serif" font-size="13" lengthAdjust="spacing" textLength="60.7852" x="512.9248" y="181.895">0.196 ms</text><polygon fill="#181818" points="660.019,230.0938,670.019,234.0938,660.019,238.0938,664.019,234.0938" style="stroke:#181818;stroke-width:1.0;"/><line style="stroke:#181818;stroke-width:1.0;" x1="410.7861" x2="666.019" y1="234.0938" y2="234.0938"/><text fill="#000000" font-family="sans-serif" font-size="13" lengthAdjust="spacing" textLength="164.9121" x="417.7861" y="229.0278">enricherApplicationName</text><text fill="#808080" font-family="sans-serif" font-size="13" lengthAdjust="spacing" textLength="69.0562" x="590.9629" y="229.0278">0.0498 ms</text><polygon fill="#181818" points="421.7861,259.2266,411.7861,263.2266,421.7861,267.2266,417.7861,263.2266" style="stroke:#181818;stroke-width:1.0;"/><line style="stroke:#181818;stroke-width:1.0;stroke-dasharray:2.0,2.0;" x1="415.7861" x2="676.019" y1="263.2266" y2="263.2266"/><text fill="#000000" font-family="sans-serif" font-size="13" lengthAdjust="spacing" textLength="27.5107" x="427.7861" y="258.1606">void</text><line style="stroke:#181818;stroke-width:1.0;stroke-dasharray:2.0,2.0;" x1="348.7861" x2="399.7861" y1="297.3594" y2="297.3594"/><line style="stroke:#181818;stroke-width:1.0;stroke-dasharray:2.0,2.0;" x1="348.7861" x2="348.7861" y1="297.3594" y2="310.3594"/><line style="stroke:#181818;stroke-width:1.0;stroke-dasharray:2.0,2.0;" x1="348.7861" x2="388.7861" y1="310.3594" y2="310.3594"/><polygon fill="#181818" points="378.7861,306.3594,388.7861,310.3594,378.7861,314.3594,382.7861,310.3594" style="stroke:#181818;stroke-width:1.0;"/><text fill="#000000" font-family="sans-serif" font-size="13" lengthAdjust="spacing" textLength="27.5107" x="347.7861" y="292.2935">void</text><line style="stroke:#181818;stroke-width:1.0;stroke-dasharray:2.0,2.0;" x1="348.7861" x2="394.7861" y1="339.4922" y2="339.4922"/><line style="stroke:#181818;stroke-width:1.0;stroke-dasharray:2.0,2.0;" x1="348.7861" x2="348.7861" y1="339.4922" y2="352.4922"/><line style="stroke:#181818;stroke-width:1.0;stroke-dasharray:2.0,2.0;" x1="348.7861" x2="388.7861" y1="352.4922" y2="352.4922"/><polygon fill="#181818" points="378.7861,348.4922,388.7861,352.4922,378.7861,356.4922,382.7861,352.4922" style="stroke:#181818;stroke-width:1.0;"/><text fill="#000000" font-family="sans-serif" font-size="13" lengthAdjust="spacing" textLength="27.5107" x="347.7861" y="334.4263">void</text><polygon fill="#181818" points="211.3931,379.625,201.3931,383.625,211.3931,387.625,207.3931,383.625" style="stroke:#181818;stroke-width:1.0;"/><line style="stroke:#181818;stroke-width:1.0;stroke-dasharray:2.0,2.0;" x1="205.3931" x2="394.7861" y1="383.625" y2="383.625"/><text fill="#000000" font-family="sans-serif" font-size="13" lengthAdjust="spacing" textLength="27.5107" x="217.3931" y="378.5591">void</text><polygon fill="#181818" points="378.7861,408.7578,388.7861,412.7578,378.7861,416.7578,382.7861,412.7578" style="stroke:#181818;stroke-width:1.0;"/><line style="stroke:#181818;stroke-width:1.0;" x1="200.3931" x2="384.7861" y1="412.7578" y2="412.7578"/><text fill="#000000" font-family="sans-serif" font-size="13" lengthAdjust="spacing" textLength="33.4839" x="207.3931" y="407.6919">close</text><text fill="#808080" font-family="sans-serif" font-size="13" lengthAdjust="spacing" textLength="69.0562" x="249.1416" y="407.6919">0.0306 ms</text><polygon fill="#181818" points="660.019,437.8906,670.019,441.8906,660.019,445.8906,664.019,441.8906" style="stroke:#181818;stroke-width:1.0;"/><line style="stroke:#181818;stroke-width:1.0;" x1="400.7861" x2="666.019" y1="441.8906" y2="441.8906"/><text fill="#000000" font-family="sans-serif" font-size="13" lengthAdjust="spacing" textLength="33.4839" x="407.7861" y="436.8247">close</text><text fill="#808080" font-family="sans-serif" font-size="13" lengthAdjust="spacing" textLength="69.0562" x="449.5347" y="436.8247">0.0112 ms</text><polygon fill="#181818" points="411.7861,467.0234,401.7861,471.0234,411.7861,475.0234,407.7861,471.0234" style="stroke:#181818;stroke-width:1.0;"/><line style="stroke:#181818;stroke-width:1.0;stroke-dasharray:2.0,2.0;" x1="405.7861" x2="676.019" y1="471.0234" y2="471.0234"/><text fill="#000000" font-family="sans-serif" font-size="13" lengthAdjust="spacing" textLength="27.5107" x="417.7861" y="465.9575">void</text><polygon fill="#181818" points="211.3931,496.1563,201.3931,500.1563,211.3931,504.1563,207.3931,500.1563" style="stroke:#181818;stroke-width:1.0;"/><line style="stroke:#181818;stroke-width:1.0;stroke-dasharray:2.0,2.0;" x1="205.3931" x2="394.7861" y1="500.1563" y2="500.1563"/><text fill="#000000" font-family="sans-serif" font-size="13" lengthAdjust="spacing" textLength="27.5107" x="217.3931" y="495.0903">void</text><polygon fill="#181818" points="11,525.2891,1,529.2891,11,533.2891,7,529.2891" style="stroke:#181818;stroke-width:1.0;"/><line style="stroke:#181818;stroke-width:1.0;stroke-dasharray:2.0,2.0;" x1="5" x2="194.3931" y1="529.2891" y2="529.2891"/><text fill="#000000" font-family="sans-serif" font-size="13" lengthAdjust="spacing" textLength="27.5107" x="17" y="524.2231">void</text><!--SRC=[hPGzRuCm48Rt_8eJEoqa0JK88NN8q0grbTejasKSQWbirxOYzT-Nq0xn1mQaRd2-UzwNkpC2IKqn5OXfUEDAjvAyVtNFYhCFeZGW1P4RZZPYiinJOgOVcQJuioTClvxFOxOHYJO0fxXoHGkWZ6gAkfgtJxtWKaE9USTbqKhqNK5obsSxw5LvFqQhWOEmfXUaYUVBXbFmX6tXUT4iEvYYaxBZ6K3DkO0jQDeJPSFsQMh3N9-kHqbGStqQJ2uaXYqkqHn6giWWM5D6RD7qaFj4byYwmiPs5436Lo8VXUWeHffoze9wnqAoFppuFTouCD014sKSMoukd3P6GKDcgGxJRga5lK5Ej6iTSOvtPCt4hGYHmzGbDmntNBdpsoNvkdiripT-bJJTkbiIdEIApGZknFzr-UGK_luk_uedIwzPFm00]--></g></svg>