<svg xmlns="http://www.w3.org/2000/svg" xmlns:xlink="http://www.w3.org/1999/xlink" contentStyleType="text/css" height="334px" preserveAspectRatio="none" style="width:695px;height:334px;background:#000000;" version="1.1" viewBox="0 0 695 334" width="695px" zoomAndPan="magnify"><defs/><g><rect fill="none" height="189.8438" style="stroke:#999999;stroke-width:1.0;" width="10" x="150.4941" y="83.9375"/><rect fill="none" height="113.9063" style="stroke:#999999;stroke-width:1.0;" width="10" x="366.1045" y="121.9063"/><rect fill="none" height="37.9688" style="stroke:#999999;stroke-width:1.0;" width="10" x="628.7041" y="159.875"/><line style="stroke:#999999;stroke-width:0.5;stroke-dasharray:5.0,5.0;" x1="155.2715" x2="155.2715" y1="43.9688" y2="291.7813"/><line style="stroke:#999999;stroke-width:0.5;stroke-dasharray:5.0,5.0;" x1="370.7168" x2="370.7168" y1="43.9688" y2="291.7813"/><line style="stroke:#999999;stroke-width:0.5;stroke-dasharray:5.0,5.0;" x1="633.2363" x2="633.2363" y1="43.9688" y2="291.7813"/><rect fill="#555555" height="37.9688" rx="4" ry="4" style="stroke:#555555;stroke-width:1.0;" width="138.4453" x="86.2715" y="5"/><text fill="#FFFFFF" font-family="Verdana" font-size="12" lengthAdjust="spacing" textLength="114.4453" x="98.2715" y="28.1387">PostgreSqlJsonTest</text><rect fill="#555555" height="37.9688" rx="4" ry="4" style="stroke:#555555;stroke-width:1.0;" width="138.4453" x="86.2715" y="290.7813"/><text fill="#FFFFFF" font-family="Verdana" font-size="12" lengthAdjust="spacing" textLength="114.4453" x="98.2715" y="313.9199">PostgreSqlJsonTest</text><rect fill="#555555" height="37.9688" rx="4" ry="4" style="stroke:#555555;stroke-width:1.0;" width="112.7754" x="314.7168" y="5"/><text fill="#FFFFFF" font-family="Verdana" font-size="12" lengthAdjust="spacing" textLength="88.7754" x="326.7168" y="28.1387">PostgreSqlJson</text><rect fill="#555555" height="37.9688" rx="4" ry="4" style="stroke:#555555;stroke-width:1.0;" width="112.7754" x="314.7168" y="290.7813"/><text fill="#FFFFFF" font-family="Verdana" font-size="12" lengthAdjust="spacing" textLength="88.7754" x="326.7168" y="313.9199">PostgreSqlJson</text><rect fill="#555555" height="37.9688" rx="4" ry="4" style="stroke:#555555;stroke-width:1.0;" width="110.9355" x="578.2363" y="5"/><text fill="#FFFFFF" font-family="Verdana" font-size="12" lengthAdjust="spacing" textLength="86.9355" x="590.2363" y="28.1387">EnrichmentOff</text><rect fill="#555555" height="37.9688" rx="4" ry="4" style="stroke:#555555;stroke-width:1.0;" width="110.9355" x="578.2363" y="290.7813"/><text fill="#FFFFFF" font-family="Verdana" font-size="12" lengthAdjust="spacing" textLength="86.9355" x="590.2363" y="313.9199">EnrichmentOff</text><rect fill="none" height="189.8438" style="stroke:#999999;stroke-width:1.0;" width="10" x="150.4941" y="83.9375"/><rect fill="none" height="113.9063" style="stroke:#999999;stroke-width:1.0;" width="10" x="366.1045" y="121.9063"/><rect fill="none" height="37.9688" style="stroke:#999999;stroke-width:1.0;" width="10" x="628.7041" y="159.875"/><polygon fill="#4362B1" points="138.4941,79.9375,148.4941,83.9375,138.4941,87.9375,142.4941,83.9375" style="stroke:#4362B1;stroke-width:1.0;"/><line style="stroke:#4362B1;stroke-width:3.0;" x1="0" x2="144.4941" y1="83.9375" y2="83.9375"/><text fill="#FFFFFF" font-family="Verdana" font-size="12" lengthAdjust="spacing" textLength="57.7559" x="12" y="74.1074">logDebug</text><text fill="#808080" font-family="Verdana" font-size="12" lengthAdjust="spacing" textLength="56.1094" x="77.3848" y="74.1074">0.105 ms</text><polygon fill="#4362B1" points="354.1045,117.9063,364.1045,121.9063,354.1045,125.9063,358.1045,121.9063" style="stroke:#4362B1;stroke-width:1.0;"/><line style="stroke:#4362B1;stroke-width:3.0;" x1="160.4941" x2="360.1045" y1="121.9063" y2="121.9063"/><text fill="#FFFFFF" font-family="Verdana" font-size="12" lengthAdjust="spacing" textLength="80.1914" x="172.4941" y="112.0762">parseLogLine</text><text fill="#808080" font-family="Verdana" font-size="12" lengthAdjust="spacing" textLength="56.1094" x="260.3145" y="112.0762">0.084 ms</text><polygon fill="#4362B1" points="616.7041,155.875,626.7041,159.875,616.7041,163.875,620.7041,159.875" style="stroke:#4362B1;stroke-width:1.0;"/><line style="stroke:#4362B1;stroke-width:3.0;" x1="376.1045" x2="622.7041" y1="159.875" y2="159.875"/><text fill="#FFFFFF" font-family="Verdana" font-size="12" lengthAdjust="spacing" textLength="152.2266" x="388.1045" y="150.0449">enricherApplicationName</text><text fill="#808080" font-family="Verdana" font-size="12" lengthAdjust="spacing" textLength="63.7441" x="547.96" y="150.0449">0.0143 ms</text><polygon fill="#4362B1" points="387.1045,193.8438,377.1045,197.8438,387.1045,201.8438,383.1045,197.8438" style="stroke:#4362B1;stroke-width:1.0;"/><line style="stroke:#4362B1;stroke-width:3.0;stroke-dasharray:2.0,2.0;" x1="381.1045" x2="632.7041" y1="197.8438" y2="197.8438"/><text fill="#FFFFFF" font-family="Verdana" font-size="12" lengthAdjust="spacing" textLength="25.3945" x="398.1045" y="188.0137">void</text><polygon fill="#4362B1" points="171.4941,231.8125,161.4941,235.8125,171.4941,239.8125,167.4941,235.8125" style="stroke:#4362B1;stroke-width:1.0;"/><line style="stroke:#4362B1;stroke-width:3.0;stroke-dasharray:2.0,2.0;" x1="165.4941" x2="370.1045" y1="235.8125" y2="235.8125"/><text fill="#FFFFFF" font-family="Verdana" font-size="12" lengthAdjust="spacing" textLength="25.3945" x="182.4941" y="225.9824">void</text><polygon fill="#4362B1" points="11,269.7813,1,273.7813,11,277.7813,7,273.7813" style="stroke:#4362B1;stroke-width:1.0;"/><line style="stroke:#4362B1;stroke-width:3.0;stroke-dasharray:2.0,2.0;" x1="5" x2="154.4941" y1="273.7813" y2="273.7813"/><text fill="#FFFFFF" font-family="Verdana" font-size="12" lengthAdjust="spacing" textLength="25.3945" x="22" y="263.9512">void</text><!--SRC=[VP5BQyCm48Jl-HLRtsqvD8LYZ27GNafe2-qj9qNPo0AzAgrJ-k-hEg74Z-IesPdvfDMTia9tU-o2XfR8nugnmByBgQZjTbt489mbj5G8PvX4ujuRxfdNt59dT4uj6cI6AyjEevDI-3HSU1v82UMJ5zvT91dmuqk_H6S_CHBm2DbKpcx4PY93-xCDIhGcNVZjSEZT0oLR06ppPWgjG3lvXBjEGYsSTg6IWVyqK1RByW5Ch5clDYdF1QaZ9vnvKPh2Z3m6Lf2k777Zv4PP70FBnzKGU1NPpyR0l1cyk0BiZnZMtcibE2bdNxcPOfUh-p7tWZmedGNNUJuY7vtQdwrxlD4qtLZg6g_il-oYQhAExIHu-jnp-6hqp_KB]--></g></svg>