<svg xmlns="http://www.w3.org/2000/svg" xmlns:xlink="http://www.w3.org/1999/xlink" contentStyleType="text/css" height="297px" preserveAspectRatio="none" style="width:709px;height:297px;background:#FFFFFF;" version="1.1" viewBox="0 0 709 297" width="709px" zoomAndPan="magnify"><defs/><g><rect fill="#FFFFFF" height="176.7969" style="stroke:#181818;stroke-width:1.0;" width="10" x="174.9238" y="67.4297"/><rect fill="#FFFFFF" height="118.5313" style="stroke:#181818;stroke-width:1.0;" width="10" x="359.8477" y="96.5625"/><rect fill="#FFFFFF" height="29.1328" style="stroke:#181818;stroke-width:1.0;" width="10" x="631.0806" y="149.8281"/><rect fill="none" height="75.3984" style="stroke:#000000;stroke-width:1.5;" width="407.731" x="296.062" y="111.5625"/><line style="stroke:#181818;stroke-width:0.5;stroke-dasharray:5.0,5.0;" x1="179.1641" x2="179.1641" y1="36.2969" y2="262.2266"/><line style="stroke:#181818;stroke-width:0.5;stroke-dasharray:5.0,5.0;" x1="364.062" x2="364.062" y1="36.2969" y2="262.2266"/><line style="stroke:#181818;stroke-width:0.5;stroke-dasharray:5.0,5.0;" x1="635.3682" x2="635.3682" y1="36.2969" y2="262.2266"/><rect fill="#E2E2F0" height="30.2969" rx="2.5" ry="2.5" style="stroke:#181818;stroke-width:0.5;" width="147.5195" x="106.1641" y="5"/><text fill="#000000" font-family="sans-serif" font-size="14" lengthAdjust="spacing" textLength="133.5195" x="113.1641" y="24.9951">PostgreSqlJsonTest</text><rect fill="#E2E2F0" height="30.2969" rx="2.5" ry="2.5" style="stroke:#181818;stroke-width:0.5;" width="147.5195" x="106.1641" y="261.2266"/><text fill="#000000" font-family="sans-serif" font-size="14" lengthAdjust="spacing" textLength="133.5195" x="113.1641" y="281.2217">PostgreSqlJsonTest</text><rect fill="#E2E2F0" height="30.2969" rx="2.5" ry="2.5" style="stroke:#181818;stroke-width:0.5;" width="117.5713" x="306.062" y="5"/><text fill="#000000" font-family="sans-serif" font-size="14" lengthAdjust="spacing" textLength="103.5713" x="313.062" y="24.9951">PostgreSqlJson</text><rect fill="#E2E2F0" height="30.2969" rx="2.5" ry="2.5" style="stroke:#181818;stroke-width:0.5;" width="117.5713" x="306.062" y="261.2266"/><text fill="#000000" font-family="sans-serif" font-size="14" lengthAdjust="spacing" textLength="103.5713" x="313.062" y="281.2217">PostgreSqlJson</text><rect fill="#E2E2F0" height="30.2969" rx="2.5" ry="2.5" style="stroke:#181818;stroke-width:0.5;" width="115.4248" x="578.3682" y="5"/><text fill="#000000" font-family="sans-serif" font-size="14" lengthAdjust="spacing" textLength="101.4248" x="585.3682" y="24.9951">EnrichmentOff</text><rect fill="#E2E2F0" height="30.2969" rx="2.5" ry="2.5" style="stroke:#181818;stroke-width:0.5;" width="115.4248" x="578.3682" y="261.2266"/><text fill="#000000" font-family="sans-serif" font-size="14" lengthAdjust="spacing" textLength="101.4248" x="585.3682" y="281.2217">EnrichmentOff</text><rect fill="#FFFFFF" height="176.7969" style="stroke:#181818;stroke-width:1.0;" width="10" x="174.9238" y="67.4297"/><rect fill="#FFFFFF" height="118.5313" style="stroke:#181818;stroke-width:1.0;" width="10" x="359.8477" y="96.5625"/><rect fill="#FFFFFF" height="29.1328" style="stroke:#181818;stroke-width:1.0;" width="10" x="631.0806" y="149.8281"/><polygon fill="#181818" points="162.9238,63.4297,172.9238,67.4297,162.9238,71.4297,166.9238,67.4297" style="stroke:#181818;stroke-width:1.0;"/><line style="stroke:#181818;stroke-width:1.0;" x1="0" x2="168.9238" y1="67.4297" y2="67.4297"/><text fill="#000000" font-family="sans-serif" font-size="13" lengthAdjust="spacing" textLength="86.874" x="7" y="62.3638">parseLogLine</text><text fill="#808080" font-family="sans-serif" font-size="13" lengthAdjust="spacing" textLength="60.7852" x="102.1387" y="62.3638">0.194 ms</text><polygon fill="#181818" points="347.8477,92.5625,357.8477,96.5625,347.8477,100.5625,351.8477,96.5625" style="stroke:#181818;stroke-width:1.0;"/><line style="stroke:#181818;stroke-width:1.0;" x1="184.9238" x2="353.8477" y1="96.5625" y2="96.5625"/><text fill="#000000" font-family="sans-serif" font-size="13" lengthAdjust="spacing" textLength="86.874" x="191.9238" y="91.4966">parseLogLine</text><text fill="#808080" font-family="sans-serif" font-size="13" lengthAdjust="spacing" textLength="60.7852" x="287.0625" y="91.4966">0.152 ms</text><path d="M296.062,111.5625 L372.686,111.5625 L372.686,118.6953 L362.686,128.6953 L296.062,128.6953 L296.062,111.5625 " fill="#EEEEEE" style="stroke:#000000;stroke-width:1.5;"/><rect fill="none" height="75.3984" style="stroke:#000000;stroke-width:1.5;" width="407.731" x="296.062" y="111.5625"/><text fill="#000000" font-family="sans-serif" font-size="13" font-weight="bold" lengthAdjust="spacing" textLength="31.624" x="311.062" y="124.6294">loop</text><text fill="#000000" font-family="sans-serif" font-size="11" font-weight="bold" lengthAdjust="spacing" textLength="51.0093" x="387.686" y="123.7729">[2 times</text><text fill="#808080" font-family="sans-serif" font-size="11" font-weight="bold" lengthAdjust="spacing" textLength="64.2866" x="446.3545" y="123.7729">0.0412 ms</text><text fill="#000000" font-family="sans-serif" font-size="11" font-weight="bold" lengthAdjust="spacing" textLength="5.0273" x="510.6411" y="123.7729">]</text><polygon fill="#181818" points="619.0806,145.8281,629.0806,149.8281,619.0806,153.8281,623.0806,149.8281" style="stroke:#181818;stroke-width:1.0;"/><line style="stroke:#181818;stroke-width:1.0;" x1="369.8477" x2="625.0806" y1="149.8281" y2="149.8281"/><text fill="#000000" font-family="sans-serif" font-size="13" lengthAdjust="spacing" textLength="164.9121" x="376.8477" y="144.7622">enricherApplicationName</text><text fill="#808080" font-family="sans-serif" font-size="13" lengthAdjust="spacing" textLength="69.0562" x="550.0244" y="144.7622">0.0412 ms</text><polygon fill="#181818" points="380.8477,174.9609,370.8477,178.9609,380.8477,182.9609,376.8477,178.9609" style="stroke:#181818;stroke-width:1.0;"/><line style="stroke:#181818;stroke-width:1.0;stroke-dasharray:2.0,2.0;" x1="374.8477" x2="635.0806" y1="178.9609" y2="178.9609"/><text fill="#000000" font-family="sans-serif" font-size="13" lengthAdjust="spacing" textLength="27.5107" x="386.8477" y="173.895">void</text><polygon fill="#181818" points="195.9238,211.0938,185.9238,215.0938,195.9238,219.0938,191.9238,215.0938" style="stroke:#181818;stroke-width:1.0;"/><line style="stroke:#181818;stroke-width:1.0;stroke-dasharray:2.0,2.0;" x1="189.9238" x2="363.8477" y1="215.0938" y2="215.0938"/><text fill="#000000" font-family="sans-serif" font-size="13" lengthAdjust="spacing" textLength="27.5107" x="201.9238" y="210.0278">void</text><polygon fill="#181818" points="11,240.2266,1,244.2266,11,248.2266,7,244.2266" style="stroke:#181818;stroke-width:1.0;"/><line style="stroke:#181818;stroke-width:1.0;stroke-dasharray:2.0,2.0;" x1="5" x2="178.9238" y1="244.2266" y2="244.2266"/><text fill="#000000" font-family="sans-serif" font-size="13" lengthAdjust="spacing" textLength="27.5107" x="17" y="239.1606">void</text><!--SRC=[ZP8nQyCm48Nt_8h3kziaf4EDCNJ8KamRQBTCGhwu1xPEbOv0_dqSjvZAijgEUdhlUwT3LZaXJLOPWGDxQHs-VNRFdiqxUW7b8OlbR6MJiOL8QDyRH_gZHoElfzFe3fHi1N3CgxYqW87YiUQs9eDGQkxO5QrJbmhMTvl77VI-l1_LQc0eBNHMWWkl6cvXGPwN_b7ui0qBavNZ7K3DR64BGZtwEMozsqIqUCYy2ZPL08v7T4_MTgIL49iNrUD_wTEy0JPHNkRvhFtCr4pc1d-bxKsJsFh0dQzz0l-0HYizHi6lJ_8TJaPlhYi0]--></g></svg>