<svg xmlns="http://www.w3.org/2000/svg" xmlns:xlink="http://www.w3.org/1999/xlink" contentStyleType="text/css" height="382px" preserveAspectRatio="none" style="width:802px;height:382px;background:#FFFFFF;" version="1.1" viewBox="0 0 802 382" width="802px" zoomAndPan="magnify"><defs/><g><rect fill="#FFFFFF" height="262.1953" style="stroke:#181818;stroke-width:1.0;" width="10" x="349.9541" y="67.4297"/><rect fill="#FFFFFF" height="87.3984" style="stroke:#181818;stroke-width:1.0;" width="10" x="537.8804" y="96.5625"/><rect fill="#FFFFFF" height="87.3984" style="stroke:#181818;stroke-width:1.0;" width="10" x="537.8804" y="213.0938"/><rect fill="#FFFFFF" height="29.1328" style="stroke:#181818;stroke-width:1.0;" width="10" x="733.957" y="125.6953"/><rect fill="#FFFFFF" height="29.1328" style="stroke:#181818;stroke-width:1.0;" width="10" x="733.957" y="242.2266"/><line style="stroke:#181818;stroke-width:0.5;stroke-dasharray:5.0,5.0;" x1="354.0801" x2="354.0801" y1="36.2969" y2="347.625"/><line style="stroke:#181818;stroke-width:0.5;stroke-dasharray:5.0,5.0;" x1="542.0947" x2="542.0947" y1="36.2969" y2="347.625"/><line style="stroke:#181818;stroke-width:0.5;stroke-dasharray:5.0,5.0;" x1="738.2446" x2="738.2446" y1="36.2969" y2="347.625"/><rect fill="#E2E2F0" height="30.2969" rx="2.5" ry="2.5" style="stroke:#181818;stroke-width:0.5;" width="149.748" x="280.0801" y="5"/><text fill="#000000" font-family="sans-serif" font-size="14" lengthAdjust="spacing" textLength="135.748" x="287.0801" y="24.9951">LogEnrichmentTest</text><rect fill="#E2E2F0" height="30.2969" rx="2.5" ry="2.5" style="stroke:#181818;stroke-width:0.5;" width="149.748" x="280.0801" y="346.625"/><text fill="#000000" font-family="sans-serif" font-size="14" lengthAdjust="spacing" textLength="135.748" x="287.0801" y="366.6201">LogEnrichmentTest</text><rect fill="#E2E2F0" height="30.2969" rx="2.5" ry="2.5" style="stroke:#181818;stroke-width:0.5;" width="117.5713" x="484.0947" y="5"/><text fill="#000000" font-family="sans-serif" font-size="14" lengthAdjust="spacing" textLength="103.5713" x="491.0947" y="24.9951">PostgreSqlJson</text><rect fill="#E2E2F0" height="30.2969" rx="2.5" ry="2.5" style="stroke:#181818;stroke-width:0.5;" width="117.5713" x="484.0947" y="346.625"/><text fill="#000000" font-family="sans-serif" font-size="14" lengthAdjust="spacing" textLength="103.5713" x="491.0947" y="366.6201">PostgreSqlJson</text><rect fill="#E2E2F0" height="30.2969" rx="2.5" ry="2.5" style="stroke:#181818;stroke-width:0.5;" width="115.4248" x="681.2446" y="5"/><text fill="#000000" font-family="sans-serif" font-size="14" lengthAdjust="spacing" textLength="101.4248" x="688.2446" y="24.9951">EnrichmentOff</text><rect fill="#E2E2F0" height="30.2969" rx="2.5" ry="2.5" style="stroke:#181818;stroke-width:0.5;" width="115.4248" x="681.2446" y="346.625"/><text fill="#000000" font-family="sans-serif" font-size="14" lengthAdjust="spacing" textLength="101.4248" x="688.2446" y="366.6201">EnrichmentOff</text><rect fill="#FFFFFF" height="262.1953" style="stroke:#181818;stroke-width:1.0;" width="10" x="349.9541" y="67.4297"/><rect fill="#FFFFFF" height="87.3984" style="stroke:#181818;stroke-width:1.0;" width="10" x="537.8804" y="96.5625"/><rect fill="#FFFFFF" height="87.3984" style="stroke:#181818;stroke-width:1.0;" width="10" x="537.8804" y="213.0938"/><rect fill="#FFFFFF" height="29.1328" style="stroke:#181818;stroke-width:1.0;" width="10" x="733.957" y="125.6953"/><rect fill="#FFFFFF" height="29.1328" style="stroke:#181818;stroke-width:1.0;" width="10" x="733.957" y="242.2266"/><polygon fill="#181818" points="337.9541,63.4297,347.9541,67.4297,337.9541,71.4297,341.9541,67.4297" style="stroke:#181818;stroke-width:1.0;"/><line style="stroke:#181818;stroke-width:1.0;" x1="0" x2="343.9541" y1="67.4297" y2="67.4297"/><text fill="#000000" font-family="sans-serif" font-size="13" lengthAdjust="spacing" textLength="270.1753" x="7" y="62.3638">initLogEnricherWithDbHostWoConnection</text><text fill="#808080" font-family="sans-serif" font-size="13" lengthAdjust="spacing" textLength="52.5142" x="285.4399" y="62.3638">1.28 ms</text><polygon fill="#181818" points="525.8804,92.5625,535.8804,96.5625,525.8804,100.5625,529.8804,96.5625" style="stroke:#181818;stroke-width:1.0;"/><line style="stroke:#181818;stroke-width:1.0;" x1="359.9541" x2="531.8804" y1="96.5625" y2="96.5625"/><text fill="#000000" font-family="sans-serif" font-size="13" lengthAdjust="spacing" textLength="98.1475" x="366.9541" y="91.4966">initLogEnricher</text><text fill="#808080" font-family="sans-serif" font-size="13" lengthAdjust="spacing" textLength="52.5142" x="473.3662" y="91.4966">1.23 ms</text><polygon fill="#181818" points="721.957,121.6953,731.957,125.6953,721.957,129.6953,725.957,125.6953" style="stroke:#181818;stroke-width:1.0;"/><line style="stroke:#181818;stroke-width:1.0;" x1="547.8804" x2="727.957" y1="125.6953" y2="125.6953"/><text fill="#000000" font-family="sans-serif" font-size="13" lengthAdjust="spacing" textLength="89.7559" x="554.8804" y="120.6294">getStatement</text><text fill="#808080" font-family="sans-serif" font-size="13" lengthAdjust="spacing" textLength="69.0562" x="652.9009" y="120.6294">0.0158 ms</text><polygon fill="#181818" points="558.8804,150.8281,548.8804,154.8281,558.8804,158.8281,554.8804,154.8281" style="stroke:#181818;stroke-width:1.0;"/><line style="stroke:#181818;stroke-width:1.0;stroke-dasharray:2.0,2.0;" x1="552.8804" x2="737.957" y1="154.8281" y2="154.8281"/><text fill="#000000" font-family="sans-serif" font-size="13" lengthAdjust="spacing" textLength="27.5107" x="564.8804" y="149.7622">void</text><polygon fill="#181818" points="370.9541,179.9609,360.9541,183.9609,370.9541,187.9609,366.9541,183.9609" style="stroke:#181818;stroke-width:1.0;"/><line style="stroke:#181818;stroke-width:1.0;stroke-dasharray:2.0,2.0;" x1="364.9541" x2="541.8804" y1="183.9609" y2="183.9609"/><text fill="#000000" font-family="sans-serif" font-size="13" lengthAdjust="spacing" textLength="27.5107" x="376.9541" y="178.895">void</text><polygon fill="#181818" points="525.8804,209.0938,535.8804,213.0938,525.8804,217.0938,529.8804,213.0938" style="stroke:#181818;stroke-width:1.0;"/><line style="stroke:#181818;stroke-width:1.0;" x1="359.9541" x2="531.8804" y1="213.0938" y2="213.0938"/><text fill="#000000" font-family="sans-serif" font-size="13" lengthAdjust="spacing" textLength="33.4839" x="366.9541" y="208.0278">close</text><text fill="#808080" font-family="sans-serif" font-size="13" lengthAdjust="spacing" textLength="69.0562" x="408.7026" y="208.0278">0.0219 ms</text><polygon fill="#181818" points="721.957,238.2266,731.957,242.2266,721.957,246.2266,725.957,242.2266" style="stroke:#181818;stroke-width:1.0;"/><line style="stroke:#181818;stroke-width:1.0;" x1="547.8804" x2="727.957" y1="242.2266" y2="242.2266"/><text fill="#000000" font-family="sans-serif" font-size="13" lengthAdjust="spacing" textLength="33.4839" x="554.8804" y="237.1606">close</text><text fill="#808080" font-family="sans-serif" font-size="13" lengthAdjust="spacing" textLength="77.3271" x="596.6289" y="237.1606">0.00829 ms</text><polygon fill="#181818" points="558.8804,267.3594,548.8804,271.3594,558.8804,275.3594,554.8804,271.3594" style="stroke:#181818;stroke-width:1.0;"/><line style="stroke:#181818;stroke-width:1.0;stroke-dasharray:2.0,2.0;" x1="552.8804" x2="737.957" y1="271.3594" y2="271.3594"/><text fill="#000000" font-family="sans-serif" font-size="13" lengthAdjust="spacing" textLength="27.5107" x="564.8804" y="266.2935">void</text><polygon fill="#181818" points="370.9541,296.4922,360.9541,300.4922,370.9541,304.4922,366.9541,300.4922" style="stroke:#181818;stroke-width:1.0;"/><line style="stroke:#181818;stroke-width:1.0;stroke-dasharray:2.0,2.0;" x1="364.9541" x2="541.8804" y1="300.4922" y2="300.4922"/><text fill="#000000" font-family="sans-serif" font-size="13" lengthAdjust="spacing" textLength="27.5107" x="376.9541" y="295.4263">void</text><polygon fill="#181818" points="11,325.625,1,329.625,11,333.625,7,329.625" style="stroke:#181818;stroke-width:1.0;"/><line style="stroke:#181818;stroke-width:1.0;stroke-dasharray:2.0,2.0;" x1="5" x2="353.9541" y1="329.625" y2="329.625"/><text fill="#000000" font-family="sans-serif" font-size="13" lengthAdjust="spacing" textLength="27.5107" x="17" y="324.5591">void</text><!--SRC=[rPCnQyCm58Jt_8g7TwMsGy0nHajRAA7GGWePCgcAuWWSoPKUWVpxgYQaafyf7RfqFTtTvtVWNZZKKlV283pRzj4uBOydPV1DUGJX8IDgDkkZqAlrs3gr-UZMtfeXaKgf_RlgvN0Ot8cIpG1sZ1Dc3TfelCdARJKU7zwV0cbhxwqnIg8E-4RQphgwTUB2ePYN5PnySpU8F5IBu3eBLFJKy0XKPJozXNm60IvIO8HCcuOt68cC9sFKq2hSO0X_2Iagd-V5iXh38bpID4bh61lXpbRlhzQz-g69x1IgnaFTkgAcYGb-CRdih5Va-h9O_UdKqvIyAbV_VUHT24xyKDTib2IcJm00]--></g></svg>