<svg xmlns="http://www.w3.org/2000/svg" xmlns:xlink="http://www.w3.org/1999/xlink" contentStyleType="text/css" height="418px" preserveAspectRatio="none" style="width:1414px;height:418px;background:#FFFFFF;" version="1.1" viewBox="0 0 1414 418" width="1414px" zoomAndPan="magnify"><defs/><g><rect fill="#FFFFFF" height="180.7969" style="stroke:#181818;stroke-width:1.0;" width="10" x="374.9067" y="67.4297"/><rect fill="#FFFFFF" height="122.5313" style="stroke:#181818;stroke-width:1.0;" width="10" x="562.833" y="96.5625"/><rect fill="#FFFFFF" height="87.3984" style="stroke:#181818;stroke-width:1.0;" width="10" x="562.833" y="277.3594"/><rect fill="#FFFFFF" height="29.1328" style="stroke:#181818;stroke-width:1.0;" width="10" x="742.3677" y="160.8281"/><rect fill="#FFFFFF" height="29.1328" style="stroke:#181818;stroke-width:1.0;" width="10" x="896.2129" y="306.4922"/><line style="stroke:#181818;stroke-width:0.5;stroke-dasharray:5.0,5.0;" x1="379.0327" x2="379.0327" y1="36.2969" y2="382.7578"/><line style="stroke:#181818;stroke-width:0.5;stroke-dasharray:5.0,5.0;" x1="567.0474" x2="567.0474" y1="36.2969" y2="382.7578"/><line style="stroke:#181818;stroke-width:0.5;stroke-dasharray:5.0,5.0;" x1="747.2349" x2="747.2349" y1="36.2969" y2="382.7578"/><line style="stroke:#181818;stroke-width:0.5;stroke-dasharray:5.0,5.0;" x1="900.5005" x2="900.5005" y1="36.2969" y2="382.7578"/><line style="stroke:#181818;stroke-width:0.5;stroke-dasharray:5.0,5.0;" x1="1018.8501" x2="1018.8501" y1="36.2969" y2="382.7578"/><rect fill="#E2E2F0" height="30.2969" rx="2.5" ry="2.5" style="stroke:#181818;stroke-width:0.5;" width="149.748" x="305.0327" y="5"/><text fill="#000000" font-family="sans-serif" font-size="14" lengthAdjust="spacing" textLength="135.748" x="312.0327" y="24.9951">LogEnrichmentTest</text><rect fill="#E2E2F0" height="30.2969" rx="2.5" ry="2.5" style="stroke:#181818;stroke-width:0.5;" width="149.748" x="305.0327" y="381.7578"/><text fill="#000000" font-family="sans-serif" font-size="14" lengthAdjust="spacing" textLength="135.748" x="312.0327" y="401.7529">LogEnrichmentTest</text><rect fill="#E2E2F0" height="30.2969" rx="2.5" ry="2.5" style="stroke:#181818;stroke-width:0.5;" width="117.5713" x="509.0474" y="5"/><text fill="#000000" font-family="sans-serif" font-size="14" lengthAdjust="spacing" textLength="103.5713" x="516.0474" y="24.9951">PostgreSqlJson</text><rect fill="#E2E2F0" height="30.2969" rx="2.5" ry="2.5" style="stroke:#181818;stroke-width:0.5;" width="117.5713" x="509.0474" y="381.7578"/><text fill="#000000" font-family="sans-serif" font-size="14" lengthAdjust="spacing" textLength="103.5713" x="516.0474" y="401.7529">PostgreSqlJson</text><rect fill="#E2E2F0" height="30.2969" rx="2.5" ry="2.5" style="stroke:#181818;stroke-width:0.5;" width="172.2656" x="661.2349" y="5"/><text fill="#000000" font-family="sans-serif" font-size="14" lengthAdjust="spacing" textLength="158.2656" x="668.2349" y="24.9951">LogEnricherPostgreSql</text><rect fill="#E2E2F0" height="30.2969" rx="2.5" ry="2.5" style="stroke:#181818;stroke-width:0.5;" width="172.2656" x="661.2349" y="381.7578"/><text fill="#000000" font-family="sans-serif" font-size="14" lengthAdjust="spacing" textLength="158.2656" x="668.2349" y="401.7529">LogEnricherPostgreSql</text><rect fill="#E2E2F0" height="30.2969" rx="2.5" ry="2.5" style="stroke:#181818;stroke-width:0.5;" width="115.4248" x="843.5005" y="5"/><text fill="#000000" font-family="sans-serif" font-size="14" lengthAdjust="spacing" textLength="101.4248" x="850.5005" y="24.9951">EnrichmentOff</text><rect fill="#E2E2F0" height="30.2969" rx="2.5" ry="2.5" style="stroke:#181818;stroke-width:0.5;" width="115.4248" x="843.5005" y="381.7578"/><text fill="#000000" font-family="sans-serif" font-size="14" lengthAdjust="spacing" textLength="101.4248" x="850.5005" y="401.7529">EnrichmentOff</text><rect fill="#E2E2F0" height="30.2969" rx="2.5" ry="2.5" style="stroke:#181818;stroke-width:0.5;" width="80.8008" x="978.8501" y="5"/><text fill="#000000" font-family="sans-serif" font-size="14" lengthAdjust="spacing" textLength="66.8008" x="985.8501" y="24.9951">Database</text><rect fill="#E2E2F0" height="30.2969" rx="2.5" ry="2.5" style="stroke:#181818;stroke-width:0.5;" width="80.8008" x="978.8501" y="381.7578"/><text fill="#000000" font-family="sans-serif" font-size="14" lengthAdjust="spacing" textLength="66.8008" x="985.8501" y="401.7529">Database</text><rect fill="#FFFFFF" height="180.7969" style="stroke:#181818;stroke-width:1.0;" width="10" x="374.9067" y="67.4297"/><rect fill="#FFFFFF" height="122.5313" style="stroke:#181818;stroke-width:1.0;" width="10" x="562.833" y="96.5625"/><rect fill="#FFFFFF" height="87.3984" style="stroke:#181818;stroke-width:1.0;" width="10" x="562.833" y="277.3594"/><rect fill="#FFFFFF" height="29.1328" style="stroke:#181818;stroke-width:1.0;" width="10" x="742.3677" y="160.8281"/><rect fill="#FFFFFF" height="29.1328" style="stroke:#181818;stroke-width:1.0;" width="10" x="896.2129" y="306.4922"/><polygon fill="#181818" points="362.9067,63.4297,372.9067,67.4297,362.9067,71.4297,366.9067,67.4297" style="stroke:#181818;stroke-width:1.0;"/><line style="stroke:#181818;stroke-width:1.0;" x1="0" x2="368.9067" y1="67.4297" y2="67.4297"/><text fill="#000000" font-family="sans-serif" font-size="13" lengthAdjust="spacing" textLength="307.5313" x="7" y="62.3638">initLogEnricherWithDbHostWoPgStatStatement</text><text fill="#808080" font-family="sans-serif" font-size="13" lengthAdjust="spacing" textLength="40.1108" x="322.7959" y="62.3638">16 ms</text><polygon fill="#181818" points="550.833,92.5625,560.833,96.5625,550.833,100.5625,554.833,96.5625" style="stroke:#181818;stroke-width:1.0;"/><line style="stroke:#181818;stroke-width:1.0;" x1="384.9067" x2="556.833" y1="96.5625" y2="96.5625"/><text fill="#000000" font-family="sans-serif" font-size="13" lengthAdjust="spacing" textLength="98.1475" x="391.9067" y="91.4966">initLogEnricher</text><text fill="#808080" font-family="sans-serif" font-size="13" lengthAdjust="spacing" textLength="52.5142" x="498.3188" y="91.4966">15.3 ms</text><polygon fill="#181818" points="1007.2505,124.6953,1017.2505,128.6953,1007.2505,132.6953,1011.2505,128.6953" style="stroke:#181818;stroke-width:1.0;"/><line style="stroke:#181818;stroke-width:1.0;" x1="572.833" x2="1013.2505" y1="128.6953" y2="128.6953"/><text fill="#000000" font-family="sans-serif" font-size="13" lengthAdjust="spacing" textLength="345.0967" x="579.833" y="123.6294">select query from pg_stat_statements where queryid</text><text fill="#808080" font-family="sans-serif" font-size="13" lengthAdjust="spacing" textLength="69.0562" x="933.1943" y="123.6294">0.0454 ms</text><path d="M1024,109.5625 L1024,134.5625 L1407,134.5625 L1407,119.5625 L1397,109.5625 L1024,109.5625 " fill="#FEFFDD" style="stroke:#181818;stroke-width:0.5;"/><path d="M1397,109.5625 L1397,119.5625 L1407,119.5625 L1397,109.5625 " fill="#FEFFDD" style="stroke:#181818;stroke-width:0.5;"/><text fill="#000000" font-family="sans-serif" font-size="13" lengthAdjust="spacing" textLength="362.8892" x="1030" y="126.6294">select query from pg_stat_statements where queryid=?</text><polygon fill="#181818" points="730.3677,156.8281,740.3677,160.8281,730.3677,164.8281,734.3677,160.8281" style="stroke:#181818;stroke-width:1.0;"/><line style="stroke:#181818;stroke-width:1.0;" x1="572.833" x2="736.3677" y1="160.8281" y2="160.8281"/><text fill="#000000" font-family="sans-serif" font-size="13" lengthAdjust="spacing" textLength="89.7559" x="579.833" y="155.7622">getStatement</text><text fill="#808080" font-family="sans-serif" font-size="13" lengthAdjust="spacing" textLength="52.5142" x="677.8535" y="155.7622">6.07 ms</text><polygon fill="#181818" points="583.833,185.9609,573.833,189.9609,583.833,193.9609,579.833,189.9609" style="stroke:#181818;stroke-width:1.0;"/><line style="stroke:#181818;stroke-width:1.0;stroke-dasharray:2.0,2.0;" x1="577.833" x2="746.3677" y1="189.9609" y2="189.9609"/><text fill="#000000" font-family="sans-serif" font-size="13" font-style="italic" lengthAdjust="spacing" textLength="69.2021" x="589.833" y="184.895">exception!</text><polygon fill="#181818" points="395.9067,215.0938,385.9067,219.0938,395.9067,223.0938,391.9067,219.0938" style="stroke:#181818;stroke-width:1.0;"/><line style="stroke:#181818;stroke-width:1.0;stroke-dasharray:2.0,2.0;" x1="389.9067" x2="566.833" y1="219.0938" y2="219.0938"/><text fill="#000000" font-family="sans-serif" font-size="13" font-style="italic" lengthAdjust="spacing" textLength="69.2021" x="401.9067" y="214.0278">exception!</text><polygon fill="#181818" points="11,244.2266,1,248.2266,11,252.2266,7,248.2266" style="stroke:#181818;stroke-width:1.0;"/><line style="stroke:#181818;stroke-width:1.0;stroke-dasharray:2.0,2.0;" x1="5" x2="378.9067" y1="248.2266" y2="248.2266"/><text fill="#000000" font-family="sans-serif" font-size="13" lengthAdjust="spacing" textLength="27.5107" x="17" y="243.1606">void</text><polygon fill="#181818" points="550.833,273.3594,560.833,277.3594,550.833,281.3594,554.833,277.3594" style="stroke:#181818;stroke-width:1.0;"/><line style="stroke:#181818;stroke-width:1.0;" x1="0" x2="556.833" y1="277.3594" y2="277.3594"/><text fill="#000000" font-family="sans-serif" font-size="13" lengthAdjust="spacing" textLength="33.4839" x="7" y="272.2935">close</text><text fill="#808080" font-family="sans-serif" font-size="13" lengthAdjust="spacing" textLength="69.0562" x="48.7485" y="272.2935">0.0258 ms</text><polygon fill="#181818" points="884.2129,302.4922,894.2129,306.4922,884.2129,310.4922,888.2129,306.4922" style="stroke:#181818;stroke-width:1.0;"/><line style="stroke:#181818;stroke-width:1.0;" x1="572.833" x2="890.2129" y1="306.4922" y2="306.4922"/><text fill="#000000" font-family="sans-serif" font-size="13" lengthAdjust="spacing" textLength="33.4839" x="579.833" y="301.4263">close</text><text fill="#808080" font-family="sans-serif" font-size="13" lengthAdjust="spacing" textLength="69.0562" x="621.5815" y="301.4263">0.0111 ms</text><polygon fill="#181818" points="583.833,331.625,573.833,335.625,583.833,339.625,579.833,335.625" style="stroke:#181818;stroke-width:1.0;"/><line style="stroke:#181818;stroke-width:1.0;stroke-dasharray:2.0,2.0;" x1="577.833" x2="900.2129" y1="335.625" y2="335.625"/><text fill="#000000" font-family="sans-serif" font-size="13" lengthAdjust="spacing" textLength="27.5107" x="589.833" y="330.5591">void</text><polygon fill="#181818" points="11,360.7578,1,364.7578,11,368.7578,7,364.7578" style="stroke:#181818;stroke-width:1.0;"/><line style="stroke:#181818;stroke-width:1.0;stroke-dasharray:2.0,2.0;" x1="5" x2="566.833" y1="364.7578" y2="364.7578"/><text fill="#000000" font-family="sans-serif" font-size="13" lengthAdjust="spacing" textLength="27.5107" x="17" y="359.6919">void</text><!--SRC=[bLDTJy8m57tVhxZoFc0AQ9OvNo0nnYW99ZpimPIkZ2QZ7Mr5-VUM2jAFBT47bd1xUiwvzvusI2YAQOEOWcTUpPYWUBCbJBqHgG19w0NLNjHOb-PSgagGnQv-afoP6sx9XV-o4N61kJhsYNlvukDrlJQNd8eBdYA5LaWIWpl_wKK0HPm7FQL06LMMXILLc-dgKHjPydcrK4WTV-I8Xmppcekq4kYGGpA1hSm6ffHhTeGLtMjaE4rz264rpjrn1KuykN7_nXMq95qcSmPUCSxFeqX1affW1RiF8Wwm5dmBJVKkTPlcOtgLyAaja1yCBLqlm_vmD1xvRW1UkFOYQBLHqVybxXzEB3DM0jDC7MsqnYM5YdGjQj8VtePUmtNPVAtQMHntY6Sq9r-OD8foTfKDw5ca97-G2PAXTVnej0jOz4422jlj9UrxJiketPWLro8C9wwvVb9-3Ax7Tnsle2MI_YQTDzoba2H9P-mTWgXrOPx6gNrd03vBqJB_S6mkuXi0]--></g></svg>