<svg xmlns="http://www.w3.org/2000/svg" xmlns:xlink="http://www.w3.org/1999/xlink" contentStyleType="text/css" height="1198px" preserveAspectRatio="none" style="width:1583px;height:1198px;background:#FFFFFF;" version="1.1" viewBox="0 0 1583 1198" width="1583px" zoomAndPan="magnify"><defs/><g><rect fill="#FFFFFF" height="87.3984" style="stroke:#181818;stroke-width:1.0;" width="10" x="118.144" y="67.4297"/><rect fill="#FFFFFF" height="87.3984" style="stroke:#181818;stroke-width:1.0;" width="10" x="118.144" y="1057.9453"/><rect fill="#FFFFFF" height="29.1328" style="stroke:#181818;stroke-width:1.0;" width="10" x="358.8955" y="96.5625"/><rect fill="#FFFFFF" height="122.5313" style="stroke:#181818;stroke-width:1.0;" width="10" x="358.8955" y="263.3594"/><rect fill="#FFFFFF" height="176.7969" style="stroke:#181818;stroke-width:1.0;" width="10" x="358.8955" y="706.3516"/><rect fill="#FFFFFF" height="87.3984" style="stroke:#181818;stroke-width:1.0;" width="10" x="358.8955" y="912.2813"/><rect fill="#FFFFFF" height="29.1328" style="stroke:#181818;stroke-width:1.0;" width="10" x="358.8955" y="1087.0781"/><rect fill="#FFFFFF" height="844.8516" style="stroke:#181818;stroke-width:1.0;" width="10" x="546.8218" y="183.9609"/><rect fill="#FFFFFF" height="29.1328" style="stroke:#181818;stroke-width:1.0;" width="10" x="826.3257" y="327.625"/><rect fill="#FFFFFF" height="29.1328" style="stroke:#181818;stroke-width:1.0;" width="10" x="826.3257" y="415.0234"/><rect fill="#FFFFFF" height="29.1328" style="stroke:#181818;stroke-width:1.0;" width="10" x="826.3257" y="497.4219"/><rect fill="#FFFFFF" height="29.1328" style="stroke:#181818;stroke-width:1.0;" width="10" x="826.3257" y="612.9531"/><rect fill="#FFFFFF" height="29.1328" style="stroke:#181818;stroke-width:1.0;" width="10" x="826.3257" y="759.6172"/><rect fill="#FFFFFF" height="29.1328" style="stroke:#181818;stroke-width:1.0;" width="10" x="826.3257" y="824.8828"/><rect fill="#FFFFFF" height="29.1328" style="stroke:#181818;stroke-width:1.0;" width="10" x="826.3257" y="941.4141"/><rect fill="none" height="75.3984" style="stroke:#000000;stroke-width:1.5;" width="460.5107" x="466.9478" y="459.1563"/><rect fill="none" height="75.3984" style="stroke:#000000;stroke-width:1.5;" width="632.3486" x="295.1099" y="721.3516"/><line style="stroke:#181818;stroke-width:0.5;stroke-dasharray:5.0,5.0;" x1="122.4512" x2="122.4512" y1="36.2969" y2="1163.3438"/><line style="stroke:#181818;stroke-width:0.5;stroke-dasharray:5.0,5.0;" x1="363.1099" x2="363.1099" y1="36.2969" y2="1163.3438"/><line style="stroke:#181818;stroke-width:0.5;stroke-dasharray:5.0,5.0;" x1="550.9478" x2="550.9478" y1="36.2969" y2="1163.3438"/><line style="stroke:#181818;stroke-width:0.5;stroke-dasharray:5.0,5.0;" x1="831.1929" x2="831.1929" y1="36.2969" y2="1163.3438"/><line style="stroke:#181818;stroke-width:0.5;stroke-dasharray:5.0,5.0;" x1="1004.4766" x2="1004.4766" y1="36.2969" y2="1163.3438"/><rect fill="#E2E2F0" height="30.2969" rx="2.5" ry="2.5" style="stroke:#181818;stroke-width:0.5;" width="135.3857" x="55.4512" y="5"/><text fill="#000000" font-family="sans-serif" font-size="14" lengthAdjust="spacing" textLength="121.3857" x="62.4512" y="24.9951">PostgreSqlJson$2</text><rect fill="#E2E2F0" height="30.2969" rx="2.5" ry="2.5" style="stroke:#181818;stroke-width:0.5;" width="135.3857" x="55.4512" y="1162.3438"/><text fill="#000000" font-family="sans-serif" font-size="14" lengthAdjust="spacing" textLength="121.3857" x="62.4512" y="1182.3389">PostgreSqlJson$2</text><rect fill="#E2E2F0" height="30.2969" rx="2.5" ry="2.5" style="stroke:#181818;stroke-width:0.5;" width="117.5713" x="305.1099" y="5"/><text fill="#000000" font-family="sans-serif" font-size="14" lengthAdjust="spacing" textLength="103.5713" x="312.1099" y="24.9951">PostgreSqlJson</text><rect fill="#E2E2F0" height="30.2969" rx="2.5" ry="2.5" style="stroke:#181818;stroke-width:0.5;" width="117.5713" x="305.1099" y="1162.3438"/><text fill="#000000" font-family="sans-serif" font-size="14" lengthAdjust="spacing" textLength="103.5713" x="312.1099" y="1182.3389">PostgreSqlJson</text><rect fill="#E2E2F0" height="30.2969" rx="2.5" ry="2.5" style="stroke:#181818;stroke-width:0.5;" width="149.748" x="476.9478" y="5"/><text fill="#000000" font-family="sans-serif" font-size="14" lengthAdjust="spacing" textLength="135.748" x="483.9478" y="24.9951">LogEnrichmentTest</text><rect fill="#E2E2F0" height="30.2969" rx="2.5" ry="2.5" style="stroke:#181818;stroke-width:0.5;" width="149.748" x="476.9478" y="1162.3438"/><text fill="#000000" font-family="sans-serif" font-size="14" lengthAdjust="spacing" textLength="135.748" x="483.9478" y="1182.3389">LogEnrichmentTest</text><rect fill="#E2E2F0" height="30.2969" rx="2.5" ry="2.5" style="stroke:#181818;stroke-width:0.5;" width="172.2656" x="745.1929" y="5"/><text fill="#000000" font-family="sans-serif" font-size="14" lengthAdjust="spacing" textLength="158.2656" x="752.1929" y="24.9951">LogEnricherPostgreSql</text><rect fill="#E2E2F0" height="30.2969" rx="2.5" ry="2.5" style="stroke:#181818;stroke-width:0.5;" width="172.2656" x="745.1929" y="1162.3438"/><text fill="#000000" font-family="sans-serif" font-size="14" lengthAdjust="spacing" textLength="158.2656" x="752.1929" y="1182.3389">LogEnricherPostgreSql</text><rect fill="#E2E2F0" height="30.2969" rx="2.5" ry="2.5" style="stroke:#181818;stroke-width:0.5;" width="80.8008" x="964.4766" y="5"/><text fill="#000000" font-family="sans-serif" font-size="14" lengthAdjust="spacing" textLength="66.8008" x="971.4766" y="24.9951">Database</text><rect fill="#E2E2F0" height="30.2969" rx="2.5" ry="2.5" style="stroke:#181818;stroke-width:0.5;" width="80.8008" x="964.4766" y="1162.3438"/><text fill="#000000" font-family="sans-serif" font-size="14" lengthAdjust="spacing" textLength="66.8008" x="971.4766" y="1182.3389">Database</text><rect fill="#FFFFFF" height="87.3984" style="stroke:#181818;stroke-width:1.0;" width="10" x="118.144" y="67.4297"/><rect fill="#FFFFFF" height="87.3984" style="stroke:#181818;stroke-width:1.0;" width="10" x="118.144" y="1057.9453"/><rect fill="#FFFFFF" height="29.1328" style="stroke:#181818;stroke-width:1.0;" width="10" x="358.8955" y="96.5625"/><rect fill="#FFFFFF" height="122.5313" style="stroke:#181818;stroke-width:1.0;" width="10" x="358.8955" y="263.3594"/><rect fill="#FFFFFF" height="176.7969" style="stroke:#181818;stroke-width:1.0;" width="10" x="358.8955" y="706.3516"/><rect fill="#FFFFFF" height="87.3984" style="stroke:#181818;stroke-width:1.0;" width="10" x="358.8955" y="912.2813"/><rect fill="#FFFFFF" height="29.1328" style="stroke:#181818;stroke-width:1.0;" width="10" x="358.8955" y="1087.0781"/><rect fill="#FFFFFF" height="844.8516" style="stroke:#181818;stroke-width:1.0;" width="10" x="546.8218" y="183.9609"/><rect fill="#FFFFFF" height="29.1328" style="stroke:#181818;stroke-width:1.0;" width="10" x="826.3257" y="327.625"/><rect fill="#FFFFFF" height="29.1328" style="stroke:#181818;stroke-width:1.0;" width="10" x="826.3257" y="415.0234"/><rect fill="#FFFFFF" height="29.1328" style="stroke:#181818;stroke-width:1.0;" width="10" x="826.3257" y="497.4219"/><rect fill="#FFFFFF" height="29.1328" style="stroke:#181818;stroke-width:1.0;" width="10" x="826.3257" y="612.9531"/><rect fill="#FFFFFF" height="29.1328" style="stroke:#181818;stroke-width:1.0;" width="10" x="826.3257" y="759.6172"/><rect fill="#FFFFFF" height="29.1328" style="stroke:#181818;stroke-width:1.0;" width="10" x="826.3257" y="824.8828"/><rect fill="#FFFFFF" height="29.1328" style="stroke:#181818;stroke-width:1.0;" width="10" x="826.3257" y="941.4141"/><polygon fill="#181818" points="106.144,63.4297,116.144,67.4297,106.144,71.4297,110.144,67.4297" style="stroke:#181818;stroke-width:1.0;"/><line style="stroke:#181818;stroke-width:1.0;" x1="0" x2="112.144" y1="67.4297" y2="67.4297"/><text fill="#000000" font-family="sans-serif" font-size="13" lengthAdjust="spacing" textLength="21.8232" x="7" y="62.3638">run</text><text fill="#808080" font-family="sans-serif" font-size="13" lengthAdjust="spacing" textLength="69.0562" x="37.0879" y="62.3638">0.0895 ms</text><polygon fill="#181818" points="346.8955,92.5625,356.8955,96.5625,346.8955,100.5625,350.8955,96.5625" style="stroke:#181818;stroke-width:1.0;"/><line style="stroke:#181818;stroke-width:1.0;" x1="128.144" x2="352.8955" y1="96.5625" y2="96.5625"/><text fill="#000000" font-family="sans-serif" font-size="13" lengthAdjust="spacing" textLength="134.4307" x="135.144" y="91.4966">saveLogFilesPosition</text><text fill="#808080" font-family="sans-serif" font-size="13" lengthAdjust="spacing" textLength="69.0562" x="277.8394" y="91.4966">0.0699 ms</text><polygon fill="#181818" points="139.144,121.6953,129.144,125.6953,139.144,129.6953,135.144,125.6953" style="stroke:#181818;stroke-width:1.0;"/><line style="stroke:#181818;stroke-width:1.0;stroke-dasharray:2.0,2.0;" x1="133.144" x2="362.8955" y1="125.6953" y2="125.6953"/><text fill="#000000" font-family="sans-serif" font-size="13" lengthAdjust="spacing" textLength="27.5107" x="145.144" y="120.6294">void</text><polygon fill="#181818" points="11,150.8281,1,154.8281,11,158.8281,7,154.8281" style="stroke:#181818;stroke-width:1.0;"/><line style="stroke:#181818;stroke-width:1.0;stroke-dasharray:2.0,2.0;" x1="5" x2="122.144" y1="154.8281" y2="154.8281"/><text fill="#000000" font-family="sans-serif" font-size="13" lengthAdjust="spacing" textLength="27.5107" x="17" y="149.7622">void</text><polygon fill="#181818" points="534.8218,179.9609,544.8218,183.9609,534.8218,187.9609,538.8218,183.9609" style="stroke:#181818;stroke-width:1.0;"/><line style="stroke:#181818;stroke-width:1.0;" x1="0" x2="540.8218" y1="183.9609" y2="183.9609"/><text fill="#000000" font-family="sans-serif" font-size="13" lengthAdjust="spacing" textLength="316.5259" x="7" y="178.895">initLogEnricherWithDbHostWithPgStatStatement</text><text fill="#808080" font-family="sans-serif" font-size="13" lengthAdjust="spacing" textLength="48.3818" x="331.7905" y="178.895">149 ms</text><polygon fill="#181818" points="992.877,219.6602,1002.877,223.6602,992.877,227.6602,996.877,223.6602" style="stroke:#181818;stroke-width:1.0;"/><line style="stroke:#181818;stroke-width:1.0;" x1="556.8218" x2="998.877" y1="223.6602" y2="223.6602"/><text fill="#000000" font-family="sans-serif" font-size="13" lengthAdjust="spacing" textLength="349.4004" x="563.8218" y="218.5942">CREATE TABLE pg_stat_statements(queryid bigint, qu</text><text fill="#808080" font-family="sans-serif" font-size="13" lengthAdjust="spacing" textLength="60.7852" x="921.4868" y="218.5942">0.677 ms</text><path d="M1009,196.9609 L1009,236.9609 L1508,236.9609 L1508,206.9609 L1498,196.9609 L1009,196.9609 " fill="#FEFFDD" style="stroke:#181818;stroke-width:0.5;"/><path d="M1498,196.9609 L1498,206.9609 L1508,206.9609 L1498,196.9609 " fill="#FEFFDD" style="stroke:#181818;stroke-width:0.5;"/><text fill="#000000" font-family="sans-serif" font-size="13" lengthAdjust="spacing" textLength="478.2451" x="1015" y="214.0278">CREATE TABLE pg_stat_statements(queryid bigint, query text) /* emulate</text><text fill="#000000" font-family="sans-serif" font-size="13" lengthAdjust="spacing" textLength="143.1523" x="1015" y="229.1606">pg_stat_statements */</text><polygon fill="#181818" points="379.8955,259.3594,369.8955,263.3594,379.8955,267.3594,375.8955,263.3594" style="stroke:#181818;stroke-width:1.0;"/><line style="stroke:#181818;stroke-width:1.0;" x1="373.8955" x2="545.8218" y1="263.3594" y2="263.3594"/><text fill="#000000" font-family="sans-serif" font-size="13" lengthAdjust="spacing" textLength="98.1475" x="385.8955" y="258.2935">initLogEnricher</text><text fill="#808080" font-family="sans-serif" font-size="13" lengthAdjust="spacing" textLength="52.5142" x="492.3076" y="258.2935">23.8 ms</text><polygon fill="#181818" points="992.877,291.4922,1002.877,295.4922,992.877,299.4922,996.877,295.4922" style="stroke:#181818;stroke-width:1.0;"/><line style="stroke:#181818;stroke-width:1.0;" x1="368.8955" x2="998.877" y1="295.4922" y2="295.4922"/><text fill="#000000" font-family="sans-serif" font-size="13" lengthAdjust="spacing" textLength="345.0967" x="375.8955" y="290.4263">select query from pg_stat_statements where queryid</text><text fill="#808080" font-family="sans-serif" font-size="13" lengthAdjust="spacing" textLength="52.5142" x="729.2568" y="290.4263">4.61 ms</text><path d="M1009,276.3594 L1009,301.3594 L1392,301.3594 L1392,286.3594 L1382,276.3594 L1009,276.3594 " fill="#FEFFDD" style="stroke:#181818;stroke-width:0.5;"/><path d="M1382,276.3594 L1382,286.3594 L1392,286.3594 L1382,276.3594 " fill="#FEFFDD" style="stroke:#181818;stroke-width:0.5;"/><text fill="#000000" font-family="sans-serif" font-size="13" lengthAdjust="spacing" textLength="362.8892" x="1015" y="293.4263">select query from pg_stat_statements where queryid=?</text><polygon fill="#181818" points="814.3257,323.625,824.3257,327.625,814.3257,331.625,818.3257,327.625" style="stroke:#181818;stroke-width:1.0;"/><line style="stroke:#181818;stroke-width:1.0;" x1="368.8955" x2="820.3257" y1="327.625" y2="327.625"/><text fill="#000000" font-family="sans-serif" font-size="13" lengthAdjust="spacing" textLength="89.7559" x="375.8955" y="322.5591">getStatement</text><text fill="#808080" font-family="sans-serif" font-size="13" lengthAdjust="spacing" textLength="52.5142" x="473.916" y="322.5591">2.72 ms</text><polygon fill="#181818" points="379.8955,352.7578,369.8955,356.7578,379.8955,360.7578,375.8955,356.7578" style="stroke:#181818;stroke-width:1.0;"/><line style="stroke:#181818;stroke-width:1.0;stroke-dasharray:2.0,2.0;" x1="373.8955" x2="830.3257" y1="356.7578" y2="356.7578"/><text fill="#000000" font-family="sans-serif" font-size="13" lengthAdjust="spacing" textLength="27.5107" x="385.8955" y="351.6919">void</text><polygon fill="#181818" points="534.8218,381.8906,544.8218,385.8906,534.8218,389.8906,538.8218,385.8906" style="stroke:#181818;stroke-width:1.0;"/><line style="stroke:#181818;stroke-width:1.0;stroke-dasharray:2.0,2.0;" x1="363.8955" x2="540.8218" y1="385.8906" y2="385.8906"/><text fill="#000000" font-family="sans-serif" font-size="13" lengthAdjust="spacing" textLength="27.5107" x="370.8955" y="380.8247">void</text><polygon fill="#181818" points="814.3257,411.0234,824.3257,415.0234,814.3257,419.0234,818.3257,415.0234" style="stroke:#181818;stroke-width:1.0;"/><line style="stroke:#181818;stroke-width:1.0;" x1="556.8218" x2="820.3257" y1="415.0234" y2="415.0234"/><text fill="#000000" font-family="sans-serif" font-size="13" lengthAdjust="spacing" textLength="164.9121" x="563.8218" y="409.9575">enricherApplicationName</text><text fill="#808080" font-family="sans-serif" font-size="13" lengthAdjust="spacing" textLength="77.3271" x="736.9985" y="409.9575">0.00504 ms</text><polygon fill="#181818" points="567.8218,440.1563,557.8218,444.1563,567.8218,448.1563,563.8218,444.1563" style="stroke:#181818;stroke-width:1.0;"/><line style="stroke:#181818;stroke-width:1.0;stroke-dasharray:2.0,2.0;" x1="561.8218" x2="830.3257" y1="444.1563" y2="444.1563"/><text fill="#000000" font-family="sans-serif" font-size="13" lengthAdjust="spacing" textLength="37.3179" x="573.8218" y="439.0903">string</text><path d="M466.9478,459.1563 L543.5718,459.1563 L543.5718,466.2891 L533.5718,476.2891 L466.9478,476.2891 L466.9478,459.1563 " fill="#EEEEEE" style="stroke:#000000;stroke-width:1.5;"/><rect fill="none" height="75.3984" style="stroke:#000000;stroke-width:1.5;" width="460.5107" x="466.9478" y="459.1563"/><text fill="#000000" font-family="sans-serif" font-size="13" font-weight="bold" lengthAdjust="spacing" textLength="31.624" x="481.9478" y="472.2231">loop</text><text fill="#000000" font-family="sans-serif" font-size="11" font-weight="bold" lengthAdjust="spacing" textLength="51.0093" x="558.5718" y="471.3667">[5 times</text><text fill="#808080" font-family="sans-serif" font-size="11" font-weight="bold" lengthAdjust="spacing" textLength="48.979" x="617.2402" y="471.3667">4.27 ms</text><text fill="#000000" font-family="sans-serif" font-size="11" font-weight="bold" lengthAdjust="spacing" textLength="5.0273" x="666.2192" y="471.3667">]</text><polygon fill="#181818" points="814.3257,493.4219,824.3257,497.4219,814.3257,501.4219,818.3257,497.4219" style="stroke:#181818;stroke-width:1.0;"/><line style="stroke:#181818;stroke-width:1.0;" x1="556.8218" x2="820.3257" y1="497.4219" y2="497.4219"/><text fill="#000000" font-family="sans-serif" font-size="13" lengthAdjust="spacing" textLength="89.7559" x="563.8218" y="492.356">getStatement</text><text fill="#808080" font-family="sans-serif" font-size="13" lengthAdjust="spacing" textLength="52.5142" x="661.8423" y="492.356">4.27 ms</text><polygon fill="#181818" points="567.8218,522.5547,557.8218,526.5547,567.8218,530.5547,563.8218,526.5547" style="stroke:#181818;stroke-width:1.0;"/><line style="stroke:#181818;stroke-width:1.0;stroke-dasharray:2.0,2.0;" x1="561.8218" x2="830.3257" y1="526.5547" y2="526.5547"/><text fill="#000000" font-family="sans-serif" font-size="13" lengthAdjust="spacing" textLength="27.5107" x="573.8218" y="521.4888">void</text><polygon fill="#181818" points="992.877,569.2539,1002.877,573.2539,992.877,577.2539,996.877,573.2539" style="stroke:#181818;stroke-width:1.0;"/><line style="stroke:#181818;stroke-width:1.0;" x1="556.8218" x2="998.877" y1="573.2539" y2="573.2539"/><text fill="#000000" font-family="sans-serif" font-size="13" lengthAdjust="spacing" textLength="355.0054" x="563.8218" y="568.188">INSERT INTO pg_stat_statements(queryid,query) VALU</text><text fill="#808080" font-family="sans-serif" font-size="13" lengthAdjust="spacing" textLength="60.7852" x="927.0918" y="568.188">0.429 ms</text><path d="M1009,546.5547 L1009,586.5547 L1494,586.5547 L1494,556.5547 L1484,546.5547 L1009,546.5547 " fill="#FEFFDD" style="stroke:#181818;stroke-width:0.5;"/><path d="M1484,546.5547 L1484,556.5547 L1494,556.5547 L1484,546.5547 " fill="#FEFFDD" style="stroke:#181818;stroke-width:0.5;"/><text fill="#000000" font-family="sans-serif" font-size="13" lengthAdjust="spacing" textLength="464.2231" x="1015" y="563.6216">INSERT INTO pg_stat_statements(queryid,query) VALUES (1024, 'select</text><text fill="#000000" font-family="sans-serif" font-size="13" lengthAdjust="spacing" textLength="282.2739" x="1015" y="578.7544">version()')/* emulate pg_stat_statements */</text><polygon fill="#181818" points="814.3257,608.9531,824.3257,612.9531,814.3257,616.9531,818.3257,612.9531" style="stroke:#181818;stroke-width:1.0;"/><line style="stroke:#181818;stroke-width:1.0;" x1="556.8218" x2="820.3257" y1="612.9531" y2="612.9531"/><text fill="#000000" font-family="sans-serif" font-size="13" lengthAdjust="spacing" textLength="89.7559" x="563.8218" y="607.8872">getStatement</text><text fill="#808080" font-family="sans-serif" font-size="13" lengthAdjust="spacing" textLength="52.5142" x="661.8423" y="607.8872">4.58 ms</text><polygon fill="#181818" points="567.8218,638.0859,557.8218,642.0859,567.8218,646.0859,563.8218,642.0859" style="stroke:#181818;stroke-width:1.0;"/><line style="stroke:#181818;stroke-width:1.0;stroke-dasharray:2.0,2.0;" x1="561.8218" x2="830.3257" y1="642.0859" y2="642.0859"/><text fill="#000000" font-family="sans-serif" font-size="13" lengthAdjust="spacing" textLength="37.3179" x="573.8218" y="637.02">string</text><polygon fill="#181818" points="992.877,670.2188,1002.877,674.2188,992.877,678.2188,996.877,674.2188" style="stroke:#181818;stroke-width:1.0;"/><line style="stroke:#181818;stroke-width:1.0;" x1="556.8218" x2="998.877" y1="674.2188" y2="674.2188"/><text fill="#000000" font-family="sans-serif" font-size="13" lengthAdjust="spacing" textLength="355.0054" x="563.8218" y="669.1528">INSERT INTO pg_stat_statements(queryid,query) VALU</text><text fill="#808080" font-family="sans-serif" font-size="13" lengthAdjust="spacing" textLength="60.7852" x="927.0918" y="669.1528">0.158 ms</text><path d="M1009,655.0859 L1009,680.0859 L1576,680.0859 L1576,665.0859 L1566,655.0859 L1009,655.0859 " fill="#FEFFDD" style="stroke:#181818;stroke-width:0.5;"/><path d="M1566,655.0859 L1566,665.0859 L1576,665.0859 L1566,655.0859 " fill="#FEFFDD" style="stroke:#181818;stroke-width:0.5;"/><text fill="#000000" font-family="sans-serif" font-size="13" lengthAdjust="spacing" textLength="546.6475" x="1015" y="672.1528">INSERT INTO pg_stat_statements(queryid,query) VALUES (-3416356442043621232,</text><polygon fill="#181818" points="379.8955,702.3516,369.8955,706.3516,379.8955,710.3516,375.8955,706.3516" style="stroke:#181818;stroke-width:1.0;"/><line style="stroke:#181818;stroke-width:1.0;" x1="373.8955" x2="545.8218" y1="706.3516" y2="706.3516"/><text fill="#000000" font-family="sans-serif" font-size="13" lengthAdjust="spacing" textLength="86.874" x="385.8955" y="701.2856">parseLogLine</text><text fill="#808080" font-family="sans-serif" font-size="13" lengthAdjust="spacing" textLength="52.5142" x="481.0342" y="701.2856">4.41 ms</text><path d="M295.1099,721.3516 L371.7339,721.3516 L371.7339,728.4844 L361.7339,738.4844 L295.1099,738.4844 L295.1099,721.3516 " fill="#EEEEEE" style="stroke:#000000;stroke-width:1.5;"/><rect fill="none" height="75.3984" style="stroke:#000000;stroke-width:1.5;" width="632.3486" x="295.1099" y="721.3516"/><text fill="#000000" font-family="sans-serif" font-size="13" font-weight="bold" lengthAdjust="spacing" textLength="31.624" x="310.1099" y="734.4185">loop</text><text fill="#000000" font-family="sans-serif" font-size="11" font-weight="bold" lengthAdjust="spacing" textLength="51.0093" x="386.7339" y="733.562">[3 times</text><text fill="#808080" font-family="sans-serif" font-size="11" font-weight="bold" lengthAdjust="spacing" textLength="64.2866" x="445.4023" y="733.562">0.0448 ms</text><text fill="#000000" font-family="sans-serif" font-size="11" font-weight="bold" lengthAdjust="spacing" textLength="5.0273" x="509.689" y="733.562">]</text><polygon fill="#181818" points="814.3257,755.6172,824.3257,759.6172,814.3257,763.6172,818.3257,759.6172" style="stroke:#181818;stroke-width:1.0;"/><line style="stroke:#181818;stroke-width:1.0;" x1="368.8955" x2="820.3257" y1="759.6172" y2="759.6172"/><text fill="#000000" font-family="sans-serif" font-size="13" lengthAdjust="spacing" textLength="164.9121" x="375.8955" y="754.5513">enricherApplicationName</text><text fill="#808080" font-family="sans-serif" font-size="13" lengthAdjust="spacing" textLength="69.0562" x="549.0723" y="754.5513">0.0448 ms</text><polygon fill="#181818" points="379.8955,784.75,369.8955,788.75,379.8955,792.75,375.8955,788.75" style="stroke:#181818;stroke-width:1.0;"/><line style="stroke:#181818;stroke-width:1.0;stroke-dasharray:2.0,2.0;" x1="373.8955" x2="830.3257" y1="788.75" y2="788.75"/><text fill="#000000" font-family="sans-serif" font-size="13" lengthAdjust="spacing" textLength="37.3179" x="385.8955" y="783.6841">string</text><polygon fill="#181818" points="814.3257,820.8828,824.3257,824.8828,814.3257,828.8828,818.3257,824.8828" style="stroke:#181818;stroke-width:1.0;"/><line style="stroke:#181818;stroke-width:1.0;" x1="368.8955" x2="820.3257" y1="824.8828" y2="824.8828"/><text fill="#000000" font-family="sans-serif" font-size="13" lengthAdjust="spacing" textLength="89.7559" x="375.8955" y="819.8169">getStatement</text><text fill="#808080" font-family="sans-serif" font-size="13" lengthAdjust="spacing" textLength="52.5142" x="473.916" y="819.8169">4.22 ms</text><polygon fill="#181818" points="379.8955,850.0156,369.8955,854.0156,379.8955,858.0156,375.8955,854.0156" style="stroke:#181818;stroke-width:1.0;"/><line style="stroke:#181818;stroke-width:1.0;stroke-dasharray:2.0,2.0;" x1="373.8955" x2="830.3257" y1="854.0156" y2="854.0156"/><text fill="#000000" font-family="sans-serif" font-size="13" lengthAdjust="spacing" textLength="37.3179" x="385.8955" y="848.9497">string</text><polygon fill="#181818" points="534.8218,879.1484,544.8218,883.1484,534.8218,887.1484,538.8218,883.1484" style="stroke:#181818;stroke-width:1.0;"/><line style="stroke:#181818;stroke-width:1.0;stroke-dasharray:2.0,2.0;" x1="363.8955" x2="540.8218" y1="883.1484" y2="883.1484"/><text fill="#000000" font-family="sans-serif" font-size="13" lengthAdjust="spacing" textLength="27.5107" x="370.8955" y="878.0825">void</text><polygon fill="#181818" points="379.8955,908.2813,369.8955,912.2813,379.8955,916.2813,375.8955,912.2813" style="stroke:#181818;stroke-width:1.0;"/><line style="stroke:#181818;stroke-width:1.0;" x1="373.8955" x2="545.8218" y1="912.2813" y2="912.2813"/><text fill="#000000" font-family="sans-serif" font-size="13" lengthAdjust="spacing" textLength="33.4839" x="385.8955" y="907.2153">close</text><text fill="#808080" font-family="sans-serif" font-size="13" lengthAdjust="spacing" textLength="60.7852" x="427.644" y="907.2153">0.046 ms</text><polygon fill="#181818" points="814.3257,937.4141,824.3257,941.4141,814.3257,945.4141,818.3257,941.4141" style="stroke:#181818;stroke-width:1.0;"/><line style="stroke:#181818;stroke-width:1.0;" x1="368.8955" x2="820.3257" y1="941.4141" y2="941.4141"/><text fill="#000000" font-family="sans-serif" font-size="13" lengthAdjust="spacing" textLength="33.4839" x="375.8955" y="936.3481">close</text><text fill="#808080" font-family="sans-serif" font-size="13" lengthAdjust="spacing" textLength="69.0562" x="417.644" y="936.3481">0.0221 ms</text><polygon fill="#181818" points="379.8955,966.5469,369.8955,970.5469,379.8955,974.5469,375.8955,970.5469" style="stroke:#181818;stroke-width:1.0;"/><line style="stroke:#181818;stroke-width:1.0;stroke-dasharray:2.0,2.0;" x1="373.8955" x2="830.3257" y1="970.5469" y2="970.5469"/><text fill="#000000" font-family="sans-serif" font-size="13" lengthAdjust="spacing" textLength="27.5107" x="385.8955" y="965.481">void</text><polygon fill="#181818" points="534.8218,995.6797,544.8218,999.6797,534.8218,1003.6797,538.8218,999.6797" style="stroke:#181818;stroke-width:1.0;"/><line style="stroke:#181818;stroke-width:1.0;stroke-dasharray:2.0,2.0;" x1="363.8955" x2="540.8218" y1="999.6797" y2="999.6797"/><text fill="#000000" font-family="sans-serif" font-size="13" lengthAdjust="spacing" textLength="27.5107" x="370.8955" y="994.6138">void</text><polygon fill="#181818" points="11,1024.8125,1,1028.8125,11,1032.8125,7,1028.8125" style="stroke:#181818;stroke-width:1.0;"/><line style="stroke:#181818;stroke-width:1.0;stroke-dasharray:2.0,2.0;" x1="5" x2="550.8218" y1="1028.8125" y2="1028.8125"/><text fill="#000000" font-family="sans-serif" font-size="13" lengthAdjust="spacing" textLength="27.5107" x="17" y="1023.7466">void</text><polygon fill="#181818" points="106.144,1053.9453,116.144,1057.9453,106.144,1061.9453,110.144,1057.9453" style="stroke:#181818;stroke-width:1.0;"/><line style="stroke:#181818;stroke-width:1.0;" x1="0" x2="112.144" y1="1057.9453" y2="1057.9453"/><text fill="#000000" font-family="sans-serif" font-size="13" lengthAdjust="spacing" textLength="21.8232" x="7" y="1052.8794">run</text><text fill="#808080" font-family="sans-serif" font-size="13" lengthAdjust="spacing" textLength="69.0562" x="37.0879" y="1052.8794">0.0856 ms</text><polygon fill="#181818" points="346.8955,1083.0781,356.8955,1087.0781,346.8955,1091.0781,350.8955,1087.0781" style="stroke:#181818;stroke-width:1.0;"/><line style="stroke:#181818;stroke-width:1.0;" x1="128.144" x2="352.8955" y1="1087.0781" y2="1087.0781"/><text fill="#000000" font-family="sans-serif" font-size="13" lengthAdjust="spacing" textLength="134.4307" x="135.144" y="1082.0122">saveLogFilesPosition</text><text fill="#808080" font-family="sans-serif" font-size="13" lengthAdjust="spacing" textLength="69.0562" x="277.8394" y="1082.0122">0.0549 ms</text><polygon fill="#181818" points="139.144,1112.2109,129.144,1116.2109,139.144,1120.2109,135.144,1116.2109" style="stroke:#181818;stroke-width:1.0;"/><line style="stroke:#181818;stroke-width:1.0;stroke-dasharray:2.0,2.0;" x1="133.144" x2="362.8955" y1="1116.2109" y2="1116.2109"/><text fill="#000000" font-family="sans-serif" font-size="13" lengthAdjust="spacing" textLength="27.5107" x="145.144" y="1111.145">void</text><polygon fill="#181818" points="11,1141.3438,1,1145.3438,11,1149.3438,7,1145.3438" style="stroke:#181818;stroke-width:1.0;"/><line style="stroke:#181818;stroke-width:1.0;stroke-dasharray:2.0,2.0;" x1="5" x2="122.144" y1="1145.3438" y2="1145.3438"/><text fill="#000000" font-family="sans-serif" font-size="13" lengthAdjust="spacing" textLength="27.5107" x="17" y="1140.2778">void</text><!--SRC=[tLTRRzem57xFhpYgAXKgeCGuuQAEYRMfjWcngh3jeG-L6xpKKaZIsB3rtyzaT10xxf9Uj6uFNEBudEzSFd-s4v8AvhE4H0BEOow2b4vlmuyyZguG40vx-S5zj6SbHfC2W_pqSHnuKShycmMDn8noaLbeemOZccvzvmrtt-IDJuaWruJJRFxzmvu5SDaSglaE85r6SEp7OPmEWfJS3Q7TQlVw3YpuyL4sF9IMn1TiHGJLwYNVWJQemWo0anMLaP-na7BvZWaMwwXklvz7DU8MeXutcohiAcRpREwScZrTQeRhicnCZOPPwhAWMYC7m28cTjhqbOcRq-ltqdhzxpoO2YBM7xgso1V1ndr3tJMOB2rjj3cyx_S0JYwyqSo3sUZTs8CakE8IC_lAW7djTadJEpQ7QnQmI3JWTgbsnErsrOPCOXbCoe8ROLNtBvz1q1-Y3aU7G1VBKCwrT4iuFCgml6WEaSGpfQfsMwbxFXlKQVMgi4lbrsvbEGsfBpO9VKlZHK7wy5s6GE6-2BbOSCkrrLXofQqEyERjnakkQ7eIXV8nW82QA8bQNQJ7glDorryXjbnb1l3VgpIttCoUDIeyTkKNiieG9DsCZP8aP3vP2zY4BAWcOcsdZOqygvQJ8H8kKXO5LeLonGau8DY2SfM7gAltjdnDpAmfzboADHKgKPKuSctyMJO_JARUnKp-p3uze6gDxBSENqRZpoe7CEe_89lL_NjJgDbjX1jmy4iOh1LDkIHWhNvGtoefF5v97z5Vf_VQMFwYFRNrV9_SqsO7ssx7SJ56RTnnaOqwg64TJBsnTpBB_8IK9hLz-xdQh8gaF3JozR5ip2AgzXVRrNRBJ6KwHIeZHH7Zdgu6fJUdij9hG2cbEkLtgnrYbYRdLdgUOKUMslhIEt8knrUm9wkU_33c1VrtdtR0CnIZ60mX-tyz5btknhIzrkWteg9BIVaxfkF-XJkcW_-fE-PF]--></g></svg>