<svg xmlns="http://www.w3.org/2000/svg" xmlns:xlink="http://www.w3.org/1999/xlink" contentStyleType="text/css" height="561px" preserveAspectRatio="none" style="width:741px;height:561px;background:#000000;" version="1.1" viewBox="0 0 741 561" width="741px" zoomAndPan="magnify"><defs/><g><rect fill="none" height="416.6563" style="stroke:#999999;stroke-width:1.0;" width="10" x="204.5762" y="83.9375"/><rect fill="none" height="139.9063" style="stroke:#999999;stroke-width:1.0;" width="10" x="431.9287" y="163.8438"/><rect fill="none" height="48.9688" style="stroke:#999999;stroke-width:1.0;" width="10" x="436.9287" y="209.8125"/><rect fill="none" height="113.9063" style="stroke:#999999;stroke-width:1.0;" width="10" x="431.9287" y="348.7188"/><rect fill="none" height="37.9688" style="stroke:#999999;stroke-width:1.0;" width="10" x="675.3115" y="386.6875"/><rect fill="none" height="212.8125" rx="4" ry="4" style="stroke:#4362B1;stroke-width:1.5;" width="606.7002" x="78.6113" y="98.9375"/><line style="stroke:#999999;stroke-width:0.5;stroke-dasharray:5.0,5.0;" x1="208.6113" x2="208.6113" y1="43.9688" y2="518.5938"/><line style="stroke:#999999;stroke-width:0.5;stroke-dasharray:5.0,5.0;" x1="436.541" x2="436.541" y1="43.9688" y2="518.5938"/><line style="stroke:#999999;stroke-width:0.5;stroke-dasharray:5.0,5.0;" x1="679.8438" x2="679.8438" y1="43.9688" y2="518.5938"/><rect fill="#555555" height="37.9688" rx="4" ry="4" style="stroke:#555555;stroke-width:1.0;" width="161.9297" x="128.6113" y="5"/><text fill="#FFFFFF" font-family="Verdana" font-size="12" lengthAdjust="spacing" textLength="137.9297" x="140.6113" y="28.1387">ValidateParameterTest</text><rect fill="#555555" height="37.9688" rx="4" ry="4" style="stroke:#555555;stroke-width:1.0;" width="161.9297" x="128.6113" y="517.5938"/><text fill="#FFFFFF" font-family="Verdana" font-size="12" lengthAdjust="spacing" textLength="137.9297" x="140.6113" y="540.7324">ValidateParameterTest</text><rect fill="#555555" height="37.9688" rx="4" ry="4" style="stroke:#555555;stroke-width:1.0;" width="112.7754" x="380.541" y="5"/><text fill="#FFFFFF" font-family="Verdana" font-size="12" lengthAdjust="spacing" textLength="88.7754" x="392.541" y="28.1387">PostgreSqlJson</text><rect fill="#555555" height="37.9688" rx="4" ry="4" style="stroke:#555555;stroke-width:1.0;" width="112.7754" x="380.541" y="517.5938"/><text fill="#FFFFFF" font-family="Verdana" font-size="12" lengthAdjust="spacing" textLength="88.7754" x="392.541" y="540.7324">PostgreSqlJson</text><rect fill="#555555" height="37.9688" rx="4" ry="4" style="stroke:#555555;stroke-width:1.0;" width="110.9355" x="624.8438" y="5"/><text fill="#FFFFFF" font-family="Verdana" font-size="12" lengthAdjust="spacing" textLength="86.9355" x="636.8438" y="28.1387">EnrichmentOff</text><rect fill="#555555" height="37.9688" rx="4" ry="4" style="stroke:#555555;stroke-width:1.0;" width="110.9355" x="624.8438" y="517.5938"/><text fill="#FFFFFF" font-family="Verdana" font-size="12" lengthAdjust="spacing" textLength="86.9355" x="636.8438" y="540.7324">EnrichmentOff</text><rect fill="none" height="416.6563" style="stroke:#999999;stroke-width:1.0;" width="10" x="204.5762" y="83.9375"/><rect fill="none" height="139.9063" style="stroke:#999999;stroke-width:1.0;" width="10" x="431.9287" y="163.8438"/><rect fill="none" height="48.9688" style="stroke:#999999;stroke-width:1.0;" width="10" x="436.9287" y="209.8125"/><rect fill="none" height="113.9063" style="stroke:#999999;stroke-width:1.0;" width="10" x="431.9287" y="348.7188"/><rect fill="none" height="37.9688" style="stroke:#999999;stroke-width:1.0;" width="10" x="675.3115" y="386.6875"/><polygon fill="#4362B1" points="192.5762,79.9375,202.5762,83.9375,192.5762,87.9375,196.5762,83.9375" style="stroke:#4362B1;stroke-width:1.0;"/><line style="stroke:#4362B1;stroke-width:3.0;" x1="0" x2="198.5762" y1="83.9375" y2="83.9375"/><text fill="#FFFFFF" font-family="Verdana" font-size="12" lengthAdjust="spacing" textLength="119.4727" x="12" y="74.1074">intervalOutOfRange</text><text fill="#808080" font-family="Verdana" font-size="12" lengthAdjust="spacing" textLength="48.4746" x="139.1016" y="74.1074">0.23 ms</text><path d="M82.6113,98.9375 L162.8027,98.9375 L162.8027,114.9063 L152.8027,124.9063 L78.6113,124.9063 L78.6113,102.9375 A4,4 0 0 1 82.6113,98.9375 " fill="#4362B1" style="stroke:#4362B1;stroke-width:1.5;"/><rect fill="none" height="212.8125" rx="4" ry="4" style="stroke:#4362B1;stroke-width:1.5;" width="606.7002" x="78.6113" y="98.9375"/><text fill="#FFFFFF" font-family="Verdana" font-size="12" font-weight="bold" lengthAdjust="spacing" textLength="29.1914" x="98.6113" y="116.0762">loop</text><text fill="#4362B1" font-family="Verdana" font-size="12" font-weight="bold" lengthAdjust="spacing" textLength="55.6465" x="182.8027" y="117.0762">[2 times</text><text fill="#808080" font-family="Verdana" font-size="12" font-weight="bold" lengthAdjust="spacing" textLength="53.4316" x="246.8047" y="117.0762">0.14 ms</text><text fill="#4362B1" font-family="Verdana" font-size="12" font-weight="bold" lengthAdjust="spacing" textLength="5.4844" x="300.2363" y="117.0762">]</text><polygon fill="#4362B1" points="419.9287,159.8438,429.9287,163.8438,419.9287,167.8438,423.9287,163.8438" style="stroke:#4362B1;stroke-width:1.0;"/><line style="stroke:#4362B1;stroke-width:3.0;" x1="214.5762" x2="425.9287" y1="163.8438" y2="163.8438"/><text fill="#FFFFFF" font-family="Verdana" font-size="12" lengthAdjust="spacing" textLength="20.6191" x="226.5762" y="154.0137">call</text><text fill="#808080" font-family="Verdana" font-size="12" lengthAdjust="spacing" textLength="48.4746" x="254.8242" y="154.0137">0.14 ms</text><line style="stroke:#4362B1;stroke-width:3.0;" x1="441.9287" x2="488.9287" y1="196.8125" y2="196.8125"/><line style="stroke:#4362B1;stroke-width:3.0;" x1="488.9287" x2="488.9287" y1="196.8125" y2="209.8125"/><line style="stroke:#4362B1;stroke-width:3.0;" x1="447.9287" x2="488.9287" y1="209.8125" y2="209.8125"/><polygon fill="#4362B1" points="457.9287,205.8125,447.9287,209.8125,457.9287,213.8125,453.9287,209.8125" style="stroke:#4362B1;stroke-width:1.0;"/><text fill="#FFFFFF" font-family="Verdana" font-size="12" lengthAdjust="spacing" textLength="128.0098" x="458.9287" y="186.9824">watchPostgreSqlLogs</text><text fill="#808080" font-family="Verdana" font-size="12" lengthAdjust="spacing" textLength="63.7441" x="594.5674" y="186.9824">0.0783 ms</text><line style="stroke:#4362B1;stroke-width:3.0;stroke-dasharray:2.0,2.0;" x1="389.9287" x2="435.9287" y1="257.7813" y2="257.7813"/><line style="stroke:#4362B1;stroke-width:3.0;stroke-dasharray:2.0,2.0;" x1="389.9287" x2="389.9287" y1="257.7813" y2="270.7813"/><line style="stroke:#4362B1;stroke-width:3.0;stroke-dasharray:2.0,2.0;" x1="389.9287" x2="429.9287" y1="270.7813" y2="270.7813"/><polygon fill="#4362B1" points="419.9287,266.7813,429.9287,270.7813,419.9287,274.7813,423.9287,270.7813" style="stroke:#4362B1;stroke-width:1.0;"/><text fill="#FFFFFF" font-family="Verdana" font-size="12" lengthAdjust="spacing" textLength="101.8477" x="318.0811" y="247.9512">java.lang.Integer</text><polygon fill="#4362B1" points="225.5762,299.75,215.5762,303.75,225.5762,307.75,221.5762,303.75" style="stroke:#4362B1;stroke-width:1.0;"/><line style="stroke:#4362B1;stroke-width:3.0;stroke-dasharray:2.0,2.0;" x1="219.5762" x2="435.9287" y1="303.75" y2="303.75"/><text fill="#FFFFFF" font-family="Verdana" font-size="12" lengthAdjust="spacing" textLength="101.8477" x="236.5762" y="293.9199">java.lang.Integer</text><polygon fill="#4362B1" points="419.9287,344.7188,429.9287,348.7188,419.9287,352.7188,423.9287,348.7188" style="stroke:#4362B1;stroke-width:1.0;"/><line style="stroke:#4362B1;stroke-width:3.0;" x1="214.5762" x2="425.9287" y1="348.7188" y2="348.7188"/><text fill="#FFFFFF" font-family="Verdana" font-size="12" lengthAdjust="spacing" textLength="30.9082" x="226.5762" y="338.8887">close</text><text fill="#808080" font-family="Verdana" font-size="12" lengthAdjust="spacing" textLength="63.7441" x="265.1133" y="338.8887">0.0353 ms</text><polygon fill="#4362B1" points="663.3115,382.6875,673.3115,386.6875,663.3115,390.6875,667.3115,386.6875" style="stroke:#4362B1;stroke-width:1.0;"/><line style="stroke:#4362B1;stroke-width:3.0;" x1="441.9287" x2="669.3115" y1="386.6875" y2="386.6875"/><text fill="#FFFFFF" font-family="Verdana" font-size="12" lengthAdjust="spacing" textLength="30.9082" x="453.9287" y="376.8574">close</text><text fill="#808080" font-family="Verdana" font-size="12" lengthAdjust="spacing" textLength="63.7441" x="492.4658" y="376.8574">0.0116 ms</text><polygon fill="#4362B1" points="452.9287,420.6563,442.9287,424.6563,452.9287,428.6563,448.9287,424.6563" style="stroke:#4362B1;stroke-width:1.0;"/><line style="stroke:#4362B1;stroke-width:3.0;stroke-dasharray:2.0,2.0;" x1="446.9287" x2="679.3115" y1="424.6563" y2="424.6563"/><text fill="#FFFFFF" font-family="Verdana" font-size="12" lengthAdjust="spacing" textLength="25.3945" x="463.9287" y="414.8262">void</text><polygon fill="#4362B1" points="225.5762,458.625,215.5762,462.625,225.5762,466.625,221.5762,462.625" style="stroke:#4362B1;stroke-width:1.0;"/><line style="stroke:#4362B1;stroke-width:3.0;stroke-dasharray:2.0,2.0;" x1="219.5762" x2="435.9287" y1="462.625" y2="462.625"/><text fill="#FFFFFF" font-family="Verdana" font-size="12" lengthAdjust="spacing" textLength="25.3945" x="236.5762" y="452.7949">void</text><polygon fill="#4362B1" points="11,496.5938,1,500.5938,11,504.5938,7,500.5938" style="stroke:#4362B1;stroke-width:1.0;"/><line style="stroke:#4362B1;stroke-width:3.0;stroke-dasharray:2.0,2.0;" x1="5" x2="208.5762" y1="500.5938" y2="500.5938"/><text fill="#FFFFFF" font-family="Verdana" font-size="12" lengthAdjust="spacing" textLength="25.3945" x="22" y="490.7637">void</text><!--SRC=[bLF9Ri8m4BtdArpkILYwAKAvSMY516ghNZXD7PEuybPx4jI_hmk8rac88CStR_4ikU6AYhfWjHMaGZGkIrCBkwJaMDKVjMEMQeLCOKArJ4k6O8m4ane12cifOgoOPAa4hj93wO0anXSZ0nOvvSPpoJi8NW2oDLYG39bzOmu9E3BghOm2yLexB2rx_HBFJgkzAeH2-a9PJYlfdxtQRlVi01b5X6pYl3St8zptQniGgzfpNq2LZCof5jfcfONld8oJwOn8Dq_tOEwzW29ll55_Zvv0o59hGwO4kMIkRJUv3Ur-lrwdE0-RpWW58IwnExqmD3XMIGlkvkm0QVK7BdNPwMByy3Zh1byRFO_ZTlOdD93uSokJ9x-PajcJj633vhr3l29Xs7-XYkYQLGdjEfSqdjrrXZRSKtjJmM6VIvbCxWTk8h28pcobbTDeNdIdr7MwT0Kdlw6PRxpmp4zxrFzJzn9_0000]--></g></svg>