<svg xmlns="http://www.w3.org/2000/svg" xmlns:xlink="http://www.w3.org/1999/xlink" contentStyleType="text/css" height="588px" preserveAspectRatio="none" style="width:817px;height:588px;background:#000000;" version="1.1" viewBox="0 0 817 588" width="817px" zoomAndPan="magnify"><defs/><g><rect fill="none" height="443.6563" style="stroke:#999999;stroke-width:1.0;" width="10" x="264.8047" y="83.9375"/><rect fill="none" height="367.7188" style="stroke:#999999;stroke-width:1.0;" width="10" x="495.5527" y="121.9063"/><rect fill="none" height="48.9688" style="stroke:#999999;stroke-width:1.0;" width="10" x="500.5527" y="167.875"/><rect fill="none" height="37.9688" style="stroke:#999999;stroke-width:1.0;" width="10" x="732.6055" y="261.8125"/><rect fill="none" height="37.9688" style="stroke:#999999;stroke-width:1.0;" width="10" x="732.6055" y="337.75"/><rect fill="none" height="37.9688" style="stroke:#999999;stroke-width:1.0;" width="10" x="732.6055" y="413.6875"/><line style="stroke:#999999;stroke-width:0.5;stroke-dasharray:5.0,5.0;" x1="269.7314" x2="269.7314" y1="43.9688" y2="545.5938"/><line style="stroke:#999999;stroke-width:0.5;stroke-dasharray:5.0,5.0;" x1="500.165" x2="500.165" y1="43.9688" y2="545.5938"/><line style="stroke:#999999;stroke-width:0.5;stroke-dasharray:5.0,5.0;" x1="736.8975" x2="736.8975" y1="43.9688" y2="545.5938"/><rect fill="#555555" height="37.9688" rx="4" ry="4" style="stroke:#555555;stroke-width:1.0;" width="132.1465" x="203.7314" y="5"/><text fill="#FFFFFF" font-family="Verdana" font-size="12" lengthAdjust="spacing" textLength="108.1465" x="215.7314" y="28.1387">WatchServiceTest</text><rect fill="#555555" height="37.9688" rx="4" ry="4" style="stroke:#555555;stroke-width:1.0;" width="132.1465" x="203.7314" y="544.5938"/><text fill="#FFFFFF" font-family="Verdana" font-size="12" lengthAdjust="spacing" textLength="108.1465" x="215.7314" y="567.7324">WatchServiceTest</text><rect fill="#555555" height="37.9688" rx="4" ry="4" style="stroke:#555555;stroke-width:1.0;" width="112.7754" x="444.165" y="5"/><text fill="#FFFFFF" font-family="Verdana" font-size="12" lengthAdjust="spacing" textLength="88.7754" x="456.165" y="28.1387">PostgreSqlJson</text><rect fill="#555555" height="37.9688" rx="4" ry="4" style="stroke:#555555;stroke-width:1.0;" width="112.7754" x="444.165" y="544.5938"/><text fill="#FFFFFF" font-family="Verdana" font-size="12" lengthAdjust="spacing" textLength="88.7754" x="456.165" y="567.7324">PostgreSqlJson</text><rect fill="#555555" height="37.9688" rx="4" ry="4" style="stroke:#555555;stroke-width:1.0;" width="147.416" x="663.8975" y="5"/><text fill="#FFFFFF" font-family="Verdana" font-size="12" lengthAdjust="spacing" textLength="123.416" x="675.8975" y="28.1387">WatchServiceTest$1</text><rect fill="#555555" height="37.9688" rx="4" ry="4" style="stroke:#555555;stroke-width:1.0;" width="147.416" x="663.8975" y="544.5938"/><text fill="#FFFFFF" font-family="Verdana" font-size="12" lengthAdjust="spacing" textLength="123.416" x="675.8975" y="567.7324">WatchServiceTest$1</text><rect fill="none" height="443.6563" style="stroke:#999999;stroke-width:1.0;" width="10" x="264.8047" y="83.9375"/><rect fill="none" height="367.7188" style="stroke:#999999;stroke-width:1.0;" width="10" x="495.5527" y="121.9063"/><rect fill="none" height="48.9688" style="stroke:#999999;stroke-width:1.0;" width="10" x="500.5527" y="167.875"/><rect fill="none" height="37.9688" style="stroke:#999999;stroke-width:1.0;" width="10" x="732.6055" y="261.8125"/><rect fill="none" height="37.9688" style="stroke:#999999;stroke-width:1.0;" width="10" x="732.6055" y="337.75"/><rect fill="none" height="37.9688" style="stroke:#999999;stroke-width:1.0;" width="10" x="732.6055" y="413.6875"/><polygon fill="#4362B1" points="252.8047,79.9375,262.8047,83.9375,252.8047,87.9375,256.8047,83.9375" style="stroke:#4362B1;stroke-width:1.0;"/><line style="stroke:#4362B1;stroke-width:3.0;" x1="0" x2="258.8047" y1="83.9375" y2="83.9375"/><text fill="#FFFFFF" font-family="Verdana" font-size="12" lengthAdjust="spacing" textLength="179.7012" x="12" y="74.1074">testWatchServiceSkipNonJson</text><text fill="#808080" font-family="Verdana" font-size="12" lengthAdjust="spacing" textLength="48.4746" x="199.3301" y="74.1074">17.6 ms</text><polygon fill="#4362B1" points="483.5527,117.9063,493.5527,121.9063,483.5527,125.9063,487.5527,121.9063" style="stroke:#4362B1;stroke-width:1.0;"/><line style="stroke:#4362B1;stroke-width:3.0;" x1="274.8047" x2="489.5527" y1="121.9063" y2="121.9063"/><text fill="#FFFFFF" font-family="Verdana" font-size="12" lengthAdjust="spacing" textLength="128.0098" x="286.8047" y="112.0762">watchPostgreSqlLogs</text><text fill="#808080" font-family="Verdana" font-size="12" lengthAdjust="spacing" textLength="56.1094" x="422.4434" y="112.0762">0.545 ms</text><line style="stroke:#4362B1;stroke-width:3.0;" x1="505.5527" x2="552.5527" y1="154.875" y2="154.875"/><line style="stroke:#4362B1;stroke-width:3.0;" x1="552.5527" x2="552.5527" y1="154.875" y2="167.875"/><line style="stroke:#4362B1;stroke-width:3.0;" x1="511.5527" x2="552.5527" y1="167.875" y2="167.875"/><polygon fill="#4362B1" points="521.5527,163.875,511.5527,167.875,521.5527,171.875,517.5527,167.875" style="stroke:#4362B1;stroke-width:1.0;"/><text fill="#FFFFFF" font-family="Verdana" font-size="12" lengthAdjust="spacing" textLength="90.5977" x="522.5527" y="145.0449">initLogEnricher</text><text fill="#808080" font-family="Verdana" font-size="12" lengthAdjust="spacing" textLength="63.7441" x="620.7793" y="145.0449">0.0164 ms</text><line style="stroke:#4362B1;stroke-width:3.0;stroke-dasharray:2.0,2.0;" x1="453.5527" x2="499.5527" y1="215.8438" y2="215.8438"/><line style="stroke:#4362B1;stroke-width:3.0;stroke-dasharray:2.0,2.0;" x1="453.5527" x2="453.5527" y1="215.8438" y2="228.8438"/><line style="stroke:#4362B1;stroke-width:3.0;stroke-dasharray:2.0,2.0;" x1="453.5527" x2="493.5527" y1="228.8438" y2="228.8438"/><polygon fill="#4362B1" points="483.5527,224.8438,493.5527,228.8438,483.5527,232.8438,487.5527,228.8438" style="stroke:#4362B1;stroke-width:1.0;"/><text fill="#FFFFFF" font-family="Verdana" font-size="12" lengthAdjust="spacing" textLength="25.3945" x="457.5527" y="206.0137">void</text><polygon fill="#4362B1" points="720.6055,257.8125,730.6055,261.8125,720.6055,265.8125,724.6055,261.8125" style="stroke:#4362B1;stroke-width:1.0;"/><line style="stroke:#4362B1;stroke-width:3.0;" x1="505.5527" x2="726.6055" y1="261.8125" y2="261.8125"/><text fill="#FFFFFF" font-family="Verdana" font-size="12" lengthAdjust="spacing" textLength="102.6211" x="517.5527" y="251.9824">positionFileTasks</text><text fill="#808080" font-family="Verdana" font-size="12" lengthAdjust="spacing" textLength="56.1094" x="627.8027" y="251.9824">0.013 ms</text><polygon fill="#4362B1" points="516.5527,295.7813,506.5527,299.7813,516.5527,303.7813,512.5527,299.7813" style="stroke:#4362B1;stroke-width:1.0;"/><line style="stroke:#4362B1;stroke-width:3.0;stroke-dasharray:2.0,2.0;" x1="510.5527" x2="736.6055" y1="299.7813" y2="299.7813"/><text fill="#FFFFFF" font-family="Verdana" font-size="12" lengthAdjust="spacing" textLength="100.9043" x="527.5527" y="289.9512">java.lang.Thread</text><polygon fill="#4362B1" points="720.6055,333.75,730.6055,337.75,720.6055,341.75,724.6055,337.75" style="stroke:#4362B1;stroke-width:1.0;"/><line style="stroke:#4362B1;stroke-width:3.0;" x1="505.5527" x2="726.6055" y1="337.75" y2="337.75"/><text fill="#FFFFFF" font-family="Verdana" font-size="12" lengthAdjust="spacing" textLength="94.4707" x="517.5527" y="327.9199">initialLogImport</text><text fill="#808080" font-family="Verdana" font-size="12" lengthAdjust="spacing" textLength="56.1094" x="619.6523" y="327.9199">0.014 ms</text><polygon fill="#4362B1" points="516.5527,371.7188,506.5527,375.7188,516.5527,379.7188,512.5527,375.7188" style="stroke:#4362B1;stroke-width:1.0;"/><line style="stroke:#4362B1;stroke-width:3.0;stroke-dasharray:2.0,2.0;" x1="510.5527" x2="736.6055" y1="375.7188" y2="375.7188"/><text fill="#FFFFFF" font-family="Verdana" font-size="12" lengthAdjust="spacing" textLength="25.3945" x="527.5527" y="365.8887">void</text><polygon fill="#4362B1" points="720.6055,409.6875,730.6055,413.6875,720.6055,417.6875,724.6055,413.6875" style="stroke:#4362B1;stroke-width:1.0;"/><line style="stroke:#4362B1;stroke-width:3.0;" x1="505.5527" x2="726.6055" y1="413.6875" y2="413.6875"/><text fill="#FFFFFF" font-family="Verdana" font-size="12" lengthAdjust="spacing" textLength="119.0449" x="517.5527" y="403.8574">registerWatchEvent</text><text fill="#808080" font-family="Verdana" font-size="12" lengthAdjust="spacing" textLength="71.3789" x="644.2266" y="403.8574">0.00802 ms</text><polygon fill="#4362B1" points="516.5527,447.6563,506.5527,451.6563,516.5527,455.6563,512.5527,451.6563" style="stroke:#4362B1;stroke-width:1.0;"/><line style="stroke:#4362B1;stroke-width:3.0;stroke-dasharray:2.0,2.0;" x1="510.5527" x2="736.6055" y1="451.6563" y2="451.6563"/><text fill="#FFFFFF" font-family="Verdana" font-size="12" lengthAdjust="spacing" textLength="25.3945" x="527.5527" y="441.8262">void</text><polygon fill="#4362B1" points="285.8047,485.625,275.8047,489.625,285.8047,493.625,281.8047,489.625" style="stroke:#4362B1;stroke-width:1.0;"/><line style="stroke:#4362B1;stroke-width:3.0;stroke-dasharray:2.0,2.0;" x1="279.8047" x2="499.5527" y1="489.625" y2="489.625"/><text fill="#FFFFFF" font-family="Verdana" font-size="12" lengthAdjust="spacing" textLength="101.8477" x="296.8047" y="479.7949">java.lang.Integer</text><polygon fill="#4362B1" points="11,523.5938,1,527.5938,11,531.5938,7,527.5938" style="stroke:#4362B1;stroke-width:1.0;"/><line style="stroke:#4362B1;stroke-width:3.0;stroke-dasharray:2.0,2.0;" x1="5" x2="268.8047" y1="527.5938" y2="527.5938"/><text fill="#FFFFFF" font-family="Verdana" font-size="12" lengthAdjust="spacing" textLength="25.3945" x="22" y="517.7637">void</text><!--SRC=[pPHFIyD04CNl_HHhyPgaqRPAABbLg8W8BNZeGTRja8nDTjVTIOhVtcqgjlbZjOZW9OVtPkStZzdi6KgH5IieJCPI8csZ831yuoT8QV5SM312IG99lb1va01nhNEk0vrnIKMUUPH23a7EKGOxQwVusfazpGsXGErgsICdaSx1b2XW0POOjwpV5Fkr8m_AKc9W_fhTMYMh0tMfVvJm57OopiD-Zx6b5pUDY97x7ghpDUfx9IlwHAXCcIWn_2rcuPK_PhcT19KOktvS49QSe3M5yrXBzE9wa8XjjXLxyKubjeuS-AFXgCuyeDRRLHvhY6qcIYG7cag38WNJv0t2yR09F0qvyRmcirIu-gXTmMdZj_SRCQqi4YfvWnaik5tRTeZB8ndQBR_AqGL_uINttO-G-8lK0E_8zSF-tTcswq6-lGgpN2j3xMZ3FulMlQPVnJ6Ge2KmbJSjtPlI2ZIu7bpyZqXDkUCcxxS_Soza0gRttQLUTapsETUHcTu1]--></g></svg>