<svg xmlns="http://www.w3.org/2000/svg" xmlns:xlink="http://www.w3.org/1999/xlink" contentStyleType="text/css" height="512px" preserveAspectRatio="none" style="width:740px;height:512px;background:#000000;" version="1.1" viewBox="0 0 740 512" width="740px" zoomAndPan="magnify"><defs/><g><rect fill="none" height="367.7188" style="stroke:#999999;stroke-width:1.0;" width="10" x="211.2266" y="83.9375"/><rect fill="none" height="139.9063" style="stroke:#999999;stroke-width:1.0;" width="10" x="438.5791" y="121.9063"/><rect fill="none" height="48.9688" style="stroke:#999999;stroke-width:1.0;" width="10" x="443.5791" y="167.875"/><rect fill="none" height="113.9063" style="stroke:#999999;stroke-width:1.0;" width="10" x="438.5791" y="299.7813"/><rect fill="none" height="37.9688" style="stroke:#999999;stroke-width:1.0;" width="10" x="674.3271" y="337.75"/><line style="stroke:#999999;stroke-width:0.5;stroke-dasharray:5.0,5.0;" x1="215.2617" x2="215.2617" y1="43.9688" y2="469.6563"/><line style="stroke:#999999;stroke-width:0.5;stroke-dasharray:5.0,5.0;" x1="443.1914" x2="443.1914" y1="43.9688" y2="469.6563"/><line style="stroke:#999999;stroke-width:0.5;stroke-dasharray:5.0,5.0;" x1="678.8594" x2="678.8594" y1="43.9688" y2="469.6563"/><rect fill="#555555" height="37.9688" rx="4" ry="4" style="stroke:#555555;stroke-width:1.0;" width="161.9297" x="135.2617" y="5"/><text fill="#FFFFFF" font-family="Verdana" font-size="12" lengthAdjust="spacing" textLength="137.9297" x="147.2617" y="28.1387">ValidateParameterTest</text><rect fill="#555555" height="37.9688" rx="4" ry="4" style="stroke:#555555;stroke-width:1.0;" width="161.9297" x="135.2617" y="468.6563"/><text fill="#FFFFFF" font-family="Verdana" font-size="12" lengthAdjust="spacing" textLength="137.9297" x="147.2617" y="491.7949">ValidateParameterTest</text><rect fill="#555555" height="37.9688" rx="4" ry="4" style="stroke:#555555;stroke-width:1.0;" width="112.7754" x="387.1914" y="5"/><text fill="#FFFFFF" font-family="Verdana" font-size="12" lengthAdjust="spacing" textLength="88.7754" x="399.1914" y="28.1387">PostgreSqlJson</text><rect fill="#555555" height="37.9688" rx="4" ry="4" style="stroke:#555555;stroke-width:1.0;" width="112.7754" x="387.1914" y="468.6563"/><text fill="#FFFFFF" font-family="Verdana" font-size="12" lengthAdjust="spacing" textLength="88.7754" x="399.1914" y="491.7949">PostgreSqlJson</text><rect fill="#555555" height="37.9688" rx="4" ry="4" style="stroke:#555555;stroke-width:1.0;" width="110.9355" x="623.8594" y="5"/><text fill="#FFFFFF" font-family="Verdana" font-size="12" lengthAdjust="spacing" textLength="86.9355" x="635.8594" y="28.1387">EnrichmentOff</text><rect fill="#555555" height="37.9688" rx="4" ry="4" style="stroke:#555555;stroke-width:1.0;" width="110.9355" x="623.8594" y="468.6563"/><text fill="#FFFFFF" font-family="Verdana" font-size="12" lengthAdjust="spacing" textLength="86.9355" x="635.8594" y="491.7949">EnrichmentOff</text><rect fill="none" height="367.7188" style="stroke:#999999;stroke-width:1.0;" width="10" x="211.2266" y="83.9375"/><rect fill="none" height="139.9063" style="stroke:#999999;stroke-width:1.0;" width="10" x="438.5791" y="121.9063"/><rect fill="none" height="48.9688" style="stroke:#999999;stroke-width:1.0;" width="10" x="443.5791" y="167.875"/><rect fill="none" height="113.9063" style="stroke:#999999;stroke-width:1.0;" width="10" x="438.5791" y="299.7813"/><rect fill="none" height="37.9688" style="stroke:#999999;stroke-width:1.0;" width="10" x="674.3271" y="337.75"/><polygon fill="#4362B1" points="199.2266,79.9375,209.2266,83.9375,199.2266,87.9375,203.2266,83.9375" style="stroke:#4362B1;stroke-width:1.0;"/><line style="stroke:#4362B1;stroke-width:3.0;" x1="0" x2="205.2266" y1="83.9375" y2="83.9375"/><text fill="#FFFFFF" font-family="Verdana" font-size="12" lengthAdjust="spacing" textLength="133.7578" x="12" y="74.1074">nonDirectoryWatchDir</text><text fill="#808080" font-family="Verdana" font-size="12" lengthAdjust="spacing" textLength="40.8398" x="153.3867" y="74.1074">2.6 ms</text><polygon fill="#4362B1" points="426.5791,117.9063,436.5791,121.9063,426.5791,125.9063,430.5791,121.9063" style="stroke:#4362B1;stroke-width:1.0;"/><line style="stroke:#4362B1;stroke-width:3.0;" x1="221.2266" x2="432.5791" y1="121.9063" y2="121.9063"/><text fill="#FFFFFF" font-family="Verdana" font-size="12" lengthAdjust="spacing" textLength="20.6191" x="233.2266" y="112.0762">call</text><text fill="#808080" font-family="Verdana" font-size="12" lengthAdjust="spacing" textLength="56.1094" x="261.4746" y="112.0762">0.488 ms</text><line style="stroke:#4362B1;stroke-width:3.0;" x1="448.5791" x2="495.5791" y1="154.875" y2="154.875"/><line style="stroke:#4362B1;stroke-width:3.0;" x1="495.5791" x2="495.5791" y1="154.875" y2="167.875"/><line style="stroke:#4362B1;stroke-width:3.0;" x1="454.5791" x2="495.5791" y1="167.875" y2="167.875"/><polygon fill="#4362B1" points="464.5791,163.875,454.5791,167.875,464.5791,171.875,460.5791,167.875" style="stroke:#4362B1;stroke-width:1.0;"/><text fill="#FFFFFF" font-family="Verdana" font-size="12" lengthAdjust="spacing" textLength="128.0098" x="465.5791" y="145.0449">watchPostgreSqlLogs</text><text fill="#808080" font-family="Verdana" font-size="12" lengthAdjust="spacing" textLength="56.1094" x="601.2178" y="145.0449">0.294 ms</text><line style="stroke:#4362B1;stroke-width:3.0;stroke-dasharray:2.0,2.0;" x1="396.5791" x2="442.5791" y1="215.8438" y2="215.8438"/><line style="stroke:#4362B1;stroke-width:3.0;stroke-dasharray:2.0,2.0;" x1="396.5791" x2="396.5791" y1="215.8438" y2="228.8438"/><line style="stroke:#4362B1;stroke-width:3.0;stroke-dasharray:2.0,2.0;" x1="396.5791" x2="436.5791" y1="228.8438" y2="228.8438"/><polygon fill="#4362B1" points="426.5791,224.8438,436.5791,228.8438,426.5791,232.8438,430.5791,228.8438" style="stroke:#4362B1;stroke-width:1.0;"/><text fill="#FFFFFF" font-family="Verdana" font-size="12" lengthAdjust="spacing" textLength="101.8477" x="324.7314" y="206.0137">java.lang.Integer</text><polygon fill="#4362B1" points="232.2266,257.8125,222.2266,261.8125,232.2266,265.8125,228.2266,261.8125" style="stroke:#4362B1;stroke-width:1.0;"/><line style="stroke:#4362B1;stroke-width:3.0;stroke-dasharray:2.0,2.0;" x1="226.2266" x2="442.5791" y1="261.8125" y2="261.8125"/><text fill="#FFFFFF" font-family="Verdana" font-size="12" lengthAdjust="spacing" textLength="101.8477" x="243.2266" y="251.9824">java.lang.Integer</text><polygon fill="#4362B1" points="426.5791,295.7813,436.5791,299.7813,426.5791,303.7813,430.5791,299.7813" style="stroke:#4362B1;stroke-width:1.0;"/><line style="stroke:#4362B1;stroke-width:3.0;" x1="221.2266" x2="432.5791" y1="299.7813" y2="299.7813"/><text fill="#FFFFFF" font-family="Verdana" font-size="12" lengthAdjust="spacing" textLength="30.9082" x="233.2266" y="289.9512">close</text><text fill="#808080" font-family="Verdana" font-size="12" lengthAdjust="spacing" textLength="63.7441" x="271.7637" y="289.9512">0.0783 ms</text><polygon fill="#4362B1" points="662.3271,333.75,672.3271,337.75,662.3271,341.75,666.3271,337.75" style="stroke:#4362B1;stroke-width:1.0;"/><line style="stroke:#4362B1;stroke-width:3.0;" x1="448.5791" x2="668.3271" y1="337.75" y2="337.75"/><text fill="#FFFFFF" font-family="Verdana" font-size="12" lengthAdjust="spacing" textLength="30.9082" x="460.5791" y="327.9199">close</text><text fill="#808080" font-family="Verdana" font-size="12" lengthAdjust="spacing" textLength="63.7441" x="499.1162" y="327.9199">0.0461 ms</text><polygon fill="#4362B1" points="459.5791,371.7188,449.5791,375.7188,459.5791,379.7188,455.5791,375.7188" style="stroke:#4362B1;stroke-width:1.0;"/><line style="stroke:#4362B1;stroke-width:3.0;stroke-dasharray:2.0,2.0;" x1="453.5791" x2="678.3271" y1="375.7188" y2="375.7188"/><text fill="#FFFFFF" font-family="Verdana" font-size="12" lengthAdjust="spacing" textLength="25.3945" x="470.5791" y="365.8887">void</text><polygon fill="#4362B1" points="232.2266,409.6875,222.2266,413.6875,232.2266,417.6875,228.2266,413.6875" style="stroke:#4362B1;stroke-width:1.0;"/><line style="stroke:#4362B1;stroke-width:3.0;stroke-dasharray:2.0,2.0;" x1="226.2266" x2="442.5791" y1="413.6875" y2="413.6875"/><text fill="#FFFFFF" font-family="Verdana" font-size="12" lengthAdjust="spacing" textLength="25.3945" x="243.2266" y="403.8574">void</text><polygon fill="#4362B1" points="11,447.6563,1,451.6563,11,455.6563,7,451.6563" style="stroke:#4362B1;stroke-width:1.0;"/><line style="stroke:#4362B1;stroke-width:3.0;stroke-dasharray:2.0,2.0;" x1="5" x2="215.2266" y1="451.6563" y2="451.6563"/><text fill="#FFFFFF" font-family="Verdana" font-size="12" lengthAdjust="spacing" textLength="25.3945" x="22" y="441.8262">void</text><!--SRC=[fLDBJy904BxpArRkRH498Y4zwK5Z8eb63vp6xT2ksPUxKmZ_thKGTKiXgCT-yprs7ZqJcikwmDf9LX5PFyqo1-kq55JLhxL7nuqcr9Hoex8I2QnLO3ChGLEjP48LAimK29rjIriajQ7Oi-18S643bps350KGpi61GaBtX9uOUDRlhFGZyTnuAXq-liixRtIZYg6OVgETu9KAptvOBXjsXFHxZ2sIl3DtohJHry8X9-CsBq2y2bzineqqRbewsEHic8wPyhEimV9W1fp4AZXrDna8hBkIv74NKyP1oZXia8ucapZkHs2iRsgi1Uw7h3-x-WRlJUdRcSEhKJlpTwcp96d7li4Aqd0tPNeRJgf4jnCMUCouSt0dk__1ksCfqdXiJsXmERdutrgYcpoKCXgV7rb4P75e3wsSbH75_kJtdKuT_9VViLalWl30_xRJ_r1t4Zy0]--></g></svg>