<svg xmlns="http://www.w3.org/2000/svg" xmlns:xlink="http://www.w3.org/1999/xlink" contentStyleType="text/css" height="383px" preserveAspectRatio="none" style="width:768px;height:383px;background:#000000;" version="1.1" viewBox="0 0 768 383" width="768px" zoomAndPan="magnify"><defs/><g><rect fill="none" height="238.7813" style="stroke:#999999;stroke-width:1.0;" width="10" x="173.4512" y="83.9375"/><rect fill="none" height="162.8438" style="stroke:#999999;stroke-width:1.0;" width="10" x="389.0615" y="121.9063"/><rect fill="none" height="37.9688" style="stroke:#999999;stroke-width:1.0;" width="10" x="651.6611" y="201.8125"/><rect fill="none" height="110.875" rx="4" ry="4" style="stroke:#4362B1;stroke-width:1.5;" width="474.4551" x="287.6738" y="136.9063"/><line style="stroke:#999999;stroke-width:0.5;stroke-dasharray:5.0,5.0;" x1="178.2285" x2="178.2285" y1="43.9688" y2="340.7188"/><line style="stroke:#999999;stroke-width:0.5;stroke-dasharray:5.0,5.0;" x1="393.6738" x2="393.6738" y1="43.9688" y2="340.7188"/><line style="stroke:#999999;stroke-width:0.5;stroke-dasharray:5.0,5.0;" x1="656.1934" x2="656.1934" y1="43.9688" y2="340.7188"/><rect fill="#555555" height="37.9688" rx="4" ry="4" style="stroke:#555555;stroke-width:1.0;" width="138.4453" x="109.2285" y="5"/><text fill="#FFFFFF" font-family="Verdana" font-size="12" lengthAdjust="spacing" textLength="114.4453" x="121.2285" y="28.1387">PostgreSqlJsonTest</text><rect fill="#555555" height="37.9688" rx="4" ry="4" style="stroke:#555555;stroke-width:1.0;" width="138.4453" x="109.2285" y="339.7188"/><text fill="#FFFFFF" font-family="Verdana" font-size="12" lengthAdjust="spacing" textLength="114.4453" x="121.2285" y="362.8574">PostgreSqlJsonTest</text><rect fill="#555555" height="37.9688" rx="4" ry="4" style="stroke:#555555;stroke-width:1.0;" width="112.7754" x="337.6738" y="5"/><text fill="#FFFFFF" font-family="Verdana" font-size="12" lengthAdjust="spacing" textLength="88.7754" x="349.6738" y="28.1387">PostgreSqlJson</text><rect fill="#555555" height="37.9688" rx="4" ry="4" style="stroke:#555555;stroke-width:1.0;" width="112.7754" x="337.6738" y="339.7188"/><text fill="#FFFFFF" font-family="Verdana" font-size="12" lengthAdjust="spacing" textLength="88.7754" x="349.6738" y="362.8574">PostgreSqlJson</text><rect fill="#555555" height="37.9688" rx="4" ry="4" style="stroke:#555555;stroke-width:1.0;" width="110.9355" x="601.1934" y="5"/><text fill="#FFFFFF" font-family="Verdana" font-size="12" lengthAdjust="spacing" textLength="86.9355" x="613.1934" y="28.1387">EnrichmentOff</text><rect fill="#555555" height="37.9688" rx="4" ry="4" style="stroke:#555555;stroke-width:1.0;" width="110.9355" x="601.1934" y="339.7188"/><text fill="#FFFFFF" font-family="Verdana" font-size="12" lengthAdjust="spacing" textLength="86.9355" x="613.1934" y="362.8574">EnrichmentOff</text><rect fill="none" height="238.7813" style="stroke:#999999;stroke-width:1.0;" width="10" x="173.4512" y="83.9375"/><rect fill="none" height="162.8438" style="stroke:#999999;stroke-width:1.0;" width="10" x="389.0615" y="121.9063"/><rect fill="none" height="37.9688" style="stroke:#999999;stroke-width:1.0;" width="10" x="651.6611" y="201.8125"/><polygon fill="#4362B1" points="161.4512,79.9375,171.4512,83.9375,161.4512,87.9375,165.4512,83.9375" style="stroke:#4362B1;stroke-width:1.0;"/><line style="stroke:#4362B1;stroke-width:3.0;" x1="0" x2="167.4512" y1="83.9375" y2="83.9375"/><text fill="#FFFFFF" font-family="Verdana" font-size="12" lengthAdjust="spacing" textLength="80.7129" x="12" y="74.1074">parseLogPlan</text><text fill="#808080" font-family="Verdana" font-size="12" lengthAdjust="spacing" textLength="56.1094" x="100.3418" y="74.1074">0.177 ms</text><polygon fill="#4362B1" points="377.0615,117.9063,387.0615,121.9063,377.0615,125.9063,381.0615,121.9063" style="stroke:#4362B1;stroke-width:1.0;"/><line style="stroke:#4362B1;stroke-width:3.0;" x1="183.4512" x2="383.0615" y1="121.9063" y2="121.9063"/><text fill="#FFFFFF" font-family="Verdana" font-size="12" lengthAdjust="spacing" textLength="80.1914" x="195.4512" y="112.0762">parseLogLine</text><text fill="#808080" font-family="Verdana" font-size="12" lengthAdjust="spacing" textLength="56.1094" x="283.2715" y="112.0762">0.157 ms</text><path d="M291.6738,136.9063 L371.8652,136.9063 L371.8652,152.875 L361.8652,162.875 L287.6738,162.875 L287.6738,140.9063 A4,4 0 0 1 291.6738,136.9063 " fill="#4362B1" style="stroke:#4362B1;stroke-width:1.5;"/><rect fill="none" height="110.875" rx="4" ry="4" style="stroke:#4362B1;stroke-width:1.5;" width="474.4551" x="287.6738" y="136.9063"/><text fill="#FFFFFF" font-family="Verdana" font-size="12" font-weight="bold" lengthAdjust="spacing" textLength="29.1914" x="307.6738" y="154.0449">loop</text><text fill="#4362B1" font-family="Verdana" font-size="12" font-weight="bold" lengthAdjust="spacing" textLength="55.6465" x="391.8652" y="155.0449">[2 times</text><text fill="#808080" font-family="Verdana" font-size="12" font-weight="bold" lengthAdjust="spacing" textLength="70.1309" x="455.8672" y="155.0449">0.0327 ms</text><text fill="#4362B1" font-family="Verdana" font-size="12" font-weight="bold" lengthAdjust="spacing" textLength="5.4844" x="525.998" y="155.0449">]</text><polygon fill="#4362B1" points="639.6611,197.8125,649.6611,201.8125,639.6611,205.8125,643.6611,201.8125" style="stroke:#4362B1;stroke-width:1.0;"/><line style="stroke:#4362B1;stroke-width:3.0;" x1="399.0615" x2="645.6611" y1="201.8125" y2="201.8125"/><text fill="#FFFFFF" font-family="Verdana" font-size="12" lengthAdjust="spacing" textLength="152.2266" x="411.0615" y="191.9824">enricherApplicationName</text><text fill="#808080" font-family="Verdana" font-size="12" lengthAdjust="spacing" textLength="63.7441" x="570.917" y="191.9824">0.0327 ms</text><polygon fill="#4362B1" points="410.0615,235.7813,400.0615,239.7813,410.0615,243.7813,406.0615,239.7813" style="stroke:#4362B1;stroke-width:1.0;"/><line style="stroke:#4362B1;stroke-width:3.0;stroke-dasharray:2.0,2.0;" x1="404.0615" x2="655.6611" y1="239.7813" y2="239.7813"/><text fill="#FFFFFF" font-family="Verdana" font-size="12" lengthAdjust="spacing" textLength="25.3945" x="421.0615" y="229.9512">void</text><polygon fill="#4362B1" points="194.4512,280.75,184.4512,284.75,194.4512,288.75,190.4512,284.75" style="stroke:#4362B1;stroke-width:1.0;"/><line style="stroke:#4362B1;stroke-width:3.0;stroke-dasharray:2.0,2.0;" x1="188.4512" x2="393.0615" y1="284.75" y2="284.75"/><text fill="#FFFFFF" font-family="Verdana" font-size="12" lengthAdjust="spacing" textLength="25.3945" x="205.4512" y="274.9199">void</text><polygon fill="#4362B1" points="11,318.7188,1,322.7188,11,326.7188,7,322.7188" style="stroke:#4362B1;stroke-width:1.0;"/><line style="stroke:#4362B1;stroke-width:3.0;stroke-dasharray:2.0,2.0;" x1="5" x2="177.4512" y1="322.7188" y2="322.7188"/><text fill="#FFFFFF" font-family="Verdana" font-size="12" lengthAdjust="spacing" textLength="25.3945" x="22" y="312.8887">void</text><!--SRC=[ZPBDJiCm48JlVOgbzyIb25MAgaWSUa4LL89RJyRP9fRyXxqfukqn2GeaRYgEcPtvPhtAZJH2jHMsNa53v4B1cESVUIsfQT_QW5vOGsWe5rQp6eaxfxbZJd53hLOPDQYHQIuDwqUzahiuN3ZkIGhfeXSEDb3jyULTFGPhNZ4Gy03BL5vUYLs8ZEqxuwLeT5pu-NJgt2DbkG0uPcLQMa2a1DpR-X1V1bjXbVL5xVbd2QlyThC17RQiKyl8u8BacHDUU5MSmWLvMlfRk9S6ayBxIU5iPJS3s5lhO0qaDOOfR7MtJcZfabavkbG1s7sYVt1EIS59MlF4DVwNFkmxmiwKRxDiqdwsiXhC5LwbxKmrS_N8dPvz0F-19YSz9i7-9_a9pqQ_NLy0]--></g></svg>