<svg xmlns="http://www.w3.org/2000/svg" xmlns:xlink="http://www.w3.org/1999/xlink" contentStyleType="text/css" height="815px" preserveAspectRatio="none" style="width:789px;height:815px;background:#000000;" version="1.1" viewBox="0 0 789 815" width="789px" zoomAndPan="magnify"><defs/><g><rect fill="none" height="670.4688" style="stroke:#999999;stroke-width:1.0;" width="10" x="184.7539" y="83.9375"/><rect fill="none" height="366.7188" style="stroke:#999999;stroke-width:1.0;" width="10" x="400.3643" y="121.9063"/><rect fill="none" height="226.8438" style="stroke:#999999;stroke-width:1.0;" width="10" x="405.3643" y="209.8125"/><rect fill="none" height="124.9063" style="stroke:#999999;stroke-width:1.0;" width="10" x="410.3643" y="260.7813"/><rect fill="none" height="37.9688" style="stroke:#999999;stroke-width:1.0;" width="10" x="400.3643" y="526.5938"/><rect fill="none" height="113.9063" style="stroke:#999999;stroke-width:1.0;" width="10" x="400.3643" y="602.5313"/><rect fill="none" height="37.9688" style="stroke:#999999;stroke-width:1.0;" width="10" x="672.9639" y="303.75"/><rect fill="none" height="37.9688" style="stroke:#999999;stroke-width:1.0;" width="10" x="672.9639" y="640.5"/><rect fill="none" height="314.75" rx="4" ry="4" style="stroke:#4362B1;stroke-width:1.5;" width="484.4551" x="298.9766" y="136.9063"/><line style="stroke:#999999;stroke-width:0.5;stroke-dasharray:5.0,5.0;" x1="189.5313" x2="189.5313" y1="43.9688" y2="772.4063"/><line style="stroke:#999999;stroke-width:0.5;stroke-dasharray:5.0,5.0;" x1="404.9766" x2="404.9766" y1="43.9688" y2="772.4063"/><line style="stroke:#999999;stroke-width:0.5;stroke-dasharray:5.0,5.0;" x1="677.4961" x2="677.4961" y1="43.9688" y2="772.4063"/><rect fill="#555555" height="37.9688" rx="4" ry="4" style="stroke:#555555;stroke-width:1.0;" width="138.4453" x="120.5313" y="5"/><text fill="#FFFFFF" font-family="Verdana" font-size="12" lengthAdjust="spacing" textLength="114.4453" x="132.5313" y="28.1387">PostgreSqlJsonTest</text><rect fill="#555555" height="37.9688" rx="4" ry="4" style="stroke:#555555;stroke-width:1.0;" width="138.4453" x="120.5313" y="771.4063"/><text fill="#FFFFFF" font-family="Verdana" font-size="12" lengthAdjust="spacing" textLength="114.4453" x="132.5313" y="794.5449">PostgreSqlJsonTest</text><rect fill="#555555" height="37.9688" rx="4" ry="4" style="stroke:#555555;stroke-width:1.0;" width="112.7754" x="348.9766" y="5"/><text fill="#FFFFFF" font-family="Verdana" font-size="12" lengthAdjust="spacing" textLength="88.7754" x="360.9766" y="28.1387">PostgreSqlJson</text><rect fill="#555555" height="37.9688" rx="4" ry="4" style="stroke:#555555;stroke-width:1.0;" width="112.7754" x="348.9766" y="771.4063"/><text fill="#FFFFFF" font-family="Verdana" font-size="12" lengthAdjust="spacing" textLength="88.7754" x="360.9766" y="794.5449">PostgreSqlJson</text><rect fill="#555555" height="37.9688" rx="4" ry="4" style="stroke:#555555;stroke-width:1.0;" width="110.9355" x="622.4961" y="5"/><text fill="#FFFFFF" font-family="Verdana" font-size="12" lengthAdjust="spacing" textLength="86.9355" x="634.4961" y="28.1387">EnrichmentOff</text><rect fill="#555555" height="37.9688" rx="4" ry="4" style="stroke:#555555;stroke-width:1.0;" width="110.9355" x="622.4961" y="771.4063"/><text fill="#FFFFFF" font-family="Verdana" font-size="12" lengthAdjust="spacing" textLength="86.9355" x="634.4961" y="794.5449">EnrichmentOff</text><rect fill="none" height="670.4688" style="stroke:#999999;stroke-width:1.0;" width="10" x="184.7539" y="83.9375"/><rect fill="none" height="366.7188" style="stroke:#999999;stroke-width:1.0;" width="10" x="400.3643" y="121.9063"/><rect fill="none" height="226.8438" style="stroke:#999999;stroke-width:1.0;" width="10" x="405.3643" y="209.8125"/><rect fill="none" height="124.9063" style="stroke:#999999;stroke-width:1.0;" width="10" x="410.3643" y="260.7813"/><rect fill="none" height="37.9688" style="stroke:#999999;stroke-width:1.0;" width="10" x="400.3643" y="526.5938"/><rect fill="none" height="113.9063" style="stroke:#999999;stroke-width:1.0;" width="10" x="400.3643" y="602.5313"/><rect fill="none" height="37.9688" style="stroke:#999999;stroke-width:1.0;" width="10" x="672.9639" y="303.75"/><rect fill="none" height="37.9688" style="stroke:#999999;stroke-width:1.0;" width="10" x="672.9639" y="640.5"/><polygon fill="#4362B1" points="172.7539,79.9375,182.7539,83.9375,172.7539,87.9375,176.7539,83.9375" style="stroke:#4362B1;stroke-width:1.0;"/><line style="stroke:#4362B1;stroke-width:3.0;" x1="0" x2="178.7539" y1="83.9375" y2="83.9375"/><text fill="#FFFFFF" font-family="Verdana" font-size="12" lengthAdjust="spacing" textLength="99.6504" x="12" y="74.1074">testSavePosition</text><text fill="#808080" font-family="Verdana" font-size="12" lengthAdjust="spacing" textLength="48.4746" x="119.2793" y="74.1074">5.64 ms</text><polygon fill="#4362B1" points="388.3643,117.9063,398.3643,121.9063,388.3643,125.9063,392.3643,121.9063" style="stroke:#4362B1;stroke-width:1.0;"/><line style="stroke:#4362B1;stroke-width:3.0;" x1="194.7539" x2="394.3643" y1="121.9063" y2="121.9063"/><text fill="#FFFFFF" font-family="Verdana" font-size="12" lengthAdjust="spacing" textLength="94.4707" x="206.7539" y="112.0762">initialLogImport</text><text fill="#808080" font-family="Verdana" font-size="12" lengthAdjust="spacing" textLength="56.1094" x="308.8535" y="112.0762">0.509 ms</text><path d="M302.9766,136.9063 L383.168,136.9063 L383.168,152.875 L373.168,162.875 L298.9766,162.875 L298.9766,140.9063 A4,4 0 0 1 302.9766,136.9063 " fill="#4362B1" style="stroke:#4362B1;stroke-width:1.5;"/><rect fill="none" height="314.75" rx="4" ry="4" style="stroke:#4362B1;stroke-width:1.5;" width="484.4551" x="298.9766" y="136.9063"/><text fill="#FFFFFF" font-family="Verdana" font-size="12" font-weight="bold" lengthAdjust="spacing" textLength="29.1914" x="318.9766" y="154.0449">loop</text><text fill="#4362B1" font-family="Verdana" font-size="12" font-weight="bold" lengthAdjust="spacing" textLength="55.6465" x="403.168" y="155.0449">[3 times</text><text fill="#808080" font-family="Verdana" font-size="12" font-weight="bold" lengthAdjust="spacing" textLength="61.7813" x="467.1699" y="155.0449">0.465 ms</text><text fill="#4362B1" font-family="Verdana" font-size="12" font-weight="bold" lengthAdjust="spacing" textLength="5.4844" x="528.9512" y="155.0449">]</text><line style="stroke:#4362B1;stroke-width:3.0;" x1="410.3643" x2="457.3643" y1="196.8125" y2="196.8125"/><line style="stroke:#4362B1;stroke-width:3.0;" x1="457.3643" x2="457.3643" y1="196.8125" y2="209.8125"/><line style="stroke:#4362B1;stroke-width:3.0;" x1="416.3643" x2="457.3643" y1="209.8125" y2="209.8125"/><polygon fill="#4362B1" points="426.3643,205.8125,416.3643,209.8125,426.3643,213.8125,422.3643,209.8125" style="stroke:#4362B1;stroke-width:1.0;"/><text fill="#FFFFFF" font-family="Verdana" font-size="12" lengthAdjust="spacing" textLength="73.6699" x="427.3643" y="186.9824">readJsonLog</text><text fill="#808080" font-family="Verdana" font-size="12" lengthAdjust="spacing" textLength="56.1094" x="508.6631" y="186.9824">0.465 ms</text><line style="stroke:#4362B1;stroke-width:3.0;" x1="415.3643" x2="462.3643" y1="247.7813" y2="247.7813"/><line style="stroke:#4362B1;stroke-width:3.0;" x1="462.3643" x2="462.3643" y1="247.7813" y2="260.7813"/><line style="stroke:#4362B1;stroke-width:3.0;" x1="421.3643" x2="462.3643" y1="260.7813" y2="260.7813"/><polygon fill="#4362B1" points="431.3643,256.7813,421.3643,260.7813,431.3643,264.7813,427.3643,260.7813" style="stroke:#4362B1;stroke-width:1.0;"/><text fill="#FFFFFF" font-family="Verdana" font-size="12" lengthAdjust="spacing" textLength="80.1914" x="432.3643" y="237.9512">parseLogLine</text><text fill="#808080" font-family="Verdana" font-size="12" lengthAdjust="spacing" textLength="56.1094" x="520.1846" y="237.9512">0.292 ms</text><polygon fill="#4362B1" points="660.9639,299.75,670.9639,303.75,660.9639,307.75,664.9639,303.75" style="stroke:#4362B1;stroke-width:1.0;"/><line style="stroke:#4362B1;stroke-width:3.0;" x1="420.3643" x2="666.9639" y1="303.75" y2="303.75"/><text fill="#FFFFFF" font-family="Verdana" font-size="12" lengthAdjust="spacing" textLength="152.2266" x="432.3643" y="293.9199">enricherApplicationName</text><text fill="#808080" font-family="Verdana" font-size="12" lengthAdjust="spacing" textLength="63.7441" x="592.2197" y="293.9199">0.0587 ms</text><polygon fill="#4362B1" points="431.3643,337.7188,421.3643,341.7188,431.3643,345.7188,427.3643,341.7188" style="stroke:#4362B1;stroke-width:1.0;"/><line style="stroke:#4362B1;stroke-width:3.0;stroke-dasharray:2.0,2.0;" x1="425.3643" x2="676.9639" y1="341.7188" y2="341.7188"/><text fill="#FFFFFF" font-family="Verdana" font-size="12" lengthAdjust="spacing" textLength="25.3945" x="442.3643" y="331.8887">void</text><line style="stroke:#4362B1;stroke-width:3.0;stroke-dasharray:2.0,2.0;" x1="358.3643" x2="409.3643" y1="384.6875" y2="384.6875"/><line style="stroke:#4362B1;stroke-width:3.0;stroke-dasharray:2.0,2.0;" x1="358.3643" x2="358.3643" y1="384.6875" y2="397.6875"/><line style="stroke:#4362B1;stroke-width:3.0;stroke-dasharray:2.0,2.0;" x1="358.3643" x2="398.3643" y1="397.6875" y2="397.6875"/><polygon fill="#4362B1" points="388.3643,393.6875,398.3643,397.6875,388.3643,401.6875,392.3643,397.6875" style="stroke:#4362B1;stroke-width:1.0;"/><text fill="#FFFFFF" font-family="Verdana" font-size="12" lengthAdjust="spacing" textLength="25.3945" x="362.3643" y="374.8574">void</text><line style="stroke:#4362B1;stroke-width:3.0;stroke-dasharray:2.0,2.0;" x1="358.3643" x2="404.3643" y1="435.6563" y2="435.6563"/><line style="stroke:#4362B1;stroke-width:3.0;stroke-dasharray:2.0,2.0;" x1="358.3643" x2="358.3643" y1="435.6563" y2="448.6563"/><line style="stroke:#4362B1;stroke-width:3.0;stroke-dasharray:2.0,2.0;" x1="358.3643" x2="398.3643" y1="448.6563" y2="448.6563"/><polygon fill="#4362B1" points="388.3643,444.6563,398.3643,448.6563,388.3643,452.6563,392.3643,448.6563" style="stroke:#4362B1;stroke-width:1.0;"/><text fill="#FFFFFF" font-family="Verdana" font-size="12" lengthAdjust="spacing" textLength="25.3945" x="362.3643" y="425.8262">void</text><polygon fill="#4362B1" points="205.7539,484.625,195.7539,488.625,205.7539,492.625,201.7539,488.625" style="stroke:#4362B1;stroke-width:1.0;"/><line style="stroke:#4362B1;stroke-width:3.0;stroke-dasharray:2.0,2.0;" x1="199.7539" x2="404.3643" y1="488.625" y2="488.625"/><text fill="#FFFFFF" font-family="Verdana" font-size="12" lengthAdjust="spacing" textLength="25.3945" x="216.7539" y="478.7949">void</text><polygon fill="#4362B1" points="388.3643,522.5938,398.3643,526.5938,388.3643,530.5938,392.3643,526.5938" style="stroke:#4362B1;stroke-width:1.0;"/><line style="stroke:#4362B1;stroke-width:3.0;" x1="194.7539" x2="394.3643" y1="526.5938" y2="526.5938"/><text fill="#FFFFFF" font-family="Verdana" font-size="12" lengthAdjust="spacing" textLength="124.0898" x="206.7539" y="516.7637">saveLogFilesPosition</text><text fill="#808080" font-family="Verdana" font-size="12" lengthAdjust="spacing" textLength="40.8398" x="338.4727" y="516.7637">2.3 ms</text><polygon fill="#4362B1" points="205.7539,560.5625,195.7539,564.5625,205.7539,568.5625,201.7539,564.5625" style="stroke:#4362B1;stroke-width:1.0;"/><line style="stroke:#4362B1;stroke-width:3.0;stroke-dasharray:2.0,2.0;" x1="199.7539" x2="404.3643" y1="564.5625" y2="564.5625"/><text fill="#FFFFFF" font-family="Verdana" font-size="12" lengthAdjust="spacing" textLength="25.3945" x="216.7539" y="554.7324">void</text><polygon fill="#4362B1" points="388.3643,598.5313,398.3643,602.5313,388.3643,606.5313,392.3643,602.5313" style="stroke:#4362B1;stroke-width:1.0;"/><line style="stroke:#4362B1;stroke-width:3.0;" x1="194.7539" x2="394.3643" y1="602.5313" y2="602.5313"/><text fill="#FFFFFF" font-family="Verdana" font-size="12" lengthAdjust="spacing" textLength="30.9082" x="206.7539" y="592.7012">close</text><text fill="#808080" font-family="Verdana" font-size="12" lengthAdjust="spacing" textLength="63.7441" x="245.291" y="592.7012">0.0295 ms</text><polygon fill="#4362B1" points="660.9639,636.5,670.9639,640.5,660.9639,644.5,664.9639,640.5" style="stroke:#4362B1;stroke-width:1.0;"/><line style="stroke:#4362B1;stroke-width:3.0;" x1="410.3643" x2="666.9639" y1="640.5" y2="640.5"/><text fill="#FFFFFF" font-family="Verdana" font-size="12" lengthAdjust="spacing" textLength="30.9082" x="422.3643" y="630.6699">close</text><text fill="#808080" font-family="Verdana" font-size="12" lengthAdjust="spacing" textLength="63.7441" x="460.9014" y="630.6699">0.0111 ms</text><polygon fill="#4362B1" points="421.3643,674.4688,411.3643,678.4688,421.3643,682.4688,417.3643,678.4688" style="stroke:#4362B1;stroke-width:1.0;"/><line style="stroke:#4362B1;stroke-width:3.0;stroke-dasharray:2.0,2.0;" x1="415.3643" x2="676.9639" y1="678.4688" y2="678.4688"/><text fill="#FFFFFF" font-family="Verdana" font-size="12" lengthAdjust="spacing" textLength="25.3945" x="432.3643" y="668.6387">void</text><polygon fill="#4362B1" points="205.7539,712.4375,195.7539,716.4375,205.7539,720.4375,201.7539,716.4375" style="stroke:#4362B1;stroke-width:1.0;"/><line style="stroke:#4362B1;stroke-width:3.0;stroke-dasharray:2.0,2.0;" x1="199.7539" x2="404.3643" y1="716.4375" y2="716.4375"/><text fill="#FFFFFF" font-family="Verdana" font-size="12" lengthAdjust="spacing" textLength="25.3945" x="216.7539" y="706.6074">void</text><polygon fill="#4362B1" points="11,750.4063,1,754.4063,11,758.4063,7,754.4063" style="stroke:#4362B1;stroke-width:1.0;"/><line style="stroke:#4362B1;stroke-width:3.0;stroke-dasharray:2.0,2.0;" x1="5" x2="188.7539" y1="754.4063" y2="754.4063"/><text fill="#FFFFFF" font-family="Verdana" font-size="12" lengthAdjust="spacing" textLength="25.3945" x="22" y="744.5762">void</text><!--SRC=[lLHDJy904BtxArRkRQ5Gb8QGUC14GzG4RvpMxL0ssIztfnZ_lGjueDrI835UcdO-tdixVREtN35H5L1PGJQ8nkL9OkbNN7BSL1-L0ykqGb0OCosJ4f0Q8wb9ZA0AAoaYt824H5AkaaFg48cDJzuOQf4pRdmjUTCEImlBJ_7ij7e7XuGwqWl3lOwsbfPw-LnPpZRI2tvTh_VLjKZlXf1LD0j9SuB-kQHRy3cEt5DDcHRQvgMbtpEInUCHaMwQx8Cp3qCPyYr5Q3cOpvAMS9Ct9rnvAYeMkdoIHbkiS_RZh3-favwatUS8MMXjo90Wb-2QOADnrWGBTOOQBT1Yz-P5NeZOBV4IJlz77NZ21LVG94qdQHlf9RGXSSqSEO7z9zW7OmHdT6U35oe32Vti_gvTmv6A6dI7Y6aKDLHiDIzg3GMSHGqmcoDjW1v1dXZNTOZdyEQgEB4LNSZTg9TicFCRxOtqo0MuzirEu-4rE_RV1s12kz20wIIxxc8uO_nsbi5W4DgyqufNMBlJr7ytvLNGUBZkVvjFjkwgVW00]--></g></svg>