<svg xmlns="http://www.w3.org/2000/svg" xmlns:xlink="http://www.w3.org/1999/xlink" contentStyleType="text/css" height="334px" preserveAspectRatio="none" style="width:708px;height:334px;background:#000000;" version="1.1" viewBox="0 0 708 334" width="708px" zoomAndPan="magnify"><defs/><g><rect fill="none" height="189.8438" style="stroke:#999999;stroke-width:1.0;" width="10" x="209.7676" y="83.9375"/><rect fill="none" height="113.9063" style="stroke:#999999;stroke-width:1.0;" width="10" x="440.5537" y="121.9063"/><rect fill="none" height="37.9688" style="stroke:#999999;stroke-width:1.0;" width="10" x="642.4092" y="159.875"/><line style="stroke:#999999;stroke-width:0.5;stroke-dasharray:5.0,5.0;" x1="214.3691" x2="214.3691" y1="43.9688" y2="291.7813"/><line style="stroke:#999999;stroke-width:0.5;stroke-dasharray:5.0,5.0;" x1="445.166" x2="445.166" y1="43.9688" y2="291.7813"/><line style="stroke:#999999;stroke-width:0.5;stroke-dasharray:5.0,5.0;" x1="646.9414" x2="646.9414" y1="43.9688" y2="291.7813"/><rect fill="#555555" height="37.9688" rx="4" ry="4" style="stroke:#555555;stroke-width:1.0;" width="168.7969" x="130.3691" y="5"/><text fill="#FFFFFF" font-family="Verdana" font-size="12" lengthAdjust="spacing" textLength="144.7969" x="142.3691" y="28.1387">TestCliArgumentParsing</text><rect fill="#555555" height="37.9688" rx="4" ry="4" style="stroke:#555555;stroke-width:1.0;" width="168.7969" x="130.3691" y="290.7813"/><text fill="#FFFFFF" font-family="Verdana" font-size="12" lengthAdjust="spacing" textLength="144.7969" x="142.3691" y="313.9199">TestCliArgumentParsing</text><rect fill="#555555" height="37.9688" rx="4" ry="4" style="stroke:#555555;stroke-width:1.0;" width="112.7754" x="389.166" y="5"/><text fill="#FFFFFF" font-family="Verdana" font-size="12" lengthAdjust="spacing" textLength="88.7754" x="401.166" y="28.1387">PostgreSqlJson</text><rect fill="#555555" height="37.9688" rx="4" ry="4" style="stroke:#555555;stroke-width:1.0;" width="112.7754" x="389.166" y="290.7813"/><text fill="#FFFFFF" font-family="Verdana" font-size="12" lengthAdjust="spacing" textLength="88.7754" x="401.166" y="313.9199">PostgreSqlJson</text><rect fill="#555555" height="37.9688" rx="4" ry="4" style="stroke:#555555;stroke-width:1.0;" width="110.9355" x="591.9414" y="5"/><text fill="#FFFFFF" font-family="Verdana" font-size="12" lengthAdjust="spacing" textLength="86.9355" x="603.9414" y="28.1387">EnrichmentOff</text><rect fill="#555555" height="37.9688" rx="4" ry="4" style="stroke:#555555;stroke-width:1.0;" width="110.9355" x="591.9414" y="290.7813"/><text fill="#FFFFFF" font-family="Verdana" font-size="12" lengthAdjust="spacing" textLength="86.9355" x="603.9414" y="313.9199">EnrichmentOff</text><rect fill="none" height="189.8438" style="stroke:#999999;stroke-width:1.0;" width="10" x="209.7676" y="83.9375"/><rect fill="none" height="113.9063" style="stroke:#999999;stroke-width:1.0;" width="10" x="440.5537" y="121.9063"/><rect fill="none" height="37.9688" style="stroke:#999999;stroke-width:1.0;" width="10" x="642.4092" y="159.875"/><polygon fill="#4362B1" points="197.7676,79.9375,207.7676,83.9375,197.7676,87.9375,201.7676,83.9375" style="stroke:#4362B1;stroke-width:1.0;"/><line style="stroke:#4362B1;stroke-width:3.0;" x1="0" x2="203.7676" y1="83.9375" y2="83.9375"/><text fill="#FFFFFF" font-family="Verdana" font-size="12" lengthAdjust="spacing" textLength="136.1133" x="12" y="74.1074">testDefaultParameters</text><text fill="#808080" font-family="Verdana" font-size="12" lengthAdjust="spacing" textLength="37.0254" x="155.7422" y="74.1074">78 ms</text><polygon fill="#4362B1" points="428.5537,117.9063,438.5537,121.9063,428.5537,125.9063,432.5537,121.9063" style="stroke:#4362B1;stroke-width:1.0;"/><line style="stroke:#4362B1;stroke-width:3.0;" x1="219.7676" x2="434.5537" y1="121.9063" y2="121.9063"/><text fill="#FFFFFF" font-family="Verdana" font-size="12" lengthAdjust="spacing" textLength="30.9082" x="231.7676" y="112.0762">close</text><text fill="#808080" font-family="Verdana" font-size="12" lengthAdjust="spacing" textLength="48.4746" x="270.3047" y="112.0762">9.14 ms</text><polygon fill="#4362B1" points="630.4092,155.875,640.4092,159.875,630.4092,163.875,634.4092,159.875" style="stroke:#4362B1;stroke-width:1.0;"/><line style="stroke:#4362B1;stroke-width:3.0;" x1="450.5537" x2="636.4092" y1="159.875" y2="159.875"/><text fill="#FFFFFF" font-family="Verdana" font-size="12" lengthAdjust="spacing" textLength="30.9082" x="462.5537" y="150.0449">close</text><text fill="#808080" font-family="Verdana" font-size="12" lengthAdjust="spacing" textLength="63.7441" x="501.0908" y="150.0449">0.0301 ms</text><polygon fill="#4362B1" points="461.5537,193.8438,451.5537,197.8438,461.5537,201.8438,457.5537,197.8438" style="stroke:#4362B1;stroke-width:1.0;"/><line style="stroke:#4362B1;stroke-width:3.0;stroke-dasharray:2.0,2.0;" x1="455.5537" x2="646.4092" y1="197.8438" y2="197.8438"/><text fill="#FFFFFF" font-family="Verdana" font-size="12" lengthAdjust="spacing" textLength="25.3945" x="472.5537" y="188.0137">void</text><polygon fill="#4362B1" points="230.7676,231.8125,220.7676,235.8125,230.7676,239.8125,226.7676,235.8125" style="stroke:#4362B1;stroke-width:1.0;"/><line style="stroke:#4362B1;stroke-width:3.0;stroke-dasharray:2.0,2.0;" x1="224.7676" x2="444.5537" y1="235.8125" y2="235.8125"/><text fill="#FFFFFF" font-family="Verdana" font-size="12" lengthAdjust="spacing" textLength="25.3945" x="241.7676" y="225.9824">void</text><polygon fill="#4362B1" points="11,269.7813,1,273.7813,11,277.7813,7,273.7813" style="stroke:#4362B1;stroke-width:1.0;"/><line style="stroke:#4362B1;stroke-width:3.0;stroke-dasharray:2.0,2.0;" x1="5" x2="213.7676" y1="273.7813" y2="273.7813"/><text fill="#FFFFFF" font-family="Verdana" font-size="12" lengthAdjust="spacing" textLength="25.3945" x="22" y="263.9512">void</text><!--SRC=[VP7BJiCm44Nt_GhJVU9K805H50a16pPKWbrNWpj9BFc5FIxYxt7J2iKXPNiVvyhZAsc4YdkCNh61o8MQSmzVPIzfY1yne1VM41egXTMyHmBdD3Zk51YAMXKqe4QkGHf-iavAwPAvSk192kbIbhrZe4Sb7tmVTU9jmGTfUWQ1hPUjTLRVsa2znxTFzHAi6MkvbCUVZPTYED9UksvCPyfwnTYkQ9U7QqP9Vy8EeZfge97G1zO8gwolUm_VBRkzOpeqV9JQH0D1yW245zwP4ko2LRJvGsecb0sOpzsNcvjyS3APzqUFpSIYpTw_k56LrNMrcQzCTZB4uanJ5BETWvNxStIF_v2MRvDuy-Fy0YUuFmVOfUAbppq39lNbv0y0]--></g></svg>