<svg xmlns="http://www.w3.org/2000/svg" xmlns:xlink="http://www.w3.org/1999/xlink" contentStyleType="text/css" height="815px" preserveAspectRatio="none" style="width:785px;height:815px;background:#000000;" version="1.1" viewBox="0 0 785 815" width="785px" zoomAndPan="magnify"><defs/><g><rect fill="none" height="670.4688" style="stroke:#999999;stroke-width:1.0;" width="10" x="177.1191" y="83.9375"/><rect fill="none" height="366.7188" style="stroke:#999999;stroke-width:1.0;" width="10" x="396.3125" y="121.9063"/><rect fill="none" height="226.8438" style="stroke:#999999;stroke-width:1.0;" width="10" x="401.3125" y="209.8125"/><rect fill="none" height="124.9063" style="stroke:#999999;stroke-width:1.0;" width="10" x="406.3125" y="260.7813"/><rect fill="none" height="37.9688" style="stroke:#999999;stroke-width:1.0;" width="10" x="396.3125" y="526.5938"/><rect fill="none" height="113.9063" style="stroke:#999999;stroke-width:1.0;" width="10" x="396.3125" y="602.5313"/><rect fill="none" height="37.9688" style="stroke:#999999;stroke-width:1.0;" width="10" x="668.9121" y="303.75"/><rect fill="none" height="37.9688" style="stroke:#999999;stroke-width:1.0;" width="10" x="668.9121" y="640.5"/><rect fill="none" height="314.75" rx="4" ry="4" style="stroke:#4362B1;stroke-width:1.5;" width="484.4551" x="294.9248" y="136.9063"/><line style="stroke:#999999;stroke-width:0.5;stroke-dasharray:5.0,5.0;" x1="181.8965" x2="181.8965" y1="43.9688" y2="772.4063"/><line style="stroke:#999999;stroke-width:0.5;stroke-dasharray:5.0,5.0;" x1="400.9248" x2="400.9248" y1="43.9688" y2="772.4063"/><line style="stroke:#999999;stroke-width:0.5;stroke-dasharray:5.0,5.0;" x1="673.4443" x2="673.4443" y1="43.9688" y2="772.4063"/><rect fill="#555555" height="37.9688" rx="4" ry="4" style="stroke:#555555;stroke-width:1.0;" width="138.4453" x="112.8965" y="5"/><text fill="#FFFFFF" font-family="Verdana" font-size="12" lengthAdjust="spacing" textLength="114.4453" x="124.8965" y="28.1387">PostgreSqlJsonTest</text><rect fill="#555555" height="37.9688" rx="4" ry="4" style="stroke:#555555;stroke-width:1.0;" width="138.4453" x="112.8965" y="771.4063"/><text fill="#FFFFFF" font-family="Verdana" font-size="12" lengthAdjust="spacing" textLength="114.4453" x="124.8965" y="794.5449">PostgreSqlJsonTest</text><rect fill="#555555" height="37.9688" rx="4" ry="4" style="stroke:#555555;stroke-width:1.0;" width="112.7754" x="344.9248" y="5"/><text fill="#FFFFFF" font-family="Verdana" font-size="12" lengthAdjust="spacing" textLength="88.7754" x="356.9248" y="28.1387">PostgreSqlJson</text><rect fill="#555555" height="37.9688" rx="4" ry="4" style="stroke:#555555;stroke-width:1.0;" width="112.7754" x="344.9248" y="771.4063"/><text fill="#FFFFFF" font-family="Verdana" font-size="12" lengthAdjust="spacing" textLength="88.7754" x="356.9248" y="794.5449">PostgreSqlJson</text><rect fill="#555555" height="37.9688" rx="4" ry="4" style="stroke:#555555;stroke-width:1.0;" width="110.9355" x="618.4443" y="5"/><text fill="#FFFFFF" font-family="Verdana" font-size="12" lengthAdjust="spacing" textLength="86.9355" x="630.4443" y="28.1387">EnrichmentOff</text><rect fill="#555555" height="37.9688" rx="4" ry="4" style="stroke:#555555;stroke-width:1.0;" width="110.9355" x="618.4443" y="771.4063"/><text fill="#FFFFFF" font-family="Verdana" font-size="12" lengthAdjust="spacing" textLength="86.9355" x="630.4443" y="794.5449">EnrichmentOff</text><rect fill="none" height="670.4688" style="stroke:#999999;stroke-width:1.0;" width="10" x="177.1191" y="83.9375"/><rect fill="none" height="366.7188" style="stroke:#999999;stroke-width:1.0;" width="10" x="396.3125" y="121.9063"/><rect fill="none" height="226.8438" style="stroke:#999999;stroke-width:1.0;" width="10" x="401.3125" y="209.8125"/><rect fill="none" height="124.9063" style="stroke:#999999;stroke-width:1.0;" width="10" x="406.3125" y="260.7813"/><rect fill="none" height="37.9688" style="stroke:#999999;stroke-width:1.0;" width="10" x="396.3125" y="526.5938"/><rect fill="none" height="113.9063" style="stroke:#999999;stroke-width:1.0;" width="10" x="396.3125" y="602.5313"/><rect fill="none" height="37.9688" style="stroke:#999999;stroke-width:1.0;" width="10" x="668.9121" y="303.75"/><rect fill="none" height="37.9688" style="stroke:#999999;stroke-width:1.0;" width="10" x="668.9121" y="640.5"/><polygon fill="#4362B1" points="165.1191,79.9375,175.1191,83.9375,165.1191,87.9375,169.1191,83.9375" style="stroke:#4362B1;stroke-width:1.0;"/><line style="stroke:#4362B1;stroke-width:3.0;" x1="0" x2="171.1191" y1="83.9375" y2="83.9375"/><text fill="#FFFFFF" font-family="Verdana" font-size="12" lengthAdjust="spacing" textLength="99.6504" x="12" y="74.1074">testSavePosition</text><text fill="#808080" font-family="Verdana" font-size="12" lengthAdjust="spacing" textLength="40.8398" x="119.2793" y="74.1074">5.9 ms</text><polygon fill="#4362B1" points="384.3125,117.9063,394.3125,121.9063,384.3125,125.9063,388.3125,121.9063" style="stroke:#4362B1;stroke-width:1.0;"/><line style="stroke:#4362B1;stroke-width:3.0;" x1="187.1191" x2="390.3125" y1="121.9063" y2="121.9063"/><text fill="#FFFFFF" font-family="Verdana" font-size="12" lengthAdjust="spacing" textLength="94.4707" x="199.1191" y="112.0762">initialLogImport</text><text fill="#808080" font-family="Verdana" font-size="12" lengthAdjust="spacing" textLength="56.1094" x="301.2188" y="112.0762">0.527 ms</text><path d="M298.9248,136.9063 L379.1162,136.9063 L379.1162,152.875 L369.1162,162.875 L294.9248,162.875 L294.9248,140.9063 A4,4 0 0 1 298.9248,136.9063 " fill="#4362B1" style="stroke:#4362B1;stroke-width:1.5;"/><rect fill="none" height="314.75" rx="4" ry="4" style="stroke:#4362B1;stroke-width:1.5;" width="484.4551" x="294.9248" y="136.9063"/><text fill="#FFFFFF" font-family="Verdana" font-size="12" font-weight="bold" lengthAdjust="spacing" textLength="29.1914" x="314.9248" y="154.0449">loop</text><text fill="#4362B1" font-family="Verdana" font-size="12" font-weight="bold" lengthAdjust="spacing" textLength="55.6465" x="399.1162" y="155.0449">[3 times</text><text fill="#808080" font-family="Verdana" font-size="12" font-weight="bold" lengthAdjust="spacing" textLength="61.7813" x="463.1182" y="155.0449">0.482 ms</text><text fill="#4362B1" font-family="Verdana" font-size="12" font-weight="bold" lengthAdjust="spacing" textLength="5.4844" x="524.8994" y="155.0449">]</text><line style="stroke:#4362B1;stroke-width:3.0;" x1="406.3125" x2="453.3125" y1="196.8125" y2="196.8125"/><line style="stroke:#4362B1;stroke-width:3.0;" x1="453.3125" x2="453.3125" y1="196.8125" y2="209.8125"/><line style="stroke:#4362B1;stroke-width:3.0;" x1="412.3125" x2="453.3125" y1="209.8125" y2="209.8125"/><polygon fill="#4362B1" points="422.3125,205.8125,412.3125,209.8125,422.3125,213.8125,418.3125,209.8125" style="stroke:#4362B1;stroke-width:1.0;"/><text fill="#FFFFFF" font-family="Verdana" font-size="12" lengthAdjust="spacing" textLength="73.6699" x="423.3125" y="186.9824">readJsonLog</text><text fill="#808080" font-family="Verdana" font-size="12" lengthAdjust="spacing" textLength="56.1094" x="504.6113" y="186.9824">0.482 ms</text><line style="stroke:#4362B1;stroke-width:3.0;" x1="411.3125" x2="458.3125" y1="247.7813" y2="247.7813"/><line style="stroke:#4362B1;stroke-width:3.0;" x1="458.3125" x2="458.3125" y1="247.7813" y2="260.7813"/><line style="stroke:#4362B1;stroke-width:3.0;" x1="417.3125" x2="458.3125" y1="260.7813" y2="260.7813"/><polygon fill="#4362B1" points="427.3125,256.7813,417.3125,260.7813,427.3125,264.7813,423.3125,260.7813" style="stroke:#4362B1;stroke-width:1.0;"/><text fill="#FFFFFF" font-family="Verdana" font-size="12" lengthAdjust="spacing" textLength="80.1914" x="428.3125" y="237.9512">parseLogLine</text><text fill="#808080" font-family="Verdana" font-size="12" lengthAdjust="spacing" textLength="56.1094" x="516.1328" y="237.9512">0.332 ms</text><polygon fill="#4362B1" points="656.9121,299.75,666.9121,303.75,656.9121,307.75,660.9121,303.75" style="stroke:#4362B1;stroke-width:1.0;"/><line style="stroke:#4362B1;stroke-width:3.0;" x1="416.3125" x2="662.9121" y1="303.75" y2="303.75"/><text fill="#FFFFFF" font-family="Verdana" font-size="12" lengthAdjust="spacing" textLength="152.2266" x="428.3125" y="293.9199">enricherApplicationName</text><text fill="#808080" font-family="Verdana" font-size="12" lengthAdjust="spacing" textLength="63.7441" x="588.168" y="293.9199">0.0642 ms</text><polygon fill="#4362B1" points="427.3125,337.7188,417.3125,341.7188,427.3125,345.7188,423.3125,341.7188" style="stroke:#4362B1;stroke-width:1.0;"/><line style="stroke:#4362B1;stroke-width:3.0;stroke-dasharray:2.0,2.0;" x1="421.3125" x2="672.9121" y1="341.7188" y2="341.7188"/><text fill="#FFFFFF" font-family="Verdana" font-size="12" lengthAdjust="spacing" textLength="25.3945" x="438.3125" y="331.8887">void</text><line style="stroke:#4362B1;stroke-width:3.0;stroke-dasharray:2.0,2.0;" x1="354.3125" x2="405.3125" y1="384.6875" y2="384.6875"/><line style="stroke:#4362B1;stroke-width:3.0;stroke-dasharray:2.0,2.0;" x1="354.3125" x2="354.3125" y1="384.6875" y2="397.6875"/><line style="stroke:#4362B1;stroke-width:3.0;stroke-dasharray:2.0,2.0;" x1="354.3125" x2="394.3125" y1="397.6875" y2="397.6875"/><polygon fill="#4362B1" points="384.3125,393.6875,394.3125,397.6875,384.3125,401.6875,388.3125,397.6875" style="stroke:#4362B1;stroke-width:1.0;"/><text fill="#FFFFFF" font-family="Verdana" font-size="12" lengthAdjust="spacing" textLength="25.3945" x="358.3125" y="374.8574">void</text><line style="stroke:#4362B1;stroke-width:3.0;stroke-dasharray:2.0,2.0;" x1="354.3125" x2="400.3125" y1="435.6563" y2="435.6563"/><line style="stroke:#4362B1;stroke-width:3.0;stroke-dasharray:2.0,2.0;" x1="354.3125" x2="354.3125" y1="435.6563" y2="448.6563"/><line style="stroke:#4362B1;stroke-width:3.0;stroke-dasharray:2.0,2.0;" x1="354.3125" x2="394.3125" y1="448.6563" y2="448.6563"/><polygon fill="#4362B1" points="384.3125,444.6563,394.3125,448.6563,384.3125,452.6563,388.3125,448.6563" style="stroke:#4362B1;stroke-width:1.0;"/><text fill="#FFFFFF" font-family="Verdana" font-size="12" lengthAdjust="spacing" textLength="25.3945" x="358.3125" y="425.8262">void</text><polygon fill="#4362B1" points="198.1191,484.625,188.1191,488.625,198.1191,492.625,194.1191,488.625" style="stroke:#4362B1;stroke-width:1.0;"/><line style="stroke:#4362B1;stroke-width:3.0;stroke-dasharray:2.0,2.0;" x1="192.1191" x2="400.3125" y1="488.625" y2="488.625"/><text fill="#FFFFFF" font-family="Verdana" font-size="12" lengthAdjust="spacing" textLength="25.3945" x="209.1191" y="478.7949">void</text><polygon fill="#4362B1" points="384.3125,522.5938,394.3125,526.5938,384.3125,530.5938,388.3125,526.5938" style="stroke:#4362B1;stroke-width:1.0;"/><line style="stroke:#4362B1;stroke-width:3.0;" x1="187.1191" x2="390.3125" y1="526.5938" y2="526.5938"/><text fill="#FFFFFF" font-family="Verdana" font-size="12" lengthAdjust="spacing" textLength="124.0898" x="199.1191" y="516.7637">saveLogFilesPosition</text><text fill="#808080" font-family="Verdana" font-size="12" lengthAdjust="spacing" textLength="48.4746" x="330.8379" y="516.7637">2.17 ms</text><polygon fill="#4362B1" points="198.1191,560.5625,188.1191,564.5625,198.1191,568.5625,194.1191,564.5625" style="stroke:#4362B1;stroke-width:1.0;"/><line style="stroke:#4362B1;stroke-width:3.0;stroke-dasharray:2.0,2.0;" x1="192.1191" x2="400.3125" y1="564.5625" y2="564.5625"/><text fill="#FFFFFF" font-family="Verdana" font-size="12" lengthAdjust="spacing" textLength="25.3945" x="209.1191" y="554.7324">void</text><polygon fill="#4362B1" points="384.3125,598.5313,394.3125,602.5313,384.3125,606.5313,388.3125,602.5313" style="stroke:#4362B1;stroke-width:1.0;"/><line style="stroke:#4362B1;stroke-width:3.0;" x1="187.1191" x2="390.3125" y1="602.5313" y2="602.5313"/><text fill="#FFFFFF" font-family="Verdana" font-size="12" lengthAdjust="spacing" textLength="30.9082" x="199.1191" y="592.7012">close</text><text fill="#808080" font-family="Verdana" font-size="12" lengthAdjust="spacing" textLength="63.7441" x="237.6563" y="592.7012">0.0358 ms</text><polygon fill="#4362B1" points="656.9121,636.5,666.9121,640.5,656.9121,644.5,660.9121,640.5" style="stroke:#4362B1;stroke-width:1.0;"/><line style="stroke:#4362B1;stroke-width:3.0;" x1="406.3125" x2="662.9121" y1="640.5" y2="640.5"/><text fill="#FFFFFF" font-family="Verdana" font-size="12" lengthAdjust="spacing" textLength="30.9082" x="418.3125" y="630.6699">close</text><text fill="#808080" font-family="Verdana" font-size="12" lengthAdjust="spacing" textLength="63.7441" x="456.8496" y="630.6699">0.0145 ms</text><polygon fill="#4362B1" points="417.3125,674.4688,407.3125,678.4688,417.3125,682.4688,413.3125,678.4688" style="stroke:#4362B1;stroke-width:1.0;"/><line style="stroke:#4362B1;stroke-width:3.0;stroke-dasharray:2.0,2.0;" x1="411.3125" x2="672.9121" y1="678.4688" y2="678.4688"/><text fill="#FFFFFF" font-family="Verdana" font-size="12" lengthAdjust="spacing" textLength="25.3945" x="428.3125" y="668.6387">void</text><polygon fill="#4362B1" points="198.1191,712.4375,188.1191,716.4375,198.1191,720.4375,194.1191,716.4375" style="stroke:#4362B1;stroke-width:1.0;"/><line style="stroke:#4362B1;stroke-width:3.0;stroke-dasharray:2.0,2.0;" x1="192.1191" x2="400.3125" y1="716.4375" y2="716.4375"/><text fill="#FFFFFF" font-family="Verdana" font-size="12" lengthAdjust="spacing" textLength="25.3945" x="209.1191" y="706.6074">void</text><polygon fill="#4362B1" points="11,750.4063,1,754.4063,11,758.4063,7,754.4063" style="stroke:#4362B1;stroke-width:1.0;"/><line style="stroke:#4362B1;stroke-width:3.0;stroke-dasharray:2.0,2.0;" x1="5" x2="181.1191" y1="754.4063" y2="754.4063"/><text fill="#FFFFFF" font-family="Verdana" font-size="12" lengthAdjust="spacing" textLength="25.3945" x="22" y="744.5762">void</text><!--SRC=[lLJBJiCm4BptAqplIVg44bMLE1G9L05IkVLad6rgoI_iJH5_ZzjoQE8aJIN49KhsCJFUpFg6AoQA30eho0xHk3H9BFsASuwxugDmO9bM20fZfcMI0r9Z93M94LHX8KM4Ev2GICfLSagT8h7noPwX5ZdZnjUID-qmjx3-5CzEgtTmIAWZ_J3SRschQIcNBvNbR2UzuDVjzbXTYlHxX6oYHKYQ4lJFDTs3pt7adchEjD0spItzNf1fV4-acoV7sCAZK8PyJn5gpkMpf2PSfKq9Lvw9YfNEdwJH5ikKWtWwkYkJDj8USuIij3PaJ91BS5MmoMnK1GjrXXejqEpmvaLsH6oNs8NJ_r07dd355LH9n-DQqYwq8N796oc1uoVO1sC4P_JWWXSg0mc3sqc3XZCL9UWM4VCeggZOQvwL6ZAuY1fWLaTQ0Js3R1ZNTOYNy9OgQzYADkHsr2uRvln2UoCzSW6kVh57yV2g9Vll4p2XNUZ0yNHstSrmmVdrBCF9DFHvgnUly7Qhg_zkofkWyNJT_pOtjXwgVW00]--></g></svg>