<svg xmlns="http://www.w3.org/2000/svg" xmlns:xlink="http://www.w3.org/1999/xlink" contentStyleType="text/css" height="334px" preserveAspectRatio="none" style="width:716px;height:334px;background:#000000;" version="1.1" viewBox="0 0 716 334" width="716px" zoomAndPan="magnify"><defs/><g><rect fill="none" height="189.8438" style="stroke:#999999;stroke-width:1.0;" width="10" x="217.4023" y="83.9375"/><rect fill="none" height="113.9063" style="stroke:#999999;stroke-width:1.0;" width="10" x="448.1885" y="121.9063"/><rect fill="none" height="37.9688" style="stroke:#999999;stroke-width:1.0;" width="10" x="650.0439" y="159.875"/><line style="stroke:#999999;stroke-width:0.5;stroke-dasharray:5.0,5.0;" x1="222.0039" x2="222.0039" y1="43.9688" y2="291.7813"/><line style="stroke:#999999;stroke-width:0.5;stroke-dasharray:5.0,5.0;" x1="452.8008" x2="452.8008" y1="43.9688" y2="291.7813"/><line style="stroke:#999999;stroke-width:0.5;stroke-dasharray:5.0,5.0;" x1="654.5762" x2="654.5762" y1="43.9688" y2="291.7813"/><rect fill="#555555" height="37.9688" rx="4" ry="4" style="stroke:#555555;stroke-width:1.0;" width="168.7969" x="138.0039" y="5"/><text fill="#FFFFFF" font-family="Verdana" font-size="12" lengthAdjust="spacing" textLength="144.7969" x="150.0039" y="28.1387">TestCliArgumentParsing</text><rect fill="#555555" height="37.9688" rx="4" ry="4" style="stroke:#555555;stroke-width:1.0;" width="168.7969" x="138.0039" y="290.7813"/><text fill="#FFFFFF" font-family="Verdana" font-size="12" lengthAdjust="spacing" textLength="144.7969" x="150.0039" y="313.9199">TestCliArgumentParsing</text><rect fill="#555555" height="37.9688" rx="4" ry="4" style="stroke:#555555;stroke-width:1.0;" width="112.7754" x="396.8008" y="5"/><text fill="#FFFFFF" font-family="Verdana" font-size="12" lengthAdjust="spacing" textLength="88.7754" x="408.8008" y="28.1387">PostgreSqlJson</text><rect fill="#555555" height="37.9688" rx="4" ry="4" style="stroke:#555555;stroke-width:1.0;" width="112.7754" x="396.8008" y="290.7813"/><text fill="#FFFFFF" font-family="Verdana" font-size="12" lengthAdjust="spacing" textLength="88.7754" x="408.8008" y="313.9199">PostgreSqlJson</text><rect fill="#555555" height="37.9688" rx="4" ry="4" style="stroke:#555555;stroke-width:1.0;" width="110.9355" x="599.5762" y="5"/><text fill="#FFFFFF" font-family="Verdana" font-size="12" lengthAdjust="spacing" textLength="86.9355" x="611.5762" y="28.1387">EnrichmentOff</text><rect fill="#555555" height="37.9688" rx="4" ry="4" style="stroke:#555555;stroke-width:1.0;" width="110.9355" x="599.5762" y="290.7813"/><text fill="#FFFFFF" font-family="Verdana" font-size="12" lengthAdjust="spacing" textLength="86.9355" x="611.5762" y="313.9199">EnrichmentOff</text><rect fill="none" height="189.8438" style="stroke:#999999;stroke-width:1.0;" width="10" x="217.4023" y="83.9375"/><rect fill="none" height="113.9063" style="stroke:#999999;stroke-width:1.0;" width="10" x="448.1885" y="121.9063"/><rect fill="none" height="37.9688" style="stroke:#999999;stroke-width:1.0;" width="10" x="650.0439" y="159.875"/><polygon fill="#4362B1" points="205.4023,79.9375,215.4023,83.9375,205.4023,87.9375,209.4023,83.9375" style="stroke:#4362B1;stroke-width:1.0;"/><line style="stroke:#4362B1;stroke-width:3.0;" x1="0" x2="211.4023" y1="83.9375" y2="83.9375"/><text fill="#FFFFFF" font-family="Verdana" font-size="12" lengthAdjust="spacing" textLength="136.1133" x="12" y="74.1074">testDefaultParameters</text><text fill="#808080" font-family="Verdana" font-size="12" lengthAdjust="spacing" textLength="44.6602" x="155.7422" y="74.1074">135 ms</text><polygon fill="#4362B1" points="436.1885,117.9063,446.1885,121.9063,436.1885,125.9063,440.1885,121.9063" style="stroke:#4362B1;stroke-width:1.0;"/><line style="stroke:#4362B1;stroke-width:3.0;" x1="227.4023" x2="442.1885" y1="121.9063" y2="121.9063"/><text fill="#FFFFFF" font-family="Verdana" font-size="12" lengthAdjust="spacing" textLength="30.9082" x="239.4023" y="112.0762">close</text><text fill="#808080" font-family="Verdana" font-size="12" lengthAdjust="spacing" textLength="48.4746" x="277.9395" y="112.0762">7.49 ms</text><polygon fill="#4362B1" points="638.0439,155.875,648.0439,159.875,638.0439,163.875,642.0439,159.875" style="stroke:#4362B1;stroke-width:1.0;"/><line style="stroke:#4362B1;stroke-width:3.0;" x1="458.1885" x2="644.0439" y1="159.875" y2="159.875"/><text fill="#FFFFFF" font-family="Verdana" font-size="12" lengthAdjust="spacing" textLength="30.9082" x="470.1885" y="150.0449">close</text><text fill="#808080" font-family="Verdana" font-size="12" lengthAdjust="spacing" textLength="63.7441" x="508.7256" y="150.0449">0.0222 ms</text><polygon fill="#4362B1" points="469.1885,193.8438,459.1885,197.8438,469.1885,201.8438,465.1885,197.8438" style="stroke:#4362B1;stroke-width:1.0;"/><line style="stroke:#4362B1;stroke-width:3.0;stroke-dasharray:2.0,2.0;" x1="463.1885" x2="654.0439" y1="197.8438" y2="197.8438"/><text fill="#FFFFFF" font-family="Verdana" font-size="12" lengthAdjust="spacing" textLength="25.3945" x="480.1885" y="188.0137">void</text><polygon fill="#4362B1" points="238.4023,231.8125,228.4023,235.8125,238.4023,239.8125,234.4023,235.8125" style="stroke:#4362B1;stroke-width:1.0;"/><line style="stroke:#4362B1;stroke-width:3.0;stroke-dasharray:2.0,2.0;" x1="232.4023" x2="452.1885" y1="235.8125" y2="235.8125"/><text fill="#FFFFFF" font-family="Verdana" font-size="12" lengthAdjust="spacing" textLength="25.3945" x="249.4023" y="225.9824">void</text><polygon fill="#4362B1" points="11,269.7813,1,273.7813,11,277.7813,7,273.7813" style="stroke:#4362B1;stroke-width:1.0;"/><line style="stroke:#4362B1;stroke-width:3.0;stroke-dasharray:2.0,2.0;" x1="5" x2="221.4023" y1="273.7813" y2="273.7813"/><text fill="#FFFFFF" font-family="Verdana" font-size="12" lengthAdjust="spacing" textLength="25.3945" x="22" y="263.9512">void</text><!--SRC=[VP7BJiCm44Nt_OgX-yGbW11H5Ga16pPKWbrNnfqcblp27XVnzxXfXUAGT7iVvyhZAsc4YZkCNa57v4BDcEVVPIkfYvyne1VM41egXTMiHUBEQUwOKznGrAgW3ZKopQLX9-kab2wP2ySzII5Toi871dfIyj6tKIVUXliWJGiym7BQMcRrZGtKUdp_Kg_1chwMItdynNWfkYFjRR_lqvcoN01iYsPwk0PA-ZFkULH7ZMiaz07MmYhhwzRpdmQkR-v0XpNhjIRXk21vu8Gp3qq9cB6A9dz93KBPWFdUVNdxa0yE9lD-xy58B9hi09CRgt9LLTLuPR2J8IPdraKnsZbOkJj7TtY1D7sRn1iVvmyumFqxm3OLvtxt31ZKfvE_]--></g></svg>