<svg xmlns="http://www.w3.org/2000/svg" xmlns:xlink="http://www.w3.org/1999/xlink" contentStyleType="text/css" data-diagram-type="SEQUENCE" height="355px" preserveAspectRatio="none" style="width:658px;height:355px;background:#FFFFFF;" version="1.1" viewBox="0 0 658 355" width="658px" zoomAndPan="magnify"><defs/><g><g><title>PostgreSqlJsonTest</title><rect fill="#FFFFFF" height="235.0625" style="stroke:#181818;stroke-width:1;" width="10" x="131.7153" y="67.4297"/></g><g><title>PostgreSqlJson</title><rect fill="#FFFFFF" height="176.7969" style="stroke:#181818;stroke-width:1;" width="10" x="308.3682" y="96.5625"/></g><g><title>EnrichmentOff</title><rect fill="#FFFFFF" height="29.1328" style="stroke:#181818;stroke-width:1;" width="10" x="579.6011" y="149.8281"/></g><g><title>EnrichmentOff</title><rect fill="#FFFFFF" height="29.1328" style="stroke:#181818;stroke-width:1;" width="10" x="579.6011" y="215.0938"/></g><rect fill="transparent" height="75.3984" style="stroke:#000000;stroke-width:1.5;" width="407.731" x="244.5825" y="111.5625"/><g><title>PostgreSqlJsonTest</title><rect fill="transparent" height="284.1953" width="8" x="132.7153" y="36.2969"/><line style="stroke:#181818;stroke-width:0.5;stroke-dasharray:5.0,5.0;" x1="135.9556" x2="135.9556" y1="36.2969" y2="320.4922"/></g><g><title>PostgreSqlJson</title><rect fill="transparent" height="284.1953" width="8" x="309.3682" y="36.2969"/><line style="stroke:#181818;stroke-width:0.5;stroke-dasharray:5.0,5.0;" x1="312.5825" x2="312.5825" y1="36.2969" y2="320.4922"/></g><g><title>EnrichmentOff</title><rect fill="transparent" height="284.1953" width="8" x="580.6011" y="36.2969"/><line style="stroke:#181818;stroke-width:0.5;stroke-dasharray:5.0,5.0;" x1="583.8887" x2="583.8887" y1="36.2969" y2="320.4922"/></g><rect fill="#E2E2F0" height="30.2969" rx="2.5" ry="2.5" style="stroke:#181818;stroke-width:0.5;" width="147.5195" x="62.9556" y="5"/><text fill="#000000" font-family="sans-serif" font-size="14" lengthAdjust="spacing" textLength="133.5195" x="69.9556" y="24.9951">PostgreSqlJsonTest</text><rect fill="#E2E2F0" height="30.2969" rx="2.5" ry="2.5" style="stroke:#181818;stroke-width:0.5;" width="147.5195" x="62.9556" y="319.4922"/><text fill="#000000" font-family="sans-serif" font-size="14" lengthAdjust="spacing" textLength="133.5195" x="69.9556" y="339.4873">PostgreSqlJsonTest</text><rect fill="#E2E2F0" height="30.2969" rx="2.5" ry="2.5" style="stroke:#181818;stroke-width:0.5;" width="117.5713" x="254.5825" y="5"/><text fill="#000000" font-family="sans-serif" font-size="14" lengthAdjust="spacing" textLength="103.5713" x="261.5825" y="24.9951">PostgreSqlJson</text><rect fill="#E2E2F0" height="30.2969" rx="2.5" ry="2.5" style="stroke:#181818;stroke-width:0.5;" width="117.5713" x="254.5825" y="319.4922"/><text fill="#000000" font-family="sans-serif" font-size="14" lengthAdjust="spacing" textLength="103.5713" x="261.5825" y="339.4873">PostgreSqlJson</text><rect fill="#E2E2F0" height="30.2969" rx="2.5" ry="2.5" style="stroke:#181818;stroke-width:0.5;" width="115.4248" x="526.8887" y="5"/><text fill="#000000" font-family="sans-serif" font-size="14" lengthAdjust="spacing" textLength="101.4248" x="533.8887" y="24.9951">EnrichmentOff</text><rect fill="#E2E2F0" height="30.2969" rx="2.5" ry="2.5" style="stroke:#181818;stroke-width:0.5;" width="115.4248" x="526.8887" y="319.4922"/><text fill="#000000" font-family="sans-serif" font-size="14" lengthAdjust="spacing" textLength="101.4248" x="533.8887" y="339.4873">EnrichmentOff</text><g><title>PostgreSqlJsonTest</title><rect fill="#FFFFFF" height="235.0625" style="stroke:#181818;stroke-width:1;" width="10" x="131.7153" y="67.4297"/></g><g><title>PostgreSqlJson</title><rect fill="#FFFFFF" height="176.7969" style="stroke:#181818;stroke-width:1;" width="10" x="308.3682" y="96.5625"/></g><g><title>EnrichmentOff</title><rect fill="#FFFFFF" height="29.1328" style="stroke:#181818;stroke-width:1;" width="10" x="579.6011" y="149.8281"/></g><g><title>EnrichmentOff</title><rect fill="#FFFFFF" height="29.1328" style="stroke:#181818;stroke-width:1;" width="10" x="579.6011" y="215.0938"/></g><polygon fill="#181818" points="119.7153,63.4297,129.7153,67.4297,119.7153,71.4297,123.7153,67.4297" style="stroke:#181818;stroke-width:1;"/><line style="stroke:#181818;stroke-width:1;" x1="0" x2="125.7153" y1="67.4297" y2="67.4297"/><text fill="#000000" font-family="sans-serif" font-size="13" lengthAdjust="spacing" textLength="51.9365" x="7" y="62.3638">logFatal</text><text fill="#808080" font-family="sans-serif" font-size="13" lengthAdjust="spacing" textLength="52.5142" x="67.2012" y="62.3638">0.13 ms</text><polygon fill="#181818" points="296.3682,92.5625,306.3682,96.5625,296.3682,100.5625,300.3682,96.5625" style="stroke:#181818;stroke-width:1;"/><line style="stroke:#181818;stroke-width:1;" x1="141.7153" x2="302.3682" y1="96.5625" y2="96.5625"/><text fill="#000000" font-family="sans-serif" font-size="13" lengthAdjust="spacing" textLength="86.874" x="148.7153" y="91.4966">parseLogLine</text><text fill="#808080" font-family="sans-serif" font-size="13" lengthAdjust="spacing" textLength="52.5142" x="243.854" y="91.4966">0.11 ms</text><path d="M244.5825,111.5625 L321.2065,111.5625 L321.2065,118.6953 L311.2065,128.6953 L244.5825,128.6953 L244.5825,111.5625 " fill="#EEEEEE" style="stroke:#000000;stroke-width:1.5;"/><rect fill="transparent" height="75.3984" style="stroke:#000000;stroke-width:1.5;" width="407.731" x="244.5825" y="111.5625"/><text fill="#000000" font-family="sans-serif" font-size="13" font-weight="bold" lengthAdjust="spacing" textLength="31.624" x="259.5825" y="124.6294">loop</text><text fill="#000000" font-family="sans-serif" font-size="11" font-weight="bold" lengthAdjust="spacing" textLength="51.0093" x="336.2065" y="123.7729">[2 times</text><text fill="#808080" font-family="sans-serif" font-size="11" font-weight="bold" lengthAdjust="spacing" textLength="64.2866" x="394.875" y="123.7729">0.0193 ms</text><text fill="#000000" font-family="sans-serif" font-size="11" font-weight="bold" lengthAdjust="spacing" textLength="5.0273" x="459.1616" y="123.7729">]</text><polygon fill="#181818" points="567.6011,145.8281,577.6011,149.8281,567.6011,153.8281,571.6011,149.8281" style="stroke:#181818;stroke-width:1;"/><line style="stroke:#181818;stroke-width:1;" x1="318.3682" x2="573.6011" y1="149.8281" y2="149.8281"/><text fill="#000000" font-family="sans-serif" font-size="13" lengthAdjust="spacing" textLength="164.9121" x="325.3682" y="144.7622">enricherApplicationName</text><text fill="#808080" font-family="sans-serif" font-size="13" lengthAdjust="spacing" textLength="69.0562" x="498.5449" y="144.7622">0.0193 ms</text><polygon fill="#181818" points="329.3682,174.9609,319.3682,178.9609,329.3682,182.9609,325.3682,178.9609" style="stroke:#181818;stroke-width:1;"/><line style="stroke:#181818;stroke-width:1;stroke-dasharray:2.0,2.0;" x1="323.3682" x2="583.6011" y1="178.9609" y2="178.9609"/><text fill="#000000" font-family="sans-serif" font-size="13" lengthAdjust="spacing" textLength="27.5107" x="335.3682" y="173.895">void</text><polygon fill="#181818" points="567.6011,211.0938,577.6011,215.0938,567.6011,219.0938,571.6011,215.0938" style="stroke:#181818;stroke-width:1;"/><line style="stroke:#181818;stroke-width:1;" x1="318.3682" x2="573.6011" y1="215.0938" y2="215.0938"/><text fill="#000000" font-family="sans-serif" font-size="13" lengthAdjust="spacing" textLength="89.7559" x="325.3682" y="210.0278">getStatement</text><text fill="#808080" font-family="sans-serif" font-size="13" lengthAdjust="spacing" textLength="77.3271" x="423.3887" y="210.0278">0.00476 ms</text><polygon fill="#181818" points="329.3682,240.2266,319.3682,244.2266,329.3682,248.2266,325.3682,244.2266" style="stroke:#181818;stroke-width:1;"/><line style="stroke:#181818;stroke-width:1;stroke-dasharray:2.0,2.0;" x1="323.3682" x2="583.6011" y1="244.2266" y2="244.2266"/><text fill="#000000" font-family="sans-serif" font-size="13" lengthAdjust="spacing" textLength="27.5107" x="335.3682" y="239.1606">void</text><polygon fill="#181818" points="152.7153,269.3594,142.7153,273.3594,152.7153,277.3594,148.7153,273.3594" style="stroke:#181818;stroke-width:1;"/><line style="stroke:#181818;stroke-width:1;stroke-dasharray:2.0,2.0;" x1="146.7153" x2="312.3682" y1="273.3594" y2="273.3594"/><text fill="#000000" font-family="sans-serif" font-size="13" lengthAdjust="spacing" textLength="27.5107" x="158.7153" y="268.2935">void</text><polygon fill="#181818" points="11,298.4922,1,302.4922,11,306.4922,7,302.4922" style="stroke:#181818;stroke-width:1;"/><line style="stroke:#181818;stroke-width:1;stroke-dasharray:2.0,2.0;" x1="5" x2="135.7153" y1="302.4922" y2="302.4922"/><text fill="#000000" font-family="sans-serif" font-size="13" lengthAdjust="spacing" textLength="27.5107" x="17" y="297.4263">void</text><!--SRC=[bL9DIyGm4BtlhnXwhxQkA9PIyB0UfAYmtlOKihCna2On6HRyzsQh5jEqTJtcpVkO5yOoHv9BopJ1Y_4a76xVrQCt-XKz0VEGfN2sihEo2KbCtsWd-Lk7cfuFXvuT8TaAO9StQMW5oeW7Han1pOqohXAEVJHGN9Hhw7nzsODDa3DEyiW89mg5AKp0uxmAmiOUMoDQgJ79A-EysSH-1j0QO-4AI7Renrv5URSUkwKxvatqHnLW_qHtRwsId94q-ebrUAxxi6zaEnDUv_ae_MZaVY3lST5jet-eVrGII5iABYSWwL5StzwaHHQ3_r5YiK9wBS5hV2w3sI-hv1PsYV3hhh_5iz8JwnC0]--></g></svg>