<svg xmlns="http://www.w3.org/2000/svg" xmlns:xlink="http://www.w3.org/1999/xlink" contentStyleType="text/css" height="561px" preserveAspectRatio="none" style="width:749px;height:561px;background:#000000;" version="1.1" viewBox="0 0 749 561" width="749px" zoomAndPan="magnify"><defs/><g><rect fill="none" height="416.6563" style="stroke:#999999;stroke-width:1.0;" width="10" x="212.2109" y="83.9375"/><rect fill="none" height="139.9063" style="stroke:#999999;stroke-width:1.0;" width="10" x="439.5635" y="163.8438"/><rect fill="none" height="48.9688" style="stroke:#999999;stroke-width:1.0;" width="10" x="444.5635" y="209.8125"/><rect fill="none" height="113.9063" style="stroke:#999999;stroke-width:1.0;" width="10" x="439.5635" y="348.7188"/><rect fill="none" height="37.9688" style="stroke:#999999;stroke-width:1.0;" width="10" x="682.9463" y="386.6875"/><rect fill="none" height="212.8125" rx="4" ry="4" style="stroke:#4362B1;stroke-width:1.5;" width="606.7002" x="86.2461" y="98.9375"/><line style="stroke:#999999;stroke-width:0.5;stroke-dasharray:5.0,5.0;" x1="216.2461" x2="216.2461" y1="43.9688" y2="518.5938"/><line style="stroke:#999999;stroke-width:0.5;stroke-dasharray:5.0,5.0;" x1="444.1758" x2="444.1758" y1="43.9688" y2="518.5938"/><line style="stroke:#999999;stroke-width:0.5;stroke-dasharray:5.0,5.0;" x1="687.4785" x2="687.4785" y1="43.9688" y2="518.5938"/><rect fill="#555555" height="37.9688" rx="4" ry="4" style="stroke:#555555;stroke-width:1.0;" width="161.9297" x="136.2461" y="5"/><text fill="#FFFFFF" font-family="Verdana" font-size="12" lengthAdjust="spacing" textLength="137.9297" x="148.2461" y="28.1387">ValidateParameterTest</text><rect fill="#555555" height="37.9688" rx="4" ry="4" style="stroke:#555555;stroke-width:1.0;" width="161.9297" x="136.2461" y="517.5938"/><text fill="#FFFFFF" font-family="Verdana" font-size="12" lengthAdjust="spacing" textLength="137.9297" x="148.2461" y="540.7324">ValidateParameterTest</text><rect fill="#555555" height="37.9688" rx="4" ry="4" style="stroke:#555555;stroke-width:1.0;" width="112.7754" x="388.1758" y="5"/><text fill="#FFFFFF" font-family="Verdana" font-size="12" lengthAdjust="spacing" textLength="88.7754" x="400.1758" y="28.1387">PostgreSqlJson</text><rect fill="#555555" height="37.9688" rx="4" ry="4" style="stroke:#555555;stroke-width:1.0;" width="112.7754" x="388.1758" y="517.5938"/><text fill="#FFFFFF" font-family="Verdana" font-size="12" lengthAdjust="spacing" textLength="88.7754" x="400.1758" y="540.7324">PostgreSqlJson</text><rect fill="#555555" height="37.9688" rx="4" ry="4" style="stroke:#555555;stroke-width:1.0;" width="110.9355" x="632.4785" y="5"/><text fill="#FFFFFF" font-family="Verdana" font-size="12" lengthAdjust="spacing" textLength="86.9355" x="644.4785" y="28.1387">EnrichmentOff</text><rect fill="#555555" height="37.9688" rx="4" ry="4" style="stroke:#555555;stroke-width:1.0;" width="110.9355" x="632.4785" y="517.5938"/><text fill="#FFFFFF" font-family="Verdana" font-size="12" lengthAdjust="spacing" textLength="86.9355" x="644.4785" y="540.7324">EnrichmentOff</text><rect fill="none" height="416.6563" style="stroke:#999999;stroke-width:1.0;" width="10" x="212.2109" y="83.9375"/><rect fill="none" height="139.9063" style="stroke:#999999;stroke-width:1.0;" width="10" x="439.5635" y="163.8438"/><rect fill="none" height="48.9688" style="stroke:#999999;stroke-width:1.0;" width="10" x="444.5635" y="209.8125"/><rect fill="none" height="113.9063" style="stroke:#999999;stroke-width:1.0;" width="10" x="439.5635" y="348.7188"/><rect fill="none" height="37.9688" style="stroke:#999999;stroke-width:1.0;" width="10" x="682.9463" y="386.6875"/><polygon fill="#4362B1" points="200.2109,79.9375,210.2109,83.9375,200.2109,87.9375,204.2109,83.9375" style="stroke:#4362B1;stroke-width:1.0;"/><line style="stroke:#4362B1;stroke-width:3.0;" x1="0" x2="206.2109" y1="83.9375" y2="83.9375"/><text fill="#FFFFFF" font-family="Verdana" font-size="12" lengthAdjust="spacing" textLength="119.4727" x="12" y="74.1074">intervalOutOfRange</text><text fill="#808080" font-family="Verdana" font-size="12" lengthAdjust="spacing" textLength="56.1094" x="139.1016" y="74.1074">0.221 ms</text><path d="M90.2461,98.9375 L170.4375,98.9375 L170.4375,114.9063 L160.4375,124.9063 L86.2461,124.9063 L86.2461,102.9375 A4,4 0 0 1 90.2461,98.9375 " fill="#4362B1" style="stroke:#4362B1;stroke-width:1.5;"/><rect fill="none" height="212.8125" rx="4" ry="4" style="stroke:#4362B1;stroke-width:1.5;" width="606.7002" x="86.2461" y="98.9375"/><text fill="#FFFFFF" font-family="Verdana" font-size="12" font-weight="bold" lengthAdjust="spacing" textLength="29.1914" x="106.2461" y="116.0762">loop</text><text fill="#4362B1" font-family="Verdana" font-size="12" font-weight="bold" lengthAdjust="spacing" textLength="55.6465" x="190.4375" y="117.0762">[2 times</text><text fill="#808080" font-family="Verdana" font-size="12" font-weight="bold" lengthAdjust="spacing" textLength="53.4316" x="254.4395" y="117.0762">0.12 ms</text><text fill="#4362B1" font-family="Verdana" font-size="12" font-weight="bold" lengthAdjust="spacing" textLength="5.4844" x="307.8711" y="117.0762">]</text><polygon fill="#4362B1" points="427.5635,159.8438,437.5635,163.8438,427.5635,167.8438,431.5635,163.8438" style="stroke:#4362B1;stroke-width:1.0;"/><line style="stroke:#4362B1;stroke-width:3.0;" x1="222.2109" x2="433.5635" y1="163.8438" y2="163.8438"/><text fill="#FFFFFF" font-family="Verdana" font-size="12" lengthAdjust="spacing" textLength="20.6191" x="234.2109" y="154.0137">call</text><text fill="#808080" font-family="Verdana" font-size="12" lengthAdjust="spacing" textLength="48.4746" x="262.459" y="154.0137">0.12 ms</text><line style="stroke:#4362B1;stroke-width:3.0;" x1="449.5635" x2="496.5635" y1="196.8125" y2="196.8125"/><line style="stroke:#4362B1;stroke-width:3.0;" x1="496.5635" x2="496.5635" y1="196.8125" y2="209.8125"/><line style="stroke:#4362B1;stroke-width:3.0;" x1="455.5635" x2="496.5635" y1="209.8125" y2="209.8125"/><polygon fill="#4362B1" points="465.5635,205.8125,455.5635,209.8125,465.5635,213.8125,461.5635,209.8125" style="stroke:#4362B1;stroke-width:1.0;"/><text fill="#FFFFFF" font-family="Verdana" font-size="12" lengthAdjust="spacing" textLength="128.0098" x="466.5635" y="186.9824">watchPostgreSqlLogs</text><text fill="#808080" font-family="Verdana" font-size="12" lengthAdjust="spacing" textLength="63.7441" x="602.2021" y="186.9824">0.0585 ms</text><line style="stroke:#4362B1;stroke-width:3.0;stroke-dasharray:2.0,2.0;" x1="397.5635" x2="443.5635" y1="257.7813" y2="257.7813"/><line style="stroke:#4362B1;stroke-width:3.0;stroke-dasharray:2.0,2.0;" x1="397.5635" x2="397.5635" y1="257.7813" y2="270.7813"/><line style="stroke:#4362B1;stroke-width:3.0;stroke-dasharray:2.0,2.0;" x1="397.5635" x2="437.5635" y1="270.7813" y2="270.7813"/><polygon fill="#4362B1" points="427.5635,266.7813,437.5635,270.7813,427.5635,274.7813,431.5635,270.7813" style="stroke:#4362B1;stroke-width:1.0;"/><text fill="#FFFFFF" font-family="Verdana" font-size="12" lengthAdjust="spacing" textLength="101.8477" x="325.7158" y="247.9512">java.lang.Integer</text><polygon fill="#4362B1" points="233.2109,299.75,223.2109,303.75,233.2109,307.75,229.2109,303.75" style="stroke:#4362B1;stroke-width:1.0;"/><line style="stroke:#4362B1;stroke-width:3.0;stroke-dasharray:2.0,2.0;" x1="227.2109" x2="443.5635" y1="303.75" y2="303.75"/><text fill="#FFFFFF" font-family="Verdana" font-size="12" lengthAdjust="spacing" textLength="101.8477" x="244.2109" y="293.9199">java.lang.Integer</text><polygon fill="#4362B1" points="427.5635,344.7188,437.5635,348.7188,427.5635,352.7188,431.5635,348.7188" style="stroke:#4362B1;stroke-width:1.0;"/><line style="stroke:#4362B1;stroke-width:3.0;" x1="222.2109" x2="433.5635" y1="348.7188" y2="348.7188"/><text fill="#FFFFFF" font-family="Verdana" font-size="12" lengthAdjust="spacing" textLength="30.9082" x="234.2109" y="338.8887">close</text><text fill="#808080" font-family="Verdana" font-size="12" lengthAdjust="spacing" textLength="63.7441" x="272.748" y="338.8887">0.0356 ms</text><polygon fill="#4362B1" points="670.9463,382.6875,680.9463,386.6875,670.9463,390.6875,674.9463,386.6875" style="stroke:#4362B1;stroke-width:1.0;"/><line style="stroke:#4362B1;stroke-width:3.0;" x1="449.5635" x2="676.9463" y1="386.6875" y2="386.6875"/><text fill="#FFFFFF" font-family="Verdana" font-size="12" lengthAdjust="spacing" textLength="30.9082" x="461.5635" y="376.8574">close</text><text fill="#808080" font-family="Verdana" font-size="12" lengthAdjust="spacing" textLength="63.7441" x="500.1006" y="376.8574">0.0116 ms</text><polygon fill="#4362B1" points="460.5635,420.6563,450.5635,424.6563,460.5635,428.6563,456.5635,424.6563" style="stroke:#4362B1;stroke-width:1.0;"/><line style="stroke:#4362B1;stroke-width:3.0;stroke-dasharray:2.0,2.0;" x1="454.5635" x2="686.9463" y1="424.6563" y2="424.6563"/><text fill="#FFFFFF" font-family="Verdana" font-size="12" lengthAdjust="spacing" textLength="25.3945" x="471.5635" y="414.8262">void</text><polygon fill="#4362B1" points="233.2109,458.625,223.2109,462.625,233.2109,466.625,229.2109,462.625" style="stroke:#4362B1;stroke-width:1.0;"/><line style="stroke:#4362B1;stroke-width:3.0;stroke-dasharray:2.0,2.0;" x1="227.2109" x2="443.5635" y1="462.625" y2="462.625"/><text fill="#FFFFFF" font-family="Verdana" font-size="12" lengthAdjust="spacing" textLength="25.3945" x="244.2109" y="452.7949">void</text><polygon fill="#4362B1" points="11,496.5938,1,500.5938,11,504.5938,7,500.5938" style="stroke:#4362B1;stroke-width:1.0;"/><line style="stroke:#4362B1;stroke-width:3.0;stroke-dasharray:2.0,2.0;" x1="5" x2="216.2109" y1="500.5938" y2="500.5938"/><text fill="#FFFFFF" font-family="Verdana" font-size="12" lengthAdjust="spacing" textLength="25.3945" x="22" y="490.7637">void</text><!--SRC=[bLFBJi905Dtp5LVsRMaDn3IaEnOQ4eWQDwwkqw4TCozdfYN-lICGTDhIG9VddiVSH- -O9BmfQMCurCvfcoU9mNrSCLSt7usbXYZfg7GnKIAfg4Ej1Uf4SvIk4JnoDHKq4SXaSYmTaLZxuaIZSOmmxRdmXfoLwEWM3Ghgg7cbrW5Qc0vMfe5ugwoh37tvuazMoOCgX4BwIXf6Qk6VlTdj3km0cKu0tgDYC3S7vlirBV9DuxdFA2iAIwAuCdbbyBk0MPnbAGYxJ0veuSsGEDPwf-4cFG5WhPI631mJr7RzqYoq-_q6dQ8Yx3e7WfnVOtT-OMXmga87xkViqP7w3rohgjV5RFumxmVV6hsCecxs9xOO-tkhuaU_cegQixIau-Q3GxmXOTn_9Sl9BQlYolPEQNO_NtI7DjvJTrF1PLzAITF5o4q45fCBM-daj8gL_IdrdQvTmTblRERlNdZXhptf_wa7YJy0]--></g></svg>