<svg xmlns="http://www.w3.org/2000/svg" xmlns:xlink="http://www.w3.org/1999/xlink" contentStyleType="text/css" height="693px" preserveAspectRatio="none" style="width:881px;height:693px;background:#FFFFFF;" version="1.1" viewBox="0 0 881 693" width="881px" zoomAndPan="magnify"><defs/><g><rect fill="#FFFFFF" height="573.2578" style="stroke:#181818;stroke-width:1.0;" width="10" x="194.0938" y="67.4297"/><rect fill="#FFFFFF" height="514.9922" style="stroke:#181818;stroke-width:1.0;" width="10" x="430.8208" y="96.5625"/><rect fill="#FFFFFF" height="40.1328" style="stroke:#181818;stroke-width:1.0;" width="10" x="435.8208" y="133.6953"/><rect fill="#FFFFFF" height="182.6641" style="stroke:#181818;stroke-width:1.0;" width="10" x="435.8208" y="392.7578"/><rect fill="#FFFFFF" height="98.3984" style="stroke:#181818;stroke-width:1.0;" width="10" x="440.8208" y="434.8906"/><rect fill="#FFFFFF" height="29.1328" style="stroke:#181818;stroke-width:1.0;" width="10" x="666.1069" y="209.9609"/><rect fill="#FFFFFF" height="29.1328" style="stroke:#181818;stroke-width:1.0;" width="10" x="666.1069" y="268.2266"/><rect fill="#FFFFFF" height="29.1328" style="stroke:#181818;stroke-width:1.0;" width="10" x="666.1069" y="326.4922"/><rect fill="#FFFFFF" height="29.1328" style="stroke:#181818;stroke-width:1.0;" width="10" x="812.812" y="469.0234"/><line style="stroke:#181818;stroke-width:0.5;stroke-dasharray:5.0,5.0;" x1="199.0083" x2="199.0083" y1="36.2969" y2="658.6875"/><line style="stroke:#181818;stroke-width:0.5;stroke-dasharray:5.0,5.0;" x1="435.0352" x2="435.0352" y1="36.2969" y2="658.6875"/><line style="stroke:#181818;stroke-width:0.5;stroke-dasharray:5.0,5.0;" x1="670.1143" x2="670.1143" y1="36.2969" y2="658.6875"/><line style="stroke:#181818;stroke-width:0.5;stroke-dasharray:5.0,5.0;" x1="817.0996" x2="817.0996" y1="36.2969" y2="658.6875"/><rect fill="#E2E2F0" height="30.2969" rx="2.5" ry="2.5" style="stroke:#181818;stroke-width:0.5;" width="140.1709" x="129.0083" y="5"/><text fill="#000000" font-family="sans-serif" font-size="14" lengthAdjust="spacing" textLength="126.1709" x="136.0083" y="24.9951">WatchServiceTest</text><rect fill="#E2E2F0" height="30.2969" rx="2.5" ry="2.5" style="stroke:#181818;stroke-width:0.5;" width="140.1709" x="129.0083" y="657.6875"/><text fill="#000000" font-family="sans-serif" font-size="14" lengthAdjust="spacing" textLength="126.1709" x="136.0083" y="677.6826">WatchServiceTest</text><rect fill="#E2E2F0" height="30.2969" rx="2.5" ry="2.5" style="stroke:#181818;stroke-width:0.5;" width="117.5713" x="377.0352" y="5"/><text fill="#000000" font-family="sans-serif" font-size="14" lengthAdjust="spacing" textLength="103.5713" x="384.0352" y="24.9951">PostgreSqlJson</text><rect fill="#E2E2F0" height="30.2969" rx="2.5" ry="2.5" style="stroke:#181818;stroke-width:0.5;" width="117.5713" x="377.0352" y="657.6875"/><text fill="#000000" font-family="sans-serif" font-size="14" lengthAdjust="spacing" textLength="103.5713" x="384.0352" y="677.6826">PostgreSqlJson</text><rect fill="#E2E2F0" height="30.2969" rx="2.5" ry="2.5" style="stroke:#181818;stroke-width:0.5;" width="157.9854" x="592.1143" y="5"/><text fill="#000000" font-family="sans-serif" font-size="14" lengthAdjust="spacing" textLength="143.9854" x="599.1143" y="24.9951">WatchServiceTest$1</text><rect fill="#E2E2F0" height="30.2969" rx="2.5" ry="2.5" style="stroke:#181818;stroke-width:0.5;" width="157.9854" x="592.1143" y="657.6875"/><text fill="#000000" font-family="sans-serif" font-size="14" lengthAdjust="spacing" textLength="143.9854" x="599.1143" y="677.6826">WatchServiceTest$1</text><rect fill="#E2E2F0" height="30.2969" rx="2.5" ry="2.5" style="stroke:#181818;stroke-width:0.5;" width="115.4248" x="760.0996" y="5"/><text fill="#000000" font-family="sans-serif" font-size="14" lengthAdjust="spacing" textLength="101.4248" x="767.0996" y="24.9951">EnrichmentOff</text><rect fill="#E2E2F0" height="30.2969" rx="2.5" ry="2.5" style="stroke:#181818;stroke-width:0.5;" width="115.4248" x="760.0996" y="657.6875"/><text fill="#000000" font-family="sans-serif" font-size="14" lengthAdjust="spacing" textLength="101.4248" x="767.0996" y="677.6826">EnrichmentOff</text><rect fill="#FFFFFF" height="573.2578" style="stroke:#181818;stroke-width:1.0;" width="10" x="194.0938" y="67.4297"/><rect fill="#FFFFFF" height="514.9922" style="stroke:#181818;stroke-width:1.0;" width="10" x="430.8208" y="96.5625"/><rect fill="#FFFFFF" height="40.1328" style="stroke:#181818;stroke-width:1.0;" width="10" x="435.8208" y="133.6953"/><rect fill="#FFFFFF" height="182.6641" style="stroke:#181818;stroke-width:1.0;" width="10" x="435.8208" y="392.7578"/><rect fill="#FFFFFF" height="98.3984" style="stroke:#181818;stroke-width:1.0;" width="10" x="440.8208" y="434.8906"/><rect fill="#FFFFFF" height="29.1328" style="stroke:#181818;stroke-width:1.0;" width="10" x="666.1069" y="209.9609"/><rect fill="#FFFFFF" height="29.1328" style="stroke:#181818;stroke-width:1.0;" width="10" x="666.1069" y="268.2266"/><rect fill="#FFFFFF" height="29.1328" style="stroke:#181818;stroke-width:1.0;" width="10" x="666.1069" y="326.4922"/><rect fill="#FFFFFF" height="29.1328" style="stroke:#181818;stroke-width:1.0;" width="10" x="812.812" y="469.0234"/><polygon fill="#181818" points="182.0938,63.4297,192.0938,67.4297,182.0938,71.4297,186.0938,67.4297" style="stroke:#181818;stroke-width:1.0;"/><line style="stroke:#181818;stroke-width:1.0;" x1="0" x2="188.0938" y1="67.4297" y2="67.4297"/><text fill="#000000" font-family="sans-serif" font-size="13" lengthAdjust="spacing" textLength="114.3149" x="7" y="62.3638">testWatchService</text><text fill="#808080" font-family="sans-serif" font-size="13" lengthAdjust="spacing" textLength="52.5142" x="129.5796" y="62.3638">1.07 ms</text><polygon fill="#181818" points="418.8208,92.5625,428.8208,96.5625,418.8208,100.5625,422.8208,96.5625" style="stroke:#181818;stroke-width:1.0;"/><line style="stroke:#181818;stroke-width:1.0;" x1="204.0938" x2="424.8208" y1="96.5625" y2="96.5625"/><text fill="#000000" font-family="sans-serif" font-size="13" lengthAdjust="spacing" textLength="138.6772" x="211.0938" y="91.4966">watchPostgreSqlLogs</text><text fill="#808080" font-family="sans-serif" font-size="13" lengthAdjust="spacing" textLength="60.7852" x="358.0356" y="91.4966">0.694 ms</text><line style="stroke:#181818;stroke-width:1.0;" x1="440.8208" x2="487.8208" y1="120.6953" y2="120.6953"/><line style="stroke:#181818;stroke-width:1.0;" x1="487.8208" x2="487.8208" y1="120.6953" y2="133.6953"/><line style="stroke:#181818;stroke-width:1.0;" x1="446.8208" x2="487.8208" y1="133.6953" y2="133.6953"/><polygon fill="#181818" points="456.8208,129.6953,446.8208,133.6953,456.8208,137.6953,452.8208,133.6953" style="stroke:#181818;stroke-width:1.0;"/><text fill="#000000" font-family="sans-serif" font-size="13" lengthAdjust="spacing" textLength="98.1475" x="452.8208" y="115.6294">initLogEnricher</text><text fill="#808080" font-family="sans-serif" font-size="13" lengthAdjust="spacing" textLength="69.0562" x="559.2329" y="115.6294">0.0251 ms</text><line style="stroke:#181818;stroke-width:1.0;stroke-dasharray:2.0,2.0;" x1="388.8208" x2="434.8208" y1="172.8281" y2="172.8281"/><line style="stroke:#181818;stroke-width:1.0;stroke-dasharray:2.0,2.0;" x1="388.8208" x2="388.8208" y1="172.8281" y2="185.8281"/><line style="stroke:#181818;stroke-width:1.0;stroke-dasharray:2.0,2.0;" x1="388.8208" x2="428.8208" y1="185.8281" y2="185.8281"/><polygon fill="#181818" points="418.8208,181.8281,428.8208,185.8281,418.8208,189.8281,422.8208,185.8281" style="stroke:#181818;stroke-width:1.0;"/><text fill="#000000" font-family="sans-serif" font-size="13" lengthAdjust="spacing" textLength="27.5107" x="387.8208" y="167.7622">void</text><polygon fill="#181818" points="654.1069,205.9609,664.1069,209.9609,654.1069,213.9609,658.1069,209.9609" style="stroke:#181818;stroke-width:1.0;"/><line style="stroke:#181818;stroke-width:1.0;" x1="440.8208" x2="660.1069" y1="209.9609" y2="209.9609"/><text fill="#000000" font-family="sans-serif" font-size="13" lengthAdjust="spacing" textLength="111.1729" x="447.8208" y="204.895">positionFileTasks</text><text fill="#808080" font-family="sans-serif" font-size="13" lengthAdjust="spacing" textLength="69.0562" x="567.2583" y="204.895">0.0129 ms</text><polygon fill="#181818" points="451.8208,235.0938,441.8208,239.0938,451.8208,243.0938,447.8208,239.0938" style="stroke:#181818;stroke-width:1.0;"/><line style="stroke:#181818;stroke-width:1.0;stroke-dasharray:2.0,2.0;" x1="445.8208" x2="670.1069" y1="239.0938" y2="239.0938"/><text fill="#000000" font-family="sans-serif" font-size="13" lengthAdjust="spacing" textLength="109.313" x="457.8208" y="234.0278">java.lang.Thread</text><polygon fill="#181818" points="654.1069,264.2266,664.1069,268.2266,654.1069,272.2266,658.1069,268.2266" style="stroke:#181818;stroke-width:1.0;"/><line style="stroke:#181818;stroke-width:1.0;" x1="440.8208" x2="660.1069" y1="268.2266" y2="268.2266"/><text fill="#000000" font-family="sans-serif" font-size="13" lengthAdjust="spacing" textLength="102.3433" x="447.8208" y="263.1606">initialLogImport</text><text fill="#808080" font-family="sans-serif" font-size="13" lengthAdjust="spacing" textLength="69.0562" x="558.4287" y="263.1606">0.0196 ms</text><polygon fill="#181818" points="451.8208,293.3594,441.8208,297.3594,451.8208,301.3594,447.8208,297.3594" style="stroke:#181818;stroke-width:1.0;"/><line style="stroke:#181818;stroke-width:1.0;stroke-dasharray:2.0,2.0;" x1="445.8208" x2="670.1069" y1="297.3594" y2="297.3594"/><text fill="#000000" font-family="sans-serif" font-size="13" lengthAdjust="spacing" textLength="27.5107" x="457.8208" y="292.2935">void</text><polygon fill="#181818" points="654.1069,322.4922,664.1069,326.4922,654.1069,330.4922,658.1069,326.4922" style="stroke:#181818;stroke-width:1.0;"/><line style="stroke:#181818;stroke-width:1.0;" x1="440.8208" x2="660.1069" y1="326.4922" y2="326.4922"/><text fill="#000000" font-family="sans-serif" font-size="13" lengthAdjust="spacing" textLength="128.9653" x="447.8208" y="321.4263">registerWatchEvent</text><text fill="#808080" font-family="sans-serif" font-size="13" lengthAdjust="spacing" textLength="69.0562" x="585.0508" y="321.4263">0.0108 ms</text><polygon fill="#181818" points="451.8208,351.625,441.8208,355.625,451.8208,359.625,447.8208,355.625" style="stroke:#181818;stroke-width:1.0;"/><line style="stroke:#181818;stroke-width:1.0;stroke-dasharray:2.0,2.0;" x1="445.8208" x2="670.1069" y1="355.625" y2="355.625"/><text fill="#000000" font-family="sans-serif" font-size="13" lengthAdjust="spacing" textLength="27.5107" x="457.8208" y="350.5591">void</text><line style="stroke:#181818;stroke-width:1.0;" x1="440.8208" x2="487.8208" y1="379.7578" y2="379.7578"/><line style="stroke:#181818;stroke-width:1.0;" x1="487.8208" x2="487.8208" y1="379.7578" y2="392.7578"/><line style="stroke:#181818;stroke-width:1.0;" x1="446.8208" x2="487.8208" y1="392.7578" y2="392.7578"/><polygon fill="#181818" points="456.8208,388.7578,446.8208,392.7578,456.8208,396.7578,452.8208,392.7578" style="stroke:#181818;stroke-width:1.0;"/><text fill="#000000" font-family="sans-serif" font-size="13" lengthAdjust="spacing" textLength="79.8091" x="452.8208" y="374.6919">readJsonLog</text><text fill="#808080" font-family="sans-serif" font-size="13" lengthAdjust="spacing" textLength="60.7852" x="540.8945" y="374.6919">0.266 ms</text><line style="stroke:#181818;stroke-width:1.0;" x1="445.8208" x2="492.8208" y1="421.8906" y2="421.8906"/><line style="stroke:#181818;stroke-width:1.0;" x1="492.8208" x2="492.8208" y1="421.8906" y2="434.8906"/><line style="stroke:#181818;stroke-width:1.0;" x1="451.8208" x2="492.8208" y1="434.8906" y2="434.8906"/><polygon fill="#181818" points="461.8208,430.8906,451.8208,434.8906,461.8208,438.8906,457.8208,434.8906" style="stroke:#181818;stroke-width:1.0;"/><text fill="#000000" font-family="sans-serif" font-size="13" lengthAdjust="spacing" textLength="86.874" x="457.8208" y="416.8247">parseLogLine</text><text fill="#808080" font-family="sans-serif" font-size="13" lengthAdjust="spacing" textLength="60.7852" x="552.9595" y="416.8247">0.157 ms</text><polygon fill="#181818" points="800.812,465.0234,810.812,469.0234,800.812,473.0234,804.812,469.0234" style="stroke:#181818;stroke-width:1.0;"/><line style="stroke:#181818;stroke-width:1.0;" x1="450.8208" x2="806.812" y1="469.0234" y2="469.0234"/><text fill="#000000" font-family="sans-serif" font-size="13" lengthAdjust="spacing" textLength="164.9121" x="457.8208" y="463.9575">enricherApplicationName</text><text fill="#808080" font-family="sans-serif" font-size="13" lengthAdjust="spacing" textLength="69.0562" x="630.9976" y="463.9575">0.0397 ms</text><polygon fill="#181818" points="461.8208,494.1563,451.8208,498.1563,461.8208,502.1563,457.8208,498.1563" style="stroke:#181818;stroke-width:1.0;"/><line style="stroke:#181818;stroke-width:1.0;stroke-dasharray:2.0,2.0;" x1="455.8208" x2="816.812" y1="498.1563" y2="498.1563"/><text fill="#000000" font-family="sans-serif" font-size="13" lengthAdjust="spacing" textLength="27.5107" x="467.8208" y="493.0903">void</text><line style="stroke:#181818;stroke-width:1.0;stroke-dasharray:2.0,2.0;" x1="388.8208" x2="439.8208" y1="532.2891" y2="532.2891"/><line style="stroke:#181818;stroke-width:1.0;stroke-dasharray:2.0,2.0;" x1="388.8208" x2="388.8208" y1="532.2891" y2="545.2891"/><line style="stroke:#181818;stroke-width:1.0;stroke-dasharray:2.0,2.0;" x1="388.8208" x2="428.8208" y1="545.2891" y2="545.2891"/><polygon fill="#181818" points="418.8208,541.2891,428.8208,545.2891,418.8208,549.2891,422.8208,545.2891" style="stroke:#181818;stroke-width:1.0;"/><text fill="#000000" font-family="sans-serif" font-size="13" lengthAdjust="spacing" textLength="27.5107" x="387.8208" y="527.2231">void</text><line style="stroke:#181818;stroke-width:1.0;stroke-dasharray:2.0,2.0;" x1="388.8208" x2="434.8208" y1="574.4219" y2="574.4219"/><line style="stroke:#181818;stroke-width:1.0;stroke-dasharray:2.0,2.0;" x1="388.8208" x2="388.8208" y1="574.4219" y2="587.4219"/><line style="stroke:#181818;stroke-width:1.0;stroke-dasharray:2.0,2.0;" x1="388.8208" x2="428.8208" y1="587.4219" y2="587.4219"/><polygon fill="#181818" points="418.8208,583.4219,428.8208,587.4219,418.8208,591.4219,422.8208,587.4219" style="stroke:#181818;stroke-width:1.0;"/><text fill="#000000" font-family="sans-serif" font-size="13" lengthAdjust="spacing" textLength="27.5107" x="387.8208" y="569.356">void</text><polygon fill="#181818" points="215.0938,607.5547,205.0938,611.5547,215.0938,615.5547,211.0938,611.5547" style="stroke:#181818;stroke-width:1.0;"/><line style="stroke:#181818;stroke-width:1.0;stroke-dasharray:2.0,2.0;" x1="209.0938" x2="434.8208" y1="611.5547" y2="611.5547"/><text fill="#000000" font-family="sans-serif" font-size="13" lengthAdjust="spacing" textLength="110.335" x="221.0938" y="606.4888">java.lang.Integer</text><polygon fill="#181818" points="11,636.6875,1,640.6875,11,644.6875,7,640.6875" style="stroke:#181818;stroke-width:1.0;"/><line style="stroke:#181818;stroke-width:1.0;stroke-dasharray:2.0,2.0;" x1="5" x2="198.0938" y1="640.6875" y2="640.6875"/><text fill="#000000" font-family="sans-serif" font-size="13" lengthAdjust="spacing" textLength="27.5107" x="17" y="635.6216">void</text><!--SRC=[pPHTIyCm58Rlzol2yBQrdMwpPHIyc30PAcpWnIuaT6TTj4rg4Yh-UzCwNFEnpJ84RqevITxdl3adfyHSafIKc4hqZ6MwNG2lI0fB419XWVfciDyhMqUUc90PXyLxVYyORGxe8NsxAVOIEXaNeNviIZb9jmLG-RZPD2UqIB-7qCfBJ9KOIVLjHz4aPJdZSSRnPu92FnYZGamkcs2YH70gIOKbM7cgDMG5lKIt6gEFUiS-E6UPq961FugkTMQBgiirQyW8san2YLIWxmi1RlA2mJ0qWTsG4yypcHKZwztUDNHBt-w069LC44aOlICvBB5uiouj20VH4HEsvY4ZBlehhh2VOvhvooq7x33sItstkRe-1DUzC2jAngNjBHhzcJTteSxomo4ZGW9lrgQLUe6se-3clpeoExakUFsdocFQ68n6NH_EQPwQQW8KR4uecC1mEBQ1fv4sL1kECOBTQBWjovoak7vf3xYmyC5LvEItCj243oQWAcTaq2gQKJYtOfS1r7K4dJFEp3PpQEsdoOnAo83tJick79t-azEH7ly2]--></g></svg>