<svg xmlns="http://www.w3.org/2000/svg" xmlns:xlink="http://www.w3.org/1999/xlink" contentStyleType="text/css" height="410px" preserveAspectRatio="none" style="width:673px;height:410px;background:#000000;" version="1.1" viewBox="0 0 673 410" width="673px" zoomAndPan="magnify"><defs/><g><rect fill="none" height="265.7813" style="stroke:#999999;stroke-width:1.0;" width="10" x="128.9199" y="83.9375"/><rect fill="none" height="189.8438" style="stroke:#999999;stroke-width:1.0;" width="10" x="344.5303" y="121.9063"/><rect fill="none" height="37.9688" style="stroke:#999999;stroke-width:1.0;" width="10" x="607.1299" y="159.875"/><rect fill="none" height="37.9688" style="stroke:#999999;stroke-width:1.0;" width="10" x="607.1299" y="235.8125"/><line style="stroke:#999999;stroke-width:0.5;stroke-dasharray:5.0,5.0;" x1="133.6973" x2="133.6973" y1="43.9688" y2="367.7188"/><line style="stroke:#999999;stroke-width:0.5;stroke-dasharray:5.0,5.0;" x1="349.1426" x2="349.1426" y1="43.9688" y2="367.7188"/><line style="stroke:#999999;stroke-width:0.5;stroke-dasharray:5.0,5.0;" x1="611.6621" x2="611.6621" y1="43.9688" y2="367.7188"/><rect fill="#555555" height="37.9688" rx="4" ry="4" style="stroke:#555555;stroke-width:1.0;" width="138.4453" x="64.6973" y="5"/><text fill="#FFFFFF" font-family="Verdana" font-size="12" lengthAdjust="spacing" textLength="114.4453" x="76.6973" y="28.1387">PostgreSqlJsonTest</text><rect fill="#555555" height="37.9688" rx="4" ry="4" style="stroke:#555555;stroke-width:1.0;" width="138.4453" x="64.6973" y="366.7188"/><text fill="#FFFFFF" font-family="Verdana" font-size="12" lengthAdjust="spacing" textLength="114.4453" x="76.6973" y="389.8574">PostgreSqlJsonTest</text><rect fill="#555555" height="37.9688" rx="4" ry="4" style="stroke:#555555;stroke-width:1.0;" width="112.7754" x="293.1426" y="5"/><text fill="#FFFFFF" font-family="Verdana" font-size="12" lengthAdjust="spacing" textLength="88.7754" x="305.1426" y="28.1387">PostgreSqlJson</text><rect fill="#555555" height="37.9688" rx="4" ry="4" style="stroke:#555555;stroke-width:1.0;" width="112.7754" x="293.1426" y="366.7188"/><text fill="#FFFFFF" font-family="Verdana" font-size="12" lengthAdjust="spacing" textLength="88.7754" x="305.1426" y="389.8574">PostgreSqlJson</text><rect fill="#555555" height="37.9688" rx="4" ry="4" style="stroke:#555555;stroke-width:1.0;" width="110.9355" x="556.6621" y="5"/><text fill="#FFFFFF" font-family="Verdana" font-size="12" lengthAdjust="spacing" textLength="86.9355" x="568.6621" y="28.1387">EnrichmentOff</text><rect fill="#555555" height="37.9688" rx="4" ry="4" style="stroke:#555555;stroke-width:1.0;" width="110.9355" x="556.6621" y="366.7188"/><text fill="#FFFFFF" font-family="Verdana" font-size="12" lengthAdjust="spacing" textLength="86.9355" x="568.6621" y="389.8574">EnrichmentOff</text><rect fill="none" height="265.7813" style="stroke:#999999;stroke-width:1.0;" width="10" x="128.9199" y="83.9375"/><rect fill="none" height="189.8438" style="stroke:#999999;stroke-width:1.0;" width="10" x="344.5303" y="121.9063"/><rect fill="none" height="37.9688" style="stroke:#999999;stroke-width:1.0;" width="10" x="607.1299" y="159.875"/><rect fill="none" height="37.9688" style="stroke:#999999;stroke-width:1.0;" width="10" x="607.1299" y="235.8125"/><polygon fill="#4362B1" points="116.9199,79.9375,126.9199,83.9375,116.9199,87.9375,120.9199,83.9375" style="stroke:#4362B1;stroke-width:1.0;"/><line style="stroke:#4362B1;stroke-width:3.0;" x1="0" x2="122.9199" y1="83.9375" y2="83.9375"/><text fill="#FFFFFF" font-family="Verdana" font-size="12" lengthAdjust="spacing" textLength="51.4512" x="12" y="74.1074">logParse</text><text fill="#808080" font-family="Verdana" font-size="12" lengthAdjust="spacing" textLength="40.8398" x="71.0801" y="74.1074">0.1 ms</text><polygon fill="#4362B1" points="332.5303,117.9063,342.5303,121.9063,332.5303,125.9063,336.5303,121.9063" style="stroke:#4362B1;stroke-width:1.0;"/><line style="stroke:#4362B1;stroke-width:3.0;" x1="138.9199" x2="338.5303" y1="121.9063" y2="121.9063"/><text fill="#FFFFFF" font-family="Verdana" font-size="12" lengthAdjust="spacing" textLength="80.1914" x="150.9199" y="112.0762">parseLogLine</text><text fill="#808080" font-family="Verdana" font-size="12" lengthAdjust="spacing" textLength="63.7441" x="238.7402" y="112.0762">0.0853 ms</text><polygon fill="#4362B1" points="595.1299,155.875,605.1299,159.875,595.1299,163.875,599.1299,159.875" style="stroke:#4362B1;stroke-width:1.0;"/><line style="stroke:#4362B1;stroke-width:3.0;" x1="354.5303" x2="601.1299" y1="159.875" y2="159.875"/><text fill="#FFFFFF" font-family="Verdana" font-size="12" lengthAdjust="spacing" textLength="152.2266" x="366.5303" y="150.0449">enricherApplicationName</text><text fill="#808080" font-family="Verdana" font-size="12" lengthAdjust="spacing" textLength="63.7441" x="526.3857" y="150.0449">0.0113 ms</text><polygon fill="#4362B1" points="365.5303,193.8438,355.5303,197.8438,365.5303,201.8438,361.5303,197.8438" style="stroke:#4362B1;stroke-width:1.0;"/><line style="stroke:#4362B1;stroke-width:3.0;stroke-dasharray:2.0,2.0;" x1="359.5303" x2="611.1299" y1="197.8438" y2="197.8438"/><text fill="#FFFFFF" font-family="Verdana" font-size="12" lengthAdjust="spacing" textLength="25.3945" x="376.5303" y="188.0137">void</text><polygon fill="#4362B1" points="595.1299,231.8125,605.1299,235.8125,595.1299,239.8125,599.1299,235.8125" style="stroke:#4362B1;stroke-width:1.0;"/><line style="stroke:#4362B1;stroke-width:3.0;" x1="354.5303" x2="601.1299" y1="235.8125" y2="235.8125"/><text fill="#FFFFFF" font-family="Verdana" font-size="12" lengthAdjust="spacing" textLength="82.8516" x="366.5303" y="225.9824">getStatement</text><text fill="#808080" font-family="Verdana" font-size="12" lengthAdjust="spacing" textLength="71.3789" x="457.0107" y="225.9824">0.00593 ms</text><polygon fill="#4362B1" points="365.5303,269.7813,355.5303,273.7813,365.5303,277.7813,361.5303,273.7813" style="stroke:#4362B1;stroke-width:1.0;"/><line style="stroke:#4362B1;stroke-width:3.0;stroke-dasharray:2.0,2.0;" x1="359.5303" x2="611.1299" y1="273.7813" y2="273.7813"/><text fill="#FFFFFF" font-family="Verdana" font-size="12" lengthAdjust="spacing" textLength="25.3945" x="376.5303" y="263.9512">void</text><polygon fill="#4362B1" points="149.9199,307.75,139.9199,311.75,149.9199,315.75,145.9199,311.75" style="stroke:#4362B1;stroke-width:1.0;"/><line style="stroke:#4362B1;stroke-width:3.0;stroke-dasharray:2.0,2.0;" x1="143.9199" x2="348.5303" y1="311.75" y2="311.75"/><text fill="#FFFFFF" font-family="Verdana" font-size="12" lengthAdjust="spacing" textLength="25.3945" x="160.9199" y="301.9199">void</text><polygon fill="#4362B1" points="11,345.7188,1,349.7188,11,353.7188,7,349.7188" style="stroke:#4362B1;stroke-width:1.0;"/><line style="stroke:#4362B1;stroke-width:3.0;stroke-dasharray:2.0,2.0;" x1="5" x2="132.9199" y1="349.7188" y2="349.7188"/><text fill="#FFFFFF" font-family="Verdana" font-size="12" lengthAdjust="spacing" textLength="25.3945" x="22" y="339.8887">void</text><!--SRC=[nP9FQyCm3CNl_HHUxuaRHc4B9R33BgDiXUxMa-QeYS7_PYiT-_PpqpAQE1tirAEVtjDFGhwJHgYkniuhrXAvK7BkuIjl9BNTHnVG2si83UN2QjuWWNCQ77SA37LQPTIYHgv16dugdPJSnUBCWISff8jUjh616e_RJ_KIh7d7G0m2cwVo_8_OH6HeVpPUYbR7WT_s-zuzKEOpndPPbK9Bfcop0H-GhOHLrfUDX- -ABVA2wR3YlLR5D0YI1o2Ss2TMsOGynfNC7JbhswobIN2BX-Nza7YLsTV6nAmQB5mox9_edvnJKW19Qrv1fzoYIBWNv47JIV0goqRaWvNrsLhZFpebAyHljwMOFGh9t8lbuwq6JsyTUusF_TliebLonrqIF7tAS_XgzEZw0G00]--></g></svg>