<svg xmlns="http://www.w3.org/2000/svg" xmlns:xlink="http://www.w3.org/1999/xlink" contentStyleType="text/css" height="1395px" preserveAspectRatio="none" style="width:1604px;height:1395px;background:#000000;" version="1.1" viewBox="0 0 1604 1395" width="1604px" zoomAndPan="magnify"><defs/><g><rect fill="none" height="113.9063" style="stroke:#999999;stroke-width:1.0;" width="10" x="120.5176" y="83.9375"/><rect fill="none" height="37.9688" style="stroke:#999999;stroke-width:1.0;" width="10" x="354.9805" y="121.9063"/><rect fill="none" height="157.875" style="stroke:#999999;stroke-width:1.0;" width="10" x="354.9805" y="331.7188"/><rect fill="none" height="238.7813" style="stroke:#999999;stroke-width:1.0;" width="10" x="354.9805" y="906.2188"/><rect fill="none" height="113.9063" style="stroke:#999999;stroke-width:1.0;" width="10" x="354.9805" y="1182.9688"/><rect fill="none" height="1099.0313" style="stroke:#999999;stroke-width:1.0;" width="10" x="571.5459" y="235.8125"/><rect fill="none" height="37.9688" style="stroke:#999999;stroke-width:1.0;" width="10" x="841.7803" y="413.6563"/><rect fill="none" height="37.9688" style="stroke:#999999;stroke-width:1.0;" width="10" x="841.7803" y="527.5625"/><rect fill="none" height="37.9688" style="stroke:#999999;stroke-width:1.0;" width="10" x="841.7803" y="645.4375"/><rect fill="none" height="37.9688" style="stroke:#999999;stroke-width:1.0;" width="10" x="841.7803" y="786.3125"/><rect fill="none" height="37.9688" style="stroke:#999999;stroke-width:1.0;" width="10" x="841.7803" y="986.125"/><rect fill="none" height="37.9688" style="stroke:#999999;stroke-width:1.0;" width="10" x="841.7803" y="1069.0625"/><rect fill="none" height="37.9688" style="stroke:#999999;stroke-width:1.0;" width="10" x="841.7803" y="1220.9375"/><rect fill="none" height="110.875" rx="4" ry="4" style="stroke:#4362B1;stroke-width:1.5;" width="520.2402" x="456.3682" y="580.5313"/><rect fill="none" height="110.875" rx="4" ry="4" style="stroke:#4362B1;stroke-width:1.5;" width="723.0156" x="253.5928" y="921.2188"/><line style="stroke:#999999;stroke-width:0.5;stroke-dasharray:5.0,5.0;" x1="125.4951" x2="125.4951" y1="43.9688" y2="1352.8438"/><line style="stroke:#999999;stroke-width:0.5;stroke-dasharray:5.0,5.0;" x1="359.5928" x2="359.5928" y1="43.9688" y2="1352.8438"/><line style="stroke:#999999;stroke-width:0.5;stroke-dasharray:5.0,5.0;" x1="576.3682" x2="576.3682" y1="43.9688" y2="1352.8438"/><line style="stroke:#999999;stroke-width:0.5;stroke-dasharray:5.0,5.0;" x1="845.9521" x2="845.9521" y1="43.9688" y2="1352.8438"/><line style="stroke:#999999;stroke-width:0.5;stroke-dasharray:5.0,5.0;" x1="1056.6084" x2="1056.6084" y1="43.9688" y2="1352.8438"/><rect fill="#555555" height="37.9688" rx="4" ry="4" style="stroke:#555555;stroke-width:1.0;" width="128.0449" x="61.4951" y="5"/><text fill="#FFFFFF" font-family="Verdana" font-size="12" lengthAdjust="spacing" textLength="104.0449" x="73.4951" y="28.1387">PostgreSqlJson$2</text><rect fill="#555555" height="37.9688" rx="4" ry="4" style="stroke:#555555;stroke-width:1.0;" width="128.0449" x="61.4951" y="1351.8438"/><text fill="#FFFFFF" font-family="Verdana" font-size="12" lengthAdjust="spacing" textLength="104.0449" x="73.4951" y="1374.9824">PostgreSqlJson$2</text><rect fill="#555555" height="37.9688" rx="4" ry="4" style="stroke:#555555;stroke-width:1.0;" width="112.7754" x="303.5928" y="5"/><text fill="#FFFFFF" font-family="Verdana" font-size="12" lengthAdjust="spacing" textLength="88.7754" x="315.5928" y="28.1387">PostgreSqlJson</text><rect fill="#555555" height="37.9688" rx="4" ry="4" style="stroke:#555555;stroke-width:1.0;" width="112.7754" x="303.5928" y="1351.8438"/><text fill="#FFFFFF" font-family="Verdana" font-size="12" lengthAdjust="spacing" textLength="88.7754" x="315.5928" y="1374.9824">PostgreSqlJson</text><rect fill="#555555" height="37.9688" rx="4" ry="4" style="stroke:#555555;stroke-width:1.0;" width="140.3555" x="506.3682" y="5"/><text fill="#FFFFFF" font-family="Verdana" font-size="12" lengthAdjust="spacing" textLength="116.3555" x="518.3682" y="28.1387">LogEnrichmentTest</text><rect fill="#555555" height="37.9688" rx="4" ry="4" style="stroke:#555555;stroke-width:1.0;" width="140.3555" x="506.3682" y="1351.8438"/><text fill="#FFFFFF" font-family="Verdana" font-size="12" lengthAdjust="spacing" textLength="116.3555" x="518.3682" y="1374.9824">LogEnrichmentTest</text><rect fill="#555555" height="37.9688" rx="4" ry="4" style="stroke:#555555;stroke-width:1.0;" width="159.6563" x="766.9521" y="5"/><text fill="#FFFFFF" font-family="Verdana" font-size="12" lengthAdjust="spacing" textLength="135.6563" x="778.9521" y="28.1387">LogEnricherPostgreSql</text><rect fill="#555555" height="37.9688" rx="4" ry="4" style="stroke:#555555;stroke-width:1.0;" width="159.6563" x="766.9521" y="1351.8438"/><text fill="#FFFFFF" font-family="Verdana" font-size="12" lengthAdjust="spacing" textLength="135.6563" x="778.9521" y="1374.9824">LogEnricherPostgreSql</text><rect fill="#555555" height="37.9688" rx="4" ry="4" style="stroke:#555555;stroke-width:1.0;" width="81.2578" x="1016.6084" y="5"/><text fill="#FFFFFF" font-family="Verdana" font-size="12" lengthAdjust="spacing" textLength="57.2578" x="1028.6084" y="28.1387">Database</text><rect fill="#555555" height="37.9688" rx="4" ry="4" style="stroke:#555555;stroke-width:1.0;" width="81.2578" x="1016.6084" y="1351.8438"/><text fill="#FFFFFF" font-family="Verdana" font-size="12" lengthAdjust="spacing" textLength="57.2578" x="1028.6084" y="1374.9824">Database</text><rect fill="none" height="113.9063" style="stroke:#999999;stroke-width:1.0;" width="10" x="120.5176" y="83.9375"/><rect fill="none" height="37.9688" style="stroke:#999999;stroke-width:1.0;" width="10" x="354.9805" y="121.9063"/><rect fill="none" height="157.875" style="stroke:#999999;stroke-width:1.0;" width="10" x="354.9805" y="331.7188"/><rect fill="none" height="238.7813" style="stroke:#999999;stroke-width:1.0;" width="10" x="354.9805" y="906.2188"/><rect fill="none" height="113.9063" style="stroke:#999999;stroke-width:1.0;" width="10" x="354.9805" y="1182.9688"/><rect fill="none" height="1099.0313" style="stroke:#999999;stroke-width:1.0;" width="10" x="571.5459" y="235.8125"/><rect fill="none" height="37.9688" style="stroke:#999999;stroke-width:1.0;" width="10" x="841.7803" y="413.6563"/><rect fill="none" height="37.9688" style="stroke:#999999;stroke-width:1.0;" width="10" x="841.7803" y="527.5625"/><rect fill="none" height="37.9688" style="stroke:#999999;stroke-width:1.0;" width="10" x="841.7803" y="645.4375"/><rect fill="none" height="37.9688" style="stroke:#999999;stroke-width:1.0;" width="10" x="841.7803" y="786.3125"/><rect fill="none" height="37.9688" style="stroke:#999999;stroke-width:1.0;" width="10" x="841.7803" y="986.125"/><rect fill="none" height="37.9688" style="stroke:#999999;stroke-width:1.0;" width="10" x="841.7803" y="1069.0625"/><rect fill="none" height="37.9688" style="stroke:#999999;stroke-width:1.0;" width="10" x="841.7803" y="1220.9375"/><polygon fill="#4362B1" points="108.5176,79.9375,118.5176,83.9375,108.5176,87.9375,112.5176,83.9375" style="stroke:#4362B1;stroke-width:1.0;"/><line style="stroke:#4362B1;stroke-width:3.0;" x1="0" x2="114.5176" y1="83.9375" y2="83.9375"/><text fill="#FFFFFF" font-family="Verdana" font-size="12" lengthAdjust="spacing" textLength="20.1445" x="12" y="74.1074">run</text><text fill="#808080" font-family="Verdana" font-size="12" lengthAdjust="spacing" textLength="63.7441" x="39.7734" y="74.1074">0.0758 ms</text><polygon fill="#4362B1" points="342.9805,117.9063,352.9805,121.9063,342.9805,125.9063,346.9805,121.9063" style="stroke:#4362B1;stroke-width:1.0;"/><line style="stroke:#4362B1;stroke-width:3.0;" x1="130.5176" x2="348.9805" y1="121.9063" y2="121.9063"/><text fill="#FFFFFF" font-family="Verdana" font-size="12" lengthAdjust="spacing" textLength="124.0898" x="142.5176" y="112.0762">saveLogFilesPosition</text><text fill="#808080" font-family="Verdana" font-size="12" lengthAdjust="spacing" textLength="63.7441" x="274.2363" y="112.0762">0.0604 ms</text><polygon fill="#4362B1" points="141.5176,155.875,131.5176,159.875,141.5176,163.875,137.5176,159.875" style="stroke:#4362B1;stroke-width:1.0;"/><line style="stroke:#4362B1;stroke-width:3.0;stroke-dasharray:2.0,2.0;" x1="135.5176" x2="358.9805" y1="159.875" y2="159.875"/><text fill="#FFFFFF" font-family="Verdana" font-size="12" lengthAdjust="spacing" textLength="25.3945" x="152.5176" y="150.0449">void</text><polygon fill="#4362B1" points="11,193.8438,1,197.8438,11,201.8438,7,197.8438" style="stroke:#4362B1;stroke-width:1.0;"/><line style="stroke:#4362B1;stroke-width:3.0;stroke-dasharray:2.0,2.0;" x1="5" x2="124.5176" y1="197.8438" y2="197.8438"/><text fill="#FFFFFF" font-family="Verdana" font-size="12" lengthAdjust="spacing" textLength="25.3945" x="22" y="188.0137">void</text><polygon fill="#4362B1" points="559.5459,231.8125,569.5459,235.8125,559.5459,239.8125,563.5459,235.8125" style="stroke:#4362B1;stroke-width:1.0;"/><line style="stroke:#4362B1;stroke-width:3.0;" x1="0" x2="565.5459" y1="235.8125" y2="235.8125"/><text fill="#FFFFFF" font-family="Verdana" font-size="12" lengthAdjust="spacing" textLength="292.1777" x="12" y="225.9824">initLogEnricherWithDbHostWithPgStatStatement</text><text fill="#808080" font-family="Verdana" font-size="12" lengthAdjust="spacing" textLength="44.6602" x="311.8066" y="225.9824">140 ms</text><polygon fill="#4362B1" points="1045.2373,279.7656,1055.2373,283.7656,1045.2373,287.7656,1049.2373,283.7656" style="stroke:#4362B1;stroke-width:1.0;"/><line style="stroke:#4362B1;stroke-width:3.0;" x1="581.5459" x2="1051.2373" y1="283.7656" y2="283.7656"/><text fill="#FFFFFF" font-family="Verdana" font-size="12" lengthAdjust="spacing" textLength="322.5234" x="593.5459" y="273.9355">CREATE TABLE pg_stat_statements(queryid bigint, qu</text><text fill="#808080" font-family="Verdana" font-size="12" lengthAdjust="spacing" textLength="56.1094" x="923.6982" y="273.9355">0.652 ms</text><path d="M1062,252.8125 L1062,291.8125 A4,4 0 0 0 1066,295.8125 L1530,295.8125 A4,4 0 0 0 1534,291.8125 L1534,258.8125 L1524,248.8125 L1066,248.8125 A4,4 0 0 0 1062,252.8125 " fill="#4362B1" style="stroke:#000000;stroke-width:1.0;"/><path d="M1524,248.8125 L1524,256.8125 A2,2 0 0 0 1526,258.8125 L1534,258.8125 L1524,248.8125 " fill="#4362B1" style="stroke:#000000;stroke-width:1.0;"/><text fill="#FFFFFF" font-family="Verdana" font-size="12" lengthAdjust="spacing" textLength="441.457" x="1073" y="269.9512">CREATE TABLE pg_stat_statements(queryid bigint, query text) /* emulate</text><text fill="#FFFFFF" font-family="Verdana" font-size="12" lengthAdjust="spacing" textLength="132.1406" x="1073" y="283.9199">pg_stat_statements */</text><polygon fill="#4362B1" points="375.9805,327.7188,365.9805,331.7188,375.9805,335.7188,371.9805,331.7188" style="stroke:#4362B1;stroke-width:1.0;"/><line style="stroke:#4362B1;stroke-width:3.0;" x1="369.9805" x2="570.5459" y1="331.7188" y2="331.7188"/><text fill="#FFFFFF" font-family="Verdana" font-size="12" lengthAdjust="spacing" textLength="90.5977" x="386.9805" y="321.8887">initLogEnricher</text><text fill="#808080" font-family="Verdana" font-size="12" lengthAdjust="spacing" textLength="48.4746" x="485.207" y="321.8887">22.1 ms</text><polygon fill="#4362B1" points="1045.2373,368.6875,1055.2373,372.6875,1045.2373,376.6875,1049.2373,372.6875" style="stroke:#4362B1;stroke-width:1.0;"/><line style="stroke:#4362B1;stroke-width:3.0;" x1="364.9805" x2="1051.2373" y1="372.6875" y2="372.6875"/><text fill="#FFFFFF" font-family="Verdana" font-size="12" lengthAdjust="spacing" textLength="318.5508" x="376.9805" y="362.8574">select query from pg_stat_statements where queryid</text><text fill="#808080" font-family="Verdana" font-size="12" lengthAdjust="spacing" textLength="48.4746" x="703.1602" y="362.8574">4.11 ms</text><path d="M1062,348.7188 L1062,373.7188 A4,4 0 0 0 1066,377.7188 L1423,377.7188 A4,4 0 0 0 1427,373.7188 L1427,354.7188 L1417,344.7188 L1066,344.7188 A4,4 0 0 0 1062,348.7188 " fill="#4362B1" style="stroke:#000000;stroke-width:1.0;"/><path d="M1417,344.7188 L1417,352.7188 A2,2 0 0 0 1419,354.7188 L1427,354.7188 L1417,344.7188 " fill="#4362B1" style="stroke:#000000;stroke-width:1.0;"/><text fill="#FFFFFF" font-family="Verdana" font-size="12" lengthAdjust="spacing" textLength="334.9746" x="1073" y="365.8574">select query from pg_stat_statements where queryid=?</text><polygon fill="#4362B1" points="829.7803,409.6563,839.7803,413.6563,829.7803,417.6563,833.7803,413.6563" style="stroke:#4362B1;stroke-width:1.0;"/><line style="stroke:#4362B1;stroke-width:3.0;" x1="364.9805" x2="835.7803" y1="413.6563" y2="413.6563"/><text fill="#FFFFFF" font-family="Verdana" font-size="12" lengthAdjust="spacing" textLength="82.8516" x="376.9805" y="403.8262">getStatement</text><text fill="#808080" font-family="Verdana" font-size="12" lengthAdjust="spacing" textLength="48.4746" x="467.4609" y="403.8262">2.59 ms</text><polygon fill="#4362B1" points="375.9805,447.625,365.9805,451.625,375.9805,455.625,371.9805,451.625" style="stroke:#4362B1;stroke-width:1.0;"/><line style="stroke:#4362B1;stroke-width:3.0;stroke-dasharray:2.0,2.0;" x1="369.9805" x2="845.7803" y1="451.625" y2="451.625"/><text fill="#FFFFFF" font-family="Verdana" font-size="12" lengthAdjust="spacing" textLength="25.3945" x="386.9805" y="441.7949">void</text><polygon fill="#4362B1" points="559.5459,485.5938,569.5459,489.5938,559.5459,493.5938,563.5459,489.5938" style="stroke:#4362B1;stroke-width:1.0;"/><line style="stroke:#4362B1;stroke-width:3.0;stroke-dasharray:2.0,2.0;" x1="359.9805" x2="565.5459" y1="489.5938" y2="489.5938"/><text fill="#FFFFFF" font-family="Verdana" font-size="12" lengthAdjust="spacing" textLength="25.3945" x="371.9805" y="479.7637">void</text><polygon fill="#4362B1" points="829.7803,523.5625,839.7803,527.5625,829.7803,531.5625,833.7803,527.5625" style="stroke:#4362B1;stroke-width:1.0;"/><line style="stroke:#4362B1;stroke-width:3.0;" x1="581.5459" x2="835.7803" y1="527.5625" y2="527.5625"/><text fill="#FFFFFF" font-family="Verdana" font-size="12" lengthAdjust="spacing" textLength="152.2266" x="593.5459" y="517.7324">enricherApplicationName</text><text fill="#808080" font-family="Verdana" font-size="12" lengthAdjust="spacing" textLength="71.3789" x="753.4014" y="517.7324">0.00647 ms</text><polygon fill="#4362B1" points="592.5459,561.5313,582.5459,565.5313,592.5459,569.5313,588.5459,565.5313" style="stroke:#4362B1;stroke-width:1.0;"/><line style="stroke:#4362B1;stroke-width:3.0;stroke-dasharray:2.0,2.0;" x1="586.5459" x2="845.7803" y1="565.5313" y2="565.5313"/><text fill="#FFFFFF" font-family="Verdana" font-size="12" lengthAdjust="spacing" textLength="34.4473" x="603.5459" y="555.7012">string</text><path d="M460.3682,580.5313 L540.5596,580.5313 L540.5596,596.5 L530.5596,606.5 L456.3682,606.5 L456.3682,584.5313 A4,4 0 0 1 460.3682,580.5313 " fill="#4362B1" style="stroke:#4362B1;stroke-width:1.5;"/><rect fill="none" height="110.875" rx="4" ry="4" style="stroke:#4362B1;stroke-width:1.5;" width="520.2402" x="456.3682" y="580.5313"/><text fill="#FFFFFF" font-family="Verdana" font-size="12" font-weight="bold" lengthAdjust="spacing" textLength="29.1914" x="476.3682" y="597.6699">loop</text><text fill="#4362B1" font-family="Verdana" font-size="12" font-weight="bold" lengthAdjust="spacing" textLength="55.6465" x="560.5596" y="598.6699">[5 times</text><text fill="#808080" font-family="Verdana" font-size="12" font-weight="bold" lengthAdjust="spacing" textLength="53.4316" x="624.5615" y="598.6699">4.29 ms</text><text fill="#4362B1" font-family="Verdana" font-size="12" font-weight="bold" lengthAdjust="spacing" textLength="5.4844" x="677.9932" y="598.6699">]</text><polygon fill="#4362B1" points="829.7803,641.4375,839.7803,645.4375,829.7803,649.4375,833.7803,645.4375" style="stroke:#4362B1;stroke-width:1.0;"/><line style="stroke:#4362B1;stroke-width:3.0;" x1="581.5459" x2="835.7803" y1="645.4375" y2="645.4375"/><text fill="#FFFFFF" font-family="Verdana" font-size="12" lengthAdjust="spacing" textLength="82.8516" x="593.5459" y="635.6074">getStatement</text><text fill="#808080" font-family="Verdana" font-size="12" lengthAdjust="spacing" textLength="48.4746" x="684.0264" y="635.6074">4.29 ms</text><polygon fill="#4362B1" points="592.5459,679.4063,582.5459,683.4063,592.5459,687.4063,588.5459,683.4063" style="stroke:#4362B1;stroke-width:1.0;"/><line style="stroke:#4362B1;stroke-width:3.0;stroke-dasharray:2.0,2.0;" x1="586.5459" x2="845.7803" y1="683.4063" y2="683.4063"/><text fill="#FFFFFF" font-family="Verdana" font-size="12" lengthAdjust="spacing" textLength="25.3945" x="603.5459" y="673.5762">void</text><polygon fill="#4362B1" points="1045.2373,734.3594,1055.2373,738.3594,1045.2373,742.3594,1049.2373,738.3594" style="stroke:#4362B1;stroke-width:1.0;"/><line style="stroke:#4362B1;stroke-width:3.0;" x1="581.5459" x2="1051.2373" y1="738.3594" y2="738.3594"/><text fill="#FFFFFF" font-family="Verdana" font-size="12" lengthAdjust="spacing" textLength="327.6973" x="593.5459" y="728.5293">INSERT INTO pg_stat_statements(queryid,query) VALU</text><text fill="#808080" font-family="Verdana" font-size="12" lengthAdjust="spacing" textLength="56.1094" x="928.8721" y="728.5293">0.437 ms</text><path d="M1062,707.4063 L1062,746.4063 A4,4 0 0 0 1066,750.4063 L1517,750.4063 A4,4 0 0 0 1521,746.4063 L1521,713.4063 L1511,703.4063 L1066,703.4063 A4,4 0 0 0 1062,707.4063 " fill="#4362B1" style="stroke:#000000;stroke-width:1.0;"/><path d="M1511,703.4063 L1511,711.4063 A2,2 0 0 0 1513,713.4063 L1521,713.4063 L1511,703.4063 " fill="#4362B1" style="stroke:#000000;stroke-width:1.0;"/><text fill="#FFFFFF" font-family="Verdana" font-size="12" lengthAdjust="spacing" textLength="428.5137" x="1073" y="724.5449">INSERT INTO pg_stat_statements(queryid,query) VALUES (1024, 'select</text><text fill="#FFFFFF" font-family="Verdana" font-size="12" lengthAdjust="spacing" textLength="260.5605" x="1073" y="738.5137">version()')/* emulate pg_stat_statements */</text><polygon fill="#4362B1" points="829.7803,782.3125,839.7803,786.3125,829.7803,790.3125,833.7803,786.3125" style="stroke:#4362B1;stroke-width:1.0;"/><line style="stroke:#4362B1;stroke-width:3.0;" x1="581.5459" x2="835.7803" y1="786.3125" y2="786.3125"/><text fill="#FFFFFF" font-family="Verdana" font-size="12" lengthAdjust="spacing" textLength="82.8516" x="593.5459" y="776.4824">getStatement</text><text fill="#808080" font-family="Verdana" font-size="12" lengthAdjust="spacing" textLength="48.4746" x="684.0264" y="776.4824">4.52 ms</text><polygon fill="#4362B1" points="592.5459,820.2813,582.5459,824.2813,592.5459,828.2813,588.5459,824.2813" style="stroke:#4362B1;stroke-width:1.0;"/><line style="stroke:#4362B1;stroke-width:3.0;stroke-dasharray:2.0,2.0;" x1="586.5459" x2="845.7803" y1="824.2813" y2="824.2813"/><text fill="#FFFFFF" font-family="Verdana" font-size="12" lengthAdjust="spacing" textLength="34.4473" x="603.5459" y="814.4512">string</text><polygon fill="#4362B1" points="1045.2373,861.25,1055.2373,865.25,1045.2373,869.25,1049.2373,865.25" style="stroke:#4362B1;stroke-width:1.0;"/><line style="stroke:#4362B1;stroke-width:3.0;" x1="581.5459" x2="1051.2373" y1="865.25" y2="865.25"/><text fill="#FFFFFF" font-family="Verdana" font-size="12" lengthAdjust="spacing" textLength="327.6973" x="593.5459" y="855.4199">INSERT INTO pg_stat_statements(queryid,query) VALU</text><text fill="#808080" font-family="Verdana" font-size="12" lengthAdjust="spacing" textLength="56.1094" x="928.8721" y="855.4199">0.143 ms</text><path d="M1062,841.2813 L1062,866.2813 A4,4 0 0 0 1066,870.2813 L1593,870.2813 A4,4 0 0 0 1597,866.2813 L1597,847.2813 L1587,837.2813 L1066,837.2813 A4,4 0 0 0 1062,841.2813 " fill="#4362B1" style="stroke:#000000;stroke-width:1.0;"/><path d="M1587,837.2813 L1587,845.2813 A2,2 0 0 0 1589,847.2813 L1597,847.2813 L1587,837.2813 " fill="#4362B1" style="stroke:#000000;stroke-width:1.0;"/><text fill="#FFFFFF" font-family="Verdana" font-size="12" lengthAdjust="spacing" textLength="504.5977" x="1073" y="858.4199">INSERT INTO pg_stat_statements(queryid,query) VALUES (-3416356442043621232,</text><polygon fill="#4362B1" points="375.9805,902.2188,365.9805,906.2188,375.9805,910.2188,371.9805,906.2188" style="stroke:#4362B1;stroke-width:1.0;"/><line style="stroke:#4362B1;stroke-width:3.0;" x1="369.9805" x2="570.5459" y1="906.2188" y2="906.2188"/><text fill="#FFFFFF" font-family="Verdana" font-size="12" lengthAdjust="spacing" textLength="80.1914" x="386.9805" y="896.3887">parseLogLine</text><text fill="#808080" font-family="Verdana" font-size="12" lengthAdjust="spacing" textLength="48.4746" x="474.8008" y="896.3887">4.46 ms</text><path d="M257.5928,921.2188 L337.7842,921.2188 L337.7842,937.1875 L327.7842,947.1875 L253.5928,947.1875 L253.5928,925.2188 A4,4 0 0 1 257.5928,921.2188 " fill="#4362B1" style="stroke:#4362B1;stroke-width:1.5;"/><rect fill="none" height="110.875" rx="4" ry="4" style="stroke:#4362B1;stroke-width:1.5;" width="723.0156" x="253.5928" y="921.2188"/><text fill="#FFFFFF" font-family="Verdana" font-size="12" font-weight="bold" lengthAdjust="spacing" textLength="29.1914" x="273.5928" y="938.3574">loop</text><text fill="#4362B1" font-family="Verdana" font-size="12" font-weight="bold" lengthAdjust="spacing" textLength="55.6465" x="357.7842" y="939.3574">[3 times</text><text fill="#808080" font-family="Verdana" font-size="12" font-weight="bold" lengthAdjust="spacing" textLength="70.1309" x="421.7861" y="939.3574">0.0465 ms</text><text fill="#4362B1" font-family="Verdana" font-size="12" font-weight="bold" lengthAdjust="spacing" textLength="5.4844" x="491.917" y="939.3574">]</text><polygon fill="#4362B1" points="829.7803,982.125,839.7803,986.125,829.7803,990.125,833.7803,986.125" style="stroke:#4362B1;stroke-width:1.0;"/><line style="stroke:#4362B1;stroke-width:3.0;" x1="364.9805" x2="835.7803" y1="986.125" y2="986.125"/><text fill="#FFFFFF" font-family="Verdana" font-size="12" lengthAdjust="spacing" textLength="152.2266" x="376.9805" y="976.2949">enricherApplicationName</text><text fill="#808080" font-family="Verdana" font-size="12" lengthAdjust="spacing" textLength="63.7441" x="536.8359" y="976.2949">0.0465 ms</text><polygon fill="#4362B1" points="375.9805,1020.0938,365.9805,1024.0938,375.9805,1028.0938,371.9805,1024.0938" style="stroke:#4362B1;stroke-width:1.0;"/><line style="stroke:#4362B1;stroke-width:3.0;stroke-dasharray:2.0,2.0;" x1="369.9805" x2="845.7803" y1="1024.0938" y2="1024.0938"/><text fill="#FFFFFF" font-family="Verdana" font-size="12" lengthAdjust="spacing" textLength="34.4473" x="386.9805" y="1014.2637">string</text><polygon fill="#4362B1" points="829.7803,1065.0625,839.7803,1069.0625,829.7803,1073.0625,833.7803,1069.0625" style="stroke:#4362B1;stroke-width:1.0;"/><line style="stroke:#4362B1;stroke-width:3.0;" x1="364.9805" x2="835.7803" y1="1069.0625" y2="1069.0625"/><text fill="#FFFFFF" font-family="Verdana" font-size="12" lengthAdjust="spacing" textLength="82.8516" x="376.9805" y="1059.2324">getStatement</text><text fill="#808080" font-family="Verdana" font-size="12" lengthAdjust="spacing" textLength="48.4746" x="467.4609" y="1059.2324">4.28 ms</text><polygon fill="#4362B1" points="375.9805,1103.0313,365.9805,1107.0313,375.9805,1111.0313,371.9805,1107.0313" style="stroke:#4362B1;stroke-width:1.0;"/><line style="stroke:#4362B1;stroke-width:3.0;stroke-dasharray:2.0,2.0;" x1="369.9805" x2="845.7803" y1="1107.0313" y2="1107.0313"/><text fill="#FFFFFF" font-family="Verdana" font-size="12" lengthAdjust="spacing" textLength="34.4473" x="386.9805" y="1097.2012">string</text><polygon fill="#4362B1" points="559.5459,1141,569.5459,1145,559.5459,1149,563.5459,1145" style="stroke:#4362B1;stroke-width:1.0;"/><line style="stroke:#4362B1;stroke-width:3.0;stroke-dasharray:2.0,2.0;" x1="359.9805" x2="565.5459" y1="1145" y2="1145"/><text fill="#FFFFFF" font-family="Verdana" font-size="12" lengthAdjust="spacing" textLength="25.3945" x="371.9805" y="1135.1699">void</text><polygon fill="#4362B1" points="375.9805,1178.9688,365.9805,1182.9688,375.9805,1186.9688,371.9805,1182.9688" style="stroke:#4362B1;stroke-width:1.0;"/><line style="stroke:#4362B1;stroke-width:3.0;" x1="369.9805" x2="570.5459" y1="1182.9688" y2="1182.9688"/><text fill="#FFFFFF" font-family="Verdana" font-size="12" lengthAdjust="spacing" textLength="30.9082" x="386.9805" y="1173.1387">close</text><text fill="#808080" font-family="Verdana" font-size="12" lengthAdjust="spacing" textLength="63.7441" x="425.5176" y="1173.1387">0.0463 ms</text><polygon fill="#4362B1" points="829.7803,1216.9375,839.7803,1220.9375,829.7803,1224.9375,833.7803,1220.9375" style="stroke:#4362B1;stroke-width:1.0;"/><line style="stroke:#4362B1;stroke-width:3.0;" x1="364.9805" x2="835.7803" y1="1220.9375" y2="1220.9375"/><text fill="#FFFFFF" font-family="Verdana" font-size="12" lengthAdjust="spacing" textLength="30.9082" x="376.9805" y="1211.1074">close</text><text fill="#808080" font-family="Verdana" font-size="12" lengthAdjust="spacing" textLength="63.7441" x="415.5176" y="1211.1074">0.0219 ms</text><polygon fill="#4362B1" points="375.9805,1254.9063,365.9805,1258.9063,375.9805,1262.9063,371.9805,1258.9063" style="stroke:#4362B1;stroke-width:1.0;"/><line style="stroke:#4362B1;stroke-width:3.0;stroke-dasharray:2.0,2.0;" x1="369.9805" x2="845.7803" y1="1258.9063" y2="1258.9063"/><text fill="#FFFFFF" font-family="Verdana" font-size="12" lengthAdjust="spacing" textLength="25.3945" x="386.9805" y="1249.0762">void</text><polygon fill="#4362B1" points="559.5459,1292.875,569.5459,1296.875,559.5459,1300.875,563.5459,1296.875" style="stroke:#4362B1;stroke-width:1.0;"/><line style="stroke:#4362B1;stroke-width:3.0;stroke-dasharray:2.0,2.0;" x1="359.9805" x2="565.5459" y1="1296.875" y2="1296.875"/><text fill="#FFFFFF" font-family="Verdana" font-size="12" lengthAdjust="spacing" textLength="25.3945" x="371.9805" y="1287.0449">void</text><polygon fill="#4362B1" points="11,1330.8438,1,1334.8438,11,1338.8438,7,1334.8438" style="stroke:#4362B1;stroke-width:1.0;"/><line style="stroke:#4362B1;stroke-width:3.0;stroke-dasharray:2.0,2.0;" x1="5" x2="575.5459" y1="1334.8438" y2="1334.8438"/><text fill="#FFFFFF" font-family="Verdana" font-size="12" lengthAdjust="spacing" textLength="25.3945" x="22" y="1325.0137">void</text><!--SRC=[tLTRJzim57xFhpX3IBIepRs1LQnJ1vcsgMA8Tji33yXDlTHIRjXE6Vz-RYXh4ySiOQ1DU-Wbji_vpkNpP-SLIO8eN-2SHh3aF6D3mw3eLWy9N-Rpd64Qf0d72TU3D3P2p56MnIWpiWWbF8-ZFb_Y61in8ebnFtK_ecTYKiiGvIGWcLWB5odZ8SNJc-WJIvDh6n23lVBWlhttY4cDGNdv90tzX99W6OjuPvZnma8QLHXXklLTDjoTAHkV8OxcYE5Y_SF3dWPmrHzLynq2pHCu2T8efSEGehiHcBfvD3Y6c9qOnV18MAA0anNYMAgNc0Dfi0ep18PMM4J-daIOYJd2IIgZUgPRHbNYrgAUzFjLs5LA5iNQ1LPxkf8CrsNPc2eDYzH5GQL63e4aXE-qwPiWxTdyWx1U_xi8fnpnzGUlBSf5i5nJKNS9faXB6ksF7lezXDDBVpppOJP-D_4X2w-Pm2o-2c3MkSanlICBc9EG9Bm7Dtcr8zx0hZRaF1N1K18kkTRUltW6Zd_mBXY7WECy4cirsH8EZGBBJnQG23nLgjLkL-fUpiQsTQiDkwhysgqimn4E-2QXxpIDQzA7Mn42XeSYb69nTKkAfLJQzW1ltcwyb8ec9r4h7qCG4ggWfAqFNiknohpSzLUBBNQP0lpNBYrjDxLdYGfFtVcrh584YJTZuooBI83M0dQEOYo9cEcvHqgUjSj94GdZb2IXrg9SQGO3u2J6hCf3kwQtpMkYPaszvqQiQL69jiGHU-FtildnVEfVpiJFxFCZgjOhVhlmTJpvKkM0wnmz8flj_VjJw5YcxVRWu5uOj1McJ12mqpteRfKKdgwaJ-YlV3JyRPQ_Q4yjrtdsdlOTr_ASWUUwjkawdctPZjtJ3gR-n3-T5NuYZBFEllLSRQwAfBWqilMrR48INEslwxKxBGkLSUfKHeYYwmraDMXyE3MLNWLA8zLfVbhj4BCnERVIymmdij3MunS-aKiv_WDdSjLJ4AMihl_Edztm5DMeHxEj__PUTBKRq_QzHdubaXRz1000]--></g></svg>