<svg xmlns="http://www.w3.org/2000/svg" xmlns:xlink="http://www.w3.org/1999/xlink" contentStyleType="text/css" height="965px" preserveAspectRatio="none" style="width:1598px;height:965px;background:#FFFFFF;" version="1.1" viewBox="0 0 1598 965" width="1598px" zoomAndPan="magnify"><defs/><g><rect fill="#FFFFFF" height="844.8516" style="stroke:#181818;stroke-width:1.0;" width="10" x="392.1724" y="67.4297"/><rect fill="#FFFFFF" height="122.5313" style="stroke:#181818;stroke-width:1.0;" width="10" x="580.0986" y="146.8281"/><rect fill="#FFFFFF" height="176.7969" style="stroke:#181818;stroke-width:1.0;" width="10" x="580.0986" y="589.8203"/><rect fill="#FFFFFF" height="87.3984" style="stroke:#181818;stroke-width:1.0;" width="10" x="580.0986" y="795.75"/><rect fill="#FFFFFF" height="29.1328" style="stroke:#181818;stroke-width:1.0;" width="10" x="843.0605" y="211.0938"/><rect fill="#FFFFFF" height="29.1328" style="stroke:#181818;stroke-width:1.0;" width="10" x="843.0605" y="298.4922"/><rect fill="#FFFFFF" height="29.1328" style="stroke:#181818;stroke-width:1.0;" width="10" x="843.0605" y="380.8906"/><rect fill="#FFFFFF" height="29.1328" style="stroke:#181818;stroke-width:1.0;" width="10" x="843.0605" y="496.4219"/><rect fill="#FFFFFF" height="29.1328" style="stroke:#181818;stroke-width:1.0;" width="10" x="843.0605" y="643.0859"/><rect fill="#FFFFFF" height="29.1328" style="stroke:#181818;stroke-width:1.0;" width="10" x="843.0605" y="708.3516"/><rect fill="#FFFFFF" height="29.1328" style="stroke:#181818;stroke-width:1.0;" width="10" x="843.0605" y="824.8828"/><rect fill="none" height="75.3984" style="stroke:#000000;stroke-width:1.5;" width="631.895" x="312.2983" y="342.625"/><rect fill="none" height="75.3984" style="stroke:#000000;stroke-width:1.5;" width="427.8804" x="516.313" y="604.8203"/><line style="stroke:#181818;stroke-width:0.5;stroke-dasharray:5.0,5.0;" x1="396.2983" x2="396.2983" y1="36.2969" y2="930.2813"/><line style="stroke:#181818;stroke-width:0.5;stroke-dasharray:5.0,5.0;" x1="584.313" x2="584.313" y1="36.2969" y2="930.2813"/><line style="stroke:#181818;stroke-width:0.5;stroke-dasharray:5.0,5.0;" x1="847.9277" x2="847.9277" y1="36.2969" y2="930.2813"/><line style="stroke:#181818;stroke-width:0.5;stroke-dasharray:5.0,5.0;" x1="1019.5737" x2="1019.5737" y1="36.2969" y2="930.2813"/><rect fill="#E2E2F0" height="30.2969" rx="2.5" ry="2.5" style="stroke:#181818;stroke-width:0.5;" width="149.748" x="322.2983" y="5"/><text fill="#000000" font-family="sans-serif" font-size="14" lengthAdjust="spacing" textLength="135.748" x="329.2983" y="24.9951">LogEnrichmentTest</text><rect fill="#E2E2F0" height="30.2969" rx="2.5" ry="2.5" style="stroke:#181818;stroke-width:0.5;" width="149.748" x="322.2983" y="929.2813"/><text fill="#000000" font-family="sans-serif" font-size="14" lengthAdjust="spacing" textLength="135.748" x="329.2983" y="949.2764">LogEnrichmentTest</text><rect fill="#E2E2F0" height="30.2969" rx="2.5" ry="2.5" style="stroke:#181818;stroke-width:0.5;" width="117.5713" x="526.313" y="5"/><text fill="#000000" font-family="sans-serif" font-size="14" lengthAdjust="spacing" textLength="103.5713" x="533.313" y="24.9951">PostgreSqlJson</text><rect fill="#E2E2F0" height="30.2969" rx="2.5" ry="2.5" style="stroke:#181818;stroke-width:0.5;" width="117.5713" x="526.313" y="929.2813"/><text fill="#000000" font-family="sans-serif" font-size="14" lengthAdjust="spacing" textLength="103.5713" x="533.313" y="949.2764">PostgreSqlJson</text><rect fill="#E2E2F0" height="30.2969" rx="2.5" ry="2.5" style="stroke:#181818;stroke-width:0.5;" width="172.2656" x="761.9277" y="5"/><text fill="#000000" font-family="sans-serif" font-size="14" lengthAdjust="spacing" textLength="158.2656" x="768.9277" y="24.9951">LogEnricherPostgreSql</text><rect fill="#E2E2F0" height="30.2969" rx="2.5" ry="2.5" style="stroke:#181818;stroke-width:0.5;" width="172.2656" x="761.9277" y="929.2813"/><text fill="#000000" font-family="sans-serif" font-size="14" lengthAdjust="spacing" textLength="158.2656" x="768.9277" y="949.2764">LogEnricherPostgreSql</text><rect fill="#E2E2F0" height="30.2969" rx="2.5" ry="2.5" style="stroke:#181818;stroke-width:0.5;" width="80.8008" x="979.5737" y="5"/><text fill="#000000" font-family="sans-serif" font-size="14" lengthAdjust="spacing" textLength="66.8008" x="986.5737" y="24.9951">Database</text><rect fill="#E2E2F0" height="30.2969" rx="2.5" ry="2.5" style="stroke:#181818;stroke-width:0.5;" width="80.8008" x="979.5737" y="929.2813"/><text fill="#000000" font-family="sans-serif" font-size="14" lengthAdjust="spacing" textLength="66.8008" x="986.5737" y="949.2764">Database</text><rect fill="#FFFFFF" height="844.8516" style="stroke:#181818;stroke-width:1.0;" width="10" x="392.1724" y="67.4297"/><rect fill="#FFFFFF" height="122.5313" style="stroke:#181818;stroke-width:1.0;" width="10" x="580.0986" y="146.8281"/><rect fill="#FFFFFF" height="176.7969" style="stroke:#181818;stroke-width:1.0;" width="10" x="580.0986" y="589.8203"/><rect fill="#FFFFFF" height="87.3984" style="stroke:#181818;stroke-width:1.0;" width="10" x="580.0986" y="795.75"/><rect fill="#FFFFFF" height="29.1328" style="stroke:#181818;stroke-width:1.0;" width="10" x="843.0605" y="211.0938"/><rect fill="#FFFFFF" height="29.1328" style="stroke:#181818;stroke-width:1.0;" width="10" x="843.0605" y="298.4922"/><rect fill="#FFFFFF" height="29.1328" style="stroke:#181818;stroke-width:1.0;" width="10" x="843.0605" y="380.8906"/><rect fill="#FFFFFF" height="29.1328" style="stroke:#181818;stroke-width:1.0;" width="10" x="843.0605" y="496.4219"/><rect fill="#FFFFFF" height="29.1328" style="stroke:#181818;stroke-width:1.0;" width="10" x="843.0605" y="643.0859"/><rect fill="#FFFFFF" height="29.1328" style="stroke:#181818;stroke-width:1.0;" width="10" x="843.0605" y="708.3516"/><rect fill="#FFFFFF" height="29.1328" style="stroke:#181818;stroke-width:1.0;" width="10" x="843.0605" y="824.8828"/><polygon fill="#181818" points="380.1724,63.4297,390.1724,67.4297,380.1724,71.4297,384.1724,67.4297" style="stroke:#181818;stroke-width:1.0;"/><line style="stroke:#181818;stroke-width:1.0;" x1="0" x2="386.1724" y1="67.4297" y2="67.4297"/><text fill="#000000" font-family="sans-serif" font-size="13" lengthAdjust="spacing" textLength="316.5259" x="7" y="62.3638">initLogEnricherWithDbHostWithPgStatStatement</text><text fill="#808080" font-family="sans-serif" font-size="13" lengthAdjust="spacing" textLength="48.3818" x="331.7905" y="62.3638">161 ms</text><polygon fill="#181818" points="1007.9741,103.1289,1017.9741,107.1289,1007.9741,111.1289,1011.9741,107.1289" style="stroke:#181818;stroke-width:1.0;"/><line style="stroke:#181818;stroke-width:1.0;" x1="402.1724" x2="1013.9741" y1="107.1289" y2="107.1289"/><text fill="#000000" font-family="sans-serif" font-size="13" lengthAdjust="spacing" textLength="349.4004" x="409.1724" y="102.063">CREATE TABLE pg_stat_statements(queryid bigint, qu</text><text fill="#808080" font-family="sans-serif" font-size="13" lengthAdjust="spacing" textLength="52.5142" x="766.8374" y="102.063">0.85 ms</text><path d="M1024,80.4297 L1024,120.4297 L1521,120.4297 L1521,90.4297 L1511,80.4297 L1024,80.4297 " fill="#FEFFDD" style="stroke:#181818;stroke-width:0.5;"/><path d="M1511,80.4297 L1511,90.4297 L1521,90.4297 L1511,80.4297 " fill="#FEFFDD" style="stroke:#181818;stroke-width:0.5;"/><text fill="#000000" font-family="sans-serif" font-size="13" lengthAdjust="spacing" textLength="476.7471" x="1030" y="97.4966">CREATE TABLE pg_stat_statements(queryid bigint, query text) -- emulate</text><text fill="#000000" font-family="sans-serif" font-size="13" lengthAdjust="spacing" textLength="128.1401" x="1030" y="112.6294">pg_stat_statements</text><polygon fill="#181818" points="568.0986,142.8281,578.0986,146.8281,568.0986,150.8281,572.0986,146.8281" style="stroke:#181818;stroke-width:1.0;"/><line style="stroke:#181818;stroke-width:1.0;" x1="402.1724" x2="574.0986" y1="146.8281" y2="146.8281"/><text fill="#000000" font-family="sans-serif" font-size="13" lengthAdjust="spacing" textLength="98.1475" x="409.1724" y="141.7622">initLogEnricher</text><text fill="#808080" font-family="sans-serif" font-size="13" lengthAdjust="spacing" textLength="52.5142" x="515.5845" y="141.7622">20.7 ms</text><polygon fill="#181818" points="1007.9741,174.9609,1017.9741,178.9609,1007.9741,182.9609,1011.9741,178.9609" style="stroke:#181818;stroke-width:1.0;"/><line style="stroke:#181818;stroke-width:1.0;" x1="590.0986" x2="1013.9741" y1="178.9609" y2="178.9609"/><text fill="#000000" font-family="sans-serif" font-size="13" lengthAdjust="spacing" textLength="345.0967" x="597.0986" y="173.895">select query from pg_stat_statements where queryid</text><text fill="#808080" font-family="sans-serif" font-size="13" lengthAdjust="spacing" textLength="52.5142" x="950.46" y="173.895">4.59 ms</text><path d="M1024,159.8281 L1024,184.8281 L1407,184.8281 L1407,169.8281 L1397,159.8281 L1024,159.8281 " fill="#FEFFDD" style="stroke:#181818;stroke-width:0.5;"/><path d="M1397,159.8281 L1397,169.8281 L1407,169.8281 L1397,159.8281 " fill="#FEFFDD" style="stroke:#181818;stroke-width:0.5;"/><text fill="#000000" font-family="sans-serif" font-size="13" lengthAdjust="spacing" textLength="362.8892" x="1030" y="176.895">select query from pg_stat_statements where queryid=?</text><polygon fill="#181818" points="831.0605,207.0938,841.0605,211.0938,831.0605,215.0938,835.0605,211.0938" style="stroke:#181818;stroke-width:1.0;"/><line style="stroke:#181818;stroke-width:1.0;" x1="590.0986" x2="837.0605" y1="211.0938" y2="211.0938"/><text fill="#000000" font-family="sans-serif" font-size="13" lengthAdjust="spacing" textLength="89.7559" x="597.0986" y="206.0278">getStatement</text><text fill="#808080" font-family="sans-serif" font-size="13" lengthAdjust="spacing" textLength="52.5142" x="695.1191" y="206.0278">2.75 ms</text><polygon fill="#181818" points="601.0986,236.2266,591.0986,240.2266,601.0986,244.2266,597.0986,240.2266" style="stroke:#181818;stroke-width:1.0;"/><line style="stroke:#181818;stroke-width:1.0;stroke-dasharray:2.0,2.0;" x1="595.0986" x2="847.0605" y1="240.2266" y2="240.2266"/><text fill="#000000" font-family="sans-serif" font-size="13" lengthAdjust="spacing" textLength="27.5107" x="607.0986" y="235.1606">void</text><polygon fill="#181818" points="413.1724,265.3594,403.1724,269.3594,413.1724,273.3594,409.1724,269.3594" style="stroke:#181818;stroke-width:1.0;"/><line style="stroke:#181818;stroke-width:1.0;stroke-dasharray:2.0,2.0;" x1="407.1724" x2="584.0986" y1="269.3594" y2="269.3594"/><text fill="#000000" font-family="sans-serif" font-size="13" lengthAdjust="spacing" textLength="27.5107" x="419.1724" y="264.2935">void</text><polygon fill="#181818" points="831.0605,294.4922,841.0605,298.4922,831.0605,302.4922,835.0605,298.4922" style="stroke:#181818;stroke-width:1.0;"/><line style="stroke:#181818;stroke-width:1.0;" x1="402.1724" x2="837.0605" y1="298.4922" y2="298.4922"/><text fill="#000000" font-family="sans-serif" font-size="13" lengthAdjust="spacing" textLength="164.9121" x="409.1724" y="293.4263">enricherApplicationName</text><text fill="#808080" font-family="sans-serif" font-size="13" lengthAdjust="spacing" textLength="77.3271" x="582.3491" y="293.4263">0.00864 ms</text><polygon fill="#181818" points="413.1724,323.625,403.1724,327.625,413.1724,331.625,409.1724,327.625" style="stroke:#181818;stroke-width:1.0;"/><line style="stroke:#181818;stroke-width:1.0;stroke-dasharray:2.0,2.0;" x1="407.1724" x2="847.0605" y1="327.625" y2="327.625"/><text fill="#000000" font-family="sans-serif" font-size="13" lengthAdjust="spacing" textLength="37.3179" x="419.1724" y="322.5591">string</text><path d="M312.2983,342.625 L388.9224,342.625 L388.9224,349.7578 L378.9224,359.7578 L312.2983,359.7578 L312.2983,342.625 " fill="#EEEEEE" style="stroke:#000000;stroke-width:1.5;"/><rect fill="none" height="75.3984" style="stroke:#000000;stroke-width:1.5;" width="631.895" x="312.2983" y="342.625"/><text fill="#000000" font-family="sans-serif" font-size="13" font-weight="bold" lengthAdjust="spacing" textLength="31.624" x="327.2983" y="355.6919">loop</text><text fill="#000000" font-family="sans-serif" font-size="11" font-weight="bold" lengthAdjust="spacing" textLength="51.0093" x="403.9224" y="354.8354">[5 times</text><text fill="#808080" font-family="sans-serif" font-size="11" font-weight="bold" lengthAdjust="spacing" textLength="48.979" x="462.5908" y="354.8354">4.37 ms</text><text fill="#000000" font-family="sans-serif" font-size="11" font-weight="bold" lengthAdjust="spacing" textLength="5.0273" x="511.5698" y="354.8354">]</text><polygon fill="#181818" points="831.0605,376.8906,841.0605,380.8906,831.0605,384.8906,835.0605,380.8906" style="stroke:#181818;stroke-width:1.0;"/><line style="stroke:#181818;stroke-width:1.0;" x1="402.1724" x2="837.0605" y1="380.8906" y2="380.8906"/><text fill="#000000" font-family="sans-serif" font-size="13" lengthAdjust="spacing" textLength="89.7559" x="409.1724" y="375.8247">getStatement</text><text fill="#808080" font-family="sans-serif" font-size="13" lengthAdjust="spacing" textLength="52.5142" x="507.1929" y="375.8247">4.37 ms</text><polygon fill="#181818" points="413.1724,406.0234,403.1724,410.0234,413.1724,414.0234,409.1724,410.0234" style="stroke:#181818;stroke-width:1.0;"/><line style="stroke:#181818;stroke-width:1.0;stroke-dasharray:2.0,2.0;" x1="407.1724" x2="847.0605" y1="410.0234" y2="410.0234"/><text fill="#000000" font-family="sans-serif" font-size="13" lengthAdjust="spacing" textLength="27.5107" x="419.1724" y="404.9575">void</text><polygon fill="#181818" points="1007.9741,452.7227,1017.9741,456.7227,1007.9741,460.7227,1011.9741,456.7227" style="stroke:#181818;stroke-width:1.0;"/><line style="stroke:#181818;stroke-width:1.0;" x1="402.1724" x2="1013.9741" y1="456.7227" y2="456.7227"/><text fill="#000000" font-family="sans-serif" font-size="13" lengthAdjust="spacing" textLength="355.0054" x="409.1724" y="451.6567">INSERT INTO pg_stat_statements(queryid,query) VALU</text><text fill="#808080" font-family="sans-serif" font-size="13" lengthAdjust="spacing" textLength="60.7852" x="772.4424" y="451.6567">0.558 ms</text><path d="M1024,430.0234 L1024,470.0234 L1509,470.0234 L1509,440.0234 L1499,430.0234 L1024,430.0234 " fill="#FEFFDD" style="stroke:#181818;stroke-width:0.5;"/><path d="M1499,430.0234 L1499,440.0234 L1509,440.0234 L1499,430.0234 " fill="#FEFFDD" style="stroke:#181818;stroke-width:0.5;"/><text fill="#000000" font-family="sans-serif" font-size="13" lengthAdjust="spacing" textLength="464.2231" x="1030" y="447.0903">INSERT INTO pg_stat_statements(queryid,query) VALUES (1024, 'select</text><text fill="#000000" font-family="sans-serif" font-size="13" lengthAdjust="spacing" textLength="265.7637" x="1030" y="462.2231">version()')-- emulate pg_stat_statements</text><polygon fill="#181818" points="831.0605,492.4219,841.0605,496.4219,831.0605,500.4219,835.0605,496.4219" style="stroke:#181818;stroke-width:1.0;"/><line style="stroke:#181818;stroke-width:1.0;" x1="402.1724" x2="837.0605" y1="496.4219" y2="496.4219"/><text fill="#000000" font-family="sans-serif" font-size="13" lengthAdjust="spacing" textLength="89.7559" x="409.1724" y="491.356">getStatement</text><text fill="#808080" font-family="sans-serif" font-size="13" lengthAdjust="spacing" textLength="52.5142" x="507.1929" y="491.356">4.49 ms</text><polygon fill="#181818" points="413.1724,521.5547,403.1724,525.5547,413.1724,529.5547,409.1724,525.5547" style="stroke:#181818;stroke-width:1.0;"/><line style="stroke:#181818;stroke-width:1.0;stroke-dasharray:2.0,2.0;" x1="407.1724" x2="847.0605" y1="525.5547" y2="525.5547"/><text fill="#000000" font-family="sans-serif" font-size="13" lengthAdjust="spacing" textLength="37.3179" x="419.1724" y="520.4888">string</text><polygon fill="#181818" points="1007.9741,553.6875,1017.9741,557.6875,1007.9741,561.6875,1011.9741,557.6875" style="stroke:#181818;stroke-width:1.0;"/><line style="stroke:#181818;stroke-width:1.0;" x1="402.1724" x2="1013.9741" y1="557.6875" y2="557.6875"/><text fill="#000000" font-family="sans-serif" font-size="13" lengthAdjust="spacing" textLength="355.0054" x="409.1724" y="552.6216">INSERT INTO pg_stat_statements(queryid,query) VALU</text><text fill="#808080" font-family="sans-serif" font-size="13" lengthAdjust="spacing" textLength="60.7852" x="772.4424" y="552.6216">0.233 ms</text><path d="M1024,538.5547 L1024,563.5547 L1591,563.5547 L1591,548.5547 L1581,538.5547 L1024,538.5547 " fill="#FEFFDD" style="stroke:#181818;stroke-width:0.5;"/><path d="M1581,538.5547 L1581,548.5547 L1591,548.5547 L1581,538.5547 " fill="#FEFFDD" style="stroke:#181818;stroke-width:0.5;"/><text fill="#000000" font-family="sans-serif" font-size="13" lengthAdjust="spacing" textLength="546.6475" x="1030" y="555.6216">INSERT INTO pg_stat_statements(queryid,query) VALUES (-3416356442043621232,</text><polygon fill="#181818" points="568.0986,585.8203,578.0986,589.8203,568.0986,593.8203,572.0986,589.8203" style="stroke:#181818;stroke-width:1.0;"/><line style="stroke:#181818;stroke-width:1.0;" x1="402.1724" x2="574.0986" y1="589.8203" y2="589.8203"/><text fill="#000000" font-family="sans-serif" font-size="13" lengthAdjust="spacing" textLength="86.874" x="409.1724" y="584.7544">parseLogLine</text><text fill="#808080" font-family="sans-serif" font-size="13" lengthAdjust="spacing" textLength="52.5142" x="504.311" y="584.7544">5.81 ms</text><path d="M516.313,604.8203 L592.937,604.8203 L592.937,611.9531 L582.937,621.9531 L516.313,621.9531 L516.313,604.8203 " fill="#EEEEEE" style="stroke:#000000;stroke-width:1.5;"/><rect fill="none" height="75.3984" style="stroke:#000000;stroke-width:1.5;" width="427.8804" x="516.313" y="604.8203"/><text fill="#000000" font-family="sans-serif" font-size="13" font-weight="bold" lengthAdjust="spacing" textLength="31.624" x="531.313" y="617.8872">loop</text><text fill="#000000" font-family="sans-serif" font-size="11" font-weight="bold" lengthAdjust="spacing" textLength="51.0093" x="607.937" y="617.0308">[3 times</text><text fill="#808080" font-family="sans-serif" font-size="11" font-weight="bold" lengthAdjust="spacing" textLength="56.6328" x="666.6055" y="617.0308">0.105 ms</text><text fill="#000000" font-family="sans-serif" font-size="11" font-weight="bold" lengthAdjust="spacing" textLength="5.0273" x="723.2383" y="617.0308">]</text><polygon fill="#181818" points="831.0605,639.0859,841.0605,643.0859,831.0605,647.0859,835.0605,643.0859" style="stroke:#181818;stroke-width:1.0;"/><line style="stroke:#181818;stroke-width:1.0;" x1="590.0986" x2="837.0605" y1="643.0859" y2="643.0859"/><text fill="#000000" font-family="sans-serif" font-size="13" lengthAdjust="spacing" textLength="164.9121" x="597.0986" y="638.02">enricherApplicationName</text><text fill="#808080" font-family="sans-serif" font-size="13" lengthAdjust="spacing" textLength="60.7852" x="770.2754" y="638.02">0.105 ms</text><polygon fill="#181818" points="601.0986,668.2188,591.0986,672.2188,601.0986,676.2188,597.0986,672.2188" style="stroke:#181818;stroke-width:1.0;"/><line style="stroke:#181818;stroke-width:1.0;stroke-dasharray:2.0,2.0;" x1="595.0986" x2="847.0605" y1="672.2188" y2="672.2188"/><text fill="#000000" font-family="sans-serif" font-size="13" lengthAdjust="spacing" textLength="37.3179" x="607.0986" y="667.1528">string</text><polygon fill="#181818" points="831.0605,704.3516,841.0605,708.3516,831.0605,712.3516,835.0605,708.3516" style="stroke:#181818;stroke-width:1.0;"/><line style="stroke:#181818;stroke-width:1.0;" x1="590.0986" x2="837.0605" y1="708.3516" y2="708.3516"/><text fill="#000000" font-family="sans-serif" font-size="13" lengthAdjust="spacing" textLength="89.7559" x="597.0986" y="703.2856">getStatement</text><text fill="#808080" font-family="sans-serif" font-size="13" lengthAdjust="spacing" textLength="60.7852" x="695.1191" y="703.2856">0.169 ms</text><polygon fill="#181818" points="601.0986,733.4844,591.0986,737.4844,601.0986,741.4844,597.0986,737.4844" style="stroke:#181818;stroke-width:1.0;"/><line style="stroke:#181818;stroke-width:1.0;stroke-dasharray:2.0,2.0;" x1="595.0986" x2="847.0605" y1="737.4844" y2="737.4844"/><text fill="#000000" font-family="sans-serif" font-size="13" lengthAdjust="spacing" textLength="37.3179" x="607.0986" y="732.4185">string</text><polygon fill="#181818" points="413.1724,762.6172,403.1724,766.6172,413.1724,770.6172,409.1724,766.6172" style="stroke:#181818;stroke-width:1.0;"/><line style="stroke:#181818;stroke-width:1.0;stroke-dasharray:2.0,2.0;" x1="407.1724" x2="584.0986" y1="766.6172" y2="766.6172"/><text fill="#000000" font-family="sans-serif" font-size="13" lengthAdjust="spacing" textLength="27.5107" x="419.1724" y="761.5513">void</text><polygon fill="#181818" points="568.0986,791.75,578.0986,795.75,568.0986,799.75,572.0986,795.75" style="stroke:#181818;stroke-width:1.0;"/><line style="stroke:#181818;stroke-width:1.0;" x1="402.1724" x2="574.0986" y1="795.75" y2="795.75"/><text fill="#000000" font-family="sans-serif" font-size="13" lengthAdjust="spacing" textLength="33.4839" x="409.1724" y="790.6841">close</text><text fill="#808080" font-family="sans-serif" font-size="13" lengthAdjust="spacing" textLength="69.0562" x="450.9209" y="790.6841">0.0762 ms</text><polygon fill="#181818" points="831.0605,820.8828,841.0605,824.8828,831.0605,828.8828,835.0605,824.8828" style="stroke:#181818;stroke-width:1.0;"/><line style="stroke:#181818;stroke-width:1.0;" x1="590.0986" x2="837.0605" y1="824.8828" y2="824.8828"/><text fill="#000000" font-family="sans-serif" font-size="13" lengthAdjust="spacing" textLength="33.4839" x="597.0986" y="819.8169">close</text><text fill="#808080" font-family="sans-serif" font-size="13" lengthAdjust="spacing" textLength="69.0562" x="638.8472" y="819.8169">0.0373 ms</text><polygon fill="#181818" points="601.0986,850.0156,591.0986,854.0156,601.0986,858.0156,597.0986,854.0156" style="stroke:#181818;stroke-width:1.0;"/><line style="stroke:#181818;stroke-width:1.0;stroke-dasharray:2.0,2.0;" x1="595.0986" x2="847.0605" y1="854.0156" y2="854.0156"/><text fill="#000000" font-family="sans-serif" font-size="13" lengthAdjust="spacing" textLength="27.5107" x="607.0986" y="848.9497">void</text><polygon fill="#181818" points="413.1724,879.1484,403.1724,883.1484,413.1724,887.1484,409.1724,883.1484" style="stroke:#181818;stroke-width:1.0;"/><line style="stroke:#181818;stroke-width:1.0;stroke-dasharray:2.0,2.0;" x1="407.1724" x2="584.0986" y1="883.1484" y2="883.1484"/><text fill="#000000" font-family="sans-serif" font-size="13" lengthAdjust="spacing" textLength="27.5107" x="419.1724" y="878.0825">void</text><polygon fill="#181818" points="11,908.2813,1,912.2813,11,916.2813,7,912.2813" style="stroke:#181818;stroke-width:1.0;"/><line style="stroke:#181818;stroke-width:1.0;stroke-dasharray:2.0,2.0;" x1="5" x2="396.1724" y1="912.2813" y2="912.2813"/><text fill="#000000" font-family="sans-serif" font-size="13" lengthAdjust="spacing" textLength="27.5107" x="17" y="907.2153">void</text><!--SRC=[tLTRZvf057xdLvnicgY9KEvUOctiBicsCNQpqlPX7nh4AKw2WCnek_- -8_N2CB25hPji-g38uPplt3xE6HClfTZ7YHTHcCQ14wNONwrHH5r4A7W4hWJfbPJaZEvYGeCKpJVX9n97cGKlujLFQ2Wzg_5-yazuunkFUWkFe4p_U7Cb0Jp8Oo7C8U08qnpgDqnNDujRXht_THVCgKVt7xItW94VXt4w35BlSGoQhS6QZDvciZ5puFaKxvYgM2Fs44IfF3w6DuJhUsVYEk1EFamTI8BlXFdClZB7fBtPelGHBs610npHBcosV32gqhVuQ01cCOibnS6AIitXsJrGz8jsG9O1hRSXqvL4IyWyET4I8kQjAa- -sKBH-LHqLUaLKpcLbaVAda51c2yhGI7owI6T7scyBaaUVh8G41nBmCLYAjQW60jNsEOEthq_e7154vCefVeG0bJ5HrtfMMAi8YdpUAM-Hx9SuNmNu-N1P8bg80jKOD15BfmmSuWbNIvXLKMGw22R94c8VO_YE9fvQrHyNrIrRvkLF6kMKqKaXAOu2gG6vOeJi83YDI957XeziRVrQrBDcdBaMgnfK8ccn67lnjzdviVPtBbtsSNz_CHCwsRN3doTJByKEM1P_IU6PdDyPmvjJTNDBhJ-30PfXrB22DZkj3hdEGhFdQFFwAuvU6qSVz6EwePnyOxAXgdPXcMRfgwQXgrhkg5tfTRScJhNReOJ8fIqtsYNQN9nGBB33K5CRugZmX2pbBxMR5Dc4yOecp2gegabwwFsNgevTIkSr9etzVTKZfIrYNaUEXVOnInHU_32ovXByXMiuoAI7yP4tBezM_-tmrr5DSgz6JtZVpqIFUHZEl-VETYMnN9K-Wq0]--></g></svg>