<svg xmlns="http://www.w3.org/2000/svg" xmlns:xlink="http://www.w3.org/1999/xlink" contentStyleType="text/css" height="297px" preserveAspectRatio="none" style="width:719px;height:297px;background:#FFFFFF;" version="1.1" viewBox="0 0 719 297" width="719px" zoomAndPan="magnify"><defs/><g><rect fill="#FFFFFF" height="176.7969" style="stroke:#181818;stroke-width:1.0;" width="10" x="184.5215" y="67.4297"/><rect fill="#FFFFFF" height="118.5313" style="stroke:#181818;stroke-width:1.0;" width="10" x="369.4453" y="96.5625"/><rect fill="#FFFFFF" height="29.1328" style="stroke:#181818;stroke-width:1.0;" width="10" x="640.6782" y="149.8281"/><rect fill="none" height="75.3984" style="stroke:#000000;stroke-width:1.5;" width="407.731" x="305.6597" y="111.5625"/><line style="stroke:#181818;stroke-width:0.5;stroke-dasharray:5.0,5.0;" x1="188.7617" x2="188.7617" y1="36.2969" y2="262.2266"/><line style="stroke:#181818;stroke-width:0.5;stroke-dasharray:5.0,5.0;" x1="373.6597" x2="373.6597" y1="36.2969" y2="262.2266"/><line style="stroke:#181818;stroke-width:0.5;stroke-dasharray:5.0,5.0;" x1="644.9658" x2="644.9658" y1="36.2969" y2="262.2266"/><rect fill="#E2E2F0" height="30.2969" rx="2.5" ry="2.5" style="stroke:#181818;stroke-width:0.5;" width="147.5195" x="115.7617" y="5"/><text fill="#000000" font-family="sans-serif" font-size="14" lengthAdjust="spacing" textLength="133.5195" x="122.7617" y="24.9951">PostgreSqlJsonTest</text><rect fill="#E2E2F0" height="30.2969" rx="2.5" ry="2.5" style="stroke:#181818;stroke-width:0.5;" width="147.5195" x="115.7617" y="261.2266"/><text fill="#000000" font-family="sans-serif" font-size="14" lengthAdjust="spacing" textLength="133.5195" x="122.7617" y="281.2217">PostgreSqlJsonTest</text><rect fill="#E2E2F0" height="30.2969" rx="2.5" ry="2.5" style="stroke:#181818;stroke-width:0.5;" width="117.5713" x="315.6597" y="5"/><text fill="#000000" font-family="sans-serif" font-size="14" lengthAdjust="spacing" textLength="103.5713" x="322.6597" y="24.9951">PostgreSqlJson</text><rect fill="#E2E2F0" height="30.2969" rx="2.5" ry="2.5" style="stroke:#181818;stroke-width:0.5;" width="117.5713" x="315.6597" y="261.2266"/><text fill="#000000" font-family="sans-serif" font-size="14" lengthAdjust="spacing" textLength="103.5713" x="322.6597" y="281.2217">PostgreSqlJson</text><rect fill="#E2E2F0" height="30.2969" rx="2.5" ry="2.5" style="stroke:#181818;stroke-width:0.5;" width="115.4248" x="587.9658" y="5"/><text fill="#000000" font-family="sans-serif" font-size="14" lengthAdjust="spacing" textLength="101.4248" x="594.9658" y="24.9951">EnrichmentOff</text><rect fill="#E2E2F0" height="30.2969" rx="2.5" ry="2.5" style="stroke:#181818;stroke-width:0.5;" width="115.4248" x="587.9658" y="261.2266"/><text fill="#000000" font-family="sans-serif" font-size="14" lengthAdjust="spacing" textLength="101.4248" x="594.9658" y="281.2217">EnrichmentOff</text><rect fill="#FFFFFF" height="176.7969" style="stroke:#181818;stroke-width:1.0;" width="10" x="184.5215" y="67.4297"/><rect fill="#FFFFFF" height="118.5313" style="stroke:#181818;stroke-width:1.0;" width="10" x="369.4453" y="96.5625"/><rect fill="#FFFFFF" height="29.1328" style="stroke:#181818;stroke-width:1.0;" width="10" x="640.6782" y="149.8281"/><polygon fill="#181818" points="172.5215,63.4297,182.5215,67.4297,172.5215,71.4297,176.5215,67.4297" style="stroke:#181818;stroke-width:1.0;"/><line style="stroke:#181818;stroke-width:1.0;" x1="0" x2="178.5215" y1="67.4297" y2="67.4297"/><text fill="#000000" font-family="sans-serif" font-size="13" lengthAdjust="spacing" textLength="104.7427" x="7" y="62.3638">parseStatement</text><text fill="#808080" font-family="sans-serif" font-size="13" lengthAdjust="spacing" textLength="52.5142" x="120.0073" y="62.3638">0.14 ms</text><polygon fill="#181818" points="357.4453,92.5625,367.4453,96.5625,357.4453,100.5625,361.4453,96.5625" style="stroke:#181818;stroke-width:1.0;"/><line style="stroke:#181818;stroke-width:1.0;" x1="194.5215" x2="363.4453" y1="96.5625" y2="96.5625"/><text fill="#000000" font-family="sans-serif" font-size="13" lengthAdjust="spacing" textLength="86.874" x="201.5215" y="91.4966">parseLogLine</text><text fill="#808080" font-family="sans-serif" font-size="13" lengthAdjust="spacing" textLength="60.7852" x="296.6602" y="91.4966">0.118 ms</text><path d="M305.6597,111.5625 L382.2837,111.5625 L382.2837,118.6953 L372.2837,128.6953 L305.6597,128.6953 L305.6597,111.5625 " fill="#EEEEEE" style="stroke:#000000;stroke-width:1.5;"/><rect fill="none" height="75.3984" style="stroke:#000000;stroke-width:1.5;" width="407.731" x="305.6597" y="111.5625"/><text fill="#000000" font-family="sans-serif" font-size="13" font-weight="bold" lengthAdjust="spacing" textLength="31.624" x="320.6597" y="124.6294">loop</text><text fill="#000000" font-family="sans-serif" font-size="11" font-weight="bold" lengthAdjust="spacing" textLength="51.0093" x="397.2837" y="123.7729">[2 times</text><text fill="#808080" font-family="sans-serif" font-size="11" font-weight="bold" lengthAdjust="spacing" textLength="64.2866" x="455.9521" y="123.7729">0.0295 ms</text><text fill="#000000" font-family="sans-serif" font-size="11" font-weight="bold" lengthAdjust="spacing" textLength="5.0273" x="520.2388" y="123.7729">]</text><polygon fill="#181818" points="628.6782,145.8281,638.6782,149.8281,628.6782,153.8281,632.6782,149.8281" style="stroke:#181818;stroke-width:1.0;"/><line style="stroke:#181818;stroke-width:1.0;" x1="379.4453" x2="634.6782" y1="149.8281" y2="149.8281"/><text fill="#000000" font-family="sans-serif" font-size="13" lengthAdjust="spacing" textLength="164.9121" x="386.4453" y="144.7622">enricherApplicationName</text><text fill="#808080" font-family="sans-serif" font-size="13" lengthAdjust="spacing" textLength="69.0562" x="559.6221" y="144.7622">0.0295 ms</text><polygon fill="#181818" points="390.4453,174.9609,380.4453,178.9609,390.4453,182.9609,386.4453,178.9609" style="stroke:#181818;stroke-width:1.0;"/><line style="stroke:#181818;stroke-width:1.0;stroke-dasharray:2.0,2.0;" x1="384.4453" x2="644.6782" y1="178.9609" y2="178.9609"/><text fill="#000000" font-family="sans-serif" font-size="13" lengthAdjust="spacing" textLength="27.5107" x="396.4453" y="173.895">void</text><polygon fill="#181818" points="205.5215,211.0938,195.5215,215.0938,205.5215,219.0938,201.5215,215.0938" style="stroke:#181818;stroke-width:1.0;"/><line style="stroke:#181818;stroke-width:1.0;stroke-dasharray:2.0,2.0;" x1="199.5215" x2="373.4453" y1="215.0938" y2="215.0938"/><text fill="#000000" font-family="sans-serif" font-size="13" lengthAdjust="spacing" textLength="27.5107" x="211.5215" y="210.0278">void</text><polygon fill="#181818" points="11,240.2266,1,244.2266,11,248.2266,7,244.2266" style="stroke:#181818;stroke-width:1.0;"/><line style="stroke:#181818;stroke-width:1.0;stroke-dasharray:2.0,2.0;" x1="5" x2="188.5215" y1="244.2266" y2="244.2266"/><text fill="#000000" font-family="sans-serif" font-size="13" lengthAdjust="spacing" textLength="27.5107" x="17" y="239.1606">void</text><!--SRC=[ZPB1QiCm44Jl-Oh5TxT9IA4rnj13BiMaXVIMav0txe8jgT8IwDzNSOEf9AlqgD7CczKY8ooJ92CKmvjst5iyVWulJgjtT0p2GP7AnSfaOmkHqBvNbkJ7Y8fVp-V97IZ52k1KDcbf1PxYyCY2yUg5Mkf1swgtugk1zTrc1wEhxoUnyH0XcIxUk_0iVmiBSjnwQsnrtvB2f6_p61PcAwSxW5Ph0rjW6j75iFNswI6cfKEMJR2g2d0wedqsPY0fcBGwY17_Iv_d3R2Pyheie_QBfcusT_WdRQ-wpDOzDrxx3Fu5JLPwIe8_l-GMpaQlhcy0]--></g></svg>