<svg xmlns="http://www.w3.org/2000/svg" xmlns:xlink="http://www.w3.org/1999/xlink" contentStyleType="text/css" height="640px" preserveAspectRatio="none" style="width:780px;height:640px;background:#FFFFFF;" version="1.1" viewBox="0 0 780 640" width="780px" zoomAndPan="magnify"><defs/><g><rect fill="#FFFFFF" height="520.125" style="stroke:#181818;stroke-width:1.0;" width="10" x="187.7334" y="67.4297"/><rect fill="#FFFFFF" height="287.0625" style="stroke:#181818;stroke-width:1.0;" width="10" x="420.2139" y="96.5625"/><rect fill="#FFFFFF" height="182.6641" style="stroke:#181818;stroke-width:1.0;" width="10" x="425.2139" y="157.8281"/><rect fill="#FFFFFF" height="98.3984" style="stroke:#181818;stroke-width:1.0;" width="10" x="430.2139" y="199.9609"/><rect fill="#FFFFFF" height="29.1328" style="stroke:#181818;stroke-width:1.0;" width="10" x="420.2139" y="412.7578"/><rect fill="#FFFFFF" height="87.3984" style="stroke:#181818;stroke-width:1.0;" width="10" x="420.2139" y="471.0234"/><rect fill="#FFFFFF" height="29.1328" style="stroke:#181818;stroke-width:1.0;" width="10" x="701.4468" y="234.0938"/><rect fill="#FFFFFF" height="29.1328" style="stroke:#181818;stroke-width:1.0;" width="10" x="701.4468" y="500.1563"/><rect fill="none" height="243.9297" style="stroke:#000000;stroke-width:1.5;" width="417.731" x="356.4282" y="111.5625"/><line style="stroke:#181818;stroke-width:0.5;stroke-dasharray:5.0,5.0;" x1="191.9736" x2="191.9736" y1="36.2969" y2="605.5547"/><line style="stroke:#181818;stroke-width:0.5;stroke-dasharray:5.0,5.0;" x1="424.4282" x2="424.4282" y1="36.2969" y2="605.5547"/><line style="stroke:#181818;stroke-width:0.5;stroke-dasharray:5.0,5.0;" x1="705.7344" x2="705.7344" y1="36.2969" y2="605.5547"/><rect fill="#E2E2F0" height="30.2969" rx="2.5" ry="2.5" style="stroke:#181818;stroke-width:0.5;" width="147.5195" x="118.9736" y="5"/><text fill="#000000" font-family="sans-serif" font-size="14" lengthAdjust="spacing" textLength="133.5195" x="125.9736" y="24.9951">PostgreSqlJsonTest</text><rect fill="#E2E2F0" height="30.2969" rx="2.5" ry="2.5" style="stroke:#181818;stroke-width:0.5;" width="147.5195" x="118.9736" y="604.5547"/><text fill="#000000" font-family="sans-serif" font-size="14" lengthAdjust="spacing" textLength="133.5195" x="125.9736" y="624.5498">PostgreSqlJsonTest</text><rect fill="#E2E2F0" height="30.2969" rx="2.5" ry="2.5" style="stroke:#181818;stroke-width:0.5;" width="117.5713" x="366.4282" y="5"/><text fill="#000000" font-family="sans-serif" font-size="14" lengthAdjust="spacing" textLength="103.5713" x="373.4282" y="24.9951">PostgreSqlJson</text><rect fill="#E2E2F0" height="30.2969" rx="2.5" ry="2.5" style="stroke:#181818;stroke-width:0.5;" width="117.5713" x="366.4282" y="604.5547"/><text fill="#000000" font-family="sans-serif" font-size="14" lengthAdjust="spacing" textLength="103.5713" x="373.4282" y="624.5498">PostgreSqlJson</text><rect fill="#E2E2F0" height="30.2969" rx="2.5" ry="2.5" style="stroke:#181818;stroke-width:0.5;" width="115.4248" x="648.7344" y="5"/><text fill="#000000" font-family="sans-serif" font-size="14" lengthAdjust="spacing" textLength="101.4248" x="655.7344" y="24.9951">EnrichmentOff</text><rect fill="#E2E2F0" height="30.2969" rx="2.5" ry="2.5" style="stroke:#181818;stroke-width:0.5;" width="115.4248" x="648.7344" y="604.5547"/><text fill="#000000" font-family="sans-serif" font-size="14" lengthAdjust="spacing" textLength="101.4248" x="655.7344" y="624.5498">EnrichmentOff</text><rect fill="#FFFFFF" height="520.125" style="stroke:#181818;stroke-width:1.0;" width="10" x="187.7334" y="67.4297"/><rect fill="#FFFFFF" height="287.0625" style="stroke:#181818;stroke-width:1.0;" width="10" x="420.2139" y="96.5625"/><rect fill="#FFFFFF" height="182.6641" style="stroke:#181818;stroke-width:1.0;" width="10" x="425.2139" y="157.8281"/><rect fill="#FFFFFF" height="98.3984" style="stroke:#181818;stroke-width:1.0;" width="10" x="430.2139" y="199.9609"/><rect fill="#FFFFFF" height="29.1328" style="stroke:#181818;stroke-width:1.0;" width="10" x="420.2139" y="412.7578"/><rect fill="#FFFFFF" height="87.3984" style="stroke:#181818;stroke-width:1.0;" width="10" x="420.2139" y="471.0234"/><rect fill="#FFFFFF" height="29.1328" style="stroke:#181818;stroke-width:1.0;" width="10" x="701.4468" y="234.0938"/><rect fill="#FFFFFF" height="29.1328" style="stroke:#181818;stroke-width:1.0;" width="10" x="701.4468" y="500.1563"/><polygon fill="#181818" points="175.7334,63.4297,185.7334,67.4297,175.7334,71.4297,179.7334,67.4297" style="stroke:#181818;stroke-width:1.0;"/><line style="stroke:#181818;stroke-width:1.0;" x1="0" x2="181.7334" y1="67.4297" y2="67.4297"/><text fill="#000000" font-family="sans-serif" font-size="13" lengthAdjust="spacing" textLength="107.9546" x="7" y="62.3638">testSavePosition</text><text fill="#808080" font-family="sans-serif" font-size="13" lengthAdjust="spacing" textLength="52.5142" x="123.2192" y="62.3638">1.06 ms</text><polygon fill="#181818" points="408.2139,92.5625,418.2139,96.5625,408.2139,100.5625,412.2139,96.5625" style="stroke:#181818;stroke-width:1.0;"/><line style="stroke:#181818;stroke-width:1.0;" x1="197.7334" x2="414.2139" y1="96.5625" y2="96.5625"/><text fill="#000000" font-family="sans-serif" font-size="13" lengthAdjust="spacing" textLength="102.3433" x="204.7334" y="91.4966">initialLogImport</text><text fill="#808080" font-family="sans-serif" font-size="13" lengthAdjust="spacing" textLength="60.7852" x="315.3413" y="91.4966">0.481 ms</text><path d="M356.4282,111.5625 L433.0522,111.5625 L433.0522,118.6953 L423.0522,128.6953 L356.4282,128.6953 L356.4282,111.5625 " fill="#EEEEEE" style="stroke:#000000;stroke-width:1.5;"/><rect fill="none" height="243.9297" style="stroke:#000000;stroke-width:1.5;" width="417.731" x="356.4282" y="111.5625"/><text fill="#000000" font-family="sans-serif" font-size="13" font-weight="bold" lengthAdjust="spacing" textLength="31.624" x="371.4282" y="124.6294">loop</text><text fill="#000000" font-family="sans-serif" font-size="11" font-weight="bold" lengthAdjust="spacing" textLength="51.0093" x="448.0522" y="123.7729">[3 times</text><text fill="#808080" font-family="sans-serif" font-size="11" font-weight="bold" lengthAdjust="spacing" textLength="56.6328" x="506.7207" y="123.7729">0.418 ms</text><text fill="#000000" font-family="sans-serif" font-size="11" font-weight="bold" lengthAdjust="spacing" textLength="5.0273" x="563.3535" y="123.7729">]</text><line style="stroke:#181818;stroke-width:1.0;" x1="430.2139" x2="477.2139" y1="144.8281" y2="144.8281"/><line style="stroke:#181818;stroke-width:1.0;" x1="477.2139" x2="477.2139" y1="144.8281" y2="157.8281"/><line style="stroke:#181818;stroke-width:1.0;" x1="436.2139" x2="477.2139" y1="157.8281" y2="157.8281"/><polygon fill="#181818" points="446.2139,153.8281,436.2139,157.8281,446.2139,161.8281,442.2139,157.8281" style="stroke:#181818;stroke-width:1.0;"/><text fill="#000000" font-family="sans-serif" font-size="13" lengthAdjust="spacing" textLength="79.8091" x="442.2139" y="139.7622">readJsonLog</text><text fill="#808080" font-family="sans-serif" font-size="13" lengthAdjust="spacing" textLength="60.7852" x="530.2876" y="139.7622">0.418 ms</text><line style="stroke:#181818;stroke-width:1.0;" x1="435.2139" x2="482.2139" y1="186.9609" y2="186.9609"/><line style="stroke:#181818;stroke-width:1.0;" x1="482.2139" x2="482.2139" y1="186.9609" y2="199.9609"/><line style="stroke:#181818;stroke-width:1.0;" x1="441.2139" x2="482.2139" y1="199.9609" y2="199.9609"/><polygon fill="#181818" points="451.2139,195.9609,441.2139,199.9609,451.2139,203.9609,447.2139,199.9609" style="stroke:#181818;stroke-width:1.0;"/><text fill="#000000" font-family="sans-serif" font-size="13" lengthAdjust="spacing" textLength="86.874" x="447.2139" y="181.895">parseLogLine</text><text fill="#808080" font-family="sans-serif" font-size="13" lengthAdjust="spacing" textLength="60.7852" x="542.3525" y="181.895">0.248 ms</text><polygon fill="#181818" points="689.4468,230.0938,699.4468,234.0938,689.4468,238.0938,693.4468,234.0938" style="stroke:#181818;stroke-width:1.0;"/><line style="stroke:#181818;stroke-width:1.0;" x1="440.2139" x2="695.4468" y1="234.0938" y2="234.0938"/><text fill="#000000" font-family="sans-serif" font-size="13" lengthAdjust="spacing" textLength="164.9121" x="447.2139" y="229.0278">enricherApplicationName</text><text fill="#808080" font-family="sans-serif" font-size="13" lengthAdjust="spacing" textLength="69.0562" x="620.3906" y="229.0278">0.0554 ms</text><polygon fill="#181818" points="451.2139,259.2266,441.2139,263.2266,451.2139,267.2266,447.2139,263.2266" style="stroke:#181818;stroke-width:1.0;"/><line style="stroke:#181818;stroke-width:1.0;stroke-dasharray:2.0,2.0;" x1="445.2139" x2="705.4468" y1="263.2266" y2="263.2266"/><text fill="#000000" font-family="sans-serif" font-size="13" lengthAdjust="spacing" textLength="27.5107" x="457.2139" y="258.1606">void</text><line style="stroke:#181818;stroke-width:1.0;stroke-dasharray:2.0,2.0;" x1="378.2139" x2="429.2139" y1="297.3594" y2="297.3594"/><line style="stroke:#181818;stroke-width:1.0;stroke-dasharray:2.0,2.0;" x1="378.2139" x2="378.2139" y1="297.3594" y2="310.3594"/><line style="stroke:#181818;stroke-width:1.0;stroke-dasharray:2.0,2.0;" x1="378.2139" x2="418.2139" y1="310.3594" y2="310.3594"/><polygon fill="#181818" points="408.2139,306.3594,418.2139,310.3594,408.2139,314.3594,412.2139,310.3594" style="stroke:#181818;stroke-width:1.0;"/><text fill="#000000" font-family="sans-serif" font-size="13" lengthAdjust="spacing" textLength="27.5107" x="377.2139" y="292.2935">void</text><line style="stroke:#181818;stroke-width:1.0;stroke-dasharray:2.0,2.0;" x1="378.2139" x2="424.2139" y1="339.4922" y2="339.4922"/><line style="stroke:#181818;stroke-width:1.0;stroke-dasharray:2.0,2.0;" x1="378.2139" x2="378.2139" y1="339.4922" y2="352.4922"/><line style="stroke:#181818;stroke-width:1.0;stroke-dasharray:2.0,2.0;" x1="378.2139" x2="418.2139" y1="352.4922" y2="352.4922"/><polygon fill="#181818" points="408.2139,348.4922,418.2139,352.4922,408.2139,356.4922,412.2139,352.4922" style="stroke:#181818;stroke-width:1.0;"/><text fill="#000000" font-family="sans-serif" font-size="13" lengthAdjust="spacing" textLength="27.5107" x="377.2139" y="334.4263">void</text><polygon fill="#181818" points="208.7334,379.625,198.7334,383.625,208.7334,387.625,204.7334,383.625" style="stroke:#181818;stroke-width:1.0;"/><line style="stroke:#181818;stroke-width:1.0;stroke-dasharray:2.0,2.0;" x1="202.7334" x2="424.2139" y1="383.625" y2="383.625"/><text fill="#000000" font-family="sans-serif" font-size="13" lengthAdjust="spacing" textLength="27.5107" x="214.7334" y="378.5591">void</text><polygon fill="#181818" points="408.2139,408.7578,418.2139,412.7578,408.2139,416.7578,412.2139,412.7578" style="stroke:#181818;stroke-width:1.0;"/><line style="stroke:#181818;stroke-width:1.0;" x1="197.7334" x2="414.2139" y1="412.7578" y2="412.7578"/><text fill="#000000" font-family="sans-serif" font-size="13" lengthAdjust="spacing" textLength="134.4307" x="204.7334" y="407.6919">saveLogFilesPosition</text><text fill="#808080" font-family="sans-serif" font-size="13" lengthAdjust="spacing" textLength="60.7852" x="347.4287" y="407.6919">0.122 ms</text><polygon fill="#181818" points="208.7334,437.8906,198.7334,441.8906,208.7334,445.8906,204.7334,441.8906" style="stroke:#181818;stroke-width:1.0;"/><line style="stroke:#181818;stroke-width:1.0;stroke-dasharray:2.0,2.0;" x1="202.7334" x2="424.2139" y1="441.8906" y2="441.8906"/><text fill="#000000" font-family="sans-serif" font-size="13" lengthAdjust="spacing" textLength="27.5107" x="214.7334" y="436.8247">void</text><polygon fill="#181818" points="408.2139,467.0234,418.2139,471.0234,408.2139,475.0234,412.2139,471.0234" style="stroke:#181818;stroke-width:1.0;"/><line style="stroke:#181818;stroke-width:1.0;" x1="197.7334" x2="414.2139" y1="471.0234" y2="471.0234"/><text fill="#000000" font-family="sans-serif" font-size="13" lengthAdjust="spacing" textLength="33.4839" x="204.7334" y="465.9575">close</text><text fill="#808080" font-family="sans-serif" font-size="13" lengthAdjust="spacing" textLength="69.0562" x="246.4819" y="465.9575">0.0452 ms</text><polygon fill="#181818" points="689.4468,496.1563,699.4468,500.1563,689.4468,504.1563,693.4468,500.1563" style="stroke:#181818;stroke-width:1.0;"/><line style="stroke:#181818;stroke-width:1.0;" x1="430.2139" x2="695.4468" y1="500.1563" y2="500.1563"/><text fill="#000000" font-family="sans-serif" font-size="13" lengthAdjust="spacing" textLength="33.4839" x="437.2139" y="495.0903">close</text><text fill="#808080" font-family="sans-serif" font-size="13" lengthAdjust="spacing" textLength="69.0562" x="478.9624" y="495.0903">0.0192 ms</text><polygon fill="#181818" points="441.2139,525.2891,431.2139,529.2891,441.2139,533.2891,437.2139,529.2891" style="stroke:#181818;stroke-width:1.0;"/><line style="stroke:#181818;stroke-width:1.0;stroke-dasharray:2.0,2.0;" x1="435.2139" x2="705.4468" y1="529.2891" y2="529.2891"/><text fill="#000000" font-family="sans-serif" font-size="13" lengthAdjust="spacing" textLength="27.5107" x="447.2139" y="524.2231">void</text><polygon fill="#181818" points="208.7334,554.4219,198.7334,558.4219,208.7334,562.4219,204.7334,558.4219" style="stroke:#181818;stroke-width:1.0;"/><line style="stroke:#181818;stroke-width:1.0;stroke-dasharray:2.0,2.0;" x1="202.7334" x2="424.2139" y1="558.4219" y2="558.4219"/><text fill="#000000" font-family="sans-serif" font-size="13" lengthAdjust="spacing" textLength="27.5107" x="214.7334" y="553.356">void</text><polygon fill="#181818" points="11,583.5547,1,587.5547,11,591.5547,7,587.5547" style="stroke:#181818;stroke-width:1.0;"/><line style="stroke:#181818;stroke-width:1.0;stroke-dasharray:2.0,2.0;" x1="5" x2="191.7334" y1="587.5547" y2="587.5547"/><text fill="#000000" font-family="sans-serif" font-size="13" lengthAdjust="spacing" textLength="27.5107" x="17" y="582.4888">void</text><!--SRC=[lPJ1QuCm5CRl_IiUlTkfqz6923jqi27ReBlr5FJL1JJ9ab3OVx_KxT2OQ1N6Bg99tlVx4hyNGQIc5HM4QNZZIZSIzv_ji-Bi7PK6ec3j3gzNOhJCKs8ltp59guyEcNuz7llLriXw1N082XUQWJRFFJcXcQEQ6bHUyPRBh97agu1e4zv1f_ARVh0mCgJIz4GqUZPcPi4pFEHcG9b1aRRapLCdkDGsCzmasyY6ZcBxEO2ISm6te6c7oX6BjaCnrwVhKIAfps_6v4p5QOjpcEQFAZJ0aZ8SGkF42vs3TS5ME3B0_XFbWn0jhSWv1Y-aSoo4QPhuFLouiAGdJEH1C71nuhIs2cgygkfe3ezq87eXEN9SonIlwUrOFT8LKyhJgdCwJ9cEDa5wf2qgVsU7coYEbtJPVs-XQhbo8vYayRAhuKhq_PJeFdQ3FXd61U6UZFNVdVB1AVovy7-BHqlFgxu1]--></g></svg>