<svg xmlns="http://www.w3.org/2000/svg" xmlns:xlink="http://www.w3.org/1999/xlink" contentStyleType="text/css" height="355px" preserveAspectRatio="none" style="width:688px;height:355px;background:#FFFFFF;" version="1.1" viewBox="0 0 688 355" width="688px" zoomAndPan="magnify"><defs/><g><rect fill="#FFFFFF" height="235.0625" style="stroke:#181818;stroke-width:1.0;" width="10" x="154.1035" y="67.4297"/><rect fill="#FFFFFF" height="176.7969" style="stroke:#181818;stroke-width:1.0;" width="10" x="339.0273" y="96.5625"/><rect fill="#FFFFFF" height="29.1328" style="stroke:#181818;stroke-width:1.0;" width="10" x="610.2603" y="149.8281"/><rect fill="#FFFFFF" height="29.1328" style="stroke:#181818;stroke-width:1.0;" width="10" x="610.2603" y="215.0938"/><rect fill="none" height="75.3984" style="stroke:#000000;stroke-width:1.5;" width="407.731" x="275.2417" y="111.5625"/><line style="stroke:#181818;stroke-width:0.5;stroke-dasharray:5.0,5.0;" x1="158.3438" x2="158.3438" y1="36.2969" y2="320.4922"/><line style="stroke:#181818;stroke-width:0.5;stroke-dasharray:5.0,5.0;" x1="343.2417" x2="343.2417" y1="36.2969" y2="320.4922"/><line style="stroke:#181818;stroke-width:0.5;stroke-dasharray:5.0,5.0;" x1="614.5479" x2="614.5479" y1="36.2969" y2="320.4922"/><rect fill="#E2E2F0" height="30.2969" rx="2.5" ry="2.5" style="stroke:#181818;stroke-width:0.5;" width="147.5195" x="85.3438" y="5"/><text fill="#000000" font-family="sans-serif" font-size="14" lengthAdjust="spacing" textLength="133.5195" x="92.3438" y="24.9951">PostgreSqlJsonTest</text><rect fill="#E2E2F0" height="30.2969" rx="2.5" ry="2.5" style="stroke:#181818;stroke-width:0.5;" width="147.5195" x="85.3438" y="319.4922"/><text fill="#000000" font-family="sans-serif" font-size="14" lengthAdjust="spacing" textLength="133.5195" x="92.3438" y="339.4873">PostgreSqlJsonTest</text><rect fill="#E2E2F0" height="30.2969" rx="2.5" ry="2.5" style="stroke:#181818;stroke-width:0.5;" width="117.5713" x="285.2417" y="5"/><text fill="#000000" font-family="sans-serif" font-size="14" lengthAdjust="spacing" textLength="103.5713" x="292.2417" y="24.9951">PostgreSqlJson</text><rect fill="#E2E2F0" height="30.2969" rx="2.5" ry="2.5" style="stroke:#181818;stroke-width:0.5;" width="117.5713" x="285.2417" y="319.4922"/><text fill="#000000" font-family="sans-serif" font-size="14" lengthAdjust="spacing" textLength="103.5713" x="292.2417" y="339.4873">PostgreSqlJson</text><rect fill="#E2E2F0" height="30.2969" rx="2.5" ry="2.5" style="stroke:#181818;stroke-width:0.5;" width="115.4248" x="557.5479" y="5"/><text fill="#000000" font-family="sans-serif" font-size="14" lengthAdjust="spacing" textLength="101.4248" x="564.5479" y="24.9951">EnrichmentOff</text><rect fill="#E2E2F0" height="30.2969" rx="2.5" ry="2.5" style="stroke:#181818;stroke-width:0.5;" width="115.4248" x="557.5479" y="319.4922"/><text fill="#000000" font-family="sans-serif" font-size="14" lengthAdjust="spacing" textLength="101.4248" x="564.5479" y="339.4873">EnrichmentOff</text><rect fill="#FFFFFF" height="235.0625" style="stroke:#181818;stroke-width:1.0;" width="10" x="154.1035" y="67.4297"/><rect fill="#FFFFFF" height="176.7969" style="stroke:#181818;stroke-width:1.0;" width="10" x="339.0273" y="96.5625"/><rect fill="#FFFFFF" height="29.1328" style="stroke:#181818;stroke-width:1.0;" width="10" x="610.2603" y="149.8281"/><rect fill="#FFFFFF" height="29.1328" style="stroke:#181818;stroke-width:1.0;" width="10" x="610.2603" y="215.0938"/><polygon fill="#181818" points="142.1035,63.4297,152.1035,67.4297,142.1035,71.4297,146.1035,67.4297" style="stroke:#181818;stroke-width:1.0;"/><line style="stroke:#181818;stroke-width:1.0;" x1="0" x2="148.1035" y1="67.4297" y2="67.4297"/><text fill="#000000" font-family="sans-serif" font-size="13" lengthAdjust="spacing" textLength="74.3247" x="7" y="62.3638">logWarning</text><text fill="#808080" font-family="sans-serif" font-size="13" lengthAdjust="spacing" textLength="52.5142" x="89.5894" y="62.3638">0.31 ms</text><polygon fill="#181818" points="327.0273,92.5625,337.0273,96.5625,327.0273,100.5625,331.0273,96.5625" style="stroke:#181818;stroke-width:1.0;"/><line style="stroke:#181818;stroke-width:1.0;" x1="164.1035" x2="333.0273" y1="96.5625" y2="96.5625"/><text fill="#000000" font-family="sans-serif" font-size="13" lengthAdjust="spacing" textLength="86.874" x="171.1035" y="91.4966">parseLogLine</text><text fill="#808080" font-family="sans-serif" font-size="13" lengthAdjust="spacing" textLength="60.7852" x="266.2422" y="91.4966">0.268 ms</text><path d="M275.2417,111.5625 L351.8657,111.5625 L351.8657,118.6953 L341.8657,128.6953 L275.2417,128.6953 L275.2417,111.5625 " fill="#EEEEEE" style="stroke:#000000;stroke-width:1.5;"/><rect fill="none" height="75.3984" style="stroke:#000000;stroke-width:1.5;" width="407.731" x="275.2417" y="111.5625"/><text fill="#000000" font-family="sans-serif" font-size="13" font-weight="bold" lengthAdjust="spacing" textLength="31.624" x="290.2417" y="124.6294">loop</text><text fill="#000000" font-family="sans-serif" font-size="11" font-weight="bold" lengthAdjust="spacing" textLength="51.0093" x="366.8657" y="123.7729">[2 times</text><text fill="#808080" font-family="sans-serif" font-size="11" font-weight="bold" lengthAdjust="spacing" textLength="64.2866" x="425.5342" y="123.7729">0.0592 ms</text><text fill="#000000" font-family="sans-serif" font-size="11" font-weight="bold" lengthAdjust="spacing" textLength="5.0273" x="489.8208" y="123.7729">]</text><polygon fill="#181818" points="598.2603,145.8281,608.2603,149.8281,598.2603,153.8281,602.2603,149.8281" style="stroke:#181818;stroke-width:1.0;"/><line style="stroke:#181818;stroke-width:1.0;" x1="349.0273" x2="604.2603" y1="149.8281" y2="149.8281"/><text fill="#000000" font-family="sans-serif" font-size="13" lengthAdjust="spacing" textLength="164.9121" x="356.0273" y="144.7622">enricherApplicationName</text><text fill="#808080" font-family="sans-serif" font-size="13" lengthAdjust="spacing" textLength="69.0562" x="529.2041" y="144.7622">0.0592 ms</text><polygon fill="#181818" points="360.0273,174.9609,350.0273,178.9609,360.0273,182.9609,356.0273,178.9609" style="stroke:#181818;stroke-width:1.0;"/><line style="stroke:#181818;stroke-width:1.0;stroke-dasharray:2.0,2.0;" x1="354.0273" x2="614.2603" y1="178.9609" y2="178.9609"/><text fill="#000000" font-family="sans-serif" font-size="13" lengthAdjust="spacing" textLength="27.5107" x="366.0273" y="173.895">void</text><polygon fill="#181818" points="598.2603,211.0938,608.2603,215.0938,598.2603,219.0938,602.2603,215.0938" style="stroke:#181818;stroke-width:1.0;"/><line style="stroke:#181818;stroke-width:1.0;" x1="349.0273" x2="604.2603" y1="215.0938" y2="215.0938"/><text fill="#000000" font-family="sans-serif" font-size="13" lengthAdjust="spacing" textLength="89.7559" x="356.0273" y="210.0278">getStatement</text><text fill="#808080" font-family="sans-serif" font-size="13" lengthAdjust="spacing" textLength="77.3271" x="454.0479" y="210.0278">0.00971 ms</text><polygon fill="#181818" points="360.0273,240.2266,350.0273,244.2266,360.0273,248.2266,356.0273,244.2266" style="stroke:#181818;stroke-width:1.0;"/><line style="stroke:#181818;stroke-width:1.0;stroke-dasharray:2.0,2.0;" x1="354.0273" x2="614.2603" y1="244.2266" y2="244.2266"/><text fill="#000000" font-family="sans-serif" font-size="13" lengthAdjust="spacing" textLength="27.5107" x="366.0273" y="239.1606">void</text><polygon fill="#181818" points="175.1035,269.3594,165.1035,273.3594,175.1035,277.3594,171.1035,273.3594" style="stroke:#181818;stroke-width:1.0;"/><line style="stroke:#181818;stroke-width:1.0;stroke-dasharray:2.0,2.0;" x1="169.1035" x2="343.0273" y1="273.3594" y2="273.3594"/><text fill="#000000" font-family="sans-serif" font-size="13" lengthAdjust="spacing" textLength="27.5107" x="181.1035" y="268.2935">void</text><polygon fill="#181818" points="11,298.4922,1,302.4922,11,306.4922,7,302.4922" style="stroke:#181818;stroke-width:1.0;"/><line style="stroke:#181818;stroke-width:1.0;stroke-dasharray:2.0,2.0;" x1="5" x2="158.1035" y1="302.4922" y2="302.4922"/><text fill="#000000" font-family="sans-serif" font-size="13" lengthAdjust="spacing" textLength="27.5107" x="17" y="297.4263">void</text><!--SRC=[bPBDQiCm48JlUOh5TxUEItzYZA67N89f2odqa9DGDgh0bXHf2VJjgxYjgINRQOyUpNwpOzOmIv9BmnJ1YtOaB6wFpSPfzOgEW3b8OZbPcCcnaP6XVQsivEyjAde-73htG4aM0BkqYaCBQBHuOrP99Q3akj6s49PzL91TtIoXTULr9rOUm3Z94oCSgUHVOKGE4mlmEpkijQYbmZ0lltiO1av6Tcy0jTO6SY3PeWjXsUqg3sdnacar-4q5OFU9zj6OHd96Kgidrk9VwVs-0-n4U9ccGVf9otrltkCiRQr-h1Sg2QGjUSfPY7fag_jbN6Gs-1ybPYl4v-9PuRtqi5-ew1PsqU3NQNyFJuwUNPy0]--></g></svg>