<svg xmlns="http://www.w3.org/2000/svg" xmlns:xlink="http://www.w3.org/1999/xlink" contentStyleType="text/css" height="530px" preserveAspectRatio="none" style="width:1605px;height:530px;background:#000000;" version="1.1" viewBox="0 0 1605 530" width="1605px" zoomAndPan="magnify"><defs/><g><rect fill="none" height="233.8125" style="stroke:#999999;stroke-width:1.0;" width="10" x="368.9785" y="83.9375"/><rect fill="none" height="157.875" style="stroke:#999999;stroke-width:1.0;" width="10" x="585.5439" y="121.9063"/><rect fill="none" height="113.9063" style="stroke:#999999;stroke-width:1.0;" width="10" x="585.5439" y="355.7188"/><rect fill="none" height="37.9688" style="stroke:#999999;stroke-width:1.0;" width="10" x="811.7598" y="203.8438"/><rect fill="none" height="37.9688" style="stroke:#999999;stroke-width:1.0;" width="10" x="1037.0557" y="393.6875"/><line style="stroke:#999999;stroke-width:0.5;stroke-dasharray:5.0,5.0;" x1="373.8008" x2="373.8008" y1="43.9688" y2="487.625"/><line style="stroke:#999999;stroke-width:0.5;stroke-dasharray:5.0,5.0;" x1="590.1563" x2="590.1563" y1="43.9688" y2="487.625"/><line style="stroke:#999999;stroke-width:0.5;stroke-dasharray:5.0,5.0;" x1="815.9316" x2="815.9316" y1="43.9688" y2="487.625"/><line style="stroke:#999999;stroke-width:0.5;stroke-dasharray:5.0,5.0;" x1="1041.5879" x2="1041.5879" y1="43.9688" y2="487.625"/><line style="stroke:#999999;stroke-width:0.5;stroke-dasharray:5.0,5.0;" x1="1227.5234" x2="1227.5234" y1="43.9688" y2="487.625"/><rect fill="#555555" height="37.9688" rx="4" ry="4" style="stroke:#555555;stroke-width:1.0;" width="140.3555" x="303.8008" y="5"/><text fill="#FFFFFF" font-family="Verdana" font-size="12" lengthAdjust="spacing" textLength="116.3555" x="315.8008" y="28.1387">LogEnrichmentTest</text><rect fill="#555555" height="37.9688" rx="4" ry="4" style="stroke:#555555;stroke-width:1.0;" width="140.3555" x="303.8008" y="486.625"/><text fill="#FFFFFF" font-family="Verdana" font-size="12" lengthAdjust="spacing" textLength="116.3555" x="315.8008" y="509.7637">LogEnrichmentTest</text><rect fill="#555555" height="37.9688" rx="4" ry="4" style="stroke:#555555;stroke-width:1.0;" width="112.7754" x="534.1563" y="5"/><text fill="#FFFFFF" font-family="Verdana" font-size="12" lengthAdjust="spacing" textLength="88.7754" x="546.1563" y="28.1387">PostgreSqlJson</text><rect fill="#555555" height="37.9688" rx="4" ry="4" style="stroke:#555555;stroke-width:1.0;" width="112.7754" x="534.1563" y="486.625"/><text fill="#FFFFFF" font-family="Verdana" font-size="12" lengthAdjust="spacing" textLength="88.7754" x="546.1563" y="509.7637">PostgreSqlJson</text><rect fill="#555555" height="37.9688" rx="4" ry="4" style="stroke:#555555;stroke-width:1.0;" width="159.6563" x="736.9316" y="5"/><text fill="#FFFFFF" font-family="Verdana" font-size="12" lengthAdjust="spacing" textLength="135.6563" x="748.9316" y="28.1387">LogEnricherPostgreSql</text><rect fill="#555555" height="37.9688" rx="4" ry="4" style="stroke:#555555;stroke-width:1.0;" width="159.6563" x="736.9316" y="486.625"/><text fill="#FFFFFF" font-family="Verdana" font-size="12" lengthAdjust="spacing" textLength="135.6563" x="748.9316" y="509.7637">LogEnricherPostgreSql</text><rect fill="#555555" height="37.9688" rx="4" ry="4" style="stroke:#555555;stroke-width:1.0;" width="110.9355" x="986.5879" y="5"/><text fill="#FFFFFF" font-family="Verdana" font-size="12" lengthAdjust="spacing" textLength="86.9355" x="998.5879" y="28.1387">EnrichmentOff</text><rect fill="#555555" height="37.9688" rx="4" ry="4" style="stroke:#555555;stroke-width:1.0;" width="110.9355" x="986.5879" y="486.625"/><text fill="#FFFFFF" font-family="Verdana" font-size="12" lengthAdjust="spacing" textLength="86.9355" x="998.5879" y="509.7637">EnrichmentOff</text><rect fill="#555555" height="37.9688" rx="4" ry="4" style="stroke:#555555;stroke-width:1.0;" width="81.2578" x="1187.5234" y="5"/><text fill="#FFFFFF" font-family="Verdana" font-size="12" lengthAdjust="spacing" textLength="57.2578" x="1199.5234" y="28.1387">Database</text><rect fill="#555555" height="37.9688" rx="4" ry="4" style="stroke:#555555;stroke-width:1.0;" width="81.2578" x="1187.5234" y="486.625"/><text fill="#FFFFFF" font-family="Verdana" font-size="12" lengthAdjust="spacing" textLength="57.2578" x="1199.5234" y="509.7637">Database</text><rect fill="none" height="233.8125" style="stroke:#999999;stroke-width:1.0;" width="10" x="368.9785" y="83.9375"/><rect fill="none" height="157.875" style="stroke:#999999;stroke-width:1.0;" width="10" x="585.5439" y="121.9063"/><rect fill="none" height="113.9063" style="stroke:#999999;stroke-width:1.0;" width="10" x="585.5439" y="355.7188"/><rect fill="none" height="37.9688" style="stroke:#999999;stroke-width:1.0;" width="10" x="811.7598" y="203.8438"/><rect fill="none" height="37.9688" style="stroke:#999999;stroke-width:1.0;" width="10" x="1037.0557" y="393.6875"/><polygon fill="#4362B1" points="356.9785,79.9375,366.9785,83.9375,356.9785,87.9375,360.9785,83.9375" style="stroke:#4362B1;stroke-width:1.0;"/><line style="stroke:#4362B1;stroke-width:3.0;" x1="0" x2="362.9785" y1="83.9375" y2="83.9375"/><text fill="#FFFFFF" font-family="Verdana" font-size="12" lengthAdjust="spacing" textLength="283.875" x="12" y="74.1074">initLogEnricherWithDbHostWoPgStatStatement</text><text fill="#808080" font-family="Verdana" font-size="12" lengthAdjust="spacing" textLength="48.4746" x="303.5039" y="74.1074">16.7 ms</text><polygon fill="#4362B1" points="573.5439,117.9063,583.5439,121.9063,573.5439,125.9063,577.5439,121.9063" style="stroke:#4362B1;stroke-width:1.0;"/><line style="stroke:#4362B1;stroke-width:3.0;" x1="378.9785" x2="579.5439" y1="121.9063" y2="121.9063"/><text fill="#FFFFFF" font-family="Verdana" font-size="12" lengthAdjust="spacing" textLength="90.5977" x="390.9785" y="112.0762">initLogEnricher</text><text fill="#808080" font-family="Verdana" font-size="12" lengthAdjust="spacing" textLength="48.4746" x="489.2051" y="112.0762">16.1 ms</text><polygon fill="#4362B1" points="1216.1523,158.875,1226.1523,162.875,1216.1523,166.875,1220.1523,162.875" style="stroke:#4362B1;stroke-width:1.0;"/><line style="stroke:#4362B1;stroke-width:3.0;" x1="595.5439" x2="1222.1523" y1="162.875" y2="162.875"/><text fill="#FFFFFF" font-family="Verdana" font-size="12" lengthAdjust="spacing" textLength="318.5508" x="607.5439" y="153.0449">select query from pg_stat_statements where queryid</text><text fill="#808080" font-family="Verdana" font-size="12" lengthAdjust="spacing" textLength="63.7441" x="933.7236" y="153.0449">0.0336 ms</text><path d="M1233,138.9063 L1233,163.9063 A4,4 0 0 0 1237,167.9063 L1594,167.9063 A4,4 0 0 0 1598,163.9063 L1598,144.9063 L1588,134.9063 L1237,134.9063 A4,4 0 0 0 1233,138.9063 " fill="#4362B1" style="stroke:#000000;stroke-width:1.0;"/><path d="M1588,134.9063 L1588,142.9063 A2,2 0 0 0 1590,144.9063 L1598,144.9063 L1588,134.9063 " fill="#4362B1" style="stroke:#000000;stroke-width:1.0;"/><text fill="#FFFFFF" font-family="Verdana" font-size="12" lengthAdjust="spacing" textLength="334.9746" x="1244" y="156.0449">select query from pg_stat_statements where queryid=?</text><polygon fill="#4362B1" points="799.7598,199.8438,809.7598,203.8438,799.7598,207.8438,803.7598,203.8438" style="stroke:#4362B1;stroke-width:1.0;"/><line style="stroke:#4362B1;stroke-width:3.0;" x1="595.5439" x2="805.7598" y1="203.8438" y2="203.8438"/><text fill="#FFFFFF" font-family="Verdana" font-size="12" lengthAdjust="spacing" textLength="82.8516" x="607.5439" y="194.0137">getStatement</text><text fill="#808080" font-family="Verdana" font-size="12" lengthAdjust="spacing" textLength="48.4746" x="698.0244" y="194.0137">5.66 ms</text><polygon fill="#4362B1" points="606.5439,237.8125,596.5439,241.8125,606.5439,245.8125,602.5439,241.8125" style="stroke:#4362B1;stroke-width:1.0;"/><line style="stroke:#4362B1;stroke-width:3.0;stroke-dasharray:2.0,2.0;" x1="600.5439" x2="815.7598" y1="241.8125" y2="241.8125"/><text fill="#FFFFFF" font-family="Verdana" font-size="12" font-style="italic" lengthAdjust="spacing" textLength="63.8789" x="617.5439" y="231.9824">exception!</text><polygon fill="#4362B1" points="389.9785,275.7813,379.9785,279.7813,389.9785,283.7813,385.9785,279.7813" style="stroke:#4362B1;stroke-width:1.0;"/><line style="stroke:#4362B1;stroke-width:3.0;stroke-dasharray:2.0,2.0;" x1="383.9785" x2="589.5439" y1="279.7813" y2="279.7813"/><text fill="#FFFFFF" font-family="Verdana" font-size="12" font-style="italic" lengthAdjust="spacing" textLength="63.8789" x="400.9785" y="269.9512">exception!</text><polygon fill="#4362B1" points="11,313.75,1,317.75,11,321.75,7,317.75" style="stroke:#4362B1;stroke-width:1.0;"/><line style="stroke:#4362B1;stroke-width:3.0;stroke-dasharray:2.0,2.0;" x1="5" x2="372.9785" y1="317.75" y2="317.75"/><text fill="#FFFFFF" font-family="Verdana" font-size="12" lengthAdjust="spacing" textLength="25.3945" x="22" y="307.9199">void</text><polygon fill="#4362B1" points="573.5439,351.7188,583.5439,355.7188,573.5439,359.7188,577.5439,355.7188" style="stroke:#4362B1;stroke-width:1.0;"/><line style="stroke:#4362B1;stroke-width:3.0;" x1="0" x2="579.5439" y1="355.7188" y2="355.7188"/><text fill="#FFFFFF" font-family="Verdana" font-size="12" lengthAdjust="spacing" textLength="30.9082" x="12" y="345.8887">close</text><text fill="#808080" font-family="Verdana" font-size="12" lengthAdjust="spacing" textLength="63.7441" x="50.5371" y="345.8887">0.0271 ms</text><polygon fill="#4362B1" points="1025.0557,389.6875,1035.0557,393.6875,1025.0557,397.6875,1029.0557,393.6875" style="stroke:#4362B1;stroke-width:1.0;"/><line style="stroke:#4362B1;stroke-width:3.0;" x1="595.5439" x2="1031.0557" y1="393.6875" y2="393.6875"/><text fill="#FFFFFF" font-family="Verdana" font-size="12" lengthAdjust="spacing" textLength="30.9082" x="607.5439" y="383.8574">close</text><text fill="#808080" font-family="Verdana" font-size="12" lengthAdjust="spacing" textLength="63.7441" x="646.0811" y="383.8574">0.0112 ms</text><polygon fill="#4362B1" points="606.5439,427.6563,596.5439,431.6563,606.5439,435.6563,602.5439,431.6563" style="stroke:#4362B1;stroke-width:1.0;"/><line style="stroke:#4362B1;stroke-width:3.0;stroke-dasharray:2.0,2.0;" x1="600.5439" x2="1041.0557" y1="431.6563" y2="431.6563"/><text fill="#FFFFFF" font-family="Verdana" font-size="12" lengthAdjust="spacing" textLength="25.3945" x="617.5439" y="421.8262">void</text><polygon fill="#4362B1" points="11,465.625,1,469.625,11,473.625,7,469.625" style="stroke:#4362B1;stroke-width:1.0;"/><line style="stroke:#4362B1;stroke-width:3.0;stroke-dasharray:2.0,2.0;" x1="5" x2="589.5439" y1="469.625" y2="469.625"/><text fill="#FFFFFF" font-family="Verdana" font-size="12" lengthAdjust="spacing" textLength="25.3945" x="22" y="459.7949">void</text><!--SRC=[bLDDQzmm4BtxLqpsRZjEw0QCwrmI2AMqWHHos4FHohEsm9OKQPmq_xwADyjQbWpjOGqx7- -zcNcw49BtOuEZwQ4ZqhRCSyFUibPGD-v7YuOhIIWfush8MoIczS1qhdicQHpwb3eSC1-OaFanTOnasYKJpGm9BhIhXU-glPT6y6vmQB_G4Z0Bco2wyPeUbQNMuDDB_yqgENNueKsS0ysvpEUPP_pciuwVXyFKv4NyuZj6RCyiJdMdFvi4O9VMmKmb22be9k7PRVTk_-24FAl7zeaOVVpmenughdfbojQmzngARNO3WwtoALWxVCP9lBhQS9yk2M4qhVs51Le2mi8dd57wI5CE5i6qFYsZ18izSeAN4Sqx78mQGBU_hHjq-apJMdXp4l1O8nfVosLsUNszNQe1-A6S5YFQZfB_f_Xw-uboBnkG3cbbZAXXId0lOELKNx9jH6juhZbUbBjAqnNoIjJuXwCceUH5bOiJIOF_G1Cum_4ihH4dcC473jZDrPxz_gf4ayI5pUow2yt9U-KUrT86LpV5oYk8M79vIUyLhp4KnTMgxJs097gm1SVd-Du2bYYxoFx3jVaLVm40]--></g></svg>