<svg xmlns="http://www.w3.org/2000/svg" xmlns:xlink="http://www.w3.org/1999/xlink" contentStyleType="text/css" height="739px" preserveAspectRatio="none" style="width:791px;height:739px;background:#000000;" version="1.1" viewBox="0 0 791 739" width="791px" zoomAndPan="magnify"><defs/><g><rect fill="none" height="594.5313" style="stroke:#999999;stroke-width:1.0;" width="10" x="187.209" y="83.9375"/><rect fill="none" height="366.7188" style="stroke:#999999;stroke-width:1.0;" width="10" x="402.8193" y="121.9063"/><rect fill="none" height="226.8438" style="stroke:#999999;stroke-width:1.0;" width="10" x="407.8193" y="209.8125"/><rect fill="none" height="124.9063" style="stroke:#999999;stroke-width:1.0;" width="10" x="412.8193" y="260.7813"/><rect fill="none" height="113.9063" style="stroke:#999999;stroke-width:1.0;" width="10" x="402.8193" y="526.5938"/><rect fill="none" height="37.9688" style="stroke:#999999;stroke-width:1.0;" width="10" x="675.4189" y="303.75"/><rect fill="none" height="37.9688" style="stroke:#999999;stroke-width:1.0;" width="10" x="675.4189" y="564.5625"/><rect fill="none" height="314.75" rx="4" ry="4" style="stroke:#4362B1;stroke-width:1.5;" width="484.4551" x="301.4316" y="136.9063"/><line style="stroke:#999999;stroke-width:0.5;stroke-dasharray:5.0,5.0;" x1="191.9863" x2="191.9863" y1="43.9688" y2="696.4688"/><line style="stroke:#999999;stroke-width:0.5;stroke-dasharray:5.0,5.0;" x1="407.4316" x2="407.4316" y1="43.9688" y2="696.4688"/><line style="stroke:#999999;stroke-width:0.5;stroke-dasharray:5.0,5.0;" x1="679.9512" x2="679.9512" y1="43.9688" y2="696.4688"/><rect fill="#555555" height="37.9688" rx="4" ry="4" style="stroke:#555555;stroke-width:1.0;" width="138.4453" x="122.9863" y="5"/><text fill="#FFFFFF" font-family="Verdana" font-size="12" lengthAdjust="spacing" textLength="114.4453" x="134.9863" y="28.1387">PostgreSqlJsonTest</text><rect fill="#555555" height="37.9688" rx="4" ry="4" style="stroke:#555555;stroke-width:1.0;" width="138.4453" x="122.9863" y="695.4688"/><text fill="#FFFFFF" font-family="Verdana" font-size="12" lengthAdjust="spacing" textLength="114.4453" x="134.9863" y="718.6074">PostgreSqlJsonTest</text><rect fill="#555555" height="37.9688" rx="4" ry="4" style="stroke:#555555;stroke-width:1.0;" width="112.7754" x="351.4316" y="5"/><text fill="#FFFFFF" font-family="Verdana" font-size="12" lengthAdjust="spacing" textLength="88.7754" x="363.4316" y="28.1387">PostgreSqlJson</text><rect fill="#555555" height="37.9688" rx="4" ry="4" style="stroke:#555555;stroke-width:1.0;" width="112.7754" x="351.4316" y="695.4688"/><text fill="#FFFFFF" font-family="Verdana" font-size="12" lengthAdjust="spacing" textLength="88.7754" x="363.4316" y="718.6074">PostgreSqlJson</text><rect fill="#555555" height="37.9688" rx="4" ry="4" style="stroke:#555555;stroke-width:1.0;" width="110.9355" x="624.9512" y="5"/><text fill="#FFFFFF" font-family="Verdana" font-size="12" lengthAdjust="spacing" textLength="86.9355" x="636.9512" y="28.1387">EnrichmentOff</text><rect fill="#555555" height="37.9688" rx="4" ry="4" style="stroke:#555555;stroke-width:1.0;" width="110.9355" x="624.9512" y="695.4688"/><text fill="#FFFFFF" font-family="Verdana" font-size="12" lengthAdjust="spacing" textLength="86.9355" x="636.9512" y="718.6074">EnrichmentOff</text><rect fill="none" height="594.5313" style="stroke:#999999;stroke-width:1.0;" width="10" x="187.209" y="83.9375"/><rect fill="none" height="366.7188" style="stroke:#999999;stroke-width:1.0;" width="10" x="402.8193" y="121.9063"/><rect fill="none" height="226.8438" style="stroke:#999999;stroke-width:1.0;" width="10" x="407.8193" y="209.8125"/><rect fill="none" height="124.9063" style="stroke:#999999;stroke-width:1.0;" width="10" x="412.8193" y="260.7813"/><rect fill="none" height="113.9063" style="stroke:#999999;stroke-width:1.0;" width="10" x="402.8193" y="526.5938"/><rect fill="none" height="37.9688" style="stroke:#999999;stroke-width:1.0;" width="10" x="675.4189" y="303.75"/><rect fill="none" height="37.9688" style="stroke:#999999;stroke-width:1.0;" width="10" x="675.4189" y="564.5625"/><polygon fill="#4362B1" points="175.209,79.9375,185.209,83.9375,175.209,87.9375,179.209,83.9375" style="stroke:#4362B1;stroke-width:1.0;"/><line style="stroke:#4362B1;stroke-width:3.0;" x1="0" x2="181.209" y1="83.9375" y2="83.9375"/><text fill="#FFFFFF" font-family="Verdana" font-size="12" lengthAdjust="spacing" textLength="94.4707" x="12" y="74.1074">initialLogImport</text><text fill="#808080" font-family="Verdana" font-size="12" lengthAdjust="spacing" textLength="56.1094" x="114.0996" y="74.1074">0.561 ms</text><polygon fill="#4362B1" points="390.8193,117.9063,400.8193,121.9063,390.8193,125.9063,394.8193,121.9063" style="stroke:#4362B1;stroke-width:1.0;"/><line style="stroke:#4362B1;stroke-width:3.0;" x1="197.209" x2="396.8193" y1="121.9063" y2="121.9063"/><text fill="#FFFFFF" font-family="Verdana" font-size="12" lengthAdjust="spacing" textLength="94.4707" x="209.209" y="112.0762">initialLogImport</text><text fill="#808080" font-family="Verdana" font-size="12" lengthAdjust="spacing" textLength="56.1094" x="311.3086" y="112.0762">0.461 ms</text><path d="M305.4316,136.9063 L385.623,136.9063 L385.623,152.875 L375.623,162.875 L301.4316,162.875 L301.4316,140.9063 A4,4 0 0 1 305.4316,136.9063 " fill="#4362B1" style="stroke:#4362B1;stroke-width:1.5;"/><rect fill="none" height="314.75" rx="4" ry="4" style="stroke:#4362B1;stroke-width:1.5;" width="484.4551" x="301.4316" y="136.9063"/><text fill="#FFFFFF" font-family="Verdana" font-size="12" font-weight="bold" lengthAdjust="spacing" textLength="29.1914" x="321.4316" y="154.0449">loop</text><text fill="#4362B1" font-family="Verdana" font-size="12" font-weight="bold" lengthAdjust="spacing" textLength="55.6465" x="405.623" y="155.0449">[2 times</text><text fill="#808080" font-family="Verdana" font-size="12" font-weight="bold" lengthAdjust="spacing" textLength="53.4316" x="469.625" y="155.0449">0.35 ms</text><text fill="#4362B1" font-family="Verdana" font-size="12" font-weight="bold" lengthAdjust="spacing" textLength="5.4844" x="523.0566" y="155.0449">]</text><line style="stroke:#4362B1;stroke-width:3.0;" x1="412.8193" x2="459.8193" y1="196.8125" y2="196.8125"/><line style="stroke:#4362B1;stroke-width:3.0;" x1="459.8193" x2="459.8193" y1="196.8125" y2="209.8125"/><line style="stroke:#4362B1;stroke-width:3.0;" x1="418.8193" x2="459.8193" y1="209.8125" y2="209.8125"/><polygon fill="#4362B1" points="428.8193,205.8125,418.8193,209.8125,428.8193,213.8125,424.8193,209.8125" style="stroke:#4362B1;stroke-width:1.0;"/><text fill="#FFFFFF" font-family="Verdana" font-size="12" lengthAdjust="spacing" textLength="73.6699" x="429.8193" y="186.9824">readJsonLog</text><text fill="#808080" font-family="Verdana" font-size="12" lengthAdjust="spacing" textLength="48.4746" x="511.1182" y="186.9824">0.35 ms</text><line style="stroke:#4362B1;stroke-width:3.0;" x1="417.8193" x2="464.8193" y1="247.7813" y2="247.7813"/><line style="stroke:#4362B1;stroke-width:3.0;" x1="464.8193" x2="464.8193" y1="247.7813" y2="260.7813"/><line style="stroke:#4362B1;stroke-width:3.0;" x1="423.8193" x2="464.8193" y1="260.7813" y2="260.7813"/><polygon fill="#4362B1" points="433.8193,256.7813,423.8193,260.7813,433.8193,264.7813,429.8193,260.7813" style="stroke:#4362B1;stroke-width:1.0;"/><text fill="#FFFFFF" font-family="Verdana" font-size="12" lengthAdjust="spacing" textLength="80.1914" x="434.8193" y="237.9512">parseLogLine</text><text fill="#808080" font-family="Verdana" font-size="12" lengthAdjust="spacing" textLength="56.1094" x="522.6396" y="237.9512">0.155 ms</text><polygon fill="#4362B1" points="663.4189,299.75,673.4189,303.75,663.4189,307.75,667.4189,303.75" style="stroke:#4362B1;stroke-width:1.0;"/><line style="stroke:#4362B1;stroke-width:3.0;" x1="422.8193" x2="669.4189" y1="303.75" y2="303.75"/><text fill="#FFFFFF" font-family="Verdana" font-size="12" lengthAdjust="spacing" textLength="152.2266" x="434.8193" y="293.9199">enricherApplicationName</text><text fill="#808080" font-family="Verdana" font-size="12" lengthAdjust="spacing" textLength="63.7441" x="594.6748" y="293.9199">0.0386 ms</text><polygon fill="#4362B1" points="433.8193,337.7188,423.8193,341.7188,433.8193,345.7188,429.8193,341.7188" style="stroke:#4362B1;stroke-width:1.0;"/><line style="stroke:#4362B1;stroke-width:3.0;stroke-dasharray:2.0,2.0;" x1="427.8193" x2="679.4189" y1="341.7188" y2="341.7188"/><text fill="#FFFFFF" font-family="Verdana" font-size="12" lengthAdjust="spacing" textLength="25.3945" x="444.8193" y="331.8887">void</text><line style="stroke:#4362B1;stroke-width:3.0;stroke-dasharray:2.0,2.0;" x1="360.8193" x2="411.8193" y1="384.6875" y2="384.6875"/><line style="stroke:#4362B1;stroke-width:3.0;stroke-dasharray:2.0,2.0;" x1="360.8193" x2="360.8193" y1="384.6875" y2="397.6875"/><line style="stroke:#4362B1;stroke-width:3.0;stroke-dasharray:2.0,2.0;" x1="360.8193" x2="400.8193" y1="397.6875" y2="397.6875"/><polygon fill="#4362B1" points="390.8193,393.6875,400.8193,397.6875,390.8193,401.6875,394.8193,397.6875" style="stroke:#4362B1;stroke-width:1.0;"/><text fill="#FFFFFF" font-family="Verdana" font-size="12" lengthAdjust="spacing" textLength="25.3945" x="364.8193" y="374.8574">void</text><line style="stroke:#4362B1;stroke-width:3.0;stroke-dasharray:2.0,2.0;" x1="360.8193" x2="406.8193" y1="435.6563" y2="435.6563"/><line style="stroke:#4362B1;stroke-width:3.0;stroke-dasharray:2.0,2.0;" x1="360.8193" x2="360.8193" y1="435.6563" y2="448.6563"/><line style="stroke:#4362B1;stroke-width:3.0;stroke-dasharray:2.0,2.0;" x1="360.8193" x2="400.8193" y1="448.6563" y2="448.6563"/><polygon fill="#4362B1" points="390.8193,444.6563,400.8193,448.6563,390.8193,452.6563,394.8193,448.6563" style="stroke:#4362B1;stroke-width:1.0;"/><text fill="#FFFFFF" font-family="Verdana" font-size="12" lengthAdjust="spacing" textLength="25.3945" x="364.8193" y="425.8262">void</text><polygon fill="#4362B1" points="208.209,484.625,198.209,488.625,208.209,492.625,204.209,488.625" style="stroke:#4362B1;stroke-width:1.0;"/><line style="stroke:#4362B1;stroke-width:3.0;stroke-dasharray:2.0,2.0;" x1="202.209" x2="406.8193" y1="488.625" y2="488.625"/><text fill="#FFFFFF" font-family="Verdana" font-size="12" lengthAdjust="spacing" textLength="25.3945" x="219.209" y="478.7949">void</text><polygon fill="#4362B1" points="390.8193,522.5938,400.8193,526.5938,390.8193,530.5938,394.8193,526.5938" style="stroke:#4362B1;stroke-width:1.0;"/><line style="stroke:#4362B1;stroke-width:3.0;" x1="197.209" x2="396.8193" y1="526.5938" y2="526.5938"/><text fill="#FFFFFF" font-family="Verdana" font-size="12" lengthAdjust="spacing" textLength="30.9082" x="209.209" y="516.7637">close</text><text fill="#808080" font-family="Verdana" font-size="12" lengthAdjust="spacing" textLength="63.7441" x="247.7461" y="516.7637">0.0333 ms</text><polygon fill="#4362B1" points="663.4189,560.5625,673.4189,564.5625,663.4189,568.5625,667.4189,564.5625" style="stroke:#4362B1;stroke-width:1.0;"/><line style="stroke:#4362B1;stroke-width:3.0;" x1="412.8193" x2="669.4189" y1="564.5625" y2="564.5625"/><text fill="#FFFFFF" font-family="Verdana" font-size="12" lengthAdjust="spacing" textLength="30.9082" x="424.8193" y="554.7324">close</text><text fill="#808080" font-family="Verdana" font-size="12" lengthAdjust="spacing" textLength="63.7441" x="463.3564" y="554.7324">0.0149 ms</text><polygon fill="#4362B1" points="423.8193,598.5313,413.8193,602.5313,423.8193,606.5313,419.8193,602.5313" style="stroke:#4362B1;stroke-width:1.0;"/><line style="stroke:#4362B1;stroke-width:3.0;stroke-dasharray:2.0,2.0;" x1="417.8193" x2="679.4189" y1="602.5313" y2="602.5313"/><text fill="#FFFFFF" font-family="Verdana" font-size="12" lengthAdjust="spacing" textLength="25.3945" x="434.8193" y="592.7012">void</text><polygon fill="#4362B1" points="208.209,636.5,198.209,640.5,208.209,644.5,204.209,640.5" style="stroke:#4362B1;stroke-width:1.0;"/><line style="stroke:#4362B1;stroke-width:3.0;stroke-dasharray:2.0,2.0;" x1="202.209" x2="406.8193" y1="640.5" y2="640.5"/><text fill="#FFFFFF" font-family="Verdana" font-size="12" lengthAdjust="spacing" textLength="25.3945" x="219.209" y="630.6699">void</text><polygon fill="#4362B1" points="11,674.4688,1,678.4688,11,682.4688,7,678.4688" style="stroke:#4362B1;stroke-width:1.0;"/><line style="stroke:#4362B1;stroke-width:3.0;stroke-dasharray:2.0,2.0;" x1="5" x2="191.209" y1="678.4688" y2="678.4688"/><text fill="#FFFFFF" font-family="Verdana" font-size="12" lengthAdjust="spacing" textLength="25.3945" x="22" y="668.6387">void</text><!--SRC=[hPJBJiCm44Nt_GhJVPAMj1LKLIKMNO0gG88TA-DC4qj-OK-A-7lIb4LZvrM9NJAFSs_6uznmnKIPGMa5AH2DMoU9fTznph4eFqi7bcc5e31cMYOv83L6KfCOGHMMKaHOW8H4KgwIS-eSYKsLd1XgaJDkgbhogXtc5jw-n9FJwXqS4kh8D0nFUzfQMfhbEsKvAsHb-ELmgAiRaUc4a8ze6ugk2LSSEHLxdJzAeosI3TD2stLkwS-MpEBbQawasoHrT5jnA4D-f0WjNrPbIKlO5nuMNVYYdR9rZf2zreRS4kGId0zBbpuhj1bQj42pqrFbSHomt-0OoUf07LHwUwx0rvmlMqN7o8R2ZTrO4wXVmJuO8pYZoBLwfZAmC4llLkqUBbmqq3qcDb7akJXgdZKQCXYa1an_f1xq0janhkk8GxoToZhkH1-vdphcVZ6XNSlvfUbrjsfWRzfLvelxS4jwJ_AApUZTYV-RyaVGUFvP_ZLtjfwgVW40]--></g></svg>