<svg xmlns="http://www.w3.org/2000/svg" xmlns:xlink="http://www.w3.org/1999/xlink" contentStyleType="text/css" height="334px" preserveAspectRatio="none" style="width:714px;height:334px;background:#000000;" version="1.1" viewBox="0 0 714 334" width="714px" zoomAndPan="magnify"><defs/><g><rect fill="none" height="189.8438" style="stroke:#999999;stroke-width:1.0;" width="10" x="229.5313" y="83.9375"/><rect fill="none" height="113.9063" style="stroke:#999999;stroke-width:1.0;" width="10" x="446.0967" y="121.9063"/><rect fill="none" height="37.9688" style="stroke:#999999;stroke-width:1.0;" width="10" x="647.9521" y="159.875"/><line style="stroke:#999999;stroke-width:0.5;stroke-dasharray:5.0,5.0;" x1="234.3535" x2="234.3535" y1="43.9688" y2="291.7813"/><line style="stroke:#999999;stroke-width:0.5;stroke-dasharray:5.0,5.0;" x1="450.709" x2="450.709" y1="43.9688" y2="291.7813"/><line style="stroke:#999999;stroke-width:0.5;stroke-dasharray:5.0,5.0;" x1="652.4844" x2="652.4844" y1="43.9688" y2="291.7813"/><rect fill="#555555" height="37.9688" rx="4" ry="4" style="stroke:#555555;stroke-width:1.0;" width="140.3555" x="164.3535" y="5"/><text fill="#FFFFFF" font-family="Verdana" font-size="12" lengthAdjust="spacing" textLength="116.3555" x="176.3535" y="28.1387">LogEnrichmentTest</text><rect fill="#555555" height="37.9688" rx="4" ry="4" style="stroke:#555555;stroke-width:1.0;" width="140.3555" x="164.3535" y="290.7813"/><text fill="#FFFFFF" font-family="Verdana" font-size="12" lengthAdjust="spacing" textLength="116.3555" x="176.3535" y="313.9199">LogEnrichmentTest</text><rect fill="#555555" height="37.9688" rx="4" ry="4" style="stroke:#555555;stroke-width:1.0;" width="112.7754" x="394.709" y="5"/><text fill="#FFFFFF" font-family="Verdana" font-size="12" lengthAdjust="spacing" textLength="88.7754" x="406.709" y="28.1387">PostgreSqlJson</text><rect fill="#555555" height="37.9688" rx="4" ry="4" style="stroke:#555555;stroke-width:1.0;" width="112.7754" x="394.709" y="290.7813"/><text fill="#FFFFFF" font-family="Verdana" font-size="12" lengthAdjust="spacing" textLength="88.7754" x="406.709" y="313.9199">PostgreSqlJson</text><rect fill="#555555" height="37.9688" rx="4" ry="4" style="stroke:#555555;stroke-width:1.0;" width="110.9355" x="597.4844" y="5"/><text fill="#FFFFFF" font-family="Verdana" font-size="12" lengthAdjust="spacing" textLength="86.9355" x="609.4844" y="28.1387">EnrichmentOff</text><rect fill="#555555" height="37.9688" rx="4" ry="4" style="stroke:#555555;stroke-width:1.0;" width="110.9355" x="597.4844" y="290.7813"/><text fill="#FFFFFF" font-family="Verdana" font-size="12" lengthAdjust="spacing" textLength="86.9355" x="609.4844" y="313.9199">EnrichmentOff</text><rect fill="none" height="189.8438" style="stroke:#999999;stroke-width:1.0;" width="10" x="229.5313" y="83.9375"/><rect fill="none" height="113.9063" style="stroke:#999999;stroke-width:1.0;" width="10" x="446.0967" y="121.9063"/><rect fill="none" height="37.9688" style="stroke:#999999;stroke-width:1.0;" width="10" x="647.9521" y="159.875"/><polygon fill="#4362B1" points="217.5313,79.9375,227.5313,83.9375,217.5313,87.9375,221.5313,83.9375" style="stroke:#4362B1;stroke-width:1.0;"/><line style="stroke:#4362B1;stroke-width:3.0;" x1="0" x2="223.5313" y1="83.9375" y2="83.9375"/><text fill="#FFFFFF" font-family="Verdana" font-size="12" lengthAdjust="spacing" textLength="129.1582" x="12" y="74.1074">defaultEnrichmentOff</text><text fill="#808080" font-family="Verdana" font-size="12" lengthAdjust="spacing" textLength="63.7441" x="148.7871" y="74.1074">0.0457 ms</text><polygon fill="#4362B1" points="434.0967,117.9063,444.0967,121.9063,434.0967,125.9063,438.0967,121.9063" style="stroke:#4362B1;stroke-width:1.0;"/><line style="stroke:#4362B1;stroke-width:3.0;" x1="239.5313" x2="440.0967" y1="121.9063" y2="121.9063"/><text fill="#FFFFFF" font-family="Verdana" font-size="12" lengthAdjust="spacing" textLength="30.9082" x="251.5313" y="112.0762">close</text><text fill="#808080" font-family="Verdana" font-size="12" lengthAdjust="spacing" textLength="63.7441" x="290.0684" y="112.0762">0.0342 ms</text><polygon fill="#4362B1" points="635.9521,155.875,645.9521,159.875,635.9521,163.875,639.9521,159.875" style="stroke:#4362B1;stroke-width:1.0;"/><line style="stroke:#4362B1;stroke-width:3.0;" x1="456.0967" x2="641.9521" y1="159.875" y2="159.875"/><text fill="#FFFFFF" font-family="Verdana" font-size="12" lengthAdjust="spacing" textLength="30.9082" x="468.0967" y="150.0449">close</text><text fill="#808080" font-family="Verdana" font-size="12" lengthAdjust="spacing" textLength="71.3789" x="506.6338" y="150.0449">0.00903 ms</text><polygon fill="#4362B1" points="467.0967,193.8438,457.0967,197.8438,467.0967,201.8438,463.0967,197.8438" style="stroke:#4362B1;stroke-width:1.0;"/><line style="stroke:#4362B1;stroke-width:3.0;stroke-dasharray:2.0,2.0;" x1="461.0967" x2="651.9521" y1="197.8438" y2="197.8438"/><text fill="#FFFFFF" font-family="Verdana" font-size="12" lengthAdjust="spacing" textLength="25.3945" x="478.0967" y="188.0137">void</text><polygon fill="#4362B1" points="250.5313,231.8125,240.5313,235.8125,250.5313,239.8125,246.5313,235.8125" style="stroke:#4362B1;stroke-width:1.0;"/><line style="stroke:#4362B1;stroke-width:3.0;stroke-dasharray:2.0,2.0;" x1="244.5313" x2="450.0967" y1="235.8125" y2="235.8125"/><text fill="#FFFFFF" font-family="Verdana" font-size="12" lengthAdjust="spacing" textLength="25.3945" x="261.5313" y="225.9824">void</text><polygon fill="#4362B1" points="11,269.7813,1,273.7813,11,277.7813,7,273.7813" style="stroke:#4362B1;stroke-width:1.0;"/><line style="stroke:#4362B1;stroke-width:3.0;stroke-dasharray:2.0,2.0;" x1="5" x2="233.5313" y1="273.7813" y2="273.7813"/><text fill="#FFFFFF" font-family="Verdana" font-size="12" lengthAdjust="spacing" textLength="25.3945" x="22" y="263.9512">void</text><!--SRC=[VP7DJiCm48JlVGgJk-E85Y6YABTU4198SEl9EDl4al-mrqMyFLPQGHmNhhCpttZNDz885GU8Nf49qOMMCSy_wr7Y5DzZ02-iGJ1O2wlP2CYTqzmnfxZ1g1N52JGmpQLXvz5PgLqQRXptA8LqoKkUxBWtNef99zeR12GyaAfGgopqOWEE7bu_r6EmPaxaKcx_HJqVZxCxKweD8GVQ5vqj6U38ey8ytmchh6z7pxzwqjJDxkwUwD2nMUuJYmkK9uvGxfQ6f5Hfdp- -9KBP04NHTdUR5osgSi8y8okHzjaUVxKq3yrsNRCeoXXNUpfALqKdAuUBTO1_ICLb4cfzcX_MWbGiVqZ1AzzvoIwIXUaR]--></g></svg>