<svg xmlns="http://www.w3.org/2000/svg" xmlns:xlink="http://www.w3.org/1999/xlink" contentStyleType="text/css" height="512px" preserveAspectRatio="none" style="width:755px;height:512px;background:#000000;" version="1.1" viewBox="0 0 755 512" width="755px" zoomAndPan="magnify"><defs/><g><rect fill="none" height="367.7188" style="stroke:#999999;stroke-width:1.0;" width="10" x="218.457" y="83.9375"/><rect fill="none" height="139.9063" style="stroke:#999999;stroke-width:1.0;" width="10" x="445.8096" y="121.9063"/><rect fill="none" height="48.9688" style="stroke:#999999;stroke-width:1.0;" width="10" x="450.8096" y="167.875"/><rect fill="none" height="113.9063" style="stroke:#999999;stroke-width:1.0;" width="10" x="445.8096" y="299.7813"/><rect fill="none" height="37.9688" style="stroke:#999999;stroke-width:1.0;" width="10" x="689.1924" y="337.75"/><line style="stroke:#999999;stroke-width:0.5;stroke-dasharray:5.0,5.0;" x1="222.4922" x2="222.4922" y1="43.9688" y2="469.6563"/><line style="stroke:#999999;stroke-width:0.5;stroke-dasharray:5.0,5.0;" x1="450.4219" x2="450.4219" y1="43.9688" y2="469.6563"/><line style="stroke:#999999;stroke-width:0.5;stroke-dasharray:5.0,5.0;" x1="693.7246" x2="693.7246" y1="43.9688" y2="469.6563"/><rect fill="#555555" height="37.9688" rx="4" ry="4" style="stroke:#555555;stroke-width:1.0;" width="161.9297" x="142.4922" y="5"/><text fill="#FFFFFF" font-family="Verdana" font-size="12" lengthAdjust="spacing" textLength="137.9297" x="154.4922" y="28.1387">ValidateParameterTest</text><rect fill="#555555" height="37.9688" rx="4" ry="4" style="stroke:#555555;stroke-width:1.0;" width="161.9297" x="142.4922" y="468.6563"/><text fill="#FFFFFF" font-family="Verdana" font-size="12" lengthAdjust="spacing" textLength="137.9297" x="154.4922" y="491.7949">ValidateParameterTest</text><rect fill="#555555" height="37.9688" rx="4" ry="4" style="stroke:#555555;stroke-width:1.0;" width="112.7754" x="394.4219" y="5"/><text fill="#FFFFFF" font-family="Verdana" font-size="12" lengthAdjust="spacing" textLength="88.7754" x="406.4219" y="28.1387">PostgreSqlJson</text><rect fill="#555555" height="37.9688" rx="4" ry="4" style="stroke:#555555;stroke-width:1.0;" width="112.7754" x="394.4219" y="468.6563"/><text fill="#FFFFFF" font-family="Verdana" font-size="12" lengthAdjust="spacing" textLength="88.7754" x="406.4219" y="491.7949">PostgreSqlJson</text><rect fill="#555555" height="37.9688" rx="4" ry="4" style="stroke:#555555;stroke-width:1.0;" width="110.9355" x="638.7246" y="5"/><text fill="#FFFFFF" font-family="Verdana" font-size="12" lengthAdjust="spacing" textLength="86.9355" x="650.7246" y="28.1387">EnrichmentOff</text><rect fill="#555555" height="37.9688" rx="4" ry="4" style="stroke:#555555;stroke-width:1.0;" width="110.9355" x="638.7246" y="468.6563"/><text fill="#FFFFFF" font-family="Verdana" font-size="12" lengthAdjust="spacing" textLength="86.9355" x="650.7246" y="491.7949">EnrichmentOff</text><rect fill="none" height="367.7188" style="stroke:#999999;stroke-width:1.0;" width="10" x="218.457" y="83.9375"/><rect fill="none" height="139.9063" style="stroke:#999999;stroke-width:1.0;" width="10" x="445.8096" y="121.9063"/><rect fill="none" height="48.9688" style="stroke:#999999;stroke-width:1.0;" width="10" x="450.8096" y="167.875"/><rect fill="none" height="113.9063" style="stroke:#999999;stroke-width:1.0;" width="10" x="445.8096" y="299.7813"/><rect fill="none" height="37.9688" style="stroke:#999999;stroke-width:1.0;" width="10" x="689.1924" y="337.75"/><polygon fill="#4362B1" points="206.457,79.9375,216.457,83.9375,206.457,87.9375,210.457,83.9375" style="stroke:#4362B1;stroke-width:1.0;"/><line style="stroke:#4362B1;stroke-width:3.0;" x1="0" x2="212.457" y1="83.9375" y2="83.9375"/><text fill="#FFFFFF" font-family="Verdana" font-size="12" lengthAdjust="spacing" textLength="125.7188" x="12" y="74.1074">nonExistingWatchDir</text><text fill="#808080" font-family="Verdana" font-size="12" lengthAdjust="spacing" textLength="56.1094" x="145.3477" y="74.1074">0.181 ms</text><polygon fill="#4362B1" points="433.8096,117.9063,443.8096,121.9063,433.8096,125.9063,437.8096,121.9063" style="stroke:#4362B1;stroke-width:1.0;"/><line style="stroke:#4362B1;stroke-width:3.0;" x1="228.457" x2="439.8096" y1="121.9063" y2="121.9063"/><text fill="#FFFFFF" font-family="Verdana" font-size="12" lengthAdjust="spacing" textLength="20.6191" x="240.457" y="112.0762">call</text><text fill="#808080" font-family="Verdana" font-size="12" lengthAdjust="spacing" textLength="63.7441" x="268.7051" y="112.0762">0.0815 ms</text><line style="stroke:#4362B1;stroke-width:3.0;" x1="455.8096" x2="502.8096" y1="154.875" y2="154.875"/><line style="stroke:#4362B1;stroke-width:3.0;" x1="502.8096" x2="502.8096" y1="154.875" y2="167.875"/><line style="stroke:#4362B1;stroke-width:3.0;" x1="461.8096" x2="502.8096" y1="167.875" y2="167.875"/><polygon fill="#4362B1" points="471.8096,163.875,461.8096,167.875,471.8096,171.875,467.8096,167.875" style="stroke:#4362B1;stroke-width:1.0;"/><text fill="#FFFFFF" font-family="Verdana" font-size="12" lengthAdjust="spacing" textLength="128.0098" x="472.8096" y="145.0449">watchPostgreSqlLogs</text><text fill="#808080" font-family="Verdana" font-size="12" lengthAdjust="spacing" textLength="63.7441" x="608.4482" y="145.0449">0.0344 ms</text><line style="stroke:#4362B1;stroke-width:3.0;stroke-dasharray:2.0,2.0;" x1="403.8096" x2="449.8096" y1="215.8438" y2="215.8438"/><line style="stroke:#4362B1;stroke-width:3.0;stroke-dasharray:2.0,2.0;" x1="403.8096" x2="403.8096" y1="215.8438" y2="228.8438"/><line style="stroke:#4362B1;stroke-width:3.0;stroke-dasharray:2.0,2.0;" x1="403.8096" x2="443.8096" y1="228.8438" y2="228.8438"/><polygon fill="#4362B1" points="433.8096,224.8438,443.8096,228.8438,433.8096,232.8438,437.8096,228.8438" style="stroke:#4362B1;stroke-width:1.0;"/><text fill="#FFFFFF" font-family="Verdana" font-size="12" lengthAdjust="spacing" textLength="101.8477" x="331.9619" y="206.0137">java.lang.Integer</text><polygon fill="#4362B1" points="239.457,257.8125,229.457,261.8125,239.457,265.8125,235.457,261.8125" style="stroke:#4362B1;stroke-width:1.0;"/><line style="stroke:#4362B1;stroke-width:3.0;stroke-dasharray:2.0,2.0;" x1="233.457" x2="449.8096" y1="261.8125" y2="261.8125"/><text fill="#FFFFFF" font-family="Verdana" font-size="12" lengthAdjust="spacing" textLength="101.8477" x="250.457" y="251.9824">java.lang.Integer</text><polygon fill="#4362B1" points="433.8096,295.7813,443.8096,299.7813,433.8096,303.7813,437.8096,299.7813" style="stroke:#4362B1;stroke-width:1.0;"/><line style="stroke:#4362B1;stroke-width:3.0;" x1="228.457" x2="439.8096" y1="299.7813" y2="299.7813"/><text fill="#FFFFFF" font-family="Verdana" font-size="12" lengthAdjust="spacing" textLength="30.9082" x="240.457" y="289.9512">close</text><text fill="#808080" font-family="Verdana" font-size="12" lengthAdjust="spacing" textLength="63.7441" x="278.9941" y="289.9512">0.0455 ms</text><polygon fill="#4362B1" points="677.1924,333.75,687.1924,337.75,677.1924,341.75,681.1924,337.75" style="stroke:#4362B1;stroke-width:1.0;"/><line style="stroke:#4362B1;stroke-width:3.0;" x1="455.8096" x2="683.1924" y1="337.75" y2="337.75"/><text fill="#FFFFFF" font-family="Verdana" font-size="12" lengthAdjust="spacing" textLength="30.9082" x="467.8096" y="327.9199">close</text><text fill="#808080" font-family="Verdana" font-size="12" lengthAdjust="spacing" textLength="63.7441" x="506.3467" y="327.9199">0.0152 ms</text><polygon fill="#4362B1" points="466.8096,371.7188,456.8096,375.7188,466.8096,379.7188,462.8096,375.7188" style="stroke:#4362B1;stroke-width:1.0;"/><line style="stroke:#4362B1;stroke-width:3.0;stroke-dasharray:2.0,2.0;" x1="460.8096" x2="693.1924" y1="375.7188" y2="375.7188"/><text fill="#FFFFFF" font-family="Verdana" font-size="12" lengthAdjust="spacing" textLength="25.3945" x="477.8096" y="365.8887">void</text><polygon fill="#4362B1" points="239.457,409.6875,229.457,413.6875,239.457,417.6875,235.457,413.6875" style="stroke:#4362B1;stroke-width:1.0;"/><line style="stroke:#4362B1;stroke-width:3.0;stroke-dasharray:2.0,2.0;" x1="233.457" x2="449.8096" y1="413.6875" y2="413.6875"/><text fill="#FFFFFF" font-family="Verdana" font-size="12" lengthAdjust="spacing" textLength="25.3945" x="250.457" y="403.8574">void</text><polygon fill="#4362B1" points="11,447.6563,1,451.6563,11,455.6563,7,451.6563" style="stroke:#4362B1;stroke-width:1.0;"/><line style="stroke:#4362B1;stroke-width:3.0;stroke-dasharray:2.0,2.0;" x1="5" x2="222.457" y1="451.6563" y2="451.6563"/><text fill="#FFFFFF" font-family="Verdana" font-size="12" lengthAdjust="spacing" textLength="25.3945" x="22" y="441.8262">void</text><!--SRC=[fPDFJy904CNlV8gLUrkga112UfA3naGIZHuuZTjbksR_kJi5_VQkXIZR5e9wVJFl_JepsmkXgQnBLZj9AaJhPrdcO9joWLNzKdlcgD78DARKg8mp16iLsCnAq5WhcM355CiK29tjIZibjQ4uiE1GK653Bta2AKf0jWG7YY5pZymZ0K-6lPLXP5uQZzonXpTvwurkNB4Kjo-q4xHIuRFlr-kcErA60q9MIT7BdH5jzE9TU1IQFmFIwbeuCgT66ZVZ3ZuACahpQKwKdsUDMeGqe2Ws8Qf_oj10-Yj94Oyn8nIaRED6qtmIymw8SK1J8osnIzb-3VOZtXdkEz2hyRWD_HrsdYHjxYji80rFXwStuLLnvlR6afqAxbtTsUb_oEuvYpIUTLOqdlppBj6pF4R99vSd3X557Bj3YxCneknklfjqxkA_yqxjUXMCHtwvlV_0tTlu2G00]--></g></svg>