<svg xmlns="http://www.w3.org/2000/svg" xmlns:xlink="http://www.w3.org/1999/xlink" contentStyleType="text/css" height="512px" preserveAspectRatio="none" style="width:730px;height:512px;background:#000000;" version="1.1" viewBox="0 0 730 512" width="730px" zoomAndPan="magnify"><defs/><g><rect fill="none" height="367.7188" style="stroke:#999999;stroke-width:1.0;" width="10" x="197.1113" y="83.9375"/><rect fill="none" height="139.9063" style="stroke:#999999;stroke-width:1.0;" width="10" x="427.8975" y="121.9063"/><rect fill="none" height="48.9688" style="stroke:#999999;stroke-width:1.0;" width="10" x="432.8975" y="167.875"/><rect fill="none" height="113.9063" style="stroke:#999999;stroke-width:1.0;" width="10" x="427.8975" y="299.7813"/><rect fill="none" height="37.9688" style="stroke:#999999;stroke-width:1.0;" width="10" x="663.6455" y="337.75"/><line style="stroke:#999999;stroke-width:0.5;stroke-dasharray:5.0,5.0;" x1="201.7129" x2="201.7129" y1="43.9688" y2="469.6563"/><line style="stroke:#999999;stroke-width:0.5;stroke-dasharray:5.0,5.0;" x1="432.5098" x2="432.5098" y1="43.9688" y2="469.6563"/><line style="stroke:#999999;stroke-width:0.5;stroke-dasharray:5.0,5.0;" x1="668.1777" x2="668.1777" y1="43.9688" y2="469.6563"/><rect fill="#555555" height="37.9688" rx="4" ry="4" style="stroke:#555555;stroke-width:1.0;" width="168.7969" x="117.7129" y="5"/><text fill="#FFFFFF" font-family="Verdana" font-size="12" lengthAdjust="spacing" textLength="144.7969" x="129.7129" y="28.1387">TestCliArgumentParsing</text><rect fill="#555555" height="37.9688" rx="4" ry="4" style="stroke:#555555;stroke-width:1.0;" width="168.7969" x="117.7129" y="468.6563"/><text fill="#FFFFFF" font-family="Verdana" font-size="12" lengthAdjust="spacing" textLength="144.7969" x="129.7129" y="491.7949">TestCliArgumentParsing</text><rect fill="#555555" height="37.9688" rx="4" ry="4" style="stroke:#555555;stroke-width:1.0;" width="112.7754" x="376.5098" y="5"/><text fill="#FFFFFF" font-family="Verdana" font-size="12" lengthAdjust="spacing" textLength="88.7754" x="388.5098" y="28.1387">PostgreSqlJson</text><rect fill="#555555" height="37.9688" rx="4" ry="4" style="stroke:#555555;stroke-width:1.0;" width="112.7754" x="376.5098" y="468.6563"/><text fill="#FFFFFF" font-family="Verdana" font-size="12" lengthAdjust="spacing" textLength="88.7754" x="388.5098" y="491.7949">PostgreSqlJson</text><rect fill="#555555" height="37.9688" rx="4" ry="4" style="stroke:#555555;stroke-width:1.0;" width="110.9355" x="613.1777" y="5"/><text fill="#FFFFFF" font-family="Verdana" font-size="12" lengthAdjust="spacing" textLength="86.9355" x="625.1777" y="28.1387">EnrichmentOff</text><rect fill="#555555" height="37.9688" rx="4" ry="4" style="stroke:#555555;stroke-width:1.0;" width="110.9355" x="613.1777" y="468.6563"/><text fill="#FFFFFF" font-family="Verdana" font-size="12" lengthAdjust="spacing" textLength="86.9355" x="625.1777" y="491.7949">EnrichmentOff</text><rect fill="none" height="367.7188" style="stroke:#999999;stroke-width:1.0;" width="10" x="197.1113" y="83.9375"/><rect fill="none" height="139.9063" style="stroke:#999999;stroke-width:1.0;" width="10" x="427.8975" y="121.9063"/><rect fill="none" height="48.9688" style="stroke:#999999;stroke-width:1.0;" width="10" x="432.8975" y="167.875"/><rect fill="none" height="113.9063" style="stroke:#999999;stroke-width:1.0;" width="10" x="427.8975" y="299.7813"/><rect fill="none" height="37.9688" style="stroke:#999999;stroke-width:1.0;" width="10" x="663.6455" y="337.75"/><polygon fill="#4362B1" points="185.1113,79.9375,195.1113,83.9375,185.1113,87.9375,189.1113,83.9375" style="stroke:#4362B1;stroke-width:1.0;"/><line style="stroke:#4362B1;stroke-width:3.0;" x1="0" x2="191.1113" y1="83.9375" y2="83.9375"/><text fill="#FFFFFF" font-family="Verdana" font-size="12" lengthAdjust="spacing" textLength="112.0078" x="12" y="74.1074">testNonExistingDir</text><text fill="#808080" font-family="Verdana" font-size="12" lengthAdjust="spacing" textLength="48.4746" x="131.6367" y="74.1074">1.21 ms</text><polygon fill="#4362B1" points="415.8975,117.9063,425.8975,121.9063,415.8975,125.9063,419.8975,121.9063" style="stroke:#4362B1;stroke-width:1.0;"/><line style="stroke:#4362B1;stroke-width:3.0;" x1="207.1113" x2="421.8975" y1="121.9063" y2="121.9063"/><text fill="#FFFFFF" font-family="Verdana" font-size="12" lengthAdjust="spacing" textLength="20.6191" x="219.1113" y="112.0762">call</text><text fill="#808080" font-family="Verdana" font-size="12" lengthAdjust="spacing" textLength="56.1094" x="247.3594" y="112.0762">0.501 ms</text><line style="stroke:#4362B1;stroke-width:3.0;" x1="437.8975" x2="484.8975" y1="154.875" y2="154.875"/><line style="stroke:#4362B1;stroke-width:3.0;" x1="484.8975" x2="484.8975" y1="154.875" y2="167.875"/><line style="stroke:#4362B1;stroke-width:3.0;" x1="443.8975" x2="484.8975" y1="167.875" y2="167.875"/><polygon fill="#4362B1" points="453.8975,163.875,443.8975,167.875,453.8975,171.875,449.8975,167.875" style="stroke:#4362B1;stroke-width:1.0;"/><text fill="#FFFFFF" font-family="Verdana" font-size="12" lengthAdjust="spacing" textLength="128.0098" x="454.8975" y="145.0449">watchPostgreSqlLogs</text><text fill="#808080" font-family="Verdana" font-size="12" lengthAdjust="spacing" textLength="56.1094" x="590.5361" y="145.0449">0.446 ms</text><line style="stroke:#4362B1;stroke-width:3.0;stroke-dasharray:2.0,2.0;" x1="385.8975" x2="431.8975" y1="215.8438" y2="215.8438"/><line style="stroke:#4362B1;stroke-width:3.0;stroke-dasharray:2.0,2.0;" x1="385.8975" x2="385.8975" y1="215.8438" y2="228.8438"/><line style="stroke:#4362B1;stroke-width:3.0;stroke-dasharray:2.0,2.0;" x1="385.8975" x2="425.8975" y1="228.8438" y2="228.8438"/><polygon fill="#4362B1" points="415.8975,224.8438,425.8975,228.8438,415.8975,232.8438,419.8975,228.8438" style="stroke:#4362B1;stroke-width:1.0;"/><text fill="#FFFFFF" font-family="Verdana" font-size="12" lengthAdjust="spacing" textLength="101.8477" x="314.0498" y="206.0137">java.lang.Integer</text><polygon fill="#4362B1" points="218.1113,257.8125,208.1113,261.8125,218.1113,265.8125,214.1113,261.8125" style="stroke:#4362B1;stroke-width:1.0;"/><line style="stroke:#4362B1;stroke-width:3.0;stroke-dasharray:2.0,2.0;" x1="212.1113" x2="431.8975" y1="261.8125" y2="261.8125"/><text fill="#FFFFFF" font-family="Verdana" font-size="12" lengthAdjust="spacing" textLength="101.8477" x="229.1113" y="251.9824">java.lang.Integer</text><polygon fill="#4362B1" points="415.8975,295.7813,425.8975,299.7813,415.8975,303.7813,419.8975,299.7813" style="stroke:#4362B1;stroke-width:1.0;"/><line style="stroke:#4362B1;stroke-width:3.0;" x1="207.1113" x2="421.8975" y1="299.7813" y2="299.7813"/><text fill="#FFFFFF" font-family="Verdana" font-size="12" lengthAdjust="spacing" textLength="30.9082" x="219.1113" y="289.9512">close</text><text fill="#808080" font-family="Verdana" font-size="12" lengthAdjust="spacing" textLength="63.7441" x="257.6484" y="289.9512">0.0498 ms</text><polygon fill="#4362B1" points="651.6455,333.75,661.6455,337.75,651.6455,341.75,655.6455,337.75" style="stroke:#4362B1;stroke-width:1.0;"/><line style="stroke:#4362B1;stroke-width:3.0;" x1="437.8975" x2="657.6455" y1="337.75" y2="337.75"/><text fill="#FFFFFF" font-family="Verdana" font-size="12" lengthAdjust="spacing" textLength="30.9082" x="449.8975" y="327.9199">close</text><text fill="#808080" font-family="Verdana" font-size="12" lengthAdjust="spacing" textLength="63.7441" x="488.4346" y="327.9199">0.0164 ms</text><polygon fill="#4362B1" points="448.8975,371.7188,438.8975,375.7188,448.8975,379.7188,444.8975,375.7188" style="stroke:#4362B1;stroke-width:1.0;"/><line style="stroke:#4362B1;stroke-width:3.0;stroke-dasharray:2.0,2.0;" x1="442.8975" x2="667.6455" y1="375.7188" y2="375.7188"/><text fill="#FFFFFF" font-family="Verdana" font-size="12" lengthAdjust="spacing" textLength="25.3945" x="459.8975" y="365.8887">void</text><polygon fill="#4362B1" points="218.1113,409.6875,208.1113,413.6875,218.1113,417.6875,214.1113,413.6875" style="stroke:#4362B1;stroke-width:1.0;"/><line style="stroke:#4362B1;stroke-width:3.0;stroke-dasharray:2.0,2.0;" x1="212.1113" x2="431.8975" y1="413.6875" y2="413.6875"/><text fill="#FFFFFF" font-family="Verdana" font-size="12" lengthAdjust="spacing" textLength="25.3945" x="229.1113" y="403.8574">void</text><polygon fill="#4362B1" points="11,447.6563,1,451.6563,11,455.6563,7,451.6563" style="stroke:#4362B1;stroke-width:1.0;"/><line style="stroke:#4362B1;stroke-width:3.0;stroke-dasharray:2.0,2.0;" x1="5" x2="201.1113" y1="451.6563" y2="451.6563"/><text fill="#FFFFFF" font-family="Verdana" font-size="12" lengthAdjust="spacing" textLength="25.3945" x="22" y="441.8262">void</text><!--SRC=[fPD1JyCm38Nl_8gmUviDbGcggHA27K089i5j9vDbQL2QXCJTuDyJkWcMhfq6N9_ztgVOpgdKJDKBNZj5IaJhSqeTh5CXiQnVQiyTCngvnfIPYWgEO6q5bbe56kjA9LZoYjCAfAQRqaP9RIYUM70ecRIXbpnpZzTANZbHLo5l1ivBBGXuCkWk3IBxp7WKZZ-zgJjlT6EBfRXzgfravLVQutBPT4VAu8IGUL9qWtE2GNymUlekFGRXHZeoOKOPbmi77mKPfMSZKla9RSGYX053kGBaFSyC7QIdb1JnEtB2GAcODqpFXotW3ZBsDpNI4lSXQq1M_eZtHlWsCyl6RURlg9CaQMDVOGLfk1sHteQp4jnjZGj-ABXxSaV7_oMyOotAUDwUqJ2xlFZVOgAxxAECnjc1LKGHVPjeSLP6BlPdlvzqzEY_0mzDUnwCVPzk6x1Zx-xy1000]--></g></svg>