<svg xmlns="http://www.w3.org/2000/svg" xmlns:xlink="http://www.w3.org/1999/xlink" contentStyleType="text/css" height="324px" preserveAspectRatio="none" style="width:667px;height:324px;background:#FFFFFF;" version="1.1" viewBox="0 0 667 324" width="667px" zoomAndPan="magnify"><defs/><g><rect fill="#FFFFFF" height="203.9297" style="stroke:#181818;stroke-width:1.0;" width="10" x="254.8662" y="67.4297"/><rect fill="#FFFFFF" height="29.1328" style="stroke:#181818;stroke-width:1.0;" width="10" x="459.3345" y="96.5625"/><rect fill="#FFFFFF" height="87.3984" style="stroke:#181818;stroke-width:1.0;" width="10" x="459.3345" y="154.8281"/><rect fill="#FFFFFF" height="29.1328" style="stroke:#181818;stroke-width:1.0;" width="10" x="599.1392" y="183.9609"/><line style="stroke:#181818;stroke-width:0.5;stroke-dasharray:5.0,5.0;" x1="258.9922" x2="258.9922" y1="36.2969" y2="289.3594"/><line style="stroke:#181818;stroke-width:0.5;stroke-dasharray:5.0,5.0;" x1="463.5488" x2="463.5488" y1="36.2969" y2="289.3594"/><line style="stroke:#181818;stroke-width:0.5;stroke-dasharray:5.0,5.0;" x1="603.4268" x2="603.4268" y1="36.2969" y2="289.3594"/><rect fill="#E2E2F0" height="30.2969" rx="2.5" ry="2.5" style="stroke:#181818;stroke-width:0.5;" width="149.748" x="184.9922" y="5"/><text fill="#000000" font-family="sans-serif" font-size="14" lengthAdjust="spacing" textLength="135.748" x="191.9922" y="24.9951">LogEnrichmentTest</text><rect fill="#E2E2F0" height="30.2969" rx="2.5" ry="2.5" style="stroke:#181818;stroke-width:0.5;" width="149.748" x="184.9922" y="288.3594"/><text fill="#000000" font-family="sans-serif" font-size="14" lengthAdjust="spacing" textLength="135.748" x="191.9922" y="308.3545">LogEnrichmentTest</text><rect fill="#E2E2F0" height="30.2969" rx="2.5" ry="2.5" style="stroke:#181818;stroke-width:0.5;" width="117.5713" x="405.5488" y="5"/><text fill="#000000" font-family="sans-serif" font-size="14" lengthAdjust="spacing" textLength="103.5713" x="412.5488" y="24.9951">PostgreSqlJson</text><rect fill="#E2E2F0" height="30.2969" rx="2.5" ry="2.5" style="stroke:#181818;stroke-width:0.5;" width="117.5713" x="405.5488" y="288.3594"/><text fill="#000000" font-family="sans-serif" font-size="14" lengthAdjust="spacing" textLength="103.5713" x="412.5488" y="308.3545">PostgreSqlJson</text><rect fill="#E2E2F0" height="30.2969" rx="2.5" ry="2.5" style="stroke:#181818;stroke-width:0.5;" width="115.4248" x="546.4268" y="5"/><text fill="#000000" font-family="sans-serif" font-size="14" lengthAdjust="spacing" textLength="101.4248" x="553.4268" y="24.9951">EnrichmentOff</text><rect fill="#E2E2F0" height="30.2969" rx="2.5" ry="2.5" style="stroke:#181818;stroke-width:0.5;" width="115.4248" x="546.4268" y="288.3594"/><text fill="#000000" font-family="sans-serif" font-size="14" lengthAdjust="spacing" textLength="101.4248" x="553.4268" y="308.3545">EnrichmentOff</text><rect fill="#FFFFFF" height="203.9297" style="stroke:#181818;stroke-width:1.0;" width="10" x="254.8662" y="67.4297"/><rect fill="#FFFFFF" height="29.1328" style="stroke:#181818;stroke-width:1.0;" width="10" x="459.3345" y="96.5625"/><rect fill="#FFFFFF" height="87.3984" style="stroke:#181818;stroke-width:1.0;" width="10" x="459.3345" y="154.8281"/><rect fill="#FFFFFF" height="29.1328" style="stroke:#181818;stroke-width:1.0;" width="10" x="599.1392" y="183.9609"/><polygon fill="#181818" points="242.8662,63.4297,252.8662,67.4297,242.8662,71.4297,246.8662,67.4297" style="stroke:#181818;stroke-width:1.0;"/><line style="stroke:#181818;stroke-width:1.0;" x1="0" x2="248.8662" y1="67.4297" y2="67.4297"/><text fill="#000000" font-family="sans-serif" font-size="13" lengthAdjust="spacing" textLength="166.8164" x="7" y="62.3638">initLogEnricherWoDbHost</text><text fill="#808080" font-family="sans-serif" font-size="13" lengthAdjust="spacing" textLength="60.7852" x="182.0811" y="62.3638">0.217 ms</text><polygon fill="#181818" points="447.3345,92.5625,457.3345,96.5625,447.3345,100.5625,451.3345,96.5625" style="stroke:#181818;stroke-width:1.0;"/><line style="stroke:#181818;stroke-width:1.0;" x1="264.8662" x2="453.3345" y1="96.5625" y2="96.5625"/><text fill="#000000" font-family="sans-serif" font-size="13" lengthAdjust="spacing" textLength="98.1475" x="271.8662" y="91.4966">initLogEnricher</text><text fill="#808080" font-family="sans-serif" font-size="13" lengthAdjust="spacing" textLength="69.0562" x="378.2783" y="91.4966">0.0356 ms</text><polygon fill="#181818" points="275.8662,121.6953,265.8662,125.6953,275.8662,129.6953,271.8662,125.6953" style="stroke:#181818;stroke-width:1.0;"/><line style="stroke:#181818;stroke-width:1.0;stroke-dasharray:2.0,2.0;" x1="269.8662" x2="463.3345" y1="125.6953" y2="125.6953"/><text fill="#000000" font-family="sans-serif" font-size="13" lengthAdjust="spacing" textLength="27.5107" x="281.8662" y="120.6294">void</text><polygon fill="#181818" points="447.3345,150.8281,457.3345,154.8281,447.3345,158.8281,451.3345,154.8281" style="stroke:#181818;stroke-width:1.0;"/><line style="stroke:#181818;stroke-width:1.0;" x1="264.8662" x2="453.3345" y1="154.8281" y2="154.8281"/><text fill="#000000" font-family="sans-serif" font-size="13" lengthAdjust="spacing" textLength="33.4839" x="271.8662" y="149.7622">close</text><text fill="#808080" font-family="sans-serif" font-size="13" lengthAdjust="spacing" textLength="60.7852" x="313.6147" y="149.7622">0.058 ms</text><polygon fill="#181818" points="587.1392,179.9609,597.1392,183.9609,587.1392,187.9609,591.1392,183.9609" style="stroke:#181818;stroke-width:1.0;"/><line style="stroke:#181818;stroke-width:1.0;" x1="469.3345" x2="593.1392" y1="183.9609" y2="183.9609"/><text fill="#000000" font-family="sans-serif" font-size="13" lengthAdjust="spacing" textLength="33.4839" x="476.3345" y="178.895">close</text><text fill="#808080" font-family="sans-serif" font-size="13" lengthAdjust="spacing" textLength="69.0562" x="518.083" y="178.895">0.0213 ms</text><polygon fill="#181818" points="480.3345,209.0938,470.3345,213.0938,480.3345,217.0938,476.3345,213.0938" style="stroke:#181818;stroke-width:1.0;"/><line style="stroke:#181818;stroke-width:1.0;stroke-dasharray:2.0,2.0;" x1="474.3345" x2="603.1392" y1="213.0938" y2="213.0938"/><text fill="#000000" font-family="sans-serif" font-size="13" lengthAdjust="spacing" textLength="27.5107" x="486.3345" y="208.0278">void</text><polygon fill="#181818" points="275.8662,238.2266,265.8662,242.2266,275.8662,246.2266,271.8662,242.2266" style="stroke:#181818;stroke-width:1.0;"/><line style="stroke:#181818;stroke-width:1.0;stroke-dasharray:2.0,2.0;" x1="269.8662" x2="463.3345" y1="242.2266" y2="242.2266"/><text fill="#000000" font-family="sans-serif" font-size="13" lengthAdjust="spacing" textLength="27.5107" x="281.8662" y="237.1606">void</text><polygon fill="#181818" points="11,267.3594,1,271.3594,11,275.3594,7,271.3594" style="stroke:#181818;stroke-width:1.0;"/><line style="stroke:#181818;stroke-width:1.0;stroke-dasharray:2.0,2.0;" x1="5" x2="258.8662" y1="271.3594" y2="271.3594"/><text fill="#000000" font-family="sans-serif" font-size="13" lengthAdjust="spacing" textLength="27.5107" x="17" y="266.2935">void</text><!--SRC=[hP91Yy8m48Nl_egXzxZQugv8oMa54K5X1G-UiZ5s0pMfIH3yzuOYsidKWx3Nbtdlcxoa4IvegHjX0gniDJTEox-JCc6hV03X8IDgDcWwfetreNBgvrmllJMj0qju_1crFXxRQQHa0u0zuuGv0srqUCZAxUptxo9oe9IsjcvMEN7bC1hcuoyu-VAZLNbC4pBeYmYAtYuU0bKPn-iJSaeS5PDFZEn0SLO_iMGiHLwiFhJ31_LM55rUrjOhil9a-ix6a8YCepTx1Sd7HKhfS514BoRsad0UjQ1YQDA_LRoFnfw_UFTsd6Je1W00]--></g></svg>