<svg xmlns="http://www.w3.org/2000/svg" xmlns:xlink="http://www.w3.org/1999/xlink" contentStyleType="text/css" data-diagram-type="SEQUENCE" height="324px" preserveAspectRatio="none" style="width:715px;height:324px;background:#FFFFFF;" version="1.1" viewBox="0 0 715 324" width="715px" zoomAndPan="magnify"><defs/><g><g><title>LogFilesPositionTest</title><rect fill="#FFFFFF" height="203.9297" style="stroke:#181818;stroke-width:1;" width="10" x="257.8052" y="67.4297"/></g><g><title>PostgreSqlJson</title><rect fill="#FFFFFF" height="29.1328" style="stroke:#181818;stroke-width:1;" width="10" x="498.5566" y="96.5625"/></g><g><title>PostgreSqlJson</title><rect fill="#FFFFFF" height="87.3984" style="stroke:#181818;stroke-width:1;" width="10" x="498.5566" y="154.8281"/></g><g><title>EnrichmentOff</title><rect fill="#FFFFFF" height="29.1328" style="stroke:#181818;stroke-width:1;" width="10" x="646.6323" y="183.9609"/></g><g><title>LogFilesPositionTest</title><rect fill="transparent" height="253.0625" width="8" x="258.8052" y="36.2969"/><line style="stroke:#181818;stroke-width:0.5;stroke-dasharray:5.0,5.0;" x1="261.8311" x2="261.8311" y1="36.2969" y2="289.3594"/></g><g><title>PostgreSqlJson</title><rect fill="transparent" height="253.0625" width="8" x="499.5566" y="36.2969"/><line style="stroke:#181818;stroke-width:0.5;stroke-dasharray:5.0,5.0;" x1="502.771" x2="502.771" y1="36.2969" y2="289.3594"/></g><g><title>EnrichmentOff</title><rect fill="transparent" height="253.0625" width="8" x="647.6323" y="36.2969"/><line style="stroke:#181818;stroke-width:0.5;stroke-dasharray:5.0,5.0;" x1="650.9199" x2="650.9199" y1="36.2969" y2="289.3594"/></g><rect fill="#E2E2F0" height="30.2969" rx="2.5" ry="2.5" style="stroke:#181818;stroke-width:0.5;" width="155.9482" x="184.8311" y="5"/><text fill="#000000" font-family="sans-serif" font-size="14" lengthAdjust="spacing" textLength="141.9482" x="191.8311" y="24.9951">LogFilesPositionTest</text><rect fill="#E2E2F0" height="30.2969" rx="2.5" ry="2.5" style="stroke:#181818;stroke-width:0.5;" width="155.9482" x="184.8311" y="288.3594"/><text fill="#000000" font-family="sans-serif" font-size="14" lengthAdjust="spacing" textLength="141.9482" x="191.8311" y="308.3545">LogFilesPositionTest</text><rect fill="#E2E2F0" height="30.2969" rx="2.5" ry="2.5" style="stroke:#181818;stroke-width:0.5;" width="117.5713" x="444.771" y="5"/><text fill="#000000" font-family="sans-serif" font-size="14" lengthAdjust="spacing" textLength="103.5713" x="451.771" y="24.9951">PostgreSqlJson</text><rect fill="#E2E2F0" height="30.2969" rx="2.5" ry="2.5" style="stroke:#181818;stroke-width:0.5;" width="117.5713" x="444.771" y="288.3594"/><text fill="#000000" font-family="sans-serif" font-size="14" lengthAdjust="spacing" textLength="103.5713" x="451.771" y="308.3545">PostgreSqlJson</text><rect fill="#E2E2F0" height="30.2969" rx="2.5" ry="2.5" style="stroke:#181818;stroke-width:0.5;" width="115.4248" x="593.9199" y="5"/><text fill="#000000" font-family="sans-serif" font-size="14" lengthAdjust="spacing" textLength="101.4248" x="600.9199" y="24.9951">EnrichmentOff</text><rect fill="#E2E2F0" height="30.2969" rx="2.5" ry="2.5" style="stroke:#181818;stroke-width:0.5;" width="115.4248" x="593.9199" y="288.3594"/><text fill="#000000" font-family="sans-serif" font-size="14" lengthAdjust="spacing" textLength="101.4248" x="600.9199" y="308.3545">EnrichmentOff</text><g><title>LogFilesPositionTest</title><rect fill="#FFFFFF" height="203.9297" style="stroke:#181818;stroke-width:1;" width="10" x="257.8052" y="67.4297"/></g><g><title>PostgreSqlJson</title><rect fill="#FFFFFF" height="29.1328" style="stroke:#181818;stroke-width:1;" width="10" x="498.5566" y="96.5625"/></g><g><title>PostgreSqlJson</title><rect fill="#FFFFFF" height="87.3984" style="stroke:#181818;stroke-width:1;" width="10" x="498.5566" y="154.8281"/></g><g><title>EnrichmentOff</title><rect fill="#FFFFFF" height="29.1328" style="stroke:#181818;stroke-width:1;" width="10" x="646.6323" y="183.9609"/></g><polygon fill="#181818" points="245.8052,63.4297,255.8052,67.4297,245.8052,71.4297,249.8052,67.4297" style="stroke:#181818;stroke-width:1;"/><line style="stroke:#181818;stroke-width:1;" x1="0" x2="251.8052" y1="67.4297" y2="67.4297"/><text fill="#000000" font-family="sans-serif" font-size="13" lengthAdjust="spacing" textLength="169.7554" x="7" y="62.3638">savePositionToInvalidPath</text><text fill="#808080" font-family="sans-serif" font-size="13" lengthAdjust="spacing" textLength="60.7852" x="185.02" y="62.3638">0.544 ms</text><polygon fill="#181818" points="486.5566,92.5625,496.5566,96.5625,486.5566,100.5625,490.5566,96.5625" style="stroke:#181818;stroke-width:1;"/><line style="stroke:#181818;stroke-width:1;" x1="267.8052" x2="492.5566" y1="96.5625" y2="96.5625"/><text fill="#000000" font-family="sans-serif" font-size="13" lengthAdjust="spacing" textLength="134.4307" x="274.8052" y="91.4966">saveLogFilesPosition</text><text fill="#808080" font-family="sans-serif" font-size="13" lengthAdjust="spacing" textLength="69.0562" x="417.5005" y="91.4966">0.0969 ms</text><polygon fill="#181818" points="278.8052,121.6953,268.8052,125.6953,278.8052,129.6953,274.8052,125.6953" style="stroke:#181818;stroke-width:1;"/><line style="stroke:#181818;stroke-width:1;stroke-dasharray:2.0,2.0;" x1="272.8052" x2="502.5566" y1="125.6953" y2="125.6953"/><text fill="#000000" font-family="sans-serif" font-size="13" lengthAdjust="spacing" textLength="27.5107" x="284.8052" y="120.6294">void</text><polygon fill="#181818" points="486.5566,150.8281,496.5566,154.8281,486.5566,158.8281,490.5566,154.8281" style="stroke:#181818;stroke-width:1;"/><line style="stroke:#181818;stroke-width:1;" x1="267.8052" x2="492.5566" y1="154.8281" y2="154.8281"/><text fill="#000000" font-family="sans-serif" font-size="13" lengthAdjust="spacing" textLength="33.4839" x="274.8052" y="149.7622">close</text><text fill="#808080" font-family="sans-serif" font-size="13" lengthAdjust="spacing" textLength="69.0562" x="316.5537" y="149.7622">0.0238 ms</text><polygon fill="#181818" points="634.6323,179.9609,644.6323,183.9609,634.6323,187.9609,638.6323,183.9609" style="stroke:#181818;stroke-width:1;"/><line style="stroke:#181818;stroke-width:1;" x1="508.5566" x2="640.6323" y1="183.9609" y2="183.9609"/><text fill="#000000" font-family="sans-serif" font-size="13" lengthAdjust="spacing" textLength="33.4839" x="515.5566" y="178.895">close</text><text fill="#808080" font-family="sans-serif" font-size="13" lengthAdjust="spacing" textLength="77.3271" x="557.3052" y="178.895">0.00962 ms</text><polygon fill="#181818" points="519.5566,209.0938,509.5566,213.0938,519.5566,217.0938,515.5566,213.0938" style="stroke:#181818;stroke-width:1;"/><line style="stroke:#181818;stroke-width:1;stroke-dasharray:2.0,2.0;" x1="513.5566" x2="650.6323" y1="213.0938" y2="213.0938"/><text fill="#000000" font-family="sans-serif" font-size="13" lengthAdjust="spacing" textLength="27.5107" x="525.5566" y="208.0278">void</text><polygon fill="#181818" points="278.8052,238.2266,268.8052,242.2266,278.8052,246.2266,274.8052,242.2266" style="stroke:#181818;stroke-width:1;"/><line style="stroke:#181818;stroke-width:1;stroke-dasharray:2.0,2.0;" x1="272.8052" x2="502.5566" y1="242.2266" y2="242.2266"/><text fill="#000000" font-family="sans-serif" font-size="13" lengthAdjust="spacing" textLength="27.5107" x="284.8052" y="237.1606">void</text><polygon fill="#181818" points="11,267.3594,1,271.3594,11,275.3594,7,271.3594" style="stroke:#181818;stroke-width:1;"/><line style="stroke:#181818;stroke-width:1;stroke-dasharray:2.0,2.0;" x1="5" x2="261.8052" y1="271.3594" y2="271.3594"/><text fill="#000000" font-family="sans-serif" font-size="13" lengthAdjust="spacing" textLength="27.5107" x="17" y="266.2935">void</text><!--SRC=[hP91QyCm38Nl_HKYTs-bxSPQWcyRR0nQs6uz2STD3QwLsYAmVr-JZH8xxg6mwvFU-oJP7NesodJe63wfVJDMXnq5muRSjmuC6A0g5QfPDxB62hTUVvtjHo0tc58fRNzrtgZZIJlU7Wv3Tw9KCu2za2Ni1WBs-ghGk-lHccQ7V8HQaIM_QJt-I9W_FArMS0hruw3A68cAJO-iYul6EXGBGgQR_4wGT-Rm-VfvdT97_3Jm9haM8aVtP9gXlz7tfattK9Q2dWo-MBxSCpXaef39KzwYnFiiSim8b6GKEV4u6UXwc-GwqwJ_FFK-6ilVzCy-CfVwBW00]--></g></svg>