<svg xmlns="http://www.w3.org/2000/svg" xmlns:xlink="http://www.w3.org/1999/xlink" contentStyleType="text/css" height="868px" preserveAspectRatio="none" style="width:951px;height:868px;background:#000000;" version="1.1" viewBox="0 0 951 868" width="951px" zoomAndPan="magnify"><defs/><g><rect fill="none" height="723.4688" style="stroke:#999999;stroke-width:1.0;" width="10" x="198.2598" y="83.9375"/><rect fill="none" height="647.5313" style="stroke:#999999;stroke-width:1.0;" width="10" x="429.0078" y="121.9063"/><rect fill="none" height="48.9688" style="stroke:#999999;stroke-width:1.0;" width="10" x="434.0078" y="167.875"/><rect fill="none" height="226.8438" style="stroke:#999999;stroke-width:1.0;" width="10" x="434.0078" y="497.625"/><rect fill="none" height="124.9063" style="stroke:#999999;stroke-width:1.0;" width="10" x="439.0078" y="548.5938"/><rect fill="none" height="37.9688" style="stroke:#999999;stroke-width:1.0;" width="10" x="666.0605" y="261.8125"/><rect fill="none" height="37.9688" style="stroke:#999999;stroke-width:1.0;" width="10" x="666.0605" y="337.75"/><rect fill="none" height="37.9688" style="stroke:#999999;stroke-width:1.0;" width="10" x="666.0605" y="413.6875"/><rect fill="none" height="37.9688" style="stroke:#999999;stroke-width:1.0;" width="10" x="885.2363" y="591.5625"/><line style="stroke:#999999;stroke-width:0.5;stroke-dasharray:5.0,5.0;" x1="203.1865" x2="203.1865" y1="43.9688" y2="825.4063"/><line style="stroke:#999999;stroke-width:0.5;stroke-dasharray:5.0,5.0;" x1="433.6201" x2="433.6201" y1="43.9688" y2="825.4063"/><line style="stroke:#999999;stroke-width:0.5;stroke-dasharray:5.0,5.0;" x1="670.3525" x2="670.3525" y1="43.9688" y2="825.4063"/><line style="stroke:#999999;stroke-width:0.5;stroke-dasharray:5.0,5.0;" x1="889.7686" x2="889.7686" y1="43.9688" y2="825.4063"/><rect fill="#555555" height="37.9688" rx="4" ry="4" style="stroke:#555555;stroke-width:1.0;" width="132.1465" x="137.1865" y="5"/><text fill="#FFFFFF" font-family="Verdana" font-size="12" lengthAdjust="spacing" textLength="108.1465" x="149.1865" y="28.1387">WatchServiceTest</text><rect fill="#555555" height="37.9688" rx="4" ry="4" style="stroke:#555555;stroke-width:1.0;" width="132.1465" x="137.1865" y="824.4063"/><text fill="#FFFFFF" font-family="Verdana" font-size="12" lengthAdjust="spacing" textLength="108.1465" x="149.1865" y="847.5449">WatchServiceTest</text><rect fill="#555555" height="37.9688" rx="4" ry="4" style="stroke:#555555;stroke-width:1.0;" width="112.7754" x="377.6201" y="5"/><text fill="#FFFFFF" font-family="Verdana" font-size="12" lengthAdjust="spacing" textLength="88.7754" x="389.6201" y="28.1387">PostgreSqlJson</text><rect fill="#555555" height="37.9688" rx="4" ry="4" style="stroke:#555555;stroke-width:1.0;" width="112.7754" x="377.6201" y="824.4063"/><text fill="#FFFFFF" font-family="Verdana" font-size="12" lengthAdjust="spacing" textLength="88.7754" x="389.6201" y="847.5449">PostgreSqlJson</text><rect fill="#555555" height="37.9688" rx="4" ry="4" style="stroke:#555555;stroke-width:1.0;" width="147.416" x="597.3525" y="5"/><text fill="#FFFFFF" font-family="Verdana" font-size="12" lengthAdjust="spacing" textLength="123.416" x="609.3525" y="28.1387">WatchServiceTest$1</text><rect fill="#555555" height="37.9688" rx="4" ry="4" style="stroke:#555555;stroke-width:1.0;" width="147.416" x="597.3525" y="824.4063"/><text fill="#FFFFFF" font-family="Verdana" font-size="12" lengthAdjust="spacing" textLength="123.416" x="609.3525" y="847.5449">WatchServiceTest$1</text><rect fill="#555555" height="37.9688" rx="4" ry="4" style="stroke:#555555;stroke-width:1.0;" width="110.9355" x="834.7686" y="5"/><text fill="#FFFFFF" font-family="Verdana" font-size="12" lengthAdjust="spacing" textLength="86.9355" x="846.7686" y="28.1387">EnrichmentOff</text><rect fill="#555555" height="37.9688" rx="4" ry="4" style="stroke:#555555;stroke-width:1.0;" width="110.9355" x="834.7686" y="824.4063"/><text fill="#FFFFFF" font-family="Verdana" font-size="12" lengthAdjust="spacing" textLength="86.9355" x="846.7686" y="847.5449">EnrichmentOff</text><rect fill="none" height="723.4688" style="stroke:#999999;stroke-width:1.0;" width="10" x="198.2598" y="83.9375"/><rect fill="none" height="647.5313" style="stroke:#999999;stroke-width:1.0;" width="10" x="429.0078" y="121.9063"/><rect fill="none" height="48.9688" style="stroke:#999999;stroke-width:1.0;" width="10" x="434.0078" y="167.875"/><rect fill="none" height="226.8438" style="stroke:#999999;stroke-width:1.0;" width="10" x="434.0078" y="497.625"/><rect fill="none" height="124.9063" style="stroke:#999999;stroke-width:1.0;" width="10" x="439.0078" y="548.5938"/><rect fill="none" height="37.9688" style="stroke:#999999;stroke-width:1.0;" width="10" x="666.0605" y="261.8125"/><rect fill="none" height="37.9688" style="stroke:#999999;stroke-width:1.0;" width="10" x="666.0605" y="337.75"/><rect fill="none" height="37.9688" style="stroke:#999999;stroke-width:1.0;" width="10" x="666.0605" y="413.6875"/><rect fill="none" height="37.9688" style="stroke:#999999;stroke-width:1.0;" width="10" x="885.2363" y="591.5625"/><polygon fill="#4362B1" points="186.2598,79.9375,196.2598,83.9375,186.2598,87.9375,190.2598,83.9375" style="stroke:#4362B1;stroke-width:1.0;"/><line style="stroke:#4362B1;stroke-width:3.0;" x1="0" x2="192.2598" y1="83.9375" y2="83.9375"/><text fill="#FFFFFF" font-family="Verdana" font-size="12" lengthAdjust="spacing" textLength="105.5215" x="12" y="74.1074">testWatchService</text><text fill="#808080" font-family="Verdana" font-size="12" lengthAdjust="spacing" textLength="56.1094" x="125.1504" y="74.1074">0.624 ms</text><polygon fill="#4362B1" points="417.0078,117.9063,427.0078,121.9063,417.0078,125.9063,421.0078,121.9063" style="stroke:#4362B1;stroke-width:1.0;"/><line style="stroke:#4362B1;stroke-width:3.0;" x1="208.2598" x2="423.0078" y1="121.9063" y2="121.9063"/><text fill="#FFFFFF" font-family="Verdana" font-size="12" lengthAdjust="spacing" textLength="128.0098" x="220.2598" y="112.0762">watchPostgreSqlLogs</text><text fill="#808080" font-family="Verdana" font-size="12" lengthAdjust="spacing" textLength="56.1094" x="355.8984" y="112.0762">0.414 ms</text><line style="stroke:#4362B1;stroke-width:3.0;" x1="439.0078" x2="486.0078" y1="154.875" y2="154.875"/><line style="stroke:#4362B1;stroke-width:3.0;" x1="486.0078" x2="486.0078" y1="154.875" y2="167.875"/><line style="stroke:#4362B1;stroke-width:3.0;" x1="445.0078" x2="486.0078" y1="167.875" y2="167.875"/><polygon fill="#4362B1" points="455.0078,163.875,445.0078,167.875,455.0078,171.875,451.0078,167.875" style="stroke:#4362B1;stroke-width:1.0;"/><text fill="#FFFFFF" font-family="Verdana" font-size="12" lengthAdjust="spacing" textLength="90.5977" x="456.0078" y="145.0449">initLogEnricher</text><text fill="#808080" font-family="Verdana" font-size="12" lengthAdjust="spacing" textLength="63.7441" x="554.2344" y="145.0449">0.0141 ms</text><line style="stroke:#4362B1;stroke-width:3.0;stroke-dasharray:2.0,2.0;" x1="387.0078" x2="433.0078" y1="215.8438" y2="215.8438"/><line style="stroke:#4362B1;stroke-width:3.0;stroke-dasharray:2.0,2.0;" x1="387.0078" x2="387.0078" y1="215.8438" y2="228.8438"/><line style="stroke:#4362B1;stroke-width:3.0;stroke-dasharray:2.0,2.0;" x1="387.0078" x2="427.0078" y1="228.8438" y2="228.8438"/><polygon fill="#4362B1" points="417.0078,224.8438,427.0078,228.8438,417.0078,232.8438,421.0078,228.8438" style="stroke:#4362B1;stroke-width:1.0;"/><text fill="#FFFFFF" font-family="Verdana" font-size="12" lengthAdjust="spacing" textLength="25.3945" x="391.0078" y="206.0137">void</text><polygon fill="#4362B1" points="654.0605,257.8125,664.0605,261.8125,654.0605,265.8125,658.0605,261.8125" style="stroke:#4362B1;stroke-width:1.0;"/><line style="stroke:#4362B1;stroke-width:3.0;" x1="439.0078" x2="660.0605" y1="261.8125" y2="261.8125"/><text fill="#FFFFFF" font-family="Verdana" font-size="12" lengthAdjust="spacing" textLength="102.6211" x="451.0078" y="251.9824">positionFileTasks</text><text fill="#808080" font-family="Verdana" font-size="12" lengthAdjust="spacing" textLength="71.3789" x="561.2578" y="251.9824">0.00763 ms</text><polygon fill="#4362B1" points="450.0078,295.7813,440.0078,299.7813,450.0078,303.7813,446.0078,299.7813" style="stroke:#4362B1;stroke-width:1.0;"/><line style="stroke:#4362B1;stroke-width:3.0;stroke-dasharray:2.0,2.0;" x1="444.0078" x2="670.0605" y1="299.7813" y2="299.7813"/><text fill="#FFFFFF" font-family="Verdana" font-size="12" lengthAdjust="spacing" textLength="100.9043" x="461.0078" y="289.9512">java.lang.Thread</text><polygon fill="#4362B1" points="654.0605,333.75,664.0605,337.75,654.0605,341.75,658.0605,337.75" style="stroke:#4362B1;stroke-width:1.0;"/><line style="stroke:#4362B1;stroke-width:3.0;" x1="439.0078" x2="660.0605" y1="337.75" y2="337.75"/><text fill="#FFFFFF" font-family="Verdana" font-size="12" lengthAdjust="spacing" textLength="94.4707" x="451.0078" y="327.9199">initialLogImport</text><text fill="#808080" font-family="Verdana" font-size="12" lengthAdjust="spacing" textLength="63.7441" x="553.1074" y="327.9199">0.0117 ms</text><polygon fill="#4362B1" points="450.0078,371.7188,440.0078,375.7188,450.0078,379.7188,446.0078,375.7188" style="stroke:#4362B1;stroke-width:1.0;"/><line style="stroke:#4362B1;stroke-width:3.0;stroke-dasharray:2.0,2.0;" x1="444.0078" x2="670.0605" y1="375.7188" y2="375.7188"/><text fill="#FFFFFF" font-family="Verdana" font-size="12" lengthAdjust="spacing" textLength="25.3945" x="461.0078" y="365.8887">void</text><polygon fill="#4362B1" points="654.0605,409.6875,664.0605,413.6875,654.0605,417.6875,658.0605,413.6875" style="stroke:#4362B1;stroke-width:1.0;"/><line style="stroke:#4362B1;stroke-width:3.0;" x1="439.0078" x2="660.0605" y1="413.6875" y2="413.6875"/><text fill="#FFFFFF" font-family="Verdana" font-size="12" lengthAdjust="spacing" textLength="119.0449" x="451.0078" y="403.8574">registerWatchEvent</text><text fill="#808080" font-family="Verdana" font-size="12" lengthAdjust="spacing" textLength="71.3789" x="577.6816" y="403.8574">0.00845 ms</text><polygon fill="#4362B1" points="450.0078,447.6563,440.0078,451.6563,450.0078,455.6563,446.0078,451.6563" style="stroke:#4362B1;stroke-width:1.0;"/><line style="stroke:#4362B1;stroke-width:3.0;stroke-dasharray:2.0,2.0;" x1="444.0078" x2="670.0605" y1="451.6563" y2="451.6563"/><text fill="#FFFFFF" font-family="Verdana" font-size="12" lengthAdjust="spacing" textLength="25.3945" x="461.0078" y="441.8262">void</text><line style="stroke:#4362B1;stroke-width:3.0;" x1="439.0078" x2="486.0078" y1="484.625" y2="484.625"/><line style="stroke:#4362B1;stroke-width:3.0;" x1="486.0078" x2="486.0078" y1="484.625" y2="497.625"/><line style="stroke:#4362B1;stroke-width:3.0;" x1="445.0078" x2="486.0078" y1="497.625" y2="497.625"/><polygon fill="#4362B1" points="455.0078,493.625,445.0078,497.625,455.0078,501.625,451.0078,497.625" style="stroke:#4362B1;stroke-width:1.0;"/><text fill="#FFFFFF" font-family="Verdana" font-size="12" lengthAdjust="spacing" textLength="73.6699" x="456.0078" y="474.7949">readJsonLog</text><text fill="#808080" font-family="Verdana" font-size="12" lengthAdjust="spacing" textLength="56.1094" x="537.3066" y="474.7949">0.169 ms</text><line style="stroke:#4362B1;stroke-width:3.0;" x1="444.0078" x2="491.0078" y1="535.5938" y2="535.5938"/><line style="stroke:#4362B1;stroke-width:3.0;" x1="491.0078" x2="491.0078" y1="535.5938" y2="548.5938"/><line style="stroke:#4362B1;stroke-width:3.0;" x1="450.0078" x2="491.0078" y1="548.5938" y2="548.5938"/><polygon fill="#4362B1" points="460.0078,544.5938,450.0078,548.5938,460.0078,552.5938,456.0078,548.5938" style="stroke:#4362B1;stroke-width:1.0;"/><text fill="#FFFFFF" font-family="Verdana" font-size="12" lengthAdjust="spacing" textLength="80.1914" x="461.0078" y="525.7637">parseLogLine</text><text fill="#808080" font-family="Verdana" font-size="12" lengthAdjust="spacing" textLength="63.7441" x="548.8281" y="525.7637">0.0998 ms</text><polygon fill="#4362B1" points="873.2363,587.5625,883.2363,591.5625,873.2363,595.5625,877.2363,591.5625" style="stroke:#4362B1;stroke-width:1.0;"/><line style="stroke:#4362B1;stroke-width:3.0;" x1="449.0078" x2="879.2363" y1="591.5625" y2="591.5625"/><text fill="#FFFFFF" font-family="Verdana" font-size="12" lengthAdjust="spacing" textLength="152.2266" x="461.0078" y="581.7324">enricherApplicationName</text><text fill="#808080" font-family="Verdana" font-size="12" lengthAdjust="spacing" textLength="63.7441" x="620.8633" y="581.7324">0.0215 ms</text><polygon fill="#4362B1" points="460.0078,625.5313,450.0078,629.5313,460.0078,633.5313,456.0078,629.5313" style="stroke:#4362B1;stroke-width:1.0;"/><line style="stroke:#4362B1;stroke-width:3.0;stroke-dasharray:2.0,2.0;" x1="454.0078" x2="889.2363" y1="629.5313" y2="629.5313"/><text fill="#FFFFFF" font-family="Verdana" font-size="12" lengthAdjust="spacing" textLength="25.3945" x="471.0078" y="619.7012">void</text><line style="stroke:#4362B1;stroke-width:3.0;stroke-dasharray:2.0,2.0;" x1="387.0078" x2="438.0078" y1="672.5" y2="672.5"/><line style="stroke:#4362B1;stroke-width:3.0;stroke-dasharray:2.0,2.0;" x1="387.0078" x2="387.0078" y1="672.5" y2="685.5"/><line style="stroke:#4362B1;stroke-width:3.0;stroke-dasharray:2.0,2.0;" x1="387.0078" x2="427.0078" y1="685.5" y2="685.5"/><polygon fill="#4362B1" points="417.0078,681.5,427.0078,685.5,417.0078,689.5,421.0078,685.5" style="stroke:#4362B1;stroke-width:1.0;"/><text fill="#FFFFFF" font-family="Verdana" font-size="12" lengthAdjust="spacing" textLength="25.3945" x="391.0078" y="662.6699">void</text><line style="stroke:#4362B1;stroke-width:3.0;stroke-dasharray:2.0,2.0;" x1="387.0078" x2="433.0078" y1="723.4688" y2="723.4688"/><line style="stroke:#4362B1;stroke-width:3.0;stroke-dasharray:2.0,2.0;" x1="387.0078" x2="387.0078" y1="723.4688" y2="736.4688"/><line style="stroke:#4362B1;stroke-width:3.0;stroke-dasharray:2.0,2.0;" x1="387.0078" x2="427.0078" y1="736.4688" y2="736.4688"/><polygon fill="#4362B1" points="417.0078,732.4688,427.0078,736.4688,417.0078,740.4688,421.0078,736.4688" style="stroke:#4362B1;stroke-width:1.0;"/><text fill="#FFFFFF" font-family="Verdana" font-size="12" lengthAdjust="spacing" textLength="25.3945" x="391.0078" y="713.6387">void</text><polygon fill="#4362B1" points="219.2598,765.4375,209.2598,769.4375,219.2598,773.4375,215.2598,769.4375" style="stroke:#4362B1;stroke-width:1.0;"/><line style="stroke:#4362B1;stroke-width:3.0;stroke-dasharray:2.0,2.0;" x1="213.2598" x2="433.0078" y1="769.4375" y2="769.4375"/><text fill="#FFFFFF" font-family="Verdana" font-size="12" lengthAdjust="spacing" textLength="101.8477" x="230.2598" y="759.6074">java.lang.Integer</text><polygon fill="#4362B1" points="11,803.4063,1,807.4063,11,811.4063,7,807.4063" style="stroke:#4362B1;stroke-width:1.0;"/><line style="stroke:#4362B1;stroke-width:3.0;stroke-dasharray:2.0,2.0;" x1="5" x2="202.2598" y1="807.4063" y2="807.4063"/><text fill="#FFFFFF" font-family="Verdana" font-size="12" lengthAdjust="spacing" textLength="25.3945" x="22" y="797.5762">void</text><!--SRC=[pPLDRzim38Rl-HLQiAk_kZHjZ2303XtGeTW6DC0EFGoQmjhQh8z9j8lz-ybEqSQIcime1knY6AJ8Xwz9qM-uP4sxWzOqf4RKjimoGn_IYcFTVcyj6AOaWiIKAP5LW5HhGNMc6ogn5Ks2DGZ81EKosxlsbbGxvqnJWvnnxSwIhnHPVGkcumosO95GI-Q-SJuA-Q8iLWPkVpKVhP93mDWqFqhuLaGPRujns9KqdDN2QVnyVpz4Z2pp6I5toSRFKX9qpqChMJFLA5DMXlxUa3nTdYs8iEjii6vS5igGTnGXADJvI61CDcEj9NdeJpmRRrHbVUQYy9W7r76wmKSyOyZaagC3xRy869-N5ul21qv3hfF4PtQAxnxFxc1Q-U48b4Ghov4h-O4tiANsP_3HylnY-Uw8YZ3fIqfY-1-qewcxBLMwhGtGYBA_p1zNrpU8qtuOheLM1iCE5HV_J5kyKw_IOw3Y5i4ClglEtS6mNPUBy_zLaZ_BVSVxDzSVNqUnN4szEgTvRh5PSB0RBeE5bAzMbo7nD3EaZXPaIU1nExpNkk6CzfVj4nKX_wmuZ_4FAXWbVh40rpglWeEkUPsBPvooWwPkeTTiD7_E8hcUzycr-p5NO6Qdqjv5HlsffYD3_WS0]--></g></svg>