<svg xmlns="http://www.w3.org/2000/svg" xmlns:xlink="http://www.w3.org/1999/xlink" contentStyleType="text/css" height="1243px" preserveAspectRatio="none" style="width:1607px;height:1243px;background:#000000;" version="1.1" viewBox="0 0 1607 1243" width="1607px" zoomAndPan="magnify"><defs/><g><rect fill="none" height="1099.0313" style="stroke:#999999;stroke-width:1.0;" width="10" x="373.4668" y="83.9375"/><rect fill="none" height="157.875" style="stroke:#999999;stroke-width:1.0;" width="10" x="590.0322" y="179.8438"/><rect fill="none" height="238.7813" style="stroke:#999999;stroke-width:1.0;" width="10" x="590.0322" y="754.3438"/><rect fill="none" height="113.9063" style="stroke:#999999;stroke-width:1.0;" width="10" x="590.0322" y="1031.0938"/><rect fill="none" height="37.9688" style="stroke:#999999;stroke-width:1.0;" width="10" x="844.9971" y="261.7813"/><rect fill="none" height="37.9688" style="stroke:#999999;stroke-width:1.0;" width="10" x="844.9971" y="375.6875"/><rect fill="none" height="37.9688" style="stroke:#999999;stroke-width:1.0;" width="10" x="844.9971" y="493.5625"/><rect fill="none" height="37.9688" style="stroke:#999999;stroke-width:1.0;" width="10" x="844.9971" y="634.4375"/><rect fill="none" height="37.9688" style="stroke:#999999;stroke-width:1.0;" width="10" x="844.9971" y="834.25"/><rect fill="none" height="37.9688" style="stroke:#999999;stroke-width:1.0;" width="10" x="844.9971" y="917.1875"/><rect fill="none" height="37.9688" style="stroke:#999999;stroke-width:1.0;" width="10" x="844.9971" y="1069.0625"/><rect fill="none" height="110.875" rx="4" ry="4" style="stroke:#4362B1;stroke-width:1.5;" width="721.5361" x="258.2891" y="428.6563"/><rect fill="none" height="110.875" rx="4" ry="4" style="stroke:#4362B1;stroke-width:1.5;" width="491.1807" x="488.6445" y="769.3438"/><line style="stroke:#999999;stroke-width:0.5;stroke-dasharray:5.0,5.0;" x1="378.2891" x2="378.2891" y1="43.9688" y2="1200.9688"/><line style="stroke:#999999;stroke-width:0.5;stroke-dasharray:5.0,5.0;" x1="594.6445" x2="594.6445" y1="43.9688" y2="1200.9688"/><line style="stroke:#999999;stroke-width:0.5;stroke-dasharray:5.0,5.0;" x1="849.1689" x2="849.1689" y1="43.9688" y2="1200.9688"/><line style="stroke:#999999;stroke-width:0.5;stroke-dasharray:5.0,5.0;" x1="1059.8252" x2="1059.8252" y1="43.9688" y2="1200.9688"/><rect fill="#555555" height="37.9688" rx="4" ry="4" style="stroke:#555555;stroke-width:1.0;" width="140.3555" x="308.2891" y="5"/><text fill="#FFFFFF" font-family="Verdana" font-size="12" lengthAdjust="spacing" textLength="116.3555" x="320.2891" y="28.1387">LogEnrichmentTest</text><rect fill="#555555" height="37.9688" rx="4" ry="4" style="stroke:#555555;stroke-width:1.0;" width="140.3555" x="308.2891" y="1199.9688"/><text fill="#FFFFFF" font-family="Verdana" font-size="12" lengthAdjust="spacing" textLength="116.3555" x="320.2891" y="1223.1074">LogEnrichmentTest</text><rect fill="#555555" height="37.9688" rx="4" ry="4" style="stroke:#555555;stroke-width:1.0;" width="112.7754" x="538.6445" y="5"/><text fill="#FFFFFF" font-family="Verdana" font-size="12" lengthAdjust="spacing" textLength="88.7754" x="550.6445" y="28.1387">PostgreSqlJson</text><rect fill="#555555" height="37.9688" rx="4" ry="4" style="stroke:#555555;stroke-width:1.0;" width="112.7754" x="538.6445" y="1199.9688"/><text fill="#FFFFFF" font-family="Verdana" font-size="12" lengthAdjust="spacing" textLength="88.7754" x="550.6445" y="1223.1074">PostgreSqlJson</text><rect fill="#555555" height="37.9688" rx="4" ry="4" style="stroke:#555555;stroke-width:1.0;" width="159.6563" x="770.1689" y="5"/><text fill="#FFFFFF" font-family="Verdana" font-size="12" lengthAdjust="spacing" textLength="135.6563" x="782.1689" y="28.1387">LogEnricherPostgreSql</text><rect fill="#555555" height="37.9688" rx="4" ry="4" style="stroke:#555555;stroke-width:1.0;" width="159.6563" x="770.1689" y="1199.9688"/><text fill="#FFFFFF" font-family="Verdana" font-size="12" lengthAdjust="spacing" textLength="135.6563" x="782.1689" y="1223.1074">LogEnricherPostgreSql</text><rect fill="#555555" height="37.9688" rx="4" ry="4" style="stroke:#555555;stroke-width:1.0;" width="81.2578" x="1019.8252" y="5"/><text fill="#FFFFFF" font-family="Verdana" font-size="12" lengthAdjust="spacing" textLength="57.2578" x="1031.8252" y="28.1387">Database</text><rect fill="#555555" height="37.9688" rx="4" ry="4" style="stroke:#555555;stroke-width:1.0;" width="81.2578" x="1019.8252" y="1199.9688"/><text fill="#FFFFFF" font-family="Verdana" font-size="12" lengthAdjust="spacing" textLength="57.2578" x="1031.8252" y="1223.1074">Database</text><rect fill="none" height="1099.0313" style="stroke:#999999;stroke-width:1.0;" width="10" x="373.4668" y="83.9375"/><rect fill="none" height="157.875" style="stroke:#999999;stroke-width:1.0;" width="10" x="590.0322" y="179.8438"/><rect fill="none" height="238.7813" style="stroke:#999999;stroke-width:1.0;" width="10" x="590.0322" y="754.3438"/><rect fill="none" height="113.9063" style="stroke:#999999;stroke-width:1.0;" width="10" x="590.0322" y="1031.0938"/><rect fill="none" height="37.9688" style="stroke:#999999;stroke-width:1.0;" width="10" x="844.9971" y="261.7813"/><rect fill="none" height="37.9688" style="stroke:#999999;stroke-width:1.0;" width="10" x="844.9971" y="375.6875"/><rect fill="none" height="37.9688" style="stroke:#999999;stroke-width:1.0;" width="10" x="844.9971" y="493.5625"/><rect fill="none" height="37.9688" style="stroke:#999999;stroke-width:1.0;" width="10" x="844.9971" y="634.4375"/><rect fill="none" height="37.9688" style="stroke:#999999;stroke-width:1.0;" width="10" x="844.9971" y="834.25"/><rect fill="none" height="37.9688" style="stroke:#999999;stroke-width:1.0;" width="10" x="844.9971" y="917.1875"/><rect fill="none" height="37.9688" style="stroke:#999999;stroke-width:1.0;" width="10" x="844.9971" y="1069.0625"/><polygon fill="#4362B1" points="361.4668,79.9375,371.4668,83.9375,361.4668,87.9375,365.4668,83.9375" style="stroke:#4362B1;stroke-width:1.0;"/><line style="stroke:#4362B1;stroke-width:3.0;" x1="0" x2="367.4668" y1="83.9375" y2="83.9375"/><text fill="#FFFFFF" font-family="Verdana" font-size="12" lengthAdjust="spacing" textLength="292.1777" x="12" y="74.1074">initLogEnricherWithDbHostWithPgStatStatement</text><text fill="#808080" font-family="Verdana" font-size="12" lengthAdjust="spacing" textLength="44.6602" x="311.8066" y="74.1074">139 ms</text><polygon fill="#4362B1" points="1048.4541,127.8906,1058.4541,131.8906,1048.4541,135.8906,1052.4541,131.8906" style="stroke:#4362B1;stroke-width:1.0;"/><line style="stroke:#4362B1;stroke-width:3.0;" x1="383.4668" x2="1054.4541" y1="131.8906" y2="131.8906"/><text fill="#FFFFFF" font-family="Verdana" font-size="12" lengthAdjust="spacing" textLength="322.5234" x="395.4668" y="122.0605">CREATE TABLE pg_stat_statements(queryid bigint, qu</text><text fill="#808080" font-family="Verdana" font-size="12" lengthAdjust="spacing" textLength="56.1094" x="725.6191" y="122.0605">0.661 ms</text><path d="M1065,100.9375 L1065,139.9375 A4,4 0 0 0 1069,143.9375 L1533,143.9375 A4,4 0 0 0 1537,139.9375 L1537,106.9375 L1527,96.9375 L1069,96.9375 A4,4 0 0 0 1065,100.9375 " fill="#4362B1" style="stroke:#000000;stroke-width:1.0;"/><path d="M1527,96.9375 L1527,104.9375 A2,2 0 0 0 1529,106.9375 L1537,106.9375 L1527,96.9375 " fill="#4362B1" style="stroke:#000000;stroke-width:1.0;"/><text fill="#FFFFFF" font-family="Verdana" font-size="12" lengthAdjust="spacing" textLength="441.457" x="1076" y="118.0762">CREATE TABLE pg_stat_statements(queryid bigint, query text) /* emulate</text><text fill="#FFFFFF" font-family="Verdana" font-size="12" lengthAdjust="spacing" textLength="132.1406" x="1076" y="132.0449">pg_stat_statements */</text><polygon fill="#4362B1" points="578.0322,175.8438,588.0322,179.8438,578.0322,183.8438,582.0322,179.8438" style="stroke:#4362B1;stroke-width:1.0;"/><line style="stroke:#4362B1;stroke-width:3.0;" x1="383.4668" x2="584.0322" y1="179.8438" y2="179.8438"/><text fill="#FFFFFF" font-family="Verdana" font-size="12" lengthAdjust="spacing" textLength="90.5977" x="395.4668" y="170.0137">initLogEnricher</text><text fill="#808080" font-family="Verdana" font-size="12" lengthAdjust="spacing" textLength="48.4746" x="493.6934" y="170.0137">22.3 ms</text><polygon fill="#4362B1" points="1048.4541,216.8125,1058.4541,220.8125,1048.4541,224.8125,1052.4541,220.8125" style="stroke:#4362B1;stroke-width:1.0;"/><line style="stroke:#4362B1;stroke-width:3.0;" x1="600.0322" x2="1054.4541" y1="220.8125" y2="220.8125"/><text fill="#FFFFFF" font-family="Verdana" font-size="12" lengthAdjust="spacing" textLength="318.5508" x="612.0322" y="210.9824">select query from pg_stat_statements where queryid</text><text fill="#808080" font-family="Verdana" font-size="12" lengthAdjust="spacing" textLength="48.4746" x="938.2119" y="210.9824">4.23 ms</text><path d="M1065,196.8438 L1065,221.8438 A4,4 0 0 0 1069,225.8438 L1426,225.8438 A4,4 0 0 0 1430,221.8438 L1430,202.8438 L1420,192.8438 L1069,192.8438 A4,4 0 0 0 1065,196.8438 " fill="#4362B1" style="stroke:#000000;stroke-width:1.0;"/><path d="M1420,192.8438 L1420,200.8438 A2,2 0 0 0 1422,202.8438 L1430,202.8438 L1420,192.8438 " fill="#4362B1" style="stroke:#000000;stroke-width:1.0;"/><text fill="#FFFFFF" font-family="Verdana" font-size="12" lengthAdjust="spacing" textLength="334.9746" x="1076" y="213.9824">select query from pg_stat_statements where queryid=?</text><polygon fill="#4362B1" points="832.9971,257.7813,842.9971,261.7813,832.9971,265.7813,836.9971,261.7813" style="stroke:#4362B1;stroke-width:1.0;"/><line style="stroke:#4362B1;stroke-width:3.0;" x1="600.0322" x2="838.9971" y1="261.7813" y2="261.7813"/><text fill="#FFFFFF" font-family="Verdana" font-size="12" lengthAdjust="spacing" textLength="82.8516" x="612.0322" y="251.9512">getStatement</text><text fill="#808080" font-family="Verdana" font-size="12" lengthAdjust="spacing" textLength="48.4746" x="702.5127" y="251.9512">2.71 ms</text><polygon fill="#4362B1" points="611.0322,295.75,601.0322,299.75,611.0322,303.75,607.0322,299.75" style="stroke:#4362B1;stroke-width:1.0;"/><line style="stroke:#4362B1;stroke-width:3.0;stroke-dasharray:2.0,2.0;" x1="605.0322" x2="848.9971" y1="299.75" y2="299.75"/><text fill="#FFFFFF" font-family="Verdana" font-size="12" lengthAdjust="spacing" textLength="25.3945" x="622.0322" y="289.9199">void</text><polygon fill="#4362B1" points="394.4668,333.7188,384.4668,337.7188,394.4668,341.7188,390.4668,337.7188" style="stroke:#4362B1;stroke-width:1.0;"/><line style="stroke:#4362B1;stroke-width:3.0;stroke-dasharray:2.0,2.0;" x1="388.4668" x2="594.0322" y1="337.7188" y2="337.7188"/><text fill="#FFFFFF" font-family="Verdana" font-size="12" lengthAdjust="spacing" textLength="25.3945" x="405.4668" y="327.8887">void</text><polygon fill="#4362B1" points="832.9971,371.6875,842.9971,375.6875,832.9971,379.6875,836.9971,375.6875" style="stroke:#4362B1;stroke-width:1.0;"/><line style="stroke:#4362B1;stroke-width:3.0;" x1="383.4668" x2="838.9971" y1="375.6875" y2="375.6875"/><text fill="#FFFFFF" font-family="Verdana" font-size="12" lengthAdjust="spacing" textLength="152.2266" x="395.4668" y="365.8574">enricherApplicationName</text><text fill="#808080" font-family="Verdana" font-size="12" lengthAdjust="spacing" textLength="71.3789" x="555.3223" y="365.8574">0.00632 ms</text><polygon fill="#4362B1" points="394.4668,409.6563,384.4668,413.6563,394.4668,417.6563,390.4668,413.6563" style="stroke:#4362B1;stroke-width:1.0;"/><line style="stroke:#4362B1;stroke-width:3.0;stroke-dasharray:2.0,2.0;" x1="388.4668" x2="848.9971" y1="413.6563" y2="413.6563"/><text fill="#FFFFFF" font-family="Verdana" font-size="12" lengthAdjust="spacing" textLength="34.4473" x="405.4668" y="403.8262">string</text><path d="M262.2891,428.6563 L342.4805,428.6563 L342.4805,444.625 L332.4805,454.625 L258.2891,454.625 L258.2891,432.6563 A4,4 0 0 1 262.2891,428.6563 " fill="#4362B1" style="stroke:#4362B1;stroke-width:1.5;"/><rect fill="none" height="110.875" rx="4" ry="4" style="stroke:#4362B1;stroke-width:1.5;" width="721.5361" x="258.2891" y="428.6563"/><text fill="#FFFFFF" font-family="Verdana" font-size="12" font-weight="bold" lengthAdjust="spacing" textLength="29.1914" x="278.2891" y="445.7949">loop</text><text fill="#4362B1" font-family="Verdana" font-size="12" font-weight="bold" lengthAdjust="spacing" textLength="55.6465" x="362.4805" y="446.7949">[5 times</text><text fill="#808080" font-family="Verdana" font-size="12" font-weight="bold" lengthAdjust="spacing" textLength="45.082" x="426.4824" y="446.7949">4.7 ms</text><text fill="#4362B1" font-family="Verdana" font-size="12" font-weight="bold" lengthAdjust="spacing" textLength="5.4844" x="471.5645" y="446.7949">]</text><polygon fill="#4362B1" points="832.9971,489.5625,842.9971,493.5625,832.9971,497.5625,836.9971,493.5625" style="stroke:#4362B1;stroke-width:1.0;"/><line style="stroke:#4362B1;stroke-width:3.0;" x1="383.4668" x2="838.9971" y1="493.5625" y2="493.5625"/><text fill="#FFFFFF" font-family="Verdana" font-size="12" lengthAdjust="spacing" textLength="82.8516" x="395.4668" y="483.7324">getStatement</text><text fill="#808080" font-family="Verdana" font-size="12" lengthAdjust="spacing" textLength="40.8398" x="485.9473" y="483.7324">4.7 ms</text><polygon fill="#4362B1" points="394.4668,527.5313,384.4668,531.5313,394.4668,535.5313,390.4668,531.5313" style="stroke:#4362B1;stroke-width:1.0;"/><line style="stroke:#4362B1;stroke-width:3.0;stroke-dasharray:2.0,2.0;" x1="388.4668" x2="848.9971" y1="531.5313" y2="531.5313"/><text fill="#FFFFFF" font-family="Verdana" font-size="12" lengthAdjust="spacing" textLength="25.3945" x="405.4668" y="521.7012">void</text><polygon fill="#4362B1" points="1048.4541,582.4844,1058.4541,586.4844,1048.4541,590.4844,1052.4541,586.4844" style="stroke:#4362B1;stroke-width:1.0;"/><line style="stroke:#4362B1;stroke-width:3.0;" x1="383.4668" x2="1054.4541" y1="586.4844" y2="586.4844"/><text fill="#FFFFFF" font-family="Verdana" font-size="12" lengthAdjust="spacing" textLength="327.6973" x="395.4668" y="576.6543">INSERT INTO pg_stat_statements(queryid,query) VALU</text><text fill="#808080" font-family="Verdana" font-size="12" lengthAdjust="spacing" textLength="56.1094" x="730.793" y="576.6543">0.506 ms</text><path d="M1065,555.5313 L1065,594.5313 A4,4 0 0 0 1069,598.5313 L1520,598.5313 A4,4 0 0 0 1524,594.5313 L1524,561.5313 L1514,551.5313 L1069,551.5313 A4,4 0 0 0 1065,555.5313 " fill="#4362B1" style="stroke:#000000;stroke-width:1.0;"/><path d="M1514,551.5313 L1514,559.5313 A2,2 0 0 0 1516,561.5313 L1524,561.5313 L1514,551.5313 " fill="#4362B1" style="stroke:#000000;stroke-width:1.0;"/><text fill="#FFFFFF" font-family="Verdana" font-size="12" lengthAdjust="spacing" textLength="428.5137" x="1076" y="572.6699">INSERT INTO pg_stat_statements(queryid,query) VALUES (1024, 'select</text><text fill="#FFFFFF" font-family="Verdana" font-size="12" lengthAdjust="spacing" textLength="260.5605" x="1076" y="586.6387">version()')/* emulate pg_stat_statements */</text><polygon fill="#4362B1" points="832.9971,630.4375,842.9971,634.4375,832.9971,638.4375,836.9971,634.4375" style="stroke:#4362B1;stroke-width:1.0;"/><line style="stroke:#4362B1;stroke-width:3.0;" x1="383.4668" x2="838.9971" y1="634.4375" y2="634.4375"/><text fill="#FFFFFF" font-family="Verdana" font-size="12" lengthAdjust="spacing" textLength="82.8516" x="395.4668" y="624.6074">getStatement</text><text fill="#808080" font-family="Verdana" font-size="12" lengthAdjust="spacing" textLength="48.4746" x="485.9473" y="624.6074">4.96 ms</text><polygon fill="#4362B1" points="394.4668,668.4063,384.4668,672.4063,394.4668,676.4063,390.4668,672.4063" style="stroke:#4362B1;stroke-width:1.0;"/><line style="stroke:#4362B1;stroke-width:3.0;stroke-dasharray:2.0,2.0;" x1="388.4668" x2="848.9971" y1="672.4063" y2="672.4063"/><text fill="#FFFFFF" font-family="Verdana" font-size="12" lengthAdjust="spacing" textLength="34.4473" x="405.4668" y="662.5762">string</text><polygon fill="#4362B1" points="1048.4541,709.375,1058.4541,713.375,1048.4541,717.375,1052.4541,713.375" style="stroke:#4362B1;stroke-width:1.0;"/><line style="stroke:#4362B1;stroke-width:3.0;" x1="383.4668" x2="1054.4541" y1="713.375" y2="713.375"/><text fill="#FFFFFF" font-family="Verdana" font-size="12" lengthAdjust="spacing" textLength="327.6973" x="395.4668" y="703.5449">INSERT INTO pg_stat_statements(queryid,query) VALU</text><text fill="#808080" font-family="Verdana" font-size="12" lengthAdjust="spacing" textLength="56.1094" x="730.793" y="703.5449">0.222 ms</text><path d="M1065,689.4063 L1065,714.4063 A4,4 0 0 0 1069,718.4063 L1596,718.4063 A4,4 0 0 0 1600,714.4063 L1600,695.4063 L1590,685.4063 L1069,685.4063 A4,4 0 0 0 1065,689.4063 " fill="#4362B1" style="stroke:#000000;stroke-width:1.0;"/><path d="M1590,685.4063 L1590,693.4063 A2,2 0 0 0 1592,695.4063 L1600,695.4063 L1590,685.4063 " fill="#4362B1" style="stroke:#000000;stroke-width:1.0;"/><text fill="#FFFFFF" font-family="Verdana" font-size="12" lengthAdjust="spacing" textLength="504.5977" x="1076" y="706.5449">INSERT INTO pg_stat_statements(queryid,query) VALUES (-3416356442043621232,</text><polygon fill="#4362B1" points="578.0322,750.3438,588.0322,754.3438,578.0322,758.3438,582.0322,754.3438" style="stroke:#4362B1;stroke-width:1.0;"/><line style="stroke:#4362B1;stroke-width:3.0;" x1="383.4668" x2="584.0322" y1="754.3438" y2="754.3438"/><text fill="#FFFFFF" font-family="Verdana" font-size="12" lengthAdjust="spacing" textLength="80.1914" x="395.4668" y="744.5137">parseLogLine</text><text fill="#808080" font-family="Verdana" font-size="12" lengthAdjust="spacing" textLength="48.4746" x="483.2871" y="744.5137">5.03 ms</text><path d="M492.6445,769.3438 L572.8359,769.3438 L572.8359,785.3125 L562.8359,795.3125 L488.6445,795.3125 L488.6445,773.3438 A4,4 0 0 1 492.6445,769.3438 " fill="#4362B1" style="stroke:#4362B1;stroke-width:1.5;"/><rect fill="none" height="110.875" rx="4" ry="4" style="stroke:#4362B1;stroke-width:1.5;" width="491.1807" x="488.6445" y="769.3438"/><text fill="#FFFFFF" font-family="Verdana" font-size="12" font-weight="bold" lengthAdjust="spacing" textLength="29.1914" x="508.6445" y="786.4824">loop</text><text fill="#4362B1" font-family="Verdana" font-size="12" font-weight="bold" lengthAdjust="spacing" textLength="55.6465" x="592.8359" y="787.4824">[3 times</text><text fill="#808080" font-family="Verdana" font-size="12" font-weight="bold" lengthAdjust="spacing" textLength="61.7813" x="656.8379" y="787.4824">0.273 ms</text><text fill="#4362B1" font-family="Verdana" font-size="12" font-weight="bold" lengthAdjust="spacing" textLength="5.4844" x="718.6191" y="787.4824">]</text><polygon fill="#4362B1" points="832.9971,830.25,842.9971,834.25,832.9971,838.25,836.9971,834.25" style="stroke:#4362B1;stroke-width:1.0;"/><line style="stroke:#4362B1;stroke-width:3.0;" x1="600.0322" x2="838.9971" y1="834.25" y2="834.25"/><text fill="#FFFFFF" font-family="Verdana" font-size="12" lengthAdjust="spacing" textLength="152.2266" x="612.0322" y="824.4199">enricherApplicationName</text><text fill="#808080" font-family="Verdana" font-size="12" lengthAdjust="spacing" textLength="56.1094" x="771.8877" y="824.4199">0.273 ms</text><polygon fill="#4362B1" points="611.0322,868.2188,601.0322,872.2188,611.0322,876.2188,607.0322,872.2188" style="stroke:#4362B1;stroke-width:1.0;"/><line style="stroke:#4362B1;stroke-width:3.0;stroke-dasharray:2.0,2.0;" x1="605.0322" x2="848.9971" y1="872.2188" y2="872.2188"/><text fill="#FFFFFF" font-family="Verdana" font-size="12" lengthAdjust="spacing" textLength="34.4473" x="622.0322" y="862.3887">string</text><polygon fill="#4362B1" points="832.9971,913.1875,842.9971,917.1875,832.9971,921.1875,836.9971,917.1875" style="stroke:#4362B1;stroke-width:1.0;"/><line style="stroke:#4362B1;stroke-width:3.0;" x1="600.0322" x2="838.9971" y1="917.1875" y2="917.1875"/><text fill="#FFFFFF" font-family="Verdana" font-size="12" lengthAdjust="spacing" textLength="82.8516" x="612.0322" y="907.3574">getStatement</text><text fill="#808080" font-family="Verdana" font-size="12" lengthAdjust="spacing" textLength="48.4746" x="702.5127" y="907.3574">4.16 ms</text><polygon fill="#4362B1" points="611.0322,951.1563,601.0322,955.1563,611.0322,959.1563,607.0322,955.1563" style="stroke:#4362B1;stroke-width:1.0;"/><line style="stroke:#4362B1;stroke-width:3.0;stroke-dasharray:2.0,2.0;" x1="605.0322" x2="848.9971" y1="955.1563" y2="955.1563"/><text fill="#FFFFFF" font-family="Verdana" font-size="12" lengthAdjust="spacing" textLength="34.4473" x="622.0322" y="945.3262">string</text><polygon fill="#4362B1" points="394.4668,989.125,384.4668,993.125,394.4668,997.125,390.4668,993.125" style="stroke:#4362B1;stroke-width:1.0;"/><line style="stroke:#4362B1;stroke-width:3.0;stroke-dasharray:2.0,2.0;" x1="388.4668" x2="594.0322" y1="993.125" y2="993.125"/><text fill="#FFFFFF" font-family="Verdana" font-size="12" lengthAdjust="spacing" textLength="25.3945" x="405.4668" y="983.2949">void</text><polygon fill="#4362B1" points="578.0322,1027.0938,588.0322,1031.0938,578.0322,1035.0938,582.0322,1031.0938" style="stroke:#4362B1;stroke-width:1.0;"/><line style="stroke:#4362B1;stroke-width:3.0;" x1="383.4668" x2="584.0322" y1="1031.0938" y2="1031.0938"/><text fill="#FFFFFF" font-family="Verdana" font-size="12" lengthAdjust="spacing" textLength="30.9082" x="395.4668" y="1021.2637">close</text><text fill="#808080" font-family="Verdana" font-size="12" lengthAdjust="spacing" textLength="63.7441" x="434.0039" y="1021.2637">0.0415 ms</text><polygon fill="#4362B1" points="832.9971,1065.0625,842.9971,1069.0625,832.9971,1073.0625,836.9971,1069.0625" style="stroke:#4362B1;stroke-width:1.0;"/><line style="stroke:#4362B1;stroke-width:3.0;" x1="600.0322" x2="838.9971" y1="1069.0625" y2="1069.0625"/><text fill="#FFFFFF" font-family="Verdana" font-size="12" lengthAdjust="spacing" textLength="30.9082" x="612.0322" y="1059.2324">close</text><text fill="#808080" font-family="Verdana" font-size="12" lengthAdjust="spacing" textLength="63.7441" x="650.5693" y="1059.2324">0.0205 ms</text><polygon fill="#4362B1" points="611.0322,1103.0313,601.0322,1107.0313,611.0322,1111.0313,607.0322,1107.0313" style="stroke:#4362B1;stroke-width:1.0;"/><line style="stroke:#4362B1;stroke-width:3.0;stroke-dasharray:2.0,2.0;" x1="605.0322" x2="848.9971" y1="1107.0313" y2="1107.0313"/><text fill="#FFFFFF" font-family="Verdana" font-size="12" lengthAdjust="spacing" textLength="25.3945" x="622.0322" y="1097.2012">void</text><polygon fill="#4362B1" points="394.4668,1141,384.4668,1145,394.4668,1149,390.4668,1145" style="stroke:#4362B1;stroke-width:1.0;"/><line style="stroke:#4362B1;stroke-width:3.0;stroke-dasharray:2.0,2.0;" x1="388.4668" x2="594.0322" y1="1145" y2="1145"/><text fill="#FFFFFF" font-family="Verdana" font-size="12" lengthAdjust="spacing" textLength="25.3945" x="405.4668" y="1135.1699">void</text><polygon fill="#4362B1" points="11,1178.9688,1,1182.9688,11,1186.9688,7,1182.9688" style="stroke:#4362B1;stroke-width:1.0;"/><line style="stroke:#4362B1;stroke-width:3.0;stroke-dasharray:2.0,2.0;" x1="5" x2="377.4668" y1="1182.9688" y2="1182.9688"/><text fill="#FFFFFF" font-family="Verdana" font-size="12" lengthAdjust="spacing" textLength="25.3945" x="22" y="1173.1387">void</text><!--SRC=[tLVRRjf047ttLqnHfK04lgoDew2KYgQMsWgbKQ3jGnwgnMpDIlRQsLqdpTztuq3mDRNJH8hw0CQpCsTknpFc3ML-cAv9oaFOI9c8YM5mVAC7L6xILIe8zsCc2PEw7qT6G2HEaWWdHX9Y9jCe7CaDYOWHOSgC-wDxYPweGot1N5AV9aeNvd7WCKxzJQJGbaH8m09w5MclO7GU2nbmihWAluYOPHP5KQ_U1-5xjQAV_4dH-2EMU8K5oVHtDpqDu78qhOGv0SgepA7-K0NxkFgaiEz-dGSBYUNTXznPm8aVXp6V11pVJi6oZo4I9qOccoe7s9VqMgbMQwGEeIeTJNVXJU3qmfijFLZEFimzI8AVGldClZB7ed-L4dvBrx2Y0MLo25TfCHXJTrsh60x0MQo2uJJOIAqxlhe7INxB0HY7GA8qLBfQrH8EZSoNnzR0bB-cL8lzhjIzc0r2kbrEvg6wHQJi34h2V6K52Oaljmdzud5KapxSg108x8fGYCNHKIMMGccxEtZtVejIA5erYLgsJq0zlWsKHFgHLOsroiiyNgtlaz6emVbrJDTRapLfWLoXWe8kS-41CuTOq-KQLZK4IRQoMPA4rCUInkmCHwJyo9YcQwD6ddNBgI4I8JbbWTQXN742Ov0q8gBCmwDgQzkNf9aqjS2jEDEX3brfevwClm_DpsSBxsAfBiklZyoqONOTmFVP_5kP0MFJVMHeTiVt5j2tJEGCuU1-B6ZNX0j5l_xWOB2Ve_3qEVg4zXwxhutZBzfJXD2pztHaEvPhZrt7GQPZkyX2DXfg1mjlxfqkCvoGaAJ_rdgkDfT7f7h34KJfpIahZR6nRdRSbTcCiUjcZ2hUKSsoQxsPMixT1YUjPaxxJPMZPMjgxWVFCsnZHxVS5zx6XHnVmJuk8_bXBAfhrx76__Psrr2DUc_87F-lxqIN-PZs_scsjdMnx9J-0000]--></g></svg>