<svg xmlns="http://www.w3.org/2000/svg" xmlns:xlink="http://www.w3.org/1999/xlink" contentStyleType="text/css" height="324px" preserveAspectRatio="none" style="width:668px;height:324px;background:#FFFFFF;" version="1.1" viewBox="0 0 668 324" width="668px" zoomAndPan="magnify"><defs/><g><rect fill="#FFFFFF" height="203.9297" style="stroke:#181818;stroke-width:1.0;" width="10" x="143.7886" y="67.4297"/><rect fill="#FFFFFF" height="145.6641" style="stroke:#181818;stroke-width:1.0;" width="10" x="328.7124" y="96.5625"/><rect fill="#FFFFFF" height="29.1328" style="stroke:#181818;stroke-width:1.0;" width="10" x="599.9453" y="125.6953"/><rect fill="#FFFFFF" height="29.1328" style="stroke:#181818;stroke-width:1.0;" width="10" x="599.9453" y="183.9609"/><line style="stroke:#181818;stroke-width:0.5;stroke-dasharray:5.0,5.0;" x1="148.0288" x2="148.0288" y1="36.2969" y2="289.3594"/><line style="stroke:#181818;stroke-width:0.5;stroke-dasharray:5.0,5.0;" x1="332.9268" x2="332.9268" y1="36.2969" y2="289.3594"/><line style="stroke:#181818;stroke-width:0.5;stroke-dasharray:5.0,5.0;" x1="604.2329" x2="604.2329" y1="36.2969" y2="289.3594"/><rect fill="#E2E2F0" height="30.2969" rx="2.5" ry="2.5" style="stroke:#181818;stroke-width:0.5;" width="147.5195" x="75.0288" y="5"/><text fill="#000000" font-family="sans-serif" font-size="14" lengthAdjust="spacing" textLength="133.5195" x="82.0288" y="24.9951">PostgreSqlJsonTest</text><rect fill="#E2E2F0" height="30.2969" rx="2.5" ry="2.5" style="stroke:#181818;stroke-width:0.5;" width="147.5195" x="75.0288" y="288.3594"/><text fill="#000000" font-family="sans-serif" font-size="14" lengthAdjust="spacing" textLength="133.5195" x="82.0288" y="308.3545">PostgreSqlJsonTest</text><rect fill="#E2E2F0" height="30.2969" rx="2.5" ry="2.5" style="stroke:#181818;stroke-width:0.5;" width="117.5713" x="274.9268" y="5"/><text fill="#000000" font-family="sans-serif" font-size="14" lengthAdjust="spacing" textLength="103.5713" x="281.9268" y="24.9951">PostgreSqlJson</text><rect fill="#E2E2F0" height="30.2969" rx="2.5" ry="2.5" style="stroke:#181818;stroke-width:0.5;" width="117.5713" x="274.9268" y="288.3594"/><text fill="#000000" font-family="sans-serif" font-size="14" lengthAdjust="spacing" textLength="103.5713" x="281.9268" y="308.3545">PostgreSqlJson</text><rect fill="#E2E2F0" height="30.2969" rx="2.5" ry="2.5" style="stroke:#181818;stroke-width:0.5;" width="115.4248" x="547.2329" y="5"/><text fill="#000000" font-family="sans-serif" font-size="14" lengthAdjust="spacing" textLength="101.4248" x="554.2329" y="24.9951">EnrichmentOff</text><rect fill="#E2E2F0" height="30.2969" rx="2.5" ry="2.5" style="stroke:#181818;stroke-width:0.5;" width="115.4248" x="547.2329" y="288.3594"/><text fill="#000000" font-family="sans-serif" font-size="14" lengthAdjust="spacing" textLength="101.4248" x="554.2329" y="308.3545">EnrichmentOff</text><rect fill="#FFFFFF" height="203.9297" style="stroke:#181818;stroke-width:1.0;" width="10" x="143.7886" y="67.4297"/><rect fill="#FFFFFF" height="145.6641" style="stroke:#181818;stroke-width:1.0;" width="10" x="328.7124" y="96.5625"/><rect fill="#FFFFFF" height="29.1328" style="stroke:#181818;stroke-width:1.0;" width="10" x="599.9453" y="125.6953"/><rect fill="#FFFFFF" height="29.1328" style="stroke:#181818;stroke-width:1.0;" width="10" x="599.9453" y="183.9609"/><polygon fill="#181818" points="131.7886,63.4297,141.7886,67.4297,131.7886,71.4297,135.7886,67.4297" style="stroke:#181818;stroke-width:1.0;"/><line style="stroke:#181818;stroke-width:1.0;" x1="0" x2="137.7886" y1="67.4297" y2="67.4297"/><text fill="#000000" font-family="sans-serif" font-size="13" lengthAdjust="spacing" textLength="55.7388" x="7" y="62.3638">logParse</text><text fill="#808080" font-family="sans-serif" font-size="13" lengthAdjust="spacing" textLength="60.7852" x="71.0034" y="62.3638">0.134 ms</text><polygon fill="#181818" points="316.7124,92.5625,326.7124,96.5625,316.7124,100.5625,320.7124,96.5625" style="stroke:#181818;stroke-width:1.0;"/><line style="stroke:#181818;stroke-width:1.0;" x1="153.7886" x2="322.7124" y1="96.5625" y2="96.5625"/><text fill="#000000" font-family="sans-serif" font-size="13" lengthAdjust="spacing" textLength="86.874" x="160.7886" y="91.4966">parseLogLine</text><text fill="#808080" font-family="sans-serif" font-size="13" lengthAdjust="spacing" textLength="60.7852" x="255.9272" y="91.4966">0.113 ms</text><polygon fill="#181818" points="587.9453,121.6953,597.9453,125.6953,587.9453,129.6953,591.9453,125.6953" style="stroke:#181818;stroke-width:1.0;"/><line style="stroke:#181818;stroke-width:1.0;" x1="338.7124" x2="593.9453" y1="125.6953" y2="125.6953"/><text fill="#000000" font-family="sans-serif" font-size="13" lengthAdjust="spacing" textLength="164.9121" x="345.7124" y="120.6294">enricherApplicationName</text><text fill="#808080" font-family="sans-serif" font-size="13" lengthAdjust="spacing" textLength="69.0562" x="518.8892" y="120.6294">0.0191 ms</text><polygon fill="#181818" points="349.7124,150.8281,339.7124,154.8281,349.7124,158.8281,345.7124,154.8281" style="stroke:#181818;stroke-width:1.0;"/><line style="stroke:#181818;stroke-width:1.0;stroke-dasharray:2.0,2.0;" x1="343.7124" x2="603.9453" y1="154.8281" y2="154.8281"/><text fill="#000000" font-family="sans-serif" font-size="13" lengthAdjust="spacing" textLength="27.5107" x="355.7124" y="149.7622">void</text><polygon fill="#181818" points="587.9453,179.9609,597.9453,183.9609,587.9453,187.9609,591.9453,183.9609" style="stroke:#181818;stroke-width:1.0;"/><line style="stroke:#181818;stroke-width:1.0;" x1="338.7124" x2="593.9453" y1="183.9609" y2="183.9609"/><text fill="#000000" font-family="sans-serif" font-size="13" lengthAdjust="spacing" textLength="89.7559" x="345.7124" y="178.895">getStatement</text><text fill="#808080" font-family="sans-serif" font-size="13" lengthAdjust="spacing" textLength="77.3271" x="443.7329" y="178.895">0.00599 ms</text><polygon fill="#181818" points="349.7124,209.0938,339.7124,213.0938,349.7124,217.0938,345.7124,213.0938" style="stroke:#181818;stroke-width:1.0;"/><line style="stroke:#181818;stroke-width:1.0;stroke-dasharray:2.0,2.0;" x1="343.7124" x2="603.9453" y1="213.0938" y2="213.0938"/><text fill="#000000" font-family="sans-serif" font-size="13" lengthAdjust="spacing" textLength="27.5107" x="355.7124" y="208.0278">void</text><polygon fill="#181818" points="164.7886,238.2266,154.7886,242.2266,164.7886,246.2266,160.7886,242.2266" style="stroke:#181818;stroke-width:1.0;"/><line style="stroke:#181818;stroke-width:1.0;stroke-dasharray:2.0,2.0;" x1="158.7886" x2="332.7124" y1="242.2266" y2="242.2266"/><text fill="#000000" font-family="sans-serif" font-size="13" lengthAdjust="spacing" textLength="27.5107" x="170.7886" y="237.1606">void</text><polygon fill="#181818" points="11,267.3594,1,271.3594,11,275.3594,7,271.3594" style="stroke:#181818;stroke-width:1.0;"/><line style="stroke:#181818;stroke-width:1.0;stroke-dasharray:2.0,2.0;" x1="5" x2="147.7886" y1="271.3594" y2="271.3594"/><text fill="#000000" font-family="sans-serif" font-size="13" lengthAdjust="spacing" textLength="27.5107" x="17" y="266.2935">void</text><!--SRC=[nP8nQyCm48Nt_8h3krERD8EDCNJ84a8RIBTCXwAe0bjIfIFGVr_R3INIsKEdZdftxtrtd1nwqa8xD0H76qXvUVhizi6QTna8C436vMpb5cqpbhXzPxmM7xqqz7QzJjsHagq0pddBeJLqLXtH1mcDi9trjVBurKAnBZVFq8VcQLBRmO-2z0r9pcmqL656Je4rk95qiEgW3GUMcnYuY9ngAJ1leurhaDDJ-XVdEYsGj3Mls3DiKLPbodqWHw6pu2RF4_BDwikzzIB_aCHMK99ED7X7WSrTRAlgdmRdfnwoqbl_XZr4iJkUcV7dLzxDYzQnwni0]--></g></svg>