<svg xmlns="http://www.w3.org/2000/svg" xmlns:xlink="http://www.w3.org/1999/xlink" contentStyleType="text/css" height="266px" preserveAspectRatio="none" style="width:591px;height:266px;background:#FFFFFF;" version="1.1" viewBox="0 0 591 266" width="591px" zoomAndPan="magnify"><defs/><g><rect fill="#FFFFFF" height="145.6641" style="stroke:#181818;stroke-width:1.0;" width="10" x="223.1025" y="67.4297"/><rect fill="#FFFFFF" height="87.3984" style="stroke:#181818;stroke-width:1.0;" width="10" x="383.353" y="96.5625"/><rect fill="#FFFFFF" height="29.1328" style="stroke:#181818;stroke-width:1.0;" width="10" x="523.1577" y="125.6953"/><line style="stroke:#181818;stroke-width:0.5;stroke-dasharray:5.0,5.0;" x1="227.6377" x2="227.6377" y1="36.2969" y2="231.0938"/><line style="stroke:#181818;stroke-width:0.5;stroke-dasharray:5.0,5.0;" x1="387.5674" x2="387.5674" y1="36.2969" y2="231.0938"/><line style="stroke:#181818;stroke-width:0.5;stroke-dasharray:5.0,5.0;" x1="527.4453" x2="527.4453" y1="36.2969" y2="231.0938"/><rect fill="#E2E2F0" height="30.2969" rx="2.5" ry="2.5" style="stroke:#181818;stroke-width:0.5;" width="182.9297" x="136.6377" y="5"/><text fill="#000000" font-family="sans-serif" font-size="14" lengthAdjust="spacing" textLength="168.9297" x="143.6377" y="24.9951">TestCliArgumentParsing</text><rect fill="#E2E2F0" height="30.2969" rx="2.5" ry="2.5" style="stroke:#181818;stroke-width:0.5;" width="182.9297" x="136.6377" y="230.0938"/><text fill="#000000" font-family="sans-serif" font-size="14" lengthAdjust="spacing" textLength="168.9297" x="143.6377" y="250.0889">TestCliArgumentParsing</text><rect fill="#E2E2F0" height="30.2969" rx="2.5" ry="2.5" style="stroke:#181818;stroke-width:0.5;" width="117.5713" x="329.5674" y="5"/><text fill="#000000" font-family="sans-serif" font-size="14" lengthAdjust="spacing" textLength="103.5713" x="336.5674" y="24.9951">PostgreSqlJson</text><rect fill="#E2E2F0" height="30.2969" rx="2.5" ry="2.5" style="stroke:#181818;stroke-width:0.5;" width="117.5713" x="329.5674" y="230.0938"/><text fill="#000000" font-family="sans-serif" font-size="14" lengthAdjust="spacing" textLength="103.5713" x="336.5674" y="250.0889">PostgreSqlJson</text><rect fill="#E2E2F0" height="30.2969" rx="2.5" ry="2.5" style="stroke:#181818;stroke-width:0.5;" width="115.4248" x="470.4453" y="5"/><text fill="#000000" font-family="sans-serif" font-size="14" lengthAdjust="spacing" textLength="101.4248" x="477.4453" y="24.9951">EnrichmentOff</text><rect fill="#E2E2F0" height="30.2969" rx="2.5" ry="2.5" style="stroke:#181818;stroke-width:0.5;" width="115.4248" x="470.4453" y="230.0938"/><text fill="#000000" font-family="sans-serif" font-size="14" lengthAdjust="spacing" textLength="101.4248" x="477.4453" y="250.0889">EnrichmentOff</text><rect fill="#FFFFFF" height="145.6641" style="stroke:#181818;stroke-width:1.0;" width="10" x="223.1025" y="67.4297"/><rect fill="#FFFFFF" height="87.3984" style="stroke:#181818;stroke-width:1.0;" width="10" x="383.353" y="96.5625"/><rect fill="#FFFFFF" height="29.1328" style="stroke:#181818;stroke-width:1.0;" width="10" x="523.1577" y="125.6953"/><polygon fill="#181818" points="211.1025,63.4297,221.1025,67.4297,211.1025,71.4297,215.1025,67.4297" style="stroke:#181818;stroke-width:1.0;"/><line style="stroke:#181818;stroke-width:1.0;" x1="0" x2="217.1025" y1="67.4297" y2="67.4297"/><text fill="#000000" font-family="sans-serif" font-size="13" lengthAdjust="spacing" textLength="147.4561" x="7" y="62.3638">testDefaultParameters</text><text fill="#808080" font-family="sans-serif" font-size="13" lengthAdjust="spacing" textLength="48.3818" x="162.7207" y="62.3638">110 ms</text><polygon fill="#181818" points="371.353,92.5625,381.353,96.5625,371.353,100.5625,375.353,96.5625" style="stroke:#181818;stroke-width:1.0;"/><line style="stroke:#181818;stroke-width:1.0;" x1="233.1025" x2="377.353" y1="96.5625" y2="96.5625"/><text fill="#000000" font-family="sans-serif" font-size="13" lengthAdjust="spacing" textLength="33.4839" x="240.1025" y="91.4966">close</text><text fill="#808080" font-family="sans-serif" font-size="13" lengthAdjust="spacing" textLength="52.5142" x="281.8511" y="91.4966">8.29 ms</text><polygon fill="#181818" points="511.1577,121.6953,521.1577,125.6953,511.1577,129.6953,515.1577,125.6953" style="stroke:#181818;stroke-width:1.0;"/><line style="stroke:#181818;stroke-width:1.0;" x1="393.353" x2="517.1577" y1="125.6953" y2="125.6953"/><text fill="#000000" font-family="sans-serif" font-size="13" lengthAdjust="spacing" textLength="33.4839" x="400.353" y="120.6294">close</text><text fill="#808080" font-family="sans-serif" font-size="13" lengthAdjust="spacing" textLength="69.0562" x="442.1016" y="120.6294">0.0263 ms</text><polygon fill="#181818" points="404.353,150.8281,394.353,154.8281,404.353,158.8281,400.353,154.8281" style="stroke:#181818;stroke-width:1.0;"/><line style="stroke:#181818;stroke-width:1.0;stroke-dasharray:2.0,2.0;" x1="398.353" x2="527.1577" y1="154.8281" y2="154.8281"/><text fill="#000000" font-family="sans-serif" font-size="13" lengthAdjust="spacing" textLength="27.5107" x="410.353" y="149.7622">void</text><polygon fill="#181818" points="244.1025,179.9609,234.1025,183.9609,244.1025,187.9609,240.1025,183.9609" style="stroke:#181818;stroke-width:1.0;"/><line style="stroke:#181818;stroke-width:1.0;stroke-dasharray:2.0,2.0;" x1="238.1025" x2="387.353" y1="183.9609" y2="183.9609"/><text fill="#000000" font-family="sans-serif" font-size="13" lengthAdjust="spacing" textLength="27.5107" x="250.1025" y="178.895">void</text><polygon fill="#181818" points="11,209.0938,1,213.0938,11,217.0938,7,213.0938" style="stroke:#181818;stroke-width:1.0;"/><line style="stroke:#181818;stroke-width:1.0;stroke-dasharray:2.0,2.0;" x1="5" x2="227.1025" y1="213.0938" y2="213.0938"/><text fill="#000000" font-family="sans-serif" font-size="13" lengthAdjust="spacing" textLength="27.5107" x="17" y="208.0278">void</text><!--SRC=[VP71QiCm44Jl-Oh5TwLE2gKrHb3QN7ffeBtb99IrAv0bHze4-lTLJ2XQL-vrTcOU6eqgaD5cL8xW4oEzMFCS-lE0ZlOgHEDwK16gygbQZLbyxoFr0JzEzYrwDyMunEqx5up-khQzTztaPagr0ZW8MGOtG4b_nKwTxLLJ0nA62AtsreUc3-fRmcPJmn3RkqcJgKvfCXT5kF3Gv825av3y9GrewoDotkDw-yI16PBdfnlCH27P04L6lQwt3_TpIiPX5KLCAyICS_7cUBCUyP-cyZQfRpxERs5MzsU0Gmek_Uwj88kNdJy0]--></g></svg>