<svg xmlns="http://www.w3.org/2000/svg" xmlns:xlink="http://www.w3.org/1999/xlink" contentStyleType="text/css" height="382px" preserveAspectRatio="none" style="width:790px;height:382px;background:#FFFFFF;" version="1.1" viewBox="0 0 790 382" width="790px" zoomAndPan="magnify"><defs/><g><rect fill="#FFFFFF" height="262.1953" style="stroke:#181818;stroke-width:1.0;" width="10" x="329.2798" y="67.4297"/><rect fill="#FFFFFF" height="87.3984" style="stroke:#181818;stroke-width:1.0;" width="10" x="525.4771" y="96.5625"/><rect fill="#FFFFFF" height="87.3984" style="stroke:#181818;stroke-width:1.0;" width="10" x="525.4771" y="213.0938"/><rect fill="#FFFFFF" height="29.1328" style="stroke:#181818;stroke-width:1.0;" width="10" x="721.5537" y="125.6953"/><rect fill="#FFFFFF" height="29.1328" style="stroke:#181818;stroke-width:1.0;" width="10" x="721.5537" y="242.2266"/><line style="stroke:#181818;stroke-width:0.5;stroke-dasharray:5.0,5.0;" x1="333.4058" x2="333.4058" y1="36.2969" y2="347.625"/><line style="stroke:#181818;stroke-width:0.5;stroke-dasharray:5.0,5.0;" x1="529.6914" x2="529.6914" y1="36.2969" y2="347.625"/><line style="stroke:#181818;stroke-width:0.5;stroke-dasharray:5.0,5.0;" x1="725.8413" x2="725.8413" y1="36.2969" y2="347.625"/><rect fill="#E2E2F0" height="30.2969" rx="2.5" ry="2.5" style="stroke:#181818;stroke-width:0.5;" width="149.748" x="259.4058" y="5"/><text fill="#000000" font-family="sans-serif" font-size="14" lengthAdjust="spacing" textLength="135.748" x="266.4058" y="24.9951">LogEnrichmentTest</text><rect fill="#E2E2F0" height="30.2969" rx="2.5" ry="2.5" style="stroke:#181818;stroke-width:0.5;" width="149.748" x="259.4058" y="346.625"/><text fill="#000000" font-family="sans-serif" font-size="14" lengthAdjust="spacing" textLength="135.748" x="266.4058" y="366.6201">LogEnrichmentTest</text><rect fill="#E2E2F0" height="30.2969" rx="2.5" ry="2.5" style="stroke:#181818;stroke-width:0.5;" width="117.5713" x="471.6914" y="5"/><text fill="#000000" font-family="sans-serif" font-size="14" lengthAdjust="spacing" textLength="103.5713" x="478.6914" y="24.9951">PostgreSqlJson</text><rect fill="#E2E2F0" height="30.2969" rx="2.5" ry="2.5" style="stroke:#181818;stroke-width:0.5;" width="117.5713" x="471.6914" y="346.625"/><text fill="#000000" font-family="sans-serif" font-size="14" lengthAdjust="spacing" textLength="103.5713" x="478.6914" y="366.6201">PostgreSqlJson</text><rect fill="#E2E2F0" height="30.2969" rx="2.5" ry="2.5" style="stroke:#181818;stroke-width:0.5;" width="115.4248" x="668.8413" y="5"/><text fill="#000000" font-family="sans-serif" font-size="14" lengthAdjust="spacing" textLength="101.4248" x="675.8413" y="24.9951">EnrichmentOff</text><rect fill="#E2E2F0" height="30.2969" rx="2.5" ry="2.5" style="stroke:#181818;stroke-width:0.5;" width="115.4248" x="668.8413" y="346.625"/><text fill="#000000" font-family="sans-serif" font-size="14" lengthAdjust="spacing" textLength="101.4248" x="675.8413" y="366.6201">EnrichmentOff</text><rect fill="#FFFFFF" height="262.1953" style="stroke:#181818;stroke-width:1.0;" width="10" x="329.2798" y="67.4297"/><rect fill="#FFFFFF" height="87.3984" style="stroke:#181818;stroke-width:1.0;" width="10" x="525.4771" y="96.5625"/><rect fill="#FFFFFF" height="87.3984" style="stroke:#181818;stroke-width:1.0;" width="10" x="525.4771" y="213.0938"/><rect fill="#FFFFFF" height="29.1328" style="stroke:#181818;stroke-width:1.0;" width="10" x="721.5537" y="125.6953"/><rect fill="#FFFFFF" height="29.1328" style="stroke:#181818;stroke-width:1.0;" width="10" x="721.5537" y="242.2266"/><polygon fill="#181818" points="317.2798,63.4297,327.2798,67.4297,317.2798,71.4297,321.2798,67.4297" style="stroke:#181818;stroke-width:1.0;"/><line style="stroke:#181818;stroke-width:1.0;" x1="0" x2="323.2798" y1="67.4297" y2="67.4297"/><text fill="#000000" font-family="sans-serif" font-size="13" lengthAdjust="spacing" textLength="270.1753" x="7" y="62.3638">initLogEnricherWithDbHostWoConnection</text><text fill="#808080" font-family="sans-serif" font-size="13" lengthAdjust="spacing" textLength="31.8398" x="285.4399" y="62.3638">1 ms</text><polygon fill="#181818" points="513.4771,92.5625,523.4771,96.5625,513.4771,100.5625,517.4771,96.5625" style="stroke:#181818;stroke-width:1.0;"/><line style="stroke:#181818;stroke-width:1.0;" x1="339.2798" x2="519.4771" y1="96.5625" y2="96.5625"/><text fill="#000000" font-family="sans-serif" font-size="13" lengthAdjust="spacing" textLength="98.1475" x="346.2798" y="91.4966">initLogEnricher</text><text fill="#808080" font-family="sans-serif" font-size="13" lengthAdjust="spacing" textLength="60.7852" x="452.6919" y="91.4966">0.963 ms</text><polygon fill="#181818" points="709.5537,121.6953,719.5537,125.6953,709.5537,129.6953,713.5537,125.6953" style="stroke:#181818;stroke-width:1.0;"/><line style="stroke:#181818;stroke-width:1.0;" x1="535.4771" x2="715.5537" y1="125.6953" y2="125.6953"/><text fill="#000000" font-family="sans-serif" font-size="13" lengthAdjust="spacing" textLength="89.7559" x="542.4771" y="120.6294">getStatement</text><text fill="#808080" font-family="sans-serif" font-size="13" lengthAdjust="spacing" textLength="69.0562" x="640.4976" y="120.6294">0.0157 ms</text><polygon fill="#181818" points="546.4771,150.8281,536.4771,154.8281,546.4771,158.8281,542.4771,154.8281" style="stroke:#181818;stroke-width:1.0;"/><line style="stroke:#181818;stroke-width:1.0;stroke-dasharray:2.0,2.0;" x1="540.4771" x2="725.5537" y1="154.8281" y2="154.8281"/><text fill="#000000" font-family="sans-serif" font-size="13" lengthAdjust="spacing" textLength="27.5107" x="552.4771" y="149.7622">void</text><polygon fill="#181818" points="350.2798,179.9609,340.2798,183.9609,350.2798,187.9609,346.2798,183.9609" style="stroke:#181818;stroke-width:1.0;"/><line style="stroke:#181818;stroke-width:1.0;stroke-dasharray:2.0,2.0;" x1="344.2798" x2="529.4771" y1="183.9609" y2="183.9609"/><text fill="#000000" font-family="sans-serif" font-size="13" lengthAdjust="spacing" textLength="27.5107" x="356.2798" y="178.895">void</text><polygon fill="#181818" points="513.4771,209.0938,523.4771,213.0938,513.4771,217.0938,517.4771,213.0938" style="stroke:#181818;stroke-width:1.0;"/><line style="stroke:#181818;stroke-width:1.0;" x1="339.2798" x2="519.4771" y1="213.0938" y2="213.0938"/><text fill="#000000" font-family="sans-serif" font-size="13" lengthAdjust="spacing" textLength="33.4839" x="346.2798" y="208.0278">close</text><text fill="#808080" font-family="sans-serif" font-size="13" lengthAdjust="spacing" textLength="69.0562" x="388.0283" y="208.0278">0.0177 ms</text><polygon fill="#181818" points="709.5537,238.2266,719.5537,242.2266,709.5537,246.2266,713.5537,242.2266" style="stroke:#181818;stroke-width:1.0;"/><line style="stroke:#181818;stroke-width:1.0;" x1="535.4771" x2="715.5537" y1="242.2266" y2="242.2266"/><text fill="#000000" font-family="sans-serif" font-size="13" lengthAdjust="spacing" textLength="33.4839" x="542.4771" y="237.1606">close</text><text fill="#808080" font-family="sans-serif" font-size="13" lengthAdjust="spacing" textLength="77.3271" x="584.2256" y="237.1606">0.00648 ms</text><polygon fill="#181818" points="546.4771,267.3594,536.4771,271.3594,546.4771,275.3594,542.4771,271.3594" style="stroke:#181818;stroke-width:1.0;"/><line style="stroke:#181818;stroke-width:1.0;stroke-dasharray:2.0,2.0;" x1="540.4771" x2="725.5537" y1="271.3594" y2="271.3594"/><text fill="#000000" font-family="sans-serif" font-size="13" lengthAdjust="spacing" textLength="27.5107" x="552.4771" y="266.2935">void</text><polygon fill="#181818" points="350.2798,296.4922,340.2798,300.4922,350.2798,304.4922,346.2798,300.4922" style="stroke:#181818;stroke-width:1.0;"/><line style="stroke:#181818;stroke-width:1.0;stroke-dasharray:2.0,2.0;" x1="344.2798" x2="529.4771" y1="300.4922" y2="300.4922"/><text fill="#000000" font-family="sans-serif" font-size="13" lengthAdjust="spacing" textLength="27.5107" x="356.2798" y="295.4263">void</text><polygon fill="#181818" points="11,325.625,1,329.625,11,333.625,7,329.625" style="stroke:#181818;stroke-width:1.0;"/><line style="stroke:#181818;stroke-width:1.0;stroke-dasharray:2.0,2.0;" x1="5" x2="333.2798" y1="329.625" y2="329.625"/><text fill="#000000" font-family="sans-serif" font-size="13" lengthAdjust="spacing" textLength="27.5107" x="17" y="324.5591">void</text><!--SRC=[rPDFImCn5CJl_HIFlKUtMBkwBBbeeOYWKA67dcBwkWriastoAFZjZKkf-RE81ozU9pFpspUmlR2afEg59dWsxK9R9VS7rFI6Za0uA3ArcFH1wDKuQYskZjsJCtf8n59i_wvwsUq6TwGK4u0Duncp1gKLNMIqQqNxn_Ub9wtDWz4Q9IcFRwJfZArRApuuJE7Wckj1uRvNUCj94EPt-aV8LSRZGx9lY6dbrVty9YO6pBXgU8D4P3oQeeOMQKK-_2Mah79wMwMm01SrZT8QnXBSoQZjsRh57vgoeNnLkjIbAsWQcU0NcylEEColhwe_dNgSKivdT_zzv8qFZlnEvsoGp4oV]--></g></svg>