<svg xmlns="http://www.w3.org/2000/svg" xmlns:xlink="http://www.w3.org/1999/xlink" contentStyleType="text/css" height="693px" preserveAspectRatio="none" style="width:889px;height:693px;background:#FFFFFF;" version="1.1" viewBox="0 0 889 693" width="889px" zoomAndPan="magnify"><defs/><g><rect fill="#FFFFFF" height="573.2578" style="stroke:#181818;stroke-width:1.0;" width="10" x="202.3647" y="67.4297"/><rect fill="#FFFFFF" height="514.9922" style="stroke:#181818;stroke-width:1.0;" width="10" x="439.0918" y="96.5625"/><rect fill="#FFFFFF" height="40.1328" style="stroke:#181818;stroke-width:1.0;" width="10" x="444.0918" y="133.6953"/><rect fill="#FFFFFF" height="182.6641" style="stroke:#181818;stroke-width:1.0;" width="10" x="444.0918" y="392.7578"/><rect fill="#FFFFFF" height="98.3984" style="stroke:#181818;stroke-width:1.0;" width="10" x="449.0918" y="434.8906"/><rect fill="#FFFFFF" height="29.1328" style="stroke:#181818;stroke-width:1.0;" width="10" x="674.3779" y="209.9609"/><rect fill="#FFFFFF" height="29.1328" style="stroke:#181818;stroke-width:1.0;" width="10" x="674.3779" y="268.2266"/><rect fill="#FFFFFF" height="29.1328" style="stroke:#181818;stroke-width:1.0;" width="10" x="674.3779" y="326.4922"/><rect fill="#FFFFFF" height="29.1328" style="stroke:#181818;stroke-width:1.0;" width="10" x="821.083" y="469.0234"/><line style="stroke:#181818;stroke-width:0.5;stroke-dasharray:5.0,5.0;" x1="207.2793" x2="207.2793" y1="36.2969" y2="658.6875"/><line style="stroke:#181818;stroke-width:0.5;stroke-dasharray:5.0,5.0;" x1="443.3062" x2="443.3062" y1="36.2969" y2="658.6875"/><line style="stroke:#181818;stroke-width:0.5;stroke-dasharray:5.0,5.0;" x1="678.3853" x2="678.3853" y1="36.2969" y2="658.6875"/><line style="stroke:#181818;stroke-width:0.5;stroke-dasharray:5.0,5.0;" x1="825.3706" x2="825.3706" y1="36.2969" y2="658.6875"/><rect fill="#E2E2F0" height="30.2969" rx="2.5" ry="2.5" style="stroke:#181818;stroke-width:0.5;" width="140.1709" x="137.2793" y="5"/><text fill="#000000" font-family="sans-serif" font-size="14" lengthAdjust="spacing" textLength="126.1709" x="144.2793" y="24.9951">WatchServiceTest</text><rect fill="#E2E2F0" height="30.2969" rx="2.5" ry="2.5" style="stroke:#181818;stroke-width:0.5;" width="140.1709" x="137.2793" y="657.6875"/><text fill="#000000" font-family="sans-serif" font-size="14" lengthAdjust="spacing" textLength="126.1709" x="144.2793" y="677.6826">WatchServiceTest</text><rect fill="#E2E2F0" height="30.2969" rx="2.5" ry="2.5" style="stroke:#181818;stroke-width:0.5;" width="117.5713" x="385.3062" y="5"/><text fill="#000000" font-family="sans-serif" font-size="14" lengthAdjust="spacing" textLength="103.5713" x="392.3062" y="24.9951">PostgreSqlJson</text><rect fill="#E2E2F0" height="30.2969" rx="2.5" ry="2.5" style="stroke:#181818;stroke-width:0.5;" width="117.5713" x="385.3062" y="657.6875"/><text fill="#000000" font-family="sans-serif" font-size="14" lengthAdjust="spacing" textLength="103.5713" x="392.3062" y="677.6826">PostgreSqlJson</text><rect fill="#E2E2F0" height="30.2969" rx="2.5" ry="2.5" style="stroke:#181818;stroke-width:0.5;" width="157.9854" x="600.3853" y="5"/><text fill="#000000" font-family="sans-serif" font-size="14" lengthAdjust="spacing" textLength="143.9854" x="607.3853" y="24.9951">WatchServiceTest$1</text><rect fill="#E2E2F0" height="30.2969" rx="2.5" ry="2.5" style="stroke:#181818;stroke-width:0.5;" width="157.9854" x="600.3853" y="657.6875"/><text fill="#000000" font-family="sans-serif" font-size="14" lengthAdjust="spacing" textLength="143.9854" x="607.3853" y="677.6826">WatchServiceTest$1</text><rect fill="#E2E2F0" height="30.2969" rx="2.5" ry="2.5" style="stroke:#181818;stroke-width:0.5;" width="115.4248" x="768.3706" y="5"/><text fill="#000000" font-family="sans-serif" font-size="14" lengthAdjust="spacing" textLength="101.4248" x="775.3706" y="24.9951">EnrichmentOff</text><rect fill="#E2E2F0" height="30.2969" rx="2.5" ry="2.5" style="stroke:#181818;stroke-width:0.5;" width="115.4248" x="768.3706" y="657.6875"/><text fill="#000000" font-family="sans-serif" font-size="14" lengthAdjust="spacing" textLength="101.4248" x="775.3706" y="677.6826">EnrichmentOff</text><rect fill="#FFFFFF" height="573.2578" style="stroke:#181818;stroke-width:1.0;" width="10" x="202.3647" y="67.4297"/><rect fill="#FFFFFF" height="514.9922" style="stroke:#181818;stroke-width:1.0;" width="10" x="439.0918" y="96.5625"/><rect fill="#FFFFFF" height="40.1328" style="stroke:#181818;stroke-width:1.0;" width="10" x="444.0918" y="133.6953"/><rect fill="#FFFFFF" height="182.6641" style="stroke:#181818;stroke-width:1.0;" width="10" x="444.0918" y="392.7578"/><rect fill="#FFFFFF" height="98.3984" style="stroke:#181818;stroke-width:1.0;" width="10" x="449.0918" y="434.8906"/><rect fill="#FFFFFF" height="29.1328" style="stroke:#181818;stroke-width:1.0;" width="10" x="674.3779" y="209.9609"/><rect fill="#FFFFFF" height="29.1328" style="stroke:#181818;stroke-width:1.0;" width="10" x="674.3779" y="268.2266"/><rect fill="#FFFFFF" height="29.1328" style="stroke:#181818;stroke-width:1.0;" width="10" x="674.3779" y="326.4922"/><rect fill="#FFFFFF" height="29.1328" style="stroke:#181818;stroke-width:1.0;" width="10" x="821.083" y="469.0234"/><polygon fill="#181818" points="190.3647,63.4297,200.3647,67.4297,190.3647,71.4297,194.3647,67.4297" style="stroke:#181818;stroke-width:1.0;"/><line style="stroke:#181818;stroke-width:1.0;" x1="0" x2="196.3647" y1="67.4297" y2="67.4297"/><text fill="#000000" font-family="sans-serif" font-size="13" lengthAdjust="spacing" textLength="114.3149" x="7" y="62.3638">testWatchService</text><text fill="#808080" font-family="sans-serif" font-size="13" lengthAdjust="spacing" textLength="60.7852" x="129.5796" y="62.3638">0.633 ms</text><polygon fill="#181818" points="427.0918,92.5625,437.0918,96.5625,427.0918,100.5625,431.0918,96.5625" style="stroke:#181818;stroke-width:1.0;"/><line style="stroke:#181818;stroke-width:1.0;" x1="212.3647" x2="433.0918" y1="96.5625" y2="96.5625"/><text fill="#000000" font-family="sans-serif" font-size="13" lengthAdjust="spacing" textLength="138.6772" x="219.3647" y="91.4966">watchPostgreSqlLogs</text><text fill="#808080" font-family="sans-serif" font-size="13" lengthAdjust="spacing" textLength="60.7852" x="366.3066" y="91.4966">0.424 ms</text><line style="stroke:#181818;stroke-width:1.0;" x1="449.0918" x2="496.0918" y1="120.6953" y2="120.6953"/><line style="stroke:#181818;stroke-width:1.0;" x1="496.0918" x2="496.0918" y1="120.6953" y2="133.6953"/><line style="stroke:#181818;stroke-width:1.0;" x1="455.0918" x2="496.0918" y1="133.6953" y2="133.6953"/><polygon fill="#181818" points="465.0918,129.6953,455.0918,133.6953,465.0918,137.6953,461.0918,133.6953" style="stroke:#181818;stroke-width:1.0;"/><text fill="#000000" font-family="sans-serif" font-size="13" lengthAdjust="spacing" textLength="98.1475" x="461.0918" y="115.6294">initLogEnricher</text><text fill="#808080" font-family="sans-serif" font-size="13" lengthAdjust="spacing" textLength="69.0562" x="567.5039" y="115.6294">0.0148 ms</text><line style="stroke:#181818;stroke-width:1.0;stroke-dasharray:2.0,2.0;" x1="397.0918" x2="443.0918" y1="172.8281" y2="172.8281"/><line style="stroke:#181818;stroke-width:1.0;stroke-dasharray:2.0,2.0;" x1="397.0918" x2="397.0918" y1="172.8281" y2="185.8281"/><line style="stroke:#181818;stroke-width:1.0;stroke-dasharray:2.0,2.0;" x1="397.0918" x2="437.0918" y1="185.8281" y2="185.8281"/><polygon fill="#181818" points="427.0918,181.8281,437.0918,185.8281,427.0918,189.8281,431.0918,185.8281" style="stroke:#181818;stroke-width:1.0;"/><text fill="#000000" font-family="sans-serif" font-size="13" lengthAdjust="spacing" textLength="27.5107" x="396.0918" y="167.7622">void</text><polygon fill="#181818" points="662.3779,205.9609,672.3779,209.9609,662.3779,213.9609,666.3779,209.9609" style="stroke:#181818;stroke-width:1.0;"/><line style="stroke:#181818;stroke-width:1.0;" x1="449.0918" x2="668.3779" y1="209.9609" y2="209.9609"/><text fill="#000000" font-family="sans-serif" font-size="13" lengthAdjust="spacing" textLength="111.1729" x="456.0918" y="204.895">positionFileTasks</text><text fill="#808080" font-family="sans-serif" font-size="13" lengthAdjust="spacing" textLength="77.3271" x="575.5293" y="204.895">0.00776 ms</text><polygon fill="#181818" points="460.0918,235.0938,450.0918,239.0938,460.0918,243.0938,456.0918,239.0938" style="stroke:#181818;stroke-width:1.0;"/><line style="stroke:#181818;stroke-width:1.0;stroke-dasharray:2.0,2.0;" x1="454.0918" x2="678.3779" y1="239.0938" y2="239.0938"/><text fill="#000000" font-family="sans-serif" font-size="13" lengthAdjust="spacing" textLength="109.313" x="466.0918" y="234.0278">java.lang.Thread</text><polygon fill="#181818" points="662.3779,264.2266,672.3779,268.2266,662.3779,272.2266,666.3779,268.2266" style="stroke:#181818;stroke-width:1.0;"/><line style="stroke:#181818;stroke-width:1.0;" x1="449.0918" x2="668.3779" y1="268.2266" y2="268.2266"/><text fill="#000000" font-family="sans-serif" font-size="13" lengthAdjust="spacing" textLength="102.3433" x="456.0918" y="263.1606">initialLogImport</text><text fill="#808080" font-family="sans-serif" font-size="13" lengthAdjust="spacing" textLength="69.0562" x="566.6997" y="263.1606">0.0113 ms</text><polygon fill="#181818" points="460.0918,293.3594,450.0918,297.3594,460.0918,301.3594,456.0918,297.3594" style="stroke:#181818;stroke-width:1.0;"/><line style="stroke:#181818;stroke-width:1.0;stroke-dasharray:2.0,2.0;" x1="454.0918" x2="678.3779" y1="297.3594" y2="297.3594"/><text fill="#000000" font-family="sans-serif" font-size="13" lengthAdjust="spacing" textLength="27.5107" x="466.0918" y="292.2935">void</text><polygon fill="#181818" points="662.3779,322.4922,672.3779,326.4922,662.3779,330.4922,666.3779,326.4922" style="stroke:#181818;stroke-width:1.0;"/><line style="stroke:#181818;stroke-width:1.0;" x1="449.0918" x2="668.3779" y1="326.4922" y2="326.4922"/><text fill="#000000" font-family="sans-serif" font-size="13" lengthAdjust="spacing" textLength="128.9653" x="456.0918" y="321.4263">registerWatchEvent</text><text fill="#808080" font-family="sans-serif" font-size="13" lengthAdjust="spacing" textLength="69.0562" x="593.3218" y="321.4263">0.0074 ms</text><polygon fill="#181818" points="460.0918,351.625,450.0918,355.625,460.0918,359.625,456.0918,355.625" style="stroke:#181818;stroke-width:1.0;"/><line style="stroke:#181818;stroke-width:1.0;stroke-dasharray:2.0,2.0;" x1="454.0918" x2="678.3779" y1="355.625" y2="355.625"/><text fill="#000000" font-family="sans-serif" font-size="13" lengthAdjust="spacing" textLength="27.5107" x="466.0918" y="350.5591">void</text><line style="stroke:#181818;stroke-width:1.0;" x1="449.0918" x2="496.0918" y1="379.7578" y2="379.7578"/><line style="stroke:#181818;stroke-width:1.0;" x1="496.0918" x2="496.0918" y1="379.7578" y2="392.7578"/><line style="stroke:#181818;stroke-width:1.0;" x1="455.0918" x2="496.0918" y1="392.7578" y2="392.7578"/><polygon fill="#181818" points="465.0918,388.7578,455.0918,392.7578,465.0918,396.7578,461.0918,392.7578" style="stroke:#181818;stroke-width:1.0;"/><text fill="#000000" font-family="sans-serif" font-size="13" lengthAdjust="spacing" textLength="79.8091" x="461.0918" y="374.6919">readJsonLog</text><text fill="#808080" font-family="sans-serif" font-size="13" lengthAdjust="spacing" textLength="60.7852" x="549.1655" y="374.6919">0.169 ms</text><line style="stroke:#181818;stroke-width:1.0;" x1="454.0918" x2="501.0918" y1="421.8906" y2="421.8906"/><line style="stroke:#181818;stroke-width:1.0;" x1="501.0918" x2="501.0918" y1="421.8906" y2="434.8906"/><line style="stroke:#181818;stroke-width:1.0;" x1="460.0918" x2="501.0918" y1="434.8906" y2="434.8906"/><polygon fill="#181818" points="470.0918,430.8906,460.0918,434.8906,470.0918,438.8906,466.0918,434.8906" style="stroke:#181818;stroke-width:1.0;"/><text fill="#000000" font-family="sans-serif" font-size="13" lengthAdjust="spacing" textLength="86.874" x="466.0918" y="416.8247">parseLogLine</text><text fill="#808080" font-family="sans-serif" font-size="13" lengthAdjust="spacing" textLength="60.7852" x="561.2305" y="416.8247">0.107 ms</text><polygon fill="#181818" points="809.083,465.0234,819.083,469.0234,809.083,473.0234,813.083,469.0234" style="stroke:#181818;stroke-width:1.0;"/><line style="stroke:#181818;stroke-width:1.0;" x1="459.0918" x2="815.083" y1="469.0234" y2="469.0234"/><text fill="#000000" font-family="sans-serif" font-size="13" lengthAdjust="spacing" textLength="164.9121" x="466.0918" y="463.9575">enricherApplicationName</text><text fill="#808080" font-family="sans-serif" font-size="13" lengthAdjust="spacing" textLength="69.0562" x="639.2686" y="463.9575">0.0271 ms</text><polygon fill="#181818" points="470.0918,494.1563,460.0918,498.1563,470.0918,502.1563,466.0918,498.1563" style="stroke:#181818;stroke-width:1.0;"/><line style="stroke:#181818;stroke-width:1.0;stroke-dasharray:2.0,2.0;" x1="464.0918" x2="825.083" y1="498.1563" y2="498.1563"/><text fill="#000000" font-family="sans-serif" font-size="13" lengthAdjust="spacing" textLength="27.5107" x="476.0918" y="493.0903">void</text><line style="stroke:#181818;stroke-width:1.0;stroke-dasharray:2.0,2.0;" x1="397.0918" x2="448.0918" y1="532.2891" y2="532.2891"/><line style="stroke:#181818;stroke-width:1.0;stroke-dasharray:2.0,2.0;" x1="397.0918" x2="397.0918" y1="532.2891" y2="545.2891"/><line style="stroke:#181818;stroke-width:1.0;stroke-dasharray:2.0,2.0;" x1="397.0918" x2="437.0918" y1="545.2891" y2="545.2891"/><polygon fill="#181818" points="427.0918,541.2891,437.0918,545.2891,427.0918,549.2891,431.0918,545.2891" style="stroke:#181818;stroke-width:1.0;"/><text fill="#000000" font-family="sans-serif" font-size="13" lengthAdjust="spacing" textLength="27.5107" x="396.0918" y="527.2231">void</text><line style="stroke:#181818;stroke-width:1.0;stroke-dasharray:2.0,2.0;" x1="397.0918" x2="443.0918" y1="574.4219" y2="574.4219"/><line style="stroke:#181818;stroke-width:1.0;stroke-dasharray:2.0,2.0;" x1="397.0918" x2="397.0918" y1="574.4219" y2="587.4219"/><line style="stroke:#181818;stroke-width:1.0;stroke-dasharray:2.0,2.0;" x1="397.0918" x2="437.0918" y1="587.4219" y2="587.4219"/><polygon fill="#181818" points="427.0918,583.4219,437.0918,587.4219,427.0918,591.4219,431.0918,587.4219" style="stroke:#181818;stroke-width:1.0;"/><text fill="#000000" font-family="sans-serif" font-size="13" lengthAdjust="spacing" textLength="27.5107" x="396.0918" y="569.356">void</text><polygon fill="#181818" points="223.3647,607.5547,213.3647,611.5547,223.3647,615.5547,219.3647,611.5547" style="stroke:#181818;stroke-width:1.0;"/><line style="stroke:#181818;stroke-width:1.0;stroke-dasharray:2.0,2.0;" x1="217.3647" x2="443.0918" y1="611.5547" y2="611.5547"/><text fill="#000000" font-family="sans-serif" font-size="13" lengthAdjust="spacing" textLength="110.335" x="229.3647" y="606.4888">java.lang.Integer</text><polygon fill="#181818" points="11,636.6875,1,640.6875,11,644.6875,7,640.6875" style="stroke:#181818;stroke-width:1.0;"/><line style="stroke:#181818;stroke-width:1.0;stroke-dasharray:2.0,2.0;" x1="5" x2="206.3647" y1="640.6875" y2="640.6875"/><text fill="#000000" font-family="sans-serif" font-size="13" lengthAdjust="spacing" textLength="27.5107" x="17" y="635.6216">void</text><!--SRC=[pPHTQy8m58Rl_HL1TblNQh5RaS8k73Xa6oZimWi9zLYpjKcNX8xz-wMTpEP3NP71RaevITxdl3adfyHSafIKc4hqWcMwMm2lI0fB419XWVfciDyhMqUUcP0PXyLx_Y0ORGxe8NsxAROEd8ohG3ysfPoakmAeVDfkcnDQfDz3QEKbfagCfFgsesYIifpnEEFuCq7-O3mQeK9ChfjeebHmAac59LY9gZLa1Rr4zngZZth78JXdcJ2PuJ3KcIsgBjUi8IDeCmabKe6-RmIuoVE3yCO4TaDEFCzaLenizditq2rzkmLYL391967qdkImnEBDkZJVZwBn2HUsw34dBlmhhl0WnpGRB7SSiCFPB_NTxke24Lmtmwme6PTsXOBHdtbpL-eYFnmo8YJmPcrQgJVeA5VuNnsPhLmNlFvJvJ5j1EFRhY_dF4_DDG4ADYVKcaU17zd0yqWRget76C5-DjoLPKvIN3-rHrnOU7yO1Iv-AmDD-6W2gd961gsY6OLpAtQPG5rdq2Npp6mpXzPXcioeX0nuxvpioj7fFpcTwF4l]--></g></svg>