<svg xmlns="http://www.w3.org/2000/svg" xmlns:xlink="http://www.w3.org/1999/xlink" contentStyleType="text/css" height="868px" preserveAspectRatio="none" style="width:936px;height:868px;background:#000000;" version="1.1" viewBox="0 0 936 868" width="936px" zoomAndPan="magnify"><defs/><g><rect fill="none" height="723.4688" style="stroke:#999999;stroke-width:1.0;" width="10" x="182.9902" y="83.9375"/><rect fill="none" height="647.5313" style="stroke:#999999;stroke-width:1.0;" width="10" x="413.7383" y="121.9063"/><rect fill="none" height="48.9688" style="stroke:#999999;stroke-width:1.0;" width="10" x="418.7383" y="167.875"/><rect fill="none" height="226.8438" style="stroke:#999999;stroke-width:1.0;" width="10" x="418.7383" y="497.625"/><rect fill="none" height="124.9063" style="stroke:#999999;stroke-width:1.0;" width="10" x="423.7383" y="548.5938"/><rect fill="none" height="37.9688" style="stroke:#999999;stroke-width:1.0;" width="10" x="650.791" y="261.8125"/><rect fill="none" height="37.9688" style="stroke:#999999;stroke-width:1.0;" width="10" x="650.791" y="337.75"/><rect fill="none" height="37.9688" style="stroke:#999999;stroke-width:1.0;" width="10" x="650.791" y="413.6875"/><rect fill="none" height="37.9688" style="stroke:#999999;stroke-width:1.0;" width="10" x="869.9668" y="591.5625"/><line style="stroke:#999999;stroke-width:0.5;stroke-dasharray:5.0,5.0;" x1="187.917" x2="187.917" y1="43.9688" y2="825.4063"/><line style="stroke:#999999;stroke-width:0.5;stroke-dasharray:5.0,5.0;" x1="418.3506" x2="418.3506" y1="43.9688" y2="825.4063"/><line style="stroke:#999999;stroke-width:0.5;stroke-dasharray:5.0,5.0;" x1="655.083" x2="655.083" y1="43.9688" y2="825.4063"/><line style="stroke:#999999;stroke-width:0.5;stroke-dasharray:5.0,5.0;" x1="874.499" x2="874.499" y1="43.9688" y2="825.4063"/><rect fill="#555555" height="37.9688" rx="4" ry="4" style="stroke:#555555;stroke-width:1.0;" width="132.1465" x="121.917" y="5"/><text fill="#FFFFFF" font-family="Verdana" font-size="12" lengthAdjust="spacing" textLength="108.1465" x="133.917" y="28.1387">WatchServiceTest</text><rect fill="#555555" height="37.9688" rx="4" ry="4" style="stroke:#555555;stroke-width:1.0;" width="132.1465" x="121.917" y="824.4063"/><text fill="#FFFFFF" font-family="Verdana" font-size="12" lengthAdjust="spacing" textLength="108.1465" x="133.917" y="847.5449">WatchServiceTest</text><rect fill="#555555" height="37.9688" rx="4" ry="4" style="stroke:#555555;stroke-width:1.0;" width="112.7754" x="362.3506" y="5"/><text fill="#FFFFFF" font-family="Verdana" font-size="12" lengthAdjust="spacing" textLength="88.7754" x="374.3506" y="28.1387">PostgreSqlJson</text><rect fill="#555555" height="37.9688" rx="4" ry="4" style="stroke:#555555;stroke-width:1.0;" width="112.7754" x="362.3506" y="824.4063"/><text fill="#FFFFFF" font-family="Verdana" font-size="12" lengthAdjust="spacing" textLength="88.7754" x="374.3506" y="847.5449">PostgreSqlJson</text><rect fill="#555555" height="37.9688" rx="4" ry="4" style="stroke:#555555;stroke-width:1.0;" width="147.416" x="582.083" y="5"/><text fill="#FFFFFF" font-family="Verdana" font-size="12" lengthAdjust="spacing" textLength="123.416" x="594.083" y="28.1387">WatchServiceTest$1</text><rect fill="#555555" height="37.9688" rx="4" ry="4" style="stroke:#555555;stroke-width:1.0;" width="147.416" x="582.083" y="824.4063"/><text fill="#FFFFFF" font-family="Verdana" font-size="12" lengthAdjust="spacing" textLength="123.416" x="594.083" y="847.5449">WatchServiceTest$1</text><rect fill="#555555" height="37.9688" rx="4" ry="4" style="stroke:#555555;stroke-width:1.0;" width="110.9355" x="819.499" y="5"/><text fill="#FFFFFF" font-family="Verdana" font-size="12" lengthAdjust="spacing" textLength="86.9355" x="831.499" y="28.1387">EnrichmentOff</text><rect fill="#555555" height="37.9688" rx="4" ry="4" style="stroke:#555555;stroke-width:1.0;" width="110.9355" x="819.499" y="824.4063"/><text fill="#FFFFFF" font-family="Verdana" font-size="12" lengthAdjust="spacing" textLength="86.9355" x="831.499" y="847.5449">EnrichmentOff</text><rect fill="none" height="723.4688" style="stroke:#999999;stroke-width:1.0;" width="10" x="182.9902" y="83.9375"/><rect fill="none" height="647.5313" style="stroke:#999999;stroke-width:1.0;" width="10" x="413.7383" y="121.9063"/><rect fill="none" height="48.9688" style="stroke:#999999;stroke-width:1.0;" width="10" x="418.7383" y="167.875"/><rect fill="none" height="226.8438" style="stroke:#999999;stroke-width:1.0;" width="10" x="418.7383" y="497.625"/><rect fill="none" height="124.9063" style="stroke:#999999;stroke-width:1.0;" width="10" x="423.7383" y="548.5938"/><rect fill="none" height="37.9688" style="stroke:#999999;stroke-width:1.0;" width="10" x="650.791" y="261.8125"/><rect fill="none" height="37.9688" style="stroke:#999999;stroke-width:1.0;" width="10" x="650.791" y="337.75"/><rect fill="none" height="37.9688" style="stroke:#999999;stroke-width:1.0;" width="10" x="650.791" y="413.6875"/><rect fill="none" height="37.9688" style="stroke:#999999;stroke-width:1.0;" width="10" x="869.9668" y="591.5625"/><polygon fill="#4362B1" points="170.9902,79.9375,180.9902,83.9375,170.9902,87.9375,174.9902,83.9375" style="stroke:#4362B1;stroke-width:1.0;"/><line style="stroke:#4362B1;stroke-width:3.0;" x1="0" x2="176.9902" y1="83.9375" y2="83.9375"/><text fill="#FFFFFF" font-family="Verdana" font-size="12" lengthAdjust="spacing" textLength="105.5215" x="12" y="74.1074">testWatchService</text><text fill="#808080" font-family="Verdana" font-size="12" lengthAdjust="spacing" textLength="40.8398" x="125.1504" y="74.1074">0.6 ms</text><polygon fill="#4362B1" points="401.7383,117.9063,411.7383,121.9063,401.7383,125.9063,405.7383,121.9063" style="stroke:#4362B1;stroke-width:1.0;"/><line style="stroke:#4362B1;stroke-width:3.0;" x1="192.9902" x2="407.7383" y1="121.9063" y2="121.9063"/><text fill="#FFFFFF" font-family="Verdana" font-size="12" lengthAdjust="spacing" textLength="128.0098" x="204.9902" y="112.0762">watchPostgreSqlLogs</text><text fill="#808080" font-family="Verdana" font-size="12" lengthAdjust="spacing" textLength="56.1094" x="340.6289" y="112.0762">0.389 ms</text><line style="stroke:#4362B1;stroke-width:3.0;" x1="423.7383" x2="470.7383" y1="154.875" y2="154.875"/><line style="stroke:#4362B1;stroke-width:3.0;" x1="470.7383" x2="470.7383" y1="154.875" y2="167.875"/><line style="stroke:#4362B1;stroke-width:3.0;" x1="429.7383" x2="470.7383" y1="167.875" y2="167.875"/><polygon fill="#4362B1" points="439.7383,163.875,429.7383,167.875,439.7383,171.875,435.7383,167.875" style="stroke:#4362B1;stroke-width:1.0;"/><text fill="#FFFFFF" font-family="Verdana" font-size="12" lengthAdjust="spacing" textLength="90.5977" x="440.7383" y="145.0449">initLogEnricher</text><text fill="#808080" font-family="Verdana" font-size="12" lengthAdjust="spacing" textLength="56.1094" x="538.9648" y="145.0449">0.014 ms</text><line style="stroke:#4362B1;stroke-width:3.0;stroke-dasharray:2.0,2.0;" x1="371.7383" x2="417.7383" y1="215.8438" y2="215.8438"/><line style="stroke:#4362B1;stroke-width:3.0;stroke-dasharray:2.0,2.0;" x1="371.7383" x2="371.7383" y1="215.8438" y2="228.8438"/><line style="stroke:#4362B1;stroke-width:3.0;stroke-dasharray:2.0,2.0;" x1="371.7383" x2="411.7383" y1="228.8438" y2="228.8438"/><polygon fill="#4362B1" points="401.7383,224.8438,411.7383,228.8438,401.7383,232.8438,405.7383,228.8438" style="stroke:#4362B1;stroke-width:1.0;"/><text fill="#FFFFFF" font-family="Verdana" font-size="12" lengthAdjust="spacing" textLength="25.3945" x="375.7383" y="206.0137">void</text><polygon fill="#4362B1" points="638.791,257.8125,648.791,261.8125,638.791,265.8125,642.791,261.8125" style="stroke:#4362B1;stroke-width:1.0;"/><line style="stroke:#4362B1;stroke-width:3.0;" x1="423.7383" x2="644.791" y1="261.8125" y2="261.8125"/><text fill="#FFFFFF" font-family="Verdana" font-size="12" lengthAdjust="spacing" textLength="102.6211" x="435.7383" y="251.9824">positionFileTasks</text><text fill="#808080" font-family="Verdana" font-size="12" lengthAdjust="spacing" textLength="63.7441" x="545.9883" y="251.9824">0.0119 ms</text><polygon fill="#4362B1" points="434.7383,295.7813,424.7383,299.7813,434.7383,303.7813,430.7383,299.7813" style="stroke:#4362B1;stroke-width:1.0;"/><line style="stroke:#4362B1;stroke-width:3.0;stroke-dasharray:2.0,2.0;" x1="428.7383" x2="654.791" y1="299.7813" y2="299.7813"/><text fill="#FFFFFF" font-family="Verdana" font-size="12" lengthAdjust="spacing" textLength="100.9043" x="445.7383" y="289.9512">java.lang.Thread</text><polygon fill="#4362B1" points="638.791,333.75,648.791,337.75,638.791,341.75,642.791,337.75" style="stroke:#4362B1;stroke-width:1.0;"/><line style="stroke:#4362B1;stroke-width:3.0;" x1="423.7383" x2="644.791" y1="337.75" y2="337.75"/><text fill="#FFFFFF" font-family="Verdana" font-size="12" lengthAdjust="spacing" textLength="94.4707" x="435.7383" y="327.9199">initialLogImport</text><text fill="#808080" font-family="Verdana" font-size="12" lengthAdjust="spacing" textLength="63.7441" x="537.8379" y="327.9199">0.0106 ms</text><polygon fill="#4362B1" points="434.7383,371.7188,424.7383,375.7188,434.7383,379.7188,430.7383,375.7188" style="stroke:#4362B1;stroke-width:1.0;"/><line style="stroke:#4362B1;stroke-width:3.0;stroke-dasharray:2.0,2.0;" x1="428.7383" x2="654.791" y1="375.7188" y2="375.7188"/><text fill="#FFFFFF" font-family="Verdana" font-size="12" lengthAdjust="spacing" textLength="25.3945" x="445.7383" y="365.8887">void</text><polygon fill="#4362B1" points="638.791,409.6875,648.791,413.6875,638.791,417.6875,642.791,413.6875" style="stroke:#4362B1;stroke-width:1.0;"/><line style="stroke:#4362B1;stroke-width:3.0;" x1="423.7383" x2="644.791" y1="413.6875" y2="413.6875"/><text fill="#FFFFFF" font-family="Verdana" font-size="12" lengthAdjust="spacing" textLength="119.0449" x="435.7383" y="403.8574">registerWatchEvent</text><text fill="#808080" font-family="Verdana" font-size="12" lengthAdjust="spacing" textLength="71.3789" x="562.4121" y="403.8574">0.00761 ms</text><polygon fill="#4362B1" points="434.7383,447.6563,424.7383,451.6563,434.7383,455.6563,430.7383,451.6563" style="stroke:#4362B1;stroke-width:1.0;"/><line style="stroke:#4362B1;stroke-width:3.0;stroke-dasharray:2.0,2.0;" x1="428.7383" x2="654.791" y1="451.6563" y2="451.6563"/><text fill="#FFFFFF" font-family="Verdana" font-size="12" lengthAdjust="spacing" textLength="25.3945" x="445.7383" y="441.8262">void</text><line style="stroke:#4362B1;stroke-width:3.0;" x1="423.7383" x2="470.7383" y1="484.625" y2="484.625"/><line style="stroke:#4362B1;stroke-width:3.0;" x1="470.7383" x2="470.7383" y1="484.625" y2="497.625"/><line style="stroke:#4362B1;stroke-width:3.0;" x1="429.7383" x2="470.7383" y1="497.625" y2="497.625"/><polygon fill="#4362B1" points="439.7383,493.625,429.7383,497.625,439.7383,501.625,435.7383,497.625" style="stroke:#4362B1;stroke-width:1.0;"/><text fill="#FFFFFF" font-family="Verdana" font-size="12" lengthAdjust="spacing" textLength="73.6699" x="440.7383" y="474.7949">readJsonLog</text><text fill="#808080" font-family="Verdana" font-size="12" lengthAdjust="spacing" textLength="56.1094" x="522.0371" y="474.7949">0.154 ms</text><line style="stroke:#4362B1;stroke-width:3.0;" x1="428.7383" x2="475.7383" y1="535.5938" y2="535.5938"/><line style="stroke:#4362B1;stroke-width:3.0;" x1="475.7383" x2="475.7383" y1="535.5938" y2="548.5938"/><line style="stroke:#4362B1;stroke-width:3.0;" x1="434.7383" x2="475.7383" y1="548.5938" y2="548.5938"/><polygon fill="#4362B1" points="444.7383,544.5938,434.7383,548.5938,444.7383,552.5938,440.7383,548.5938" style="stroke:#4362B1;stroke-width:1.0;"/><text fill="#FFFFFF" font-family="Verdana" font-size="12" lengthAdjust="spacing" textLength="80.1914" x="445.7383" y="525.7637">parseLogLine</text><text fill="#808080" font-family="Verdana" font-size="12" lengthAdjust="spacing" textLength="56.1094" x="533.5586" y="525.7637">0.089 ms</text><polygon fill="#4362B1" points="857.9668,587.5625,867.9668,591.5625,857.9668,595.5625,861.9668,591.5625" style="stroke:#4362B1;stroke-width:1.0;"/><line style="stroke:#4362B1;stroke-width:3.0;" x1="433.7383" x2="863.9668" y1="591.5625" y2="591.5625"/><text fill="#FFFFFF" font-family="Verdana" font-size="12" lengthAdjust="spacing" textLength="152.2266" x="445.7383" y="581.7324">enricherApplicationName</text><text fill="#808080" font-family="Verdana" font-size="12" lengthAdjust="spacing" textLength="63.7441" x="605.5938" y="581.7324">0.0188 ms</text><polygon fill="#4362B1" points="444.7383,625.5313,434.7383,629.5313,444.7383,633.5313,440.7383,629.5313" style="stroke:#4362B1;stroke-width:1.0;"/><line style="stroke:#4362B1;stroke-width:3.0;stroke-dasharray:2.0,2.0;" x1="438.7383" x2="873.9668" y1="629.5313" y2="629.5313"/><text fill="#FFFFFF" font-family="Verdana" font-size="12" lengthAdjust="spacing" textLength="25.3945" x="455.7383" y="619.7012">void</text><line style="stroke:#4362B1;stroke-width:3.0;stroke-dasharray:2.0,2.0;" x1="371.7383" x2="422.7383" y1="672.5" y2="672.5"/><line style="stroke:#4362B1;stroke-width:3.0;stroke-dasharray:2.0,2.0;" x1="371.7383" x2="371.7383" y1="672.5" y2="685.5"/><line style="stroke:#4362B1;stroke-width:3.0;stroke-dasharray:2.0,2.0;" x1="371.7383" x2="411.7383" y1="685.5" y2="685.5"/><polygon fill="#4362B1" points="401.7383,681.5,411.7383,685.5,401.7383,689.5,405.7383,685.5" style="stroke:#4362B1;stroke-width:1.0;"/><text fill="#FFFFFF" font-family="Verdana" font-size="12" lengthAdjust="spacing" textLength="25.3945" x="375.7383" y="662.6699">void</text><line style="stroke:#4362B1;stroke-width:3.0;stroke-dasharray:2.0,2.0;" x1="371.7383" x2="417.7383" y1="723.4688" y2="723.4688"/><line style="stroke:#4362B1;stroke-width:3.0;stroke-dasharray:2.0,2.0;" x1="371.7383" x2="371.7383" y1="723.4688" y2="736.4688"/><line style="stroke:#4362B1;stroke-width:3.0;stroke-dasharray:2.0,2.0;" x1="371.7383" x2="411.7383" y1="736.4688" y2="736.4688"/><polygon fill="#4362B1" points="401.7383,732.4688,411.7383,736.4688,401.7383,740.4688,405.7383,736.4688" style="stroke:#4362B1;stroke-width:1.0;"/><text fill="#FFFFFF" font-family="Verdana" font-size="12" lengthAdjust="spacing" textLength="25.3945" x="375.7383" y="713.6387">void</text><polygon fill="#4362B1" points="203.9902,765.4375,193.9902,769.4375,203.9902,773.4375,199.9902,769.4375" style="stroke:#4362B1;stroke-width:1.0;"/><line style="stroke:#4362B1;stroke-width:3.0;stroke-dasharray:2.0,2.0;" x1="197.9902" x2="417.7383" y1="769.4375" y2="769.4375"/><text fill="#FFFFFF" font-family="Verdana" font-size="12" lengthAdjust="spacing" textLength="101.8477" x="214.9902" y="759.6074">java.lang.Integer</text><polygon fill="#4362B1" points="11,803.4063,1,807.4063,11,811.4063,7,807.4063" style="stroke:#4362B1;stroke-width:1.0;"/><line style="stroke:#4362B1;stroke-width:3.0;stroke-dasharray:2.0,2.0;" x1="5" x2="186.9902" y1="807.4063" y2="807.4063"/><text fill="#FFFFFF" font-family="Verdana" font-size="12" lengthAdjust="spacing" textLength="25.3945" x="22" y="797.5762">void</text><!--SRC=[pPLDRnCn48Rl-HKcuhfV0aAwYY9nA59H1KYDnA47P9pfhc7zWJsx5VyUxwQYyKSJLXKIboXwnvvdtinuye9BrlLxw4r7MaHjww8mz3vlEBRzjzw2OKeYICoP4aK3IBKML1Uwen9xqMNOWe12K2wBG-YWvDe55veQv8nhTvPyeSZQ6p03Px03YuHQiWp5fNVbixBO6BZvsNsmIauNV6bval2rIZ9ULlwrIsauQuNp-EdkRhhXASi58RVPDinI4tIVnohPCDKfKpU6_jgICbyHOJV5f6rT3igG3nGXAjF5I2HcMzzfJUx74u_YjMfiI7orll2PHrG_tHGZWHWpkUJeG8VV0qp8AwlN8MyUSPDb8N9GVFzmTW_pge_xNnEjB4Ukv7lUmOxQ7pRsK5sSC17dVCf8YlwT3ZHtBwN9Twq1cZ3sb_dJviRsS3gEmfNGoc3ihLpzCs_fHZtBZu66MmGpnIu7z_uYH-NRLVM_MWf7UUpu-Ctr9_HHlPdzSixpt5Apu63NN4RBg5mdflmyCePwkx4cyB0QtcdTSKR7f_QHYXXVhTSf_b45Nk8d2t2T2oeuQbhGk7J6EHjexWvwpZuBnooHwt6TNBd_v0RCubpQsyIa_wdfn8p_1W00]--></g></svg>