<svg xmlns="http://www.w3.org/2000/svg" xmlns:xlink="http://www.w3.org/1999/xlink" contentStyleType="text/css" height="512px" preserveAspectRatio="none" style="width:748px;height:512px;background:#000000;" version="1.1" viewBox="0 0 748 512" width="748px" zoomAndPan="magnify"><defs/><g><rect fill="none" height="367.7188" style="stroke:#999999;stroke-width:1.0;" width="10" x="210.8223" y="83.9375"/><rect fill="none" height="139.9063" style="stroke:#999999;stroke-width:1.0;" width="10" x="438.1748" y="121.9063"/><rect fill="none" height="48.9688" style="stroke:#999999;stroke-width:1.0;" width="10" x="443.1748" y="167.875"/><rect fill="none" height="113.9063" style="stroke:#999999;stroke-width:1.0;" width="10" x="438.1748" y="299.7813"/><rect fill="none" height="37.9688" style="stroke:#999999;stroke-width:1.0;" width="10" x="681.5576" y="337.75"/><line style="stroke:#999999;stroke-width:0.5;stroke-dasharray:5.0,5.0;" x1="214.8574" x2="214.8574" y1="43.9688" y2="469.6563"/><line style="stroke:#999999;stroke-width:0.5;stroke-dasharray:5.0,5.0;" x1="442.7871" x2="442.7871" y1="43.9688" y2="469.6563"/><line style="stroke:#999999;stroke-width:0.5;stroke-dasharray:5.0,5.0;" x1="686.0898" x2="686.0898" y1="43.9688" y2="469.6563"/><rect fill="#555555" height="37.9688" rx="4" ry="4" style="stroke:#555555;stroke-width:1.0;" width="161.9297" x="134.8574" y="5"/><text fill="#FFFFFF" font-family="Verdana" font-size="12" lengthAdjust="spacing" textLength="137.9297" x="146.8574" y="28.1387">ValidateParameterTest</text><rect fill="#555555" height="37.9688" rx="4" ry="4" style="stroke:#555555;stroke-width:1.0;" width="161.9297" x="134.8574" y="468.6563"/><text fill="#FFFFFF" font-family="Verdana" font-size="12" lengthAdjust="spacing" textLength="137.9297" x="146.8574" y="491.7949">ValidateParameterTest</text><rect fill="#555555" height="37.9688" rx="4" ry="4" style="stroke:#555555;stroke-width:1.0;" width="112.7754" x="386.7871" y="5"/><text fill="#FFFFFF" font-family="Verdana" font-size="12" lengthAdjust="spacing" textLength="88.7754" x="398.7871" y="28.1387">PostgreSqlJson</text><rect fill="#555555" height="37.9688" rx="4" ry="4" style="stroke:#555555;stroke-width:1.0;" width="112.7754" x="386.7871" y="468.6563"/><text fill="#FFFFFF" font-family="Verdana" font-size="12" lengthAdjust="spacing" textLength="88.7754" x="398.7871" y="491.7949">PostgreSqlJson</text><rect fill="#555555" height="37.9688" rx="4" ry="4" style="stroke:#555555;stroke-width:1.0;" width="110.9355" x="631.0898" y="5"/><text fill="#FFFFFF" font-family="Verdana" font-size="12" lengthAdjust="spacing" textLength="86.9355" x="643.0898" y="28.1387">EnrichmentOff</text><rect fill="#555555" height="37.9688" rx="4" ry="4" style="stroke:#555555;stroke-width:1.0;" width="110.9355" x="631.0898" y="468.6563"/><text fill="#FFFFFF" font-family="Verdana" font-size="12" lengthAdjust="spacing" textLength="86.9355" x="643.0898" y="491.7949">EnrichmentOff</text><rect fill="none" height="367.7188" style="stroke:#999999;stroke-width:1.0;" width="10" x="210.8223" y="83.9375"/><rect fill="none" height="139.9063" style="stroke:#999999;stroke-width:1.0;" width="10" x="438.1748" y="121.9063"/><rect fill="none" height="48.9688" style="stroke:#999999;stroke-width:1.0;" width="10" x="443.1748" y="167.875"/><rect fill="none" height="113.9063" style="stroke:#999999;stroke-width:1.0;" width="10" x="438.1748" y="299.7813"/><rect fill="none" height="37.9688" style="stroke:#999999;stroke-width:1.0;" width="10" x="681.5576" y="337.75"/><polygon fill="#4362B1" points="198.8223,79.9375,208.8223,83.9375,198.8223,87.9375,202.8223,83.9375" style="stroke:#4362B1;stroke-width:1.0;"/><line style="stroke:#4362B1;stroke-width:3.0;" x1="0" x2="204.8223" y1="83.9375" y2="83.9375"/><text fill="#FFFFFF" font-family="Verdana" font-size="12" lengthAdjust="spacing" textLength="125.7188" x="12" y="74.1074">nonExistingWatchDir</text><text fill="#808080" font-family="Verdana" font-size="12" lengthAdjust="spacing" textLength="48.4746" x="145.3477" y="74.1074">0.16 ms</text><polygon fill="#4362B1" points="426.1748,117.9063,436.1748,121.9063,426.1748,125.9063,430.1748,121.9063" style="stroke:#4362B1;stroke-width:1.0;"/><line style="stroke:#4362B1;stroke-width:3.0;" x1="220.8223" x2="432.1748" y1="121.9063" y2="121.9063"/><text fill="#FFFFFF" font-family="Verdana" font-size="12" lengthAdjust="spacing" textLength="20.6191" x="232.8223" y="112.0762">call</text><text fill="#808080" font-family="Verdana" font-size="12" lengthAdjust="spacing" textLength="63.7441" x="261.0703" y="112.0762">0.0778 ms</text><line style="stroke:#4362B1;stroke-width:3.0;" x1="448.1748" x2="495.1748" y1="154.875" y2="154.875"/><line style="stroke:#4362B1;stroke-width:3.0;" x1="495.1748" x2="495.1748" y1="154.875" y2="167.875"/><line style="stroke:#4362B1;stroke-width:3.0;" x1="454.1748" x2="495.1748" y1="167.875" y2="167.875"/><polygon fill="#4362B1" points="464.1748,163.875,454.1748,167.875,464.1748,171.875,460.1748,167.875" style="stroke:#4362B1;stroke-width:1.0;"/><text fill="#FFFFFF" font-family="Verdana" font-size="12" lengthAdjust="spacing" textLength="128.0098" x="465.1748" y="145.0449">watchPostgreSqlLogs</text><text fill="#808080" font-family="Verdana" font-size="12" lengthAdjust="spacing" textLength="63.7441" x="600.8135" y="145.0449">0.0377 ms</text><line style="stroke:#4362B1;stroke-width:3.0;stroke-dasharray:2.0,2.0;" x1="396.1748" x2="442.1748" y1="215.8438" y2="215.8438"/><line style="stroke:#4362B1;stroke-width:3.0;stroke-dasharray:2.0,2.0;" x1="396.1748" x2="396.1748" y1="215.8438" y2="228.8438"/><line style="stroke:#4362B1;stroke-width:3.0;stroke-dasharray:2.0,2.0;" x1="396.1748" x2="436.1748" y1="228.8438" y2="228.8438"/><polygon fill="#4362B1" points="426.1748,224.8438,436.1748,228.8438,426.1748,232.8438,430.1748,228.8438" style="stroke:#4362B1;stroke-width:1.0;"/><text fill="#FFFFFF" font-family="Verdana" font-size="12" lengthAdjust="spacing" textLength="101.8477" x="324.3271" y="206.0137">java.lang.Integer</text><polygon fill="#4362B1" points="231.8223,257.8125,221.8223,261.8125,231.8223,265.8125,227.8223,261.8125" style="stroke:#4362B1;stroke-width:1.0;"/><line style="stroke:#4362B1;stroke-width:3.0;stroke-dasharray:2.0,2.0;" x1="225.8223" x2="442.1748" y1="261.8125" y2="261.8125"/><text fill="#FFFFFF" font-family="Verdana" font-size="12" lengthAdjust="spacing" textLength="101.8477" x="242.8223" y="251.9824">java.lang.Integer</text><polygon fill="#4362B1" points="426.1748,295.7813,436.1748,299.7813,426.1748,303.7813,430.1748,299.7813" style="stroke:#4362B1;stroke-width:1.0;"/><line style="stroke:#4362B1;stroke-width:3.0;" x1="220.8223" x2="432.1748" y1="299.7813" y2="299.7813"/><text fill="#FFFFFF" font-family="Verdana" font-size="12" lengthAdjust="spacing" textLength="30.9082" x="232.8223" y="289.9512">close</text><text fill="#808080" font-family="Verdana" font-size="12" lengthAdjust="spacing" textLength="63.7441" x="271.3594" y="289.9512">0.0387 ms</text><polygon fill="#4362B1" points="669.5576,333.75,679.5576,337.75,669.5576,341.75,673.5576,337.75" style="stroke:#4362B1;stroke-width:1.0;"/><line style="stroke:#4362B1;stroke-width:3.0;" x1="448.1748" x2="675.5576" y1="337.75" y2="337.75"/><text fill="#FFFFFF" font-family="Verdana" font-size="12" lengthAdjust="spacing" textLength="30.9082" x="460.1748" y="327.9199">close</text><text fill="#808080" font-family="Verdana" font-size="12" lengthAdjust="spacing" textLength="56.1094" x="498.7119" y="327.9199">0.013 ms</text><polygon fill="#4362B1" points="459.1748,371.7188,449.1748,375.7188,459.1748,379.7188,455.1748,375.7188" style="stroke:#4362B1;stroke-width:1.0;"/><line style="stroke:#4362B1;stroke-width:3.0;stroke-dasharray:2.0,2.0;" x1="453.1748" x2="685.5576" y1="375.7188" y2="375.7188"/><text fill="#FFFFFF" font-family="Verdana" font-size="12" lengthAdjust="spacing" textLength="25.3945" x="470.1748" y="365.8887">void</text><polygon fill="#4362B1" points="231.8223,409.6875,221.8223,413.6875,231.8223,417.6875,227.8223,413.6875" style="stroke:#4362B1;stroke-width:1.0;"/><line style="stroke:#4362B1;stroke-width:3.0;stroke-dasharray:2.0,2.0;" x1="225.8223" x2="442.1748" y1="413.6875" y2="413.6875"/><text fill="#FFFFFF" font-family="Verdana" font-size="12" lengthAdjust="spacing" textLength="25.3945" x="242.8223" y="403.8574">void</text><polygon fill="#4362B1" points="11,447.6563,1,451.6563,11,455.6563,7,451.6563" style="stroke:#4362B1;stroke-width:1.0;"/><line style="stroke:#4362B1;stroke-width:3.0;stroke-dasharray:2.0,2.0;" x1="5" x2="214.8223" y1="451.6563" y2="451.6563"/><text fill="#FFFFFF" font-family="Verdana" font-size="12" lengthAdjust="spacing" textLength="25.3945" x="22" y="441.8262">void</text><!--SRC=[fPFDJiCm48JlF8NfFKchIgIAgfpe0OH49H0SUbeSrp7o7_QcXRV7f1NKILeLkCxkp9VTTIw5fhAfMECagH6jBxBCmJRb0klcfV7CKQEHQKofKHbd2DOgi9cLeB5HCi6QAPOf43hRbNPAQaFnme93GOKDlUG9fAW0sH8SA8RCFJAF13mP3LP6aNbfF7B77jxahJUwTSLItBxGJj1QXS- -Nw_RxaWPNH2oIif1Ra6qqOjtuL5e_Wn8wslXo9mQQLp17NoKP9nEheZoywmLon065CKc90qF6Hh8S2KfuoaAGa7ABcsSvxEOTq2C0zeQwOXzolPhhX_npd3VWqxpl0lz7NQU95tkAsmW3I-7fpVXKN7cziQAdGeUNDtPwN_87ZYBD9xrLpJB_tUNw5KUeqoc9-uG9HmxGmUpCQBgBxwVTExUl_DEhNeLZ4T-kBt_m3tO-0a0]--></g></svg>