<svg xmlns="http://www.w3.org/2000/svg" xmlns:xlink="http://www.w3.org/1999/xlink" contentStyleType="text/css" height="512px" preserveAspectRatio="none" style="width:756px;height:512px;background:#000000;" version="1.1" viewBox="0 0 756 512" width="756px" zoomAndPan="magnify"><defs/><g><rect fill="none" height="367.7188" style="stroke:#999999;stroke-width:1.0;" width="10" x="226.4961" y="83.9375"/><rect fill="none" height="139.9063" style="stroke:#999999;stroke-width:1.0;" width="10" x="453.8486" y="121.9063"/><rect fill="none" height="48.9688" style="stroke:#999999;stroke-width:1.0;" width="10" x="458.8486" y="167.875"/><rect fill="none" height="113.9063" style="stroke:#999999;stroke-width:1.0;" width="10" x="453.8486" y="299.7813"/><rect fill="none" height="37.9688" style="stroke:#999999;stroke-width:1.0;" width="10" x="689.5967" y="337.75"/><line style="stroke:#999999;stroke-width:0.5;stroke-dasharray:5.0,5.0;" x1="230.5313" x2="230.5313" y1="43.9688" y2="469.6563"/><line style="stroke:#999999;stroke-width:0.5;stroke-dasharray:5.0,5.0;" x1="458.4609" x2="458.4609" y1="43.9688" y2="469.6563"/><line style="stroke:#999999;stroke-width:0.5;stroke-dasharray:5.0,5.0;" x1="694.1289" x2="694.1289" y1="43.9688" y2="469.6563"/><rect fill="#555555" height="37.9688" rx="4" ry="4" style="stroke:#555555;stroke-width:1.0;" width="161.9297" x="150.5313" y="5"/><text fill="#FFFFFF" font-family="Verdana" font-size="12" lengthAdjust="spacing" textLength="137.9297" x="162.5313" y="28.1387">ValidateParameterTest</text><rect fill="#555555" height="37.9688" rx="4" ry="4" style="stroke:#555555;stroke-width:1.0;" width="161.9297" x="150.5313" y="468.6563"/><text fill="#FFFFFF" font-family="Verdana" font-size="12" lengthAdjust="spacing" textLength="137.9297" x="162.5313" y="491.7949">ValidateParameterTest</text><rect fill="#555555" height="37.9688" rx="4" ry="4" style="stroke:#555555;stroke-width:1.0;" width="112.7754" x="402.4609" y="5"/><text fill="#FFFFFF" font-family="Verdana" font-size="12" lengthAdjust="spacing" textLength="88.7754" x="414.4609" y="28.1387">PostgreSqlJson</text><rect fill="#555555" height="37.9688" rx="4" ry="4" style="stroke:#555555;stroke-width:1.0;" width="112.7754" x="402.4609" y="468.6563"/><text fill="#FFFFFF" font-family="Verdana" font-size="12" lengthAdjust="spacing" textLength="88.7754" x="414.4609" y="491.7949">PostgreSqlJson</text><rect fill="#555555" height="37.9688" rx="4" ry="4" style="stroke:#555555;stroke-width:1.0;" width="110.9355" x="639.1289" y="5"/><text fill="#FFFFFF" font-family="Verdana" font-size="12" lengthAdjust="spacing" textLength="86.9355" x="651.1289" y="28.1387">EnrichmentOff</text><rect fill="#555555" height="37.9688" rx="4" ry="4" style="stroke:#555555;stroke-width:1.0;" width="110.9355" x="639.1289" y="468.6563"/><text fill="#FFFFFF" font-family="Verdana" font-size="12" lengthAdjust="spacing" textLength="86.9355" x="651.1289" y="491.7949">EnrichmentOff</text><rect fill="none" height="367.7188" style="stroke:#999999;stroke-width:1.0;" width="10" x="226.4961" y="83.9375"/><rect fill="none" height="139.9063" style="stroke:#999999;stroke-width:1.0;" width="10" x="453.8486" y="121.9063"/><rect fill="none" height="48.9688" style="stroke:#999999;stroke-width:1.0;" width="10" x="458.8486" y="167.875"/><rect fill="none" height="113.9063" style="stroke:#999999;stroke-width:1.0;" width="10" x="453.8486" y="299.7813"/><rect fill="none" height="37.9688" style="stroke:#999999;stroke-width:1.0;" width="10" x="689.5967" y="337.75"/><polygon fill="#4362B1" points="214.4961,79.9375,224.4961,83.9375,214.4961,87.9375,218.4961,83.9375" style="stroke:#4362B1;stroke-width:1.0;"/><line style="stroke:#4362B1;stroke-width:3.0;" x1="0" x2="220.4961" y1="83.9375" y2="83.9375"/><text fill="#FFFFFF" font-family="Verdana" font-size="12" lengthAdjust="spacing" textLength="133.7578" x="12" y="74.1074">nonDirectoryWatchDir</text><text fill="#808080" font-family="Verdana" font-size="12" lengthAdjust="spacing" textLength="56.1094" x="153.3867" y="74.1074">0.937 ms</text><polygon fill="#4362B1" points="441.8486,117.9063,451.8486,121.9063,441.8486,125.9063,445.8486,121.9063" style="stroke:#4362B1;stroke-width:1.0;"/><line style="stroke:#4362B1;stroke-width:3.0;" x1="236.4961" x2="447.8486" y1="121.9063" y2="121.9063"/><text fill="#FFFFFF" font-family="Verdana" font-size="12" lengthAdjust="spacing" textLength="20.6191" x="248.4961" y="112.0762">call</text><text fill="#808080" font-family="Verdana" font-size="12" lengthAdjust="spacing" textLength="56.1094" x="276.7441" y="112.0762">0.307 ms</text><line style="stroke:#4362B1;stroke-width:3.0;" x1="463.8486" x2="510.8486" y1="154.875" y2="154.875"/><line style="stroke:#4362B1;stroke-width:3.0;" x1="510.8486" x2="510.8486" y1="154.875" y2="167.875"/><line style="stroke:#4362B1;stroke-width:3.0;" x1="469.8486" x2="510.8486" y1="167.875" y2="167.875"/><polygon fill="#4362B1" points="479.8486,163.875,469.8486,167.875,479.8486,171.875,475.8486,167.875" style="stroke:#4362B1;stroke-width:1.0;"/><text fill="#FFFFFF" font-family="Verdana" font-size="12" lengthAdjust="spacing" textLength="128.0098" x="480.8486" y="145.0449">watchPostgreSqlLogs</text><text fill="#808080" font-family="Verdana" font-size="12" lengthAdjust="spacing" textLength="56.1094" x="616.4873" y="145.0449">0.251 ms</text><line style="stroke:#4362B1;stroke-width:3.0;stroke-dasharray:2.0,2.0;" x1="411.8486" x2="457.8486" y1="215.8438" y2="215.8438"/><line style="stroke:#4362B1;stroke-width:3.0;stroke-dasharray:2.0,2.0;" x1="411.8486" x2="411.8486" y1="215.8438" y2="228.8438"/><line style="stroke:#4362B1;stroke-width:3.0;stroke-dasharray:2.0,2.0;" x1="411.8486" x2="451.8486" y1="228.8438" y2="228.8438"/><polygon fill="#4362B1" points="441.8486,224.8438,451.8486,228.8438,441.8486,232.8438,445.8486,228.8438" style="stroke:#4362B1;stroke-width:1.0;"/><text fill="#FFFFFF" font-family="Verdana" font-size="12" lengthAdjust="spacing" textLength="101.8477" x="340.001" y="206.0137">java.lang.Integer</text><polygon fill="#4362B1" points="247.4961,257.8125,237.4961,261.8125,247.4961,265.8125,243.4961,261.8125" style="stroke:#4362B1;stroke-width:1.0;"/><line style="stroke:#4362B1;stroke-width:3.0;stroke-dasharray:2.0,2.0;" x1="241.4961" x2="457.8486" y1="261.8125" y2="261.8125"/><text fill="#FFFFFF" font-family="Verdana" font-size="12" lengthAdjust="spacing" textLength="101.8477" x="258.4961" y="251.9824">java.lang.Integer</text><polygon fill="#4362B1" points="441.8486,295.7813,451.8486,299.7813,441.8486,303.7813,445.8486,299.7813" style="stroke:#4362B1;stroke-width:1.0;"/><line style="stroke:#4362B1;stroke-width:3.0;" x1="236.4961" x2="447.8486" y1="299.7813" y2="299.7813"/><text fill="#FFFFFF" font-family="Verdana" font-size="12" lengthAdjust="spacing" textLength="30.9082" x="248.4961" y="289.9512">close</text><text fill="#808080" font-family="Verdana" font-size="12" lengthAdjust="spacing" textLength="63.7441" x="287.0332" y="289.9512">0.0409 ms</text><polygon fill="#4362B1" points="677.5967,333.75,687.5967,337.75,677.5967,341.75,681.5967,337.75" style="stroke:#4362B1;stroke-width:1.0;"/><line style="stroke:#4362B1;stroke-width:3.0;" x1="463.8486" x2="683.5967" y1="337.75" y2="337.75"/><text fill="#FFFFFF" font-family="Verdana" font-size="12" lengthAdjust="spacing" textLength="30.9082" x="475.8486" y="327.9199">close</text><text fill="#808080" font-family="Verdana" font-size="12" lengthAdjust="spacing" textLength="63.7441" x="514.3857" y="327.9199">0.0141 ms</text><polygon fill="#4362B1" points="474.8486,371.7188,464.8486,375.7188,474.8486,379.7188,470.8486,375.7188" style="stroke:#4362B1;stroke-width:1.0;"/><line style="stroke:#4362B1;stroke-width:3.0;stroke-dasharray:2.0,2.0;" x1="468.8486" x2="693.5967" y1="375.7188" y2="375.7188"/><text fill="#FFFFFF" font-family="Verdana" font-size="12" lengthAdjust="spacing" textLength="25.3945" x="485.8486" y="365.8887">void</text><polygon fill="#4362B1" points="247.4961,409.6875,237.4961,413.6875,247.4961,417.6875,243.4961,413.6875" style="stroke:#4362B1;stroke-width:1.0;"/><line style="stroke:#4362B1;stroke-width:3.0;stroke-dasharray:2.0,2.0;" x1="241.4961" x2="457.8486" y1="413.6875" y2="413.6875"/><text fill="#FFFFFF" font-family="Verdana" font-size="12" lengthAdjust="spacing" textLength="25.3945" x="258.4961" y="403.8574">void</text><polygon fill="#4362B1" points="11,447.6563,1,451.6563,11,455.6563,7,451.6563" style="stroke:#4362B1;stroke-width:1.0;"/><line style="stroke:#4362B1;stroke-width:3.0;stroke-dasharray:2.0,2.0;" x1="5" x2="230.4961" y1="451.6563" y2="451.6563"/><text fill="#FFFFFF" font-family="Verdana" font-size="12" lengthAdjust="spacing" textLength="25.3945" x="22" y="441.8262">void</text><!--SRC=[fLFBJW8n5Dtp5PNzF12COK9cfGkDYIGQNR2wTifCJL-sTo3ylNKWIij0K9TpxddqFkQ2AohQYhLMa0RHk2BBBApJccFJlhMEMQeLCeKfrJAh6O8n4anc12XifKYmOP9b4hZAjgKjaXfV71Ymo2atdajUGF0AaCt1WcJ8x3DpIC2HOMzb68Zdsc5jsTE7k7TQTQeG2kctodBQIF_in-MoOmV8S4388YbxSmkYjBhXbb7KTlCAI1l_HMPK2ssBsiAc97aw7LyJwMPPXvRU3YZobVVgRzCJI7ybASC-2a91Y3Xkd4TnUu6XlgkH23mCMN_rzGC-wDh5cPTNepZpTwcp98bZts45gR-SEhtpHrKpknDMx9Hnx-3ETl-3TyzIX7Oidb0-oQV_MqjmbSTIHfDJYmWiZkqXobbfNXrE_j3ftC5_-vsQzS8BZ_nnE_sUkfVu2G00]--></g></svg>