<svg xmlns="http://www.w3.org/2000/svg" xmlns:xlink="http://www.w3.org/1999/xlink" contentStyleType="text/css" height="266px" preserveAspectRatio="none" style="width:645px;height:266px;background:#FFFFFF;" version="1.1" viewBox="0 0 645 266" width="645px" zoomAndPan="magnify"><defs/><g><rect fill="#FFFFFF" height="145.6641" style="stroke:#181818;stroke-width:1.0;" width="10" x="136.8887" y="67.4297"/><rect fill="#FFFFFF" height="87.3984" style="stroke:#181818;stroke-width:1.0;" width="10" x="321.8125" y="96.5625"/><rect fill="#FFFFFF" height="29.1328" style="stroke:#181818;stroke-width:1.0;" width="10" x="576.5034" y="125.6953"/><line style="stroke:#181818;stroke-width:0.5;stroke-dasharray:5.0,5.0;" x1="141.1289" x2="141.1289" y1="36.2969" y2="231.0938"/><line style="stroke:#181818;stroke-width:0.5;stroke-dasharray:5.0,5.0;" x1="326.0269" x2="326.0269" y1="36.2969" y2="231.0938"/><line style="stroke:#181818;stroke-width:0.5;stroke-dasharray:5.0,5.0;" x1="580.791" x2="580.791" y1="36.2969" y2="231.0938"/><rect fill="#E2E2F0" height="30.2969" rx="2.5" ry="2.5" style="stroke:#181818;stroke-width:0.5;" width="147.5195" x="68.1289" y="5"/><text fill="#000000" font-family="sans-serif" font-size="14" lengthAdjust="spacing" textLength="133.5195" x="75.1289" y="24.9951">PostgreSqlJsonTest</text><rect fill="#E2E2F0" height="30.2969" rx="2.5" ry="2.5" style="stroke:#181818;stroke-width:0.5;" width="147.5195" x="68.1289" y="230.0938"/><text fill="#000000" font-family="sans-serif" font-size="14" lengthAdjust="spacing" textLength="133.5195" x="75.1289" y="250.0889">PostgreSqlJsonTest</text><rect fill="#E2E2F0" height="30.2969" rx="2.5" ry="2.5" style="stroke:#181818;stroke-width:0.5;" width="117.5713" x="268.0269" y="5"/><text fill="#000000" font-family="sans-serif" font-size="14" lengthAdjust="spacing" textLength="103.5713" x="275.0269" y="24.9951">PostgreSqlJson</text><rect fill="#E2E2F0" height="30.2969" rx="2.5" ry="2.5" style="stroke:#181818;stroke-width:0.5;" width="117.5713" x="268.0269" y="230.0938"/><text fill="#000000" font-family="sans-serif" font-size="14" lengthAdjust="spacing" textLength="103.5713" x="275.0269" y="250.0889">PostgreSqlJson</text><rect fill="#E2E2F0" height="30.2969" rx="2.5" ry="2.5" style="stroke:#181818;stroke-width:0.5;" width="115.4248" x="523.791" y="5"/><text fill="#000000" font-family="sans-serif" font-size="14" lengthAdjust="spacing" textLength="101.4248" x="530.791" y="24.9951">EnrichmentOff</text><rect fill="#E2E2F0" height="30.2969" rx="2.5" ry="2.5" style="stroke:#181818;stroke-width:0.5;" width="115.4248" x="523.791" y="230.0938"/><text fill="#000000" font-family="sans-serif" font-size="14" lengthAdjust="spacing" textLength="101.4248" x="530.791" y="250.0889">EnrichmentOff</text><rect fill="#FFFFFF" height="145.6641" style="stroke:#181818;stroke-width:1.0;" width="10" x="136.8887" y="67.4297"/><rect fill="#FFFFFF" height="87.3984" style="stroke:#181818;stroke-width:1.0;" width="10" x="321.8125" y="96.5625"/><rect fill="#FFFFFF" height="29.1328" style="stroke:#181818;stroke-width:1.0;" width="10" x="576.5034" y="125.6953"/><polygon fill="#181818" points="124.8887,63.4297,134.8887,67.4297,124.8887,71.4297,128.8887,67.4297" style="stroke:#181818;stroke-width:1.0;"/><line style="stroke:#181818;stroke-width:1.0;" x1="0" x2="130.8887" y1="67.4297" y2="67.4297"/><text fill="#000000" font-family="sans-serif" font-size="13" lengthAdjust="spacing" textLength="48.8389" x="7" y="62.3638">logBind</text><text fill="#808080" font-family="sans-serif" font-size="13" lengthAdjust="spacing" textLength="60.7852" x="64.1035" y="62.3638">0.171 ms</text><polygon fill="#181818" points="309.8125,92.5625,319.8125,96.5625,309.8125,100.5625,313.8125,96.5625" style="stroke:#181818;stroke-width:1.0;"/><line style="stroke:#181818;stroke-width:1.0;" x1="146.8887" x2="315.8125" y1="96.5625" y2="96.5625"/><text fill="#000000" font-family="sans-serif" font-size="13" lengthAdjust="spacing" textLength="86.874" x="153.8887" y="91.4966">parseLogLine</text><text fill="#808080" font-family="sans-serif" font-size="13" lengthAdjust="spacing" textLength="60.7852" x="249.0273" y="91.4966">0.133 ms</text><polygon fill="#181818" points="564.5034,121.6953,574.5034,125.6953,564.5034,129.6953,568.5034,125.6953" style="stroke:#181818;stroke-width:1.0;"/><line style="stroke:#181818;stroke-width:1.0;" x1="331.8125" x2="570.5034" y1="125.6953" y2="125.6953"/><text fill="#000000" font-family="sans-serif" font-size="13" lengthAdjust="spacing" textLength="164.9121" x="338.8125" y="120.6294">enricherApplicationName</text><text fill="#808080" font-family="sans-serif" font-size="13" lengthAdjust="spacing" textLength="52.5142" x="511.9893" y="120.6294">0.03 ms</text><polygon fill="#181818" points="342.8125,150.8281,332.8125,154.8281,342.8125,158.8281,338.8125,154.8281" style="stroke:#181818;stroke-width:1.0;"/><line style="stroke:#181818;stroke-width:1.0;stroke-dasharray:2.0,2.0;" x1="336.8125" x2="580.5034" y1="154.8281" y2="154.8281"/><text fill="#000000" font-family="sans-serif" font-size="13" lengthAdjust="spacing" textLength="27.5107" x="348.8125" y="149.7622">void</text><polygon fill="#181818" points="157.8887,179.9609,147.8887,183.9609,157.8887,187.9609,153.8887,183.9609" style="stroke:#181818;stroke-width:1.0;"/><line style="stroke:#181818;stroke-width:1.0;stroke-dasharray:2.0,2.0;" x1="151.8887" x2="325.8125" y1="183.9609" y2="183.9609"/><text fill="#000000" font-family="sans-serif" font-size="13" lengthAdjust="spacing" textLength="27.5107" x="163.8887" y="178.895">void</text><polygon fill="#181818" points="11,209.0938,1,213.0938,11,217.0938,7,213.0938" style="stroke:#181818;stroke-width:1.0;"/><line style="stroke:#181818;stroke-width:1.0;stroke-dasharray:2.0,2.0;" x1="5" x2="140.8887" y1="213.0938" y2="213.0938"/><text fill="#000000" font-family="sans-serif" font-size="13" lengthAdjust="spacing" textLength="27.5107" x="17" y="208.0278">void</text><!--SRC=[VP5H2u8m58NV_HKNtwsaXq14AEWbf89wysdCcrtGRMqZwDzd9k6SzhYpSywtUwUOjiH9CM7XB8sjD5uUzS58SKLZWHa8VJaCr6ni8kBQzq8JlpSexEbswzoE4WO0HPJvq0HgMUr8b91oMKkTL9gzCbWjuaqCZKcNdPgrSSOjFPd5YO7QMvYGnxm4sXSRp6MLaq0Fk5wxm5baTpS6HfapS0BO7L5lbQg9CqjI75dZOLSUTS1rAYUnQHIDk4z9PMyjyK-Jlw-sQxomNzcWobj6uGM_Fzk7PwCVrni0]--></g></svg>