<svg xmlns="http://www.w3.org/2000/svg" xmlns:xlink="http://www.w3.org/1999/xlink" contentStyleType="text/css" height="512px" preserveAspectRatio="none" style="width:724px;height:512px;background:#000000;" version="1.1" viewBox="0 0 724 512" width="724px" zoomAndPan="magnify"><defs/><g><rect fill="none" height="367.7188" style="stroke:#999999;stroke-width:1.0;" width="10" x="186.8223" y="83.9375"/><rect fill="none" height="139.9063" style="stroke:#999999;stroke-width:1.0;" width="10" x="414.1748" y="121.9063"/><rect fill="none" height="48.9688" style="stroke:#999999;stroke-width:1.0;" width="10" x="419.1748" y="167.875"/><rect fill="none" height="113.9063" style="stroke:#999999;stroke-width:1.0;" width="10" x="414.1748" y="299.7813"/><rect fill="none" height="37.9688" style="stroke:#999999;stroke-width:1.0;" width="10" x="657.5576" y="337.75"/><line style="stroke:#999999;stroke-width:0.5;stroke-dasharray:5.0,5.0;" x1="190.8574" x2="190.8574" y1="43.9688" y2="469.6563"/><line style="stroke:#999999;stroke-width:0.5;stroke-dasharray:5.0,5.0;" x1="418.7871" x2="418.7871" y1="43.9688" y2="469.6563"/><line style="stroke:#999999;stroke-width:0.5;stroke-dasharray:5.0,5.0;" x1="662.0898" x2="662.0898" y1="43.9688" y2="469.6563"/><rect fill="#555555" height="37.9688" rx="4" ry="4" style="stroke:#555555;stroke-width:1.0;" width="161.9297" x="110.8574" y="5"/><text fill="#FFFFFF" font-family="Verdana" font-size="12" lengthAdjust="spacing" textLength="137.9297" x="122.8574" y="28.1387">ValidateParameterTest</text><rect fill="#555555" height="37.9688" rx="4" ry="4" style="stroke:#555555;stroke-width:1.0;" width="161.9297" x="110.8574" y="468.6563"/><text fill="#FFFFFF" font-family="Verdana" font-size="12" lengthAdjust="spacing" textLength="137.9297" x="122.8574" y="491.7949">ValidateParameterTest</text><rect fill="#555555" height="37.9688" rx="4" ry="4" style="stroke:#555555;stroke-width:1.0;" width="112.7754" x="362.7871" y="5"/><text fill="#FFFFFF" font-family="Verdana" font-size="12" lengthAdjust="spacing" textLength="88.7754" x="374.7871" y="28.1387">PostgreSqlJson</text><rect fill="#555555" height="37.9688" rx="4" ry="4" style="stroke:#555555;stroke-width:1.0;" width="112.7754" x="362.7871" y="468.6563"/><text fill="#FFFFFF" font-family="Verdana" font-size="12" lengthAdjust="spacing" textLength="88.7754" x="374.7871" y="491.7949">PostgreSqlJson</text><rect fill="#555555" height="37.9688" rx="4" ry="4" style="stroke:#555555;stroke-width:1.0;" width="110.9355" x="607.0898" y="5"/><text fill="#FFFFFF" font-family="Verdana" font-size="12" lengthAdjust="spacing" textLength="86.9355" x="619.0898" y="28.1387">EnrichmentOff</text><rect fill="#555555" height="37.9688" rx="4" ry="4" style="stroke:#555555;stroke-width:1.0;" width="110.9355" x="607.0898" y="468.6563"/><text fill="#FFFFFF" font-family="Verdana" font-size="12" lengthAdjust="spacing" textLength="86.9355" x="619.0898" y="491.7949">EnrichmentOff</text><rect fill="none" height="367.7188" style="stroke:#999999;stroke-width:1.0;" width="10" x="186.8223" y="83.9375"/><rect fill="none" height="139.9063" style="stroke:#999999;stroke-width:1.0;" width="10" x="414.1748" y="121.9063"/><rect fill="none" height="48.9688" style="stroke:#999999;stroke-width:1.0;" width="10" x="419.1748" y="167.875"/><rect fill="none" height="113.9063" style="stroke:#999999;stroke-width:1.0;" width="10" x="414.1748" y="299.7813"/><rect fill="none" height="37.9688" style="stroke:#999999;stroke-width:1.0;" width="10" x="657.5576" y="337.75"/><polygon fill="#4362B1" points="174.8223,79.9375,184.8223,83.9375,174.8223,87.9375,178.8223,83.9375" style="stroke:#4362B1;stroke-width:1.0;"/><line style="stroke:#4362B1;stroke-width:3.0;" x1="0" x2="180.8223" y1="83.9375" y2="83.9375"/><text fill="#FFFFFF" font-family="Verdana" font-size="12" lengthAdjust="spacing" textLength="101.7188" x="12" y="74.1074">missingWatchDir</text><text fill="#808080" font-family="Verdana" font-size="12" lengthAdjust="spacing" textLength="48.4746" x="121.3477" y="74.1074">0.16 ms</text><polygon fill="#4362B1" points="402.1748,117.9063,412.1748,121.9063,402.1748,125.9063,406.1748,121.9063" style="stroke:#4362B1;stroke-width:1.0;"/><line style="stroke:#4362B1;stroke-width:3.0;" x1="196.8223" x2="408.1748" y1="121.9063" y2="121.9063"/><text fill="#FFFFFF" font-family="Verdana" font-size="12" lengthAdjust="spacing" textLength="20.6191" x="208.8223" y="112.0762">call</text><text fill="#808080" font-family="Verdana" font-size="12" lengthAdjust="spacing" textLength="63.7441" x="237.0703" y="112.0762">0.0841 ms</text><line style="stroke:#4362B1;stroke-width:3.0;" x1="424.1748" x2="471.1748" y1="154.875" y2="154.875"/><line style="stroke:#4362B1;stroke-width:3.0;" x1="471.1748" x2="471.1748" y1="154.875" y2="167.875"/><line style="stroke:#4362B1;stroke-width:3.0;" x1="430.1748" x2="471.1748" y1="167.875" y2="167.875"/><polygon fill="#4362B1" points="440.1748,163.875,430.1748,167.875,440.1748,171.875,436.1748,167.875" style="stroke:#4362B1;stroke-width:1.0;"/><text fill="#FFFFFF" font-family="Verdana" font-size="12" lengthAdjust="spacing" textLength="128.0098" x="441.1748" y="145.0449">watchPostgreSqlLogs</text><text fill="#808080" font-family="Verdana" font-size="12" lengthAdjust="spacing" textLength="63.7441" x="576.8135" y="145.0449">0.0384 ms</text><line style="stroke:#4362B1;stroke-width:3.0;stroke-dasharray:2.0,2.0;" x1="372.1748" x2="418.1748" y1="215.8438" y2="215.8438"/><line style="stroke:#4362B1;stroke-width:3.0;stroke-dasharray:2.0,2.0;" x1="372.1748" x2="372.1748" y1="215.8438" y2="228.8438"/><line style="stroke:#4362B1;stroke-width:3.0;stroke-dasharray:2.0,2.0;" x1="372.1748" x2="412.1748" y1="228.8438" y2="228.8438"/><polygon fill="#4362B1" points="402.1748,224.8438,412.1748,228.8438,402.1748,232.8438,406.1748,228.8438" style="stroke:#4362B1;stroke-width:1.0;"/><text fill="#FFFFFF" font-family="Verdana" font-size="12" lengthAdjust="spacing" textLength="101.8477" x="300.3271" y="206.0137">java.lang.Integer</text><polygon fill="#4362B1" points="207.8223,257.8125,197.8223,261.8125,207.8223,265.8125,203.8223,261.8125" style="stroke:#4362B1;stroke-width:1.0;"/><line style="stroke:#4362B1;stroke-width:3.0;stroke-dasharray:2.0,2.0;" x1="201.8223" x2="418.1748" y1="261.8125" y2="261.8125"/><text fill="#FFFFFF" font-family="Verdana" font-size="12" lengthAdjust="spacing" textLength="101.8477" x="218.8223" y="251.9824">java.lang.Integer</text><polygon fill="#4362B1" points="402.1748,295.7813,412.1748,299.7813,402.1748,303.7813,406.1748,299.7813" style="stroke:#4362B1;stroke-width:1.0;"/><line style="stroke:#4362B1;stroke-width:3.0;" x1="196.8223" x2="408.1748" y1="299.7813" y2="299.7813"/><text fill="#FFFFFF" font-family="Verdana" font-size="12" lengthAdjust="spacing" textLength="30.9082" x="208.8223" y="289.9512">close</text><text fill="#808080" font-family="Verdana" font-size="12" lengthAdjust="spacing" textLength="56.1094" x="247.3594" y="289.9512">0.035 ms</text><polygon fill="#4362B1" points="645.5576,333.75,655.5576,337.75,645.5576,341.75,649.5576,337.75" style="stroke:#4362B1;stroke-width:1.0;"/><line style="stroke:#4362B1;stroke-width:3.0;" x1="424.1748" x2="651.5576" y1="337.75" y2="337.75"/><text fill="#FFFFFF" font-family="Verdana" font-size="12" lengthAdjust="spacing" textLength="30.9082" x="436.1748" y="327.9199">close</text><text fill="#808080" font-family="Verdana" font-size="12" lengthAdjust="spacing" textLength="63.7441" x="474.7119" y="327.9199">0.0113 ms</text><polygon fill="#4362B1" points="435.1748,371.7188,425.1748,375.7188,435.1748,379.7188,431.1748,375.7188" style="stroke:#4362B1;stroke-width:1.0;"/><line style="stroke:#4362B1;stroke-width:3.0;stroke-dasharray:2.0,2.0;" x1="429.1748" x2="661.5576" y1="375.7188" y2="375.7188"/><text fill="#FFFFFF" font-family="Verdana" font-size="12" lengthAdjust="spacing" textLength="25.3945" x="446.1748" y="365.8887">void</text><polygon fill="#4362B1" points="207.8223,409.6875,197.8223,413.6875,207.8223,417.6875,203.8223,413.6875" style="stroke:#4362B1;stroke-width:1.0;"/><line style="stroke:#4362B1;stroke-width:3.0;stroke-dasharray:2.0,2.0;" x1="201.8223" x2="418.1748" y1="413.6875" y2="413.6875"/><text fill="#FFFFFF" font-family="Verdana" font-size="12" lengthAdjust="spacing" textLength="25.3945" x="218.8223" y="403.8574">void</text><polygon fill="#4362B1" points="11,447.6563,1,451.6563,11,455.6563,7,451.6563" style="stroke:#4362B1;stroke-width:1.0;"/><line style="stroke:#4362B1;stroke-width:3.0;stroke-dasharray:2.0,2.0;" x1="5" x2="190.8223" y1="451.6563" y2="451.6563"/><text fill="#FFFFFF" font-family="Verdana" font-size="12" lengthAdjust="spacing" textLength="25.3945" x="22" y="441.8262">void</text><!--SRC=[fPFDJiCm48JlVGhJUv96BQYAgfpW04AY4WWEFIsEwnZv3tlJYhV7f1NKILeLkCxkp9VTTIw4fhAfMECagH6jBxBCmJRb0klcjV7CKQEHQKofKHbd2DOgi9cLeB5HCi6QAPOf43hRbNPAQaDnPC6XeCA6Nl8CKbI0R0aE54FcdfX70fwC1olZoBmq7hbZZ-_opXlTkc8fRh_HJj1QXSz-MA_RxaWPZmXP9UKWjo1AU2yqVm6azRLmP46DDAxW3ZvACadpAwBy8cl5CWG1HR49ASC3XWOoN4dAU8A2K92oIvlCPtdCEo360MsDTCG-PVirruzuRxZlGQVpMHVwE-mYIRhSDzX06buDJs_3W-BCxOqLEnKykBgpq_-GFN0MQJphh-ZoVsU97kGnI9vFJzmXYZXsXWvdOqJLNtm_wTozV-UTMlKg68_yR7l_WNkmyHC0]--></g></svg>