<svg xmlns="http://www.w3.org/2000/svg" xmlns:xlink="http://www.w3.org/1999/xlink" contentStyleType="text/css" height="486px" preserveAspectRatio="none" style="width:811px;height:486px;background:#000000;" version="1.1" viewBox="0 0 811 486" width="811px" zoomAndPan="magnify"><defs/><g><rect fill="none" height="341.7188" style="stroke:#999999;stroke-width:1.0;" width="10" x="326.8613" y="83.9375"/><rect fill="none" height="113.9063" style="stroke:#999999;stroke-width:1.0;" width="10" x="543.4268" y="121.9063"/><rect fill="none" height="113.9063" style="stroke:#999999;stroke-width:1.0;" width="10" x="543.4268" y="273.7813"/><rect fill="none" height="37.9688" style="stroke:#999999;stroke-width:1.0;" width="10" x="745.2822" y="159.875"/><rect fill="none" height="37.9688" style="stroke:#999999;stroke-width:1.0;" width="10" x="745.2822" y="311.75"/><line style="stroke:#999999;stroke-width:0.5;stroke-dasharray:5.0,5.0;" x1="331.6836" x2="331.6836" y1="43.9688" y2="443.6563"/><line style="stroke:#999999;stroke-width:0.5;stroke-dasharray:5.0,5.0;" x1="548.0391" x2="548.0391" y1="43.9688" y2="443.6563"/><line style="stroke:#999999;stroke-width:0.5;stroke-dasharray:5.0,5.0;" x1="749.8145" x2="749.8145" y1="43.9688" y2="443.6563"/><rect fill="#555555" height="37.9688" rx="4" ry="4" style="stroke:#555555;stroke-width:1.0;" width="140.3555" x="261.6836" y="5"/><text fill="#FFFFFF" font-family="Verdana" font-size="12" lengthAdjust="spacing" textLength="116.3555" x="273.6836" y="28.1387">LogEnrichmentTest</text><rect fill="#555555" height="37.9688" rx="4" ry="4" style="stroke:#555555;stroke-width:1.0;" width="140.3555" x="261.6836" y="442.6563"/><text fill="#FFFFFF" font-family="Verdana" font-size="12" lengthAdjust="spacing" textLength="116.3555" x="273.6836" y="465.7949">LogEnrichmentTest</text><rect fill="#555555" height="37.9688" rx="4" ry="4" style="stroke:#555555;stroke-width:1.0;" width="112.7754" x="492.0391" y="5"/><text fill="#FFFFFF" font-family="Verdana" font-size="12" lengthAdjust="spacing" textLength="88.7754" x="504.0391" y="28.1387">PostgreSqlJson</text><rect fill="#555555" height="37.9688" rx="4" ry="4" style="stroke:#555555;stroke-width:1.0;" width="112.7754" x="492.0391" y="442.6563"/><text fill="#FFFFFF" font-family="Verdana" font-size="12" lengthAdjust="spacing" textLength="88.7754" x="504.0391" y="465.7949">PostgreSqlJson</text><rect fill="#555555" height="37.9688" rx="4" ry="4" style="stroke:#555555;stroke-width:1.0;" width="110.9355" x="694.8145" y="5"/><text fill="#FFFFFF" font-family="Verdana" font-size="12" lengthAdjust="spacing" textLength="86.9355" x="706.8145" y="28.1387">EnrichmentOff</text><rect fill="#555555" height="37.9688" rx="4" ry="4" style="stroke:#555555;stroke-width:1.0;" width="110.9355" x="694.8145" y="442.6563"/><text fill="#FFFFFF" font-family="Verdana" font-size="12" lengthAdjust="spacing" textLength="86.9355" x="706.8145" y="465.7949">EnrichmentOff</text><rect fill="none" height="341.7188" style="stroke:#999999;stroke-width:1.0;" width="10" x="326.8613" y="83.9375"/><rect fill="none" height="113.9063" style="stroke:#999999;stroke-width:1.0;" width="10" x="543.4268" y="121.9063"/><rect fill="none" height="113.9063" style="stroke:#999999;stroke-width:1.0;" width="10" x="543.4268" y="273.7813"/><rect fill="none" height="37.9688" style="stroke:#999999;stroke-width:1.0;" width="10" x="745.2822" y="159.875"/><rect fill="none" height="37.9688" style="stroke:#999999;stroke-width:1.0;" width="10" x="745.2822" y="311.75"/><polygon fill="#4362B1" points="314.8613,79.9375,324.8613,83.9375,314.8613,87.9375,318.8613,83.9375" style="stroke:#4362B1;stroke-width:1.0;"/><line style="stroke:#4362B1;stroke-width:3.0;" x1="0" x2="320.8613" y1="83.9375" y2="83.9375"/><text fill="#FFFFFF" font-family="Verdana" font-size="12" lengthAdjust="spacing" textLength="249.3926" x="12" y="74.1074">initLogEnricherWithDbHostWoConnection</text><text fill="#808080" font-family="Verdana" font-size="12" lengthAdjust="spacing" textLength="40.8398" x="269.0215" y="74.1074">1.7 ms</text><polygon fill="#4362B1" points="531.4268,117.9063,541.4268,121.9063,531.4268,125.9063,535.4268,121.9063" style="stroke:#4362B1;stroke-width:1.0;"/><line style="stroke:#4362B1;stroke-width:3.0;" x1="336.8613" x2="537.4268" y1="121.9063" y2="121.9063"/><text fill="#FFFFFF" font-family="Verdana" font-size="12" lengthAdjust="spacing" textLength="90.5977" x="348.8613" y="112.0762">initLogEnricher</text><text fill="#808080" font-family="Verdana" font-size="12" lengthAdjust="spacing" textLength="48.4746" x="447.0879" y="112.0762">1.64 ms</text><polygon fill="#4362B1" points="733.2822,155.875,743.2822,159.875,733.2822,163.875,737.2822,159.875" style="stroke:#4362B1;stroke-width:1.0;"/><line style="stroke:#4362B1;stroke-width:3.0;" x1="553.4268" x2="739.2822" y1="159.875" y2="159.875"/><text fill="#FFFFFF" font-family="Verdana" font-size="12" lengthAdjust="spacing" textLength="82.8516" x="565.4268" y="150.0449">getStatement</text><text fill="#808080" font-family="Verdana" font-size="12" lengthAdjust="spacing" textLength="63.7441" x="655.9072" y="150.0449">0.0229 ms</text><polygon fill="#4362B1" points="564.4268,193.8438,554.4268,197.8438,564.4268,201.8438,560.4268,197.8438" style="stroke:#4362B1;stroke-width:1.0;"/><line style="stroke:#4362B1;stroke-width:3.0;stroke-dasharray:2.0,2.0;" x1="558.4268" x2="749.2822" y1="197.8438" y2="197.8438"/><text fill="#FFFFFF" font-family="Verdana" font-size="12" lengthAdjust="spacing" textLength="25.3945" x="575.4268" y="188.0137">void</text><polygon fill="#4362B1" points="347.8613,231.8125,337.8613,235.8125,347.8613,239.8125,343.8613,235.8125" style="stroke:#4362B1;stroke-width:1.0;"/><line style="stroke:#4362B1;stroke-width:3.0;stroke-dasharray:2.0,2.0;" x1="341.8613" x2="547.4268" y1="235.8125" y2="235.8125"/><text fill="#FFFFFF" font-family="Verdana" font-size="12" lengthAdjust="spacing" textLength="25.3945" x="358.8613" y="225.9824">void</text><polygon fill="#4362B1" points="531.4268,269.7813,541.4268,273.7813,531.4268,277.7813,535.4268,273.7813" style="stroke:#4362B1;stroke-width:1.0;"/><line style="stroke:#4362B1;stroke-width:3.0;" x1="336.8613" x2="537.4268" y1="273.7813" y2="273.7813"/><text fill="#FFFFFF" font-family="Verdana" font-size="12" lengthAdjust="spacing" textLength="30.9082" x="348.8613" y="263.9512">close</text><text fill="#808080" font-family="Verdana" font-size="12" lengthAdjust="spacing" textLength="63.7441" x="387.3984" y="263.9512">0.0253 ms</text><polygon fill="#4362B1" points="733.2822,307.75,743.2822,311.75,733.2822,315.75,737.2822,311.75" style="stroke:#4362B1;stroke-width:1.0;"/><line style="stroke:#4362B1;stroke-width:3.0;" x1="553.4268" x2="739.2822" y1="311.75" y2="311.75"/><text fill="#FFFFFF" font-family="Verdana" font-size="12" lengthAdjust="spacing" textLength="30.9082" x="565.4268" y="301.9199">close</text><text fill="#808080" font-family="Verdana" font-size="12" lengthAdjust="spacing" textLength="71.3789" x="603.9639" y="301.9199">0.00955 ms</text><polygon fill="#4362B1" points="564.4268,345.7188,554.4268,349.7188,564.4268,353.7188,560.4268,349.7188" style="stroke:#4362B1;stroke-width:1.0;"/><line style="stroke:#4362B1;stroke-width:3.0;stroke-dasharray:2.0,2.0;" x1="558.4268" x2="749.2822" y1="349.7188" y2="349.7188"/><text fill="#FFFFFF" font-family="Verdana" font-size="12" lengthAdjust="spacing" textLength="25.3945" x="575.4268" y="339.8887">void</text><polygon fill="#4362B1" points="347.8613,383.6875,337.8613,387.6875,347.8613,391.6875,343.8613,387.6875" style="stroke:#4362B1;stroke-width:1.0;"/><line style="stroke:#4362B1;stroke-width:3.0;stroke-dasharray:2.0,2.0;" x1="341.8613" x2="547.4268" y1="387.6875" y2="387.6875"/><text fill="#FFFFFF" font-family="Verdana" font-size="12" lengthAdjust="spacing" textLength="25.3945" x="358.8613" y="377.8574">void</text><polygon fill="#4362B1" points="11,421.6563,1,425.6563,11,429.6563,7,425.6563" style="stroke:#4362B1;stroke-width:1.0;"/><line style="stroke:#4362B1;stroke-width:3.0;stroke-dasharray:2.0,2.0;" x1="5" x2="330.8613" y1="425.6563" y2="425.6563"/><text fill="#FFFFFF" font-family="Verdana" font-size="12" lengthAdjust="spacing" textLength="25.3945" x="22" y="415.8262">void</text><!--SRC=[rPFDJiCm48JlVGhJU-9IAAXHbGiW8OG4Kf5wwCbrtSII_x0tHRmzIrgLE8ug3boupkxCbnqh5z9mrMn5unMf0LmeAFNi8wyarCsc2S9pQq0OoBdLj1B0dDFCKQUOWKQh36gX1TLC6deO7PJSuN3ac0V9fSDTycoh1-CbhpMclOa0X0KoJjHnP7gr0Ielbk_gALZJEc8fNl-9Ujdjskr86Oy8MMTbmYo8D19Eil0hlFv-yuYabRspnWWE4l4BRfNrHUNPPqakyrkYmuAsMed939Vs34HwAGv9gcPbV4ho5NtUpNKCx23Zf7P6Uc9MHbqK11zp2MZ-5cBK99zCf_C-h8EBaWPfYophuVPMRe-hMt4cAUa9e_f5dR8wIGCL_A9ohcmGwVMpgp-jUfWocSzc_xtaDHe7_gUZj-DCbhu0]--></g></svg>