<svg xmlns="http://www.w3.org/2000/svg" xmlns:xlink="http://www.w3.org/1999/xlink" contentStyleType="text/css" height="441px" preserveAspectRatio="none" style="width:741px;height:441px;background:#FFFFFF;" version="1.1" viewBox="0 0 741 441" width="741px" zoomAndPan="magnify"><defs/><g><rect fill="#FFFFFF" height="203.9297" style="stroke:#181818;stroke-width:1.0;" width="10" x="186.8193" y="67.4297"/><rect fill="#FFFFFF" height="29.1328" style="stroke:#181818;stroke-width:1.0;" width="10" x="387.771" y="96.5625"/><rect fill="#FFFFFF" height="87.3984" style="stroke:#181818;stroke-width:1.0;" width="10" x="387.771" y="154.8281"/><rect fill="#FFFFFF" height="29.1328" style="stroke:#181818;stroke-width:1.0;" width="10" x="387.771" y="329.625"/><rect fill="#FFFFFF" height="29.1328" style="stroke:#181818;stroke-width:1.0;" width="10" x="527.5757" y="183.9609"/><rect fill="#FFFFFF" height="87.3984" style="stroke:#181818;stroke-width:1.0;" width="10" x="662.981" y="300.4922"/><line style="stroke:#181818;stroke-width:0.5;stroke-dasharray:5.0,5.0;" x1="190.8452" x2="190.8452" y1="36.2969" y2="405.8906"/><line style="stroke:#181818;stroke-width:0.5;stroke-dasharray:5.0,5.0;" x1="391.9854" x2="391.9854" y1="36.2969" y2="405.8906"/><line style="stroke:#181818;stroke-width:0.5;stroke-dasharray:5.0,5.0;" x1="531.8633" x2="531.8633" y1="36.2969" y2="405.8906"/><line style="stroke:#181818;stroke-width:0.5;stroke-dasharray:5.0,5.0;" x1="667.2881" x2="667.2881" y1="36.2969" y2="405.8906"/><rect fill="#E2E2F0" height="30.2969" rx="2.5" ry="2.5" style="stroke:#181818;stroke-width:0.5;" width="155.9482" x="113.8452" y="5"/><text fill="#000000" font-family="sans-serif" font-size="14" lengthAdjust="spacing" textLength="141.9482" x="120.8452" y="24.9951">LogFilesPositionTest</text><rect fill="#E2E2F0" height="30.2969" rx="2.5" ry="2.5" style="stroke:#181818;stroke-width:0.5;" width="155.9482" x="113.8452" y="404.8906"/><text fill="#000000" font-family="sans-serif" font-size="14" lengthAdjust="spacing" textLength="141.9482" x="120.8452" y="424.8857">LogFilesPositionTest</text><rect fill="#E2E2F0" height="30.2969" rx="2.5" ry="2.5" style="stroke:#181818;stroke-width:0.5;" width="117.5713" x="333.9854" y="5"/><text fill="#000000" font-family="sans-serif" font-size="14" lengthAdjust="spacing" textLength="103.5713" x="340.9854" y="24.9951">PostgreSqlJson</text><rect fill="#E2E2F0" height="30.2969" rx="2.5" ry="2.5" style="stroke:#181818;stroke-width:0.5;" width="117.5713" x="333.9854" y="404.8906"/><text fill="#000000" font-family="sans-serif" font-size="14" lengthAdjust="spacing" textLength="103.5713" x="340.9854" y="424.8857">PostgreSqlJson</text><rect fill="#E2E2F0" height="30.2969" rx="2.5" ry="2.5" style="stroke:#181818;stroke-width:0.5;" width="115.4248" x="474.8633" y="5"/><text fill="#000000" font-family="sans-serif" font-size="14" lengthAdjust="spacing" textLength="101.4248" x="481.8633" y="24.9951">EnrichmentOff</text><rect fill="#E2E2F0" height="30.2969" rx="2.5" ry="2.5" style="stroke:#181818;stroke-width:0.5;" width="115.4248" x="474.8633" y="404.8906"/><text fill="#000000" font-family="sans-serif" font-size="14" lengthAdjust="spacing" textLength="101.4248" x="481.8633" y="424.8857">EnrichmentOff</text><rect fill="#E2E2F0" height="30.2969" rx="2.5" ry="2.5" style="stroke:#181818;stroke-width:0.5;" width="135.3857" x="600.2881" y="5"/><text fill="#000000" font-family="sans-serif" font-size="14" lengthAdjust="spacing" textLength="121.3857" x="607.2881" y="24.9951">PostgreSqlJson$2</text><rect fill="#E2E2F0" height="30.2969" rx="2.5" ry="2.5" style="stroke:#181818;stroke-width:0.5;" width="135.3857" x="600.2881" y="404.8906"/><text fill="#000000" font-family="sans-serif" font-size="14" lengthAdjust="spacing" textLength="121.3857" x="607.2881" y="424.8857">PostgreSqlJson$2</text><rect fill="#FFFFFF" height="203.9297" style="stroke:#181818;stroke-width:1.0;" width="10" x="186.8193" y="67.4297"/><rect fill="#FFFFFF" height="29.1328" style="stroke:#181818;stroke-width:1.0;" width="10" x="387.771" y="96.5625"/><rect fill="#FFFFFF" height="87.3984" style="stroke:#181818;stroke-width:1.0;" width="10" x="387.771" y="154.8281"/><rect fill="#FFFFFF" height="29.1328" style="stroke:#181818;stroke-width:1.0;" width="10" x="387.771" y="329.625"/><rect fill="#FFFFFF" height="29.1328" style="stroke:#181818;stroke-width:1.0;" width="10" x="527.5757" y="183.9609"/><rect fill="#FFFFFF" height="87.3984" style="stroke:#181818;stroke-width:1.0;" width="10" x="662.981" y="300.4922"/><polygon fill="#181818" points="174.8193,63.4297,184.8193,67.4297,174.8193,71.4297,178.8193,67.4297" style="stroke:#181818;stroke-width:1.0;"/><line style="stroke:#181818;stroke-width:1.0;" x1="0" x2="180.8193" y1="67.4297" y2="67.4297"/><text fill="#000000" font-family="sans-serif" font-size="13" lengthAdjust="spacing" textLength="111.1729" x="7" y="62.3638">positionFileTasks</text><text fill="#808080" font-family="sans-serif" font-size="13" lengthAdjust="spacing" textLength="48.3818" x="126.4375" y="62.3638">171 ms</text><polygon fill="#181818" points="375.771,92.5625,385.771,96.5625,375.771,100.5625,379.771,96.5625" style="stroke:#181818;stroke-width:1.0;"/><line style="stroke:#181818;stroke-width:1.0;" x1="196.8193" x2="381.771" y1="96.5625" y2="96.5625"/><text fill="#000000" font-family="sans-serif" font-size="13" lengthAdjust="spacing" textLength="111.1729" x="203.8193" y="91.4966">positionFileTasks</text><text fill="#808080" font-family="sans-serif" font-size="13" lengthAdjust="spacing" textLength="52.5142" x="323.2568" y="91.4966">14.2 ms</text><polygon fill="#181818" points="207.8193,121.6953,197.8193,125.6953,207.8193,129.6953,203.8193,125.6953" style="stroke:#181818;stroke-width:1.0;"/><line style="stroke:#181818;stroke-width:1.0;stroke-dasharray:2.0,2.0;" x1="201.8193" x2="391.771" y1="125.6953" y2="125.6953"/><text fill="#000000" font-family="sans-serif" font-size="13" lengthAdjust="spacing" textLength="109.313" x="213.8193" y="120.6294">java.lang.Thread</text><polygon fill="#181818" points="375.771,150.8281,385.771,154.8281,375.771,158.8281,379.771,154.8281" style="stroke:#181818;stroke-width:1.0;"/><line style="stroke:#181818;stroke-width:1.0;" x1="196.8193" x2="381.771" y1="154.8281" y2="154.8281"/><text fill="#000000" font-family="sans-serif" font-size="13" lengthAdjust="spacing" textLength="33.4839" x="203.8193" y="149.7622">close</text><text fill="#808080" font-family="sans-serif" font-size="13" lengthAdjust="spacing" textLength="69.0562" x="245.5679" y="149.7622">0.0783 ms</text><polygon fill="#181818" points="515.5757,179.9609,525.5757,183.9609,515.5757,187.9609,519.5757,183.9609" style="stroke:#181818;stroke-width:1.0;"/><line style="stroke:#181818;stroke-width:1.0;" x1="397.771" x2="521.5757" y1="183.9609" y2="183.9609"/><text fill="#000000" font-family="sans-serif" font-size="13" lengthAdjust="spacing" textLength="33.4839" x="404.771" y="178.895">close</text><text fill="#808080" font-family="sans-serif" font-size="13" lengthAdjust="spacing" textLength="69.0562" x="446.5195" y="178.895">0.0196 ms</text><polygon fill="#181818" points="408.771,209.0938,398.771,213.0938,408.771,217.0938,404.771,213.0938" style="stroke:#181818;stroke-width:1.0;"/><line style="stroke:#181818;stroke-width:1.0;stroke-dasharray:2.0,2.0;" x1="402.771" x2="531.5757" y1="213.0938" y2="213.0938"/><text fill="#000000" font-family="sans-serif" font-size="13" lengthAdjust="spacing" textLength="27.5107" x="414.771" y="208.0278">void</text><polygon fill="#181818" points="207.8193,238.2266,197.8193,242.2266,207.8193,246.2266,203.8193,242.2266" style="stroke:#181818;stroke-width:1.0;"/><line style="stroke:#181818;stroke-width:1.0;stroke-dasharray:2.0,2.0;" x1="201.8193" x2="391.771" y1="242.2266" y2="242.2266"/><text fill="#000000" font-family="sans-serif" font-size="13" lengthAdjust="spacing" textLength="27.5107" x="213.8193" y="237.1606">void</text><polygon fill="#181818" points="11,267.3594,1,271.3594,11,275.3594,7,271.3594" style="stroke:#181818;stroke-width:1.0;"/><line style="stroke:#181818;stroke-width:1.0;stroke-dasharray:2.0,2.0;" x1="5" x2="190.8193" y1="271.3594" y2="271.3594"/><text fill="#000000" font-family="sans-serif" font-size="13" lengthAdjust="spacing" textLength="27.5107" x="17" y="266.2935">void</text><polygon fill="#181818" points="650.981,296.4922,660.981,300.4922,650.981,304.4922,654.981,300.4922" style="stroke:#181818;stroke-width:1.0;"/><line style="stroke:#181818;stroke-width:1.0;" x1="0" x2="656.981" y1="300.4922" y2="300.4922"/><text fill="#000000" font-family="sans-serif" font-size="13" lengthAdjust="spacing" textLength="21.8232" x="7" y="295.4263">run</text><text fill="#808080" font-family="sans-serif" font-size="13" lengthAdjust="spacing" textLength="52.5142" x="37.0879" y="295.4263">1.99 ms</text><polygon fill="#181818" points="408.771,325.625,398.771,329.625,408.771,333.625,404.771,329.625" style="stroke:#181818;stroke-width:1.0;"/><line style="stroke:#181818;stroke-width:1.0;" x1="402.771" x2="661.981" y1="329.625" y2="329.625"/><text fill="#000000" font-family="sans-serif" font-size="13" lengthAdjust="spacing" textLength="134.4307" x="414.771" y="324.5591">saveLogFilesPosition</text><text fill="#808080" font-family="sans-serif" font-size="13" lengthAdjust="spacing" textLength="52.5142" x="557.4663" y="324.5591">1.95 ms</text><polygon fill="#181818" points="650.981,354.7578,660.981,358.7578,650.981,362.7578,654.981,358.7578" style="stroke:#181818;stroke-width:1.0;"/><line style="stroke:#181818;stroke-width:1.0;stroke-dasharray:2.0,2.0;" x1="392.771" x2="656.981" y1="358.7578" y2="358.7578"/><text fill="#000000" font-family="sans-serif" font-size="13" lengthAdjust="spacing" textLength="27.5107" x="399.771" y="353.6919">void</text><polygon fill="#181818" points="11,383.8906,1,387.8906,11,391.8906,7,387.8906" style="stroke:#181818;stroke-width:1.0;"/><line style="stroke:#181818;stroke-width:1.0;stroke-dasharray:2.0,2.0;" x1="5" x2="666.981" y1="387.8906" y2="387.8906"/><text fill="#000000" font-family="sans-serif" font-size="13" lengthAdjust="spacing" textLength="27.5107" x="17" y="382.8247">void</text><!--SRC=[fP9DJuGm48Rl_8e9yGek-B5223Sz61DDvCPXCu4kMsLRR2k9_ruanD0FrYKUEpFl-xHlfqEXQ4KxP0gUUFD0Mo9VkAIASbOGgG0b-Aw6xtKpwT1HZI2l7-sZv6mKwILz_9u9MXsEXAdd_NwSrYgdl7Unm_qYzZs0CiXTDqsXcqu_hGBbkuIiuYqNQIFmAuTe6y5HPfTZBH-Ci5AqHqMSYGnzS3Q2NB_KtzphCDR1CxJkjGZDWi2alc6FOOki2Ok385YFsfgiTRQVKxLS4lq9ct2plRjQymWmYa6kVVqI9KfkJSgCerauCKDE1gVdj9v6P-7OJcUc_cjtAkbo4BfNT9BFn0kxLvh_iejJ49_CMAqmIHPssbHxTbYxsFvyYJqnhsGnRzPiWidyJwXs97QWvimt]--></g></svg>