<svg xmlns="http://www.w3.org/2000/svg" xmlns:xlink="http://www.w3.org/1999/xlink" contentStyleType="text/css" height="408px" preserveAspectRatio="none" style="width:680px;height:408px;background:#FFFFFF;" version="1.1" viewBox="0 0 680 408" width="680px" zoomAndPan="magnify"><defs/><g><rect fill="#FFFFFF" height="288.1953" style="stroke:#181818;stroke-width:1.0;" width="10" x="201.1206" y="67.4297"/><rect fill="#FFFFFF" height="113.3984" style="stroke:#181818;stroke-width:1.0;" width="10" x="361.3711" y="96.5625"/><rect fill="#FFFFFF" height="40.1328" style="stroke:#181818;stroke-width:1.0;" width="10" x="366.3711" y="133.6953"/><rect fill="#FFFFFF" height="87.3984" style="stroke:#181818;stroke-width:1.0;" width="10" x="361.3711" y="239.0938"/><rect fill="#FFFFFF" height="29.1328" style="stroke:#181818;stroke-width:1.0;" width="10" x="611.3691" y="268.2266"/><line style="stroke:#181818;stroke-width:0.5;stroke-dasharray:5.0,5.0;" x1="205.6558" x2="205.6558" y1="36.2969" y2="373.625"/><line style="stroke:#181818;stroke-width:0.5;stroke-dasharray:5.0,5.0;" x1="365.5854" x2="365.5854" y1="36.2969" y2="373.625"/><line style="stroke:#181818;stroke-width:0.5;stroke-dasharray:5.0,5.0;" x1="615.6567" x2="615.6567" y1="36.2969" y2="373.625"/><rect fill="#E2E2F0" height="30.2969" rx="2.5" ry="2.5" style="stroke:#181818;stroke-width:0.5;" width="182.9297" x="114.6558" y="5"/><text fill="#000000" font-family="sans-serif" font-size="14" lengthAdjust="spacing" textLength="168.9297" x="121.6558" y="24.9951">TestCliArgumentParsing</text><rect fill="#E2E2F0" height="30.2969" rx="2.5" ry="2.5" style="stroke:#181818;stroke-width:0.5;" width="182.9297" x="114.6558" y="372.625"/><text fill="#000000" font-family="sans-serif" font-size="14" lengthAdjust="spacing" textLength="168.9297" x="121.6558" y="392.6201">TestCliArgumentParsing</text><rect fill="#E2E2F0" height="30.2969" rx="2.5" ry="2.5" style="stroke:#181818;stroke-width:0.5;" width="117.5713" x="307.5854" y="5"/><text fill="#000000" font-family="sans-serif" font-size="14" lengthAdjust="spacing" textLength="103.5713" x="314.5854" y="24.9951">PostgreSqlJson</text><rect fill="#E2E2F0" height="30.2969" rx="2.5" ry="2.5" style="stroke:#181818;stroke-width:0.5;" width="117.5713" x="307.5854" y="372.625"/><text fill="#000000" font-family="sans-serif" font-size="14" lengthAdjust="spacing" textLength="103.5713" x="314.5854" y="392.6201">PostgreSqlJson</text><rect fill="#E2E2F0" height="30.2969" rx="2.5" ry="2.5" style="stroke:#181818;stroke-width:0.5;" width="115.4248" x="558.6567" y="5"/><text fill="#000000" font-family="sans-serif" font-size="14" lengthAdjust="spacing" textLength="101.4248" x="565.6567" y="24.9951">EnrichmentOff</text><rect fill="#E2E2F0" height="30.2969" rx="2.5" ry="2.5" style="stroke:#181818;stroke-width:0.5;" width="115.4248" x="558.6567" y="372.625"/><text fill="#000000" font-family="sans-serif" font-size="14" lengthAdjust="spacing" textLength="101.4248" x="565.6567" y="392.6201">EnrichmentOff</text><rect fill="#FFFFFF" height="288.1953" style="stroke:#181818;stroke-width:1.0;" width="10" x="201.1206" y="67.4297"/><rect fill="#FFFFFF" height="113.3984" style="stroke:#181818;stroke-width:1.0;" width="10" x="361.3711" y="96.5625"/><rect fill="#FFFFFF" height="40.1328" style="stroke:#181818;stroke-width:1.0;" width="10" x="366.3711" y="133.6953"/><rect fill="#FFFFFF" height="87.3984" style="stroke:#181818;stroke-width:1.0;" width="10" x="361.3711" y="239.0938"/><rect fill="#FFFFFF" height="29.1328" style="stroke:#181818;stroke-width:1.0;" width="10" x="611.3691" y="268.2266"/><polygon fill="#181818" points="189.1206,63.4297,199.1206,67.4297,189.1206,71.4297,193.1206,67.4297" style="stroke:#181818;stroke-width:1.0;"/><line style="stroke:#181818;stroke-width:1.0;" x1="0" x2="195.1206" y1="67.4297" y2="67.4297"/><text fill="#000000" font-family="sans-serif" font-size="13" lengthAdjust="spacing" textLength="121.3418" x="7" y="62.3638">testNonExistingDir</text><text fill="#808080" font-family="sans-serif" font-size="13" lengthAdjust="spacing" textLength="52.5142" x="136.6064" y="62.3638">1.09 ms</text><polygon fill="#181818" points="349.3711,92.5625,359.3711,96.5625,349.3711,100.5625,353.3711,96.5625" style="stroke:#181818;stroke-width:1.0;"/><line style="stroke:#181818;stroke-width:1.0;" x1="211.1206" x2="355.3711" y1="96.5625" y2="96.5625"/><text fill="#000000" font-family="sans-serif" font-size="13" lengthAdjust="spacing" textLength="22.3374" x="218.1206" y="91.4966">call</text><text fill="#808080" font-family="sans-serif" font-size="13" lengthAdjust="spacing" textLength="69.0562" x="248.7227" y="91.4966">0.0956 ms</text><line style="stroke:#181818;stroke-width:1.0;" x1="371.3711" x2="418.3711" y1="120.6953" y2="120.6953"/><line style="stroke:#181818;stroke-width:1.0;" x1="418.3711" x2="418.3711" y1="120.6953" y2="133.6953"/><line style="stroke:#181818;stroke-width:1.0;" x1="377.3711" x2="418.3711" y1="133.6953" y2="133.6953"/><polygon fill="#181818" points="387.3711,129.6953,377.3711,133.6953,387.3711,137.6953,383.3711,133.6953" style="stroke:#181818;stroke-width:1.0;"/><text fill="#000000" font-family="sans-serif" font-size="13" lengthAdjust="spacing" textLength="138.6772" x="383.3711" y="115.6294">watchPostgreSqlLogs</text><text fill="#808080" font-family="sans-serif" font-size="13" lengthAdjust="spacing" textLength="69.0562" x="530.313" y="115.6294">0.0364 ms</text><line style="stroke:#181818;stroke-width:1.0;stroke-dasharray:2.0,2.0;" x1="319.3711" x2="365.3711" y1="172.8281" y2="172.8281"/><line style="stroke:#181818;stroke-width:1.0;stroke-dasharray:2.0,2.0;" x1="319.3711" x2="319.3711" y1="172.8281" y2="185.8281"/><line style="stroke:#181818;stroke-width:1.0;stroke-dasharray:2.0,2.0;" x1="319.3711" x2="359.3711" y1="185.8281" y2="185.8281"/><polygon fill="#181818" points="349.3711,181.8281,359.3711,185.8281,349.3711,189.8281,353.3711,185.8281" style="stroke:#181818;stroke-width:1.0;"/><text fill="#000000" font-family="sans-serif" font-size="13" lengthAdjust="spacing" textLength="110.335" x="244.0361" y="167.7622">java.lang.Integer</text><polygon fill="#181818" points="222.1206,205.9609,212.1206,209.9609,222.1206,213.9609,218.1206,209.9609" style="stroke:#181818;stroke-width:1.0;"/><line style="stroke:#181818;stroke-width:1.0;stroke-dasharray:2.0,2.0;" x1="216.1206" x2="365.3711" y1="209.9609" y2="209.9609"/><text fill="#000000" font-family="sans-serif" font-size="13" lengthAdjust="spacing" textLength="110.335" x="228.1206" y="204.895">java.lang.Integer</text><polygon fill="#181818" points="349.3711,235.0938,359.3711,239.0938,349.3711,243.0938,353.3711,239.0938" style="stroke:#181818;stroke-width:1.0;"/><line style="stroke:#181818;stroke-width:1.0;" x1="211.1206" x2="355.3711" y1="239.0938" y2="239.0938"/><text fill="#000000" font-family="sans-serif" font-size="13" lengthAdjust="spacing" textLength="33.4839" x="218.1206" y="234.0278">close</text><text fill="#808080" font-family="sans-serif" font-size="13" lengthAdjust="spacing" textLength="69.0562" x="259.8691" y="234.0278">0.0445 ms</text><polygon fill="#181818" points="599.3691,264.2266,609.3691,268.2266,599.3691,272.2266,603.3691,268.2266" style="stroke:#181818;stroke-width:1.0;"/><line style="stroke:#181818;stroke-width:1.0;" x1="371.3711" x2="605.3691" y1="268.2266" y2="268.2266"/><text fill="#000000" font-family="sans-serif" font-size="13" lengthAdjust="spacing" textLength="33.4839" x="378.3711" y="263.1606">close</text><text fill="#808080" font-family="sans-serif" font-size="13" lengthAdjust="spacing" textLength="69.0562" x="420.1196" y="263.1606">0.0148 ms</text><polygon fill="#181818" points="382.3711,293.3594,372.3711,297.3594,382.3711,301.3594,378.3711,297.3594" style="stroke:#181818;stroke-width:1.0;"/><line style="stroke:#181818;stroke-width:1.0;stroke-dasharray:2.0,2.0;" x1="376.3711" x2="615.3691" y1="297.3594" y2="297.3594"/><text fill="#000000" font-family="sans-serif" font-size="13" lengthAdjust="spacing" textLength="27.5107" x="388.3711" y="292.2935">void</text><polygon fill="#181818" points="222.1206,322.4922,212.1206,326.4922,222.1206,330.4922,218.1206,326.4922" style="stroke:#181818;stroke-width:1.0;"/><line style="stroke:#181818;stroke-width:1.0;stroke-dasharray:2.0,2.0;" x1="216.1206" x2="365.3711" y1="326.4922" y2="326.4922"/><text fill="#000000" font-family="sans-serif" font-size="13" lengthAdjust="spacing" textLength="27.5107" x="228.1206" y="321.4263">void</text><polygon fill="#181818" points="11,351.625,1,355.625,11,359.625,7,355.625" style="stroke:#181818;stroke-width:1.0;"/><line style="stroke:#181818;stroke-width:1.0;stroke-dasharray:2.0,2.0;" x1="5" x2="205.1206" y1="355.625" y2="355.625"/><text fill="#000000" font-family="sans-serif" font-size="13" lengthAdjust="spacing" textLength="27.5107" x="17" y="350.5591">void</text><!--SRC=[fPFDJiCm48JlVOfLxWcjI2k8eaW8UW0Xg0ItdbQkwngvTh2N06-FYIg8ywSMhhCxyycpIOcM99CbQe9dxkXQoIihtlPSqmgjare0EeZwHz6aRDXNnf6m_EbLtJcZQrieXUjBRINRVQSzRhVrTg144u1rNFI3Co2lFnYz_92El70ZBUJCA6CpOV6pW5aolOIzoyzgiV1Xo4XMI7pWcNu31aPn4RuZ0uPAXRofvyqN8R7130Fg6RJ4BkKTYUr-nNiZN0TwlaZRqDEmUHotkIzOOQ9GY-HM4nVS7emRFXRStztHyNy9xpcCCevtIahJ-Vyk4toPGvHPUZ5oYY1Yw18jJcNafjjzD-dewdy2nzfUU-FGRtS8QDZxDxy0]--></g></svg>