<svg xmlns="http://www.w3.org/2000/svg" xmlns:xlink="http://www.w3.org/1999/xlink" contentStyleType="text/css" height="297px" preserveAspectRatio="none" style="width:710px;height:297px;background:#FFFFFF;" version="1.1" viewBox="0 0 710 297" width="710px" zoomAndPan="magnify"><defs/><g><rect fill="#FFFFFF" height="176.7969" style="stroke:#181818;stroke-width:1.0;" width="10" x="175.4888" y="67.4297"/><rect fill="#FFFFFF" height="118.5313" style="stroke:#181818;stroke-width:1.0;" width="10" x="360.4126" y="96.5625"/><rect fill="#FFFFFF" height="29.1328" style="stroke:#181818;stroke-width:1.0;" width="10" x="631.6455" y="149.8281"/><rect fill="none" height="75.3984" style="stroke:#000000;stroke-width:1.5;" width="407.731" x="296.627" y="111.5625"/><line style="stroke:#181818;stroke-width:0.5;stroke-dasharray:5.0,5.0;" x1="179.729" x2="179.729" y1="36.2969" y2="262.2266"/><line style="stroke:#181818;stroke-width:0.5;stroke-dasharray:5.0,5.0;" x1="364.627" x2="364.627" y1="36.2969" y2="262.2266"/><line style="stroke:#181818;stroke-width:0.5;stroke-dasharray:5.0,5.0;" x1="635.9331" x2="635.9331" y1="36.2969" y2="262.2266"/><rect fill="#E2E2F0" height="30.2969" rx="2.5" ry="2.5" style="stroke:#181818;stroke-width:0.5;" width="147.5195" x="106.729" y="5"/><text fill="#000000" font-family="sans-serif" font-size="14" lengthAdjust="spacing" textLength="133.5195" x="113.729" y="24.9951">PostgreSqlJsonTest</text><rect fill="#E2E2F0" height="30.2969" rx="2.5" ry="2.5" style="stroke:#181818;stroke-width:0.5;" width="147.5195" x="106.729" y="261.2266"/><text fill="#000000" font-family="sans-serif" font-size="14" lengthAdjust="spacing" textLength="133.5195" x="113.729" y="281.2217">PostgreSqlJsonTest</text><rect fill="#E2E2F0" height="30.2969" rx="2.5" ry="2.5" style="stroke:#181818;stroke-width:0.5;" width="117.5713" x="306.627" y="5"/><text fill="#000000" font-family="sans-serif" font-size="14" lengthAdjust="spacing" textLength="103.5713" x="313.627" y="24.9951">PostgreSqlJson</text><rect fill="#E2E2F0" height="30.2969" rx="2.5" ry="2.5" style="stroke:#181818;stroke-width:0.5;" width="117.5713" x="306.627" y="261.2266"/><text fill="#000000" font-family="sans-serif" font-size="14" lengthAdjust="spacing" textLength="103.5713" x="313.627" y="281.2217">PostgreSqlJson</text><rect fill="#E2E2F0" height="30.2969" rx="2.5" ry="2.5" style="stroke:#181818;stroke-width:0.5;" width="115.4248" x="578.9331" y="5"/><text fill="#000000" font-family="sans-serif" font-size="14" lengthAdjust="spacing" textLength="101.4248" x="585.9331" y="24.9951">EnrichmentOff</text><rect fill="#E2E2F0" height="30.2969" rx="2.5" ry="2.5" style="stroke:#181818;stroke-width:0.5;" width="115.4248" x="578.9331" y="261.2266"/><text fill="#000000" font-family="sans-serif" font-size="14" lengthAdjust="spacing" textLength="101.4248" x="585.9331" y="281.2217">EnrichmentOff</text><rect fill="#FFFFFF" height="176.7969" style="stroke:#181818;stroke-width:1.0;" width="10" x="175.4888" y="67.4297"/><rect fill="#FFFFFF" height="118.5313" style="stroke:#181818;stroke-width:1.0;" width="10" x="360.4126" y="96.5625"/><rect fill="#FFFFFF" height="29.1328" style="stroke:#181818;stroke-width:1.0;" width="10" x="631.6455" y="149.8281"/><polygon fill="#181818" points="163.4888,63.4297,173.4888,67.4297,163.4888,71.4297,167.4888,67.4297" style="stroke:#181818;stroke-width:1.0;"/><line style="stroke:#181818;stroke-width:1.0;" x1="0" x2="169.4888" y1="67.4297" y2="67.4297"/><text fill="#000000" font-family="sans-serif" font-size="13" lengthAdjust="spacing" textLength="87.439" x="7" y="62.3638">parseLogPlan</text><text fill="#808080" font-family="sans-serif" font-size="13" lengthAdjust="spacing" textLength="60.7852" x="102.7036" y="62.3638">0.215 ms</text><polygon fill="#181818" points="348.4126,92.5625,358.4126,96.5625,348.4126,100.5625,352.4126,96.5625" style="stroke:#181818;stroke-width:1.0;"/><line style="stroke:#181818;stroke-width:1.0;" x1="185.4888" x2="354.4126" y1="96.5625" y2="96.5625"/><text fill="#000000" font-family="sans-serif" font-size="13" lengthAdjust="spacing" textLength="86.874" x="192.4888" y="91.4966">parseLogLine</text><text fill="#808080" font-family="sans-serif" font-size="13" lengthAdjust="spacing" textLength="60.7852" x="287.6274" y="91.4966">0.184 ms</text><path d="M296.627,111.5625 L373.251,111.5625 L373.251,118.6953 L363.251,128.6953 L296.627,128.6953 L296.627,111.5625 " fill="#EEEEEE" style="stroke:#000000;stroke-width:1.5;"/><rect fill="none" height="75.3984" style="stroke:#000000;stroke-width:1.5;" width="407.731" x="296.627" y="111.5625"/><text fill="#000000" font-family="sans-serif" font-size="13" font-weight="bold" lengthAdjust="spacing" textLength="31.624" x="311.627" y="124.6294">loop</text><text fill="#000000" font-family="sans-serif" font-size="11" font-weight="bold" lengthAdjust="spacing" textLength="51.0093" x="388.251" y="123.7729">[2 times</text><text fill="#808080" font-family="sans-serif" font-size="11" font-weight="bold" lengthAdjust="spacing" textLength="64.2866" x="446.9194" y="123.7729">0.0383 ms</text><text fill="#000000" font-family="sans-serif" font-size="11" font-weight="bold" lengthAdjust="spacing" textLength="5.0273" x="511.2061" y="123.7729">]</text><polygon fill="#181818" points="619.6455,145.8281,629.6455,149.8281,619.6455,153.8281,623.6455,149.8281" style="stroke:#181818;stroke-width:1.0;"/><line style="stroke:#181818;stroke-width:1.0;" x1="370.4126" x2="625.6455" y1="149.8281" y2="149.8281"/><text fill="#000000" font-family="sans-serif" font-size="13" lengthAdjust="spacing" textLength="164.9121" x="377.4126" y="144.7622">enricherApplicationName</text><text fill="#808080" font-family="sans-serif" font-size="13" lengthAdjust="spacing" textLength="69.0562" x="550.5894" y="144.7622">0.0383 ms</text><polygon fill="#181818" points="381.4126,174.9609,371.4126,178.9609,381.4126,182.9609,377.4126,178.9609" style="stroke:#181818;stroke-width:1.0;"/><line style="stroke:#181818;stroke-width:1.0;stroke-dasharray:2.0,2.0;" x1="375.4126" x2="635.6455" y1="178.9609" y2="178.9609"/><text fill="#000000" font-family="sans-serif" font-size="13" lengthAdjust="spacing" textLength="27.5107" x="387.4126" y="173.895">void</text><polygon fill="#181818" points="196.4888,211.0938,186.4888,215.0938,196.4888,219.0938,192.4888,215.0938" style="stroke:#181818;stroke-width:1.0;"/><line style="stroke:#181818;stroke-width:1.0;stroke-dasharray:2.0,2.0;" x1="190.4888" x2="364.4126" y1="215.0938" y2="215.0938"/><text fill="#000000" font-family="sans-serif" font-size="13" lengthAdjust="spacing" textLength="27.5107" x="202.4888" y="210.0278">void</text><polygon fill="#181818" points="11,240.2266,1,244.2266,11,248.2266,7,244.2266" style="stroke:#181818;stroke-width:1.0;"/><line style="stroke:#181818;stroke-width:1.0;stroke-dasharray:2.0,2.0;" x1="5" x2="179.4888" y1="244.2266" y2="244.2266"/><text fill="#000000" font-family="sans-serif" font-size="13" lengthAdjust="spacing" textLength="27.5107" x="17" y="239.1606">void</text><!--SRC=[ZPBDQiCm48JlUOh5TwVvQI4OO-WXbsAQG7lBQP4tZi3Mgf88vEthkCMj9AlqgD7CDwj56esJGcfK3eviNMlexQDxiQpUoJf02raiPmkTZCr4VFjU6IakFIbtE9z7jwTa2u1JNiMb1GmKIpMtnmuLb88xDaLhy5R1QhbPFq5louTHhGO62YUlw6ZcLSCjpCXXwKzXBHM5XUlTer-Oh1pl06fc3HjmiYSRmbRRtJQanKFcbRUf0cWyaddMkfC2dMJrYZtzbpxDws4JvMMU1-rNbiraRkXFsburYQqFt73j4_WND5hfAGf-VPBlS39wTtq2]--></g></svg>